<?xml version="1.0" encoding="utf-8" standalone="no"?>
<!DOCTYPE svg PUBLIC "-//W3C//DTD SVG 1.1//EN"
  "http://www.w3.org/Graphics/SVG/1.1/DTD/svg11.dtd">
<!-- Created with matplotlib (https://matplotlib.org/) -->
<svg height="345.6pt" version="1.1" viewBox="0 0 460.8 345.6" width="460.8pt" xmlns="http://www.w3.org/2000/svg" xmlns:xlink="http://www.w3.org/1999/xlink">
 <defs>
  <style type="text/css">
*{stroke-linecap:butt;stroke-linejoin:round;}
  </style>
 </defs>
 <g id="figure_1">
  <g id="patch_1">
   <path d="M 0 345.6 
L 460.8 345.6 
L 460.8 0 
L 0 0 
z
" style="fill:#ffffff;"/>
  </g>
  <g id="axes_1">
   <g id="patch_2">
    <path d="M 57.6 307.584 
L 414.72 307.584 
L 414.72 41.472 
L 57.6 41.472 
z
" style="fill:#ffffff;"/>
   </g>
   <g id="matplotlib.axis_1">
    <g id="xtick_1">
     <g id="line2d_1">
      <defs>
       <path d="M 0 0 
L 0 3.5 
" id="mdde5ca0725" style="stroke:#000000;stroke-width:0.8;"/>
      </defs>
      <g>
       <use style="stroke:#000000;stroke-width:0.8;" x="73.832727" xlink:href="#mdde5ca0725" y="307.584"/>
      </g>
     </g>
     <g id="text_1">
      <!-- 0 -->
      <defs>
       <path d="M 31.78125 66.40625 
Q 24.171875 66.40625 20.328125 58.90625 
Q 16.5 51.421875 16.5 36.375 
Q 16.5 21.390625 20.328125 13.890625 
Q 24.171875 6.390625 31.78125 6.390625 
Q 39.453125 6.390625 43.28125 13.890625 
Q 47.125 21.390625 47.125 36.375 
Q 47.125 51.421875 43.28125 58.90625 
Q 39.453125 66.40625 31.78125 66.40625 
z
M 31.78125 74.21875 
Q 44.046875 74.21875 50.515625 64.515625 
Q 56.984375 54.828125 56.984375 36.375 
Q 56.984375 17.96875 50.515625 8.265625 
Q 44.046875 -1.421875 31.78125 -1.421875 
Q 19.53125 -1.421875 13.0625 8.265625 
Q 6.59375 17.96875 6.59375 36.375 
Q 6.59375 54.828125 13.0625 64.515625 
Q 19.53125 74.21875 31.78125 74.21875 
z
" id="DejaVuSans-48"/>
      </defs>
      <g transform="translate(70.651477 322.182437)scale(0.1 -0.1)">
       <use xlink:href="#DejaVuSans-48"/>
      </g>
     </g>
    </g>
    <g id="xtick_2">
     <g id="line2d_2">
      <g>
       <use style="stroke:#000000;stroke-width:0.8;" x="139.419504" xlink:href="#mdde5ca0725" y="307.584"/>
      </g>
     </g>
     <g id="text_2">
      <!-- 20 -->
      <defs>
       <path d="M 19.1875 8.296875 
L 53.609375 8.296875 
L 53.609375 0 
L 7.328125 0 
L 7.328125 8.296875 
Q 12.9375 14.109375 22.625 23.890625 
Q 32.328125 33.6875 34.8125 36.53125 
Q 39.546875 41.84375 41.421875 45.53125 
Q 43.3125 49.21875 43.3125 52.78125 
Q 43.3125 58.59375 39.234375 62.25 
Q 35.15625 65.921875 28.609375 65.921875 
Q 23.96875 65.921875 18.8125 64.3125 
Q 13.671875 62.703125 7.8125 59.421875 
L 7.8125 69.390625 
Q 13.765625 71.78125 18.9375 73 
Q 24.125 74.21875 28.421875 74.21875 
Q 39.75 74.21875 46.484375 68.546875 
Q 53.21875 62.890625 53.21875 53.421875 
Q 53.21875 48.921875 51.53125 44.890625 
Q 49.859375 40.875 45.40625 35.40625 
Q 44.1875 33.984375 37.640625 27.21875 
Q 31.109375 20.453125 19.1875 8.296875 
z
" id="DejaVuSans-50"/>
      </defs>
      <g transform="translate(133.057004 322.182437)scale(0.1 -0.1)">
       <use xlink:href="#DejaVuSans-50"/>
       <use x="63.623047" xlink:href="#DejaVuSans-48"/>
      </g>
     </g>
    </g>
    <g id="xtick_3">
     <g id="line2d_3">
      <g>
       <use style="stroke:#000000;stroke-width:0.8;" x="205.006281" xlink:href="#mdde5ca0725" y="307.584"/>
      </g>
     </g>
     <g id="text_3">
      <!-- 40 -->
      <defs>
       <path d="M 37.796875 64.3125 
L 12.890625 25.390625 
L 37.796875 25.390625 
z
M 35.203125 72.90625 
L 47.609375 72.90625 
L 47.609375 25.390625 
L 58.015625 25.390625 
L 58.015625 17.1875 
L 47.609375 17.1875 
L 47.609375 0 
L 37.796875 0 
L 37.796875 17.1875 
L 4.890625 17.1875 
L 4.890625 26.703125 
z
" id="DejaVuSans-52"/>
      </defs>
      <g transform="translate(198.643781 322.182437)scale(0.1 -0.1)">
       <use xlink:href="#DejaVuSans-52"/>
       <use x="63.623047" xlink:href="#DejaVuSans-48"/>
      </g>
     </g>
    </g>
    <g id="xtick_4">
     <g id="line2d_4">
      <g>
       <use style="stroke:#000000;stroke-width:0.8;" x="270.593058" xlink:href="#mdde5ca0725" y="307.584"/>
      </g>
     </g>
     <g id="text_4">
      <!-- 60 -->
      <defs>
       <path d="M 33.015625 40.375 
Q 26.375 40.375 22.484375 35.828125 
Q 18.609375 31.296875 18.609375 23.390625 
Q 18.609375 15.53125 22.484375 10.953125 
Q 26.375 6.390625 33.015625 6.390625 
Q 39.65625 6.390625 43.53125 10.953125 
Q 47.40625 15.53125 47.40625 23.390625 
Q 47.40625 31.296875 43.53125 35.828125 
Q 39.65625 40.375 33.015625 40.375 
z
M 52.59375 71.296875 
L 52.59375 62.3125 
Q 48.875 64.0625 45.09375 64.984375 
Q 41.3125 65.921875 37.59375 65.921875 
Q 27.828125 65.921875 22.671875 59.328125 
Q 17.53125 52.734375 16.796875 39.40625 
Q 19.671875 43.65625 24.015625 45.921875 
Q 28.375 48.1875 33.59375 48.1875 
Q 44.578125 48.1875 50.953125 41.515625 
Q 57.328125 34.859375 57.328125 23.390625 
Q 57.328125 12.15625 50.6875 5.359375 
Q 44.046875 -1.421875 33.015625 -1.421875 
Q 20.359375 -1.421875 13.671875 8.265625 
Q 6.984375 17.96875 6.984375 36.375 
Q 6.984375 53.65625 15.1875 63.9375 
Q 23.390625 74.21875 37.203125 74.21875 
Q 40.921875 74.21875 44.703125 73.484375 
Q 48.484375 72.75 52.59375 71.296875 
z
" id="DejaVuSans-54"/>
      </defs>
      <g transform="translate(264.230558 322.182437)scale(0.1 -0.1)">
       <use xlink:href="#DejaVuSans-54"/>
       <use x="63.623047" xlink:href="#DejaVuSans-48"/>
      </g>
     </g>
    </g>
    <g id="xtick_5">
     <g id="line2d_5">
      <g>
       <use style="stroke:#000000;stroke-width:0.8;" x="336.179835" xlink:href="#mdde5ca0725" y="307.584"/>
      </g>
     </g>
     <g id="text_5">
      <!-- 80 -->
      <defs>
       <path d="M 31.78125 34.625 
Q 24.75 34.625 20.71875 30.859375 
Q 16.703125 27.09375 16.703125 20.515625 
Q 16.703125 13.921875 20.71875 10.15625 
Q 24.75 6.390625 31.78125 6.390625 
Q 38.8125 6.390625 42.859375 10.171875 
Q 46.921875 13.96875 46.921875 20.515625 
Q 46.921875 27.09375 42.890625 30.859375 
Q 38.875 34.625 31.78125 34.625 
z
M 21.921875 38.8125 
Q 15.578125 40.375 12.03125 44.71875 
Q 8.5 49.078125 8.5 55.328125 
Q 8.5 64.0625 14.71875 69.140625 
Q 20.953125 74.21875 31.78125 74.21875 
Q 42.671875 74.21875 48.875 69.140625 
Q 55.078125 64.0625 55.078125 55.328125 
Q 55.078125 49.078125 51.53125 44.71875 
Q 48 40.375 41.703125 38.8125 
Q 48.828125 37.15625 52.796875 32.3125 
Q 56.78125 27.484375 56.78125 20.515625 
Q 56.78125 9.90625 50.3125 4.234375 
Q 43.84375 -1.421875 31.78125 -1.421875 
Q 19.734375 -1.421875 13.25 4.234375 
Q 6.78125 9.90625 6.78125 20.515625 
Q 6.78125 27.484375 10.78125 32.3125 
Q 14.796875 37.15625 21.921875 38.8125 
z
M 18.3125 54.390625 
Q 18.3125 48.734375 21.84375 45.5625 
Q 25.390625 42.390625 31.78125 42.390625 
Q 38.140625 42.390625 41.71875 45.5625 
Q 45.3125 48.734375 45.3125 54.390625 
Q 45.3125 60.0625 41.71875 63.234375 
Q 38.140625 66.40625 31.78125 66.40625 
Q 25.390625 66.40625 21.84375 63.234375 
Q 18.3125 60.0625 18.3125 54.390625 
z
" id="DejaVuSans-56"/>
      </defs>
      <g transform="translate(329.817335 322.182437)scale(0.1 -0.1)">
       <use xlink:href="#DejaVuSans-56"/>
       <use x="63.623047" xlink:href="#DejaVuSans-48"/>
      </g>
     </g>
    </g>
    <g id="xtick_6">
     <g id="line2d_6">
      <g>
       <use style="stroke:#000000;stroke-width:0.8;" x="401.766612" xlink:href="#mdde5ca0725" y="307.584"/>
      </g>
     </g>
     <g id="text_6">
      <!-- 100 -->
      <defs>
       <path d="M 12.40625 8.296875 
L 28.515625 8.296875 
L 28.515625 63.921875 
L 10.984375 60.40625 
L 10.984375 69.390625 
L 28.421875 72.90625 
L 38.28125 72.90625 
L 38.28125 8.296875 
L 54.390625 8.296875 
L 54.390625 0 
L 12.40625 0 
z
" id="DejaVuSans-49"/>
      </defs>
      <g transform="translate(392.222862 322.182437)scale(0.1 -0.1)">
       <use xlink:href="#DejaVuSans-49"/>
       <use x="63.623047" xlink:href="#DejaVuSans-48"/>
       <use x="127.246094" xlink:href="#DejaVuSans-48"/>
      </g>
     </g>
    </g>
    <g id="text_7">
     <!-- Depth -->
     <defs>
      <path d="M 19.671875 64.796875 
L 19.671875 8.109375 
L 31.59375 8.109375 
Q 46.6875 8.109375 53.6875 14.9375 
Q 60.6875 21.78125 60.6875 36.53125 
Q 60.6875 51.171875 53.6875 57.984375 
Q 46.6875 64.796875 31.59375 64.796875 
z
M 9.8125 72.90625 
L 30.078125 72.90625 
Q 51.265625 72.90625 61.171875 64.09375 
Q 71.09375 55.28125 71.09375 36.53125 
Q 71.09375 17.671875 61.125 8.828125 
Q 51.171875 0 30.078125 0 
L 9.8125 0 
z
" id="DejaVuSans-68"/>
      <path d="M 56.203125 29.59375 
L 56.203125 25.203125 
L 14.890625 25.203125 
Q 15.484375 15.921875 20.484375 11.0625 
Q 25.484375 6.203125 34.421875 6.203125 
Q 39.59375 6.203125 44.453125 7.46875 
Q 49.3125 8.734375 54.109375 11.28125 
L 54.109375 2.78125 
Q 49.265625 0.734375 44.1875 -0.34375 
Q 39.109375 -1.421875 33.890625 -1.421875 
Q 20.796875 -1.421875 13.15625 6.1875 
Q 5.515625 13.8125 5.515625 26.8125 
Q 5.515625 40.234375 12.765625 48.109375 
Q 20.015625 56 32.328125 56 
Q 43.359375 56 49.78125 48.890625 
Q 56.203125 41.796875 56.203125 29.59375 
z
M 47.21875 32.234375 
Q 47.125 39.59375 43.09375 43.984375 
Q 39.0625 48.390625 32.421875 48.390625 
Q 24.90625 48.390625 20.390625 44.140625 
Q 15.875 39.890625 15.1875 32.171875 
z
" id="DejaVuSans-101"/>
      <path d="M 18.109375 8.203125 
L 18.109375 -20.796875 
L 9.078125 -20.796875 
L 9.078125 54.6875 
L 18.109375 54.6875 
L 18.109375 46.390625 
Q 20.953125 51.265625 25.265625 53.625 
Q 29.59375 56 35.59375 56 
Q 45.5625 56 51.78125 48.09375 
Q 58.015625 40.1875 58.015625 27.296875 
Q 58.015625 14.40625 51.78125 6.484375 
Q 45.5625 -1.421875 35.59375 -1.421875 
Q 29.59375 -1.421875 25.265625 0.953125 
Q 20.953125 3.328125 18.109375 8.203125 
z
M 48.6875 27.296875 
Q 48.6875 37.203125 44.609375 42.84375 
Q 40.53125 48.484375 33.40625 48.484375 
Q 26.265625 48.484375 22.1875 42.84375 
Q 18.109375 37.203125 18.109375 27.296875 
Q 18.109375 17.390625 22.1875 11.75 
Q 26.265625 6.109375 33.40625 6.109375 
Q 40.53125 6.109375 44.609375 11.75 
Q 48.6875 17.390625 48.6875 27.296875 
z
" id="DejaVuSans-112"/>
      <path d="M 18.3125 70.21875 
L 18.3125 54.6875 
L 36.8125 54.6875 
L 36.8125 47.703125 
L 18.3125 47.703125 
L 18.3125 18.015625 
Q 18.3125 11.328125 20.140625 9.421875 
Q 21.96875 7.515625 27.59375 7.515625 
L 36.8125 7.515625 
L 36.8125 0 
L 27.59375 0 
Q 17.1875 0 13.234375 3.875 
Q 9.28125 7.765625 9.28125 18.015625 
L 9.28125 47.703125 
L 2.6875 47.703125 
L 2.6875 54.6875 
L 9.28125 54.6875 
L 9.28125 70.21875 
z
" id="DejaVuSans-116"/>
      <path d="M 54.890625 33.015625 
L 54.890625 0 
L 45.90625 0 
L 45.90625 32.71875 
Q 45.90625 40.484375 42.875 44.328125 
Q 39.84375 48.1875 33.796875 48.1875 
Q 26.515625 48.1875 22.3125 43.546875 
Q 18.109375 38.921875 18.109375 30.90625 
L 18.109375 0 
L 9.078125 0 
L 9.078125 75.984375 
L 18.109375 75.984375 
L 18.109375 46.1875 
Q 21.34375 51.125 25.703125 53.5625 
Q 30.078125 56 35.796875 56 
Q 45.21875 56 50.046875 50.171875 
Q 54.890625 44.34375 54.890625 33.015625 
z
" id="DejaVuSans-104"/>
     </defs>
     <g transform="translate(220.930312 335.860562)scale(0.1 -0.1)">
      <use xlink:href="#DejaVuSans-68"/>
      <use x="77.001953" xlink:href="#DejaVuSans-101"/>
      <use x="138.525391" xlink:href="#DejaVuSans-112"/>
      <use x="202.001953" xlink:href="#DejaVuSans-116"/>
      <use x="241.210938" xlink:href="#DejaVuSans-104"/>
     </g>
    </g>
   </g>
   <g id="matplotlib.axis_2">
    <g id="ytick_1">
     <g id="line2d_7">
      <defs>
       <path d="M 0 0 
L -3.5 0 
" id="m71a1aa8375" style="stroke:#000000;stroke-width:0.8;"/>
      </defs>
      <g>
       <use style="stroke:#000000;stroke-width:0.8;" x="57.6" xlink:href="#m71a1aa8375" y="295.653418"/>
      </g>
     </g>
     <g id="text_8">
      <!-- 0.0 -->
      <defs>
       <path d="M 10.6875 12.40625 
L 21 12.40625 
L 21 0 
L 10.6875 0 
z
" id="DejaVuSans-46"/>
      </defs>
      <g transform="translate(34.696875 299.452637)scale(0.1 -0.1)">
       <use xlink:href="#DejaVuSans-48"/>
       <use x="63.623047" xlink:href="#DejaVuSans-46"/>
       <use x="95.410156" xlink:href="#DejaVuSans-48"/>
      </g>
     </g>
    </g>
    <g id="ytick_2">
     <g id="line2d_8">
      <g>
       <use style="stroke:#000000;stroke-width:0.8;" x="57.6" xlink:href="#m71a1aa8375" y="247.236039"/>
      </g>
     </g>
     <g id="text_9">
      <!-- 0.2 -->
      <g transform="translate(34.696875 251.035258)scale(0.1 -0.1)">
       <use xlink:href="#DejaVuSans-48"/>
       <use x="63.623047" xlink:href="#DejaVuSans-46"/>
       <use x="95.410156" xlink:href="#DejaVuSans-50"/>
      </g>
     </g>
    </g>
    <g id="ytick_3">
     <g id="line2d_9">
      <g>
       <use style="stroke:#000000;stroke-width:0.8;" x="57.6" xlink:href="#m71a1aa8375" y="198.81866"/>
      </g>
     </g>
     <g id="text_10">
      <!-- 0.4 -->
      <g transform="translate(34.696875 202.617879)scale(0.1 -0.1)">
       <use xlink:href="#DejaVuSans-48"/>
       <use x="63.623047" xlink:href="#DejaVuSans-46"/>
       <use x="95.410156" xlink:href="#DejaVuSans-52"/>
      </g>
     </g>
    </g>
    <g id="ytick_4">
     <g id="line2d_10">
      <g>
       <use style="stroke:#000000;stroke-width:0.8;" x="57.6" xlink:href="#m71a1aa8375" y="150.401281"/>
      </g>
     </g>
     <g id="text_11">
      <!-- 0.6 -->
      <g transform="translate(34.696875 154.2005)scale(0.1 -0.1)">
       <use xlink:href="#DejaVuSans-48"/>
       <use x="63.623047" xlink:href="#DejaVuSans-46"/>
       <use x="95.410156" xlink:href="#DejaVuSans-54"/>
      </g>
     </g>
    </g>
    <g id="ytick_5">
     <g id="line2d_11">
      <g>
       <use style="stroke:#000000;stroke-width:0.8;" x="57.6" xlink:href="#m71a1aa8375" y="101.983902"/>
      </g>
     </g>
     <g id="text_12">
      <!-- 0.8 -->
      <g transform="translate(34.696875 105.783121)scale(0.1 -0.1)">
       <use xlink:href="#DejaVuSans-48"/>
       <use x="63.623047" xlink:href="#DejaVuSans-46"/>
       <use x="95.410156" xlink:href="#DejaVuSans-56"/>
      </g>
     </g>
    </g>
    <g id="ytick_6">
     <g id="line2d_12">
      <g>
       <use style="stroke:#000000;stroke-width:0.8;" x="57.6" xlink:href="#m71a1aa8375" y="53.566523"/>
      </g>
     </g>
     <g id="text_13">
      <!-- 1.0 -->
      <g transform="translate(34.696875 57.365742)scale(0.1 -0.1)">
       <use xlink:href="#DejaVuSans-49"/>
       <use x="63.623047" xlink:href="#DejaVuSans-46"/>
       <use x="95.410156" xlink:href="#DejaVuSans-48"/>
      </g>
     </g>
    </g>
    <g id="text_14">
     <!-- % of A with more depth -->
     <defs>
      <path d="M 72.703125 32.078125 
Q 68.453125 32.078125 66.03125 28.46875 
Q 63.625 24.859375 63.625 18.40625 
Q 63.625 12.0625 66.03125 8.421875 
Q 68.453125 4.78125 72.703125 4.78125 
Q 76.859375 4.78125 79.265625 8.421875 
Q 81.6875 12.0625 81.6875 18.40625 
Q 81.6875 24.8125 79.265625 28.4375 
Q 76.859375 32.078125 72.703125 32.078125 
z
M 72.703125 38.28125 
Q 80.421875 38.28125 84.953125 32.90625 
Q 89.5 27.546875 89.5 18.40625 
Q 89.5 9.28125 84.9375 3.921875 
Q 80.375 -1.421875 72.703125 -1.421875 
Q 64.890625 -1.421875 60.34375 3.921875 
Q 55.8125 9.28125 55.8125 18.40625 
Q 55.8125 27.59375 60.375 32.9375 
Q 64.9375 38.28125 72.703125 38.28125 
z
M 22.3125 68.015625 
Q 18.109375 68.015625 15.6875 64.375 
Q 13.28125 60.75 13.28125 54.390625 
Q 13.28125 47.953125 15.671875 44.328125 
Q 18.0625 40.71875 22.3125 40.71875 
Q 26.5625 40.71875 28.96875 44.328125 
Q 31.390625 47.953125 31.390625 54.390625 
Q 31.390625 60.6875 28.953125 64.34375 
Q 26.515625 68.015625 22.3125 68.015625 
z
M 66.40625 74.21875 
L 74.21875 74.21875 
L 28.609375 -1.421875 
L 20.796875 -1.421875 
z
M 22.3125 74.21875 
Q 30.03125 74.21875 34.609375 68.875 
Q 39.203125 63.53125 39.203125 54.390625 
Q 39.203125 45.171875 34.640625 39.84375 
Q 30.078125 34.515625 22.3125 34.515625 
Q 14.546875 34.515625 10.03125 39.859375 
Q 5.515625 45.21875 5.515625 54.390625 
Q 5.515625 63.484375 10.046875 68.84375 
Q 14.59375 74.21875 22.3125 74.21875 
z
" id="DejaVuSans-37"/>
      <path id="DejaVuSans-32"/>
      <path d="M 30.609375 48.390625 
Q 23.390625 48.390625 19.1875 42.75 
Q 14.984375 37.109375 14.984375 27.296875 
Q 14.984375 17.484375 19.15625 11.84375 
Q 23.34375 6.203125 30.609375 6.203125 
Q 37.796875 6.203125 41.984375 11.859375 
Q 46.1875 17.53125 46.1875 27.296875 
Q 46.1875 37.015625 41.984375 42.703125 
Q 37.796875 48.390625 30.609375 48.390625 
z
M 30.609375 56 
Q 42.328125 56 49.015625 48.375 
Q 55.71875 40.765625 55.71875 27.296875 
Q 55.71875 13.875 49.015625 6.21875 
Q 42.328125 -1.421875 30.609375 -1.421875 
Q 18.84375 -1.421875 12.171875 6.21875 
Q 5.515625 13.875 5.515625 27.296875 
Q 5.515625 40.765625 12.171875 48.375 
Q 18.84375 56 30.609375 56 
z
" id="DejaVuSans-111"/>
      <path d="M 37.109375 75.984375 
L 37.109375 68.5 
L 28.515625 68.5 
Q 23.6875 68.5 21.796875 66.546875 
Q 19.921875 64.59375 19.921875 59.515625 
L 19.921875 54.6875 
L 34.71875 54.6875 
L 34.71875 47.703125 
L 19.921875 47.703125 
L 19.921875 0 
L 10.890625 0 
L 10.890625 47.703125 
L 2.296875 47.703125 
L 2.296875 54.6875 
L 10.890625 54.6875 
L 10.890625 58.5 
Q 10.890625 67.625 15.140625 71.796875 
Q 19.390625 75.984375 28.609375 75.984375 
z
" id="DejaVuSans-102"/>
      <path d="M 34.1875 63.1875 
L 20.796875 26.90625 
L 47.609375 26.90625 
z
M 28.609375 72.90625 
L 39.796875 72.90625 
L 67.578125 0 
L 57.328125 0 
L 50.6875 18.703125 
L 17.828125 18.703125 
L 11.1875 0 
L 0.78125 0 
z
" id="DejaVuSans-65"/>
      <path d="M 4.203125 54.6875 
L 13.1875 54.6875 
L 24.421875 12.015625 
L 35.59375 54.6875 
L 46.1875 54.6875 
L 57.421875 12.015625 
L 68.609375 54.6875 
L 77.59375 54.6875 
L 63.28125 0 
L 52.6875 0 
L 40.921875 44.828125 
L 29.109375 0 
L 18.5 0 
z
" id="DejaVuSans-119"/>
      <path d="M 9.421875 54.6875 
L 18.40625 54.6875 
L 18.40625 0 
L 9.421875 0 
z
M 9.421875 75.984375 
L 18.40625 75.984375 
L 18.40625 64.59375 
L 9.421875 64.59375 
z
" id="DejaVuSans-105"/>
      <path d="M 52 44.1875 
Q 55.375 50.25 60.0625 53.125 
Q 64.75 56 71.09375 56 
Q 79.640625 56 84.28125 50.015625 
Q 88.921875 44.046875 88.921875 33.015625 
L 88.921875 0 
L 79.890625 0 
L 79.890625 32.71875 
Q 79.890625 40.578125 77.09375 44.375 
Q 74.3125 48.1875 68.609375 48.1875 
Q 61.625 48.1875 57.5625 43.546875 
Q 53.515625 38.921875 53.515625 30.90625 
L 53.515625 0 
L 44.484375 0 
L 44.484375 32.71875 
Q 44.484375 40.625 41.703125 44.40625 
Q 38.921875 48.1875 33.109375 48.1875 
Q 26.21875 48.1875 22.15625 43.53125 
Q 18.109375 38.875 18.109375 30.90625 
L 18.109375 0 
L 9.078125 0 
L 9.078125 54.6875 
L 18.109375 54.6875 
L 18.109375 46.1875 
Q 21.1875 51.21875 25.484375 53.609375 
Q 29.78125 56 35.6875 56 
Q 41.65625 56 45.828125 52.96875 
Q 50 49.953125 52 44.1875 
z
" id="DejaVuSans-109"/>
      <path d="M 41.109375 46.296875 
Q 39.59375 47.171875 37.8125 47.578125 
Q 36.03125 48 33.890625 48 
Q 26.265625 48 22.1875 43.046875 
Q 18.109375 38.09375 18.109375 28.8125 
L 18.109375 0 
L 9.078125 0 
L 9.078125 54.6875 
L 18.109375 54.6875 
L 18.109375 46.1875 
Q 20.953125 51.171875 25.484375 53.578125 
Q 30.03125 56 36.53125 56 
Q 37.453125 56 38.578125 55.875 
Q 39.703125 55.765625 41.0625 55.515625 
z
" id="DejaVuSans-114"/>
      <path d="M 45.40625 46.390625 
L 45.40625 75.984375 
L 54.390625 75.984375 
L 54.390625 0 
L 45.40625 0 
L 45.40625 8.203125 
Q 42.578125 3.328125 38.25 0.953125 
Q 33.9375 -1.421875 27.875 -1.421875 
Q 17.96875 -1.421875 11.734375 6.484375 
Q 5.515625 14.40625 5.515625 27.296875 
Q 5.515625 40.1875 11.734375 48.09375 
Q 17.96875 56 27.875 56 
Q 33.9375 56 38.25 53.625 
Q 42.578125 51.265625 45.40625 46.390625 
z
M 14.796875 27.296875 
Q 14.796875 17.390625 18.875 11.75 
Q 22.953125 6.109375 30.078125 6.109375 
Q 37.203125 6.109375 41.296875 11.75 
Q 45.40625 17.390625 45.40625 27.296875 
Q 45.40625 37.203125 41.296875 42.84375 
Q 37.203125 48.484375 30.078125 48.484375 
Q 22.953125 48.484375 18.875 42.84375 
Q 14.796875 37.203125 14.796875 27.296875 
z
" id="DejaVuSans-100"/>
     </defs>
     <g transform="translate(28.617187 233.685031)rotate(-90)scale(0.1 -0.1)">
      <use xlink:href="#DejaVuSans-37"/>
      <use x="95.019531" xlink:href="#DejaVuSans-32"/>
      <use x="126.806641" xlink:href="#DejaVuSans-111"/>
      <use x="187.988281" xlink:href="#DejaVuSans-102"/>
      <use x="223.193359" xlink:href="#DejaVuSans-32"/>
      <use x="254.980469" xlink:href="#DejaVuSans-65"/>
      <use x="323.388672" xlink:href="#DejaVuSans-32"/>
      <use x="355.175781" xlink:href="#DejaVuSans-119"/>
      <use x="436.962891" xlink:href="#DejaVuSans-105"/>
      <use x="464.746094" xlink:href="#DejaVuSans-116"/>
      <use x="503.955078" xlink:href="#DejaVuSans-104"/>
      <use x="567.333984" xlink:href="#DejaVuSans-32"/>
      <use x="599.121094" xlink:href="#DejaVuSans-109"/>
      <use x="696.533203" xlink:href="#DejaVuSans-111"/>
      <use x="757.714844" xlink:href="#DejaVuSans-114"/>
      <use x="798.796875" xlink:href="#DejaVuSans-101"/>
      <use x="860.320312" xlink:href="#DejaVuSans-32"/>
      <use x="892.107422" xlink:href="#DejaVuSans-100"/>
      <use x="955.583984" xlink:href="#DejaVuSans-101"/>
      <use x="1017.107422" xlink:href="#DejaVuSans-112"/>
      <use x="1080.583984" xlink:href="#DejaVuSans-116"/>
      <use x="1119.792969" xlink:href="#DejaVuSans-104"/>
     </g>
    </g>
   </g>
   <g id="line2d_13">
    <path clip-path="url(#pcce0fafced)" d="M 73.832727 53.572285 
L 77.112066 56.367202 
L 80.391405 59.847782 
L 83.670744 65.077513 
L 86.950083 70.947806 
L 90.229421 77.52153 
L 93.50876 84.417835 
L 96.788099 91.523981 
L 100.067438 98.629764 
L 103.346777 105.694804 
L 106.626116 112.565303 
L 109.905455 119.28227 
L 113.184793 125.769787 
L 116.464132 132.100674 
L 119.743471 138.222906 
L 123.02281 144.152679 
L 126.302149 149.889388 
L 129.581488 155.400497 
L 132.860826 160.698762 
L 136.140165 165.815172 
L 139.419504 170.73445 
L 142.698843 175.422414 
L 145.978182 179.956193 
L 149.257521 184.330437 
L 152.53686 188.556088 
L 155.816198 192.624794 
L 159.095537 196.557399 
L 162.374876 200.350876 
L 165.654215 204.007357 
L 168.933554 207.530835 
L 172.212893 210.917461 
L 175.492231 214.171448 
L 178.77157 217.314147 
L 182.050909 220.352459 
L 185.330248 223.28355 
L 188.609587 226.115749 
L 191.888926 228.84172 
L 195.168264 231.477054 
L 198.447603 234.030296 
L 201.726942 236.483943 
L 205.006281 238.832162 
L 208.28562 241.094997 
L 211.564959 243.278524 
L 214.844298 245.375359 
L 218.123636 247.383446 
L 221.402975 249.331543 
L 224.682314 251.205659 
L 227.961653 252.99945 
L 231.240992 254.728265 
L 234.520331 256.389102 
L 237.799669 257.994163 
L 241.079008 259.519068 
L 244.358347 260.977835 
L 247.637686 262.388355 
L 250.917025 263.730799 
L 254.196364 265.017927 
L 257.475702 266.254337 
L 260.755041 267.433542 
L 264.03438 268.568058 
L 267.313719 269.654835 
L 270.593058 270.70111 
L 273.872397 271.707974 
L 277.151736 272.670584 
L 280.431074 273.597559 
L 283.710413 274.483742 
L 286.989752 275.336638 
L 290.269091 276.149736 
L 293.54843 276.927924 
L 296.827769 277.668928 
L 300.107107 278.37708 
L 303.386446 279.051656 
L 306.665785 279.701804 
L 309.945124 280.324839 
L 313.224463 280.921389 
L 316.503802 281.490729 
L 319.78314 282.038209 
L 323.062479 282.559325 
L 326.341818 283.058387 
L 329.621157 283.53847 
L 332.900496 283.993375 
L 336.179835 284.424024 
L 339.459174 284.841285 
L 342.738512 285.238138 
L 346.017851 285.616665 
L 349.29719 285.980691 
L 352.576529 286.328812 
L 355.855868 286.661948 
L 359.135207 286.97867 
L 362.414545 287.282344 
L 365.693884 287.573768 
L 368.973223 287.85241 
L 372.252562 288.11534 
L 375.531901 288.369507 
L 378.81124 288.611885 
L 382.090579 288.84378 
L 385.369917 289.066766 
L 388.649256 289.280214 
L 391.928595 289.483156 
L 395.207934 289.678956 
L 398.487273 289.867154 
" style="fill:none;stroke:#1f77b4;stroke-linecap:square;stroke-width:1.5;"/>
   </g>
   <g id="line2d_14">
    <path clip-path="url(#pcce0fafced)" d="M 73.832727 53.572624 
L 77.112066 55.435023 
L 80.391405 57.94619 
L 83.670744 61.785034 
L 86.950083 66.266329 
L 90.229421 71.410845 
L 93.50876 76.929894 
L 96.788099 82.799218 
L 100.067438 88.787479 
L 103.346777 94.817912 
L 106.626116 100.805012 
L 109.905455 106.719606 
L 113.184793 112.511704 
L 116.464132 118.149109 
L 119.743471 123.681642 
L 123.02281 129.040938 
L 126.302149 134.288074 
L 129.581488 139.363353 
L 132.860826 144.281397 
L 136.140165 149.063122 
L 139.419504 153.716177 
L 142.698843 158.21541 
L 145.978182 162.572708 
L 149.257521 166.796713 
L 152.53686 170.88406 
L 155.816198 174.842132 
L 159.095537 178.683664 
L 162.374876 182.391781 
L 165.654215 186.007204 
L 168.933554 189.519352 
L 172.212893 192.930332 
L 175.492231 196.227071 
L 178.77157 199.415985 
L 182.050909 202.495718 
L 185.330248 205.491446 
L 188.609587 208.400653 
L 191.888926 211.225492 
L 195.168264 213.972525 
L 198.447603 216.618462 
L 201.726942 219.184971 
L 205.006281 221.675682 
L 208.28562 224.10788 
L 211.564959 226.460892 
L 214.844298 228.745902 
L 218.123636 230.968042 
L 221.402975 233.102498 
L 224.682314 235.175803 
L 227.961653 237.180573 
L 231.240992 239.13402 
L 234.520331 241.021523 
L 237.799669 242.85521 
L 241.079008 244.628715 
L 244.358347 246.345837 
L 247.637686 248.012387 
L 250.917025 249.622725 
L 254.196364 251.184597 
L 257.475702 252.695825 
L 260.755041 254.150259 
L 264.03438 255.561892 
L 267.313719 256.930094 
L 270.593058 258.250993 
L 273.872397 259.534997 
L 277.151736 260.773102 
L 280.431074 261.964703 
L 283.710413 263.117545 
L 286.989752 264.227561 
L 290.269091 265.304921 
L 293.54843 266.33931 
L 296.827769 267.324289 
L 300.107107 268.278087 
L 303.386446 269.201672 
L 306.665785 270.095457 
L 309.945124 270.961354 
L 313.224463 271.795537 
L 316.503802 272.604712 
L 319.78314 273.384038 
L 323.062479 274.133999 
L 326.341818 274.859025 
L 329.621157 275.557567 
L 332.900496 276.232554 
L 336.179835 276.883283 
L 339.459174 277.508448 
L 342.738512 278.110785 
L 346.017851 278.698063 
L 349.29719 279.25404 
L 352.576529 279.793119 
L 355.855868 280.313388 
L 359.135207 280.816929 
L 362.414545 281.296794 
L 365.693884 281.763005 
L 368.973223 282.21285 
L 372.252562 282.647057 
L 375.531901 283.064706 
L 378.81124 283.464536 
L 382.090579 283.847373 
L 385.369917 284.219121 
L 388.649256 284.579105 
L 391.928595 284.927419 
L 395.207934 285.259708 
L 398.487273 285.582652 
" style="fill:none;stroke:#ff7f0e;stroke-linecap:square;stroke-width:1.5;"/>
   </g>
   <g id="line2d_15">
    <path clip-path="url(#pcce0fafced)" d="M 73.832727 53.568 
L 77.112066 89.655821 
L 80.391405 113.918617 
L 83.670744 143.264705 
L 86.950083 166.076044 
L 90.229421 187.01874 
L 93.50876 204.20703 
L 96.788099 219.085667 
L 100.067438 231.542998 
L 103.346777 242.097285 
L 106.626116 250.973183 
L 109.905455 258.389563 
L 113.184793 264.565394 
L 116.464132 269.677785 
L 119.743471 273.959164 
L 123.02281 277.516873 
L 126.302149 280.455082 
L 129.581488 282.891178 
L 132.860826 284.912797 
L 136.140165 286.575111 
L 139.419504 287.960114 
L 142.698843 289.099908 
L 145.978182 290.037607 
L 149.257521 290.822017 
L 152.53686 291.463233 
L 155.816198 292.001755 
L 159.095537 292.453271 
L 162.374876 292.831314 
L 165.654215 293.147746 
L 168.933554 293.415857 
L 172.212893 293.645985 
L 175.492231 293.843165 
L 178.77157 294.015168 
L 182.050909 294.16393 
L 185.330248 294.290953 
L 188.609587 294.401635 
L 191.888926 294.500382 
L 195.168264 294.587969 
L 198.447603 294.662629 
L 201.726942 294.728501 
L 205.006281 294.785319 
L 208.28562 294.838675 
L 211.564959 294.886874 
L 214.844298 294.930619 
L 218.123636 294.969305 
L 221.402975 295.003971 
L 224.682314 295.034014 
L 227.961653 295.060257 
L 231.240992 295.084199 
L 234.520331 295.106931 
L 237.799669 295.128186 
L 241.079008 295.147577 
L 244.358347 295.163579 
L 247.637686 295.179121 
L 250.917025 295.194615 
L 254.196364 295.208486 
L 257.475702 295.221559 
L 260.755041 295.234438 
L 264.03438 295.245865 
L 267.313719 295.257243 
L 270.593058 295.268137 
L 273.872397 295.278764 
L 277.151736 295.288956 
L 280.431074 295.297695 
L 283.710413 295.306265 
L 286.989752 295.315126 
L 290.269091 295.322776 
L 293.54843 295.330063 
L 296.827769 295.336889 
L 300.107107 295.343837 
L 303.386446 295.350858 
L 306.665785 295.357467 
L 309.945124 295.364294 
L 313.224463 295.370903 
L 316.503802 295.377729 
L 319.78314 295.384024 
L 323.062479 295.389955 
L 326.341818 295.395813 
L 329.621157 295.401817 
L 332.900496 295.407482 
L 336.179835 295.412856 
L 339.459174 295.418061 
L 342.738512 295.422806 
L 346.017851 295.42743 
L 349.29719 295.431981 
L 352.576529 295.436363 
L 355.855868 295.440575 
L 359.135207 295.444957 
L 362.414545 295.449218 
L 365.693884 295.453212 
L 368.973223 295.457134 
L 372.252562 295.461032 
L 375.531901 295.464856 
L 378.81124 295.468536 
L 382.090579 295.472216 
L 385.369917 295.475799 
L 388.649256 295.478946 
L 391.928595 295.482117 
L 395.207934 295.484901 
L 398.487273 295.488 
" style="fill:none;stroke:#2ca02c;stroke-linecap:square;stroke-width:1.5;"/>
   </g>
   <g id="line2d_16">
    <path clip-path="url(#pcce0fafced)" d="M 73.832727 53.569574 
L 77.112066 67.941159 
L 80.391405 80.81931 
L 83.670744 97.767426 
L 86.950083 113.397234 
L 90.229421 128.944539 
L 93.50876 143.219749 
L 96.788099 156.605629 
L 100.067438 168.809472 
L 103.346777 180.019765 
L 106.626116 190.239512 
L 109.905455 199.644806 
L 113.184793 208.21335 
L 116.464132 216.121264 
L 119.743471 223.337778 
L 123.02281 229.932757 
L 126.302149 235.946559 
L 129.581488 241.421354 
L 132.860826 246.415316 
L 136.140165 250.975797 
L 139.419504 255.131945 
L 142.698843 258.919298 
L 145.978182 262.360684 
L 149.257521 265.47564 
L 152.53686 268.286076 
L 155.816198 270.840455 
L 159.095537 273.146115 
L 162.374876 275.225133 
L 165.654215 277.089348 
L 168.933554 278.781414 
L 172.212893 280.308934 
L 175.492231 281.692485 
L 178.77157 282.932672 
L 182.050909 284.05961 
L 185.330248 285.06858 
L 188.609587 285.979965 
L 191.888926 286.796572 
L 195.168264 287.528304 
L 198.447603 288.185618 
L 201.726942 288.78045 
L 205.006281 289.314954 
L 208.28562 289.805301 
L 211.564959 290.248199 
L 214.844298 290.645197 
L 218.123636 291.000702 
L 221.402975 291.327543 
L 224.682314 291.630031 
L 227.961653 291.903589 
L 231.240992 292.153713 
L 234.520331 292.377474 
L 237.799669 292.588501 
L 241.079008 292.780185 
L 244.358347 292.957538 
L 247.637686 293.117074 
L 250.917025 293.263342 
L 254.196364 293.395861 
L 257.475702 293.517485 
L 260.755041 293.631315 
L 264.03438 293.73839 
L 267.313719 293.837427 
L 270.593058 293.92942 
L 273.872397 294.014635 
L 277.151736 294.094185 
L 280.431074 294.167706 
L 283.710413 294.236774 
L 286.989752 294.300201 
L 290.269091 294.357454 
L 293.54843 294.410471 
L 296.827769 294.461067 
L 300.107107 294.508759 
L 303.386446 294.553206 
L 306.665785 294.594457 
L 309.945124 294.633554 
L 313.224463 294.670134 
L 316.503802 294.705624 
L 319.78314 294.738451 
L 323.062479 294.769075 
L 326.341818 294.797713 
L 329.621157 294.824876 
L 332.900496 294.849447 
L 336.179835 294.871574 
L 339.459174 294.893192 
L 342.738512 294.913504 
L 346.017851 294.932798 
L 349.29719 294.950809 
L 352.576529 294.967949 
L 355.855868 294.985113 
L 359.135207 295.000945 
L 362.414545 295.015785 
L 365.693884 295.03002 
L 368.973223 295.044013 
L 372.252562 295.057158 
L 375.531901 295.070255 
L 378.81124 295.082747 
L 382.090579 295.093979 
L 385.369917 295.103857 
L 388.649256 295.113225 
L 391.928595 295.122521 
L 395.207934 295.131551 
L 398.487273 295.139855 
" style="fill:none;stroke:#d62728;stroke-linecap:square;stroke-width:1.5;"/>
   </g>
   <g id="line2d_17">
    <path clip-path="url(#pcce0fafced)" d="M 73.832727 53.57059 
L 77.112066 60.963876 
L 80.391405 68.767498 
L 83.670744 79.569876 
L 86.950083 90.428272 
L 90.229421 101.840732 
L 93.50876 112.867403 
L 96.788099 123.607055 
L 100.067438 133.844329 
L 103.346777 143.621589 
L 106.626116 152.811087 
L 109.905455 161.493001 
L 113.184793 169.659778 
L 116.464132 177.360126 
L 119.743471 184.604891 
L 123.02281 191.433436 
L 126.302149 197.861327 
L 129.581488 203.906479 
L 132.860826 209.598087 
L 136.140165 214.943536 
L 139.419504 219.974053 
L 142.698843 224.694675 
L 145.978182 229.150066 
L 149.257521 233.34151 
L 152.53686 237.282709 
L 155.816198 241.012663 
L 159.095537 244.517548 
L 162.374876 247.806057 
L 165.654215 250.888017 
L 168.933554 253.791099 
L 172.212893 256.498235 
L 175.492231 259.02877 
L 178.77157 261.412406 
L 182.050909 263.630551 
L 185.330248 265.702863 
L 188.609587 267.622031 
L 191.888926 269.426426 
L 195.168264 271.112125 
L 198.447603 272.675522 
L 201.726942 274.145474 
L 205.006281 275.522682 
L 208.28562 276.80889 
L 211.564959 278.004993 
L 214.844298 279.114719 
L 218.123636 280.145525 
L 221.402975 281.112372 
L 224.682314 282.011313 
L 227.961653 282.845569 
L 231.240992 283.617342 
L 234.520331 284.338712 
L 237.799669 285.01888 
L 241.079008 285.649153 
L 244.358347 286.230476 
L 247.637686 286.775753 
L 250.917025 287.279197 
L 254.196364 287.750758 
L 257.475702 288.192857 
L 260.755041 288.600846 
L 264.03438 288.97947 
L 267.313719 289.328753 
L 270.593058 289.656514 
L 273.872397 289.965005 
L 277.151736 290.253016 
L 280.431074 290.523742 
L 283.710413 290.778345 
L 286.989752 291.019366 
L 290.269091 291.241094 
L 293.54843 291.446771 
L 296.827769 291.641167 
L 300.107107 291.823676 
L 303.386446 291.993984 
L 306.665785 292.155456 
L 309.945124 292.306373 
L 313.224463 292.450052 
L 316.503802 292.584507 
L 319.78314 292.710779 
L 323.062479 292.829716 
L 326.341818 292.942529 
L 329.621157 293.049096 
L 332.900496 293.150312 
L 336.179835 293.247002 
L 339.459174 293.337348 
L 342.738512 293.421788 
L 346.017851 293.501459 
L 349.29719 293.578128 
L 352.576529 293.652134 
L 355.855868 293.723259 
L 359.135207 293.790148 
L 362.414545 293.85355 
L 365.693884 293.913733 
L 368.973223 293.969873 
L 372.252562 294.024415 
L 375.531901 294.07627 
L 378.81124 294.125656 
L 382.090579 294.172693 
L 385.369917 294.218521 
L 388.649256 294.26212 
L 391.928595 294.304171 
L 395.207934 294.344793 
L 398.487273 294.382074 
" style="fill:none;stroke:#9467bd;stroke-linecap:square;stroke-width:1.5;"/>
   </g>
   <g id="line2d_18">
    <path clip-path="url(#pcce0fafced)" d="M 73.832727 53.571752 
L 77.112066 57.920964 
L 80.391405 62.969493 
L 83.670744 70.330314 
L 86.950083 78.257692 
L 90.229421 86.819071 
L 93.50876 95.502921 
L 96.788099 104.190161 
L 100.067438 112.678454 
L 103.346777 120.94393 
L 106.626116 128.933161 
L 109.905455 136.622784 
L 113.184793 143.967047 
L 116.464132 151.014778 
L 119.743471 157.768615 
L 123.02281 164.188856 
L 126.302149 170.311064 
L 129.581488 176.141703 
L 132.860826 181.719579 
L 136.140165 187.060911 
L 139.419504 192.154323 
L 142.698843 197.01947 
L 145.978182 201.687753 
L 149.257521 206.139779 
L 152.53686 210.401308 
L 155.816198 214.456747 
L 159.095537 218.327862 
L 162.374876 222.007946 
L 165.654215 225.546627 
L 168.933554 228.926087 
L 172.212893 232.154147 
L 175.492231 235.244725 
L 178.77157 238.210701 
L 182.050909 241.029391 
L 185.330248 243.710043 
L 188.609587 246.281757 
L 191.888926 248.722477 
L 195.168264 251.043824 
L 198.447603 253.263034 
L 201.726942 255.374298 
L 205.006281 257.378342 
L 208.28562 259.293177 
L 211.564959 261.10832 
L 214.844298 262.825951 
L 218.123636 264.46103 
L 221.402975 266.005786 
L 224.682314 267.46344 
L 227.961653 268.862484 
L 231.240992 270.196553 
L 234.520331 271.447827 
L 237.799669 272.641824 
L 241.079008 273.772297 
L 244.358347 274.845783 
L 247.637686 275.869569 
L 250.917025 276.837965 
L 254.196364 277.75344 
L 257.475702 278.617545 
L 260.755041 279.439237 
L 264.03438 280.209775 
L 267.313719 280.947922 
L 270.593058 281.648231 
L 273.872397 282.311307 
L 277.151736 282.936085 
L 280.431074 283.531595 
L 283.710413 284.096432 
L 286.989752 284.633598 
L 290.269091 285.141061 
L 293.54843 285.613711 
L 296.827769 286.064768 
L 300.107107 286.49222 
L 303.386446 286.893988 
L 306.665785 287.271329 
L 309.945124 287.630779 
L 313.224463 287.969967 
L 316.503802 288.290345 
L 319.78314 288.593123 
L 323.062479 288.88203 
L 326.341818 289.160478 
L 329.621157 289.42215 
L 332.900496 289.667674 
L 336.179835 289.903055 
L 339.459174 290.127639 
L 342.738512 290.338182 
L 346.017851 290.538945 
L 349.29719 290.729153 
L 352.576529 290.907595 
L 355.855868 291.079888 
L 359.135207 291.242353 
L 362.414545 291.396901 
L 365.693884 291.545736 
L 368.973223 291.686001 
L 372.252562 291.820069 
L 375.531901 291.94961 
L 378.81124 292.073752 
L 382.090579 292.191382 
L 385.369917 292.306494 
L 388.649256 292.415772 
L 391.928595 292.520112 
L 395.207934 292.619028 
L 398.487273 292.714822 
" style="fill:none;stroke:#8c564b;stroke-linecap:square;stroke-width:1.5;"/>
   </g>
   <g id="patch_3">
    <path d="M 57.6 307.584 
L 57.6 41.472 
" style="fill:none;stroke:#000000;stroke-linecap:square;stroke-linejoin:miter;stroke-width:0.8;"/>
   </g>
   <g id="patch_4">
    <path d="M 414.72 307.584 
L 414.72 41.472 
" style="fill:none;stroke:#000000;stroke-linecap:square;stroke-linejoin:miter;stroke-width:0.8;"/>
   </g>
   <g id="patch_5">
    <path d="M 57.6 307.584 
L 414.72 307.584 
" style="fill:none;stroke:#000000;stroke-linecap:square;stroke-linejoin:miter;stroke-width:0.8;"/>
   </g>
   <g id="patch_6">
    <path d="M 57.6 41.472 
L 414.72 41.472 
" style="fill:none;stroke:#000000;stroke-linecap:square;stroke-linejoin:miter;stroke-width:0.8;"/>
   </g>
   <g id="legend_1">
    <g id="patch_7">
     <path d="M 147.208558 122.887337 
L 408.889 122.887337 
Q 410.555 122.887337 410.555 121.221337 
L 410.555 47.303 
Q 410.555 45.637 408.889 45.637 
L 147.208558 45.637 
Q 145.542558 45.637 145.542558 47.303 
L 145.542558 121.221337 
Q 145.542558 122.887337 147.208558 122.887337 
z
" style="fill:#ffffff;opacity:0.8;stroke:#cccccc;stroke-linejoin:miter;"/>
    </g>
    <g id="line2d_19">
     <path d="M 148.874558 52.382998 
L 165.534558 52.382998 
" style="fill:none;stroke:#1f77b4;stroke-linecap:square;stroke-width:1.5;"/>
    </g>
    <g id="line2d_20"/>
    <g id="text_15">
     <!-- sample-1-5_strand-filtered_100000000_ExomeCoverage -->
     <defs>
      <path d="M 44.28125 53.078125 
L 44.28125 44.578125 
Q 40.484375 46.53125 36.375 47.5 
Q 32.28125 48.484375 27.875 48.484375 
Q 21.1875 48.484375 17.84375 46.4375 
Q 14.5 44.390625 14.5 40.28125 
Q 14.5 37.15625 16.890625 35.375 
Q 19.28125 33.59375 26.515625 31.984375 
L 29.59375 31.296875 
Q 39.15625 29.25 43.1875 25.515625 
Q 47.21875 21.78125 47.21875 15.09375 
Q 47.21875 7.46875 41.1875 3.015625 
Q 35.15625 -1.421875 24.609375 -1.421875 
Q 20.21875 -1.421875 15.453125 -0.5625 
Q 10.6875 0.296875 5.421875 2 
L 5.421875 11.28125 
Q 10.40625 8.6875 15.234375 7.390625 
Q 20.0625 6.109375 24.8125 6.109375 
Q 31.15625 6.109375 34.5625 8.28125 
Q 37.984375 10.453125 37.984375 14.40625 
Q 37.984375 18.0625 35.515625 20.015625 
Q 33.0625 21.96875 24.703125 23.78125 
L 21.578125 24.515625 
Q 13.234375 26.265625 9.515625 29.90625 
Q 5.8125 33.546875 5.8125 39.890625 
Q 5.8125 47.609375 11.28125 51.796875 
Q 16.75 56 26.8125 56 
Q 31.78125 56 36.171875 55.265625 
Q 40.578125 54.546875 44.28125 53.078125 
z
" id="DejaVuSans-115"/>
      <path d="M 34.28125 27.484375 
Q 23.390625 27.484375 19.1875 25 
Q 14.984375 22.515625 14.984375 16.5 
Q 14.984375 11.71875 18.140625 8.90625 
Q 21.296875 6.109375 26.703125 6.109375 
Q 34.1875 6.109375 38.703125 11.40625 
Q 43.21875 16.703125 43.21875 25.484375 
L 43.21875 27.484375 
z
M 52.203125 31.203125 
L 52.203125 0 
L 43.21875 0 
L 43.21875 8.296875 
Q 40.140625 3.328125 35.546875 0.953125 
Q 30.953125 -1.421875 24.3125 -1.421875 
Q 15.921875 -1.421875 10.953125 3.296875 
Q 6 8.015625 6 15.921875 
Q 6 25.140625 12.171875 29.828125 
Q 18.359375 34.515625 30.609375 34.515625 
L 43.21875 34.515625 
L 43.21875 35.40625 
Q 43.21875 41.609375 39.140625 45 
Q 35.0625 48.390625 27.6875 48.390625 
Q 23 48.390625 18.546875 47.265625 
Q 14.109375 46.140625 10.015625 43.890625 
L 10.015625 52.203125 
Q 14.9375 54.109375 19.578125 55.046875 
Q 24.21875 56 28.609375 56 
Q 40.484375 56 46.34375 49.84375 
Q 52.203125 43.703125 52.203125 31.203125 
z
" id="DejaVuSans-97"/>
      <path d="M 9.421875 75.984375 
L 18.40625 75.984375 
L 18.40625 0 
L 9.421875 0 
z
" id="DejaVuSans-108"/>
      <path d="M 4.890625 31.390625 
L 31.203125 31.390625 
L 31.203125 23.390625 
L 4.890625 23.390625 
z
" id="DejaVuSans-45"/>
      <path d="M 10.796875 72.90625 
L 49.515625 72.90625 
L 49.515625 64.59375 
L 19.828125 64.59375 
L 19.828125 46.734375 
Q 21.96875 47.46875 24.109375 47.828125 
Q 26.265625 48.1875 28.421875 48.1875 
Q 40.625 48.1875 47.75 41.5 
Q 54.890625 34.8125 54.890625 23.390625 
Q 54.890625 11.625 47.5625 5.09375 
Q 40.234375 -1.421875 26.90625 -1.421875 
Q 22.3125 -1.421875 17.546875 -0.640625 
Q 12.796875 0.140625 7.71875 1.703125 
L 7.71875 11.625 
Q 12.109375 9.234375 16.796875 8.0625 
Q 21.484375 6.890625 26.703125 6.890625 
Q 35.15625 6.890625 40.078125 11.328125 
Q 45.015625 15.765625 45.015625 23.390625 
Q 45.015625 31 40.078125 35.4375 
Q 35.15625 39.890625 26.703125 39.890625 
Q 22.75 39.890625 18.8125 39.015625 
Q 14.890625 38.140625 10.796875 36.28125 
z
" id="DejaVuSans-53"/>
      <path d="M 50.984375 -16.609375 
L 50.984375 -23.578125 
L -0.984375 -23.578125 
L -0.984375 -16.609375 
z
" id="DejaVuSans-95"/>
      <path d="M 54.890625 33.015625 
L 54.890625 0 
L 45.90625 0 
L 45.90625 32.71875 
Q 45.90625 40.484375 42.875 44.328125 
Q 39.84375 48.1875 33.796875 48.1875 
Q 26.515625 48.1875 22.3125 43.546875 
Q 18.109375 38.921875 18.109375 30.90625 
L 18.109375 0 
L 9.078125 0 
L 9.078125 54.6875 
L 18.109375 54.6875 
L 18.109375 46.1875 
Q 21.34375 51.125 25.703125 53.5625 
Q 30.078125 56 35.796875 56 
Q 45.21875 56 50.046875 50.171875 
Q 54.890625 44.34375 54.890625 33.015625 
z
" id="DejaVuSans-110"/>
      <path d="M 9.8125 72.90625 
L 55.90625 72.90625 
L 55.90625 64.59375 
L 19.671875 64.59375 
L 19.671875 43.015625 
L 54.390625 43.015625 
L 54.390625 34.71875 
L 19.671875 34.71875 
L 19.671875 8.296875 
L 56.78125 8.296875 
L 56.78125 0 
L 9.8125 0 
z
" id="DejaVuSans-69"/>
      <path d="M 54.890625 54.6875 
L 35.109375 28.078125 
L 55.90625 0 
L 45.3125 0 
L 29.390625 21.484375 
L 13.484375 0 
L 2.875 0 
L 24.125 28.609375 
L 4.6875 54.6875 
L 15.28125 54.6875 
L 29.78125 35.203125 
L 44.28125 54.6875 
z
" id="DejaVuSans-120"/>
      <path d="M 64.40625 67.28125 
L 64.40625 56.890625 
Q 59.421875 61.53125 53.78125 63.8125 
Q 48.140625 66.109375 41.796875 66.109375 
Q 29.296875 66.109375 22.65625 58.46875 
Q 16.015625 50.828125 16.015625 36.375 
Q 16.015625 21.96875 22.65625 14.328125 
Q 29.296875 6.6875 41.796875 6.6875 
Q 48.140625 6.6875 53.78125 8.984375 
Q 59.421875 11.28125 64.40625 15.921875 
L 64.40625 5.609375 
Q 59.234375 2.09375 53.4375 0.328125 
Q 47.65625 -1.421875 41.21875 -1.421875 
Q 24.65625 -1.421875 15.125 8.703125 
Q 5.609375 18.84375 5.609375 36.375 
Q 5.609375 53.953125 15.125 64.078125 
Q 24.65625 74.21875 41.21875 74.21875 
Q 47.75 74.21875 53.53125 72.484375 
Q 59.328125 70.75 64.40625 67.28125 
z
" id="DejaVuSans-67"/>
      <path d="M 2.984375 54.6875 
L 12.5 54.6875 
L 29.59375 8.796875 
L 46.6875 54.6875 
L 56.203125 54.6875 
L 35.6875 0 
L 23.484375 0 
z
" id="DejaVuSans-118"/>
      <path d="M 45.40625 27.984375 
Q 45.40625 37.75 41.375 43.109375 
Q 37.359375 48.484375 30.078125 48.484375 
Q 22.859375 48.484375 18.828125 43.109375 
Q 14.796875 37.75 14.796875 27.984375 
Q 14.796875 18.265625 18.828125 12.890625 
Q 22.859375 7.515625 30.078125 7.515625 
Q 37.359375 7.515625 41.375 12.890625 
Q 45.40625 18.265625 45.40625 27.984375 
z
M 54.390625 6.78125 
Q 54.390625 -7.171875 48.1875 -13.984375 
Q 42 -20.796875 29.203125 -20.796875 
Q 24.46875 -20.796875 20.265625 -20.09375 
Q 16.0625 -19.390625 12.109375 -17.921875 
L 12.109375 -9.1875 
Q 16.0625 -11.328125 19.921875 -12.34375 
Q 23.78125 -13.375 27.78125 -13.375 
Q 36.625 -13.375 41.015625 -8.765625 
Q 45.40625 -4.15625 45.40625 5.171875 
L 45.40625 9.625 
Q 42.625 4.78125 38.28125 2.390625 
Q 33.9375 0 27.875 0 
Q 17.828125 0 11.671875 7.65625 
Q 5.515625 15.328125 5.515625 27.984375 
Q 5.515625 40.671875 11.671875 48.328125 
Q 17.828125 56 27.875 56 
Q 33.9375 56 38.28125 53.609375 
Q 42.625 51.21875 45.40625 46.390625 
L 45.40625 54.6875 
L 54.390625 54.6875 
z
" id="DejaVuSans-103"/>
     </defs>
     <g transform="translate(172.198558 55.298498)scale(0.0833 -0.0833)">
      <use xlink:href="#DejaVuSans-115"/>
      <use x="52.099609" xlink:href="#DejaVuSans-97"/>
      <use x="113.378906" xlink:href="#DejaVuSans-109"/>
      <use x="210.791016" xlink:href="#DejaVuSans-112"/>
      <use x="274.267578" xlink:href="#DejaVuSans-108"/>
      <use x="302.050781" xlink:href="#DejaVuSans-101"/>
      <use x="363.574219" xlink:href="#DejaVuSans-45"/>
      <use x="399.658203" xlink:href="#DejaVuSans-49"/>
      <use x="463.28125" xlink:href="#DejaVuSans-45"/>
      <use x="499.365234" xlink:href="#DejaVuSans-53"/>
      <use x="562.988281" xlink:href="#DejaVuSans-95"/>
      <use x="612.988281" xlink:href="#DejaVuSans-115"/>
      <use x="665.087891" xlink:href="#DejaVuSans-116"/>
      <use x="704.296875" xlink:href="#DejaVuSans-114"/>
      <use x="745.410156" xlink:href="#DejaVuSans-97"/>
      <use x="806.689453" xlink:href="#DejaVuSans-110"/>
      <use x="870.068359" xlink:href="#DejaVuSans-100"/>
      <use x="933.544922" xlink:href="#DejaVuSans-45"/>
      <use x="969.628906" xlink:href="#DejaVuSans-102"/>
      <use x="1004.833984" xlink:href="#DejaVuSans-105"/>
      <use x="1032.617188" xlink:href="#DejaVuSans-108"/>
      <use x="1060.400391" xlink:href="#DejaVuSans-116"/>
      <use x="1099.609375" xlink:href="#DejaVuSans-101"/>
      <use x="1161.132812" xlink:href="#DejaVuSans-114"/>
      <use x="1202.214844" xlink:href="#DejaVuSans-101"/>
      <use x="1263.738281" xlink:href="#DejaVuSans-100"/>
      <use x="1327.214844" xlink:href="#DejaVuSans-95"/>
      <use x="1377.214844" xlink:href="#DejaVuSans-49"/>
      <use x="1440.837891" xlink:href="#DejaVuSans-48"/>
      <use x="1504.460938" xlink:href="#DejaVuSans-48"/>
      <use x="1568.083984" xlink:href="#DejaVuSans-48"/>
      <use x="1631.707031" xlink:href="#DejaVuSans-48"/>
      <use x="1695.330078" xlink:href="#DejaVuSans-48"/>
      <use x="1758.953125" xlink:href="#DejaVuSans-48"/>
      <use x="1822.576172" xlink:href="#DejaVuSans-48"/>
      <use x="1886.199219" xlink:href="#DejaVuSans-48"/>
      <use x="1949.822266" xlink:href="#DejaVuSans-95"/>
      <use x="1999.822266" xlink:href="#DejaVuSans-69"/>
      <use x="2063.005859" xlink:href="#DejaVuSans-120"/>
      <use x="2122.138672" xlink:href="#DejaVuSans-111"/>
      <use x="2183.320312" xlink:href="#DejaVuSans-109"/>
      <use x="2280.732422" xlink:href="#DejaVuSans-101"/>
      <use x="2342.255859" xlink:href="#DejaVuSans-67"/>
      <use x="2412.080078" xlink:href="#DejaVuSans-111"/>
      <use x="2473.261719" xlink:href="#DejaVuSans-118"/>
      <use x="2532.441406" xlink:href="#DejaVuSans-101"/>
      <use x="2593.964844" xlink:href="#DejaVuSans-114"/>
      <use x="2635.078125" xlink:href="#DejaVuSans-97"/>
      <use x="2696.357422" xlink:href="#DejaVuSans-103"/>
      <use x="2759.833984" xlink:href="#DejaVuSans-101"/>
     </g>
    </g>
    <g id="line2d_21">
     <path d="M 148.874558 64.841555 
L 165.534558 64.841555 
" style="fill:none;stroke:#ff7f0e;stroke-linecap:square;stroke-width:1.5;"/>
    </g>
    <g id="line2d_22"/>
    <g id="text_16">
     <!-- sample-1-5_strand-filtered_120000000_ExomeCoverage -->
     <g transform="translate(172.198558 67.757055)scale(0.0833 -0.0833)">
      <use xlink:href="#DejaVuSans-115"/>
      <use x="52.099609" xlink:href="#DejaVuSans-97"/>
      <use x="113.378906" xlink:href="#DejaVuSans-109"/>
      <use x="210.791016" xlink:href="#DejaVuSans-112"/>
      <use x="274.267578" xlink:href="#DejaVuSans-108"/>
      <use x="302.050781" xlink:href="#DejaVuSans-101"/>
      <use x="363.574219" xlink:href="#DejaVuSans-45"/>
      <use x="399.658203" xlink:href="#DejaVuSans-49"/>
      <use x="463.28125" xlink:href="#DejaVuSans-45"/>
      <use x="499.365234" xlink:href="#DejaVuSans-53"/>
      <use x="562.988281" xlink:href="#DejaVuSans-95"/>
      <use x="612.988281" xlink:href="#DejaVuSans-115"/>
      <use x="665.087891" xlink:href="#DejaVuSans-116"/>
      <use x="704.296875" xlink:href="#DejaVuSans-114"/>
      <use x="745.410156" xlink:href="#DejaVuSans-97"/>
      <use x="806.689453" xlink:href="#DejaVuSans-110"/>
      <use x="870.068359" xlink:href="#DejaVuSans-100"/>
      <use x="933.544922" xlink:href="#DejaVuSans-45"/>
      <use x="969.628906" xlink:href="#DejaVuSans-102"/>
      <use x="1004.833984" xlink:href="#DejaVuSans-105"/>
      <use x="1032.617188" xlink:href="#DejaVuSans-108"/>
      <use x="1060.400391" xlink:href="#DejaVuSans-116"/>
      <use x="1099.609375" xlink:href="#DejaVuSans-101"/>
      <use x="1161.132812" xlink:href="#DejaVuSans-114"/>
      <use x="1202.214844" xlink:href="#DejaVuSans-101"/>
      <use x="1263.738281" xlink:href="#DejaVuSans-100"/>
      <use x="1327.214844" xlink:href="#DejaVuSans-95"/>
      <use x="1377.214844" xlink:href="#DejaVuSans-49"/>
      <use x="1440.837891" xlink:href="#DejaVuSans-50"/>
      <use x="1504.460938" xlink:href="#DejaVuSans-48"/>
      <use x="1568.083984" xlink:href="#DejaVuSans-48"/>
      <use x="1631.707031" xlink:href="#DejaVuSans-48"/>
      <use x="1695.330078" xlink:href="#DejaVuSans-48"/>
      <use x="1758.953125" xlink:href="#DejaVuSans-48"/>
      <use x="1822.576172" xlink:href="#DejaVuSans-48"/>
      <use x="1886.199219" xlink:href="#DejaVuSans-48"/>
      <use x="1949.822266" xlink:href="#DejaVuSans-95"/>
      <use x="1999.822266" xlink:href="#DejaVuSans-69"/>
      <use x="2063.005859" xlink:href="#DejaVuSans-120"/>
      <use x="2122.138672" xlink:href="#DejaVuSans-111"/>
      <use x="2183.320312" xlink:href="#DejaVuSans-109"/>
      <use x="2280.732422" xlink:href="#DejaVuSans-101"/>
      <use x="2342.255859" xlink:href="#DejaVuSans-67"/>
      <use x="2412.080078" xlink:href="#DejaVuSans-111"/>
      <use x="2473.261719" xlink:href="#DejaVuSans-118"/>
      <use x="2532.441406" xlink:href="#DejaVuSans-101"/>
      <use x="2593.964844" xlink:href="#DejaVuSans-114"/>
      <use x="2635.078125" xlink:href="#DejaVuSans-97"/>
      <use x="2696.357422" xlink:href="#DejaVuSans-103"/>
      <use x="2759.833984" xlink:href="#DejaVuSans-101"/>
     </g>
    </g>
    <g id="line2d_23">
     <path d="M 148.874558 77.300111 
L 165.534558 77.300111 
" style="fill:none;stroke:#2ca02c;stroke-linecap:square;stroke-width:1.5;"/>
    </g>
    <g id="line2d_24"/>
    <g id="text_17">
     <!-- sample-1-5_strand-filtered_20000000_ExomeCoverage -->
     <g transform="translate(172.198558 80.215611)scale(0.0833 -0.0833)">
      <use xlink:href="#DejaVuSans-115"/>
      <use x="52.099609" xlink:href="#DejaVuSans-97"/>
      <use x="113.378906" xlink:href="#DejaVuSans-109"/>
      <use x="210.791016" xlink:href="#DejaVuSans-112"/>
      <use x="274.267578" xlink:href="#DejaVuSans-108"/>
      <use x="302.050781" xlink:href="#DejaVuSans-101"/>
      <use x="363.574219" xlink:href="#DejaVuSans-45"/>
      <use x="399.658203" xlink:href="#DejaVuSans-49"/>
      <use x="463.28125" xlink:href="#DejaVuSans-45"/>
      <use x="499.365234" xlink:href="#DejaVuSans-53"/>
      <use x="562.988281" xlink:href="#DejaVuSans-95"/>
      <use x="612.988281" xlink:href="#DejaVuSans-115"/>
      <use x="665.087891" xlink:href="#DejaVuSans-116"/>
      <use x="704.296875" xlink:href="#DejaVuSans-114"/>
      <use x="745.410156" xlink:href="#DejaVuSans-97"/>
      <use x="806.689453" xlink:href="#DejaVuSans-110"/>
      <use x="870.068359" xlink:href="#DejaVuSans-100"/>
      <use x="933.544922" xlink:href="#DejaVuSans-45"/>
      <use x="969.628906" xlink:href="#DejaVuSans-102"/>
      <use x="1004.833984" xlink:href="#DejaVuSans-105"/>
      <use x="1032.617188" xlink:href="#DejaVuSans-108"/>
      <use x="1060.400391" xlink:href="#DejaVuSans-116"/>
      <use x="1099.609375" xlink:href="#DejaVuSans-101"/>
      <use x="1161.132812" xlink:href="#DejaVuSans-114"/>
      <use x="1202.214844" xlink:href="#DejaVuSans-101"/>
      <use x="1263.738281" xlink:href="#DejaVuSans-100"/>
      <use x="1327.214844" xlink:href="#DejaVuSans-95"/>
      <use x="1377.214844" xlink:href="#DejaVuSans-50"/>
      <use x="1440.837891" xlink:href="#DejaVuSans-48"/>
      <use x="1504.460938" xlink:href="#DejaVuSans-48"/>
      <use x="1568.083984" xlink:href="#DejaVuSans-48"/>
      <use x="1631.707031" xlink:href="#DejaVuSans-48"/>
      <use x="1695.330078" xlink:href="#DejaVuSans-48"/>
      <use x="1758.953125" xlink:href="#DejaVuSans-48"/>
      <use x="1822.576172" xlink:href="#DejaVuSans-48"/>
      <use x="1886.199219" xlink:href="#DejaVuSans-95"/>
      <use x="1936.199219" xlink:href="#DejaVuSans-69"/>
      <use x="1999.382812" xlink:href="#DejaVuSans-120"/>
      <use x="2058.515625" xlink:href="#DejaVuSans-111"/>
      <use x="2119.697266" xlink:href="#DejaVuSans-109"/>
      <use x="2217.109375" xlink:href="#DejaVuSans-101"/>
      <use x="2278.632812" xlink:href="#DejaVuSans-67"/>
      <use x="2348.457031" xlink:href="#DejaVuSans-111"/>
      <use x="2409.638672" xlink:href="#DejaVuSans-118"/>
      <use x="2468.818359" xlink:href="#DejaVuSans-101"/>
      <use x="2530.341797" xlink:href="#DejaVuSans-114"/>
      <use x="2571.455078" xlink:href="#DejaVuSans-97"/>
      <use x="2632.734375" xlink:href="#DejaVuSans-103"/>
      <use x="2696.210938" xlink:href="#DejaVuSans-101"/>
     </g>
    </g>
    <g id="line2d_25">
     <path d="M 148.874558 89.758667 
L 165.534558 89.758667 
" style="fill:none;stroke:#d62728;stroke-linecap:square;stroke-width:1.5;"/>
    </g>
    <g id="line2d_26"/>
    <g id="text_18">
     <!-- sample-1-5_strand-filtered_40000000_ExomeCoverage -->
     <g transform="translate(172.198558 92.674167)scale(0.0833 -0.0833)">
      <use xlink:href="#DejaVuSans-115"/>
      <use x="52.099609" xlink:href="#DejaVuSans-97"/>
      <use x="113.378906" xlink:href="#DejaVuSans-109"/>
      <use x="210.791016" xlink:href="#DejaVuSans-112"/>
      <use x="274.267578" xlink:href="#DejaVuSans-108"/>
      <use x="302.050781" xlink:href="#DejaVuSans-101"/>
      <use x="363.574219" xlink:href="#DejaVuSans-45"/>
      <use x="399.658203" xlink:href="#DejaVuSans-49"/>
      <use x="463.28125" xlink:href="#DejaVuSans-45"/>
      <use x="499.365234" xlink:href="#DejaVuSans-53"/>
      <use x="562.988281" xlink:href="#DejaVuSans-95"/>
      <use x="612.988281" xlink:href="#DejaVuSans-115"/>
      <use x="665.087891" xlink:href="#DejaVuSans-116"/>
      <use x="704.296875" xlink:href="#DejaVuSans-114"/>
      <use x="745.410156" xlink:href="#DejaVuSans-97"/>
      <use x="806.689453" xlink:href="#DejaVuSans-110"/>
      <use x="870.068359" xlink:href="#DejaVuSans-100"/>
      <use x="933.544922" xlink:href="#DejaVuSans-45"/>
      <use x="969.628906" xlink:href="#DejaVuSans-102"/>
      <use x="1004.833984" xlink:href="#DejaVuSans-105"/>
      <use x="1032.617188" xlink:href="#DejaVuSans-108"/>
      <use x="1060.400391" xlink:href="#DejaVuSans-116"/>
      <use x="1099.609375" xlink:href="#DejaVuSans-101"/>
      <use x="1161.132812" xlink:href="#DejaVuSans-114"/>
      <use x="1202.214844" xlink:href="#DejaVuSans-101"/>
      <use x="1263.738281" xlink:href="#DejaVuSans-100"/>
      <use x="1327.214844" xlink:href="#DejaVuSans-95"/>
      <use x="1377.214844" xlink:href="#DejaVuSans-52"/>
      <use x="1440.837891" xlink:href="#DejaVuSans-48"/>
      <use x="1504.460938" xlink:href="#DejaVuSans-48"/>
      <use x="1568.083984" xlink:href="#DejaVuSans-48"/>
      <use x="1631.707031" xlink:href="#DejaVuSans-48"/>
      <use x="1695.330078" xlink:href="#DejaVuSans-48"/>
      <use x="1758.953125" xlink:href="#DejaVuSans-48"/>
      <use x="1822.576172" xlink:href="#DejaVuSans-48"/>
      <use x="1886.199219" xlink:href="#DejaVuSans-95"/>
      <use x="1936.199219" xlink:href="#DejaVuSans-69"/>
      <use x="1999.382812" xlink:href="#DejaVuSans-120"/>
      <use x="2058.515625" xlink:href="#DejaVuSans-111"/>
      <use x="2119.697266" xlink:href="#DejaVuSans-109"/>
      <use x="2217.109375" xlink:href="#DejaVuSans-101"/>
      <use x="2278.632812" xlink:href="#DejaVuSans-67"/>
      <use x="2348.457031" xlink:href="#DejaVuSans-111"/>
      <use x="2409.638672" xlink:href="#DejaVuSans-118"/>
      <use x="2468.818359" xlink:href="#DejaVuSans-101"/>
      <use x="2530.341797" xlink:href="#DejaVuSans-114"/>
      <use x="2571.455078" xlink:href="#DejaVuSans-97"/>
      <use x="2632.734375" xlink:href="#DejaVuSans-103"/>
      <use x="2696.210938" xlink:href="#DejaVuSans-101"/>
     </g>
    </g>
    <g id="line2d_27">
     <path d="M 148.874558 102.217223 
L 165.534558 102.217223 
" style="fill:none;stroke:#9467bd;stroke-linecap:square;stroke-width:1.5;"/>
    </g>
    <g id="line2d_28"/>
    <g id="text_19">
     <!-- sample-1-5_strand-filtered_60000000_ExomeCoverage -->
     <g transform="translate(172.198558 105.132723)scale(0.0833 -0.0833)">
      <use xlink:href="#DejaVuSans-115"/>
      <use x="52.099609" xlink:href="#DejaVuSans-97"/>
      <use x="113.378906" xlink:href="#DejaVuSans-109"/>
      <use x="210.791016" xlink:href="#DejaVuSans-112"/>
      <use x="274.267578" xlink:href="#DejaVuSans-108"/>
      <use x="302.050781" xlink:href="#DejaVuSans-101"/>
      <use x="363.574219" xlink:href="#DejaVuSans-45"/>
      <use x="399.658203" xlink:href="#DejaVuSans-49"/>
      <use x="463.28125" xlink:href="#DejaVuSans-45"/>
      <use x="499.365234" xlink:href="#DejaVuSans-53"/>
      <use x="562.988281" xlink:href="#DejaVuSans-95"/>
      <use x="612.988281" xlink:href="#DejaVuSans-115"/>
      <use x="665.087891" xlink:href="#DejaVuSans-116"/>
      <use x="704.296875" xlink:href="#DejaVuSans-114"/>
      <use x="745.410156" xlink:href="#DejaVuSans-97"/>
      <use x="806.689453" xlink:href="#DejaVuSans-110"/>
      <use x="870.068359" xlink:href="#DejaVuSans-100"/>
      <use x="933.544922" xlink:href="#DejaVuSans-45"/>
      <use x="969.628906" xlink:href="#DejaVuSans-102"/>
      <use x="1004.833984" xlink:href="#DejaVuSans-105"/>
      <use x="1032.617188" xlink:href="#DejaVuSans-108"/>
      <use x="1060.400391" xlink:href="#DejaVuSans-116"/>
      <use x="1099.609375" xlink:href="#DejaVuSans-101"/>
      <use x="1161.132812" xlink:href="#DejaVuSans-114"/>
      <use x="1202.214844" xlink:href="#DejaVuSans-101"/>
      <use x="1263.738281" xlink:href="#DejaVuSans-100"/>
      <use x="1327.214844" xlink:href="#DejaVuSans-95"/>
      <use x="1377.214844" xlink:href="#DejaVuSans-54"/>
      <use x="1440.837891" xlink:href="#DejaVuSans-48"/>
      <use x="1504.460938" xlink:href="#DejaVuSans-48"/>
      <use x="1568.083984" xlink:href="#DejaVuSans-48"/>
      <use x="1631.707031" xlink:href="#DejaVuSans-48"/>
      <use x="1695.330078" xlink:href="#DejaVuSans-48"/>
      <use x="1758.953125" xlink:href="#DejaVuSans-48"/>
      <use x="1822.576172" xlink:href="#DejaVuSans-48"/>
      <use x="1886.199219" xlink:href="#DejaVuSans-95"/>
      <use x="1936.199219" xlink:href="#DejaVuSans-69"/>
      <use x="1999.382812" xlink:href="#DejaVuSans-120"/>
      <use x="2058.515625" xlink:href="#DejaVuSans-111"/>
      <use x="2119.697266" xlink:href="#DejaVuSans-109"/>
      <use x="2217.109375" xlink:href="#DejaVuSans-101"/>
      <use x="2278.632812" xlink:href="#DejaVuSans-67"/>
      <use x="2348.457031" xlink:href="#DejaVuSans-111"/>
      <use x="2409.638672" xlink:href="#DejaVuSans-118"/>
      <use x="2468.818359" xlink:href="#DejaVuSans-101"/>
      <use x="2530.341797" xlink:href="#DejaVuSans-114"/>
      <use x="2571.455078" xlink:href="#DejaVuSans-97"/>
      <use x="2632.734375" xlink:href="#DejaVuSans-103"/>
      <use x="2696.210938" xlink:href="#DejaVuSans-101"/>
     </g>
    </g>
    <g id="line2d_29">
     <path d="M 148.874558 114.67578 
L 165.534558 114.67578 
" style="fill:none;stroke:#8c564b;stroke-linecap:square;stroke-width:1.5;"/>
    </g>
    <g id="line2d_30"/>
    <g id="text_20">
     <!-- sample-1-5_strand-filtered_80000000_ExomeCoverage -->
     <g transform="translate(172.198558 117.59128)scale(0.0833 -0.0833)">
      <use xlink:href="#DejaVuSans-115"/>
      <use x="52.099609" xlink:href="#DejaVuSans-97"/>
      <use x="113.378906" xlink:href="#DejaVuSans-109"/>
      <use x="210.791016" xlink:href="#DejaVuSans-112"/>
      <use x="274.267578" xlink:href="#DejaVuSans-108"/>
      <use x="302.050781" xlink:href="#DejaVuSans-101"/>
      <use x="363.574219" xlink:href="#DejaVuSans-45"/>
      <use x="399.658203" xlink:href="#DejaVuSans-49"/>
      <use x="463.28125" xlink:href="#DejaVuSans-45"/>
      <use x="499.365234" xlink:href="#DejaVuSans-53"/>
      <use x="562.988281" xlink:href="#DejaVuSans-95"/>
      <use x="612.988281" xlink:href="#DejaVuSans-115"/>
      <use x="665.087891" xlink:href="#DejaVuSans-116"/>
      <use x="704.296875" xlink:href="#DejaVuSans-114"/>
      <use x="745.410156" xlink:href="#DejaVuSans-97"/>
      <use x="806.689453" xlink:href="#DejaVuSans-110"/>
      <use x="870.068359" xlink:href="#DejaVuSans-100"/>
      <use x="933.544922" xlink:href="#DejaVuSans-45"/>
      <use x="969.628906" xlink:href="#DejaVuSans-102"/>
      <use x="1004.833984" xlink:href="#DejaVuSans-105"/>
      <use x="1032.617188" xlink:href="#DejaVuSans-108"/>
      <use x="1060.400391" xlink:href="#DejaVuSans-116"/>
      <use x="1099.609375" xlink:href="#DejaVuSans-101"/>
      <use x="1161.132812" xlink:href="#DejaVuSans-114"/>
      <use x="1202.214844" xlink:href="#DejaVuSans-101"/>
      <use x="1263.738281" xlink:href="#DejaVuSans-100"/>
      <use x="1327.214844" xlink:href="#DejaVuSans-95"/>
      <use x="1377.214844" xlink:href="#DejaVuSans-56"/>
      <use x="1440.837891" xlink:href="#DejaVuSans-48"/>
      <use x="1504.460938" xlink:href="#DejaVuSans-48"/>
      <use x="1568.083984" xlink:href="#DejaVuSans-48"/>
      <use x="1631.707031" xlink:href="#DejaVuSans-48"/>
      <use x="1695.330078" xlink:href="#DejaVuSans-48"/>
      <use x="1758.953125" xlink:href="#DejaVuSans-48"/>
      <use x="1822.576172" xlink:href="#DejaVuSans-48"/>
      <use x="1886.199219" xlink:href="#DejaVuSans-95"/>
      <use x="1936.199219" xlink:href="#DejaVuSans-69"/>
      <use x="1999.382812" xlink:href="#DejaVuSans-120"/>
      <use x="2058.515625" xlink:href="#DejaVuSans-111"/>
      <use x="2119.697266" xlink:href="#DejaVuSans-109"/>
      <use x="2217.109375" xlink:href="#DejaVuSans-101"/>
      <use x="2278.632812" xlink:href="#DejaVuSans-67"/>
      <use x="2348.457031" xlink:href="#DejaVuSans-111"/>
      <use x="2409.638672" xlink:href="#DejaVuSans-118"/>
      <use x="2468.818359" xlink:href="#DejaVuSans-101"/>
      <use x="2530.341797" xlink:href="#DejaVuSans-114"/>
      <use x="2571.455078" xlink:href="#DejaVuSans-97"/>
      <use x="2632.734375" xlink:href="#DejaVuSans-103"/>
      <use x="2696.210938" xlink:href="#DejaVuSans-101"/>
     </g>
    </g>
   </g>
  </g>
  <g id="text_21">
   <!-- Cumulative coverage -->
   <defs>
    <path d="M 8.5 21.578125 
L 8.5 54.6875 
L 17.484375 54.6875 
L 17.484375 21.921875 
Q 17.484375 14.15625 20.5 10.265625 
Q 23.53125 6.390625 29.59375 6.390625 
Q 36.859375 6.390625 41.078125 11.03125 
Q 45.3125 15.671875 45.3125 23.6875 
L 45.3125 54.6875 
L 54.296875 54.6875 
L 54.296875 0 
L 45.3125 0 
L 45.3125 8.40625 
Q 42.046875 3.421875 37.71875 1 
Q 33.40625 -1.421875 27.6875 -1.421875 
Q 18.265625 -1.421875 13.375 4.4375 
Q 8.5 10.296875 8.5 21.578125 
z
M 31.109375 56 
z
" id="DejaVuSans-117"/>
    <path d="M 48.78125 52.59375 
L 48.78125 44.1875 
Q 44.96875 46.296875 41.140625 47.34375 
Q 37.3125 48.390625 33.40625 48.390625 
Q 24.65625 48.390625 19.8125 42.84375 
Q 14.984375 37.3125 14.984375 27.296875 
Q 14.984375 17.28125 19.8125 11.734375 
Q 24.65625 6.203125 33.40625 6.203125 
Q 37.3125 6.203125 41.140625 7.25 
Q 44.96875 8.296875 48.78125 10.40625 
L 48.78125 2.09375 
Q 45.015625 0.34375 40.984375 -0.53125 
Q 36.96875 -1.421875 32.421875 -1.421875 
Q 20.0625 -1.421875 12.78125 6.34375 
Q 5.515625 14.109375 5.515625 27.296875 
Q 5.515625 40.671875 12.859375 48.328125 
Q 20.21875 56 33.015625 56 
Q 37.15625 56 41.109375 55.140625 
Q 45.0625 54.296875 48.78125 52.59375 
z
" id="DejaVuSans-99"/>
   </defs>
   <g transform="translate(166.390312 16.030125)scale(0.12 -0.12)">
    <use xlink:href="#DejaVuSans-67"/>
    <use x="69.824219" xlink:href="#DejaVuSans-117"/>
    <use x="133.203125" xlink:href="#DejaVuSans-109"/>
    <use x="230.615234" xlink:href="#DejaVuSans-117"/>
    <use x="293.994141" xlink:href="#DejaVuSans-108"/>
    <use x="321.777344" xlink:href="#DejaVuSans-97"/>
    <use x="383.056641" xlink:href="#DejaVuSans-116"/>
    <use x="422.265625" xlink:href="#DejaVuSans-105"/>
    <use x="450.048828" xlink:href="#DejaVuSans-118"/>
    <use x="509.228516" xlink:href="#DejaVuSans-101"/>
    <use x="570.751953" xlink:href="#DejaVuSans-32"/>
    <use x="602.539062" xlink:href="#DejaVuSans-99"/>
    <use x="657.519531" xlink:href="#DejaVuSans-111"/>
    <use x="718.701172" xlink:href="#DejaVuSans-118"/>
    <use x="777.880859" xlink:href="#DejaVuSans-101"/>
    <use x="839.404297" xlink:href="#DejaVuSans-114"/>
    <use x="880.517578" xlink:href="#DejaVuSans-97"/>
    <use x="941.796875" xlink:href="#DejaVuSans-103"/>
    <use x="1005.273438" xlink:href="#DejaVuSans-101"/>
   </g>
  </g>
 </g>
 <defs>
  <clipPath id="pcce0fafced">
   <rect height="266.112" width="357.12" x="57.6" y="41.472"/>
  </clipPath>
 </defs>
</svg>
