<?xml version="1.0" encoding="utf-8" standalone="no"?>
<!DOCTYPE svg PUBLIC "-//W3C//DTD SVG 1.1//EN"
  "http://www.w3.org/Graphics/SVG/1.1/DTD/svg11.dtd">
<!-- Created with matplotlib (https://matplotlib.org/) -->
<svg height="345.6pt" version="1.1" viewBox="0 0 460.8 345.6" width="460.8pt" xmlns="http://www.w3.org/2000/svg" xmlns:xlink="http://www.w3.org/1999/xlink">
 <defs>
  <style type="text/css">
*{stroke-linecap:butt;stroke-linejoin:round;}
  </style>
 </defs>
 <g id="figure_1">
  <g id="patch_1">
   <path d="M 0 345.6 
L 460.8 345.6 
L 460.8 0 
L 0 0 
z
" style="fill:#ffffff;"/>
  </g>
  <g id="axes_1">
   <g id="patch_2">
    <path d="M 57.6 307.584 
L 414.72 307.584 
L 414.72 41.472 
L 57.6 41.472 
z
" style="fill:#ffffff;"/>
   </g>
   <g id="matplotlib.axis_1">
    <g id="xtick_1">
     <g id="line2d_1">
      <defs>
       <path d="M 0 0 
L 0 3.5 
" id="mc3ea14058d" style="stroke:#000000;stroke-width:0.8;"/>
      </defs>
      <g>
       <use style="stroke:#000000;stroke-width:0.8;" x="73.832727" xlink:href="#mc3ea14058d" y="307.584"/>
      </g>
     </g>
     <g id="text_1">
      <!-- 0 -->
      <defs>
       <path d="M 31.78125 66.40625 
Q 24.171875 66.40625 20.328125 58.90625 
Q 16.5 51.421875 16.5 36.375 
Q 16.5 21.390625 20.328125 13.890625 
Q 24.171875 6.390625 31.78125 6.390625 
Q 39.453125 6.390625 43.28125 13.890625 
Q 47.125 21.390625 47.125 36.375 
Q 47.125 51.421875 43.28125 58.90625 
Q 39.453125 66.40625 31.78125 66.40625 
z
M 31.78125 74.21875 
Q 44.046875 74.21875 50.515625 64.515625 
Q 56.984375 54.828125 56.984375 36.375 
Q 56.984375 17.96875 50.515625 8.265625 
Q 44.046875 -1.421875 31.78125 -1.421875 
Q 19.53125 -1.421875 13.0625 8.265625 
Q 6.59375 17.96875 6.59375 36.375 
Q 6.59375 54.828125 13.0625 64.515625 
Q 19.53125 74.21875 31.78125 74.21875 
z
" id="DejaVuSans-48"/>
      </defs>
      <g transform="translate(70.651477 322.182437)scale(0.1 -0.1)">
       <use xlink:href="#DejaVuSans-48"/>
      </g>
     </g>
    </g>
    <g id="xtick_2">
     <g id="line2d_2">
      <g>
       <use style="stroke:#000000;stroke-width:0.8;" x="139.419504" xlink:href="#mc3ea14058d" y="307.584"/>
      </g>
     </g>
     <g id="text_2">
      <!-- 20 -->
      <defs>
       <path d="M 19.1875 8.296875 
L 53.609375 8.296875 
L 53.609375 0 
L 7.328125 0 
L 7.328125 8.296875 
Q 12.9375 14.109375 22.625 23.890625 
Q 32.328125 33.6875 34.8125 36.53125 
Q 39.546875 41.84375 41.421875 45.53125 
Q 43.3125 49.21875 43.3125 52.78125 
Q 43.3125 58.59375 39.234375 62.25 
Q 35.15625 65.921875 28.609375 65.921875 
Q 23.96875 65.921875 18.8125 64.3125 
Q 13.671875 62.703125 7.8125 59.421875 
L 7.8125 69.390625 
Q 13.765625 71.78125 18.9375 73 
Q 24.125 74.21875 28.421875 74.21875 
Q 39.75 74.21875 46.484375 68.546875 
Q 53.21875 62.890625 53.21875 53.421875 
Q 53.21875 48.921875 51.53125 44.890625 
Q 49.859375 40.875 45.40625 35.40625 
Q 44.1875 33.984375 37.640625 27.21875 
Q 31.109375 20.453125 19.1875 8.296875 
z
" id="DejaVuSans-50"/>
      </defs>
      <g transform="translate(133.057004 322.182437)scale(0.1 -0.1)">
       <use xlink:href="#DejaVuSans-50"/>
       <use x="63.623047" xlink:href="#DejaVuSans-48"/>
      </g>
     </g>
    </g>
    <g id="xtick_3">
     <g id="line2d_3">
      <g>
       <use style="stroke:#000000;stroke-width:0.8;" x="205.006281" xlink:href="#mc3ea14058d" y="307.584"/>
      </g>
     </g>
     <g id="text_3">
      <!-- 40 -->
      <defs>
       <path d="M 37.796875 64.3125 
L 12.890625 25.390625 
L 37.796875 25.390625 
z
M 35.203125 72.90625 
L 47.609375 72.90625 
L 47.609375 25.390625 
L 58.015625 25.390625 
L 58.015625 17.1875 
L 47.609375 17.1875 
L 47.609375 0 
L 37.796875 0 
L 37.796875 17.1875 
L 4.890625 17.1875 
L 4.890625 26.703125 
z
" id="DejaVuSans-52"/>
      </defs>
      <g transform="translate(198.643781 322.182437)scale(0.1 -0.1)">
       <use xlink:href="#DejaVuSans-52"/>
       <use x="63.623047" xlink:href="#DejaVuSans-48"/>
      </g>
     </g>
    </g>
    <g id="xtick_4">
     <g id="line2d_4">
      <g>
       <use style="stroke:#000000;stroke-width:0.8;" x="270.593058" xlink:href="#mc3ea14058d" y="307.584"/>
      </g>
     </g>
     <g id="text_4">
      <!-- 60 -->
      <defs>
       <path d="M 33.015625 40.375 
Q 26.375 40.375 22.484375 35.828125 
Q 18.609375 31.296875 18.609375 23.390625 
Q 18.609375 15.53125 22.484375 10.953125 
Q 26.375 6.390625 33.015625 6.390625 
Q 39.65625 6.390625 43.53125 10.953125 
Q 47.40625 15.53125 47.40625 23.390625 
Q 47.40625 31.296875 43.53125 35.828125 
Q 39.65625 40.375 33.015625 40.375 
z
M 52.59375 71.296875 
L 52.59375 62.3125 
Q 48.875 64.0625 45.09375 64.984375 
Q 41.3125 65.921875 37.59375 65.921875 
Q 27.828125 65.921875 22.671875 59.328125 
Q 17.53125 52.734375 16.796875 39.40625 
Q 19.671875 43.65625 24.015625 45.921875 
Q 28.375 48.1875 33.59375 48.1875 
Q 44.578125 48.1875 50.953125 41.515625 
Q 57.328125 34.859375 57.328125 23.390625 
Q 57.328125 12.15625 50.6875 5.359375 
Q 44.046875 -1.421875 33.015625 -1.421875 
Q 20.359375 -1.421875 13.671875 8.265625 
Q 6.984375 17.96875 6.984375 36.375 
Q 6.984375 53.65625 15.1875 63.9375 
Q 23.390625 74.21875 37.203125 74.21875 
Q 40.921875 74.21875 44.703125 73.484375 
Q 48.484375 72.75 52.59375 71.296875 
z
" id="DejaVuSans-54"/>
      </defs>
      <g transform="translate(264.230558 322.182437)scale(0.1 -0.1)">
       <use xlink:href="#DejaVuSans-54"/>
       <use x="63.623047" xlink:href="#DejaVuSans-48"/>
      </g>
     </g>
    </g>
    <g id="xtick_5">
     <g id="line2d_5">
      <g>
       <use style="stroke:#000000;stroke-width:0.8;" x="336.179835" xlink:href="#mc3ea14058d" y="307.584"/>
      </g>
     </g>
     <g id="text_5">
      <!-- 80 -->
      <defs>
       <path d="M 31.78125 34.625 
Q 24.75 34.625 20.71875 30.859375 
Q 16.703125 27.09375 16.703125 20.515625 
Q 16.703125 13.921875 20.71875 10.15625 
Q 24.75 6.390625 31.78125 6.390625 
Q 38.8125 6.390625 42.859375 10.171875 
Q 46.921875 13.96875 46.921875 20.515625 
Q 46.921875 27.09375 42.890625 30.859375 
Q 38.875 34.625 31.78125 34.625 
z
M 21.921875 38.8125 
Q 15.578125 40.375 12.03125 44.71875 
Q 8.5 49.078125 8.5 55.328125 
Q 8.5 64.0625 14.71875 69.140625 
Q 20.953125 74.21875 31.78125 74.21875 
Q 42.671875 74.21875 48.875 69.140625 
Q 55.078125 64.0625 55.078125 55.328125 
Q 55.078125 49.078125 51.53125 44.71875 
Q 48 40.375 41.703125 38.8125 
Q 48.828125 37.15625 52.796875 32.3125 
Q 56.78125 27.484375 56.78125 20.515625 
Q 56.78125 9.90625 50.3125 4.234375 
Q 43.84375 -1.421875 31.78125 -1.421875 
Q 19.734375 -1.421875 13.25 4.234375 
Q 6.78125 9.90625 6.78125 20.515625 
Q 6.78125 27.484375 10.78125 32.3125 
Q 14.796875 37.15625 21.921875 38.8125 
z
M 18.3125 54.390625 
Q 18.3125 48.734375 21.84375 45.5625 
Q 25.390625 42.390625 31.78125 42.390625 
Q 38.140625 42.390625 41.71875 45.5625 
Q 45.3125 48.734375 45.3125 54.390625 
Q 45.3125 60.0625 41.71875 63.234375 
Q 38.140625 66.40625 31.78125 66.40625 
Q 25.390625 66.40625 21.84375 63.234375 
Q 18.3125 60.0625 18.3125 54.390625 
z
" id="DejaVuSans-56"/>
      </defs>
      <g transform="translate(329.817335 322.182437)scale(0.1 -0.1)">
       <use xlink:href="#DejaVuSans-56"/>
       <use x="63.623047" xlink:href="#DejaVuSans-48"/>
      </g>
     </g>
    </g>
    <g id="xtick_6">
     <g id="line2d_6">
      <g>
       <use style="stroke:#000000;stroke-width:0.8;" x="401.766612" xlink:href="#mc3ea14058d" y="307.584"/>
      </g>
     </g>
     <g id="text_6">
      <!-- 100 -->
      <defs>
       <path d="M 12.40625 8.296875 
L 28.515625 8.296875 
L 28.515625 63.921875 
L 10.984375 60.40625 
L 10.984375 69.390625 
L 28.421875 72.90625 
L 38.28125 72.90625 
L 38.28125 8.296875 
L 54.390625 8.296875 
L 54.390625 0 
L 12.40625 0 
z
" id="DejaVuSans-49"/>
      </defs>
      <g transform="translate(392.222862 322.182437)scale(0.1 -0.1)">
       <use xlink:href="#DejaVuSans-49"/>
       <use x="63.623047" xlink:href="#DejaVuSans-48"/>
       <use x="127.246094" xlink:href="#DejaVuSans-48"/>
      </g>
     </g>
    </g>
    <g id="text_7">
     <!-- Depth -->
     <defs>
      <path d="M 19.671875 64.796875 
L 19.671875 8.109375 
L 31.59375 8.109375 
Q 46.6875 8.109375 53.6875 14.9375 
Q 60.6875 21.78125 60.6875 36.53125 
Q 60.6875 51.171875 53.6875 57.984375 
Q 46.6875 64.796875 31.59375 64.796875 
z
M 9.8125 72.90625 
L 30.078125 72.90625 
Q 51.265625 72.90625 61.171875 64.09375 
Q 71.09375 55.28125 71.09375 36.53125 
Q 71.09375 17.671875 61.125 8.828125 
Q 51.171875 0 30.078125 0 
L 9.8125 0 
z
" id="DejaVuSans-68"/>
      <path d="M 56.203125 29.59375 
L 56.203125 25.203125 
L 14.890625 25.203125 
Q 15.484375 15.921875 20.484375 11.0625 
Q 25.484375 6.203125 34.421875 6.203125 
Q 39.59375 6.203125 44.453125 7.46875 
Q 49.3125 8.734375 54.109375 11.28125 
L 54.109375 2.78125 
Q 49.265625 0.734375 44.1875 -0.34375 
Q 39.109375 -1.421875 33.890625 -1.421875 
Q 20.796875 -1.421875 13.15625 6.1875 
Q 5.515625 13.8125 5.515625 26.8125 
Q 5.515625 40.234375 12.765625 48.109375 
Q 20.015625 56 32.328125 56 
Q 43.359375 56 49.78125 48.890625 
Q 56.203125 41.796875 56.203125 29.59375 
z
M 47.21875 32.234375 
Q 47.125 39.59375 43.09375 43.984375 
Q 39.0625 48.390625 32.421875 48.390625 
Q 24.90625 48.390625 20.390625 44.140625 
Q 15.875 39.890625 15.1875 32.171875 
z
" id="DejaVuSans-101"/>
      <path d="M 18.109375 8.203125 
L 18.109375 -20.796875 
L 9.078125 -20.796875 
L 9.078125 54.6875 
L 18.109375 54.6875 
L 18.109375 46.390625 
Q 20.953125 51.265625 25.265625 53.625 
Q 29.59375 56 35.59375 56 
Q 45.5625 56 51.78125 48.09375 
Q 58.015625 40.1875 58.015625 27.296875 
Q 58.015625 14.40625 51.78125 6.484375 
Q 45.5625 -1.421875 35.59375 -1.421875 
Q 29.59375 -1.421875 25.265625 0.953125 
Q 20.953125 3.328125 18.109375 8.203125 
z
M 48.6875 27.296875 
Q 48.6875 37.203125 44.609375 42.84375 
Q 40.53125 48.484375 33.40625 48.484375 
Q 26.265625 48.484375 22.1875 42.84375 
Q 18.109375 37.203125 18.109375 27.296875 
Q 18.109375 17.390625 22.1875 11.75 
Q 26.265625 6.109375 33.40625 6.109375 
Q 40.53125 6.109375 44.609375 11.75 
Q 48.6875 17.390625 48.6875 27.296875 
z
" id="DejaVuSans-112"/>
      <path d="M 18.3125 70.21875 
L 18.3125 54.6875 
L 36.8125 54.6875 
L 36.8125 47.703125 
L 18.3125 47.703125 
L 18.3125 18.015625 
Q 18.3125 11.328125 20.140625 9.421875 
Q 21.96875 7.515625 27.59375 7.515625 
L 36.8125 7.515625 
L 36.8125 0 
L 27.59375 0 
Q 17.1875 0 13.234375 3.875 
Q 9.28125 7.765625 9.28125 18.015625 
L 9.28125 47.703125 
L 2.6875 47.703125 
L 2.6875 54.6875 
L 9.28125 54.6875 
L 9.28125 70.21875 
z
" id="DejaVuSans-116"/>
      <path d="M 54.890625 33.015625 
L 54.890625 0 
L 45.90625 0 
L 45.90625 32.71875 
Q 45.90625 40.484375 42.875 44.328125 
Q 39.84375 48.1875 33.796875 48.1875 
Q 26.515625 48.1875 22.3125 43.546875 
Q 18.109375 38.921875 18.109375 30.90625 
L 18.109375 0 
L 9.078125 0 
L 9.078125 75.984375 
L 18.109375 75.984375 
L 18.109375 46.1875 
Q 21.34375 51.125 25.703125 53.5625 
Q 30.078125 56 35.796875 56 
Q 45.21875 56 50.046875 50.171875 
Q 54.890625 44.34375 54.890625 33.015625 
z
" id="DejaVuSans-104"/>
     </defs>
     <g transform="translate(220.930312 335.860562)scale(0.1 -0.1)">
      <use xlink:href="#DejaVuSans-68"/>
      <use x="77.001953" xlink:href="#DejaVuSans-101"/>
      <use x="138.525391" xlink:href="#DejaVuSans-112"/>
      <use x="202.001953" xlink:href="#DejaVuSans-116"/>
      <use x="241.210938" xlink:href="#DejaVuSans-104"/>
     </g>
    </g>
   </g>
   <g id="matplotlib.axis_2">
    <g id="ytick_1">
     <g id="line2d_7">
      <defs>
       <path d="M 0 0 
L -3.5 0 
" id="mcfc9578e5b" style="stroke:#000000;stroke-width:0.8;"/>
      </defs>
      <g>
       <use style="stroke:#000000;stroke-width:0.8;" x="57.6" xlink:href="#mcfc9578e5b" y="296.202559"/>
      </g>
     </g>
     <g id="text_8">
      <!-- 0.0 -->
      <defs>
       <path d="M 10.6875 12.40625 
L 21 12.40625 
L 21 0 
L 10.6875 0 
z
" id="DejaVuSans-46"/>
      </defs>
      <g transform="translate(34.696875 300.001777)scale(0.1 -0.1)">
       <use xlink:href="#DejaVuSans-48"/>
       <use x="63.623047" xlink:href="#DejaVuSans-46"/>
       <use x="95.410156" xlink:href="#DejaVuSans-48"/>
      </g>
     </g>
    </g>
    <g id="ytick_2">
     <g id="line2d_8">
      <g>
       <use style="stroke:#000000;stroke-width:0.8;" x="57.6" xlink:href="#mcfc9578e5b" y="247.675661"/>
      </g>
     </g>
     <g id="text_9">
      <!-- 0.2 -->
      <g transform="translate(34.696875 251.47488)scale(0.1 -0.1)">
       <use xlink:href="#DejaVuSans-48"/>
       <use x="63.623047" xlink:href="#DejaVuSans-46"/>
       <use x="95.410156" xlink:href="#DejaVuSans-50"/>
      </g>
     </g>
    </g>
    <g id="ytick_3">
     <g id="line2d_9">
      <g>
       <use style="stroke:#000000;stroke-width:0.8;" x="57.6" xlink:href="#mcfc9578e5b" y="199.148764"/>
      </g>
     </g>
     <g id="text_10">
      <!-- 0.4 -->
      <g transform="translate(34.696875 202.947983)scale(0.1 -0.1)">
       <use xlink:href="#DejaVuSans-48"/>
       <use x="63.623047" xlink:href="#DejaVuSans-46"/>
       <use x="95.410156" xlink:href="#DejaVuSans-52"/>
      </g>
     </g>
    </g>
    <g id="ytick_4">
     <g id="line2d_10">
      <g>
       <use style="stroke:#000000;stroke-width:0.8;" x="57.6" xlink:href="#mcfc9578e5b" y="150.621867"/>
      </g>
     </g>
     <g id="text_11">
      <!-- 0.6 -->
      <g transform="translate(34.696875 154.421086)scale(0.1 -0.1)">
       <use xlink:href="#DejaVuSans-48"/>
       <use x="63.623047" xlink:href="#DejaVuSans-46"/>
       <use x="95.410156" xlink:href="#DejaVuSans-54"/>
      </g>
     </g>
    </g>
    <g id="ytick_5">
     <g id="line2d_11">
      <g>
       <use style="stroke:#000000;stroke-width:0.8;" x="57.6" xlink:href="#mcfc9578e5b" y="102.09497"/>
      </g>
     </g>
     <g id="text_12">
      <!-- 0.8 -->
      <g transform="translate(34.696875 105.894189)scale(0.1 -0.1)">
       <use xlink:href="#DejaVuSans-48"/>
       <use x="63.623047" xlink:href="#DejaVuSans-46"/>
       <use x="95.410156" xlink:href="#DejaVuSans-56"/>
      </g>
     </g>
    </g>
    <g id="ytick_6">
     <g id="line2d_12">
      <g>
       <use style="stroke:#000000;stroke-width:0.8;" x="57.6" xlink:href="#mcfc9578e5b" y="53.568073"/>
      </g>
     </g>
     <g id="text_13">
      <!-- 1.0 -->
      <g transform="translate(34.696875 57.367292)scale(0.1 -0.1)">
       <use xlink:href="#DejaVuSans-49"/>
       <use x="63.623047" xlink:href="#DejaVuSans-46"/>
       <use x="95.410156" xlink:href="#DejaVuSans-48"/>
      </g>
     </g>
    </g>
    <g id="text_14">
     <!-- % of A with more depth -->
     <defs>
      <path d="M 72.703125 32.078125 
Q 68.453125 32.078125 66.03125 28.46875 
Q 63.625 24.859375 63.625 18.40625 
Q 63.625 12.0625 66.03125 8.421875 
Q 68.453125 4.78125 72.703125 4.78125 
Q 76.859375 4.78125 79.265625 8.421875 
Q 81.6875 12.0625 81.6875 18.40625 
Q 81.6875 24.8125 79.265625 28.4375 
Q 76.859375 32.078125 72.703125 32.078125 
z
M 72.703125 38.28125 
Q 80.421875 38.28125 84.953125 32.90625 
Q 89.5 27.546875 89.5 18.40625 
Q 89.5 9.28125 84.9375 3.921875 
Q 80.375 -1.421875 72.703125 -1.421875 
Q 64.890625 -1.421875 60.34375 3.921875 
Q 55.8125 9.28125 55.8125 18.40625 
Q 55.8125 27.59375 60.375 32.9375 
Q 64.9375 38.28125 72.703125 38.28125 
z
M 22.3125 68.015625 
Q 18.109375 68.015625 15.6875 64.375 
Q 13.28125 60.75 13.28125 54.390625 
Q 13.28125 47.953125 15.671875 44.328125 
Q 18.0625 40.71875 22.3125 40.71875 
Q 26.5625 40.71875 28.96875 44.328125 
Q 31.390625 47.953125 31.390625 54.390625 
Q 31.390625 60.6875 28.953125 64.34375 
Q 26.515625 68.015625 22.3125 68.015625 
z
M 66.40625 74.21875 
L 74.21875 74.21875 
L 28.609375 -1.421875 
L 20.796875 -1.421875 
z
M 22.3125 74.21875 
Q 30.03125 74.21875 34.609375 68.875 
Q 39.203125 63.53125 39.203125 54.390625 
Q 39.203125 45.171875 34.640625 39.84375 
Q 30.078125 34.515625 22.3125 34.515625 
Q 14.546875 34.515625 10.03125 39.859375 
Q 5.515625 45.21875 5.515625 54.390625 
Q 5.515625 63.484375 10.046875 68.84375 
Q 14.59375 74.21875 22.3125 74.21875 
z
" id="DejaVuSans-37"/>
      <path id="DejaVuSans-32"/>
      <path d="M 30.609375 48.390625 
Q 23.390625 48.390625 19.1875 42.75 
Q 14.984375 37.109375 14.984375 27.296875 
Q 14.984375 17.484375 19.15625 11.84375 
Q 23.34375 6.203125 30.609375 6.203125 
Q 37.796875 6.203125 41.984375 11.859375 
Q 46.1875 17.53125 46.1875 27.296875 
Q 46.1875 37.015625 41.984375 42.703125 
Q 37.796875 48.390625 30.609375 48.390625 
z
M 30.609375 56 
Q 42.328125 56 49.015625 48.375 
Q 55.71875 40.765625 55.71875 27.296875 
Q 55.71875 13.875 49.015625 6.21875 
Q 42.328125 -1.421875 30.609375 -1.421875 
Q 18.84375 -1.421875 12.171875 6.21875 
Q 5.515625 13.875 5.515625 27.296875 
Q 5.515625 40.765625 12.171875 48.375 
Q 18.84375 56 30.609375 56 
z
" id="DejaVuSans-111"/>
      <path d="M 37.109375 75.984375 
L 37.109375 68.5 
L 28.515625 68.5 
Q 23.6875 68.5 21.796875 66.546875 
Q 19.921875 64.59375 19.921875 59.515625 
L 19.921875 54.6875 
L 34.71875 54.6875 
L 34.71875 47.703125 
L 19.921875 47.703125 
L 19.921875 0 
L 10.890625 0 
L 10.890625 47.703125 
L 2.296875 47.703125 
L 2.296875 54.6875 
L 10.890625 54.6875 
L 10.890625 58.5 
Q 10.890625 67.625 15.140625 71.796875 
Q 19.390625 75.984375 28.609375 75.984375 
z
" id="DejaVuSans-102"/>
      <path d="M 34.1875 63.1875 
L 20.796875 26.90625 
L 47.609375 26.90625 
z
M 28.609375 72.90625 
L 39.796875 72.90625 
L 67.578125 0 
L 57.328125 0 
L 50.6875 18.703125 
L 17.828125 18.703125 
L 11.1875 0 
L 0.78125 0 
z
" id="DejaVuSans-65"/>
      <path d="M 4.203125 54.6875 
L 13.1875 54.6875 
L 24.421875 12.015625 
L 35.59375 54.6875 
L 46.1875 54.6875 
L 57.421875 12.015625 
L 68.609375 54.6875 
L 77.59375 54.6875 
L 63.28125 0 
L 52.6875 0 
L 40.921875 44.828125 
L 29.109375 0 
L 18.5 0 
z
" id="DejaVuSans-119"/>
      <path d="M 9.421875 54.6875 
L 18.40625 54.6875 
L 18.40625 0 
L 9.421875 0 
z
M 9.421875 75.984375 
L 18.40625 75.984375 
L 18.40625 64.59375 
L 9.421875 64.59375 
z
" id="DejaVuSans-105"/>
      <path d="M 52 44.1875 
Q 55.375 50.25 60.0625 53.125 
Q 64.75 56 71.09375 56 
Q 79.640625 56 84.28125 50.015625 
Q 88.921875 44.046875 88.921875 33.015625 
L 88.921875 0 
L 79.890625 0 
L 79.890625 32.71875 
Q 79.890625 40.578125 77.09375 44.375 
Q 74.3125 48.1875 68.609375 48.1875 
Q 61.625 48.1875 57.5625 43.546875 
Q 53.515625 38.921875 53.515625 30.90625 
L 53.515625 0 
L 44.484375 0 
L 44.484375 32.71875 
Q 44.484375 40.625 41.703125 44.40625 
Q 38.921875 48.1875 33.109375 48.1875 
Q 26.21875 48.1875 22.15625 43.53125 
Q 18.109375 38.875 18.109375 30.90625 
L 18.109375 0 
L 9.078125 0 
L 9.078125 54.6875 
L 18.109375 54.6875 
L 18.109375 46.1875 
Q 21.1875 51.21875 25.484375 53.609375 
Q 29.78125 56 35.6875 56 
Q 41.65625 56 45.828125 52.96875 
Q 50 49.953125 52 44.1875 
z
" id="DejaVuSans-109"/>
      <path d="M 41.109375 46.296875 
Q 39.59375 47.171875 37.8125 47.578125 
Q 36.03125 48 33.890625 48 
Q 26.265625 48 22.1875 43.046875 
Q 18.109375 38.09375 18.109375 28.8125 
L 18.109375 0 
L 9.078125 0 
L 9.078125 54.6875 
L 18.109375 54.6875 
L 18.109375 46.1875 
Q 20.953125 51.171875 25.484375 53.578125 
Q 30.03125 56 36.53125 56 
Q 37.453125 56 38.578125 55.875 
Q 39.703125 55.765625 41.0625 55.515625 
z
" id="DejaVuSans-114"/>
      <path d="M 45.40625 46.390625 
L 45.40625 75.984375 
L 54.390625 75.984375 
L 54.390625 0 
L 45.40625 0 
L 45.40625 8.203125 
Q 42.578125 3.328125 38.25 0.953125 
Q 33.9375 -1.421875 27.875 -1.421875 
Q 17.96875 -1.421875 11.734375 6.484375 
Q 5.515625 14.40625 5.515625 27.296875 
Q 5.515625 40.1875 11.734375 48.09375 
Q 17.96875 56 27.875 56 
Q 33.9375 56 38.25 53.625 
Q 42.578125 51.265625 45.40625 46.390625 
z
M 14.796875 27.296875 
Q 14.796875 17.390625 18.875 11.75 
Q 22.953125 6.109375 30.078125 6.109375 
Q 37.203125 6.109375 41.296875 11.75 
Q 45.40625 17.390625 45.40625 27.296875 
Q 45.40625 37.203125 41.296875 42.84375 
Q 37.203125 48.484375 30.078125 48.484375 
Q 22.953125 48.484375 18.875 42.84375 
Q 14.796875 37.203125 14.796875 27.296875 
z
" id="DejaVuSans-100"/>
     </defs>
     <g transform="translate(28.617187 233.685031)rotate(-90)scale(0.1 -0.1)">
      <use xlink:href="#DejaVuSans-37"/>
      <use x="95.019531" xlink:href="#DejaVuSans-32"/>
      <use x="126.806641" xlink:href="#DejaVuSans-111"/>
      <use x="187.988281" xlink:href="#DejaVuSans-102"/>
      <use x="223.193359" xlink:href="#DejaVuSans-32"/>
      <use x="254.980469" xlink:href="#DejaVuSans-65"/>
      <use x="323.388672" xlink:href="#DejaVuSans-32"/>
      <use x="355.175781" xlink:href="#DejaVuSans-119"/>
      <use x="436.962891" xlink:href="#DejaVuSans-105"/>
      <use x="464.746094" xlink:href="#DejaVuSans-116"/>
      <use x="503.955078" xlink:href="#DejaVuSans-104"/>
      <use x="567.333984" xlink:href="#DejaVuSans-32"/>
      <use x="599.121094" xlink:href="#DejaVuSans-109"/>
      <use x="696.533203" xlink:href="#DejaVuSans-111"/>
      <use x="757.714844" xlink:href="#DejaVuSans-114"/>
      <use x="798.796875" xlink:href="#DejaVuSans-101"/>
      <use x="860.320312" xlink:href="#DejaVuSans-32"/>
      <use x="892.107422" xlink:href="#DejaVuSans-100"/>
      <use x="955.583984" xlink:href="#DejaVuSans-101"/>
      <use x="1017.107422" xlink:href="#DejaVuSans-112"/>
      <use x="1080.583984" xlink:href="#DejaVuSans-116"/>
      <use x="1119.792969" xlink:href="#DejaVuSans-104"/>
     </g>
    </g>
   </g>
   <g id="line2d_13">
    <path clip-path="url(#p28efe295c5)" d="M 73.832727 53.576929 
L 77.112066 53.822985 
L 80.391405 53.99591 
L 83.670744 54.135134 
L 86.950083 54.247595 
L 90.229421 54.364448 
L 93.50876 54.494573 
L 96.788099 54.651023 
L 100.067438 54.837245 
L 103.346777 55.055762 
L 106.626116 55.296043 
L 109.905455 55.577183 
L 113.184793 55.8937 
L 116.464132 56.252193 
L 119.743471 56.651423 
L 123.02281 57.091853 
L 126.302149 57.577656 
L 129.581488 58.111937 
L 132.860826 58.698458 
L 136.140165 59.33598 
L 139.419504 60.016472 
L 142.698843 60.748549 
L 145.978182 61.537839 
L 149.257521 62.372283 
L 152.53686 63.263504 
L 155.816198 64.209221 
L 159.095537 65.209311 
L 162.374876 66.258584 
L 165.654215 67.36655 
L 168.933554 68.51642 
L 172.212893 69.733474 
L 175.492231 70.998061 
L 178.77157 72.310349 
L 182.050909 73.678056 
L 185.330248 75.095211 
L 188.609587 76.55291 
L 191.888926 78.05984 
L 195.168264 79.604718 
L 198.447603 81.190141 
L 201.726942 82.808949 
L 205.006281 84.479342 
L 208.28562 86.17509 
L 211.564959 87.909903 
L 214.844298 89.677325 
L 218.123636 91.476824 
L 221.402975 93.309952 
L 224.682314 95.175762 
L 227.961653 97.049531 
L 231.240992 98.953969 
L 234.520331 100.888761 
L 237.799669 102.83617 
L 241.079008 104.804882 
L 244.358347 106.795043 
L 247.637686 108.79076 
L 250.917025 110.801278 
L 254.196364 112.812038 
L 257.475702 114.857131 
L 260.755041 116.903923 
L 264.03438 118.953214 
L 267.313719 121.016917 
L 270.593058 123.071862 
L 273.872397 125.126248 
L 277.151736 127.18619 
L 280.431074 129.24128 
L 283.710413 131.29751 
L 286.989752 133.348281 
L 290.269091 135.400896 
L 293.54843 137.439099 
L 296.827769 139.478563 
L 300.107107 141.505653 
L 303.386446 143.521072 
L 306.665785 145.531638 
L 309.945124 147.533494 
L 313.224463 149.516934 
L 316.503802 151.495351 
L 319.78314 153.45858 
L 323.062479 155.4122 
L 326.341818 157.356406 
L 329.621157 159.282875 
L 332.900496 161.189958 
L 336.179835 163.095245 
L 339.459174 164.980782 
L 342.738512 166.858166 
L 346.017851 168.710219 
L 349.29719 170.532162 
L 352.576529 172.337338 
L 355.855868 174.125069 
L 359.135207 175.900256 
L 362.414545 177.660035 
L 365.693884 179.391354 
L 368.973223 181.097147 
L 372.252562 182.778628 
L 375.531901 184.451544 
L 378.81124 186.09845 
L 382.090579 187.728469 
L 385.369917 189.340095 
L 388.649256 190.920932 
L 391.928595 192.483449 
L 395.207934 194.021995 
L 398.487273 195.542658 
" style="fill:none;stroke:#1f77b4;stroke-linecap:square;stroke-width:1.5;"/>
   </g>
   <g id="line2d_14">
    <path clip-path="url(#p28efe295c5)" d="M 73.832727 53.568073 
L 77.112066 53.814177 
L 80.391405 53.998385 
L 83.670744 54.162042 
L 86.950083 54.310534 
L 90.229421 54.477079 
L 93.50876 54.681425 
L 96.788099 54.935876 
L 100.067438 55.249918 
L 103.346777 55.62491 
L 106.626116 56.077714 
L 109.905455 56.617115 
L 113.184793 57.25898 
L 116.464132 58.009546 
L 119.743471 58.884437 
L 123.02281 59.872833 
L 126.302149 60.988393 
L 129.581488 62.229396 
L 132.860826 63.611224 
L 136.140165 65.145232 
L 139.419504 66.824578 
L 142.698843 68.661127 
L 145.978182 70.644712 
L 149.257521 72.769098 
L 152.53686 75.036663 
L 155.816198 77.431951 
L 159.095537 79.969592 
L 162.374876 82.652474 
L 165.654215 85.465191 
L 168.933554 88.393595 
L 172.212893 91.445864 
L 175.492231 94.60727 
L 178.77157 97.875265 
L 182.050909 101.237136 
L 185.330248 104.683734 
L 188.609587 108.217026 
L 191.888926 111.817625 
L 195.168264 115.480095 
L 198.447603 119.21094 
L 201.726942 122.985654 
L 205.006281 126.800935 
L 208.28562 130.658338 
L 211.564959 134.532362 
L 214.844298 138.431813 
L 218.123636 142.347764 
L 221.402975 146.266966 
L 224.682314 150.179933 
L 227.961653 154.084844 
L 231.240992 157.980486 
L 234.520331 161.852059 
L 237.799669 165.69255 
L 241.079008 169.503683 
L 244.358347 173.287276 
L 247.637686 177.040104 
L 250.917025 180.726644 
L 254.196364 184.351894 
L 257.475702 187.925488 
L 260.755041 191.429566 
L 264.03438 194.868813 
L 267.313719 198.24381 
L 270.593058 201.538374 
L 273.872397 204.77029 
L 277.151736 207.932011 
L 280.431074 211.02349 
L 283.710413 214.031114 
L 286.989752 216.960149 
L 290.269091 219.801084 
L 293.54843 222.569204 
L 296.827769 225.253857 
L 300.107107 227.860285 
L 303.386446 230.386159 
L 306.665785 232.842712 
L 309.945124 235.220044 
L 313.224463 237.5258 
L 316.503802 239.756193 
L 319.78314 241.902853 
L 323.062479 243.971628 
L 326.341818 245.976152 
L 329.621157 247.914268 
L 332.900496 249.788474 
L 336.179835 251.599692 
L 339.459174 253.34091 
L 342.738512 255.018727 
L 346.017851 256.642 
L 349.29719 258.206289 
L 352.576529 259.715524 
L 355.855868 261.173612 
L 359.135207 262.577471 
L 362.414545 263.924917 
L 365.693884 265.22488 
L 368.973223 266.476922 
L 372.252562 267.678788 
L 375.531901 268.834383 
L 378.81124 269.948828 
L 382.090579 271.018142 
L 385.369917 272.049776 
L 388.649256 273.040476 
L 391.928595 273.997815 
L 395.207934 274.922398 
L 398.487273 275.811629 
" style="fill:none;stroke:#ff7f0e;stroke-linecap:square;stroke-width:1.5;"/>
   </g>
   <g id="line2d_15">
    <path clip-path="url(#p28efe295c5)" d="M 73.832727 53.571688 
L 77.112066 70.988889 
L 80.391405 76.060848 
L 83.670744 90.941378 
L 86.950083 97.021531 
L 90.229421 109.125765 
L 93.50876 115.207763 
L 96.788099 125.045742 
L 100.067438 130.863389 
L 103.346777 138.970729 
L 106.626116 144.320213 
L 109.905455 151.130114 
L 113.184793 156.068478 
L 116.464132 161.91888 
L 119.743471 166.458766 
L 123.02281 171.598686 
L 126.302149 175.785393 
L 129.581488 180.32176 
L 132.860826 184.191828 
L 136.140165 188.248337 
L 139.419504 191.791601 
L 142.698843 195.444075 
L 145.978182 198.728109 
L 149.257521 202.040773 
L 152.53686 205.061087 
L 155.816198 208.076355 
L 159.095537 210.865123 
L 162.374876 213.633679 
L 165.654215 216.213563 
L 168.933554 218.770445 
L 172.212893 221.166267 
L 175.492231 223.50456 
L 178.77157 225.721511 
L 182.050909 227.891731 
L 185.330248 229.965455 
L 188.609587 231.985072 
L 191.888926 233.916394 
L 195.168264 235.784072 
L 198.447603 237.585585 
L 201.726942 239.319014 
L 205.006281 240.998069 
L 208.28562 242.626899 
L 211.564959 244.191697 
L 214.844298 245.713962 
L 218.123636 247.187626 
L 221.402975 248.621208 
L 224.682314 249.991316 
L 227.961653 251.325927 
L 231.240992 252.606261 
L 234.520331 253.85396 
L 237.799669 255.048741 
L 241.079008 256.219234 
L 244.358347 257.343748 
L 247.637686 258.439631 
L 250.917025 259.497566 
L 254.196364 260.513064 
L 257.475702 261.498281 
L 260.755041 262.454067 
L 264.03438 263.378941 
L 267.313719 264.273607 
L 270.593058 265.141365 
L 273.872397 265.985927 
L 277.151736 266.805619 
L 280.431074 267.592507 
L 283.710413 268.35979 
L 286.989752 269.105746 
L 290.269091 269.826006 
L 293.54843 270.52591 
L 296.827769 271.204922 
L 300.107107 271.862632 
L 303.386446 272.494379 
L 306.665785 273.10856 
L 309.945124 273.706993 
L 313.224463 274.287132 
L 316.503802 274.847157 
L 319.78314 275.390076 
L 323.062479 275.914725 
L 326.341818 276.43224 
L 329.621157 276.926074 
L 332.900496 277.404719 
L 336.179835 277.875114 
L 339.459174 278.329641 
L 342.738512 278.773007 
L 346.017851 279.203975 
L 349.29719 279.620627 
L 352.576529 280.024953 
L 355.855868 280.418821 
L 359.135207 280.799636 
L 362.414545 281.171716 
L 365.693884 281.530621 
L 368.973223 281.885256 
L 372.252562 282.227467 
L 375.531901 282.557062 
L 378.81124 282.8803 
L 382.090579 283.194341 
L 385.369917 283.500765 
L 388.649256 283.799884 
L 391.928595 284.085878 
L 395.207934 284.367601 
L 398.487273 284.638647 
" style="fill:none;stroke:#2ca02c;stroke-linecap:square;stroke-width:1.5;"/>
   </g>
   <g id="line2d_16">
    <path clip-path="url(#p28efe295c5)" d="M 73.832727 53.568 
L 77.112066 70.990321 
L 80.391405 76.469735 
L 83.670744 92.974412 
L 86.950083 100.604903 
L 90.229421 113.862281 
L 93.50876 121.789369 
L 96.788099 132.324267 
L 100.067438 139.977444 
L 103.346777 148.568524 
L 106.626116 155.622467 
L 109.905455 162.876437 
L 113.184793 169.280022 
L 116.464132 175.649275 
L 119.743471 181.5121 
L 123.02281 187.18504 
L 126.302149 192.511716 
L 129.581488 197.621938 
L 132.860826 202.448909 
L 136.140165 207.073352 
L 139.419504 211.478891 
L 142.698843 215.668436 
L 145.978182 219.691267 
L 149.257521 223.551339 
L 152.53686 227.238583 
L 155.816198 230.749795 
L 159.095537 234.102761 
L 162.374876 237.335938 
L 165.654215 240.425937 
L 168.933554 243.381322 
L 172.212893 246.202603 
L 175.492231 248.905915 
L 178.77157 251.48068 
L 182.050909 253.937645 
L 185.330248 256.284454 
L 188.609587 258.529284 
L 191.888926 260.648939 
L 195.168264 262.677727 
L 198.447603 264.607011 
L 201.726942 266.456614 
L 205.006281 268.213506 
L 208.28562 269.871355 
L 211.564959 271.452264 
L 214.844298 272.942719 
L 218.123636 274.350096 
L 221.402975 275.69366 
L 224.682314 276.959339 
L 227.961653 278.154265 
L 231.240992 279.283413 
L 234.520331 280.348336 
L 237.799669 281.351557 
L 241.079008 282.300112 
L 244.358347 283.180293 
L 247.637686 284.011874 
L 250.917025 284.795098 
L 254.196364 285.532513 
L 257.475702 286.223196 
L 260.755041 286.874743 
L 264.03438 287.477374 
L 267.313719 288.040189 
L 270.593058 288.573402 
L 273.872397 289.065611 
L 277.151736 289.528121 
L 280.431074 289.9595 
L 283.710413 290.362007 
L 286.989752 290.737629 
L 290.269091 291.090177 
L 293.54843 291.417491 
L 296.827769 291.724035 
L 300.107107 292.010102 
L 303.386446 292.276878 
L 306.665785 292.527835 
L 309.945124 292.759891 
L 313.224463 292.97683 
L 316.503802 293.178751 
L 319.78314 293.366574 
L 323.062479 293.541174 
L 326.341818 293.706092 
L 329.621157 293.856065 
L 332.900496 293.998612 
L 336.179835 294.131576 
L 339.459174 294.257989 
L 342.738512 294.374599 
L 346.017851 294.483202 
L 349.29719 294.583944 
L 352.576529 294.676582 
L 355.855868 294.7641 
L 359.135207 294.845552 
L 362.414545 294.920575 
L 365.693884 294.990308 
L 368.973223 295.054509 
L 372.252562 295.116818 
L 375.531901 295.174225 
L 378.81124 295.226804 
L 382.090579 295.276423 
L 385.369917 295.324586 
L 388.649256 295.36843 
L 391.928595 295.410672 
L 395.207934 295.450683 
L 398.487273 295.488 
" style="fill:none;stroke:#d62728;stroke-linecap:square;stroke-width:1.5;"/>
   </g>
   <g id="line2d_17">
    <path clip-path="url(#p28efe295c5)" d="M 73.832727 53.575546 
L 77.112066 53.802045 
L 80.391405 54.06409 
L 83.670744 54.504618 
L 86.950083 55.110646 
L 90.229421 55.958581 
L 93.50876 57.028162 
L 96.788099 58.363137 
L 100.067438 59.938199 
L 103.346777 61.772685 
L 106.626116 63.848617 
L 109.905455 66.159759 
L 113.184793 68.727948 
L 116.464132 71.525257 
L 119.743471 74.54642 
L 123.02281 77.769844 
L 126.302149 81.155468 
L 129.581488 84.707128 
L 132.860826 88.409099 
L 136.140165 92.226419 
L 139.419504 96.168137 
L 142.698843 100.207346 
L 145.978182 104.341353 
L 149.257521 108.559359 
L 152.53686 112.802114 
L 155.816198 117.084637 
L 159.095537 121.386207 
L 162.374876 125.700103 
L 165.654215 130.033457 
L 168.933554 134.352982 
L 172.212893 138.654261 
L 175.492231 142.911792 
L 178.77157 147.152121 
L 182.050909 151.348048 
L 185.330248 155.482782 
L 188.609587 159.580563 
L 191.888926 163.603322 
L 195.168264 167.573283 
L 198.447603 171.459026 
L 201.726942 175.279063 
L 205.006281 179.024684 
L 208.28562 182.709429 
L 211.564959 186.29132 
L 214.844298 189.790837 
L 218.123636 193.212566 
L 221.402975 196.560606 
L 224.682314 199.799777 
L 227.961653 202.952181 
L 231.240992 206.022065 
L 234.520331 209.009648 
L 237.799669 211.92694 
L 241.079008 214.74924 
L 244.358347 217.47798 
L 247.637686 220.126165 
L 250.917025 222.693602 
L 254.196364 225.162699 
L 257.475702 227.559977 
L 260.755041 229.890626 
L 264.03438 232.136281 
L 267.313719 234.313489 
L 270.593058 236.420163 
L 273.872397 238.440775 
L 277.151736 240.397403 
L 280.431074 242.290316 
L 283.710413 244.116456 
L 286.989752 245.873081 
L 290.269091 247.565093 
L 293.54843 249.204671 
L 296.827769 250.777501 
L 300.107107 252.290351 
L 303.386446 253.758605 
L 306.665785 255.174304 
L 309.945124 256.528909 
L 313.224463 257.835447 
L 316.503802 259.093992 
L 319.78314 260.300249 
L 323.062479 261.46339 
L 326.341818 262.579024 
L 329.621157 263.643073 
L 332.900496 264.672426 
L 336.179835 265.661379 
L 339.459174 266.61947 
L 342.738512 267.535076 
L 346.017851 268.420134 
L 349.29719 269.27821 
L 352.576529 270.098194 
L 355.855868 270.884572 
L 359.135207 271.639117 
L 362.414545 272.367311 
L 365.693884 273.069083 
L 368.973223 273.743437 
L 372.252562 274.391708 
L 375.531901 275.015206 
L 378.81124 275.615071 
L 382.090579 276.188853 
L 385.369917 276.738299 
L 388.649256 277.266635 
L 391.928595 277.779249 
L 395.207934 278.274782 
L 398.487273 278.746706 
" style="fill:none;stroke:#9467bd;stroke-linecap:square;stroke-width:1.5;"/>
   </g>
   <g id="line2d_18">
    <path clip-path="url(#p28efe295c5)" d="M 73.832727 53.568097 
L 77.112066 53.794863 
L 80.391405 54.096045 
L 83.670744 54.623751 
L 86.950083 55.410882 
L 90.229421 56.582297 
L 93.50876 58.121449 
L 96.788099 60.108067 
L 100.067438 62.542152 
L 103.346777 65.444012 
L 106.626116 68.83478 
L 109.905455 72.683837 
L 113.184793 76.992734 
L 116.464132 81.697004 
L 119.743471 86.802495 
L 123.02281 92.236998 
L 126.302149 97.989279 
L 129.581488 104.034129 
L 132.860826 110.33195 
L 136.140165 116.823927 
L 139.419504 123.44695 
L 142.698843 130.183212 
L 145.978182 136.977899 
L 149.257521 143.791585 
L 152.53686 150.60646 
L 155.816198 157.390253 
L 159.095537 164.125908 
L 162.374876 170.753687 
L 165.654215 177.287033 
L 168.933554 183.676812 
L 172.212893 189.902886 
L 175.492231 195.95567 
L 178.77157 201.815851 
L 182.050909 207.495318 
L 185.330248 212.923415 
L 188.609587 218.149083 
L 191.888926 223.154875 
L 195.168264 227.912209 
L 198.447603 232.454327 
L 201.726942 236.743498 
L 205.006281 240.808717 
L 208.28562 244.617836 
L 211.564959 248.221298 
L 214.844298 251.626843 
L 218.123636 254.807514 
L 221.402975 257.773478 
L 224.682314 260.544 
L 227.961653 263.129852 
L 231.240992 265.532613 
L 234.520331 267.774629 
L 237.799669 269.860363 
L 241.079008 271.781179 
L 244.358347 273.543288 
L 247.637686 275.174617 
L 250.917025 276.683755 
L 254.196364 278.08213 
L 257.475702 279.369136 
L 260.755041 280.54834 
L 264.03438 281.642354 
L 267.313719 282.654189 
L 270.593058 283.588331 
L 273.872397 284.444467 
L 277.151736 285.235868 
L 280.431074 285.961976 
L 283.710413 286.627911 
L 286.989752 287.238161 
L 290.269091 287.809031 
L 293.54843 288.334456 
L 296.827769 288.829527 
L 300.107107 289.284467 
L 303.386446 289.706991 
L 306.665785 290.092246 
L 309.945124 290.451005 
L 313.224463 290.782565 
L 316.503802 291.087727 
L 319.78314 291.373962 
L 323.062479 291.637633 
L 326.341818 291.882985 
L 329.621157 292.11293 
L 332.900496 292.330379 
L 336.179835 292.532081 
L 339.459174 292.719613 
L 342.738512 292.898678 
L 346.017851 293.067163 
L 349.29719 293.224342 
L 352.576529 293.368539 
L 355.855868 293.506428 
L 359.135207 293.632962 
L 362.414545 293.753794 
L 365.693884 293.868924 
L 368.973223 293.976751 
L 372.252562 294.077905 
L 375.531901 294.169791 
L 378.81124 294.258062 
L 382.090579 294.340363 
L 385.369917 294.418273 
L 388.649256 294.491985 
L 391.928595 294.561379 
L 395.207934 294.628079 
L 398.487273 294.690169 
" style="fill:none;stroke:#8c564b;stroke-linecap:square;stroke-width:1.5;"/>
   </g>
   <g id="patch_3">
    <path d="M 57.6 307.584 
L 57.6 41.472 
" style="fill:none;stroke:#000000;stroke-linecap:square;stroke-linejoin:miter;stroke-width:0.8;"/>
   </g>
   <g id="patch_4">
    <path d="M 414.72 307.584 
L 414.72 41.472 
" style="fill:none;stroke:#000000;stroke-linecap:square;stroke-linejoin:miter;stroke-width:0.8;"/>
   </g>
   <g id="patch_5">
    <path d="M 57.6 307.584 
L 414.72 307.584 
" style="fill:none;stroke:#000000;stroke-linecap:square;stroke-linejoin:miter;stroke-width:0.8;"/>
   </g>
   <g id="patch_6">
    <path d="M 57.6 41.472 
L 414.72 41.472 
" style="fill:none;stroke:#000000;stroke-linecap:square;stroke-linejoin:miter;stroke-width:0.8;"/>
   </g>
   <g id="legend_1">
    <g id="patch_7">
     <path d="M 164.799175 122.887337 
L 408.889 122.887337 
Q 410.555 122.887337 410.555 121.221337 
L 410.555 47.303 
Q 410.555 45.637 408.889 45.637 
L 164.799175 45.637 
Q 163.133175 45.637 163.133175 47.303 
L 163.133175 121.221337 
Q 163.133175 122.887337 164.799175 122.887337 
z
" style="fill:#ffffff;opacity:0.8;stroke:#cccccc;stroke-linejoin:miter;"/>
    </g>
    <g id="line2d_19">
     <path d="M 166.465175 52.382998 
L 183.125175 52.382998 
" style="fill:none;stroke:#1f77b4;stroke-linecap:square;stroke-width:1.5;"/>
    </g>
    <g id="line2d_20"/>
    <g id="text_15">
     <!-- dinara_38_S4_60M_sorted_ExomeCoverage -->
     <defs>
      <path d="M 54.890625 33.015625 
L 54.890625 0 
L 45.90625 0 
L 45.90625 32.71875 
Q 45.90625 40.484375 42.875 44.328125 
Q 39.84375 48.1875 33.796875 48.1875 
Q 26.515625 48.1875 22.3125 43.546875 
Q 18.109375 38.921875 18.109375 30.90625 
L 18.109375 0 
L 9.078125 0 
L 9.078125 54.6875 
L 18.109375 54.6875 
L 18.109375 46.1875 
Q 21.34375 51.125 25.703125 53.5625 
Q 30.078125 56 35.796875 56 
Q 45.21875 56 50.046875 50.171875 
Q 54.890625 44.34375 54.890625 33.015625 
z
" id="DejaVuSans-110"/>
      <path d="M 34.28125 27.484375 
Q 23.390625 27.484375 19.1875 25 
Q 14.984375 22.515625 14.984375 16.5 
Q 14.984375 11.71875 18.140625 8.90625 
Q 21.296875 6.109375 26.703125 6.109375 
Q 34.1875 6.109375 38.703125 11.40625 
Q 43.21875 16.703125 43.21875 25.484375 
L 43.21875 27.484375 
z
M 52.203125 31.203125 
L 52.203125 0 
L 43.21875 0 
L 43.21875 8.296875 
Q 40.140625 3.328125 35.546875 0.953125 
Q 30.953125 -1.421875 24.3125 -1.421875 
Q 15.921875 -1.421875 10.953125 3.296875 
Q 6 8.015625 6 15.921875 
Q 6 25.140625 12.171875 29.828125 
Q 18.359375 34.515625 30.609375 34.515625 
L 43.21875 34.515625 
L 43.21875 35.40625 
Q 43.21875 41.609375 39.140625 45 
Q 35.0625 48.390625 27.6875 48.390625 
Q 23 48.390625 18.546875 47.265625 
Q 14.109375 46.140625 10.015625 43.890625 
L 10.015625 52.203125 
Q 14.9375 54.109375 19.578125 55.046875 
Q 24.21875 56 28.609375 56 
Q 40.484375 56 46.34375 49.84375 
Q 52.203125 43.703125 52.203125 31.203125 
z
" id="DejaVuSans-97"/>
      <path d="M 50.984375 -16.609375 
L 50.984375 -23.578125 
L -0.984375 -23.578125 
L -0.984375 -16.609375 
z
" id="DejaVuSans-95"/>
      <path d="M 40.578125 39.3125 
Q 47.65625 37.796875 51.625 33 
Q 55.609375 28.21875 55.609375 21.1875 
Q 55.609375 10.40625 48.1875 4.484375 
Q 40.765625 -1.421875 27.09375 -1.421875 
Q 22.515625 -1.421875 17.65625 -0.515625 
Q 12.796875 0.390625 7.625 2.203125 
L 7.625 11.71875 
Q 11.71875 9.328125 16.59375 8.109375 
Q 21.484375 6.890625 26.8125 6.890625 
Q 36.078125 6.890625 40.9375 10.546875 
Q 45.796875 14.203125 45.796875 21.1875 
Q 45.796875 27.640625 41.28125 31.265625 
Q 36.765625 34.90625 28.71875 34.90625 
L 20.21875 34.90625 
L 20.21875 43.015625 
L 29.109375 43.015625 
Q 36.375 43.015625 40.234375 45.921875 
Q 44.09375 48.828125 44.09375 54.296875 
Q 44.09375 59.90625 40.109375 62.90625 
Q 36.140625 65.921875 28.71875 65.921875 
Q 24.65625 65.921875 20.015625 65.03125 
Q 15.375 64.15625 9.8125 62.3125 
L 9.8125 71.09375 
Q 15.4375 72.65625 20.34375 73.4375 
Q 25.25 74.21875 29.59375 74.21875 
Q 40.828125 74.21875 47.359375 69.109375 
Q 53.90625 64.015625 53.90625 55.328125 
Q 53.90625 49.265625 50.4375 45.09375 
Q 46.96875 40.921875 40.578125 39.3125 
z
" id="DejaVuSans-51"/>
      <path d="M 53.515625 70.515625 
L 53.515625 60.890625 
Q 47.90625 63.578125 42.921875 64.890625 
Q 37.9375 66.21875 33.296875 66.21875 
Q 25.25 66.21875 20.875 63.09375 
Q 16.5 59.96875 16.5 54.203125 
Q 16.5 49.359375 19.40625 46.890625 
Q 22.3125 44.4375 30.421875 42.921875 
L 36.375 41.703125 
Q 47.40625 39.59375 52.65625 34.296875 
Q 57.90625 29 57.90625 20.125 
Q 57.90625 9.515625 50.796875 4.046875 
Q 43.703125 -1.421875 29.984375 -1.421875 
Q 24.8125 -1.421875 18.96875 -0.25 
Q 13.140625 0.921875 6.890625 3.21875 
L 6.890625 13.375 
Q 12.890625 10.015625 18.65625 8.296875 
Q 24.421875 6.59375 29.984375 6.59375 
Q 38.421875 6.59375 43.015625 9.90625 
Q 47.609375 13.234375 47.609375 19.390625 
Q 47.609375 24.75 44.3125 27.78125 
Q 41.015625 30.8125 33.5 32.328125 
L 27.484375 33.5 
Q 16.453125 35.6875 11.515625 40.375 
Q 6.59375 45.0625 6.59375 53.421875 
Q 6.59375 63.09375 13.40625 68.65625 
Q 20.21875 74.21875 32.171875 74.21875 
Q 37.3125 74.21875 42.625 73.28125 
Q 47.953125 72.359375 53.515625 70.515625 
z
" id="DejaVuSans-83"/>
      <path d="M 9.8125 72.90625 
L 24.515625 72.90625 
L 43.109375 23.296875 
L 61.8125 72.90625 
L 76.515625 72.90625 
L 76.515625 0 
L 66.890625 0 
L 66.890625 64.015625 
L 48.09375 14.015625 
L 38.1875 14.015625 
L 19.390625 64.015625 
L 19.390625 0 
L 9.8125 0 
z
" id="DejaVuSans-77"/>
      <path d="M 44.28125 53.078125 
L 44.28125 44.578125 
Q 40.484375 46.53125 36.375 47.5 
Q 32.28125 48.484375 27.875 48.484375 
Q 21.1875 48.484375 17.84375 46.4375 
Q 14.5 44.390625 14.5 40.28125 
Q 14.5 37.15625 16.890625 35.375 
Q 19.28125 33.59375 26.515625 31.984375 
L 29.59375 31.296875 
Q 39.15625 29.25 43.1875 25.515625 
Q 47.21875 21.78125 47.21875 15.09375 
Q 47.21875 7.46875 41.1875 3.015625 
Q 35.15625 -1.421875 24.609375 -1.421875 
Q 20.21875 -1.421875 15.453125 -0.5625 
Q 10.6875 0.296875 5.421875 2 
L 5.421875 11.28125 
Q 10.40625 8.6875 15.234375 7.390625 
Q 20.0625 6.109375 24.8125 6.109375 
Q 31.15625 6.109375 34.5625 8.28125 
Q 37.984375 10.453125 37.984375 14.40625 
Q 37.984375 18.0625 35.515625 20.015625 
Q 33.0625 21.96875 24.703125 23.78125 
L 21.578125 24.515625 
Q 13.234375 26.265625 9.515625 29.90625 
Q 5.8125 33.546875 5.8125 39.890625 
Q 5.8125 47.609375 11.28125 51.796875 
Q 16.75 56 26.8125 56 
Q 31.78125 56 36.171875 55.265625 
Q 40.578125 54.546875 44.28125 53.078125 
z
" id="DejaVuSans-115"/>
      <path d="M 9.8125 72.90625 
L 55.90625 72.90625 
L 55.90625 64.59375 
L 19.671875 64.59375 
L 19.671875 43.015625 
L 54.390625 43.015625 
L 54.390625 34.71875 
L 19.671875 34.71875 
L 19.671875 8.296875 
L 56.78125 8.296875 
L 56.78125 0 
L 9.8125 0 
z
" id="DejaVuSans-69"/>
      <path d="M 54.890625 54.6875 
L 35.109375 28.078125 
L 55.90625 0 
L 45.3125 0 
L 29.390625 21.484375 
L 13.484375 0 
L 2.875 0 
L 24.125 28.609375 
L 4.6875 54.6875 
L 15.28125 54.6875 
L 29.78125 35.203125 
L 44.28125 54.6875 
z
" id="DejaVuSans-120"/>
      <path d="M 64.40625 67.28125 
L 64.40625 56.890625 
Q 59.421875 61.53125 53.78125 63.8125 
Q 48.140625 66.109375 41.796875 66.109375 
Q 29.296875 66.109375 22.65625 58.46875 
Q 16.015625 50.828125 16.015625 36.375 
Q 16.015625 21.96875 22.65625 14.328125 
Q 29.296875 6.6875 41.796875 6.6875 
Q 48.140625 6.6875 53.78125 8.984375 
Q 59.421875 11.28125 64.40625 15.921875 
L 64.40625 5.609375 
Q 59.234375 2.09375 53.4375 0.328125 
Q 47.65625 -1.421875 41.21875 -1.421875 
Q 24.65625 -1.421875 15.125 8.703125 
Q 5.609375 18.84375 5.609375 36.375 
Q 5.609375 53.953125 15.125 64.078125 
Q 24.65625 74.21875 41.21875 74.21875 
Q 47.75 74.21875 53.53125 72.484375 
Q 59.328125 70.75 64.40625 67.28125 
z
" id="DejaVuSans-67"/>
      <path d="M 2.984375 54.6875 
L 12.5 54.6875 
L 29.59375 8.796875 
L 46.6875 54.6875 
L 56.203125 54.6875 
L 35.6875 0 
L 23.484375 0 
z
" id="DejaVuSans-118"/>
      <path d="M 45.40625 27.984375 
Q 45.40625 37.75 41.375 43.109375 
Q 37.359375 48.484375 30.078125 48.484375 
Q 22.859375 48.484375 18.828125 43.109375 
Q 14.796875 37.75 14.796875 27.984375 
Q 14.796875 18.265625 18.828125 12.890625 
Q 22.859375 7.515625 30.078125 7.515625 
Q 37.359375 7.515625 41.375 12.890625 
Q 45.40625 18.265625 45.40625 27.984375 
z
M 54.390625 6.78125 
Q 54.390625 -7.171875 48.1875 -13.984375 
Q 42 -20.796875 29.203125 -20.796875 
Q 24.46875 -20.796875 20.265625 -20.09375 
Q 16.0625 -19.390625 12.109375 -17.921875 
L 12.109375 -9.1875 
Q 16.0625 -11.328125 19.921875 -12.34375 
Q 23.78125 -13.375 27.78125 -13.375 
Q 36.625 -13.375 41.015625 -8.765625 
Q 45.40625 -4.15625 45.40625 5.171875 
L 45.40625 9.625 
Q 42.625 4.78125 38.28125 2.390625 
Q 33.9375 0 27.875 0 
Q 17.828125 0 11.671875 7.65625 
Q 5.515625 15.328125 5.515625 27.984375 
Q 5.515625 40.671875 11.671875 48.328125 
Q 17.828125 56 27.875 56 
Q 33.9375 56 38.28125 53.609375 
Q 42.625 51.21875 45.40625 46.390625 
L 45.40625 54.6875 
L 54.390625 54.6875 
z
" id="DejaVuSans-103"/>
     </defs>
     <g transform="translate(189.789175 55.298498)scale(0.0833 -0.0833)">
      <use xlink:href="#DejaVuSans-100"/>
      <use x="63.476562" xlink:href="#DejaVuSans-105"/>
      <use x="91.259766" xlink:href="#DejaVuSans-110"/>
      <use x="154.638672" xlink:href="#DejaVuSans-97"/>
      <use x="215.917969" xlink:href="#DejaVuSans-114"/>
      <use x="257.03125" xlink:href="#DejaVuSans-97"/>
      <use x="318.310547" xlink:href="#DejaVuSans-95"/>
      <use x="368.310547" xlink:href="#DejaVuSans-51"/>
      <use x="431.933594" xlink:href="#DejaVuSans-56"/>
      <use x="495.556641" xlink:href="#DejaVuSans-95"/>
      <use x="545.556641" xlink:href="#DejaVuSans-83"/>
      <use x="609.033203" xlink:href="#DejaVuSans-52"/>
      <use x="672.65625" xlink:href="#DejaVuSans-95"/>
      <use x="722.65625" xlink:href="#DejaVuSans-54"/>
      <use x="786.279297" xlink:href="#DejaVuSans-48"/>
      <use x="849.902344" xlink:href="#DejaVuSans-77"/>
      <use x="936.181641" xlink:href="#DejaVuSans-95"/>
      <use x="986.181641" xlink:href="#DejaVuSans-115"/>
      <use x="1038.28125" xlink:href="#DejaVuSans-111"/>
      <use x="1099.462891" xlink:href="#DejaVuSans-114"/>
      <use x="1140.576172" xlink:href="#DejaVuSans-116"/>
      <use x="1179.785156" xlink:href="#DejaVuSans-101"/>
      <use x="1241.308594" xlink:href="#DejaVuSans-100"/>
      <use x="1304.785156" xlink:href="#DejaVuSans-95"/>
      <use x="1354.785156" xlink:href="#DejaVuSans-69"/>
      <use x="1417.96875" xlink:href="#DejaVuSans-120"/>
      <use x="1477.101562" xlink:href="#DejaVuSans-111"/>
      <use x="1538.283203" xlink:href="#DejaVuSans-109"/>
      <use x="1635.695312" xlink:href="#DejaVuSans-101"/>
      <use x="1697.21875" xlink:href="#DejaVuSans-67"/>
      <use x="1767.042969" xlink:href="#DejaVuSans-111"/>
      <use x="1828.224609" xlink:href="#DejaVuSans-118"/>
      <use x="1887.404297" xlink:href="#DejaVuSans-101"/>
      <use x="1948.927734" xlink:href="#DejaVuSans-114"/>
      <use x="1990.041016" xlink:href="#DejaVuSans-97"/>
      <use x="2051.320312" xlink:href="#DejaVuSans-103"/>
      <use x="2114.796875" xlink:href="#DejaVuSans-101"/>
     </g>
    </g>
    <g id="line2d_21">
     <path d="M 166.465175 64.841555 
L 183.125175 64.841555 
" style="fill:none;stroke:#ff7f0e;stroke-linecap:square;stroke-width:1.5;"/>
    </g>
    <g id="line2d_22"/>
    <g id="text_16">
     <!-- dinara_38_S4_60M_sorted_dupless_ExomeCoverage -->
     <defs>
      <path d="M 8.5 21.578125 
L 8.5 54.6875 
L 17.484375 54.6875 
L 17.484375 21.921875 
Q 17.484375 14.15625 20.5 10.265625 
Q 23.53125 6.390625 29.59375 6.390625 
Q 36.859375 6.390625 41.078125 11.03125 
Q 45.3125 15.671875 45.3125 23.6875 
L 45.3125 54.6875 
L 54.296875 54.6875 
L 54.296875 0 
L 45.3125 0 
L 45.3125 8.40625 
Q 42.046875 3.421875 37.71875 1 
Q 33.40625 -1.421875 27.6875 -1.421875 
Q 18.265625 -1.421875 13.375 4.4375 
Q 8.5 10.296875 8.5 21.578125 
z
M 31.109375 56 
z
" id="DejaVuSans-117"/>
      <path d="M 9.421875 75.984375 
L 18.40625 75.984375 
L 18.40625 0 
L 9.421875 0 
z
" id="DejaVuSans-108"/>
     </defs>
     <g transform="translate(189.789175 67.757055)scale(0.0833 -0.0833)">
      <use xlink:href="#DejaVuSans-100"/>
      <use x="63.476562" xlink:href="#DejaVuSans-105"/>
      <use x="91.259766" xlink:href="#DejaVuSans-110"/>
      <use x="154.638672" xlink:href="#DejaVuSans-97"/>
      <use x="215.917969" xlink:href="#DejaVuSans-114"/>
      <use x="257.03125" xlink:href="#DejaVuSans-97"/>
      <use x="318.310547" xlink:href="#DejaVuSans-95"/>
      <use x="368.310547" xlink:href="#DejaVuSans-51"/>
      <use x="431.933594" xlink:href="#DejaVuSans-56"/>
      <use x="495.556641" xlink:href="#DejaVuSans-95"/>
      <use x="545.556641" xlink:href="#DejaVuSans-83"/>
      <use x="609.033203" xlink:href="#DejaVuSans-52"/>
      <use x="672.65625" xlink:href="#DejaVuSans-95"/>
      <use x="722.65625" xlink:href="#DejaVuSans-54"/>
      <use x="786.279297" xlink:href="#DejaVuSans-48"/>
      <use x="849.902344" xlink:href="#DejaVuSans-77"/>
      <use x="936.181641" xlink:href="#DejaVuSans-95"/>
      <use x="986.181641" xlink:href="#DejaVuSans-115"/>
      <use x="1038.28125" xlink:href="#DejaVuSans-111"/>
      <use x="1099.462891" xlink:href="#DejaVuSans-114"/>
      <use x="1140.576172" xlink:href="#DejaVuSans-116"/>
      <use x="1179.785156" xlink:href="#DejaVuSans-101"/>
      <use x="1241.308594" xlink:href="#DejaVuSans-100"/>
      <use x="1304.785156" xlink:href="#DejaVuSans-95"/>
      <use x="1354.785156" xlink:href="#DejaVuSans-100"/>
      <use x="1418.261719" xlink:href="#DejaVuSans-117"/>
      <use x="1481.640625" xlink:href="#DejaVuSans-112"/>
      <use x="1545.117188" xlink:href="#DejaVuSans-108"/>
      <use x="1572.900391" xlink:href="#DejaVuSans-101"/>
      <use x="1634.423828" xlink:href="#DejaVuSans-115"/>
      <use x="1686.523438" xlink:href="#DejaVuSans-115"/>
      <use x="1738.623047" xlink:href="#DejaVuSans-95"/>
      <use x="1788.623047" xlink:href="#DejaVuSans-69"/>
      <use x="1851.806641" xlink:href="#DejaVuSans-120"/>
      <use x="1910.939453" xlink:href="#DejaVuSans-111"/>
      <use x="1972.121094" xlink:href="#DejaVuSans-109"/>
      <use x="2069.533203" xlink:href="#DejaVuSans-101"/>
      <use x="2131.056641" xlink:href="#DejaVuSans-67"/>
      <use x="2200.880859" xlink:href="#DejaVuSans-111"/>
      <use x="2262.0625" xlink:href="#DejaVuSans-118"/>
      <use x="2321.242188" xlink:href="#DejaVuSans-101"/>
      <use x="2382.765625" xlink:href="#DejaVuSans-114"/>
      <use x="2423.878906" xlink:href="#DejaVuSans-97"/>
      <use x="2485.158203" xlink:href="#DejaVuSans-103"/>
      <use x="2548.634766" xlink:href="#DejaVuSans-101"/>
     </g>
    </g>
    <g id="line2d_23">
     <path d="M 166.465175 77.300111 
L 183.125175 77.300111 
" style="fill:none;stroke:#2ca02c;stroke-linecap:square;stroke-width:1.5;"/>
    </g>
    <g id="line2d_24"/>
    <g id="text_17">
     <!-- sample-1-1_60M_sorted_ExomeCoverage -->
     <defs>
      <path d="M 4.890625 31.390625 
L 31.203125 31.390625 
L 31.203125 23.390625 
L 4.890625 23.390625 
z
" id="DejaVuSans-45"/>
     </defs>
     <g transform="translate(189.789175 80.215611)scale(0.0833 -0.0833)">
      <use xlink:href="#DejaVuSans-115"/>
      <use x="52.099609" xlink:href="#DejaVuSans-97"/>
      <use x="113.378906" xlink:href="#DejaVuSans-109"/>
      <use x="210.791016" xlink:href="#DejaVuSans-112"/>
      <use x="274.267578" xlink:href="#DejaVuSans-108"/>
      <use x="302.050781" xlink:href="#DejaVuSans-101"/>
      <use x="363.574219" xlink:href="#DejaVuSans-45"/>
      <use x="399.658203" xlink:href="#DejaVuSans-49"/>
      <use x="463.28125" xlink:href="#DejaVuSans-45"/>
      <use x="499.365234" xlink:href="#DejaVuSans-49"/>
      <use x="562.988281" xlink:href="#DejaVuSans-95"/>
      <use x="612.988281" xlink:href="#DejaVuSans-54"/>
      <use x="676.611328" xlink:href="#DejaVuSans-48"/>
      <use x="740.234375" xlink:href="#DejaVuSans-77"/>
      <use x="826.513672" xlink:href="#DejaVuSans-95"/>
      <use x="876.513672" xlink:href="#DejaVuSans-115"/>
      <use x="928.613281" xlink:href="#DejaVuSans-111"/>
      <use x="989.794922" xlink:href="#DejaVuSans-114"/>
      <use x="1030.908203" xlink:href="#DejaVuSans-116"/>
      <use x="1070.117188" xlink:href="#DejaVuSans-101"/>
      <use x="1131.640625" xlink:href="#DejaVuSans-100"/>
      <use x="1195.117188" xlink:href="#DejaVuSans-95"/>
      <use x="1245.117188" xlink:href="#DejaVuSans-69"/>
      <use x="1308.300781" xlink:href="#DejaVuSans-120"/>
      <use x="1367.433594" xlink:href="#DejaVuSans-111"/>
      <use x="1428.615234" xlink:href="#DejaVuSans-109"/>
      <use x="1526.027344" xlink:href="#DejaVuSans-101"/>
      <use x="1587.550781" xlink:href="#DejaVuSans-67"/>
      <use x="1657.375" xlink:href="#DejaVuSans-111"/>
      <use x="1718.556641" xlink:href="#DejaVuSans-118"/>
      <use x="1777.736328" xlink:href="#DejaVuSans-101"/>
      <use x="1839.259766" xlink:href="#DejaVuSans-114"/>
      <use x="1880.373047" xlink:href="#DejaVuSans-97"/>
      <use x="1941.652344" xlink:href="#DejaVuSans-103"/>
      <use x="2005.128906" xlink:href="#DejaVuSans-101"/>
     </g>
    </g>
    <g id="line2d_25">
     <path d="M 166.465175 89.758667 
L 183.125175 89.758667 
" style="fill:none;stroke:#d62728;stroke-linecap:square;stroke-width:1.5;"/>
    </g>
    <g id="line2d_26"/>
    <g id="text_18">
     <!-- sample-1-1_60M_sorted_dupless_ExomeCoverage -->
     <g transform="translate(189.789175 92.674167)scale(0.0833 -0.0833)">
      <use xlink:href="#DejaVuSans-115"/>
      <use x="52.099609" xlink:href="#DejaVuSans-97"/>
      <use x="113.378906" xlink:href="#DejaVuSans-109"/>
      <use x="210.791016" xlink:href="#DejaVuSans-112"/>
      <use x="274.267578" xlink:href="#DejaVuSans-108"/>
      <use x="302.050781" xlink:href="#DejaVuSans-101"/>
      <use x="363.574219" xlink:href="#DejaVuSans-45"/>
      <use x="399.658203" xlink:href="#DejaVuSans-49"/>
      <use x="463.28125" xlink:href="#DejaVuSans-45"/>
      <use x="499.365234" xlink:href="#DejaVuSans-49"/>
      <use x="562.988281" xlink:href="#DejaVuSans-95"/>
      <use x="612.988281" xlink:href="#DejaVuSans-54"/>
      <use x="676.611328" xlink:href="#DejaVuSans-48"/>
      <use x="740.234375" xlink:href="#DejaVuSans-77"/>
      <use x="826.513672" xlink:href="#DejaVuSans-95"/>
      <use x="876.513672" xlink:href="#DejaVuSans-115"/>
      <use x="928.613281" xlink:href="#DejaVuSans-111"/>
      <use x="989.794922" xlink:href="#DejaVuSans-114"/>
      <use x="1030.908203" xlink:href="#DejaVuSans-116"/>
      <use x="1070.117188" xlink:href="#DejaVuSans-101"/>
      <use x="1131.640625" xlink:href="#DejaVuSans-100"/>
      <use x="1195.117188" xlink:href="#DejaVuSans-95"/>
      <use x="1245.117188" xlink:href="#DejaVuSans-100"/>
      <use x="1308.59375" xlink:href="#DejaVuSans-117"/>
      <use x="1371.972656" xlink:href="#DejaVuSans-112"/>
      <use x="1435.449219" xlink:href="#DejaVuSans-108"/>
      <use x="1463.232422" xlink:href="#DejaVuSans-101"/>
      <use x="1524.755859" xlink:href="#DejaVuSans-115"/>
      <use x="1576.855469" xlink:href="#DejaVuSans-115"/>
      <use x="1628.955078" xlink:href="#DejaVuSans-95"/>
      <use x="1678.955078" xlink:href="#DejaVuSans-69"/>
      <use x="1742.138672" xlink:href="#DejaVuSans-120"/>
      <use x="1801.271484" xlink:href="#DejaVuSans-111"/>
      <use x="1862.453125" xlink:href="#DejaVuSans-109"/>
      <use x="1959.865234" xlink:href="#DejaVuSans-101"/>
      <use x="2021.388672" xlink:href="#DejaVuSans-67"/>
      <use x="2091.212891" xlink:href="#DejaVuSans-111"/>
      <use x="2152.394531" xlink:href="#DejaVuSans-118"/>
      <use x="2211.574219" xlink:href="#DejaVuSans-101"/>
      <use x="2273.097656" xlink:href="#DejaVuSans-114"/>
      <use x="2314.210938" xlink:href="#DejaVuSans-97"/>
      <use x="2375.490234" xlink:href="#DejaVuSans-103"/>
      <use x="2438.966797" xlink:href="#DejaVuSans-101"/>
     </g>
    </g>
    <g id="line2d_27">
     <path d="M 166.465175 102.217223 
L 183.125175 102.217223 
" style="fill:none;stroke:#9467bd;stroke-linecap:square;stroke-width:1.5;"/>
    </g>
    <g id="line2d_28"/>
    <g id="text_19">
     <!-- sample-1-3_60M_sorted_ExomeCoverage -->
     <g transform="translate(189.789175 105.132723)scale(0.0833 -0.0833)">
      <use xlink:href="#DejaVuSans-115"/>
      <use x="52.099609" xlink:href="#DejaVuSans-97"/>
      <use x="113.378906" xlink:href="#DejaVuSans-109"/>
      <use x="210.791016" xlink:href="#DejaVuSans-112"/>
      <use x="274.267578" xlink:href="#DejaVuSans-108"/>
      <use x="302.050781" xlink:href="#DejaVuSans-101"/>
      <use x="363.574219" xlink:href="#DejaVuSans-45"/>
      <use x="399.658203" xlink:href="#DejaVuSans-49"/>
      <use x="463.28125" xlink:href="#DejaVuSans-45"/>
      <use x="499.365234" xlink:href="#DejaVuSans-51"/>
      <use x="562.988281" xlink:href="#DejaVuSans-95"/>
      <use x="612.988281" xlink:href="#DejaVuSans-54"/>
      <use x="676.611328" xlink:href="#DejaVuSans-48"/>
      <use x="740.234375" xlink:href="#DejaVuSans-77"/>
      <use x="826.513672" xlink:href="#DejaVuSans-95"/>
      <use x="876.513672" xlink:href="#DejaVuSans-115"/>
      <use x="928.613281" xlink:href="#DejaVuSans-111"/>
      <use x="989.794922" xlink:href="#DejaVuSans-114"/>
      <use x="1030.908203" xlink:href="#DejaVuSans-116"/>
      <use x="1070.117188" xlink:href="#DejaVuSans-101"/>
      <use x="1131.640625" xlink:href="#DejaVuSans-100"/>
      <use x="1195.117188" xlink:href="#DejaVuSans-95"/>
      <use x="1245.117188" xlink:href="#DejaVuSans-69"/>
      <use x="1308.300781" xlink:href="#DejaVuSans-120"/>
      <use x="1367.433594" xlink:href="#DejaVuSans-111"/>
      <use x="1428.615234" xlink:href="#DejaVuSans-109"/>
      <use x="1526.027344" xlink:href="#DejaVuSans-101"/>
      <use x="1587.550781" xlink:href="#DejaVuSans-67"/>
      <use x="1657.375" xlink:href="#DejaVuSans-111"/>
      <use x="1718.556641" xlink:href="#DejaVuSans-118"/>
      <use x="1777.736328" xlink:href="#DejaVuSans-101"/>
      <use x="1839.259766" xlink:href="#DejaVuSans-114"/>
      <use x="1880.373047" xlink:href="#DejaVuSans-97"/>
      <use x="1941.652344" xlink:href="#DejaVuSans-103"/>
      <use x="2005.128906" xlink:href="#DejaVuSans-101"/>
     </g>
    </g>
    <g id="line2d_29">
     <path d="M 166.465175 114.67578 
L 183.125175 114.67578 
" style="fill:none;stroke:#8c564b;stroke-linecap:square;stroke-width:1.5;"/>
    </g>
    <g id="line2d_30"/>
    <g id="text_20">
     <!-- sample-1-3_60M_sorted_dupless_ExomeCoverage -->
     <g transform="translate(189.789175 117.59128)scale(0.0833 -0.0833)">
      <use xlink:href="#DejaVuSans-115"/>
      <use x="52.099609" xlink:href="#DejaVuSans-97"/>
      <use x="113.378906" xlink:href="#DejaVuSans-109"/>
      <use x="210.791016" xlink:href="#DejaVuSans-112"/>
      <use x="274.267578" xlink:href="#DejaVuSans-108"/>
      <use x="302.050781" xlink:href="#DejaVuSans-101"/>
      <use x="363.574219" xlink:href="#DejaVuSans-45"/>
      <use x="399.658203" xlink:href="#DejaVuSans-49"/>
      <use x="463.28125" xlink:href="#DejaVuSans-45"/>
      <use x="499.365234" xlink:href="#DejaVuSans-51"/>
      <use x="562.988281" xlink:href="#DejaVuSans-95"/>
      <use x="612.988281" xlink:href="#DejaVuSans-54"/>
      <use x="676.611328" xlink:href="#DejaVuSans-48"/>
      <use x="740.234375" xlink:href="#DejaVuSans-77"/>
      <use x="826.513672" xlink:href="#DejaVuSans-95"/>
      <use x="876.513672" xlink:href="#DejaVuSans-115"/>
      <use x="928.613281" xlink:href="#DejaVuSans-111"/>
      <use x="989.794922" xlink:href="#DejaVuSans-114"/>
      <use x="1030.908203" xlink:href="#DejaVuSans-116"/>
      <use x="1070.117188" xlink:href="#DejaVuSans-101"/>
      <use x="1131.640625" xlink:href="#DejaVuSans-100"/>
      <use x="1195.117188" xlink:href="#DejaVuSans-95"/>
      <use x="1245.117188" xlink:href="#DejaVuSans-100"/>
      <use x="1308.59375" xlink:href="#DejaVuSans-117"/>
      <use x="1371.972656" xlink:href="#DejaVuSans-112"/>
      <use x="1435.449219" xlink:href="#DejaVuSans-108"/>
      <use x="1463.232422" xlink:href="#DejaVuSans-101"/>
      <use x="1524.755859" xlink:href="#DejaVuSans-115"/>
      <use x="1576.855469" xlink:href="#DejaVuSans-115"/>
      <use x="1628.955078" xlink:href="#DejaVuSans-95"/>
      <use x="1678.955078" xlink:href="#DejaVuSans-69"/>
      <use x="1742.138672" xlink:href="#DejaVuSans-120"/>
      <use x="1801.271484" xlink:href="#DejaVuSans-111"/>
      <use x="1862.453125" xlink:href="#DejaVuSans-109"/>
      <use x="1959.865234" xlink:href="#DejaVuSans-101"/>
      <use x="2021.388672" xlink:href="#DejaVuSans-67"/>
      <use x="2091.212891" xlink:href="#DejaVuSans-111"/>
      <use x="2152.394531" xlink:href="#DejaVuSans-118"/>
      <use x="2211.574219" xlink:href="#DejaVuSans-101"/>
      <use x="2273.097656" xlink:href="#DejaVuSans-114"/>
      <use x="2314.210938" xlink:href="#DejaVuSans-97"/>
      <use x="2375.490234" xlink:href="#DejaVuSans-103"/>
      <use x="2438.966797" xlink:href="#DejaVuSans-101"/>
     </g>
    </g>
   </g>
  </g>
  <g id="text_21">
   <!-- Cumulative coverage (60M) -->
   <defs>
    <path d="M 48.78125 52.59375 
L 48.78125 44.1875 
Q 44.96875 46.296875 41.140625 47.34375 
Q 37.3125 48.390625 33.40625 48.390625 
Q 24.65625 48.390625 19.8125 42.84375 
Q 14.984375 37.3125 14.984375 27.296875 
Q 14.984375 17.28125 19.8125 11.734375 
Q 24.65625 6.203125 33.40625 6.203125 
Q 37.3125 6.203125 41.140625 7.25 
Q 44.96875 8.296875 48.78125 10.40625 
L 48.78125 2.09375 
Q 45.015625 0.34375 40.984375 -0.53125 
Q 36.96875 -1.421875 32.421875 -1.421875 
Q 20.0625 -1.421875 12.78125 6.34375 
Q 5.515625 14.109375 5.515625 27.296875 
Q 5.515625 40.671875 12.859375 48.328125 
Q 20.21875 56 33.015625 56 
Q 37.15625 56 41.109375 55.140625 
Q 45.0625 54.296875 48.78125 52.59375 
z
" id="DejaVuSans-99"/>
    <path d="M 31 75.875 
Q 24.46875 64.65625 21.28125 53.65625 
Q 18.109375 42.671875 18.109375 31.390625 
Q 18.109375 20.125 21.3125 9.0625 
Q 24.515625 -2 31 -13.1875 
L 23.1875 -13.1875 
Q 15.875 -1.703125 12.234375 9.375 
Q 8.59375 20.453125 8.59375 31.390625 
Q 8.59375 42.28125 12.203125 53.3125 
Q 15.828125 64.359375 23.1875 75.875 
z
" id="DejaVuSans-40"/>
    <path d="M 8.015625 75.875 
L 15.828125 75.875 
Q 23.140625 64.359375 26.78125 53.3125 
Q 30.421875 42.28125 30.421875 31.390625 
Q 30.421875 20.453125 26.78125 9.375 
Q 23.140625 -1.703125 15.828125 -13.1875 
L 8.015625 -13.1875 
Q 14.5 -2 17.703125 9.0625 
Q 20.90625 20.125 20.90625 31.390625 
Q 20.90625 42.671875 17.703125 53.65625 
Q 14.5 64.65625 8.015625 75.875 
z
" id="DejaVuSans-41"/>
   </defs>
   <g transform="translate(146.989688 16.030125)scale(0.12 -0.12)">
    <use xlink:href="#DejaVuSans-67"/>
    <use x="69.824219" xlink:href="#DejaVuSans-117"/>
    <use x="133.203125" xlink:href="#DejaVuSans-109"/>
    <use x="230.615234" xlink:href="#DejaVuSans-117"/>
    <use x="293.994141" xlink:href="#DejaVuSans-108"/>
    <use x="321.777344" xlink:href="#DejaVuSans-97"/>
    <use x="383.056641" xlink:href="#DejaVuSans-116"/>
    <use x="422.265625" xlink:href="#DejaVuSans-105"/>
    <use x="450.048828" xlink:href="#DejaVuSans-118"/>
    <use x="509.228516" xlink:href="#DejaVuSans-101"/>
    <use x="570.751953" xlink:href="#DejaVuSans-32"/>
    <use x="602.539062" xlink:href="#DejaVuSans-99"/>
    <use x="657.519531" xlink:href="#DejaVuSans-111"/>
    <use x="718.701172" xlink:href="#DejaVuSans-118"/>
    <use x="777.880859" xlink:href="#DejaVuSans-101"/>
    <use x="839.404297" xlink:href="#DejaVuSans-114"/>
    <use x="880.517578" xlink:href="#DejaVuSans-97"/>
    <use x="941.796875" xlink:href="#DejaVuSans-103"/>
    <use x="1005.273438" xlink:href="#DejaVuSans-101"/>
    <use x="1066.796875" xlink:href="#DejaVuSans-32"/>
    <use x="1098.583984" xlink:href="#DejaVuSans-40"/>
    <use x="1137.597656" xlink:href="#DejaVuSans-54"/>
    <use x="1201.220703" xlink:href="#DejaVuSans-48"/>
    <use x="1264.84375" xlink:href="#DejaVuSans-77"/>
    <use x="1351.123047" xlink:href="#DejaVuSans-41"/>
   </g>
  </g>
 </g>
 <defs>
  <clipPath id="p28efe295c5">
   <rect height="266.112" width="357.12" x="57.6" y="41.472"/>
  </clipPath>
 </defs>
</svg>
