<?xml version="1.0" encoding="UTF-8" standalone="no"?>
<!-- Created with matplotlib (https://matplotlib.org/) -->

<svg
   xmlns:dc="http://purl.org/dc/elements/1.1/"
   xmlns:cc="http://creativecommons.org/ns#"
   xmlns:rdf="http://www.w3.org/1999/02/22-rdf-syntax-ns#"
   xmlns:svg="http://www.w3.org/2000/svg"
   xmlns="http://www.w3.org/2000/svg"
   xmlns:xlink="http://www.w3.org/1999/xlink"
   xmlns:sodipodi="http://sodipodi.sourceforge.net/DTD/sodipodi-0.dtd"
   xmlns:inkscape="http://www.inkscape.org/namespaces/inkscape"
   height="345.6pt"
   version="1.1"
   viewBox="0 0 460.8 345.6"
   width="460.8pt"
   id="svg334"
   sodipodi:docname="cumulate_100.svg"
   inkscape:export-filename="/home/solveig/.cloud/fishman_lab/labjournal/scripts_results/cumulate_100.png"
   inkscape:export-xdpi="200"
   inkscape:export-ydpi="200"
   inkscape:version="0.92.4 (5da689c313, 2019-01-14)">
  <metadata
     id="metadata338">
    <rdf:RDF>
      <cc:Work
         rdf:about="">
        <dc:format>image/svg+xml</dc:format>
        <dc:type
           rdf:resource="http://purl.org/dc/dcmitype/StillImage" />
      </cc:Work>
    </rdf:RDF>
  </metadata>
  <sodipodi:namedview
     pagecolor="#ffffff"
     bordercolor="#666666"
     borderopacity="1"
     objecttolerance="10"
     gridtolerance="10"
     guidetolerance="10"
     inkscape:pageopacity="0"
     inkscape:pageshadow="2"
     inkscape:window-width="1920"
     inkscape:window-height="1015"
     id="namedview336"
     showgrid="false"
     inkscape:zoom="1.4485868"
     inkscape:cx="352.22177"
     inkscape:cy="276.75697"
     inkscape:window-x="0"
     inkscape:window-y="0"
     inkscape:window-maximized="1"
     inkscape:current-layer="svg334" />
  <defs
     id="defs4">
    <style
       type="text/css"
       id="style2">
*{stroke-linecap:butt;stroke-linejoin:round;}
  </style>
  </defs>
  <g
     id="figure_1">
    <g
       id="patch_1">
      <path
         d="M 0 345.6  L 460.8 345.6  L 460.8 0  L 0 0  z "
         style="fill:#ffffff;"
         id="path6" />
    </g>
    <g
       id="axes_1">
      <g
         id="patch_2">
        <path
           d="M 57.6 307.584  L 414.72 307.584  L 414.72 41.472  L 57.6 41.472  z "
           style="fill:#ffffff;"
           id="path9" />
      </g>
      <g
         id="matplotlib.axis_1">
        <g
           id="xtick_1">
          <g
             id="line2d_1">
            <defs
               id="defs13">
              <path
                 d="M 0 0  L 0 3.5  "
                 id="mcfed581ea3"
                 style="stroke:#000000;stroke-width:0.8;" />
            </defs>
            <g
               id="g17">
              <use
                 style="stroke:#000000;stroke-width:0.8;"
                 x="73.832727"
                 xlink:href="#mcfed581ea3"
                 y="307.584"
                 id="use15" />
            </g>
          </g>
          <g
             id="text_1">
            <!-- 0 -->
            <defs
               id="defs21">
              <path
                 d="M 31.78125 66.40625  Q 24.171875 66.40625 20.328125 58.90625  Q 16.5 51.421875 16.5 36.375  Q 16.5 21.390625 20.328125 13.890625  Q 24.171875 6.390625 31.78125 6.390625  Q 39.453125 6.390625 43.28125 13.890625  Q 47.125 21.390625 47.125 36.375  Q 47.125 51.421875 43.28125 58.90625  Q 39.453125 66.40625 31.78125 66.40625  z M 31.78125 74.21875  Q 44.046875 74.21875 50.515625 64.515625  Q 56.984375 54.828125 56.984375 36.375  Q 56.984375 17.96875 50.515625 8.265625  Q 44.046875 -1.421875 31.78125 -1.421875  Q 19.53125 -1.421875 13.0625 8.265625  Q 6.59375 17.96875 6.59375 36.375  Q 6.59375 54.828125 13.0625 64.515625  Q 19.53125 74.21875 31.78125 74.21875  z "
                 id="DejaVuSans-48" />
            </defs>
            <g
               transform="translate(70.651477 322.182437)scale(0.1 -0.1)"
               id="g25">
              <use
                 xlink:href="#DejaVuSans-48"
                 id="use23" />
            </g>
          </g>
        </g>
        <g
           id="xtick_2">
          <g
             id="line2d_2">
            <g
               id="g31">
              <use
                 style="stroke:#000000;stroke-width:0.8;"
                 x="139.419504"
                 xlink:href="#mcfed581ea3"
                 y="307.584"
                 id="use29" />
            </g>
          </g>
          <g
             id="text_2">
            <!-- 20 -->
            <defs
               id="defs35">
              <path
                 d="M 19.1875 8.296875  L 53.609375 8.296875  L 53.609375 0  L 7.328125 0  L 7.328125 8.296875  Q 12.9375 14.109375 22.625 23.890625  Q 32.328125 33.6875 34.8125 36.53125  Q 39.546875 41.84375 41.421875 45.53125  Q 43.3125 49.21875 43.3125 52.78125  Q 43.3125 58.59375 39.234375 62.25  Q 35.15625 65.921875 28.609375 65.921875  Q 23.96875 65.921875 18.8125 64.3125  Q 13.671875 62.703125 7.8125 59.421875  L 7.8125 69.390625  Q 13.765625 71.78125 18.9375 73  Q 24.125 74.21875 28.421875 74.21875  Q 39.75 74.21875 46.484375 68.546875  Q 53.21875 62.890625 53.21875 53.421875  Q 53.21875 48.921875 51.53125 44.890625  Q 49.859375 40.875 45.40625 35.40625  Q 44.1875 33.984375 37.640625 27.21875  Q 31.109375 20.453125 19.1875 8.296875  z "
                 id="DejaVuSans-50" />
            </defs>
            <g
               transform="translate(133.057004 322.182437)scale(0.1 -0.1)"
               id="g41">
              <use
                 xlink:href="#DejaVuSans-50"
                 id="use37" />
              <use
                 x="63.623047"
                 xlink:href="#DejaVuSans-48"
                 id="use39" />
            </g>
          </g>
        </g>
        <g
           id="xtick_3">
          <g
             id="line2d_3">
            <g
               id="g47">
              <use
                 style="stroke:#000000;stroke-width:0.8;"
                 x="205.006281"
                 xlink:href="#mcfed581ea3"
                 y="307.584"
                 id="use45" />
            </g>
          </g>
          <g
             id="text_3">
            <!-- 40 -->
            <defs
               id="defs51">
              <path
                 d="M 37.796875 64.3125  L 12.890625 25.390625  L 37.796875 25.390625  z M 35.203125 72.90625  L 47.609375 72.90625  L 47.609375 25.390625  L 58.015625 25.390625  L 58.015625 17.1875  L 47.609375 17.1875  L 47.609375 0  L 37.796875 0  L 37.796875 17.1875  L 4.890625 17.1875  L 4.890625 26.703125  z "
                 id="DejaVuSans-52" />
            </defs>
            <g
               transform="translate(198.643781 322.182437)scale(0.1 -0.1)"
               id="g57">
              <use
                 xlink:href="#DejaVuSans-52"
                 id="use53" />
              <use
                 x="63.623047"
                 xlink:href="#DejaVuSans-48"
                 id="use55" />
            </g>
          </g>
        </g>
        <g
           id="xtick_4">
          <g
             id="line2d_4">
            <g
               id="g63">
              <use
                 style="stroke:#000000;stroke-width:0.8;"
                 x="270.593058"
                 xlink:href="#mcfed581ea3"
                 y="307.584"
                 id="use61" />
            </g>
          </g>
          <g
             id="text_4">
            <!-- 60 -->
            <defs
               id="defs67">
              <path
                 d="M 33.015625 40.375  Q 26.375 40.375 22.484375 35.828125  Q 18.609375 31.296875 18.609375 23.390625  Q 18.609375 15.53125 22.484375 10.953125  Q 26.375 6.390625 33.015625 6.390625  Q 39.65625 6.390625 43.53125 10.953125  Q 47.40625 15.53125 47.40625 23.390625  Q 47.40625 31.296875 43.53125 35.828125  Q 39.65625 40.375 33.015625 40.375  z M 52.59375 71.296875  L 52.59375 62.3125  Q 48.875 64.0625 45.09375 64.984375  Q 41.3125 65.921875 37.59375 65.921875  Q 27.828125 65.921875 22.671875 59.328125  Q 17.53125 52.734375 16.796875 39.40625  Q 19.671875 43.65625 24.015625 45.921875  Q 28.375 48.1875 33.59375 48.1875  Q 44.578125 48.1875 50.953125 41.515625  Q 57.328125 34.859375 57.328125 23.390625  Q 57.328125 12.15625 50.6875 5.359375  Q 44.046875 -1.421875 33.015625 -1.421875  Q 20.359375 -1.421875 13.671875 8.265625  Q 6.984375 17.96875 6.984375 36.375  Q 6.984375 53.65625 15.1875 63.9375  Q 23.390625 74.21875 37.203125 74.21875  Q 40.921875 74.21875 44.703125 73.484375  Q 48.484375 72.75 52.59375 71.296875  z "
                 id="DejaVuSans-54" />
            </defs>
            <g
               transform="translate(264.230558 322.182437)scale(0.1 -0.1)"
               id="g73">
              <use
                 xlink:href="#DejaVuSans-54"
                 id="use69" />
              <use
                 x="63.623047"
                 xlink:href="#DejaVuSans-48"
                 id="use71" />
            </g>
          </g>
        </g>
        <g
           id="xtick_5">
          <g
             id="line2d_5">
            <g
               id="g79">
              <use
                 style="stroke:#000000;stroke-width:0.8;"
                 x="336.179835"
                 xlink:href="#mcfed581ea3"
                 y="307.584"
                 id="use77" />
            </g>
          </g>
          <g
             id="text_5">
            <!-- 80 -->
            <defs
               id="defs83">
              <path
                 d="M 31.78125 34.625  Q 24.75 34.625 20.71875 30.859375  Q 16.703125 27.09375 16.703125 20.515625  Q 16.703125 13.921875 20.71875 10.15625  Q 24.75 6.390625 31.78125 6.390625  Q 38.8125 6.390625 42.859375 10.171875  Q 46.921875 13.96875 46.921875 20.515625  Q 46.921875 27.09375 42.890625 30.859375  Q 38.875 34.625 31.78125 34.625  z M 21.921875 38.8125  Q 15.578125 40.375 12.03125 44.71875  Q 8.5 49.078125 8.5 55.328125  Q 8.5 64.0625 14.71875 69.140625  Q 20.953125 74.21875 31.78125 74.21875  Q 42.671875 74.21875 48.875 69.140625  Q 55.078125 64.0625 55.078125 55.328125  Q 55.078125 49.078125 51.53125 44.71875  Q 48 40.375 41.703125 38.8125  Q 48.828125 37.15625 52.796875 32.3125  Q 56.78125 27.484375 56.78125 20.515625  Q 56.78125 9.90625 50.3125 4.234375  Q 43.84375 -1.421875 31.78125 -1.421875  Q 19.734375 -1.421875 13.25 4.234375  Q 6.78125 9.90625 6.78125 20.515625  Q 6.78125 27.484375 10.78125 32.3125  Q 14.796875 37.15625 21.921875 38.8125  z M 18.3125 54.390625  Q 18.3125 48.734375 21.84375 45.5625  Q 25.390625 42.390625 31.78125 42.390625  Q 38.140625 42.390625 41.71875 45.5625  Q 45.3125 48.734375 45.3125 54.390625  Q 45.3125 60.0625 41.71875 63.234375  Q 38.140625 66.40625 31.78125 66.40625  Q 25.390625 66.40625 21.84375 63.234375  Q 18.3125 60.0625 18.3125 54.390625  z "
                 id="DejaVuSans-56" />
            </defs>
            <g
               transform="translate(329.817335 322.182437)scale(0.1 -0.1)"
               id="g89">
              <use
                 xlink:href="#DejaVuSans-56"
                 id="use85" />
              <use
                 x="63.623047"
                 xlink:href="#DejaVuSans-48"
                 id="use87" />
            </g>
          </g>
        </g>
        <g
           id="xtick_6">
          <g
             id="line2d_6">
            <g
               id="g95">
              <use
                 style="stroke:#000000;stroke-width:0.8;"
                 x="401.766612"
                 xlink:href="#mcfed581ea3"
                 y="307.584"
                 id="use93" />
            </g>
          </g>
          <g
             id="text_6">
            <!-- 100 -->
            <defs
               id="defs99">
              <path
                 d="M 12.40625 8.296875  L 28.515625 8.296875  L 28.515625 63.921875  L 10.984375 60.40625  L 10.984375 69.390625  L 28.421875 72.90625  L 38.28125 72.90625  L 38.28125 8.296875  L 54.390625 8.296875  L 54.390625 0  L 12.40625 0  z "
                 id="DejaVuSans-49" />
            </defs>
            <g
               transform="translate(392.222862 322.182437)scale(0.1 -0.1)"
               id="g107">
              <use
                 xlink:href="#DejaVuSans-49"
                 id="use101" />
              <use
                 x="63.623047"
                 xlink:href="#DejaVuSans-48"
                 id="use103" />
              <use
                 x="127.246094"
                 xlink:href="#DejaVuSans-48"
                 id="use105" />
            </g>
          </g>
        </g>
        <g
           id="text_7">
          <!-- Depth -->
          <defs
             id="defs116">
            <path
               d="M 19.671875 64.796875  L 19.671875 8.109375  L 31.59375 8.109375  Q 46.6875 8.109375 53.6875 14.9375  Q 60.6875 21.78125 60.6875 36.53125  Q 60.6875 51.171875 53.6875 57.984375  Q 46.6875 64.796875 31.59375 64.796875  z M 9.8125 72.90625  L 30.078125 72.90625  Q 51.265625 72.90625 61.171875 64.09375  Q 71.09375 55.28125 71.09375 36.53125  Q 71.09375 17.671875 61.125 8.828125  Q 51.171875 0 30.078125 0  L 9.8125 0  z "
               id="DejaVuSans-68" />
            <path
               d="M 56.203125 29.59375  L 56.203125 25.203125  L 14.890625 25.203125  Q 15.484375 15.921875 20.484375 11.0625  Q 25.484375 6.203125 34.421875 6.203125  Q 39.59375 6.203125 44.453125 7.46875  Q 49.3125 8.734375 54.109375 11.28125  L 54.109375 2.78125  Q 49.265625 0.734375 44.1875 -0.34375  Q 39.109375 -1.421875 33.890625 -1.421875  Q 20.796875 -1.421875 13.15625 6.1875  Q 5.515625 13.8125 5.515625 26.8125  Q 5.515625 40.234375 12.765625 48.109375  Q 20.015625 56 32.328125 56  Q 43.359375 56 49.78125 48.890625  Q 56.203125 41.796875 56.203125 29.59375  z M 47.21875 32.234375  Q 47.125 39.59375 43.09375 43.984375  Q 39.0625 48.390625 32.421875 48.390625  Q 24.90625 48.390625 20.390625 44.140625  Q 15.875 39.890625 15.1875 32.171875  z "
               id="DejaVuSans-101" />
            <path
               d="M 18.109375 8.203125  L 18.109375 -20.796875  L 9.078125 -20.796875  L 9.078125 54.6875  L 18.109375 54.6875  L 18.109375 46.390625  Q 20.953125 51.265625 25.265625 53.625  Q 29.59375 56 35.59375 56  Q 45.5625 56 51.78125 48.09375  Q 58.015625 40.1875 58.015625 27.296875  Q 58.015625 14.40625 51.78125 6.484375  Q 45.5625 -1.421875 35.59375 -1.421875  Q 29.59375 -1.421875 25.265625 0.953125  Q 20.953125 3.328125 18.109375 8.203125  z M 48.6875 27.296875  Q 48.6875 37.203125 44.609375 42.84375  Q 40.53125 48.484375 33.40625 48.484375  Q 26.265625 48.484375 22.1875 42.84375  Q 18.109375 37.203125 18.109375 27.296875  Q 18.109375 17.390625 22.1875 11.75  Q 26.265625 6.109375 33.40625 6.109375  Q 40.53125 6.109375 44.609375 11.75  Q 48.6875 17.390625 48.6875 27.296875  z "
               id="DejaVuSans-112" />
            <path
               d="M 18.3125 70.21875  L 18.3125 54.6875  L 36.8125 54.6875  L 36.8125 47.703125  L 18.3125 47.703125  L 18.3125 18.015625  Q 18.3125 11.328125 20.140625 9.421875  Q 21.96875 7.515625 27.59375 7.515625  L 36.8125 7.515625  L 36.8125 0  L 27.59375 0  Q 17.1875 0 13.234375 3.875  Q 9.28125 7.765625 9.28125 18.015625  L 9.28125 47.703125  L 2.6875 47.703125  L 2.6875 54.6875  L 9.28125 54.6875  L 9.28125 70.21875  z "
               id="DejaVuSans-116" />
            <path
               d="M 54.890625 33.015625  L 54.890625 0  L 45.90625 0  L 45.90625 32.71875  Q 45.90625 40.484375 42.875 44.328125  Q 39.84375 48.1875 33.796875 48.1875  Q 26.515625 48.1875 22.3125 43.546875  Q 18.109375 38.921875 18.109375 30.90625  L 18.109375 0  L 9.078125 0  L 9.078125 75.984375  L 18.109375 75.984375  L 18.109375 46.1875  Q 21.34375 51.125 25.703125 53.5625  Q 30.078125 56 35.796875 56  Q 45.21875 56 50.046875 50.171875  Q 54.890625 44.34375 54.890625 33.015625  z "
               id="DejaVuSans-104" />
          </defs>
          <g
             transform="translate(220.930312 335.860562)scale(0.1 -0.1)"
             id="g128">
            <use
               xlink:href="#DejaVuSans-68"
               id="use118" />
            <use
               x="77.001953"
               xlink:href="#DejaVuSans-101"
               id="use120" />
            <use
               x="138.525391"
               xlink:href="#DejaVuSans-112"
               id="use122" />
            <use
               x="202.001953"
               xlink:href="#DejaVuSans-116"
               id="use124" />
            <use
               x="241.210938"
               xlink:href="#DejaVuSans-104"
               id="use126" />
          </g>
        </g>
      </g>
      <g
         id="matplotlib.axis_2">
        <g
           id="ytick_1">
          <g
             id="line2d_7">
            <defs
               id="defs133">
              <path
                 d="M 0 0  L -3.5 0  "
                 id="m1a84e2d09b"
                 style="stroke:#000000;stroke-width:0.8;" />
            </defs>
            <g
               id="g137">
              <use
                 style="stroke:#000000;stroke-width:0.8;"
                 x="57.6"
                 xlink:href="#m1a84e2d09b"
                 y="273.348124"
                 id="use135" />
            </g>
          </g>
          <g
             id="text_8">
            <!-- 0.4 -->
            <defs
               id="defs141">
              <path
                 d="M 10.6875 12.40625  L 21 12.40625  L 21 0  L 10.6875 0  z "
                 id="DejaVuSans-46" />
            </defs>
            <g
               transform="translate(34.696875 277.147342)scale(0.1 -0.1)"
               id="g149">
              <use
                 xlink:href="#DejaVuSans-48"
                 id="use143" />
              <use
                 x="63.623047"
                 xlink:href="#DejaVuSans-46"
                 id="use145" />
              <use
                 x="95.410156"
                 xlink:href="#DejaVuSans-52"
                 id="use147" />
            </g>
          </g>
        </g>
        <g
           id="ytick_2">
          <g
             id="line2d_8">
            <g
               id="g155">
              <use
                 style="stroke:#000000;stroke-width:0.8;"
                 x="57.6"
                 xlink:href="#m1a84e2d09b"
                 y="236.714898"
                 id="use153" />
            </g>
          </g>
          <g
             id="text_9">
            <!-- 0.5 -->
            <defs
               id="defs159">
              <path
                 d="M 10.796875 72.90625  L 49.515625 72.90625  L 49.515625 64.59375  L 19.828125 64.59375  L 19.828125 46.734375  Q 21.96875 47.46875 24.109375 47.828125  Q 26.265625 48.1875 28.421875 48.1875  Q 40.625 48.1875 47.75 41.5  Q 54.890625 34.8125 54.890625 23.390625  Q 54.890625 11.625 47.5625 5.09375  Q 40.234375 -1.421875 26.90625 -1.421875  Q 22.3125 -1.421875 17.546875 -0.640625  Q 12.796875 0.140625 7.71875 1.703125  L 7.71875 11.625  Q 12.109375 9.234375 16.796875 8.0625  Q 21.484375 6.890625 26.703125 6.890625  Q 35.15625 6.890625 40.078125 11.328125  Q 45.015625 15.765625 45.015625 23.390625  Q 45.015625 31 40.078125 35.4375  Q 35.15625 39.890625 26.703125 39.890625  Q 22.75 39.890625 18.8125 39.015625  Q 14.890625 38.140625 10.796875 36.28125  z "
                 id="DejaVuSans-53" />
            </defs>
            <g
               transform="translate(34.696875 240.514116)scale(0.1 -0.1)"
               id="g167">
              <use
                 xlink:href="#DejaVuSans-48"
                 id="use161" />
              <use
                 x="63.623047"
                 xlink:href="#DejaVuSans-46"
                 id="use163" />
              <use
                 x="95.410156"
                 xlink:href="#DejaVuSans-53"
                 id="use165" />
            </g>
          </g>
        </g>
        <g
           id="ytick_3">
          <g
             id="line2d_9">
            <g
               id="g173">
              <use
                 style="stroke:#000000;stroke-width:0.8;"
                 x="57.6"
                 xlink:href="#m1a84e2d09b"
                 y="200.081672"
                 id="use171" />
            </g>
          </g>
          <g
             id="text_10">
            <!-- 0.6 -->
            <g
               transform="translate(34.696875 203.88089)scale(0.1 -0.1)"
               id="g182">
              <use
                 xlink:href="#DejaVuSans-48"
                 id="use176" />
              <use
                 x="63.623047"
                 xlink:href="#DejaVuSans-46"
                 id="use178" />
              <use
                 x="95.410156"
                 xlink:href="#DejaVuSans-54"
                 id="use180" />
            </g>
          </g>
        </g>
        <g
           id="ytick_4">
          <g
             id="line2d_10">
            <g
               id="g188">
              <use
                 style="stroke:#000000;stroke-width:0.8;"
                 x="57.6"
                 xlink:href="#m1a84e2d09b"
                 y="163.448446"
                 id="use186" />
            </g>
          </g>
          <g
             id="text_11">
            <!-- 0.7 -->
            <defs
               id="defs192">
              <path
                 d="M 8.203125 72.90625  L 55.078125 72.90625  L 55.078125 68.703125  L 28.609375 0  L 18.3125 0  L 43.21875 64.59375  L 8.203125 64.59375  z "
                 id="DejaVuSans-55" />
            </defs>
            <g
               transform="translate(34.696875 167.247664)scale(0.1 -0.1)"
               id="g200">
              <use
                 xlink:href="#DejaVuSans-48"
                 id="use194" />
              <use
                 x="63.623047"
                 xlink:href="#DejaVuSans-46"
                 id="use196" />
              <use
                 x="95.410156"
                 xlink:href="#DejaVuSans-55"
                 id="use198" />
            </g>
          </g>
        </g>
        <g
           id="ytick_5">
          <g
             id="line2d_11">
            <g
               id="g206">
              <use
                 style="stroke:#000000;stroke-width:0.8;"
                 x="57.6"
                 xlink:href="#m1a84e2d09b"
                 y="126.81522"
                 id="use204" />
            </g>
          </g>
          <g
             id="text_12">
            <!-- 0.8 -->
            <g
               transform="translate(34.696875 130.614438)scale(0.1 -0.1)"
               id="g215">
              <use
                 xlink:href="#DejaVuSans-48"
                 id="use209" />
              <use
                 x="63.623047"
                 xlink:href="#DejaVuSans-46"
                 id="use211" />
              <use
                 x="95.410156"
                 xlink:href="#DejaVuSans-56"
                 id="use213" />
            </g>
          </g>
        </g>
        <g
           id="ytick_6">
          <g
             id="line2d_12">
            <g
               id="g221">
              <use
                 style="stroke:#000000;stroke-width:0.8;"
                 x="57.6"
                 xlink:href="#m1a84e2d09b"
                 y="90.181994"
                 id="use219" />
            </g>
          </g>
          <g
             id="text_13">
            <!-- 0.9 -->
            <defs
               id="defs225">
              <path
                 d="M 10.984375 1.515625  L 10.984375 10.5  Q 14.703125 8.734375 18.5 7.8125  Q 22.3125 6.890625 25.984375 6.890625  Q 35.75 6.890625 40.890625 13.453125  Q 46.046875 20.015625 46.78125 33.40625  Q 43.953125 29.203125 39.59375 26.953125  Q 35.25 24.703125 29.984375 24.703125  Q 19.046875 24.703125 12.671875 31.3125  Q 6.296875 37.9375 6.296875 49.421875  Q 6.296875 60.640625 12.9375 67.421875  Q 19.578125 74.21875 30.609375 74.21875  Q 43.265625 74.21875 49.921875 64.515625  Q 56.59375 54.828125 56.59375 36.375  Q 56.59375 19.140625 48.40625 8.859375  Q 40.234375 -1.421875 26.421875 -1.421875  Q 22.703125 -1.421875 18.890625 -0.6875  Q 15.09375 0.046875 10.984375 1.515625  z M 30.609375 32.421875  Q 37.25 32.421875 41.125 36.953125  Q 45.015625 41.5 45.015625 49.421875  Q 45.015625 57.28125 41.125 61.84375  Q 37.25 66.40625 30.609375 66.40625  Q 23.96875 66.40625 20.09375 61.84375  Q 16.21875 57.28125 16.21875 49.421875  Q 16.21875 41.5 20.09375 36.953125  Q 23.96875 32.421875 30.609375 32.421875  z "
                 id="DejaVuSans-57" />
            </defs>
            <g
               transform="translate(34.696875 93.981212)scale(0.1 -0.1)"
               id="g233">
              <use
                 xlink:href="#DejaVuSans-48"
                 id="use227" />
              <use
                 x="63.623047"
                 xlink:href="#DejaVuSans-46"
                 id="use229" />
              <use
                 x="95.410156"
                 xlink:href="#DejaVuSans-57"
                 id="use231" />
            </g>
          </g>
        </g>
        <g
           id="ytick_7">
          <g
             id="line2d_13">
            <g
               id="g239">
              <use
                 style="stroke:#000000;stroke-width:0.8;"
                 x="57.6"
                 xlink:href="#m1a84e2d09b"
                 y="53.548768"
                 id="use237" />
            </g>
          </g>
          <g
             id="text_14">
            <!-- 1.0 -->
            <g
               transform="translate(34.696875 57.347986)scale(0.1 -0.1)"
               id="g248">
              <use
                 xlink:href="#DejaVuSans-49"
                 id="use242" />
              <use
                 x="63.623047"
                 xlink:href="#DejaVuSans-46"
                 id="use244" />
              <use
                 x="95.410156"
                 xlink:href="#DejaVuSans-48"
                 id="use246" />
            </g>
          </g>
        </g>
        <g
           id="text_15">
          <!-- % of A with more depth -->
          <defs
             id="defs262">
            <path
               d="M 72.703125 32.078125  Q 68.453125 32.078125 66.03125 28.46875  Q 63.625 24.859375 63.625 18.40625  Q 63.625 12.0625 66.03125 8.421875  Q 68.453125 4.78125 72.703125 4.78125  Q 76.859375 4.78125 79.265625 8.421875  Q 81.6875 12.0625 81.6875 18.40625  Q 81.6875 24.8125 79.265625 28.4375  Q 76.859375 32.078125 72.703125 32.078125  z M 72.703125 38.28125  Q 80.421875 38.28125 84.953125 32.90625  Q 89.5 27.546875 89.5 18.40625  Q 89.5 9.28125 84.9375 3.921875  Q 80.375 -1.421875 72.703125 -1.421875  Q 64.890625 -1.421875 60.34375 3.921875  Q 55.8125 9.28125 55.8125 18.40625  Q 55.8125 27.59375 60.375 32.9375  Q 64.9375 38.28125 72.703125 38.28125  z M 22.3125 68.015625  Q 18.109375 68.015625 15.6875 64.375  Q 13.28125 60.75 13.28125 54.390625  Q 13.28125 47.953125 15.671875 44.328125  Q 18.0625 40.71875 22.3125 40.71875  Q 26.5625 40.71875 28.96875 44.328125  Q 31.390625 47.953125 31.390625 54.390625  Q 31.390625 60.6875 28.953125 64.34375  Q 26.515625 68.015625 22.3125 68.015625  z M 66.40625 74.21875  L 74.21875 74.21875  L 28.609375 -1.421875  L 20.796875 -1.421875  z M 22.3125 74.21875  Q 30.03125 74.21875 34.609375 68.875  Q 39.203125 63.53125 39.203125 54.390625  Q 39.203125 45.171875 34.640625 39.84375  Q 30.078125 34.515625 22.3125 34.515625  Q 14.546875 34.515625 10.03125 39.859375  Q 5.515625 45.21875 5.515625 54.390625  Q 5.515625 63.484375 10.046875 68.84375  Q 14.59375 74.21875 22.3125 74.21875  z "
               id="DejaVuSans-37" />
            <path
               id="DejaVuSans-32" />
            <path
               d="M 30.609375 48.390625  Q 23.390625 48.390625 19.1875 42.75  Q 14.984375 37.109375 14.984375 27.296875  Q 14.984375 17.484375 19.15625 11.84375  Q 23.34375 6.203125 30.609375 6.203125  Q 37.796875 6.203125 41.984375 11.859375  Q 46.1875 17.53125 46.1875 27.296875  Q 46.1875 37.015625 41.984375 42.703125  Q 37.796875 48.390625 30.609375 48.390625  z M 30.609375 56  Q 42.328125 56 49.015625 48.375  Q 55.71875 40.765625 55.71875 27.296875  Q 55.71875 13.875 49.015625 6.21875  Q 42.328125 -1.421875 30.609375 -1.421875  Q 18.84375 -1.421875 12.171875 6.21875  Q 5.515625 13.875 5.515625 27.296875  Q 5.515625 40.765625 12.171875 48.375  Q 18.84375 56 30.609375 56  z "
               id="DejaVuSans-111" />
            <path
               d="M 37.109375 75.984375  L 37.109375 68.5  L 28.515625 68.5  Q 23.6875 68.5 21.796875 66.546875  Q 19.921875 64.59375 19.921875 59.515625  L 19.921875 54.6875  L 34.71875 54.6875  L 34.71875 47.703125  L 19.921875 47.703125  L 19.921875 0  L 10.890625 0  L 10.890625 47.703125  L 2.296875 47.703125  L 2.296875 54.6875  L 10.890625 54.6875  L 10.890625 58.5  Q 10.890625 67.625 15.140625 71.796875  Q 19.390625 75.984375 28.609375 75.984375  z "
               id="DejaVuSans-102" />
            <path
               d="M 34.1875 63.1875  L 20.796875 26.90625  L 47.609375 26.90625  z M 28.609375 72.90625  L 39.796875 72.90625  L 67.578125 0  L 57.328125 0  L 50.6875 18.703125  L 17.828125 18.703125  L 11.1875 0  L 0.78125 0  z "
               id="DejaVuSans-65" />
            <path
               d="M 4.203125 54.6875  L 13.1875 54.6875  L 24.421875 12.015625  L 35.59375 54.6875  L 46.1875 54.6875  L 57.421875 12.015625  L 68.609375 54.6875  L 77.59375 54.6875  L 63.28125 0  L 52.6875 0  L 40.921875 44.828125  L 29.109375 0  L 18.5 0  z "
               id="DejaVuSans-119" />
            <path
               d="M 9.421875 54.6875  L 18.40625 54.6875  L 18.40625 0  L 9.421875 0  z M 9.421875 75.984375  L 18.40625 75.984375  L 18.40625 64.59375  L 9.421875 64.59375  z "
               id="DejaVuSans-105" />
            <path
               d="M 52 44.1875  Q 55.375 50.25 60.0625 53.125  Q 64.75 56 71.09375 56  Q 79.640625 56 84.28125 50.015625  Q 88.921875 44.046875 88.921875 33.015625  L 88.921875 0  L 79.890625 0  L 79.890625 32.71875  Q 79.890625 40.578125 77.09375 44.375  Q 74.3125 48.1875 68.609375 48.1875  Q 61.625 48.1875 57.5625 43.546875  Q 53.515625 38.921875 53.515625 30.90625  L 53.515625 0  L 44.484375 0  L 44.484375 32.71875  Q 44.484375 40.625 41.703125 44.40625  Q 38.921875 48.1875 33.109375 48.1875  Q 26.21875 48.1875 22.15625 43.53125  Q 18.109375 38.875 18.109375 30.90625  L 18.109375 0  L 9.078125 0  L 9.078125 54.6875  L 18.109375 54.6875  L 18.109375 46.1875  Q 21.1875 51.21875 25.484375 53.609375  Q 29.78125 56 35.6875 56  Q 41.65625 56 45.828125 52.96875  Q 50 49.953125 52 44.1875  z "
               id="DejaVuSans-109" />
            <path
               d="M 41.109375 46.296875  Q 39.59375 47.171875 37.8125 47.578125  Q 36.03125 48 33.890625 48  Q 26.265625 48 22.1875 43.046875  Q 18.109375 38.09375 18.109375 28.8125  L 18.109375 0  L 9.078125 0  L 9.078125 54.6875  L 18.109375 54.6875  L 18.109375 46.1875  Q 20.953125 51.171875 25.484375 53.578125  Q 30.03125 56 36.53125 56  Q 37.453125 56 38.578125 55.875  Q 39.703125 55.765625 41.0625 55.515625  z "
               id="DejaVuSans-114" />
            <path
               d="M 45.40625 46.390625  L 45.40625 75.984375  L 54.390625 75.984375  L 54.390625 0  L 45.40625 0  L 45.40625 8.203125  Q 42.578125 3.328125 38.25 0.953125  Q 33.9375 -1.421875 27.875 -1.421875  Q 17.96875 -1.421875 11.734375 6.484375  Q 5.515625 14.40625 5.515625 27.296875  Q 5.515625 40.1875 11.734375 48.09375  Q 17.96875 56 27.875 56  Q 33.9375 56 38.25 53.625  Q 42.578125 51.265625 45.40625 46.390625  z M 14.796875 27.296875  Q 14.796875 17.390625 18.875 11.75  Q 22.953125 6.109375 30.078125 6.109375  Q 37.203125 6.109375 41.296875 11.75  Q 45.40625 17.390625 45.40625 27.296875  Q 45.40625 37.203125 41.296875 42.84375  Q 37.203125 48.484375 30.078125 48.484375  Q 22.953125 48.484375 18.875 42.84375  Q 14.796875 37.203125 14.796875 27.296875  z "
               id="DejaVuSans-100" />
          </defs>
          <g
             transform="translate(28.617187 233.685031)rotate(-90)scale(0.1 -0.1)"
             id="g308">
            <use
               xlink:href="#DejaVuSans-37"
               id="use264" />
            <use
               x="95.019531"
               xlink:href="#DejaVuSans-32"
               id="use266" />
            <use
               x="126.806641"
               xlink:href="#DejaVuSans-111"
               id="use268" />
            <use
               x="187.988281"
               xlink:href="#DejaVuSans-102"
               id="use270" />
            <use
               x="223.193359"
               xlink:href="#DejaVuSans-32"
               id="use272" />
            <use
               x="254.980469"
               xlink:href="#DejaVuSans-65"
               id="use274" />
            <use
               x="323.388672"
               xlink:href="#DejaVuSans-32"
               id="use276" />
            <use
               x="355.175781"
               xlink:href="#DejaVuSans-119"
               id="use278" />
            <use
               x="436.962891"
               xlink:href="#DejaVuSans-105"
               id="use280" />
            <use
               x="464.746094"
               xlink:href="#DejaVuSans-116"
               id="use282" />
            <use
               x="503.955078"
               xlink:href="#DejaVuSans-104"
               id="use284" />
            <use
               x="567.333984"
               xlink:href="#DejaVuSans-32"
               id="use286" />
            <use
               x="599.121094"
               xlink:href="#DejaVuSans-109"
               id="use288" />
            <use
               x="696.533203"
               xlink:href="#DejaVuSans-111"
               id="use290" />
            <use
               x="757.714844"
               xlink:href="#DejaVuSans-114"
               id="use292" />
            <use
               x="798.796875"
               xlink:href="#DejaVuSans-101"
               id="use294" />
            <use
               x="860.320312"
               xlink:href="#DejaVuSans-32"
               id="use296" />
            <use
               x="892.107422"
               xlink:href="#DejaVuSans-100"
               id="use298" />
            <use
               x="955.583984"
               xlink:href="#DejaVuSans-101"
               id="use300" />
            <use
               x="1017.107422"
               xlink:href="#DejaVuSans-112"
               id="use302" />
            <use
               x="1080.583984"
               xlink:href="#DejaVuSans-116"
               id="use304" />
            <use
               x="1119.792969"
               xlink:href="#DejaVuSans-104"
               id="use306" />
          </g>
        </g>
      </g>
      <g
         id="line2d_14">
        <path
           clip-path="url(#ped30158b41)"
           d="M 73.832727 53.568  L 77.112066 63.957073  L 80.391405 65.279386  L 83.670744 72.348426  L 86.950083 74.012747  L 90.229421 83.03606  L 93.50876 85.110746  L 96.788099 92.383504  L 100.067438 94.528453  L 103.346777 102.222932  L 106.626116 104.514377  L 109.905455 111.133451  L 113.184793 113.41017  L 116.464132 119.988142  L 119.743471 122.316366  L 123.02281 128.184899  L 126.302149 130.481033  L 129.581488 136.114784  L 132.860826 138.403957  L 136.140165 143.497002  L 139.419504 145.72291  L 142.698843 150.637074  L 145.978182 152.822649  L 149.257521 157.352201  L 152.53686 159.481873  L 155.816198 163.800088  L 159.095537 165.904813  L 162.374876 169.919119  L 165.654215 171.968125  L 168.933554 175.788238  L 172.212893 177.774638  L 175.492231 181.378102  L 178.77157 183.324132  L 182.050909 186.771172  L 185.330248 188.669799  L 188.609587 191.923342  L 191.888926 193.789182  L 195.168264 196.897805  L 198.447603 198.719429  L 201.726942 201.670601  L 205.006281 203.462112  L 208.28562 206.279684  L 211.564959 208.023169  L 214.844298 210.73465  L 218.123636 212.433333  L 221.402975 215.043084  L 224.682314 216.691396  L 227.961653 219.175752  L 231.240992 220.811059  L 234.520331 223.219584  L 237.799669 224.820529  L 241.079008 227.145273  L 244.358347 228.730613  L 247.637686 230.944578  L 250.917025 232.477899  L 254.196364 234.63446  L 257.475702 236.148951  L 260.755041 238.224883  L 264.03438 239.691164  L 267.313719 241.684818  L 270.593058 243.133991  L 273.872397 245.069251  L 277.151736 246.482964  L 280.431074 248.370967  L 283.710413 249.767463  L 286.989752 251.607293  L 290.269091 252.966313  L 293.54843 254.756871  L 296.827769 256.079514  L 300.107107 257.78904  L 303.386446 259.07798  L 306.665785 260.744719  L 309.945124 262.018529  L 313.224463 263.634714  L 316.503802 264.875848  L 319.78314 266.4506  L 323.062479 267.669754  L 326.341818 269.18256  L 329.621157 270.382957  L 332.900496 271.870926  L 336.179835 273.050186  L 339.459174 274.479541  L 342.738512 275.631802  L 346.017851 277.029653  L 349.29719 278.168727  L 352.576529 279.527123  L 355.855868 280.63667  L 359.135207 281.956968  L 362.414545 283.038308  L 365.693884 284.321533  L 368.973223 285.388366  L 372.252562 286.648806  L 375.531901 287.68864  L 378.81124 288.930946  L 382.090579 289.952756  L 385.369917 291.161689  L 388.649256 292.163608  L 391.928595 293.345652  L 395.207934 294.336068  L 398.487273 295.488  "
           style="fill:none;stroke:#1f77b4;stroke-linecap:square;stroke-width:1.5;"
           id="path312" />
      </g>
      <g
         id="patch_3">
        <path
           d="M 57.6 307.584  L 57.6 41.472  "
           style="fill:none;stroke:#000000;stroke-linecap:square;stroke-linejoin:miter;stroke-width:0.8;"
           id="path315" />
      </g>
      <g
         id="patch_4">
        <path
           d="M 414.72 307.584  L 414.72 41.472  "
           style="fill:none;stroke:#000000;stroke-linecap:square;stroke-linejoin:miter;stroke-width:0.8;"
           id="path318" />
      </g>
      <g
         id="patch_5">
        <path
           d="M 57.6 307.584  L 414.72 307.584  "
           style="fill:none;stroke:#000000;stroke-linecap:square;stroke-linejoin:miter;stroke-width:0.8;"
           id="path321" />
      </g>
      <g
         id="patch_6">
        <path
           d="M 57.6 41.472  L 414.72 41.472  "
           style="fill:none;stroke:#000000;stroke-linecap:square;stroke-linejoin:miter;stroke-width:0.8;"
           id="path324" />
      </g>
    </g>
  </g>
  <defs
     id="defs332">
    <clipPath
       id="ped30158b41">
      <rect
         height="266.112"
         width="357.12"
         x="57.6"
         y="41.472"
         id="rect329" />
    </clipPath>
  </defs>
</svg>
