<?xml version="1.0" encoding="utf-8" standalone="no"?>
<!DOCTYPE svg PUBLIC "-//W3C//DTD SVG 1.1//EN"
  "http://www.w3.org/Graphics/SVG/1.1/DTD/svg11.dtd">
<!-- Created with matplotlib (https://matplotlib.org/) -->
<svg height="345.6pt" version="1.1" viewBox="0 0 460.8 345.6" width="460.8pt" xmlns="http://www.w3.org/2000/svg" xmlns:xlink="http://www.w3.org/1999/xlink">
 <defs>
  <style type="text/css">
*{stroke-linecap:butt;stroke-linejoin:round;}
  </style>
 </defs>
 <g id="figure_1">
  <g id="patch_1">
   <path d="M 0 345.6 
L 460.8 345.6 
L 460.8 0 
L 0 0 
z
" style="fill:#ffffff;"/>
  </g>
  <g id="axes_1">
   <g id="patch_2">
    <path d="M 57.6 307.584 
L 414.72 307.584 
L 414.72 41.472 
L 57.6 41.472 
z
" style="fill:#ffffff;"/>
   </g>
   <g id="matplotlib.axis_1">
    <g id="xtick_1">
     <g id="line2d_1">
      <defs>
       <path d="M 0 0 
L 0 3.5 
" id="m98841124b9" style="stroke:#000000;stroke-width:0.8;"/>
      </defs>
      <g>
       <use style="stroke:#000000;stroke-width:0.8;" x="73.832727" xlink:href="#m98841124b9" y="307.584"/>
      </g>
     </g>
     <g id="text_1">
      <!-- 0 -->
      <defs>
       <path d="M 31.78125 66.40625 
Q 24.171875 66.40625 20.328125 58.90625 
Q 16.5 51.421875 16.5 36.375 
Q 16.5 21.390625 20.328125 13.890625 
Q 24.171875 6.390625 31.78125 6.390625 
Q 39.453125 6.390625 43.28125 13.890625 
Q 47.125 21.390625 47.125 36.375 
Q 47.125 51.421875 43.28125 58.90625 
Q 39.453125 66.40625 31.78125 66.40625 
z
M 31.78125 74.21875 
Q 44.046875 74.21875 50.515625 64.515625 
Q 56.984375 54.828125 56.984375 36.375 
Q 56.984375 17.96875 50.515625 8.265625 
Q 44.046875 -1.421875 31.78125 -1.421875 
Q 19.53125 -1.421875 13.0625 8.265625 
Q 6.59375 17.96875 6.59375 36.375 
Q 6.59375 54.828125 13.0625 64.515625 
Q 19.53125 74.21875 31.78125 74.21875 
z
" id="DejaVuSans-48"/>
      </defs>
      <g transform="translate(70.651477 322.182437)scale(0.1 -0.1)">
       <use xlink:href="#DejaVuSans-48"/>
      </g>
     </g>
    </g>
    <g id="xtick_2">
     <g id="line2d_2">
      <g>
       <use style="stroke:#000000;stroke-width:0.8;" x="138.893758" xlink:href="#m98841124b9" y="307.584"/>
      </g>
     </g>
     <g id="text_2">
      <!-- 100 -->
      <defs>
       <path d="M 12.40625 8.296875 
L 28.515625 8.296875 
L 28.515625 63.921875 
L 10.984375 60.40625 
L 10.984375 69.390625 
L 28.421875 72.90625 
L 38.28125 72.90625 
L 38.28125 8.296875 
L 54.390625 8.296875 
L 54.390625 0 
L 12.40625 0 
z
" id="DejaVuSans-49"/>
      </defs>
      <g transform="translate(129.350008 322.182437)scale(0.1 -0.1)">
       <use xlink:href="#DejaVuSans-49"/>
       <use x="63.623047" xlink:href="#DejaVuSans-48"/>
       <use x="127.246094" xlink:href="#DejaVuSans-48"/>
      </g>
     </g>
    </g>
    <g id="xtick_3">
     <g id="line2d_3">
      <g>
       <use style="stroke:#000000;stroke-width:0.8;" x="203.95479" xlink:href="#m98841124b9" y="307.584"/>
      </g>
     </g>
     <g id="text_3">
      <!-- 200 -->
      <defs>
       <path d="M 19.1875 8.296875 
L 53.609375 8.296875 
L 53.609375 0 
L 7.328125 0 
L 7.328125 8.296875 
Q 12.9375 14.109375 22.625 23.890625 
Q 32.328125 33.6875 34.8125 36.53125 
Q 39.546875 41.84375 41.421875 45.53125 
Q 43.3125 49.21875 43.3125 52.78125 
Q 43.3125 58.59375 39.234375 62.25 
Q 35.15625 65.921875 28.609375 65.921875 
Q 23.96875 65.921875 18.8125 64.3125 
Q 13.671875 62.703125 7.8125 59.421875 
L 7.8125 69.390625 
Q 13.765625 71.78125 18.9375 73 
Q 24.125 74.21875 28.421875 74.21875 
Q 39.75 74.21875 46.484375 68.546875 
Q 53.21875 62.890625 53.21875 53.421875 
Q 53.21875 48.921875 51.53125 44.890625 
Q 49.859375 40.875 45.40625 35.40625 
Q 44.1875 33.984375 37.640625 27.21875 
Q 31.109375 20.453125 19.1875 8.296875 
z
" id="DejaVuSans-50"/>
      </defs>
      <g transform="translate(194.41104 322.182437)scale(0.1 -0.1)">
       <use xlink:href="#DejaVuSans-50"/>
       <use x="63.623047" xlink:href="#DejaVuSans-48"/>
       <use x="127.246094" xlink:href="#DejaVuSans-48"/>
      </g>
     </g>
    </g>
    <g id="xtick_4">
     <g id="line2d_4">
      <g>
       <use style="stroke:#000000;stroke-width:0.8;" x="269.015821" xlink:href="#m98841124b9" y="307.584"/>
      </g>
     </g>
     <g id="text_4">
      <!-- 300 -->
      <defs>
       <path d="M 40.578125 39.3125 
Q 47.65625 37.796875 51.625 33 
Q 55.609375 28.21875 55.609375 21.1875 
Q 55.609375 10.40625 48.1875 4.484375 
Q 40.765625 -1.421875 27.09375 -1.421875 
Q 22.515625 -1.421875 17.65625 -0.515625 
Q 12.796875 0.390625 7.625 2.203125 
L 7.625 11.71875 
Q 11.71875 9.328125 16.59375 8.109375 
Q 21.484375 6.890625 26.8125 6.890625 
Q 36.078125 6.890625 40.9375 10.546875 
Q 45.796875 14.203125 45.796875 21.1875 
Q 45.796875 27.640625 41.28125 31.265625 
Q 36.765625 34.90625 28.71875 34.90625 
L 20.21875 34.90625 
L 20.21875 43.015625 
L 29.109375 43.015625 
Q 36.375 43.015625 40.234375 45.921875 
Q 44.09375 48.828125 44.09375 54.296875 
Q 44.09375 59.90625 40.109375 62.90625 
Q 36.140625 65.921875 28.71875 65.921875 
Q 24.65625 65.921875 20.015625 65.03125 
Q 15.375 64.15625 9.8125 62.3125 
L 9.8125 71.09375 
Q 15.4375 72.65625 20.34375 73.4375 
Q 25.25 74.21875 29.59375 74.21875 
Q 40.828125 74.21875 47.359375 69.109375 
Q 53.90625 64.015625 53.90625 55.328125 
Q 53.90625 49.265625 50.4375 45.09375 
Q 46.96875 40.921875 40.578125 39.3125 
z
" id="DejaVuSans-51"/>
      </defs>
      <g transform="translate(259.472071 322.182437)scale(0.1 -0.1)">
       <use xlink:href="#DejaVuSans-51"/>
       <use x="63.623047" xlink:href="#DejaVuSans-48"/>
       <use x="127.246094" xlink:href="#DejaVuSans-48"/>
      </g>
     </g>
    </g>
    <g id="xtick_5">
     <g id="line2d_5">
      <g>
       <use style="stroke:#000000;stroke-width:0.8;" x="334.076852" xlink:href="#m98841124b9" y="307.584"/>
      </g>
     </g>
     <g id="text_5">
      <!-- 400 -->
      <defs>
       <path d="M 37.796875 64.3125 
L 12.890625 25.390625 
L 37.796875 25.390625 
z
M 35.203125 72.90625 
L 47.609375 72.90625 
L 47.609375 25.390625 
L 58.015625 25.390625 
L 58.015625 17.1875 
L 47.609375 17.1875 
L 47.609375 0 
L 37.796875 0 
L 37.796875 17.1875 
L 4.890625 17.1875 
L 4.890625 26.703125 
z
" id="DejaVuSans-52"/>
      </defs>
      <g transform="translate(324.533102 322.182437)scale(0.1 -0.1)">
       <use xlink:href="#DejaVuSans-52"/>
       <use x="63.623047" xlink:href="#DejaVuSans-48"/>
       <use x="127.246094" xlink:href="#DejaVuSans-48"/>
      </g>
     </g>
    </g>
    <g id="xtick_6">
     <g id="line2d_6">
      <g>
       <use style="stroke:#000000;stroke-width:0.8;" x="399.137883" xlink:href="#m98841124b9" y="307.584"/>
      </g>
     </g>
     <g id="text_6">
      <!-- 500 -->
      <defs>
       <path d="M 10.796875 72.90625 
L 49.515625 72.90625 
L 49.515625 64.59375 
L 19.828125 64.59375 
L 19.828125 46.734375 
Q 21.96875 47.46875 24.109375 47.828125 
Q 26.265625 48.1875 28.421875 48.1875 
Q 40.625 48.1875 47.75 41.5 
Q 54.890625 34.8125 54.890625 23.390625 
Q 54.890625 11.625 47.5625 5.09375 
Q 40.234375 -1.421875 26.90625 -1.421875 
Q 22.3125 -1.421875 17.546875 -0.640625 
Q 12.796875 0.140625 7.71875 1.703125 
L 7.71875 11.625 
Q 12.109375 9.234375 16.796875 8.0625 
Q 21.484375 6.890625 26.703125 6.890625 
Q 35.15625 6.890625 40.078125 11.328125 
Q 45.015625 15.765625 45.015625 23.390625 
Q 45.015625 31 40.078125 35.4375 
Q 35.15625 39.890625 26.703125 39.890625 
Q 22.75 39.890625 18.8125 39.015625 
Q 14.890625 38.140625 10.796875 36.28125 
z
" id="DejaVuSans-53"/>
      </defs>
      <g transform="translate(389.594133 322.182437)scale(0.1 -0.1)">
       <use xlink:href="#DejaVuSans-53"/>
       <use x="63.623047" xlink:href="#DejaVuSans-48"/>
       <use x="127.246094" xlink:href="#DejaVuSans-48"/>
      </g>
     </g>
    </g>
    <g id="text_7">
     <!-- Distance from restriction site, b -->
     <defs>
      <path d="M 19.671875 64.796875 
L 19.671875 8.109375 
L 31.59375 8.109375 
Q 46.6875 8.109375 53.6875 14.9375 
Q 60.6875 21.78125 60.6875 36.53125 
Q 60.6875 51.171875 53.6875 57.984375 
Q 46.6875 64.796875 31.59375 64.796875 
z
M 9.8125 72.90625 
L 30.078125 72.90625 
Q 51.265625 72.90625 61.171875 64.09375 
Q 71.09375 55.28125 71.09375 36.53125 
Q 71.09375 17.671875 61.125 8.828125 
Q 51.171875 0 30.078125 0 
L 9.8125 0 
z
" id="DejaVuSans-68"/>
      <path d="M 9.421875 54.6875 
L 18.40625 54.6875 
L 18.40625 0 
L 9.421875 0 
z
M 9.421875 75.984375 
L 18.40625 75.984375 
L 18.40625 64.59375 
L 9.421875 64.59375 
z
" id="DejaVuSans-105"/>
      <path d="M 44.28125 53.078125 
L 44.28125 44.578125 
Q 40.484375 46.53125 36.375 47.5 
Q 32.28125 48.484375 27.875 48.484375 
Q 21.1875 48.484375 17.84375 46.4375 
Q 14.5 44.390625 14.5 40.28125 
Q 14.5 37.15625 16.890625 35.375 
Q 19.28125 33.59375 26.515625 31.984375 
L 29.59375 31.296875 
Q 39.15625 29.25 43.1875 25.515625 
Q 47.21875 21.78125 47.21875 15.09375 
Q 47.21875 7.46875 41.1875 3.015625 
Q 35.15625 -1.421875 24.609375 -1.421875 
Q 20.21875 -1.421875 15.453125 -0.5625 
Q 10.6875 0.296875 5.421875 2 
L 5.421875 11.28125 
Q 10.40625 8.6875 15.234375 7.390625 
Q 20.0625 6.109375 24.8125 6.109375 
Q 31.15625 6.109375 34.5625 8.28125 
Q 37.984375 10.453125 37.984375 14.40625 
Q 37.984375 18.0625 35.515625 20.015625 
Q 33.0625 21.96875 24.703125 23.78125 
L 21.578125 24.515625 
Q 13.234375 26.265625 9.515625 29.90625 
Q 5.8125 33.546875 5.8125 39.890625 
Q 5.8125 47.609375 11.28125 51.796875 
Q 16.75 56 26.8125 56 
Q 31.78125 56 36.171875 55.265625 
Q 40.578125 54.546875 44.28125 53.078125 
z
" id="DejaVuSans-115"/>
      <path d="M 18.3125 70.21875 
L 18.3125 54.6875 
L 36.8125 54.6875 
L 36.8125 47.703125 
L 18.3125 47.703125 
L 18.3125 18.015625 
Q 18.3125 11.328125 20.140625 9.421875 
Q 21.96875 7.515625 27.59375 7.515625 
L 36.8125 7.515625 
L 36.8125 0 
L 27.59375 0 
Q 17.1875 0 13.234375 3.875 
Q 9.28125 7.765625 9.28125 18.015625 
L 9.28125 47.703125 
L 2.6875 47.703125 
L 2.6875 54.6875 
L 9.28125 54.6875 
L 9.28125 70.21875 
z
" id="DejaVuSans-116"/>
      <path d="M 34.28125 27.484375 
Q 23.390625 27.484375 19.1875 25 
Q 14.984375 22.515625 14.984375 16.5 
Q 14.984375 11.71875 18.140625 8.90625 
Q 21.296875 6.109375 26.703125 6.109375 
Q 34.1875 6.109375 38.703125 11.40625 
Q 43.21875 16.703125 43.21875 25.484375 
L 43.21875 27.484375 
z
M 52.203125 31.203125 
L 52.203125 0 
L 43.21875 0 
L 43.21875 8.296875 
Q 40.140625 3.328125 35.546875 0.953125 
Q 30.953125 -1.421875 24.3125 -1.421875 
Q 15.921875 -1.421875 10.953125 3.296875 
Q 6 8.015625 6 15.921875 
Q 6 25.140625 12.171875 29.828125 
Q 18.359375 34.515625 30.609375 34.515625 
L 43.21875 34.515625 
L 43.21875 35.40625 
Q 43.21875 41.609375 39.140625 45 
Q 35.0625 48.390625 27.6875 48.390625 
Q 23 48.390625 18.546875 47.265625 
Q 14.109375 46.140625 10.015625 43.890625 
L 10.015625 52.203125 
Q 14.9375 54.109375 19.578125 55.046875 
Q 24.21875 56 28.609375 56 
Q 40.484375 56 46.34375 49.84375 
Q 52.203125 43.703125 52.203125 31.203125 
z
" id="DejaVuSans-97"/>
      <path d="M 54.890625 33.015625 
L 54.890625 0 
L 45.90625 0 
L 45.90625 32.71875 
Q 45.90625 40.484375 42.875 44.328125 
Q 39.84375 48.1875 33.796875 48.1875 
Q 26.515625 48.1875 22.3125 43.546875 
Q 18.109375 38.921875 18.109375 30.90625 
L 18.109375 0 
L 9.078125 0 
L 9.078125 54.6875 
L 18.109375 54.6875 
L 18.109375 46.1875 
Q 21.34375 51.125 25.703125 53.5625 
Q 30.078125 56 35.796875 56 
Q 45.21875 56 50.046875 50.171875 
Q 54.890625 44.34375 54.890625 33.015625 
z
" id="DejaVuSans-110"/>
      <path d="M 48.78125 52.59375 
L 48.78125 44.1875 
Q 44.96875 46.296875 41.140625 47.34375 
Q 37.3125 48.390625 33.40625 48.390625 
Q 24.65625 48.390625 19.8125 42.84375 
Q 14.984375 37.3125 14.984375 27.296875 
Q 14.984375 17.28125 19.8125 11.734375 
Q 24.65625 6.203125 33.40625 6.203125 
Q 37.3125 6.203125 41.140625 7.25 
Q 44.96875 8.296875 48.78125 10.40625 
L 48.78125 2.09375 
Q 45.015625 0.34375 40.984375 -0.53125 
Q 36.96875 -1.421875 32.421875 -1.421875 
Q 20.0625 -1.421875 12.78125 6.34375 
Q 5.515625 14.109375 5.515625 27.296875 
Q 5.515625 40.671875 12.859375 48.328125 
Q 20.21875 56 33.015625 56 
Q 37.15625 56 41.109375 55.140625 
Q 45.0625 54.296875 48.78125 52.59375 
z
" id="DejaVuSans-99"/>
      <path d="M 56.203125 29.59375 
L 56.203125 25.203125 
L 14.890625 25.203125 
Q 15.484375 15.921875 20.484375 11.0625 
Q 25.484375 6.203125 34.421875 6.203125 
Q 39.59375 6.203125 44.453125 7.46875 
Q 49.3125 8.734375 54.109375 11.28125 
L 54.109375 2.78125 
Q 49.265625 0.734375 44.1875 -0.34375 
Q 39.109375 -1.421875 33.890625 -1.421875 
Q 20.796875 -1.421875 13.15625 6.1875 
Q 5.515625 13.8125 5.515625 26.8125 
Q 5.515625 40.234375 12.765625 48.109375 
Q 20.015625 56 32.328125 56 
Q 43.359375 56 49.78125 48.890625 
Q 56.203125 41.796875 56.203125 29.59375 
z
M 47.21875 32.234375 
Q 47.125 39.59375 43.09375 43.984375 
Q 39.0625 48.390625 32.421875 48.390625 
Q 24.90625 48.390625 20.390625 44.140625 
Q 15.875 39.890625 15.1875 32.171875 
z
" id="DejaVuSans-101"/>
      <path id="DejaVuSans-32"/>
      <path d="M 37.109375 75.984375 
L 37.109375 68.5 
L 28.515625 68.5 
Q 23.6875 68.5 21.796875 66.546875 
Q 19.921875 64.59375 19.921875 59.515625 
L 19.921875 54.6875 
L 34.71875 54.6875 
L 34.71875 47.703125 
L 19.921875 47.703125 
L 19.921875 0 
L 10.890625 0 
L 10.890625 47.703125 
L 2.296875 47.703125 
L 2.296875 54.6875 
L 10.890625 54.6875 
L 10.890625 58.5 
Q 10.890625 67.625 15.140625 71.796875 
Q 19.390625 75.984375 28.609375 75.984375 
z
" id="DejaVuSans-102"/>
      <path d="M 41.109375 46.296875 
Q 39.59375 47.171875 37.8125 47.578125 
Q 36.03125 48 33.890625 48 
Q 26.265625 48 22.1875 43.046875 
Q 18.109375 38.09375 18.109375 28.8125 
L 18.109375 0 
L 9.078125 0 
L 9.078125 54.6875 
L 18.109375 54.6875 
L 18.109375 46.1875 
Q 20.953125 51.171875 25.484375 53.578125 
Q 30.03125 56 36.53125 56 
Q 37.453125 56 38.578125 55.875 
Q 39.703125 55.765625 41.0625 55.515625 
z
" id="DejaVuSans-114"/>
      <path d="M 30.609375 48.390625 
Q 23.390625 48.390625 19.1875 42.75 
Q 14.984375 37.109375 14.984375 27.296875 
Q 14.984375 17.484375 19.15625 11.84375 
Q 23.34375 6.203125 30.609375 6.203125 
Q 37.796875 6.203125 41.984375 11.859375 
Q 46.1875 17.53125 46.1875 27.296875 
Q 46.1875 37.015625 41.984375 42.703125 
Q 37.796875 48.390625 30.609375 48.390625 
z
M 30.609375 56 
Q 42.328125 56 49.015625 48.375 
Q 55.71875 40.765625 55.71875 27.296875 
Q 55.71875 13.875 49.015625 6.21875 
Q 42.328125 -1.421875 30.609375 -1.421875 
Q 18.84375 -1.421875 12.171875 6.21875 
Q 5.515625 13.875 5.515625 27.296875 
Q 5.515625 40.765625 12.171875 48.375 
Q 18.84375 56 30.609375 56 
z
" id="DejaVuSans-111"/>
      <path d="M 52 44.1875 
Q 55.375 50.25 60.0625 53.125 
Q 64.75 56 71.09375 56 
Q 79.640625 56 84.28125 50.015625 
Q 88.921875 44.046875 88.921875 33.015625 
L 88.921875 0 
L 79.890625 0 
L 79.890625 32.71875 
Q 79.890625 40.578125 77.09375 44.375 
Q 74.3125 48.1875 68.609375 48.1875 
Q 61.625 48.1875 57.5625 43.546875 
Q 53.515625 38.921875 53.515625 30.90625 
L 53.515625 0 
L 44.484375 0 
L 44.484375 32.71875 
Q 44.484375 40.625 41.703125 44.40625 
Q 38.921875 48.1875 33.109375 48.1875 
Q 26.21875 48.1875 22.15625 43.53125 
Q 18.109375 38.875 18.109375 30.90625 
L 18.109375 0 
L 9.078125 0 
L 9.078125 54.6875 
L 18.109375 54.6875 
L 18.109375 46.1875 
Q 21.1875 51.21875 25.484375 53.609375 
Q 29.78125 56 35.6875 56 
Q 41.65625 56 45.828125 52.96875 
Q 50 49.953125 52 44.1875 
z
" id="DejaVuSans-109"/>
      <path d="M 11.71875 12.40625 
L 22.015625 12.40625 
L 22.015625 4 
L 14.015625 -11.625 
L 7.71875 -11.625 
L 11.71875 4 
z
" id="DejaVuSans-44"/>
      <path d="M 48.6875 27.296875 
Q 48.6875 37.203125 44.609375 42.84375 
Q 40.53125 48.484375 33.40625 48.484375 
Q 26.265625 48.484375 22.1875 42.84375 
Q 18.109375 37.203125 18.109375 27.296875 
Q 18.109375 17.390625 22.1875 11.75 
Q 26.265625 6.109375 33.40625 6.109375 
Q 40.53125 6.109375 44.609375 11.75 
Q 48.6875 17.390625 48.6875 27.296875 
z
M 18.109375 46.390625 
Q 20.953125 51.265625 25.265625 53.625 
Q 29.59375 56 35.59375 56 
Q 45.5625 56 51.78125 48.09375 
Q 58.015625 40.1875 58.015625 27.296875 
Q 58.015625 14.40625 51.78125 6.484375 
Q 45.5625 -1.421875 35.59375 -1.421875 
Q 29.59375 -1.421875 25.265625 0.953125 
Q 20.953125 3.328125 18.109375 8.203125 
L 18.109375 0 
L 9.078125 0 
L 9.078125 75.984375 
L 18.109375 75.984375 
z
" id="DejaVuSans-98"/>
     </defs>
     <g transform="translate(156.937344 335.860562)scale(0.1 -0.1)">
      <use xlink:href="#DejaVuSans-68"/>
      <use x="77.001953" xlink:href="#DejaVuSans-105"/>
      <use x="104.785156" xlink:href="#DejaVuSans-115"/>
      <use x="156.884766" xlink:href="#DejaVuSans-116"/>
      <use x="196.09375" xlink:href="#DejaVuSans-97"/>
      <use x="257.373047" xlink:href="#DejaVuSans-110"/>
      <use x="320.751953" xlink:href="#DejaVuSans-99"/>
      <use x="375.732422" xlink:href="#DejaVuSans-101"/>
      <use x="437.255859" xlink:href="#DejaVuSans-32"/>
      <use x="469.042969" xlink:href="#DejaVuSans-102"/>
      <use x="504.248047" xlink:href="#DejaVuSans-114"/>
      <use x="545.330078" xlink:href="#DejaVuSans-111"/>
      <use x="606.511719" xlink:href="#DejaVuSans-109"/>
      <use x="703.923828" xlink:href="#DejaVuSans-32"/>
      <use x="735.710938" xlink:href="#DejaVuSans-114"/>
      <use x="776.792969" xlink:href="#DejaVuSans-101"/>
      <use x="838.316406" xlink:href="#DejaVuSans-115"/>
      <use x="890.416016" xlink:href="#DejaVuSans-116"/>
      <use x="929.625" xlink:href="#DejaVuSans-114"/>
      <use x="970.738281" xlink:href="#DejaVuSans-105"/>
      <use x="998.521484" xlink:href="#DejaVuSans-99"/>
      <use x="1053.501953" xlink:href="#DejaVuSans-116"/>
      <use x="1092.710938" xlink:href="#DejaVuSans-105"/>
      <use x="1120.494141" xlink:href="#DejaVuSans-111"/>
      <use x="1181.675781" xlink:href="#DejaVuSans-110"/>
      <use x="1245.054688" xlink:href="#DejaVuSans-32"/>
      <use x="1276.841797" xlink:href="#DejaVuSans-115"/>
      <use x="1328.941406" xlink:href="#DejaVuSans-105"/>
      <use x="1356.724609" xlink:href="#DejaVuSans-116"/>
      <use x="1395.933594" xlink:href="#DejaVuSans-101"/>
      <use x="1457.457031" xlink:href="#DejaVuSans-44"/>
      <use x="1489.244141" xlink:href="#DejaVuSans-32"/>
      <use x="1521.03125" xlink:href="#DejaVuSans-98"/>
     </g>
    </g>
   </g>
   <g id="matplotlib.axis_2">
    <g id="ytick_1">
     <g id="line2d_7">
      <defs>
       <path d="M 0 0 
L -3.5 0 
" id="m5c4f28bc6c" style="stroke:#000000;stroke-width:0.8;"/>
      </defs>
      <g>
       <use style="stroke:#000000;stroke-width:0.8;" x="57.6" xlink:href="#m5c4f28bc6c" y="283.870759"/>
      </g>
     </g>
     <g id="text_8">
      <!-- $\mathdefault{10^{-2}}$ -->
      <defs>
       <path d="M 10.59375 35.5 
L 73.1875 35.5 
L 73.1875 27.203125 
L 10.59375 27.203125 
z
" id="DejaVuSans-8722"/>
      </defs>
      <g transform="translate(27.1 287.669977)scale(0.1 -0.1)">
       <use transform="translate(0 0.765625)" xlink:href="#DejaVuSans-49"/>
       <use transform="translate(63.623047 0.765625)" xlink:href="#DejaVuSans-48"/>
       <use transform="translate(128.203125 39.046875)scale(0.7)" xlink:href="#DejaVuSans-8722"/>
       <use transform="translate(186.855469 39.046875)scale(0.7)" xlink:href="#DejaVuSans-50"/>
      </g>
     </g>
    </g>
    <g id="ytick_2">
     <g id="line2d_8">
      <g>
       <use style="stroke:#000000;stroke-width:0.8;" x="57.6" xlink:href="#m5c4f28bc6c" y="224.004596"/>
      </g>
     </g>
     <g id="text_9">
      <!-- $\mathdefault{10^{-1}}$ -->
      <g transform="translate(27.1 227.803815)scale(0.1 -0.1)">
       <use transform="translate(0 0.684375)" xlink:href="#DejaVuSans-49"/>
       <use transform="translate(63.623047 0.684375)" xlink:href="#DejaVuSans-48"/>
       <use transform="translate(128.203125 38.965625)scale(0.7)" xlink:href="#DejaVuSans-8722"/>
       <use transform="translate(186.855469 38.965625)scale(0.7)" xlink:href="#DejaVuSans-49"/>
      </g>
     </g>
    </g>
    <g id="ytick_3">
     <g id="line2d_9">
      <g>
       <use style="stroke:#000000;stroke-width:0.8;" x="57.6" xlink:href="#m5c4f28bc6c" y="164.138434"/>
      </g>
     </g>
     <g id="text_10">
      <!-- $\mathdefault{10^{0}}$ -->
      <g transform="translate(33 167.937653)scale(0.1 -0.1)">
       <use transform="translate(0 0.765625)" xlink:href="#DejaVuSans-49"/>
       <use transform="translate(63.623047 0.765625)" xlink:href="#DejaVuSans-48"/>
       <use transform="translate(128.203125 39.046875)scale(0.7)" xlink:href="#DejaVuSans-48"/>
      </g>
     </g>
    </g>
    <g id="ytick_4">
     <g id="line2d_10">
      <g>
       <use style="stroke:#000000;stroke-width:0.8;" x="57.6" xlink:href="#m5c4f28bc6c" y="104.272272"/>
      </g>
     </g>
     <g id="text_11">
      <!-- $\mathdefault{10^{1}}$ -->
      <g transform="translate(33 108.071491)scale(0.1 -0.1)">
       <use transform="translate(0 0.684375)" xlink:href="#DejaVuSans-49"/>
       <use transform="translate(63.623047 0.684375)" xlink:href="#DejaVuSans-48"/>
       <use transform="translate(128.203125 38.965625)scale(0.7)" xlink:href="#DejaVuSans-49"/>
      </g>
     </g>
    </g>
    <g id="ytick_5">
     <g id="line2d_11">
      <g>
       <use style="stroke:#000000;stroke-width:0.8;" x="57.6" xlink:href="#m5c4f28bc6c" y="44.40611"/>
      </g>
     </g>
     <g id="text_12">
      <!-- $\mathdefault{10^{2}}$ -->
      <g transform="translate(33 48.205329)scale(0.1 -0.1)">
       <use transform="translate(0 0.765625)" xlink:href="#DejaVuSans-49"/>
       <use transform="translate(63.623047 0.765625)" xlink:href="#DejaVuSans-48"/>
       <use transform="translate(128.203125 39.046875)scale(0.7)" xlink:href="#DejaVuSans-50"/>
      </g>
     </g>
    </g>
    <g id="ytick_6">
     <g id="line2d_12">
      <defs>
       <path d="M 0 0 
L -2 0 
" id="m862376d536" style="stroke:#000000;stroke-width:0.6;"/>
      </defs>
      <g>
       <use style="stroke:#000000;stroke-width:0.6;" x="57.6" xlink:href="#m862376d536" y="301.892269"/>
      </g>
     </g>
    </g>
    <g id="ytick_7">
     <g id="line2d_13">
      <g>
       <use style="stroke:#000000;stroke-width:0.6;" x="57.6" xlink:href="#m862376d536" y="297.151992"/>
      </g>
     </g>
    </g>
    <g id="ytick_8">
     <g id="line2d_14">
      <g>
       <use style="stroke:#000000;stroke-width:0.6;" x="57.6" xlink:href="#m862376d536" y="293.144145"/>
      </g>
     </g>
    </g>
    <g id="ytick_9">
     <g id="line2d_15">
      <g>
       <use style="stroke:#000000;stroke-width:0.6;" x="57.6" xlink:href="#m862376d536" y="289.672389"/>
      </g>
     </g>
    </g>
    <g id="ytick_10">
     <g id="line2d_16">
      <g>
       <use style="stroke:#000000;stroke-width:0.6;" x="57.6" xlink:href="#m862376d536" y="286.610084"/>
      </g>
     </g>
    </g>
    <g id="ytick_11">
     <g id="line2d_17">
      <g>
       <use style="stroke:#000000;stroke-width:0.6;" x="57.6" xlink:href="#m862376d536" y="265.849248"/>
      </g>
     </g>
    </g>
    <g id="ytick_12">
     <g id="line2d_18">
      <g>
       <use style="stroke:#000000;stroke-width:0.6;" x="57.6" xlink:href="#m862376d536" y="255.30734"/>
      </g>
     </g>
    </g>
    <g id="ytick_13">
     <g id="line2d_19">
      <g>
       <use style="stroke:#000000;stroke-width:0.6;" x="57.6" xlink:href="#m862376d536" y="247.827738"/>
      </g>
     </g>
    </g>
    <g id="ytick_14">
     <g id="line2d_20">
      <g>
       <use style="stroke:#000000;stroke-width:0.6;" x="57.6" xlink:href="#m862376d536" y="242.026107"/>
      </g>
     </g>
    </g>
    <g id="ytick_15">
     <g id="line2d_21">
      <g>
       <use style="stroke:#000000;stroke-width:0.6;" x="57.6" xlink:href="#m862376d536" y="237.28583"/>
      </g>
     </g>
    </g>
    <g id="ytick_16">
     <g id="line2d_22">
      <g>
       <use style="stroke:#000000;stroke-width:0.6;" x="57.6" xlink:href="#m862376d536" y="233.277982"/>
      </g>
     </g>
    </g>
    <g id="ytick_17">
     <g id="line2d_23">
      <g>
       <use style="stroke:#000000;stroke-width:0.6;" x="57.6" xlink:href="#m862376d536" y="229.806227"/>
      </g>
     </g>
    </g>
    <g id="ytick_18">
     <g id="line2d_24">
      <g>
       <use style="stroke:#000000;stroke-width:0.6;" x="57.6" xlink:href="#m862376d536" y="226.743922"/>
      </g>
     </g>
    </g>
    <g id="ytick_19">
     <g id="line2d_25">
      <g>
       <use style="stroke:#000000;stroke-width:0.6;" x="57.6" xlink:href="#m862376d536" y="205.983086"/>
      </g>
     </g>
    </g>
    <g id="ytick_20">
     <g id="line2d_26">
      <g>
       <use style="stroke:#000000;stroke-width:0.6;" x="57.6" xlink:href="#m862376d536" y="195.441178"/>
      </g>
     </g>
    </g>
    <g id="ytick_21">
     <g id="line2d_27">
      <g>
       <use style="stroke:#000000;stroke-width:0.6;" x="57.6" xlink:href="#m862376d536" y="187.961575"/>
      </g>
     </g>
    </g>
    <g id="ytick_22">
     <g id="line2d_28">
      <g>
       <use style="stroke:#000000;stroke-width:0.6;" x="57.6" xlink:href="#m862376d536" y="182.159945"/>
      </g>
     </g>
    </g>
    <g id="ytick_23">
     <g id="line2d_29">
      <g>
       <use style="stroke:#000000;stroke-width:0.6;" x="57.6" xlink:href="#m862376d536" y="177.419668"/>
      </g>
     </g>
    </g>
    <g id="ytick_24">
     <g id="line2d_30">
      <g>
       <use style="stroke:#000000;stroke-width:0.6;" x="57.6" xlink:href="#m862376d536" y="173.41182"/>
      </g>
     </g>
    </g>
    <g id="ytick_25">
     <g id="line2d_31">
      <g>
       <use style="stroke:#000000;stroke-width:0.6;" x="57.6" xlink:href="#m862376d536" y="169.940065"/>
      </g>
     </g>
    </g>
    <g id="ytick_26">
     <g id="line2d_32">
      <g>
       <use style="stroke:#000000;stroke-width:0.6;" x="57.6" xlink:href="#m862376d536" y="166.87776"/>
      </g>
     </g>
    </g>
    <g id="ytick_27">
     <g id="line2d_33">
      <g>
       <use style="stroke:#000000;stroke-width:0.6;" x="57.6" xlink:href="#m862376d536" y="146.116924"/>
      </g>
     </g>
    </g>
    <g id="ytick_28">
     <g id="line2d_34">
      <g>
       <use style="stroke:#000000;stroke-width:0.6;" x="57.6" xlink:href="#m862376d536" y="135.575016"/>
      </g>
     </g>
    </g>
    <g id="ytick_29">
     <g id="line2d_35">
      <g>
       <use style="stroke:#000000;stroke-width:0.6;" x="57.6" xlink:href="#m862376d536" y="128.095413"/>
      </g>
     </g>
    </g>
    <g id="ytick_30">
     <g id="line2d_36">
      <g>
       <use style="stroke:#000000;stroke-width:0.6;" x="57.6" xlink:href="#m862376d536" y="122.293783"/>
      </g>
     </g>
    </g>
    <g id="ytick_31">
     <g id="line2d_37">
      <g>
       <use style="stroke:#000000;stroke-width:0.6;" x="57.6" xlink:href="#m862376d536" y="117.553505"/>
      </g>
     </g>
    </g>
    <g id="ytick_32">
     <g id="line2d_38">
      <g>
       <use style="stroke:#000000;stroke-width:0.6;" x="57.6" xlink:href="#m862376d536" y="113.545658"/>
      </g>
     </g>
    </g>
    <g id="ytick_33">
     <g id="line2d_39">
      <g>
       <use style="stroke:#000000;stroke-width:0.6;" x="57.6" xlink:href="#m862376d536" y="110.073903"/>
      </g>
     </g>
    </g>
    <g id="ytick_34">
     <g id="line2d_40">
      <g>
       <use style="stroke:#000000;stroke-width:0.6;" x="57.6" xlink:href="#m862376d536" y="107.011597"/>
      </g>
     </g>
    </g>
    <g id="ytick_35">
     <g id="line2d_41">
      <g>
       <use style="stroke:#000000;stroke-width:0.6;" x="57.6" xlink:href="#m862376d536" y="86.250762"/>
      </g>
     </g>
    </g>
    <g id="ytick_36">
     <g id="line2d_42">
      <g>
       <use style="stroke:#000000;stroke-width:0.6;" x="57.6" xlink:href="#m862376d536" y="75.708854"/>
      </g>
     </g>
    </g>
    <g id="ytick_37">
     <g id="line2d_43">
      <g>
       <use style="stroke:#000000;stroke-width:0.6;" x="57.6" xlink:href="#m862376d536" y="68.229251"/>
      </g>
     </g>
    </g>
    <g id="ytick_38">
     <g id="line2d_44">
      <g>
       <use style="stroke:#000000;stroke-width:0.6;" x="57.6" xlink:href="#m862376d536" y="62.42762"/>
      </g>
     </g>
    </g>
    <g id="ytick_39">
     <g id="line2d_45">
      <g>
       <use style="stroke:#000000;stroke-width:0.6;" x="57.6" xlink:href="#m862376d536" y="57.687343"/>
      </g>
     </g>
    </g>
    <g id="ytick_40">
     <g id="line2d_46">
      <g>
       <use style="stroke:#000000;stroke-width:0.6;" x="57.6" xlink:href="#m862376d536" y="53.679496"/>
      </g>
     </g>
    </g>
    <g id="ytick_41">
     <g id="line2d_47">
      <g>
       <use style="stroke:#000000;stroke-width:0.6;" x="57.6" xlink:href="#m862376d536" y="50.207741"/>
      </g>
     </g>
    </g>
    <g id="ytick_42">
     <g id="line2d_48">
      <g>
       <use style="stroke:#000000;stroke-width:0.6;" x="57.6" xlink:href="#m862376d536" y="47.145435"/>
      </g>
     </g>
    </g>
    <g id="text_13">
     <!-- Depth average -->
     <defs>
      <path d="M 18.109375 8.203125 
L 18.109375 -20.796875 
L 9.078125 -20.796875 
L 9.078125 54.6875 
L 18.109375 54.6875 
L 18.109375 46.390625 
Q 20.953125 51.265625 25.265625 53.625 
Q 29.59375 56 35.59375 56 
Q 45.5625 56 51.78125 48.09375 
Q 58.015625 40.1875 58.015625 27.296875 
Q 58.015625 14.40625 51.78125 6.484375 
Q 45.5625 -1.421875 35.59375 -1.421875 
Q 29.59375 -1.421875 25.265625 0.953125 
Q 20.953125 3.328125 18.109375 8.203125 
z
M 48.6875 27.296875 
Q 48.6875 37.203125 44.609375 42.84375 
Q 40.53125 48.484375 33.40625 48.484375 
Q 26.265625 48.484375 22.1875 42.84375 
Q 18.109375 37.203125 18.109375 27.296875 
Q 18.109375 17.390625 22.1875 11.75 
Q 26.265625 6.109375 33.40625 6.109375 
Q 40.53125 6.109375 44.609375 11.75 
Q 48.6875 17.390625 48.6875 27.296875 
z
" id="DejaVuSans-112"/>
      <path d="M 54.890625 33.015625 
L 54.890625 0 
L 45.90625 0 
L 45.90625 32.71875 
Q 45.90625 40.484375 42.875 44.328125 
Q 39.84375 48.1875 33.796875 48.1875 
Q 26.515625 48.1875 22.3125 43.546875 
Q 18.109375 38.921875 18.109375 30.90625 
L 18.109375 0 
L 9.078125 0 
L 9.078125 75.984375 
L 18.109375 75.984375 
L 18.109375 46.1875 
Q 21.34375 51.125 25.703125 53.5625 
Q 30.078125 56 35.796875 56 
Q 45.21875 56 50.046875 50.171875 
Q 54.890625 44.34375 54.890625 33.015625 
z
" id="DejaVuSans-104"/>
      <path d="M 2.984375 54.6875 
L 12.5 54.6875 
L 29.59375 8.796875 
L 46.6875 54.6875 
L 56.203125 54.6875 
L 35.6875 0 
L 23.484375 0 
z
" id="DejaVuSans-118"/>
      <path d="M 45.40625 27.984375 
Q 45.40625 37.75 41.375 43.109375 
Q 37.359375 48.484375 30.078125 48.484375 
Q 22.859375 48.484375 18.828125 43.109375 
Q 14.796875 37.75 14.796875 27.984375 
Q 14.796875 18.265625 18.828125 12.890625 
Q 22.859375 7.515625 30.078125 7.515625 
Q 37.359375 7.515625 41.375 12.890625 
Q 45.40625 18.265625 45.40625 27.984375 
z
M 54.390625 6.78125 
Q 54.390625 -7.171875 48.1875 -13.984375 
Q 42 -20.796875 29.203125 -20.796875 
Q 24.46875 -20.796875 20.265625 -20.09375 
Q 16.0625 -19.390625 12.109375 -17.921875 
L 12.109375 -9.1875 
Q 16.0625 -11.328125 19.921875 -12.34375 
Q 23.78125 -13.375 27.78125 -13.375 
Q 36.625 -13.375 41.015625 -8.765625 
Q 45.40625 -4.15625 45.40625 5.171875 
L 45.40625 9.625 
Q 42.625 4.78125 38.28125 2.390625 
Q 33.9375 0 27.875 0 
Q 17.828125 0 11.671875 7.65625 
Q 5.515625 15.328125 5.515625 27.984375 
Q 5.515625 40.671875 11.671875 48.328125 
Q 17.828125 56 27.875 56 
Q 33.9375 56 38.28125 53.609375 
Q 42.625 51.21875 45.40625 46.390625 
L 45.40625 54.6875 
L 54.390625 54.6875 
z
" id="DejaVuSans-103"/>
     </defs>
     <g transform="translate(21.020312 211.817062)rotate(-90)scale(0.1 -0.1)">
      <use xlink:href="#DejaVuSans-68"/>
      <use x="77.001953" xlink:href="#DejaVuSans-101"/>
      <use x="138.525391" xlink:href="#DejaVuSans-112"/>
      <use x="202.001953" xlink:href="#DejaVuSans-116"/>
      <use x="241.210938" xlink:href="#DejaVuSans-104"/>
      <use x="304.589844" xlink:href="#DejaVuSans-32"/>
      <use x="336.376953" xlink:href="#DejaVuSans-97"/>
      <use x="397.65625" xlink:href="#DejaVuSans-118"/>
      <use x="456.835938" xlink:href="#DejaVuSans-101"/>
      <use x="518.359375" xlink:href="#DejaVuSans-114"/>
      <use x="559.472656" xlink:href="#DejaVuSans-97"/>
      <use x="620.751953" xlink:href="#DejaVuSans-103"/>
      <use x="684.228516" xlink:href="#DejaVuSans-101"/>
     </g>
    </g>
   </g>
   <g id="line2d_49">
    <path clip-path="url(#p1577737ae3)" d="M 73.832727 232.053036 
L 74.483338 209.93966 
L 77.085779 209.015605 
L 79.03761 207.926303 
L 80.33883 207.449756 
L 81.640051 207.123894 
L 85.543713 206.628474 
L 89.447375 206.685379 
L 91.399206 206.346613 
L 93.351037 206.425988 
L 103.760802 207.589717 
L 105.062022 207.840061 
L 107.013853 208.168836 
L 108.965684 208.468278 
L 112.218736 209.149312 
L 116.122398 210.320382 
L 118.074228 211.043762 
L 123.279111 212.51031 
L 123.929721 212.798804 
L 124.580332 213.42954 
L 127.182773 214.630712 
L 128.483993 215.220086 
L 129.134604 215.834898 
L 129.785214 217.610634 
L 130.435824 218.981618 
L 131.737045 219.867978 
L 134.339486 221.087021 
L 136.291317 222.060111 
L 140.194979 224.079751 
L 142.14681 225.185029 
L 145.399862 226.842371 
L 146.701082 227.548522 
L 153.857796 231.480026 
L 158.412068 234.34104 
L 161.014509 236.045929 
L 162.31573 236.674335 
L 168.821833 239.255453 
L 169.472443 243.279666 
L 171.424274 244.136168 
L 174.026715 245.244181 
L 175.327936 245.928121 
L 181.834039 248.520827 
L 183.78587 249.459175 
L 185.087091 250.301239 
L 185.737701 250.813602 
L 187.038921 251.466579 
L 189.641363 252.297849 
L 191.593194 253.221475 
L 202.653569 258.405285 
L 220.220047 267.11351 
L 225.42493 269.439029 
L 227.376761 270.290255 
L 229.328592 271.343536 
L 232.581643 272.81249 
L 236.485305 274.493604 
L 238.437136 275.31513 
L 240.388967 276.157346 
L 242.991408 277.117252 
L 253.401173 280.755319 
L 256.003615 281.624107 
L 257.955445 282.296739 
L 269.666431 285.615793 
L 280.076196 288.040594 
L 283.979858 288.963753 
L 285.281079 289.165188 
L 286.582299 289.488946 
L 290.485961 290.030299 
L 291.787182 290.182303 
L 293.088402 290.379479 
L 294.389623 290.548282 
L 295.690844 290.775048 
L 300.895726 291.490722 
L 302.196947 291.477515 
L 305.449998 291.825022 
L 306.751219 291.90127 
L 310.654881 292.30967 
L 312.606712 292.432843 
L 313.257322 292.440525 
L 313.907932 292.588288 
L 316.510373 292.696847 
L 319.112815 292.89159 
L 326.269528 293.157087 
L 326.920138 293.318582 
L 330.17319 293.364932 
L 335.378073 293.601376 
L 338.631124 293.679803 
L 341.233565 293.777817 
L 344.486617 293.81533 
L 347.089058 293.873746 
L 348.390279 293.988435 
L 350.34211 293.967831 
L 357.498823 294.286658 
L 358.800044 294.217472 
L 362.053095 294.438714 
L 364.655537 294.481918 
L 366.607367 294.588423 
L 367.908588 294.469984 
L 369.860419 294.447305 
L 370.511029 294.58259 
L 371.81225 294.508863 
L 375.715912 294.593292 
L 377.017132 294.771473 
L 377.667743 295.071084 
L 378.968963 295.147459 
L 383.523236 295.081971 
L 384.173846 295.151261 
L 384.824456 295.092265 
L 387.426897 295.287174 
L 389.378728 295.346095 
L 398.487273 295.409797 
L 398.487273 295.409797 
" style="fill:none;stroke:#1f77b4;stroke-linecap:square;stroke-width:1.5;"/>
   </g>
   <g id="line2d_50">
    <path clip-path="url(#p1577737ae3)" d="M 73.832727 54.096404 
L 74.483338 54.129571 
L 75.133948 53.958727 
L 77.736389 54.120304 
L 78.386999 53.981889 
L 79.03761 53.714374 
L 79.68822 53.568 
L 82.290661 53.648925 
L 84.242492 53.747227 
L 84.893103 53.756492 
L 85.543713 54.313356 
L 86.194323 54.429287 
L 88.796764 54.480775 
L 90.097985 54.914142 
L 90.748595 54.931942 
L 91.399206 55.197443 
L 92.700426 55.402232 
L 93.351037 55.800534 
L 94.652257 56.199536 
L 95.302868 57.198343 
L 95.953478 57.820414 
L 96.604088 58.275065 
L 97.254698 58.501497 
L 100.50775 58.498596 
L 102.459581 58.665559 
L 105.062022 58.429251 
L 107.013853 58.752126 
L 110.917515 58.879052 
L 111.568125 58.953472 
L 112.218736 58.905559 
L 115.471787 59.236268 
L 117.423618 59.576664 
L 118.074228 59.908583 
L 121.32728 60.57409 
L 122.628501 60.513418 
L 123.929721 60.433194 
L 124.580332 60.606253 
L 125.230942 60.509521 
L 126.532163 60.553742 
L 127.833383 60.469385 
L 129.134604 60.791367 
L 129.785214 60.734881 
L 131.737045 61.125226 
L 132.387655 61.360576 
L 133.038266 61.408948 
L 136.291317 61.151284 
L 136.941927 61.402409 
L 137.592538 61.339603 
L 140.194979 61.974085 
L 140.845589 61.836846 
L 141.4962 62.101149 
L 145.399862 61.852189 
L 146.701082 62.134969 
L 147.351692 62.13707 
L 148.002303 62.563997 
L 150.604744 62.538085 
L 151.255354 62.568774 
L 152.556575 62.48043 
L 155.159016 62.491545 
L 156.460237 62.406991 
L 157.761457 62.542532 
L 159.062678 62.57932 
L 159.713288 62.78614 
L 160.363899 63.117088 
L 161.014509 63.146946 
L 162.96634 63.745202 
L 164.267561 63.83448 
L 164.918171 64.509846 
L 166.870002 64.898442 
L 172.074884 64.768448 
L 173.376105 64.551966 
L 174.677326 64.978453 
L 176.629156 65.05497 
L 177.279767 65.295562 
L 182.484649 65.34652 
L 183.13526 65.431426 
L 184.43648 65.417678 
L 185.087091 65.511943 
L 187.689532 65.053144 
L 188.340142 65.160523 
L 191.593194 64.947512 
L 192.894414 65.148557 
L 194.846245 64.949167 
L 199.400517 65.087775 
L 200.701738 65.834283 
L 202.002959 65.929648 
L 202.653569 65.835932 
L 204.6054 65.923104 
L 205.906621 65.915287 
L 209.810282 65.789547 
L 210.460893 66.127738 
L 211.111503 66.161677 
L 212.412724 65.895927 
L 213.713944 66.251094 
L 215.015165 66.142736 
L 217.617606 66.009695 
L 218.268216 66.137196 
L 218.918827 66.106318 
L 220.220047 66.293758 
L 221.521268 66.32725 
L 223.473099 65.96666 
L 225.42493 65.987196 
L 226.07554 66.233085 
L 226.72615 66.682623 
L 227.376761 66.995776 
L 228.027371 67.085373 
L 229.328592 67.745747 
L 229.979202 68.241696 
L 230.629812 68.191383 
L 231.931033 68.308813 
L 232.581643 68.278451 
L 233.232254 67.937698 
L 233.882864 68.31477 
L 234.533474 68.102224 
L 235.184085 68.030346 
L 236.485305 68.129136 
L 237.786526 68.09986 
L 239.087746 68.176954 
L 239.738357 68.354695 
L 241.039577 68.281243 
L 242.340798 68.801119 
L 243.642019 68.935394 
L 244.292629 69.384266 
L 246.89507 69.297429 
L 248.196291 69.305173 
L 249.497511 69.37552 
L 251.449342 69.465296 
L 252.750563 69.673596 
L 254.702394 69.879098 
L 258.606056 70.01362 
L 260.557887 70.100097 
L 261.859107 70.938442 
L 262.509718 71.047225 
L 263.160328 71.4353 
L 266.413379 71.70226 
L 267.06399 71.641101 
L 267.7146 71.782732 
L 269.666431 72.491032 
L 272.268872 72.675035 
L 274.871314 72.798164 
L 276.172534 72.747505 
L 276.823144 72.628081 
L 277.473755 72.635776 
L 278.124365 73.000203 
L 280.076196 73.089124 
L 281.377417 73.032532 
L 282.678637 73.127031 
L 285.931689 73.337456 
L 286.582299 73.566156 
L 289.835351 73.893056 
L 291.136571 74.029556 
L 292.437792 74.843301 
L 293.739013 75.026713 
L 295.690844 74.994419 
L 296.992064 75.207059 
L 297.642674 75.07733 
L 298.293285 75.116277 
L 300.245116 74.956464 
L 306.751219 74.906763 
L 307.401829 74.962837 
L 308.052439 75.218463 
L 312.606712 75.639342 
L 313.907932 75.553811 
L 314.558543 75.662032 
L 317.160984 75.548139 
L 321.064646 75.315415 
L 322.365866 75.512754 
L 323.016477 75.916539 
L 324.317697 75.810725 
L 326.269528 75.56088 
L 326.920138 75.843709 
L 327.570749 75.806771 
L 328.221359 75.889356 
L 328.871969 76.364482 
L 329.52258 76.677656 
L 331.474411 76.801905 
L 332.125021 76.788357 
L 333.426242 77.054005 
L 334.727462 77.061574 
L 335.378073 76.880993 
L 336.679293 76.853816 
L 337.980514 76.762363 
L 340.582955 76.951239 
L 341.233565 76.957994 
L 341.884176 76.76259 
L 343.185396 76.87222 
L 343.836007 76.725045 
L 344.486617 76.20852 
L 346.438448 75.71221 
L 347.089058 75.492564 
L 349.040889 75.161632 
L 349.691499 75.004736 
L 350.99272 75.063857 
L 352.293941 75.037873 
L 352.944551 74.934325 
L 353.595161 75.346072 
L 354.245772 76.00912 
L 355.546992 76.101277 
L 356.197602 76.075045 
L 356.848213 76.263986 
L 357.498823 76.201026 
L 358.800044 76.289894 
L 363.354316 76.189949 
L 364.655537 76.279217 
L 365.306147 76.552142 
L 367.908588 76.550909 
L 369.209809 76.593955 
L 370.511029 76.648678 
L 371.16164 76.671228 
L 372.46286 77.463465 
L 373.113471 77.455893 
L 375.065302 77.94209 
L 376.366522 78.110478 
L 378.318353 77.839155 
L 379.619574 78.058931 
L 380.270184 78.398488 
L 380.920794 78.453008 
L 382.222015 78.326102 
L 384.173846 78.641953 
L 384.824456 78.824421 
L 385.475066 78.779251 
L 386.125677 78.860401 
L 388.077508 78.677072 
L 390.029339 78.734472 
L 393.28239 78.521675 
L 395.234221 78.762377 
L 395.884831 78.594641 
L 397.186052 78.839169 
L 398.487273 79.061115 
L 398.487273 79.061115 
" style="fill:none;stroke:#ff7f0e;stroke-linecap:square;stroke-width:1.5;"/>
   </g>
   <g id="patch_3">
    <path d="M 57.6 307.584 
L 57.6 41.472 
" style="fill:none;stroke:#000000;stroke-linecap:square;stroke-linejoin:miter;stroke-width:0.8;"/>
   </g>
   <g id="patch_4">
    <path d="M 414.72 307.584 
L 414.72 41.472 
" style="fill:none;stroke:#000000;stroke-linecap:square;stroke-linejoin:miter;stroke-width:0.8;"/>
   </g>
   <g id="patch_5">
    <path d="M 57.6 307.584 
L 414.72 307.584 
" style="fill:none;stroke:#000000;stroke-linecap:square;stroke-linejoin:miter;stroke-width:0.8;"/>
   </g>
   <g id="patch_6">
    <path d="M 57.6 41.472 
L 414.72 41.472 
" style="fill:none;stroke:#000000;stroke-linecap:square;stroke-linejoin:miter;stroke-width:0.8;"/>
   </g>
   <g id="legend_1">
    <g id="patch_7">
     <path d="M 64.6 302.584 
L 189.214062 302.584 
Q 191.214062 302.584 191.214062 300.584 
L 191.214062 272.22775 
Q 191.214062 270.22775 189.214062 270.22775 
L 64.6 270.22775 
Q 62.6 270.22775 62.6 272.22775 
L 62.6 300.584 
Q 62.6 302.584 64.6 302.584 
z
" style="fill:#ffffff;opacity:0.8;stroke:#cccccc;stroke-linejoin:miter;"/>
    </g>
    <g id="line2d_51">
     <path d="M 66.6 278.326187 
L 86.6 278.326187 
" style="fill:none;stroke:#1f77b4;stroke-linecap:square;stroke-width:1.5;"/>
    </g>
    <g id="line2d_52"/>
    <g id="text_14">
     <!-- HiC (sample-1-4) -->
     <defs>
      <path d="M 9.8125 72.90625 
L 19.671875 72.90625 
L 19.671875 43.015625 
L 55.515625 43.015625 
L 55.515625 72.90625 
L 65.375 72.90625 
L 65.375 0 
L 55.515625 0 
L 55.515625 34.71875 
L 19.671875 34.71875 
L 19.671875 0 
L 9.8125 0 
z
" id="DejaVuSans-72"/>
      <path d="M 64.40625 67.28125 
L 64.40625 56.890625 
Q 59.421875 61.53125 53.78125 63.8125 
Q 48.140625 66.109375 41.796875 66.109375 
Q 29.296875 66.109375 22.65625 58.46875 
Q 16.015625 50.828125 16.015625 36.375 
Q 16.015625 21.96875 22.65625 14.328125 
Q 29.296875 6.6875 41.796875 6.6875 
Q 48.140625 6.6875 53.78125 8.984375 
Q 59.421875 11.28125 64.40625 15.921875 
L 64.40625 5.609375 
Q 59.234375 2.09375 53.4375 0.328125 
Q 47.65625 -1.421875 41.21875 -1.421875 
Q 24.65625 -1.421875 15.125 8.703125 
Q 5.609375 18.84375 5.609375 36.375 
Q 5.609375 53.953125 15.125 64.078125 
Q 24.65625 74.21875 41.21875 74.21875 
Q 47.75 74.21875 53.53125 72.484375 
Q 59.328125 70.75 64.40625 67.28125 
z
" id="DejaVuSans-67"/>
      <path d="M 31 75.875 
Q 24.46875 64.65625 21.28125 53.65625 
Q 18.109375 42.671875 18.109375 31.390625 
Q 18.109375 20.125 21.3125 9.0625 
Q 24.515625 -2 31 -13.1875 
L 23.1875 -13.1875 
Q 15.875 -1.703125 12.234375 9.375 
Q 8.59375 20.453125 8.59375 31.390625 
Q 8.59375 42.28125 12.203125 53.3125 
Q 15.828125 64.359375 23.1875 75.875 
z
" id="DejaVuSans-40"/>
      <path d="M 9.421875 75.984375 
L 18.40625 75.984375 
L 18.40625 0 
L 9.421875 0 
z
" id="DejaVuSans-108"/>
      <path d="M 4.890625 31.390625 
L 31.203125 31.390625 
L 31.203125 23.390625 
L 4.890625 23.390625 
z
" id="DejaVuSans-45"/>
      <path d="M 8.015625 75.875 
L 15.828125 75.875 
Q 23.140625 64.359375 26.78125 53.3125 
Q 30.421875 42.28125 30.421875 31.390625 
Q 30.421875 20.453125 26.78125 9.375 
Q 23.140625 -1.703125 15.828125 -13.1875 
L 8.015625 -13.1875 
Q 14.5 -2 17.703125 9.0625 
Q 20.90625 20.125 20.90625 31.390625 
Q 20.90625 42.671875 17.703125 53.65625 
Q 14.5 64.65625 8.015625 75.875 
z
" id="DejaVuSans-41"/>
     </defs>
     <g transform="translate(94.6 281.826187)scale(0.1 -0.1)">
      <use xlink:href="#DejaVuSans-72"/>
      <use x="75.195312" xlink:href="#DejaVuSans-105"/>
      <use x="102.978516" xlink:href="#DejaVuSans-67"/>
      <use x="172.802734" xlink:href="#DejaVuSans-32"/>
      <use x="204.589844" xlink:href="#DejaVuSans-40"/>
      <use x="243.603516" xlink:href="#DejaVuSans-115"/>
      <use x="295.703125" xlink:href="#DejaVuSans-97"/>
      <use x="356.982422" xlink:href="#DejaVuSans-109"/>
      <use x="454.394531" xlink:href="#DejaVuSans-112"/>
      <use x="517.871094" xlink:href="#DejaVuSans-108"/>
      <use x="545.654297" xlink:href="#DejaVuSans-101"/>
      <use x="607.177734" xlink:href="#DejaVuSans-45"/>
      <use x="643.261719" xlink:href="#DejaVuSans-49"/>
      <use x="706.884766" xlink:href="#DejaVuSans-45"/>
      <use x="742.96875" xlink:href="#DejaVuSans-52"/>
      <use x="806.591797" xlink:href="#DejaVuSans-41"/>
     </g>
    </g>
    <g id="line2d_53">
     <path d="M 66.6 293.004312 
L 86.6 293.004312 
" style="fill:none;stroke:#ff7f0e;stroke-linecap:square;stroke-width:1.5;"/>
    </g>
    <g id="line2d_54"/>
    <g id="text_15">
     <!-- ExoC (sample-1-5) -->
     <defs>
      <path d="M 9.8125 72.90625 
L 55.90625 72.90625 
L 55.90625 64.59375 
L 19.671875 64.59375 
L 19.671875 43.015625 
L 54.390625 43.015625 
L 54.390625 34.71875 
L 19.671875 34.71875 
L 19.671875 8.296875 
L 56.78125 8.296875 
L 56.78125 0 
L 9.8125 0 
z
" id="DejaVuSans-69"/>
      <path d="M 54.890625 54.6875 
L 35.109375 28.078125 
L 55.90625 0 
L 45.3125 0 
L 29.390625 21.484375 
L 13.484375 0 
L 2.875 0 
L 24.125 28.609375 
L 4.6875 54.6875 
L 15.28125 54.6875 
L 29.78125 35.203125 
L 44.28125 54.6875 
z
" id="DejaVuSans-120"/>
     </defs>
     <g transform="translate(94.6 296.504312)scale(0.1 -0.1)">
      <use xlink:href="#DejaVuSans-69"/>
      <use x="63.183594" xlink:href="#DejaVuSans-120"/>
      <use x="122.316406" xlink:href="#DejaVuSans-111"/>
      <use x="183.498047" xlink:href="#DejaVuSans-67"/>
      <use x="253.322266" xlink:href="#DejaVuSans-32"/>
      <use x="285.109375" xlink:href="#DejaVuSans-40"/>
      <use x="324.123047" xlink:href="#DejaVuSans-115"/>
      <use x="376.222656" xlink:href="#DejaVuSans-97"/>
      <use x="437.501953" xlink:href="#DejaVuSans-109"/>
      <use x="534.914062" xlink:href="#DejaVuSans-112"/>
      <use x="598.390625" xlink:href="#DejaVuSans-108"/>
      <use x="626.173828" xlink:href="#DejaVuSans-101"/>
      <use x="687.697266" xlink:href="#DejaVuSans-45"/>
      <use x="723.78125" xlink:href="#DejaVuSans-49"/>
      <use x="787.404297" xlink:href="#DejaVuSans-45"/>
      <use x="823.488281" xlink:href="#DejaVuSans-53"/>
      <use x="887.111328" xlink:href="#DejaVuSans-41"/>
     </g>
    </g>
   </g>
  </g>
  <g id="text_16">
   <!-- Distance coverage (500b, samples 4-5, log) -->
   <g transform="translate(99.128438 16.030125)scale(0.12 -0.12)">
    <use xlink:href="#DejaVuSans-68"/>
    <use x="77.001953" xlink:href="#DejaVuSans-105"/>
    <use x="104.785156" xlink:href="#DejaVuSans-115"/>
    <use x="156.884766" xlink:href="#DejaVuSans-116"/>
    <use x="196.09375" xlink:href="#DejaVuSans-97"/>
    <use x="257.373047" xlink:href="#DejaVuSans-110"/>
    <use x="320.751953" xlink:href="#DejaVuSans-99"/>
    <use x="375.732422" xlink:href="#DejaVuSans-101"/>
    <use x="437.255859" xlink:href="#DejaVuSans-32"/>
    <use x="469.042969" xlink:href="#DejaVuSans-99"/>
    <use x="524.023438" xlink:href="#DejaVuSans-111"/>
    <use x="585.205078" xlink:href="#DejaVuSans-118"/>
    <use x="644.384766" xlink:href="#DejaVuSans-101"/>
    <use x="705.908203" xlink:href="#DejaVuSans-114"/>
    <use x="747.021484" xlink:href="#DejaVuSans-97"/>
    <use x="808.300781" xlink:href="#DejaVuSans-103"/>
    <use x="871.777344" xlink:href="#DejaVuSans-101"/>
    <use x="933.300781" xlink:href="#DejaVuSans-32"/>
    <use x="965.087891" xlink:href="#DejaVuSans-40"/>
    <use x="1004.101562" xlink:href="#DejaVuSans-53"/>
    <use x="1067.724609" xlink:href="#DejaVuSans-48"/>
    <use x="1131.347656" xlink:href="#DejaVuSans-48"/>
    <use x="1194.970703" xlink:href="#DejaVuSans-98"/>
    <use x="1258.447266" xlink:href="#DejaVuSans-44"/>
    <use x="1290.234375" xlink:href="#DejaVuSans-32"/>
    <use x="1322.021484" xlink:href="#DejaVuSans-115"/>
    <use x="1374.121094" xlink:href="#DejaVuSans-97"/>
    <use x="1435.400391" xlink:href="#DejaVuSans-109"/>
    <use x="1532.8125" xlink:href="#DejaVuSans-112"/>
    <use x="1596.289062" xlink:href="#DejaVuSans-108"/>
    <use x="1624.072266" xlink:href="#DejaVuSans-101"/>
    <use x="1685.595703" xlink:href="#DejaVuSans-115"/>
    <use x="1737.695312" xlink:href="#DejaVuSans-32"/>
    <use x="1769.482422" xlink:href="#DejaVuSans-52"/>
    <use x="1833.105469" xlink:href="#DejaVuSans-45"/>
    <use x="1869.189453" xlink:href="#DejaVuSans-53"/>
    <use x="1932.8125" xlink:href="#DejaVuSans-44"/>
    <use x="1964.599609" xlink:href="#DejaVuSans-32"/>
    <use x="1996.386719" xlink:href="#DejaVuSans-108"/>
    <use x="2024.169922" xlink:href="#DejaVuSans-111"/>
    <use x="2085.351562" xlink:href="#DejaVuSans-103"/>
    <use x="2148.828125" xlink:href="#DejaVuSans-41"/>
   </g>
  </g>
 </g>
 <defs>
  <clipPath id="p1577737ae3">
   <rect height="266.112" width="357.12" x="57.6" y="41.472"/>
  </clipPath>
 </defs>
</svg>
