<?xml version="1.0" encoding="utf-8" standalone="no"?>
<!DOCTYPE svg PUBLIC "-//W3C//DTD SVG 1.1//EN"
  "http://www.w3.org/Graphics/SVG/1.1/DTD/svg11.dtd">
<!-- Created with matplotlib (https://matplotlib.org/) -->
<svg height="345.6pt" version="1.1" viewBox="0 0 460.8 345.6" width="460.8pt" xmlns="http://www.w3.org/2000/svg" xmlns:xlink="http://www.w3.org/1999/xlink">
 <defs>
  <style type="text/css">
*{stroke-linecap:butt;stroke-linejoin:round;}
  </style>
 </defs>
 <g id="figure_1">
  <g id="patch_1">
   <path d="M 0 345.6 
L 460.8 345.6 
L 460.8 0 
L 0 0 
z
" style="fill:#ffffff;"/>
  </g>
  <g id="axes_1">
   <g id="patch_2">
    <path d="M 57.6 307.584 
L 414.72 307.584 
L 414.72 41.472 
L 57.6 41.472 
z
" style="fill:#ffffff;"/>
   </g>
   <g id="matplotlib.axis_1">
    <g id="xtick_1">
     <g id="line2d_1">
      <defs>
       <path d="M 0 0 
L 0 3.5 
" id="m9b66ab1827" style="stroke:#000000;stroke-width:0.8;"/>
      </defs>
      <g>
       <use style="stroke:#000000;stroke-width:0.8;" x="73.832727" xlink:href="#m9b66ab1827" y="307.584"/>
      </g>
     </g>
     <g id="text_1">
      <!-- 0 -->
      <defs>
       <path d="M 31.78125 66.40625 
Q 24.171875 66.40625 20.328125 58.90625 
Q 16.5 51.421875 16.5 36.375 
Q 16.5 21.390625 20.328125 13.890625 
Q 24.171875 6.390625 31.78125 6.390625 
Q 39.453125 6.390625 43.28125 13.890625 
Q 47.125 21.390625 47.125 36.375 
Q 47.125 51.421875 43.28125 58.90625 
Q 39.453125 66.40625 31.78125 66.40625 
z
M 31.78125 74.21875 
Q 44.046875 74.21875 50.515625 64.515625 
Q 56.984375 54.828125 56.984375 36.375 
Q 56.984375 17.96875 50.515625 8.265625 
Q 44.046875 -1.421875 31.78125 -1.421875 
Q 19.53125 -1.421875 13.0625 8.265625 
Q 6.59375 17.96875 6.59375 36.375 
Q 6.59375 54.828125 13.0625 64.515625 
Q 19.53125 74.21875 31.78125 74.21875 
z
" id="DejaVuSans-48"/>
      </defs>
      <g transform="translate(70.651477 322.182437)scale(0.1 -0.1)">
       <use xlink:href="#DejaVuSans-48"/>
      </g>
     </g>
    </g>
    <g id="xtick_2">
     <g id="line2d_2">
      <g>
       <use style="stroke:#000000;stroke-width:0.8;" x="138.893758" xlink:href="#m9b66ab1827" y="307.584"/>
      </g>
     </g>
     <g id="text_2">
      <!-- 100 -->
      <defs>
       <path d="M 12.40625 8.296875 
L 28.515625 8.296875 
L 28.515625 63.921875 
L 10.984375 60.40625 
L 10.984375 69.390625 
L 28.421875 72.90625 
L 38.28125 72.90625 
L 38.28125 8.296875 
L 54.390625 8.296875 
L 54.390625 0 
L 12.40625 0 
z
" id="DejaVuSans-49"/>
      </defs>
      <g transform="translate(129.350008 322.182437)scale(0.1 -0.1)">
       <use xlink:href="#DejaVuSans-49"/>
       <use x="63.623047" xlink:href="#DejaVuSans-48"/>
       <use x="127.246094" xlink:href="#DejaVuSans-48"/>
      </g>
     </g>
    </g>
    <g id="xtick_3">
     <g id="line2d_3">
      <g>
       <use style="stroke:#000000;stroke-width:0.8;" x="203.95479" xlink:href="#m9b66ab1827" y="307.584"/>
      </g>
     </g>
     <g id="text_3">
      <!-- 200 -->
      <defs>
       <path d="M 19.1875 8.296875 
L 53.609375 8.296875 
L 53.609375 0 
L 7.328125 0 
L 7.328125 8.296875 
Q 12.9375 14.109375 22.625 23.890625 
Q 32.328125 33.6875 34.8125 36.53125 
Q 39.546875 41.84375 41.421875 45.53125 
Q 43.3125 49.21875 43.3125 52.78125 
Q 43.3125 58.59375 39.234375 62.25 
Q 35.15625 65.921875 28.609375 65.921875 
Q 23.96875 65.921875 18.8125 64.3125 
Q 13.671875 62.703125 7.8125 59.421875 
L 7.8125 69.390625 
Q 13.765625 71.78125 18.9375 73 
Q 24.125 74.21875 28.421875 74.21875 
Q 39.75 74.21875 46.484375 68.546875 
Q 53.21875 62.890625 53.21875 53.421875 
Q 53.21875 48.921875 51.53125 44.890625 
Q 49.859375 40.875 45.40625 35.40625 
Q 44.1875 33.984375 37.640625 27.21875 
Q 31.109375 20.453125 19.1875 8.296875 
z
" id="DejaVuSans-50"/>
      </defs>
      <g transform="translate(194.41104 322.182437)scale(0.1 -0.1)">
       <use xlink:href="#DejaVuSans-50"/>
       <use x="63.623047" xlink:href="#DejaVuSans-48"/>
       <use x="127.246094" xlink:href="#DejaVuSans-48"/>
      </g>
     </g>
    </g>
    <g id="xtick_4">
     <g id="line2d_4">
      <g>
       <use style="stroke:#000000;stroke-width:0.8;" x="269.015821" xlink:href="#m9b66ab1827" y="307.584"/>
      </g>
     </g>
     <g id="text_4">
      <!-- 300 -->
      <defs>
       <path d="M 40.578125 39.3125 
Q 47.65625 37.796875 51.625 33 
Q 55.609375 28.21875 55.609375 21.1875 
Q 55.609375 10.40625 48.1875 4.484375 
Q 40.765625 -1.421875 27.09375 -1.421875 
Q 22.515625 -1.421875 17.65625 -0.515625 
Q 12.796875 0.390625 7.625 2.203125 
L 7.625 11.71875 
Q 11.71875 9.328125 16.59375 8.109375 
Q 21.484375 6.890625 26.8125 6.890625 
Q 36.078125 6.890625 40.9375 10.546875 
Q 45.796875 14.203125 45.796875 21.1875 
Q 45.796875 27.640625 41.28125 31.265625 
Q 36.765625 34.90625 28.71875 34.90625 
L 20.21875 34.90625 
L 20.21875 43.015625 
L 29.109375 43.015625 
Q 36.375 43.015625 40.234375 45.921875 
Q 44.09375 48.828125 44.09375 54.296875 
Q 44.09375 59.90625 40.109375 62.90625 
Q 36.140625 65.921875 28.71875 65.921875 
Q 24.65625 65.921875 20.015625 65.03125 
Q 15.375 64.15625 9.8125 62.3125 
L 9.8125 71.09375 
Q 15.4375 72.65625 20.34375 73.4375 
Q 25.25 74.21875 29.59375 74.21875 
Q 40.828125 74.21875 47.359375 69.109375 
Q 53.90625 64.015625 53.90625 55.328125 
Q 53.90625 49.265625 50.4375 45.09375 
Q 46.96875 40.921875 40.578125 39.3125 
z
" id="DejaVuSans-51"/>
      </defs>
      <g transform="translate(259.472071 322.182437)scale(0.1 -0.1)">
       <use xlink:href="#DejaVuSans-51"/>
       <use x="63.623047" xlink:href="#DejaVuSans-48"/>
       <use x="127.246094" xlink:href="#DejaVuSans-48"/>
      </g>
     </g>
    </g>
    <g id="xtick_5">
     <g id="line2d_5">
      <g>
       <use style="stroke:#000000;stroke-width:0.8;" x="334.076852" xlink:href="#m9b66ab1827" y="307.584"/>
      </g>
     </g>
     <g id="text_5">
      <!-- 400 -->
      <defs>
       <path d="M 37.796875 64.3125 
L 12.890625 25.390625 
L 37.796875 25.390625 
z
M 35.203125 72.90625 
L 47.609375 72.90625 
L 47.609375 25.390625 
L 58.015625 25.390625 
L 58.015625 17.1875 
L 47.609375 17.1875 
L 47.609375 0 
L 37.796875 0 
L 37.796875 17.1875 
L 4.890625 17.1875 
L 4.890625 26.703125 
z
" id="DejaVuSans-52"/>
      </defs>
      <g transform="translate(324.533102 322.182437)scale(0.1 -0.1)">
       <use xlink:href="#DejaVuSans-52"/>
       <use x="63.623047" xlink:href="#DejaVuSans-48"/>
       <use x="127.246094" xlink:href="#DejaVuSans-48"/>
      </g>
     </g>
    </g>
    <g id="xtick_6">
     <g id="line2d_6">
      <g>
       <use style="stroke:#000000;stroke-width:0.8;" x="399.137883" xlink:href="#m9b66ab1827" y="307.584"/>
      </g>
     </g>
     <g id="text_6">
      <!-- 500 -->
      <defs>
       <path d="M 10.796875 72.90625 
L 49.515625 72.90625 
L 49.515625 64.59375 
L 19.828125 64.59375 
L 19.828125 46.734375 
Q 21.96875 47.46875 24.109375 47.828125 
Q 26.265625 48.1875 28.421875 48.1875 
Q 40.625 48.1875 47.75 41.5 
Q 54.890625 34.8125 54.890625 23.390625 
Q 54.890625 11.625 47.5625 5.09375 
Q 40.234375 -1.421875 26.90625 -1.421875 
Q 22.3125 -1.421875 17.546875 -0.640625 
Q 12.796875 0.140625 7.71875 1.703125 
L 7.71875 11.625 
Q 12.109375 9.234375 16.796875 8.0625 
Q 21.484375 6.890625 26.703125 6.890625 
Q 35.15625 6.890625 40.078125 11.328125 
Q 45.015625 15.765625 45.015625 23.390625 
Q 45.015625 31 40.078125 35.4375 
Q 35.15625 39.890625 26.703125 39.890625 
Q 22.75 39.890625 18.8125 39.015625 
Q 14.890625 38.140625 10.796875 36.28125 
z
" id="DejaVuSans-53"/>
      </defs>
      <g transform="translate(389.594133 322.182437)scale(0.1 -0.1)">
       <use xlink:href="#DejaVuSans-53"/>
       <use x="63.623047" xlink:href="#DejaVuSans-48"/>
       <use x="127.246094" xlink:href="#DejaVuSans-48"/>
      </g>
     </g>
    </g>
    <g id="text_7">
     <!-- Distance from restriction site, b -->
     <defs>
      <path d="M 19.671875 64.796875 
L 19.671875 8.109375 
L 31.59375 8.109375 
Q 46.6875 8.109375 53.6875 14.9375 
Q 60.6875 21.78125 60.6875 36.53125 
Q 60.6875 51.171875 53.6875 57.984375 
Q 46.6875 64.796875 31.59375 64.796875 
z
M 9.8125 72.90625 
L 30.078125 72.90625 
Q 51.265625 72.90625 61.171875 64.09375 
Q 71.09375 55.28125 71.09375 36.53125 
Q 71.09375 17.671875 61.125 8.828125 
Q 51.171875 0 30.078125 0 
L 9.8125 0 
z
" id="DejaVuSans-68"/>
      <path d="M 9.421875 54.6875 
L 18.40625 54.6875 
L 18.40625 0 
L 9.421875 0 
z
M 9.421875 75.984375 
L 18.40625 75.984375 
L 18.40625 64.59375 
L 9.421875 64.59375 
z
" id="DejaVuSans-105"/>
      <path d="M 44.28125 53.078125 
L 44.28125 44.578125 
Q 40.484375 46.53125 36.375 47.5 
Q 32.28125 48.484375 27.875 48.484375 
Q 21.1875 48.484375 17.84375 46.4375 
Q 14.5 44.390625 14.5 40.28125 
Q 14.5 37.15625 16.890625 35.375 
Q 19.28125 33.59375 26.515625 31.984375 
L 29.59375 31.296875 
Q 39.15625 29.25 43.1875 25.515625 
Q 47.21875 21.78125 47.21875 15.09375 
Q 47.21875 7.46875 41.1875 3.015625 
Q 35.15625 -1.421875 24.609375 -1.421875 
Q 20.21875 -1.421875 15.453125 -0.5625 
Q 10.6875 0.296875 5.421875 2 
L 5.421875 11.28125 
Q 10.40625 8.6875 15.234375 7.390625 
Q 20.0625 6.109375 24.8125 6.109375 
Q 31.15625 6.109375 34.5625 8.28125 
Q 37.984375 10.453125 37.984375 14.40625 
Q 37.984375 18.0625 35.515625 20.015625 
Q 33.0625 21.96875 24.703125 23.78125 
L 21.578125 24.515625 
Q 13.234375 26.265625 9.515625 29.90625 
Q 5.8125 33.546875 5.8125 39.890625 
Q 5.8125 47.609375 11.28125 51.796875 
Q 16.75 56 26.8125 56 
Q 31.78125 56 36.171875 55.265625 
Q 40.578125 54.546875 44.28125 53.078125 
z
" id="DejaVuSans-115"/>
      <path d="M 18.3125 70.21875 
L 18.3125 54.6875 
L 36.8125 54.6875 
L 36.8125 47.703125 
L 18.3125 47.703125 
L 18.3125 18.015625 
Q 18.3125 11.328125 20.140625 9.421875 
Q 21.96875 7.515625 27.59375 7.515625 
L 36.8125 7.515625 
L 36.8125 0 
L 27.59375 0 
Q 17.1875 0 13.234375 3.875 
Q 9.28125 7.765625 9.28125 18.015625 
L 9.28125 47.703125 
L 2.6875 47.703125 
L 2.6875 54.6875 
L 9.28125 54.6875 
L 9.28125 70.21875 
z
" id="DejaVuSans-116"/>
      <path d="M 34.28125 27.484375 
Q 23.390625 27.484375 19.1875 25 
Q 14.984375 22.515625 14.984375 16.5 
Q 14.984375 11.71875 18.140625 8.90625 
Q 21.296875 6.109375 26.703125 6.109375 
Q 34.1875 6.109375 38.703125 11.40625 
Q 43.21875 16.703125 43.21875 25.484375 
L 43.21875 27.484375 
z
M 52.203125 31.203125 
L 52.203125 0 
L 43.21875 0 
L 43.21875 8.296875 
Q 40.140625 3.328125 35.546875 0.953125 
Q 30.953125 -1.421875 24.3125 -1.421875 
Q 15.921875 -1.421875 10.953125 3.296875 
Q 6 8.015625 6 15.921875 
Q 6 25.140625 12.171875 29.828125 
Q 18.359375 34.515625 30.609375 34.515625 
L 43.21875 34.515625 
L 43.21875 35.40625 
Q 43.21875 41.609375 39.140625 45 
Q 35.0625 48.390625 27.6875 48.390625 
Q 23 48.390625 18.546875 47.265625 
Q 14.109375 46.140625 10.015625 43.890625 
L 10.015625 52.203125 
Q 14.9375 54.109375 19.578125 55.046875 
Q 24.21875 56 28.609375 56 
Q 40.484375 56 46.34375 49.84375 
Q 52.203125 43.703125 52.203125 31.203125 
z
" id="DejaVuSans-97"/>
      <path d="M 54.890625 33.015625 
L 54.890625 0 
L 45.90625 0 
L 45.90625 32.71875 
Q 45.90625 40.484375 42.875 44.328125 
Q 39.84375 48.1875 33.796875 48.1875 
Q 26.515625 48.1875 22.3125 43.546875 
Q 18.109375 38.921875 18.109375 30.90625 
L 18.109375 0 
L 9.078125 0 
L 9.078125 54.6875 
L 18.109375 54.6875 
L 18.109375 46.1875 
Q 21.34375 51.125 25.703125 53.5625 
Q 30.078125 56 35.796875 56 
Q 45.21875 56 50.046875 50.171875 
Q 54.890625 44.34375 54.890625 33.015625 
z
" id="DejaVuSans-110"/>
      <path d="M 48.78125 52.59375 
L 48.78125 44.1875 
Q 44.96875 46.296875 41.140625 47.34375 
Q 37.3125 48.390625 33.40625 48.390625 
Q 24.65625 48.390625 19.8125 42.84375 
Q 14.984375 37.3125 14.984375 27.296875 
Q 14.984375 17.28125 19.8125 11.734375 
Q 24.65625 6.203125 33.40625 6.203125 
Q 37.3125 6.203125 41.140625 7.25 
Q 44.96875 8.296875 48.78125 10.40625 
L 48.78125 2.09375 
Q 45.015625 0.34375 40.984375 -0.53125 
Q 36.96875 -1.421875 32.421875 -1.421875 
Q 20.0625 -1.421875 12.78125 6.34375 
Q 5.515625 14.109375 5.515625 27.296875 
Q 5.515625 40.671875 12.859375 48.328125 
Q 20.21875 56 33.015625 56 
Q 37.15625 56 41.109375 55.140625 
Q 45.0625 54.296875 48.78125 52.59375 
z
" id="DejaVuSans-99"/>
      <path d="M 56.203125 29.59375 
L 56.203125 25.203125 
L 14.890625 25.203125 
Q 15.484375 15.921875 20.484375 11.0625 
Q 25.484375 6.203125 34.421875 6.203125 
Q 39.59375 6.203125 44.453125 7.46875 
Q 49.3125 8.734375 54.109375 11.28125 
L 54.109375 2.78125 
Q 49.265625 0.734375 44.1875 -0.34375 
Q 39.109375 -1.421875 33.890625 -1.421875 
Q 20.796875 -1.421875 13.15625 6.1875 
Q 5.515625 13.8125 5.515625 26.8125 
Q 5.515625 40.234375 12.765625 48.109375 
Q 20.015625 56 32.328125 56 
Q 43.359375 56 49.78125 48.890625 
Q 56.203125 41.796875 56.203125 29.59375 
z
M 47.21875 32.234375 
Q 47.125 39.59375 43.09375 43.984375 
Q 39.0625 48.390625 32.421875 48.390625 
Q 24.90625 48.390625 20.390625 44.140625 
Q 15.875 39.890625 15.1875 32.171875 
z
" id="DejaVuSans-101"/>
      <path id="DejaVuSans-32"/>
      <path d="M 37.109375 75.984375 
L 37.109375 68.5 
L 28.515625 68.5 
Q 23.6875 68.5 21.796875 66.546875 
Q 19.921875 64.59375 19.921875 59.515625 
L 19.921875 54.6875 
L 34.71875 54.6875 
L 34.71875 47.703125 
L 19.921875 47.703125 
L 19.921875 0 
L 10.890625 0 
L 10.890625 47.703125 
L 2.296875 47.703125 
L 2.296875 54.6875 
L 10.890625 54.6875 
L 10.890625 58.5 
Q 10.890625 67.625 15.140625 71.796875 
Q 19.390625 75.984375 28.609375 75.984375 
z
" id="DejaVuSans-102"/>
      <path d="M 41.109375 46.296875 
Q 39.59375 47.171875 37.8125 47.578125 
Q 36.03125 48 33.890625 48 
Q 26.265625 48 22.1875 43.046875 
Q 18.109375 38.09375 18.109375 28.8125 
L 18.109375 0 
L 9.078125 0 
L 9.078125 54.6875 
L 18.109375 54.6875 
L 18.109375 46.1875 
Q 20.953125 51.171875 25.484375 53.578125 
Q 30.03125 56 36.53125 56 
Q 37.453125 56 38.578125 55.875 
Q 39.703125 55.765625 41.0625 55.515625 
z
" id="DejaVuSans-114"/>
      <path d="M 30.609375 48.390625 
Q 23.390625 48.390625 19.1875 42.75 
Q 14.984375 37.109375 14.984375 27.296875 
Q 14.984375 17.484375 19.15625 11.84375 
Q 23.34375 6.203125 30.609375 6.203125 
Q 37.796875 6.203125 41.984375 11.859375 
Q 46.1875 17.53125 46.1875 27.296875 
Q 46.1875 37.015625 41.984375 42.703125 
Q 37.796875 48.390625 30.609375 48.390625 
z
M 30.609375 56 
Q 42.328125 56 49.015625 48.375 
Q 55.71875 40.765625 55.71875 27.296875 
Q 55.71875 13.875 49.015625 6.21875 
Q 42.328125 -1.421875 30.609375 -1.421875 
Q 18.84375 -1.421875 12.171875 6.21875 
Q 5.515625 13.875 5.515625 27.296875 
Q 5.515625 40.765625 12.171875 48.375 
Q 18.84375 56 30.609375 56 
z
" id="DejaVuSans-111"/>
      <path d="M 52 44.1875 
Q 55.375 50.25 60.0625 53.125 
Q 64.75 56 71.09375 56 
Q 79.640625 56 84.28125 50.015625 
Q 88.921875 44.046875 88.921875 33.015625 
L 88.921875 0 
L 79.890625 0 
L 79.890625 32.71875 
Q 79.890625 40.578125 77.09375 44.375 
Q 74.3125 48.1875 68.609375 48.1875 
Q 61.625 48.1875 57.5625 43.546875 
Q 53.515625 38.921875 53.515625 30.90625 
L 53.515625 0 
L 44.484375 0 
L 44.484375 32.71875 
Q 44.484375 40.625 41.703125 44.40625 
Q 38.921875 48.1875 33.109375 48.1875 
Q 26.21875 48.1875 22.15625 43.53125 
Q 18.109375 38.875 18.109375 30.90625 
L 18.109375 0 
L 9.078125 0 
L 9.078125 54.6875 
L 18.109375 54.6875 
L 18.109375 46.1875 
Q 21.1875 51.21875 25.484375 53.609375 
Q 29.78125 56 35.6875 56 
Q 41.65625 56 45.828125 52.96875 
Q 50 49.953125 52 44.1875 
z
" id="DejaVuSans-109"/>
      <path d="M 11.71875 12.40625 
L 22.015625 12.40625 
L 22.015625 4 
L 14.015625 -11.625 
L 7.71875 -11.625 
L 11.71875 4 
z
" id="DejaVuSans-44"/>
      <path d="M 48.6875 27.296875 
Q 48.6875 37.203125 44.609375 42.84375 
Q 40.53125 48.484375 33.40625 48.484375 
Q 26.265625 48.484375 22.1875 42.84375 
Q 18.109375 37.203125 18.109375 27.296875 
Q 18.109375 17.390625 22.1875 11.75 
Q 26.265625 6.109375 33.40625 6.109375 
Q 40.53125 6.109375 44.609375 11.75 
Q 48.6875 17.390625 48.6875 27.296875 
z
M 18.109375 46.390625 
Q 20.953125 51.265625 25.265625 53.625 
Q 29.59375 56 35.59375 56 
Q 45.5625 56 51.78125 48.09375 
Q 58.015625 40.1875 58.015625 27.296875 
Q 58.015625 14.40625 51.78125 6.484375 
Q 45.5625 -1.421875 35.59375 -1.421875 
Q 29.59375 -1.421875 25.265625 0.953125 
Q 20.953125 3.328125 18.109375 8.203125 
L 18.109375 0 
L 9.078125 0 
L 9.078125 75.984375 
L 18.109375 75.984375 
z
" id="DejaVuSans-98"/>
     </defs>
     <g transform="translate(156.937344 335.860562)scale(0.1 -0.1)">
      <use xlink:href="#DejaVuSans-68"/>
      <use x="77.001953" xlink:href="#DejaVuSans-105"/>
      <use x="104.785156" xlink:href="#DejaVuSans-115"/>
      <use x="156.884766" xlink:href="#DejaVuSans-116"/>
      <use x="196.09375" xlink:href="#DejaVuSans-97"/>
      <use x="257.373047" xlink:href="#DejaVuSans-110"/>
      <use x="320.751953" xlink:href="#DejaVuSans-99"/>
      <use x="375.732422" xlink:href="#DejaVuSans-101"/>
      <use x="437.255859" xlink:href="#DejaVuSans-32"/>
      <use x="469.042969" xlink:href="#DejaVuSans-102"/>
      <use x="504.248047" xlink:href="#DejaVuSans-114"/>
      <use x="545.330078" xlink:href="#DejaVuSans-111"/>
      <use x="606.511719" xlink:href="#DejaVuSans-109"/>
      <use x="703.923828" xlink:href="#DejaVuSans-32"/>
      <use x="735.710938" xlink:href="#DejaVuSans-114"/>
      <use x="776.792969" xlink:href="#DejaVuSans-101"/>
      <use x="838.316406" xlink:href="#DejaVuSans-115"/>
      <use x="890.416016" xlink:href="#DejaVuSans-116"/>
      <use x="929.625" xlink:href="#DejaVuSans-114"/>
      <use x="970.738281" xlink:href="#DejaVuSans-105"/>
      <use x="998.521484" xlink:href="#DejaVuSans-99"/>
      <use x="1053.501953" xlink:href="#DejaVuSans-116"/>
      <use x="1092.710938" xlink:href="#DejaVuSans-105"/>
      <use x="1120.494141" xlink:href="#DejaVuSans-111"/>
      <use x="1181.675781" xlink:href="#DejaVuSans-110"/>
      <use x="1245.054688" xlink:href="#DejaVuSans-32"/>
      <use x="1276.841797" xlink:href="#DejaVuSans-115"/>
      <use x="1328.941406" xlink:href="#DejaVuSans-105"/>
      <use x="1356.724609" xlink:href="#DejaVuSans-116"/>
      <use x="1395.933594" xlink:href="#DejaVuSans-101"/>
      <use x="1457.457031" xlink:href="#DejaVuSans-44"/>
      <use x="1489.244141" xlink:href="#DejaVuSans-32"/>
      <use x="1521.03125" xlink:href="#DejaVuSans-98"/>
     </g>
    </g>
   </g>
   <g id="matplotlib.axis_2">
    <g id="ytick_1">
     <g id="line2d_7">
      <defs>
       <path d="M 0 0 
L -3.5 0 
" id="m97bbb72292" style="stroke:#000000;stroke-width:0.8;"/>
      </defs>
      <g>
       <use style="stroke:#000000;stroke-width:0.8;" x="57.6" xlink:href="#m97bbb72292" y="302.674933"/>
      </g>
     </g>
     <g id="text_8">
      <!-- 0 -->
      <g transform="translate(44.2375 306.474152)scale(0.1 -0.1)">
       <use xlink:href="#DejaVuSans-48"/>
      </g>
     </g>
    </g>
    <g id="ytick_2">
     <g id="line2d_8">
      <g>
       <use style="stroke:#000000;stroke-width:0.8;" x="57.6" xlink:href="#m97bbb72292" y="251.900805"/>
      </g>
     </g>
     <g id="text_9">
      <!-- 20 -->
      <g transform="translate(37.875 255.700024)scale(0.1 -0.1)">
       <use xlink:href="#DejaVuSans-50"/>
       <use x="63.623047" xlink:href="#DejaVuSans-48"/>
      </g>
     </g>
    </g>
    <g id="ytick_3">
     <g id="line2d_9">
      <g>
       <use style="stroke:#000000;stroke-width:0.8;" x="57.6" xlink:href="#m97bbb72292" y="201.126678"/>
      </g>
     </g>
     <g id="text_10">
      <!-- 40 -->
      <g transform="translate(37.875 204.925896)scale(0.1 -0.1)">
       <use xlink:href="#DejaVuSans-52"/>
       <use x="63.623047" xlink:href="#DejaVuSans-48"/>
      </g>
     </g>
    </g>
    <g id="ytick_4">
     <g id="line2d_10">
      <g>
       <use style="stroke:#000000;stroke-width:0.8;" x="57.6" xlink:href="#m97bbb72292" y="150.35255"/>
      </g>
     </g>
     <g id="text_11">
      <!-- 60 -->
      <defs>
       <path d="M 33.015625 40.375 
Q 26.375 40.375 22.484375 35.828125 
Q 18.609375 31.296875 18.609375 23.390625 
Q 18.609375 15.53125 22.484375 10.953125 
Q 26.375 6.390625 33.015625 6.390625 
Q 39.65625 6.390625 43.53125 10.953125 
Q 47.40625 15.53125 47.40625 23.390625 
Q 47.40625 31.296875 43.53125 35.828125 
Q 39.65625 40.375 33.015625 40.375 
z
M 52.59375 71.296875 
L 52.59375 62.3125 
Q 48.875 64.0625 45.09375 64.984375 
Q 41.3125 65.921875 37.59375 65.921875 
Q 27.828125 65.921875 22.671875 59.328125 
Q 17.53125 52.734375 16.796875 39.40625 
Q 19.671875 43.65625 24.015625 45.921875 
Q 28.375 48.1875 33.59375 48.1875 
Q 44.578125 48.1875 50.953125 41.515625 
Q 57.328125 34.859375 57.328125 23.390625 
Q 57.328125 12.15625 50.6875 5.359375 
Q 44.046875 -1.421875 33.015625 -1.421875 
Q 20.359375 -1.421875 13.671875 8.265625 
Q 6.984375 17.96875 6.984375 36.375 
Q 6.984375 53.65625 15.1875 63.9375 
Q 23.390625 74.21875 37.203125 74.21875 
Q 40.921875 74.21875 44.703125 73.484375 
Q 48.484375 72.75 52.59375 71.296875 
z
" id="DejaVuSans-54"/>
      </defs>
      <g transform="translate(37.875 154.151768)scale(0.1 -0.1)">
       <use xlink:href="#DejaVuSans-54"/>
       <use x="63.623047" xlink:href="#DejaVuSans-48"/>
      </g>
     </g>
    </g>
    <g id="ytick_5">
     <g id="line2d_11">
      <g>
       <use style="stroke:#000000;stroke-width:0.8;" x="57.6" xlink:href="#m97bbb72292" y="99.578422"/>
      </g>
     </g>
     <g id="text_12">
      <!-- 80 -->
      <defs>
       <path d="M 31.78125 34.625 
Q 24.75 34.625 20.71875 30.859375 
Q 16.703125 27.09375 16.703125 20.515625 
Q 16.703125 13.921875 20.71875 10.15625 
Q 24.75 6.390625 31.78125 6.390625 
Q 38.8125 6.390625 42.859375 10.171875 
Q 46.921875 13.96875 46.921875 20.515625 
Q 46.921875 27.09375 42.890625 30.859375 
Q 38.875 34.625 31.78125 34.625 
z
M 21.921875 38.8125 
Q 15.578125 40.375 12.03125 44.71875 
Q 8.5 49.078125 8.5 55.328125 
Q 8.5 64.0625 14.71875 69.140625 
Q 20.953125 74.21875 31.78125 74.21875 
Q 42.671875 74.21875 48.875 69.140625 
Q 55.078125 64.0625 55.078125 55.328125 
Q 55.078125 49.078125 51.53125 44.71875 
Q 48 40.375 41.703125 38.8125 
Q 48.828125 37.15625 52.796875 32.3125 
Q 56.78125 27.484375 56.78125 20.515625 
Q 56.78125 9.90625 50.3125 4.234375 
Q 43.84375 -1.421875 31.78125 -1.421875 
Q 19.734375 -1.421875 13.25 4.234375 
Q 6.78125 9.90625 6.78125 20.515625 
Q 6.78125 27.484375 10.78125 32.3125 
Q 14.796875 37.15625 21.921875 38.8125 
z
M 18.3125 54.390625 
Q 18.3125 48.734375 21.84375 45.5625 
Q 25.390625 42.390625 31.78125 42.390625 
Q 38.140625 42.390625 41.71875 45.5625 
Q 45.3125 48.734375 45.3125 54.390625 
Q 45.3125 60.0625 41.71875 63.234375 
Q 38.140625 66.40625 31.78125 66.40625 
Q 25.390625 66.40625 21.84375 63.234375 
Q 18.3125 60.0625 18.3125 54.390625 
z
" id="DejaVuSans-56"/>
      </defs>
      <g transform="translate(37.875 103.37764)scale(0.1 -0.1)">
       <use xlink:href="#DejaVuSans-56"/>
       <use x="63.623047" xlink:href="#DejaVuSans-48"/>
      </g>
     </g>
    </g>
    <g id="ytick_6">
     <g id="line2d_12">
      <g>
       <use style="stroke:#000000;stroke-width:0.8;" x="57.6" xlink:href="#m97bbb72292" y="48.804294"/>
      </g>
     </g>
     <g id="text_13">
      <!-- 100 -->
      <g transform="translate(31.5125 52.603513)scale(0.1 -0.1)">
       <use xlink:href="#DejaVuSans-49"/>
       <use x="63.623047" xlink:href="#DejaVuSans-48"/>
       <use x="127.246094" xlink:href="#DejaVuSans-48"/>
      </g>
     </g>
    </g>
    <g id="text_14">
     <!-- Depth average -->
     <defs>
      <path d="M 18.109375 8.203125 
L 18.109375 -20.796875 
L 9.078125 -20.796875 
L 9.078125 54.6875 
L 18.109375 54.6875 
L 18.109375 46.390625 
Q 20.953125 51.265625 25.265625 53.625 
Q 29.59375 56 35.59375 56 
Q 45.5625 56 51.78125 48.09375 
Q 58.015625 40.1875 58.015625 27.296875 
Q 58.015625 14.40625 51.78125 6.484375 
Q 45.5625 -1.421875 35.59375 -1.421875 
Q 29.59375 -1.421875 25.265625 0.953125 
Q 20.953125 3.328125 18.109375 8.203125 
z
M 48.6875 27.296875 
Q 48.6875 37.203125 44.609375 42.84375 
Q 40.53125 48.484375 33.40625 48.484375 
Q 26.265625 48.484375 22.1875 42.84375 
Q 18.109375 37.203125 18.109375 27.296875 
Q 18.109375 17.390625 22.1875 11.75 
Q 26.265625 6.109375 33.40625 6.109375 
Q 40.53125 6.109375 44.609375 11.75 
Q 48.6875 17.390625 48.6875 27.296875 
z
" id="DejaVuSans-112"/>
      <path d="M 54.890625 33.015625 
L 54.890625 0 
L 45.90625 0 
L 45.90625 32.71875 
Q 45.90625 40.484375 42.875 44.328125 
Q 39.84375 48.1875 33.796875 48.1875 
Q 26.515625 48.1875 22.3125 43.546875 
Q 18.109375 38.921875 18.109375 30.90625 
L 18.109375 0 
L 9.078125 0 
L 9.078125 75.984375 
L 18.109375 75.984375 
L 18.109375 46.1875 
Q 21.34375 51.125 25.703125 53.5625 
Q 30.078125 56 35.796875 56 
Q 45.21875 56 50.046875 50.171875 
Q 54.890625 44.34375 54.890625 33.015625 
z
" id="DejaVuSans-104"/>
      <path d="M 2.984375 54.6875 
L 12.5 54.6875 
L 29.59375 8.796875 
L 46.6875 54.6875 
L 56.203125 54.6875 
L 35.6875 0 
L 23.484375 0 
z
" id="DejaVuSans-118"/>
      <path d="M 45.40625 27.984375 
Q 45.40625 37.75 41.375 43.109375 
Q 37.359375 48.484375 30.078125 48.484375 
Q 22.859375 48.484375 18.828125 43.109375 
Q 14.796875 37.75 14.796875 27.984375 
Q 14.796875 18.265625 18.828125 12.890625 
Q 22.859375 7.515625 30.078125 7.515625 
Q 37.359375 7.515625 41.375 12.890625 
Q 45.40625 18.265625 45.40625 27.984375 
z
M 54.390625 6.78125 
Q 54.390625 -7.171875 48.1875 -13.984375 
Q 42 -20.796875 29.203125 -20.796875 
Q 24.46875 -20.796875 20.265625 -20.09375 
Q 16.0625 -19.390625 12.109375 -17.921875 
L 12.109375 -9.1875 
Q 16.0625 -11.328125 19.921875 -12.34375 
Q 23.78125 -13.375 27.78125 -13.375 
Q 36.625 -13.375 41.015625 -8.765625 
Q 45.40625 -4.15625 45.40625 5.171875 
L 45.40625 9.625 
Q 42.625 4.78125 38.28125 2.390625 
Q 33.9375 0 27.875 0 
Q 17.828125 0 11.671875 7.65625 
Q 5.515625 15.328125 5.515625 27.984375 
Q 5.515625 40.671875 11.671875 48.328125 
Q 17.828125 56 27.875 56 
Q 33.9375 56 38.28125 53.609375 
Q 42.625 51.21875 45.40625 46.390625 
L 45.40625 54.6875 
L 54.390625 54.6875 
z
" id="DejaVuSans-103"/>
     </defs>
     <g transform="translate(25.432812 211.817062)rotate(-90)scale(0.1 -0.1)">
      <use xlink:href="#DejaVuSans-68"/>
      <use x="77.001953" xlink:href="#DejaVuSans-101"/>
      <use x="138.525391" xlink:href="#DejaVuSans-112"/>
      <use x="202.001953" xlink:href="#DejaVuSans-116"/>
      <use x="241.210938" xlink:href="#DejaVuSans-104"/>
      <use x="304.589844" xlink:href="#DejaVuSans-32"/>
      <use x="336.376953" xlink:href="#DejaVuSans-97"/>
      <use x="397.65625" xlink:href="#DejaVuSans-118"/>
      <use x="456.835938" xlink:href="#DejaVuSans-101"/>
      <use x="518.359375" xlink:href="#DejaVuSans-114"/>
      <use x="559.472656" xlink:href="#DejaVuSans-97"/>
      <use x="620.751953" xlink:href="#DejaVuSans-103"/>
      <use x="684.228516" xlink:href="#DejaVuSans-101"/>
     </g>
    </g>
   </g>
   <g id="line2d_13">
    <path clip-path="url(#pf956736006)" d="M 73.832727 228.635052 
L 74.483338 73.013527 
L 75.784558 71.349993 
L 76.435169 70.10409 
L 77.085779 69.267649 
L 77.736389 66.859428 
L 78.386999 63.485384 
L 80.989441 56.183259 
L 81.640051 55.399726 
L 82.290661 54.853277 
L 83.591882 53.568 
L 84.893103 53.676112 
L 85.543713 55.302052 
L 86.194323 55.0869 
L 88.146154 55.885694 
L 88.796764 56.683229 
L 89.447375 57.677952 
L 90.097985 58.42893 
L 90.748595 58.341198 
L 92.049816 60.456892 
L 92.700426 61.480697 
L 93.351037 62.989883 
L 94.001647 65.392618 
L 94.652257 66.314852 
L 95.302868 69.389891 
L 97.254698 75.061848 
L 98.555919 76.6374 
L 99.206529 76.942975 
L 99.85714 77.729671 
L 100.50775 78.784105 
L 101.15836 78.725664 
L 103.110191 81.872514 
L 104.411412 82.119565 
L 105.062022 83.010625 
L 105.712633 84.545614 
L 106.363243 85.295882 
L 107.013853 87.366866 
L 107.664463 87.927926 
L 109.616294 91.440857 
L 110.266905 92.194035 
L 110.917515 93.247142 
L 111.568125 95.492028 
L 112.869346 98.7907 
L 113.519956 99.894009 
L 114.170567 100.768 
L 114.821177 102.23885 
L 116.122398 105.516566 
L 116.773008 106.932548 
L 117.423618 108.62912 
L 118.074228 112.265029 
L 120.026059 119.615614 
L 120.67667 121.4851 
L 122.628501 124.779354 
L 123.929721 127.496765 
L 124.580332 131.504423 
L 125.230942 132.654434 
L 125.881552 134.063404 
L 126.532163 135.057015 
L 127.182773 136.279595 
L 127.833383 137.127677 
L 129.785214 143.622605 
L 131.737045 151.697305 
L 132.387655 154.034465 
L 134.339486 158.04825 
L 135.640707 163.045622 
L 136.291317 164.021905 
L 136.941927 168.453339 
L 137.592538 169.689892 
L 138.893758 174.532806 
L 139.544369 176.113139 
L 140.194979 179.637343 
L 140.845589 181.376423 
L 141.4962 184.627914 
L 142.14681 186.499576 
L 142.79742 187.731785 
L 143.448031 188.691184 
L 144.098641 190.063451 
L 144.749251 191.053727 
L 145.399862 192.376795 
L 146.701082 195.859611 
L 147.351692 196.98488 
L 148.002303 199.330353 
L 148.652913 200.521251 
L 149.303523 204.024247 
L 150.604744 206.390681 
L 151.255354 207.83332 
L 153.207185 211.322669 
L 153.857796 212.86563 
L 155.809627 215.992194 
L 157.761457 219.572233 
L 159.062678 221.876446 
L 160.363899 225.557548 
L 161.014509 226.625124 
L 162.96634 230.770841 
L 163.61695 231.904284 
L 168.821833 236.539673 
L 169.472443 245.710433 
L 170.123053 246.607999 
L 170.773664 247.228718 
L 173.376105 248.947537 
L 174.677326 250.657611 
L 176.629156 252.582756 
L 177.279767 253.715094 
L 179.882208 255.652806 
L 180.532818 256.104658 
L 181.834039 256.743415 
L 184.43648 258.777503 
L 185.087091 259.461007 
L 186.388311 260.314017 
L 187.689532 261.04233 
L 188.340142 261.614282 
L 190.942583 263.036914 
L 191.593194 263.259689 
L 192.894414 264.198518 
L 193.545025 264.312558 
L 199.400517 267.479747 
L 200.701738 268.502255 
L 202.002959 269.145767 
L 203.95479 270.10146 
L 205.25601 270.681247 
L 206.557231 271.157735 
L 208.509062 271.988673 
L 209.810282 272.365599 
L 211.111503 273.399142 
L 211.762113 273.709466 
L 212.412724 273.894062 
L 213.713944 274.748025 
L 214.364555 275.123496 
L 216.966996 275.921891 
L 219.569437 277.132138 
L 220.220047 277.228299 
L 222.171878 277.853437 
L 224.123709 278.355763 
L 224.77432 278.840021 
L 225.42493 279.059141 
L 226.72615 279.795778 
L 228.027371 280.221239 
L 228.677981 280.586417 
L 229.979202 281.688198 
L 233.232254 282.598144 
L 233.882864 283.118195 
L 241.039577 284.980042 
L 242.991408 285.611819 
L 245.59385 286.216771 
L 248.196291 286.548238 
L 248.846901 286.818462 
L 250.148122 287.055112 
L 251.449342 288.216513 
L 252.750563 288.522681 
L 254.051784 288.80901 
L 258.606056 289.413607 
L 265.762769 290.703955 
L 269.015821 291.085006 
L 276.172534 291.931383 
L 291.136571 293.335985 
L 295.690844 293.770922 
L 296.992064 293.806136 
L 299.594505 293.929721 
L 316.510373 294.344977 
L 322.365866 294.597968 
L 323.016477 294.787221 
L 324.968308 294.821595 
L 325.618918 294.67822 
L 330.17319 294.908717 
L 331.474411 294.973788 
L 338.631124 294.967143 
L 341.884176 295.032607 
L 345.787837 294.89021 
L 350.34211 294.626066 
L 352.944551 294.534845 
L 354.245772 295.047231 
L 359.450654 295.073136 
L 360.751875 295.043916 
L 361.402485 295.46244 
L 371.81225 295.286228 
L 376.366522 295.343473 
L 377.667743 295.233326 
L 380.270184 295.320695 
L 387.426897 294.986809 
L 389.378728 294.950939 
L 390.029339 295.043778 
L 397.186052 294.856945 
L 397.836662 294.944283 
L 398.487273 294.900162 
L 398.487273 294.900162 
" style="fill:none;stroke:#1f77b4;stroke-linecap:square;stroke-width:1.5;"/>
   </g>
   <g id="line2d_14">
    <path clip-path="url(#pf956736006)" d="M 73.832727 210.579358 
L 74.483338 210.701801 
L 75.133948 210.098745 
L 76.435169 210.474202 
L 77.085779 210.881603 
L 77.736389 210.541086 
L 78.386999 210.034759 
L 79.03761 209.055539 
L 79.68822 208.527164 
L 80.989441 208.633749 
L 82.941272 209.085961 
L 83.591882 209.056648 
L 84.893103 209.218552 
L 85.543713 211.210104 
L 86.194323 211.617143 
L 87.495544 211.454476 
L 88.146154 211.406006 
L 88.796764 211.827449 
L 90.097985 213.325264 
L 90.748595 213.389251 
L 91.399206 214.289948 
L 92.049816 214.74872 
L 92.700426 214.966406 
L 93.351037 216.309831 
L 94.001647 217.087757 
L 94.652257 217.618103 
L 95.302868 220.832728 
L 95.953478 222.772083 
L 96.604088 224.180429 
L 97.254698 224.847507 
L 98.555919 224.708318 
L 99.206529 224.529322 
L 99.85714 224.575103 
L 101.808971 225.185606 
L 102.459581 225.205035 
L 104.411412 224.585977 
L 105.062022 224.464587 
L 105.712633 224.905118 
L 106.363243 225.101961 
L 107.013853 225.477152 
L 109.616294 225.521869 
L 110.266905 225.398013 
L 110.917515 225.77063 
L 111.568125 226.009393 
L 112.218736 225.858722 
L 114.170567 226.595429 
L 116.122398 227.098516 
L 116.773008 227.245625 
L 117.423618 227.812486 
L 118.074228 228.812637 
L 119.375449 229.740445 
L 120.026059 230.35426 
L 120.67667 230.704027 
L 121.32728 230.726353 
L 121.97789 230.481385 
L 122.628501 230.558325 
L 123.929721 230.319505 
L 124.580332 230.828184 
L 125.230942 230.572953 
L 125.881552 230.704856 
L 127.182773 230.617778 
L 127.833383 230.387006 
L 129.134604 231.256257 
L 129.785214 231.102584 
L 131.086435 231.719854 
L 131.737045 232.124572 
L 132.387655 232.775097 
L 133.038266 232.903604 
L 134.990097 232.453579 
L 135.640707 232.465686 
L 136.291317 232.195021 
L 136.941927 232.886888 
L 137.592538 232.755532 
L 138.243148 233.164067 
L 138.893758 233.722369 
L 139.544369 233.809869 
L 140.194979 234.414535 
L 140.845589 234.079664 
L 141.4962 234.779826 
L 143.448031 234.435091 
L 144.098641 234.461549 
L 144.749251 234.132787 
L 145.399862 234.091231 
L 146.701082 234.788019 
L 147.351692 234.802914 
L 148.002303 235.888587 
L 148.652913 235.873958 
L 149.303523 235.68745 
L 151.255354 235.947789 
L 151.905965 235.711163 
L 153.857796 235.756649 
L 154.508406 235.928403 
L 155.159016 235.752478 
L 155.809627 235.451231 
L 156.460237 235.449137 
L 157.110847 235.772541 
L 157.761457 235.853862 
L 158.412068 235.820448 
L 159.062678 235.906427 
L 159.713288 236.421768 
L 160.363899 237.19469 
L 161.014509 237.267047 
L 162.96634 238.717595 
L 163.61695 238.857773 
L 164.267561 238.846875 
L 164.918171 240.498537 
L 165.568781 240.820479 
L 166.219392 241.304232 
L 167.520612 241.424864 
L 170.123053 241.327018 
L 170.773664 241.446714 
L 172.074884 241.196357 
L 173.376105 240.688895 
L 174.026715 241.343475 
L 174.677326 241.765777 
L 175.978546 241.852098 
L 176.629156 242.027563 
L 177.279767 242.626976 
L 178.580987 242.678718 
L 179.231598 242.625578 
L 179.882208 242.843991 
L 181.183429 242.656761 
L 181.834039 242.84026 
L 182.484649 242.867125 
L 183.13526 243.035629 
L 183.78587 242.92598 
L 184.43648 242.983634 
L 185.087091 243.210262 
L 185.737701 243.030187 
L 186.388311 243.001365 
L 187.038921 242.494883 
L 187.689532 242.246872 
L 188.340142 242.491865 
L 188.990752 242.387325 
L 189.641363 242.400786 
L 190.942583 242.065676 
L 191.593194 242.050431 
L 192.243804 242.395836 
L 192.894414 242.54284 
L 193.545025 242.368213 
L 194.195635 242.320857 
L 194.846245 242.140436 
L 196.147466 242.258476 
L 196.798076 242.505382 
L 197.448686 242.52994 
L 198.749907 242.403883 
L 199.400517 242.549585 
L 200.051128 243.579058 
L 200.701738 244.304134 
L 202.002959 244.523365 
L 202.653569 244.294849 
L 203.95479 244.414497 
L 204.6054 244.488589 
L 205.25601 244.36026 
L 205.906621 244.463109 
L 209.810282 244.136267 
L 210.460893 244.88665 
L 211.111503 245.010994 
L 211.762113 244.745778 
L 212.412724 244.348254 
L 213.063334 244.775484 
L 213.713944 245.062005 
L 214.364555 244.839553 
L 215.665775 244.749219 
L 217.617606 244.451058 
L 218.268216 244.723303 
L 218.918827 244.638163 
L 219.569437 244.937406 
L 220.870658 245.201476 
L 221.521268 245.13787 
L 222.171878 244.760735 
L 222.822489 244.700258 
L 223.473099 244.288339 
L 224.77432 244.17553 
L 225.42493 244.315075 
L 226.07554 244.849667 
L 226.72615 245.773103 
L 227.376761 246.408042 
L 228.027371 246.543661 
L 229.328592 248.001048 
L 229.979202 249.019677 
L 230.629812 248.941653 
L 231.280423 249.146748 
L 232.581643 249.084443 
L 233.232254 248.365824 
L 233.882864 249.100403 
L 234.533474 248.689734 
L 235.184085 248.548702 
L 235.834695 248.720569 
L 236.485305 248.70843 
L 237.135915 248.544284 
L 239.087746 248.798512 
L 239.738357 249.096568 
L 240.388967 248.92377 
L 241.039577 248.93193 
L 242.340798 250.061273 
L 243.642019 250.35413 
L 244.292629 251.242964 
L 246.24446 250.948886 
L 247.54568 251.021722 
L 250.798732 251.237671 
L 253.401173 252.039911 
L 254.051784 252.372558 
L 254.702394 252.246281 
L 256.654225 252.444715 
L 257.304835 252.592563 
L 257.955445 252.36389 
L 258.606056 252.516977 
L 259.907276 252.656492 
L 260.557887 252.675809 
L 261.859107 254.237716 
L 262.509718 254.46718 
L 263.160328 255.161308 
L 263.810938 255.227215 
L 264.461549 255.461493 
L 265.112159 255.279871 
L 266.413379 255.569057 
L 267.06399 255.442115 
L 267.7146 255.647427 
L 269.015821 256.621685 
L 270.317041 256.93699 
L 270.967652 257.110954 
L 271.618262 257.072591 
L 272.919483 257.202126 
L 275.521924 257.49322 
L 277.473755 257.212175 
L 278.124365 257.86416 
L 280.076196 257.981262 
L 280.726806 257.837067 
L 282.678637 258.076067 
L 283.979858 258.31403 
L 284.630468 258.238424 
L 285.281079 258.422958 
L 285.931689 258.427645 
L 286.582299 258.777105 
L 287.232909 258.970027 
L 287.88352 259.003859 
L 288.53413 259.172325 
L 289.18474 259.178519 
L 289.835351 259.31432 
L 290.485961 259.31739 
L 291.136571 259.475122 
L 292.437792 260.818609 
L 293.739013 261.116884 
L 295.690844 261.090925 
L 296.992064 261.397555 
L 297.642674 261.205463 
L 298.293285 261.297595 
L 300.245116 261.082881 
L 302.196947 261.152541 
L 302.847557 260.966916 
L 305.449998 260.913749 
L 306.100608 260.863561 
L 307.401829 261.019206 
L 308.052439 261.392755 
L 311.956101 261.980116 
L 312.606712 262.063659 
L 313.907932 261.975323 
L 314.558543 262.132831 
L 315.209153 262.048327 
L 315.859763 262.138102 
L 316.510373 261.932518 
L 317.160984 262.003823 
L 317.811594 261.921457 
L 318.462204 261.978024 
L 321.064646 261.60658 
L 322.365866 261.930287 
L 323.016477 262.575925 
L 324.317697 262.394739 
L 324.968308 262.276344 
L 325.618918 261.981715 
L 326.269528 262.029469 
L 326.920138 262.495816 
L 327.570749 262.461854 
L 328.221359 262.609056 
L 328.871969 263.323354 
L 329.52258 263.773299 
L 330.8238 263.989777 
L 332.125021 263.941581 
L 333.426242 264.347183 
L 334.727462 264.348791 
L 335.378073 264.084533 
L 336.028683 264.149202 
L 337.980514 263.943092 
L 338.631124 264.086902 
L 339.281734 264.078291 
L 339.932345 264.184902 
L 341.233565 264.219029 
L 341.884176 263.962725 
L 343.185396 264.182936 
L 343.836007 263.991873 
L 344.486617 263.198134 
L 345.787837 262.774555 
L 347.739668 261.98001 
L 348.390279 261.913341 
L 349.691499 261.361234 
L 350.34211 261.368259 
L 351.64333 261.563689 
L 352.944551 261.237311 
L 353.595161 261.857909 
L 354.245772 262.936353 
L 355.546992 263.116866 
L 356.197602 263.061019 
L 356.848213 263.372566 
L 357.498823 263.284052 
L 358.149433 263.406934 
L 359.450654 263.320548 
L 361.402485 263.138554 
L 362.703706 263.243816 
L 363.354316 263.200616 
L 364.655537 263.347473 
L 365.306147 263.774739 
L 367.257978 263.863009 
L 369.209809 263.890579 
L 369.860419 264.0397 
L 371.16164 264.037011 
L 372.46286 265.149524 
L 373.113471 265.128458 
L 375.065302 265.877701 
L 376.366522 266.08304 
L 377.017132 266.019762 
L 378.318353 265.755733 
L 379.619574 266.021979 
L 380.270184 266.471057 
L 380.920794 266.590842 
L 382.222015 266.423312 
L 382.872625 266.524765 
L 383.523236 266.814646 
L 384.173846 266.87285 
L 384.824456 267.146699 
L 385.475066 267.060237 
L 386.125677 267.186341 
L 387.426897 266.927091 
L 391.330559 266.837416 
L 391.98117 266.666811 
L 393.28239 266.725043 
L 395.234221 267.056959 
L 395.884831 266.823421 
L 397.186052 267.041285 
L 397.836662 267.294071 
L 398.487273 267.403323 
L 398.487273 267.403323 
" style="fill:none;stroke:#ff7f0e;stroke-linecap:square;stroke-width:1.5;"/>
   </g>
   <g id="patch_3">
    <path d="M 57.6 307.584 
L 57.6 41.472 
" style="fill:none;stroke:#000000;stroke-linecap:square;stroke-linejoin:miter;stroke-width:0.8;"/>
   </g>
   <g id="patch_4">
    <path d="M 414.72 307.584 
L 414.72 41.472 
" style="fill:none;stroke:#000000;stroke-linecap:square;stroke-linejoin:miter;stroke-width:0.8;"/>
   </g>
   <g id="patch_5">
    <path d="M 57.6 307.584 
L 414.72 307.584 
" style="fill:none;stroke:#000000;stroke-linecap:square;stroke-linejoin:miter;stroke-width:0.8;"/>
   </g>
   <g id="patch_6">
    <path d="M 57.6 41.472 
L 414.72 41.472 
" style="fill:none;stroke:#000000;stroke-linecap:square;stroke-linejoin:miter;stroke-width:0.8;"/>
   </g>
   <g id="legend_1">
    <g id="patch_7">
     <path d="M 283.105938 78.82825 
L 407.72 78.82825 
Q 409.72 78.82825 409.72 76.82825 
L 409.72 48.472 
Q 409.72 46.472 407.72 46.472 
L 283.105938 46.472 
Q 281.105938 46.472 281.105938 48.472 
L 281.105938 76.82825 
Q 281.105938 78.82825 283.105938 78.82825 
z
" style="fill:#ffffff;opacity:0.8;stroke:#cccccc;stroke-linejoin:miter;"/>
    </g>
    <g id="line2d_15">
     <path d="M 285.105938 54.570437 
L 305.105938 54.570437 
" style="fill:none;stroke:#1f77b4;stroke-linecap:square;stroke-width:1.5;"/>
    </g>
    <g id="line2d_16"/>
    <g id="text_15">
     <!-- HiC (sample-1-4) -->
     <defs>
      <path d="M 9.8125 72.90625 
L 19.671875 72.90625 
L 19.671875 43.015625 
L 55.515625 43.015625 
L 55.515625 72.90625 
L 65.375 72.90625 
L 65.375 0 
L 55.515625 0 
L 55.515625 34.71875 
L 19.671875 34.71875 
L 19.671875 0 
L 9.8125 0 
z
" id="DejaVuSans-72"/>
      <path d="M 64.40625 67.28125 
L 64.40625 56.890625 
Q 59.421875 61.53125 53.78125 63.8125 
Q 48.140625 66.109375 41.796875 66.109375 
Q 29.296875 66.109375 22.65625 58.46875 
Q 16.015625 50.828125 16.015625 36.375 
Q 16.015625 21.96875 22.65625 14.328125 
Q 29.296875 6.6875 41.796875 6.6875 
Q 48.140625 6.6875 53.78125 8.984375 
Q 59.421875 11.28125 64.40625 15.921875 
L 64.40625 5.609375 
Q 59.234375 2.09375 53.4375 0.328125 
Q 47.65625 -1.421875 41.21875 -1.421875 
Q 24.65625 -1.421875 15.125 8.703125 
Q 5.609375 18.84375 5.609375 36.375 
Q 5.609375 53.953125 15.125 64.078125 
Q 24.65625 74.21875 41.21875 74.21875 
Q 47.75 74.21875 53.53125 72.484375 
Q 59.328125 70.75 64.40625 67.28125 
z
" id="DejaVuSans-67"/>
      <path d="M 31 75.875 
Q 24.46875 64.65625 21.28125 53.65625 
Q 18.109375 42.671875 18.109375 31.390625 
Q 18.109375 20.125 21.3125 9.0625 
Q 24.515625 -2 31 -13.1875 
L 23.1875 -13.1875 
Q 15.875 -1.703125 12.234375 9.375 
Q 8.59375 20.453125 8.59375 31.390625 
Q 8.59375 42.28125 12.203125 53.3125 
Q 15.828125 64.359375 23.1875 75.875 
z
" id="DejaVuSans-40"/>
      <path d="M 9.421875 75.984375 
L 18.40625 75.984375 
L 18.40625 0 
L 9.421875 0 
z
" id="DejaVuSans-108"/>
      <path d="M 4.890625 31.390625 
L 31.203125 31.390625 
L 31.203125 23.390625 
L 4.890625 23.390625 
z
" id="DejaVuSans-45"/>
      <path d="M 8.015625 75.875 
L 15.828125 75.875 
Q 23.140625 64.359375 26.78125 53.3125 
Q 30.421875 42.28125 30.421875 31.390625 
Q 30.421875 20.453125 26.78125 9.375 
Q 23.140625 -1.703125 15.828125 -13.1875 
L 8.015625 -13.1875 
Q 14.5 -2 17.703125 9.0625 
Q 20.90625 20.125 20.90625 31.390625 
Q 20.90625 42.671875 17.703125 53.65625 
Q 14.5 64.65625 8.015625 75.875 
z
" id="DejaVuSans-41"/>
     </defs>
     <g transform="translate(313.105938 58.070437)scale(0.1 -0.1)">
      <use xlink:href="#DejaVuSans-72"/>
      <use x="75.195312" xlink:href="#DejaVuSans-105"/>
      <use x="102.978516" xlink:href="#DejaVuSans-67"/>
      <use x="172.802734" xlink:href="#DejaVuSans-32"/>
      <use x="204.589844" xlink:href="#DejaVuSans-40"/>
      <use x="243.603516" xlink:href="#DejaVuSans-115"/>
      <use x="295.703125" xlink:href="#DejaVuSans-97"/>
      <use x="356.982422" xlink:href="#DejaVuSans-109"/>
      <use x="454.394531" xlink:href="#DejaVuSans-112"/>
      <use x="517.871094" xlink:href="#DejaVuSans-108"/>
      <use x="545.654297" xlink:href="#DejaVuSans-101"/>
      <use x="607.177734" xlink:href="#DejaVuSans-45"/>
      <use x="643.261719" xlink:href="#DejaVuSans-49"/>
      <use x="706.884766" xlink:href="#DejaVuSans-45"/>
      <use x="742.96875" xlink:href="#DejaVuSans-52"/>
      <use x="806.591797" xlink:href="#DejaVuSans-41"/>
     </g>
    </g>
    <g id="line2d_17">
     <path d="M 285.105938 69.248562 
L 305.105938 69.248562 
" style="fill:none;stroke:#ff7f0e;stroke-linecap:square;stroke-width:1.5;"/>
    </g>
    <g id="line2d_18"/>
    <g id="text_16">
     <!-- ExoC (sample-1-5) -->
     <defs>
      <path d="M 9.8125 72.90625 
L 55.90625 72.90625 
L 55.90625 64.59375 
L 19.671875 64.59375 
L 19.671875 43.015625 
L 54.390625 43.015625 
L 54.390625 34.71875 
L 19.671875 34.71875 
L 19.671875 8.296875 
L 56.78125 8.296875 
L 56.78125 0 
L 9.8125 0 
z
" id="DejaVuSans-69"/>
      <path d="M 54.890625 54.6875 
L 35.109375 28.078125 
L 55.90625 0 
L 45.3125 0 
L 29.390625 21.484375 
L 13.484375 0 
L 2.875 0 
L 24.125 28.609375 
L 4.6875 54.6875 
L 15.28125 54.6875 
L 29.78125 35.203125 
L 44.28125 54.6875 
z
" id="DejaVuSans-120"/>
     </defs>
     <g transform="translate(313.105938 72.748562)scale(0.1 -0.1)">
      <use xlink:href="#DejaVuSans-69"/>
      <use x="63.183594" xlink:href="#DejaVuSans-120"/>
      <use x="122.316406" xlink:href="#DejaVuSans-111"/>
      <use x="183.498047" xlink:href="#DejaVuSans-67"/>
      <use x="253.322266" xlink:href="#DejaVuSans-32"/>
      <use x="285.109375" xlink:href="#DejaVuSans-40"/>
      <use x="324.123047" xlink:href="#DejaVuSans-115"/>
      <use x="376.222656" xlink:href="#DejaVuSans-97"/>
      <use x="437.501953" xlink:href="#DejaVuSans-109"/>
      <use x="534.914062" xlink:href="#DejaVuSans-112"/>
      <use x="598.390625" xlink:href="#DejaVuSans-108"/>
      <use x="626.173828" xlink:href="#DejaVuSans-101"/>
      <use x="687.697266" xlink:href="#DejaVuSans-45"/>
      <use x="723.78125" xlink:href="#DejaVuSans-49"/>
      <use x="787.404297" xlink:href="#DejaVuSans-45"/>
      <use x="823.488281" xlink:href="#DejaVuSans-53"/>
      <use x="887.111328" xlink:href="#DejaVuSans-41"/>
     </g>
    </g>
   </g>
  </g>
  <g id="text_17">
   <!-- Distance coverage (500b, samples 4-5) -->
   <g transform="translate(112.089375 16.030125)scale(0.12 -0.12)">
    <use xlink:href="#DejaVuSans-68"/>
    <use x="77.001953" xlink:href="#DejaVuSans-105"/>
    <use x="104.785156" xlink:href="#DejaVuSans-115"/>
    <use x="156.884766" xlink:href="#DejaVuSans-116"/>
    <use x="196.09375" xlink:href="#DejaVuSans-97"/>
    <use x="257.373047" xlink:href="#DejaVuSans-110"/>
    <use x="320.751953" xlink:href="#DejaVuSans-99"/>
    <use x="375.732422" xlink:href="#DejaVuSans-101"/>
    <use x="437.255859" xlink:href="#DejaVuSans-32"/>
    <use x="469.042969" xlink:href="#DejaVuSans-99"/>
    <use x="524.023438" xlink:href="#DejaVuSans-111"/>
    <use x="585.205078" xlink:href="#DejaVuSans-118"/>
    <use x="644.384766" xlink:href="#DejaVuSans-101"/>
    <use x="705.908203" xlink:href="#DejaVuSans-114"/>
    <use x="747.021484" xlink:href="#DejaVuSans-97"/>
    <use x="808.300781" xlink:href="#DejaVuSans-103"/>
    <use x="871.777344" xlink:href="#DejaVuSans-101"/>
    <use x="933.300781" xlink:href="#DejaVuSans-32"/>
    <use x="965.087891" xlink:href="#DejaVuSans-40"/>
    <use x="1004.101562" xlink:href="#DejaVuSans-53"/>
    <use x="1067.724609" xlink:href="#DejaVuSans-48"/>
    <use x="1131.347656" xlink:href="#DejaVuSans-48"/>
    <use x="1194.970703" xlink:href="#DejaVuSans-98"/>
    <use x="1258.447266" xlink:href="#DejaVuSans-44"/>
    <use x="1290.234375" xlink:href="#DejaVuSans-32"/>
    <use x="1322.021484" xlink:href="#DejaVuSans-115"/>
    <use x="1374.121094" xlink:href="#DejaVuSans-97"/>
    <use x="1435.400391" xlink:href="#DejaVuSans-109"/>
    <use x="1532.8125" xlink:href="#DejaVuSans-112"/>
    <use x="1596.289062" xlink:href="#DejaVuSans-108"/>
    <use x="1624.072266" xlink:href="#DejaVuSans-101"/>
    <use x="1685.595703" xlink:href="#DejaVuSans-115"/>
    <use x="1737.695312" xlink:href="#DejaVuSans-32"/>
    <use x="1769.482422" xlink:href="#DejaVuSans-52"/>
    <use x="1833.105469" xlink:href="#DejaVuSans-45"/>
    <use x="1869.189453" xlink:href="#DejaVuSans-53"/>
    <use x="1932.8125" xlink:href="#DejaVuSans-41"/>
   </g>
  </g>
 </g>
 <defs>
  <clipPath id="pf956736006">
   <rect height="266.112" width="357.12" x="57.6" y="41.472"/>
  </clipPath>
 </defs>
</svg>
