<?xml version="1.0" encoding="utf-8" standalone="no"?>
<!DOCTYPE svg PUBLIC "-//W3C//DTD SVG 1.1//EN"
  "http://www.w3.org/Graphics/SVG/1.1/DTD/svg11.dtd">
<!-- Created with matplotlib (https://matplotlib.org/) -->
<svg height="345.6pt" version="1.1" viewBox="0 0 460.8 345.6" width="460.8pt" xmlns="http://www.w3.org/2000/svg" xmlns:xlink="http://www.w3.org/1999/xlink">
 <defs>
  <style type="text/css">
*{stroke-linecap:butt;stroke-linejoin:round;}
  </style>
 </defs>
 <g id="figure_1">
  <g id="patch_1">
   <path d="M 0 345.6 
L 460.8 345.6 
L 460.8 0 
L 0 0 
z
" style="fill:#ffffff;"/>
  </g>
  <g id="axes_1">
   <g id="patch_2">
    <path d="M 57.6 307.584 
L 414.72 307.584 
L 414.72 41.472 
L 57.6 41.472 
z
" style="fill:#ffffff;"/>
   </g>
   <g id="matplotlib.axis_1">
    <g id="xtick_1">
     <g id="line2d_1">
      <defs>
       <path d="M 0 0 
L 0 3.5 
" id="m39fa2aeff0" style="stroke:#000000;stroke-width:0.8;"/>
      </defs>
      <g>
       <use style="stroke:#000000;stroke-width:0.8;" x="73.832727" xlink:href="#m39fa2aeff0" y="307.584"/>
      </g>
     </g>
     <g id="text_1">
      <!-- 0 -->
      <defs>
       <path d="M 31.78125 66.40625 
Q 24.171875 66.40625 20.328125 58.90625 
Q 16.5 51.421875 16.5 36.375 
Q 16.5 21.390625 20.328125 13.890625 
Q 24.171875 6.390625 31.78125 6.390625 
Q 39.453125 6.390625 43.28125 13.890625 
Q 47.125 21.390625 47.125 36.375 
Q 47.125 51.421875 43.28125 58.90625 
Q 39.453125 66.40625 31.78125 66.40625 
z
M 31.78125 74.21875 
Q 44.046875 74.21875 50.515625 64.515625 
Q 56.984375 54.828125 56.984375 36.375 
Q 56.984375 17.96875 50.515625 8.265625 
Q 44.046875 -1.421875 31.78125 -1.421875 
Q 19.53125 -1.421875 13.0625 8.265625 
Q 6.59375 17.96875 6.59375 36.375 
Q 6.59375 54.828125 13.0625 64.515625 
Q 19.53125 74.21875 31.78125 74.21875 
z
" id="DejaVuSans-48"/>
      </defs>
      <g transform="translate(70.651477 322.182437)scale(0.1 -0.1)">
       <use xlink:href="#DejaVuSans-48"/>
      </g>
     </g>
    </g>
    <g id="xtick_2">
     <g id="line2d_2">
      <g>
       <use style="stroke:#000000;stroke-width:0.8;" x="138.776625" xlink:href="#m39fa2aeff0" y="307.584"/>
      </g>
     </g>
     <g id="text_2">
      <!-- 1000 -->
      <defs>
       <path d="M 12.40625 8.296875 
L 28.515625 8.296875 
L 28.515625 63.921875 
L 10.984375 60.40625 
L 10.984375 69.390625 
L 28.421875 72.90625 
L 38.28125 72.90625 
L 38.28125 8.296875 
L 54.390625 8.296875 
L 54.390625 0 
L 12.40625 0 
z
" id="DejaVuSans-49"/>
      </defs>
      <g transform="translate(126.051625 322.182437)scale(0.1 -0.1)">
       <use xlink:href="#DejaVuSans-49"/>
       <use x="63.623047" xlink:href="#DejaVuSans-48"/>
       <use x="127.246094" xlink:href="#DejaVuSans-48"/>
       <use x="190.869141" xlink:href="#DejaVuSans-48"/>
      </g>
     </g>
    </g>
    <g id="xtick_3">
     <g id="line2d_3">
      <g>
       <use style="stroke:#000000;stroke-width:0.8;" x="203.720523" xlink:href="#m39fa2aeff0" y="307.584"/>
      </g>
     </g>
     <g id="text_3">
      <!-- 2000 -->
      <defs>
       <path d="M 19.1875 8.296875 
L 53.609375 8.296875 
L 53.609375 0 
L 7.328125 0 
L 7.328125 8.296875 
Q 12.9375 14.109375 22.625 23.890625 
Q 32.328125 33.6875 34.8125 36.53125 
Q 39.546875 41.84375 41.421875 45.53125 
Q 43.3125 49.21875 43.3125 52.78125 
Q 43.3125 58.59375 39.234375 62.25 
Q 35.15625 65.921875 28.609375 65.921875 
Q 23.96875 65.921875 18.8125 64.3125 
Q 13.671875 62.703125 7.8125 59.421875 
L 7.8125 69.390625 
Q 13.765625 71.78125 18.9375 73 
Q 24.125 74.21875 28.421875 74.21875 
Q 39.75 74.21875 46.484375 68.546875 
Q 53.21875 62.890625 53.21875 53.421875 
Q 53.21875 48.921875 51.53125 44.890625 
Q 49.859375 40.875 45.40625 35.40625 
Q 44.1875 33.984375 37.640625 27.21875 
Q 31.109375 20.453125 19.1875 8.296875 
z
" id="DejaVuSans-50"/>
      </defs>
      <g transform="translate(190.995523 322.182437)scale(0.1 -0.1)">
       <use xlink:href="#DejaVuSans-50"/>
       <use x="63.623047" xlink:href="#DejaVuSans-48"/>
       <use x="127.246094" xlink:href="#DejaVuSans-48"/>
       <use x="190.869141" xlink:href="#DejaVuSans-48"/>
      </g>
     </g>
    </g>
    <g id="xtick_4">
     <g id="line2d_4">
      <g>
       <use style="stroke:#000000;stroke-width:0.8;" x="268.664421" xlink:href="#m39fa2aeff0" y="307.584"/>
      </g>
     </g>
     <g id="text_4">
      <!-- 3000 -->
      <defs>
       <path d="M 40.578125 39.3125 
Q 47.65625 37.796875 51.625 33 
Q 55.609375 28.21875 55.609375 21.1875 
Q 55.609375 10.40625 48.1875 4.484375 
Q 40.765625 -1.421875 27.09375 -1.421875 
Q 22.515625 -1.421875 17.65625 -0.515625 
Q 12.796875 0.390625 7.625 2.203125 
L 7.625 11.71875 
Q 11.71875 9.328125 16.59375 8.109375 
Q 21.484375 6.890625 26.8125 6.890625 
Q 36.078125 6.890625 40.9375 10.546875 
Q 45.796875 14.203125 45.796875 21.1875 
Q 45.796875 27.640625 41.28125 31.265625 
Q 36.765625 34.90625 28.71875 34.90625 
L 20.21875 34.90625 
L 20.21875 43.015625 
L 29.109375 43.015625 
Q 36.375 43.015625 40.234375 45.921875 
Q 44.09375 48.828125 44.09375 54.296875 
Q 44.09375 59.90625 40.109375 62.90625 
Q 36.140625 65.921875 28.71875 65.921875 
Q 24.65625 65.921875 20.015625 65.03125 
Q 15.375 64.15625 9.8125 62.3125 
L 9.8125 71.09375 
Q 15.4375 72.65625 20.34375 73.4375 
Q 25.25 74.21875 29.59375 74.21875 
Q 40.828125 74.21875 47.359375 69.109375 
Q 53.90625 64.015625 53.90625 55.328125 
Q 53.90625 49.265625 50.4375 45.09375 
Q 46.96875 40.921875 40.578125 39.3125 
z
" id="DejaVuSans-51"/>
      </defs>
      <g transform="translate(255.939421 322.182437)scale(0.1 -0.1)">
       <use xlink:href="#DejaVuSans-51"/>
       <use x="63.623047" xlink:href="#DejaVuSans-48"/>
       <use x="127.246094" xlink:href="#DejaVuSans-48"/>
       <use x="190.869141" xlink:href="#DejaVuSans-48"/>
      </g>
     </g>
    </g>
    <g id="xtick_5">
     <g id="line2d_5">
      <g>
       <use style="stroke:#000000;stroke-width:0.8;" x="333.608319" xlink:href="#m39fa2aeff0" y="307.584"/>
      </g>
     </g>
     <g id="text_5">
      <!-- 4000 -->
      <defs>
       <path d="M 37.796875 64.3125 
L 12.890625 25.390625 
L 37.796875 25.390625 
z
M 35.203125 72.90625 
L 47.609375 72.90625 
L 47.609375 25.390625 
L 58.015625 25.390625 
L 58.015625 17.1875 
L 47.609375 17.1875 
L 47.609375 0 
L 37.796875 0 
L 37.796875 17.1875 
L 4.890625 17.1875 
L 4.890625 26.703125 
z
" id="DejaVuSans-52"/>
      </defs>
      <g transform="translate(320.883319 322.182437)scale(0.1 -0.1)">
       <use xlink:href="#DejaVuSans-52"/>
       <use x="63.623047" xlink:href="#DejaVuSans-48"/>
       <use x="127.246094" xlink:href="#DejaVuSans-48"/>
       <use x="190.869141" xlink:href="#DejaVuSans-48"/>
      </g>
     </g>
    </g>
    <g id="xtick_6">
     <g id="line2d_6">
      <g>
       <use style="stroke:#000000;stroke-width:0.8;" x="398.552217" xlink:href="#m39fa2aeff0" y="307.584"/>
      </g>
     </g>
     <g id="text_6">
      <!-- 5000 -->
      <defs>
       <path d="M 10.796875 72.90625 
L 49.515625 72.90625 
L 49.515625 64.59375 
L 19.828125 64.59375 
L 19.828125 46.734375 
Q 21.96875 47.46875 24.109375 47.828125 
Q 26.265625 48.1875 28.421875 48.1875 
Q 40.625 48.1875 47.75 41.5 
Q 54.890625 34.8125 54.890625 23.390625 
Q 54.890625 11.625 47.5625 5.09375 
Q 40.234375 -1.421875 26.90625 -1.421875 
Q 22.3125 -1.421875 17.546875 -0.640625 
Q 12.796875 0.140625 7.71875 1.703125 
L 7.71875 11.625 
Q 12.109375 9.234375 16.796875 8.0625 
Q 21.484375 6.890625 26.703125 6.890625 
Q 35.15625 6.890625 40.078125 11.328125 
Q 45.015625 15.765625 45.015625 23.390625 
Q 45.015625 31 40.078125 35.4375 
Q 35.15625 39.890625 26.703125 39.890625 
Q 22.75 39.890625 18.8125 39.015625 
Q 14.890625 38.140625 10.796875 36.28125 
z
" id="DejaVuSans-53"/>
      </defs>
      <g transform="translate(385.827217 322.182437)scale(0.1 -0.1)">
       <use xlink:href="#DejaVuSans-53"/>
       <use x="63.623047" xlink:href="#DejaVuSans-48"/>
       <use x="127.246094" xlink:href="#DejaVuSans-48"/>
       <use x="190.869141" xlink:href="#DejaVuSans-48"/>
      </g>
     </g>
    </g>
    <g id="text_7">
     <!-- Distance from restriction site, b -->
     <defs>
      <path d="M 19.671875 64.796875 
L 19.671875 8.109375 
L 31.59375 8.109375 
Q 46.6875 8.109375 53.6875 14.9375 
Q 60.6875 21.78125 60.6875 36.53125 
Q 60.6875 51.171875 53.6875 57.984375 
Q 46.6875 64.796875 31.59375 64.796875 
z
M 9.8125 72.90625 
L 30.078125 72.90625 
Q 51.265625 72.90625 61.171875 64.09375 
Q 71.09375 55.28125 71.09375 36.53125 
Q 71.09375 17.671875 61.125 8.828125 
Q 51.171875 0 30.078125 0 
L 9.8125 0 
z
" id="DejaVuSans-68"/>
      <path d="M 9.421875 54.6875 
L 18.40625 54.6875 
L 18.40625 0 
L 9.421875 0 
z
M 9.421875 75.984375 
L 18.40625 75.984375 
L 18.40625 64.59375 
L 9.421875 64.59375 
z
" id="DejaVuSans-105"/>
      <path d="M 44.28125 53.078125 
L 44.28125 44.578125 
Q 40.484375 46.53125 36.375 47.5 
Q 32.28125 48.484375 27.875 48.484375 
Q 21.1875 48.484375 17.84375 46.4375 
Q 14.5 44.390625 14.5 40.28125 
Q 14.5 37.15625 16.890625 35.375 
Q 19.28125 33.59375 26.515625 31.984375 
L 29.59375 31.296875 
Q 39.15625 29.25 43.1875 25.515625 
Q 47.21875 21.78125 47.21875 15.09375 
Q 47.21875 7.46875 41.1875 3.015625 
Q 35.15625 -1.421875 24.609375 -1.421875 
Q 20.21875 -1.421875 15.453125 -0.5625 
Q 10.6875 0.296875 5.421875 2 
L 5.421875 11.28125 
Q 10.40625 8.6875 15.234375 7.390625 
Q 20.0625 6.109375 24.8125 6.109375 
Q 31.15625 6.109375 34.5625 8.28125 
Q 37.984375 10.453125 37.984375 14.40625 
Q 37.984375 18.0625 35.515625 20.015625 
Q 33.0625 21.96875 24.703125 23.78125 
L 21.578125 24.515625 
Q 13.234375 26.265625 9.515625 29.90625 
Q 5.8125 33.546875 5.8125 39.890625 
Q 5.8125 47.609375 11.28125 51.796875 
Q 16.75 56 26.8125 56 
Q 31.78125 56 36.171875 55.265625 
Q 40.578125 54.546875 44.28125 53.078125 
z
" id="DejaVuSans-115"/>
      <path d="M 18.3125 70.21875 
L 18.3125 54.6875 
L 36.8125 54.6875 
L 36.8125 47.703125 
L 18.3125 47.703125 
L 18.3125 18.015625 
Q 18.3125 11.328125 20.140625 9.421875 
Q 21.96875 7.515625 27.59375 7.515625 
L 36.8125 7.515625 
L 36.8125 0 
L 27.59375 0 
Q 17.1875 0 13.234375 3.875 
Q 9.28125 7.765625 9.28125 18.015625 
L 9.28125 47.703125 
L 2.6875 47.703125 
L 2.6875 54.6875 
L 9.28125 54.6875 
L 9.28125 70.21875 
z
" id="DejaVuSans-116"/>
      <path d="M 34.28125 27.484375 
Q 23.390625 27.484375 19.1875 25 
Q 14.984375 22.515625 14.984375 16.5 
Q 14.984375 11.71875 18.140625 8.90625 
Q 21.296875 6.109375 26.703125 6.109375 
Q 34.1875 6.109375 38.703125 11.40625 
Q 43.21875 16.703125 43.21875 25.484375 
L 43.21875 27.484375 
z
M 52.203125 31.203125 
L 52.203125 0 
L 43.21875 0 
L 43.21875 8.296875 
Q 40.140625 3.328125 35.546875 0.953125 
Q 30.953125 -1.421875 24.3125 -1.421875 
Q 15.921875 -1.421875 10.953125 3.296875 
Q 6 8.015625 6 15.921875 
Q 6 25.140625 12.171875 29.828125 
Q 18.359375 34.515625 30.609375 34.515625 
L 43.21875 34.515625 
L 43.21875 35.40625 
Q 43.21875 41.609375 39.140625 45 
Q 35.0625 48.390625 27.6875 48.390625 
Q 23 48.390625 18.546875 47.265625 
Q 14.109375 46.140625 10.015625 43.890625 
L 10.015625 52.203125 
Q 14.9375 54.109375 19.578125 55.046875 
Q 24.21875 56 28.609375 56 
Q 40.484375 56 46.34375 49.84375 
Q 52.203125 43.703125 52.203125 31.203125 
z
" id="DejaVuSans-97"/>
      <path d="M 54.890625 33.015625 
L 54.890625 0 
L 45.90625 0 
L 45.90625 32.71875 
Q 45.90625 40.484375 42.875 44.328125 
Q 39.84375 48.1875 33.796875 48.1875 
Q 26.515625 48.1875 22.3125 43.546875 
Q 18.109375 38.921875 18.109375 30.90625 
L 18.109375 0 
L 9.078125 0 
L 9.078125 54.6875 
L 18.109375 54.6875 
L 18.109375 46.1875 
Q 21.34375 51.125 25.703125 53.5625 
Q 30.078125 56 35.796875 56 
Q 45.21875 56 50.046875 50.171875 
Q 54.890625 44.34375 54.890625 33.015625 
z
" id="DejaVuSans-110"/>
      <path d="M 48.78125 52.59375 
L 48.78125 44.1875 
Q 44.96875 46.296875 41.140625 47.34375 
Q 37.3125 48.390625 33.40625 48.390625 
Q 24.65625 48.390625 19.8125 42.84375 
Q 14.984375 37.3125 14.984375 27.296875 
Q 14.984375 17.28125 19.8125 11.734375 
Q 24.65625 6.203125 33.40625 6.203125 
Q 37.3125 6.203125 41.140625 7.25 
Q 44.96875 8.296875 48.78125 10.40625 
L 48.78125 2.09375 
Q 45.015625 0.34375 40.984375 -0.53125 
Q 36.96875 -1.421875 32.421875 -1.421875 
Q 20.0625 -1.421875 12.78125 6.34375 
Q 5.515625 14.109375 5.515625 27.296875 
Q 5.515625 40.671875 12.859375 48.328125 
Q 20.21875 56 33.015625 56 
Q 37.15625 56 41.109375 55.140625 
Q 45.0625 54.296875 48.78125 52.59375 
z
" id="DejaVuSans-99"/>
      <path d="M 56.203125 29.59375 
L 56.203125 25.203125 
L 14.890625 25.203125 
Q 15.484375 15.921875 20.484375 11.0625 
Q 25.484375 6.203125 34.421875 6.203125 
Q 39.59375 6.203125 44.453125 7.46875 
Q 49.3125 8.734375 54.109375 11.28125 
L 54.109375 2.78125 
Q 49.265625 0.734375 44.1875 -0.34375 
Q 39.109375 -1.421875 33.890625 -1.421875 
Q 20.796875 -1.421875 13.15625 6.1875 
Q 5.515625 13.8125 5.515625 26.8125 
Q 5.515625 40.234375 12.765625 48.109375 
Q 20.015625 56 32.328125 56 
Q 43.359375 56 49.78125 48.890625 
Q 56.203125 41.796875 56.203125 29.59375 
z
M 47.21875 32.234375 
Q 47.125 39.59375 43.09375 43.984375 
Q 39.0625 48.390625 32.421875 48.390625 
Q 24.90625 48.390625 20.390625 44.140625 
Q 15.875 39.890625 15.1875 32.171875 
z
" id="DejaVuSans-101"/>
      <path id="DejaVuSans-32"/>
      <path d="M 37.109375 75.984375 
L 37.109375 68.5 
L 28.515625 68.5 
Q 23.6875 68.5 21.796875 66.546875 
Q 19.921875 64.59375 19.921875 59.515625 
L 19.921875 54.6875 
L 34.71875 54.6875 
L 34.71875 47.703125 
L 19.921875 47.703125 
L 19.921875 0 
L 10.890625 0 
L 10.890625 47.703125 
L 2.296875 47.703125 
L 2.296875 54.6875 
L 10.890625 54.6875 
L 10.890625 58.5 
Q 10.890625 67.625 15.140625 71.796875 
Q 19.390625 75.984375 28.609375 75.984375 
z
" id="DejaVuSans-102"/>
      <path d="M 41.109375 46.296875 
Q 39.59375 47.171875 37.8125 47.578125 
Q 36.03125 48 33.890625 48 
Q 26.265625 48 22.1875 43.046875 
Q 18.109375 38.09375 18.109375 28.8125 
L 18.109375 0 
L 9.078125 0 
L 9.078125 54.6875 
L 18.109375 54.6875 
L 18.109375 46.1875 
Q 20.953125 51.171875 25.484375 53.578125 
Q 30.03125 56 36.53125 56 
Q 37.453125 56 38.578125 55.875 
Q 39.703125 55.765625 41.0625 55.515625 
z
" id="DejaVuSans-114"/>
      <path d="M 30.609375 48.390625 
Q 23.390625 48.390625 19.1875 42.75 
Q 14.984375 37.109375 14.984375 27.296875 
Q 14.984375 17.484375 19.15625 11.84375 
Q 23.34375 6.203125 30.609375 6.203125 
Q 37.796875 6.203125 41.984375 11.859375 
Q 46.1875 17.53125 46.1875 27.296875 
Q 46.1875 37.015625 41.984375 42.703125 
Q 37.796875 48.390625 30.609375 48.390625 
z
M 30.609375 56 
Q 42.328125 56 49.015625 48.375 
Q 55.71875 40.765625 55.71875 27.296875 
Q 55.71875 13.875 49.015625 6.21875 
Q 42.328125 -1.421875 30.609375 -1.421875 
Q 18.84375 -1.421875 12.171875 6.21875 
Q 5.515625 13.875 5.515625 27.296875 
Q 5.515625 40.765625 12.171875 48.375 
Q 18.84375 56 30.609375 56 
z
" id="DejaVuSans-111"/>
      <path d="M 52 44.1875 
Q 55.375 50.25 60.0625 53.125 
Q 64.75 56 71.09375 56 
Q 79.640625 56 84.28125 50.015625 
Q 88.921875 44.046875 88.921875 33.015625 
L 88.921875 0 
L 79.890625 0 
L 79.890625 32.71875 
Q 79.890625 40.578125 77.09375 44.375 
Q 74.3125 48.1875 68.609375 48.1875 
Q 61.625 48.1875 57.5625 43.546875 
Q 53.515625 38.921875 53.515625 30.90625 
L 53.515625 0 
L 44.484375 0 
L 44.484375 32.71875 
Q 44.484375 40.625 41.703125 44.40625 
Q 38.921875 48.1875 33.109375 48.1875 
Q 26.21875 48.1875 22.15625 43.53125 
Q 18.109375 38.875 18.109375 30.90625 
L 18.109375 0 
L 9.078125 0 
L 9.078125 54.6875 
L 18.109375 54.6875 
L 18.109375 46.1875 
Q 21.1875 51.21875 25.484375 53.609375 
Q 29.78125 56 35.6875 56 
Q 41.65625 56 45.828125 52.96875 
Q 50 49.953125 52 44.1875 
z
" id="DejaVuSans-109"/>
      <path d="M 11.71875 12.40625 
L 22.015625 12.40625 
L 22.015625 4 
L 14.015625 -11.625 
L 7.71875 -11.625 
L 11.71875 4 
z
" id="DejaVuSans-44"/>
      <path d="M 48.6875 27.296875 
Q 48.6875 37.203125 44.609375 42.84375 
Q 40.53125 48.484375 33.40625 48.484375 
Q 26.265625 48.484375 22.1875 42.84375 
Q 18.109375 37.203125 18.109375 27.296875 
Q 18.109375 17.390625 22.1875 11.75 
Q 26.265625 6.109375 33.40625 6.109375 
Q 40.53125 6.109375 44.609375 11.75 
Q 48.6875 17.390625 48.6875 27.296875 
z
M 18.109375 46.390625 
Q 20.953125 51.265625 25.265625 53.625 
Q 29.59375 56 35.59375 56 
Q 45.5625 56 51.78125 48.09375 
Q 58.015625 40.1875 58.015625 27.296875 
Q 58.015625 14.40625 51.78125 6.484375 
Q 45.5625 -1.421875 35.59375 -1.421875 
Q 29.59375 -1.421875 25.265625 0.953125 
Q 20.953125 3.328125 18.109375 8.203125 
L 18.109375 0 
L 9.078125 0 
L 9.078125 75.984375 
L 18.109375 75.984375 
z
" id="DejaVuSans-98"/>
     </defs>
     <g transform="translate(156.937344 335.860562)scale(0.1 -0.1)">
      <use xlink:href="#DejaVuSans-68"/>
      <use x="77.001953" xlink:href="#DejaVuSans-105"/>
      <use x="104.785156" xlink:href="#DejaVuSans-115"/>
      <use x="156.884766" xlink:href="#DejaVuSans-116"/>
      <use x="196.09375" xlink:href="#DejaVuSans-97"/>
      <use x="257.373047" xlink:href="#DejaVuSans-110"/>
      <use x="320.751953" xlink:href="#DejaVuSans-99"/>
      <use x="375.732422" xlink:href="#DejaVuSans-101"/>
      <use x="437.255859" xlink:href="#DejaVuSans-32"/>
      <use x="469.042969" xlink:href="#DejaVuSans-102"/>
      <use x="504.248047" xlink:href="#DejaVuSans-114"/>
      <use x="545.330078" xlink:href="#DejaVuSans-111"/>
      <use x="606.511719" xlink:href="#DejaVuSans-109"/>
      <use x="703.923828" xlink:href="#DejaVuSans-32"/>
      <use x="735.710938" xlink:href="#DejaVuSans-114"/>
      <use x="776.792969" xlink:href="#DejaVuSans-101"/>
      <use x="838.316406" xlink:href="#DejaVuSans-115"/>
      <use x="890.416016" xlink:href="#DejaVuSans-116"/>
      <use x="929.625" xlink:href="#DejaVuSans-114"/>
      <use x="970.738281" xlink:href="#DejaVuSans-105"/>
      <use x="998.521484" xlink:href="#DejaVuSans-99"/>
      <use x="1053.501953" xlink:href="#DejaVuSans-116"/>
      <use x="1092.710938" xlink:href="#DejaVuSans-105"/>
      <use x="1120.494141" xlink:href="#DejaVuSans-111"/>
      <use x="1181.675781" xlink:href="#DejaVuSans-110"/>
      <use x="1245.054688" xlink:href="#DejaVuSans-32"/>
      <use x="1276.841797" xlink:href="#DejaVuSans-115"/>
      <use x="1328.941406" xlink:href="#DejaVuSans-105"/>
      <use x="1356.724609" xlink:href="#DejaVuSans-116"/>
      <use x="1395.933594" xlink:href="#DejaVuSans-101"/>
      <use x="1457.457031" xlink:href="#DejaVuSans-44"/>
      <use x="1489.244141" xlink:href="#DejaVuSans-32"/>
      <use x="1521.03125" xlink:href="#DejaVuSans-98"/>
     </g>
    </g>
   </g>
   <g id="matplotlib.axis_2">
    <g id="ytick_1">
     <g id="line2d_7">
      <defs>
       <path d="M 0 0 
L -3.5 0 
" id="mcfd0f1d4d5" style="stroke:#000000;stroke-width:0.8;"/>
      </defs>
      <g>
       <use style="stroke:#000000;stroke-width:0.8;" x="57.6" xlink:href="#mcfd0f1d4d5" y="295.488"/>
      </g>
     </g>
     <g id="text_8">
      <!-- 0 -->
      <g transform="translate(44.2375 299.287219)scale(0.1 -0.1)">
       <use xlink:href="#DejaVuSans-48"/>
      </g>
     </g>
    </g>
    <g id="ytick_2">
     <g id="line2d_8">
      <g>
       <use style="stroke:#000000;stroke-width:0.8;" x="57.6" xlink:href="#mcfd0f1d4d5" y="263.799049"/>
      </g>
     </g>
     <g id="text_9">
      <!-- 10 -->
      <g transform="translate(37.875 267.598268)scale(0.1 -0.1)">
       <use xlink:href="#DejaVuSans-49"/>
       <use x="63.623047" xlink:href="#DejaVuSans-48"/>
      </g>
     </g>
    </g>
    <g id="ytick_3">
     <g id="line2d_9">
      <g>
       <use style="stroke:#000000;stroke-width:0.8;" x="57.6" xlink:href="#mcfd0f1d4d5" y="232.110098"/>
      </g>
     </g>
     <g id="text_10">
      <!-- 20 -->
      <g transform="translate(37.875 235.909317)scale(0.1 -0.1)">
       <use xlink:href="#DejaVuSans-50"/>
       <use x="63.623047" xlink:href="#DejaVuSans-48"/>
      </g>
     </g>
    </g>
    <g id="ytick_4">
     <g id="line2d_10">
      <g>
       <use style="stroke:#000000;stroke-width:0.8;" x="57.6" xlink:href="#mcfd0f1d4d5" y="200.421147"/>
      </g>
     </g>
     <g id="text_11">
      <!-- 30 -->
      <g transform="translate(37.875 204.220366)scale(0.1 -0.1)">
       <use xlink:href="#DejaVuSans-51"/>
       <use x="63.623047" xlink:href="#DejaVuSans-48"/>
      </g>
     </g>
    </g>
    <g id="ytick_5">
     <g id="line2d_11">
      <g>
       <use style="stroke:#000000;stroke-width:0.8;" x="57.6" xlink:href="#mcfd0f1d4d5" y="168.732196"/>
      </g>
     </g>
     <g id="text_12">
      <!-- 40 -->
      <g transform="translate(37.875 172.531415)scale(0.1 -0.1)">
       <use xlink:href="#DejaVuSans-52"/>
       <use x="63.623047" xlink:href="#DejaVuSans-48"/>
      </g>
     </g>
    </g>
    <g id="ytick_6">
     <g id="line2d_12">
      <g>
       <use style="stroke:#000000;stroke-width:0.8;" x="57.6" xlink:href="#mcfd0f1d4d5" y="137.043245"/>
      </g>
     </g>
     <g id="text_13">
      <!-- 50 -->
      <g transform="translate(37.875 140.842464)scale(0.1 -0.1)">
       <use xlink:href="#DejaVuSans-53"/>
       <use x="63.623047" xlink:href="#DejaVuSans-48"/>
      </g>
     </g>
    </g>
    <g id="ytick_7">
     <g id="line2d_13">
      <g>
       <use style="stroke:#000000;stroke-width:0.8;" x="57.6" xlink:href="#mcfd0f1d4d5" y="105.354294"/>
      </g>
     </g>
     <g id="text_14">
      <!-- 60 -->
      <defs>
       <path d="M 33.015625 40.375 
Q 26.375 40.375 22.484375 35.828125 
Q 18.609375 31.296875 18.609375 23.390625 
Q 18.609375 15.53125 22.484375 10.953125 
Q 26.375 6.390625 33.015625 6.390625 
Q 39.65625 6.390625 43.53125 10.953125 
Q 47.40625 15.53125 47.40625 23.390625 
Q 47.40625 31.296875 43.53125 35.828125 
Q 39.65625 40.375 33.015625 40.375 
z
M 52.59375 71.296875 
L 52.59375 62.3125 
Q 48.875 64.0625 45.09375 64.984375 
Q 41.3125 65.921875 37.59375 65.921875 
Q 27.828125 65.921875 22.671875 59.328125 
Q 17.53125 52.734375 16.796875 39.40625 
Q 19.671875 43.65625 24.015625 45.921875 
Q 28.375 48.1875 33.59375 48.1875 
Q 44.578125 48.1875 50.953125 41.515625 
Q 57.328125 34.859375 57.328125 23.390625 
Q 57.328125 12.15625 50.6875 5.359375 
Q 44.046875 -1.421875 33.015625 -1.421875 
Q 20.359375 -1.421875 13.671875 8.265625 
Q 6.984375 17.96875 6.984375 36.375 
Q 6.984375 53.65625 15.1875 63.9375 
Q 23.390625 74.21875 37.203125 74.21875 
Q 40.921875 74.21875 44.703125 73.484375 
Q 48.484375 72.75 52.59375 71.296875 
z
" id="DejaVuSans-54"/>
      </defs>
      <g transform="translate(37.875 109.153513)scale(0.1 -0.1)">
       <use xlink:href="#DejaVuSans-54"/>
       <use x="63.623047" xlink:href="#DejaVuSans-48"/>
      </g>
     </g>
    </g>
    <g id="ytick_8">
     <g id="line2d_14">
      <g>
       <use style="stroke:#000000;stroke-width:0.8;" x="57.6" xlink:href="#mcfd0f1d4d5" y="73.665343"/>
      </g>
     </g>
     <g id="text_15">
      <!-- 70 -->
      <defs>
       <path d="M 8.203125 72.90625 
L 55.078125 72.90625 
L 55.078125 68.703125 
L 28.609375 0 
L 18.3125 0 
L 43.21875 64.59375 
L 8.203125 64.59375 
z
" id="DejaVuSans-55"/>
      </defs>
      <g transform="translate(37.875 77.464562)scale(0.1 -0.1)">
       <use xlink:href="#DejaVuSans-55"/>
       <use x="63.623047" xlink:href="#DejaVuSans-48"/>
      </g>
     </g>
    </g>
    <g id="ytick_9">
     <g id="line2d_15">
      <g>
       <use style="stroke:#000000;stroke-width:0.8;" x="57.6" xlink:href="#mcfd0f1d4d5" y="41.976392"/>
      </g>
     </g>
     <g id="text_16">
      <!-- 80 -->
      <defs>
       <path d="M 31.78125 34.625 
Q 24.75 34.625 20.71875 30.859375 
Q 16.703125 27.09375 16.703125 20.515625 
Q 16.703125 13.921875 20.71875 10.15625 
Q 24.75 6.390625 31.78125 6.390625 
Q 38.8125 6.390625 42.859375 10.171875 
Q 46.921875 13.96875 46.921875 20.515625 
Q 46.921875 27.09375 42.890625 30.859375 
Q 38.875 34.625 31.78125 34.625 
z
M 21.921875 38.8125 
Q 15.578125 40.375 12.03125 44.71875 
Q 8.5 49.078125 8.5 55.328125 
Q 8.5 64.0625 14.71875 69.140625 
Q 20.953125 74.21875 31.78125 74.21875 
Q 42.671875 74.21875 48.875 69.140625 
Q 55.078125 64.0625 55.078125 55.328125 
Q 55.078125 49.078125 51.53125 44.71875 
Q 48 40.375 41.703125 38.8125 
Q 48.828125 37.15625 52.796875 32.3125 
Q 56.78125 27.484375 56.78125 20.515625 
Q 56.78125 9.90625 50.3125 4.234375 
Q 43.84375 -1.421875 31.78125 -1.421875 
Q 19.734375 -1.421875 13.25 4.234375 
Q 6.78125 9.90625 6.78125 20.515625 
Q 6.78125 27.484375 10.78125 32.3125 
Q 14.796875 37.15625 21.921875 38.8125 
z
M 18.3125 54.390625 
Q 18.3125 48.734375 21.84375 45.5625 
Q 25.390625 42.390625 31.78125 42.390625 
Q 38.140625 42.390625 41.71875 45.5625 
Q 45.3125 48.734375 45.3125 54.390625 
Q 45.3125 60.0625 41.71875 63.234375 
Q 38.140625 66.40625 31.78125 66.40625 
Q 25.390625 66.40625 21.84375 63.234375 
Q 18.3125 60.0625 18.3125 54.390625 
z
" id="DejaVuSans-56"/>
      </defs>
      <g transform="translate(37.875 45.775611)scale(0.1 -0.1)">
       <use xlink:href="#DejaVuSans-56"/>
       <use x="63.623047" xlink:href="#DejaVuSans-48"/>
      </g>
     </g>
    </g>
    <g id="text_17">
     <!-- Depth average -->
     <defs>
      <path d="M 18.109375 8.203125 
L 18.109375 -20.796875 
L 9.078125 -20.796875 
L 9.078125 54.6875 
L 18.109375 54.6875 
L 18.109375 46.390625 
Q 20.953125 51.265625 25.265625 53.625 
Q 29.59375 56 35.59375 56 
Q 45.5625 56 51.78125 48.09375 
Q 58.015625 40.1875 58.015625 27.296875 
Q 58.015625 14.40625 51.78125 6.484375 
Q 45.5625 -1.421875 35.59375 -1.421875 
Q 29.59375 -1.421875 25.265625 0.953125 
Q 20.953125 3.328125 18.109375 8.203125 
z
M 48.6875 27.296875 
Q 48.6875 37.203125 44.609375 42.84375 
Q 40.53125 48.484375 33.40625 48.484375 
Q 26.265625 48.484375 22.1875 42.84375 
Q 18.109375 37.203125 18.109375 27.296875 
Q 18.109375 17.390625 22.1875 11.75 
Q 26.265625 6.109375 33.40625 6.109375 
Q 40.53125 6.109375 44.609375 11.75 
Q 48.6875 17.390625 48.6875 27.296875 
z
" id="DejaVuSans-112"/>
      <path d="M 54.890625 33.015625 
L 54.890625 0 
L 45.90625 0 
L 45.90625 32.71875 
Q 45.90625 40.484375 42.875 44.328125 
Q 39.84375 48.1875 33.796875 48.1875 
Q 26.515625 48.1875 22.3125 43.546875 
Q 18.109375 38.921875 18.109375 30.90625 
L 18.109375 0 
L 9.078125 0 
L 9.078125 75.984375 
L 18.109375 75.984375 
L 18.109375 46.1875 
Q 21.34375 51.125 25.703125 53.5625 
Q 30.078125 56 35.796875 56 
Q 45.21875 56 50.046875 50.171875 
Q 54.890625 44.34375 54.890625 33.015625 
z
" id="DejaVuSans-104"/>
      <path d="M 2.984375 54.6875 
L 12.5 54.6875 
L 29.59375 8.796875 
L 46.6875 54.6875 
L 56.203125 54.6875 
L 35.6875 0 
L 23.484375 0 
z
" id="DejaVuSans-118"/>
      <path d="M 45.40625 27.984375 
Q 45.40625 37.75 41.375 43.109375 
Q 37.359375 48.484375 30.078125 48.484375 
Q 22.859375 48.484375 18.828125 43.109375 
Q 14.796875 37.75 14.796875 27.984375 
Q 14.796875 18.265625 18.828125 12.890625 
Q 22.859375 7.515625 30.078125 7.515625 
Q 37.359375 7.515625 41.375 12.890625 
Q 45.40625 18.265625 45.40625 27.984375 
z
M 54.390625 6.78125 
Q 54.390625 -7.171875 48.1875 -13.984375 
Q 42 -20.796875 29.203125 -20.796875 
Q 24.46875 -20.796875 20.265625 -20.09375 
Q 16.0625 -19.390625 12.109375 -17.921875 
L 12.109375 -9.1875 
Q 16.0625 -11.328125 19.921875 -12.34375 
Q 23.78125 -13.375 27.78125 -13.375 
Q 36.625 -13.375 41.015625 -8.765625 
Q 45.40625 -4.15625 45.40625 5.171875 
L 45.40625 9.625 
Q 42.625 4.78125 38.28125 2.390625 
Q 33.9375 0 27.875 0 
Q 17.828125 0 11.671875 7.65625 
Q 5.515625 15.328125 5.515625 27.984375 
Q 5.515625 40.671875 11.671875 48.328125 
Q 17.828125 56 27.875 56 
Q 33.9375 56 38.28125 53.609375 
Q 42.625 51.21875 45.40625 46.390625 
L 45.40625 54.6875 
L 54.390625 54.6875 
z
" id="DejaVuSans-103"/>
     </defs>
     <g transform="translate(31.795312 211.817062)rotate(-90)scale(0.1 -0.1)">
      <use xlink:href="#DejaVuSans-68"/>
      <use x="77.001953" xlink:href="#DejaVuSans-101"/>
      <use x="138.525391" xlink:href="#DejaVuSans-112"/>
      <use x="202.001953" xlink:href="#DejaVuSans-116"/>
      <use x="241.210938" xlink:href="#DejaVuSans-104"/>
      <use x="304.589844" xlink:href="#DejaVuSans-32"/>
      <use x="336.376953" xlink:href="#DejaVuSans-97"/>
      <use x="397.65625" xlink:href="#DejaVuSans-118"/>
      <use x="456.835938" xlink:href="#DejaVuSans-101"/>
      <use x="518.359375" xlink:href="#DejaVuSans-114"/>
      <use x="559.472656" xlink:href="#DejaVuSans-97"/>
      <use x="620.751953" xlink:href="#DejaVuSans-103"/>
      <use x="684.228516" xlink:href="#DejaVuSans-101"/>
     </g>
    </g>
   </g>
   <g id="line2d_16">
    <path clip-path="url(#p6c351195ed)" d="M 73.832727 295.255476 
L 73.962615 294.938872 
L 76.300595 294.877901 
L 79.288015 295.043733 
L 80.976556 295.203877 
L 85.068022 295.376586 
L 95.653877 295.463278 
L 176.898693 295.415522 
L 224.957178 295.469932 
L 228.529092 295.470164 
L 277.237015 295.48702 
L 398.487273 295.488 
L 398.487273 295.488 
" style="fill:none;stroke:#1f77b4;stroke-linecap:square;stroke-width:1.5;"/>
   </g>
   <g id="line2d_17">
    <path clip-path="url(#p6c351195ed)" d="M 73.832727 77.193949 
L 73.897671 77.472248 
L 73.962615 76.034937 
L 74.027559 76.579607 
L 74.157447 78.139714 
L 74.222391 77.394522 
L 74.417222 72.712042 
L 74.54711 72.870948 
L 74.936774 74.321286 
L 75.066661 79.971045 
L 75.196549 79.513051 
L 75.261493 79.36662 
L 75.586213 86.245342 
L 75.781044 91.043121 
L 75.910932 94.156679 
L 76.105764 109.604066 
L 76.170708 111.215917 
L 76.235651 111.113302 
L 76.365539 110.565377 
L 76.430483 110.686996 
L 76.690259 112.375046 
L 76.950034 110.703157 
L 77.20981 113.022261 
L 77.274754 113.283621 
L 77.339698 113.091145 
L 77.404642 113.218871 
L 77.469586 113.006161 
L 77.599473 114.391614 
L 77.664417 114.057572 
L 78.183968 118.680762 
L 78.443744 124.40097 
L 78.573632 125.3352 
L 78.638576 124.799866 
L 78.70352 124.93767 
L 78.833407 124.410606 
L 78.898351 125.545556 
L 78.963295 124.912104 
L 79.028239 125.239926 
L 79.093183 125.201983 
L 79.158127 125.148532 
L 79.223071 124.648582 
L 79.352959 126.751232 
L 79.417902 126.384241 
L 79.742622 130.712099 
L 79.807566 130.311082 
L 79.937454 129.629682 
L 80.002398 129.670501 
L 80.067341 129.070999 
L 80.262173 131.239345 
L 80.457005 134.255092 
L 80.521949 133.401773 
L 80.586893 135.041139 
L 80.651837 134.813838 
L 80.846668 134.38288 
L 80.976556 133.497395 
L 81.236332 137.872167 
L 81.301276 137.723088 
L 81.366219 137.235593 
L 81.431163 137.373301 
L 81.561051 137.90112 
L 81.690939 137.36475 
L 81.820827 137.511006 
L 81.885771 137.781764 
L 82.015658 136.847667 
L 82.080602 136.917478 
L 82.21049 137.741988 
L 82.275434 137.689909 
L 82.340378 137.965032 
L 82.794985 145.349847 
L 82.859929 145.389004 
L 83.054761 151.094411 
L 83.119705 151.407419 
L 83.184649 151.333143 
L 83.444424 151.105482 
L 83.509368 151.341151 
L 83.769144 149.474518 
L 83.963975 151.880194 
L 84.028919 151.933514 
L 84.093863 152.272237 
L 84.158807 153.591405 
L 84.223751 153.584513 
L 84.353639 153.547482 
L 84.418583 153.968639 
L 84.483527 153.813083 
L 84.54847 153.548087 
L 84.743302 154.330968 
L 84.808246 154.130457 
L 84.87319 154.256305 
L 84.938134 154.767433 
L 85.197909 152.262182 
L 85.262853 152.852491 
L 85.587573 151.679096 
L 85.717461 152.78683 
L 85.912292 151.688246 
L 86.172068 152.488185 
L 86.237012 152.268767 
L 86.301956 152.236572 
L 86.3669 152.45283 
L 86.561731 156.894098 
L 86.626675 157.010171 
L 86.691619 156.51012 
L 86.756563 156.728979 
L 86.886451 156.97531 
L 86.951395 156.723189 
L 87.016339 156.933658 
L 87.081282 156.904086 
L 87.146226 156.746967 
L 87.21117 156.798502 
L 87.341058 156.538698 
L 87.406002 156.261951 
L 87.53589 158.240493 
L 87.665778 156.830448 
L 87.795665 158.7117 
L 87.990497 157.994815 
L 88.185329 157.435858 
L 88.38016 158.591145 
L 88.510048 159.203974 
L 88.574992 159.111749 
L 88.834768 157.096721 
L 88.899712 156.957867 
L 88.964655 157.316341 
L 89.354319 166.352908 
L 89.419263 168.792854 
L 89.484207 168.547442 
L 89.614094 169.119492 
L 89.679038 168.971833 
L 89.743982 167.302788 
L 89.808926 169.148445 
L 89.87387 168.111383 
L 89.938814 167.758752 
L 90.068702 168.243161 
L 90.133646 167.92966 
L 90.19859 168.099804 
L 90.263533 168.080321 
L 90.588253 170.3954 
L 90.848029 174.240003 
L 90.912972 174.012962 
L 91.04286 173.565173 
L 91.107804 173.834366 
L 91.172748 173.786391 
L 91.237692 173.870596 
L 91.302636 174.233817 
L 91.36758 174.199212 
L 91.497467 174.214786 
L 91.822187 176.873717 
L 91.952075 176.688628 
L 92.017019 176.594255 
L 92.146906 177.380166 
L 92.21185 176.834799 
L 92.276794 177.139739 
L 92.341738 177.106579 
L 92.471626 177.532721 
L 92.796345 183.678894 
L 92.861289 184.185862 
L 92.926233 183.800193 
L 93.250953 186.075021 
L 93.445784 188.181711 
L 93.640616 188.654907 
L 93.70556 188.675708 
L 93.900392 189.159652 
L 93.965336 189.259694 
L 94.095223 188.461797 
L 94.160167 188.493469 
L 94.290055 190.163304 
L 94.419943 190.342934 
L 94.484887 190.035599 
L 94.549831 190.113821 
L 94.614775 190.109482 
L 94.809606 191.07142 
L 94.87455 190.902366 
L 95.523989 194.078186 
L 95.783765 197.893902 
L 95.978596 197.772607 
L 96.108484 198.568522 
L 96.173428 198.083718 
L 96.238372 198.229522 
L 96.498148 197.593512 
L 96.563092 197.852499 
L 96.628035 197.748775 
L 96.822867 197.256358 
L 97.017699 197.189944 
L 97.147587 197.65384 
L 97.342418 199.297467 
L 97.667138 200.16664 
L 97.797026 199.852544 
L 97.861969 200.249791 
L 97.926913 200.043223 
L 97.991857 200.097302 
L 98.056801 199.66505 
L 98.121745 199.831675 
L 98.511408 198.971604 
L 98.641296 199.701401 
L 98.70624 201.177518 
L 98.771184 201.133763 
L 98.966016 199.775395 
L 99.03096 199.878541 
L 99.095904 200.912966 
L 99.160847 200.778507 
L 99.225791 201.078865 
L 99.420623 204.104686 
L 99.485567 204.366473 
L 99.550511 204.335022 
L 99.615455 204.287511 
L 99.810286 205.304189 
L 99.87523 205.240875 
L 99.940174 204.611877 
L 100.005118 204.679917 
L 100.19995 204.196281 
L 100.459725 204.857077 
L 100.524669 204.880621 
L 100.589613 204.19708 
L 100.654557 204.352223 
L 100.719501 204.581208 
L 100.784445 204.065157 
L 100.979277 201.137621 
L 101.36894 197.811373 
L 101.433884 197.765235 
L 101.563772 198.172264 
L 101.693659 197.546491 
L 101.953435 201.845261 
L 102.018379 201.750735 
L 102.083323 202.42946 
L 102.148267 202.203839 
L 102.278155 202.522146 
L 102.408042 202.211531 
L 102.53793 202.00817 
L 102.667818 202.209693 
L 102.732762 202.164088 
L 103.057481 203.705038 
L 103.122425 203.446811 
L 103.187369 203.450781 
L 103.252313 203.342334 
L 103.382201 203.882142 
L 103.447145 203.796229 
L 103.512089 203.875722 
L 103.641976 206.625154 
L 103.70692 206.599272 
L 104.03164 208.809266 
L 104.226471 207.899978 
L 104.486247 209.943723 
L 104.551191 209.698721 
L 104.616135 209.525153 
L 104.810967 210.563141 
L 104.87591 211.157066 
L 104.940854 211.010429 
L 105.005798 211.273688 
L 105.20063 210.677774 
L 105.330518 210.890865 
L 105.395462 210.864807 
L 105.655237 210.040271 
L 105.720181 210.169354 
L 105.915013 210.955584 
L 105.979957 210.408458 
L 106.044901 210.667513 
L 106.239732 211.921313 
L 106.36962 211.640765 
L 106.499508 211.883972 
L 106.759283 213.267568 
L 106.824227 213.325932 
L 106.954115 212.711571 
L 107.019059 212.77004 
L 107.148947 212.719493 
L 107.473666 211.591825 
L 107.53861 211.712735 
L 107.603554 211.925439 
L 107.798386 211.371064 
L 107.86333 210.761515 
L 107.928274 211.119503 
L 107.993218 211.069855 
L 108.058161 211.215475 
L 108.252993 210.404529 
L 108.382881 211.36431 
L 108.447825 211.338984 
L 108.642657 210.76687 
L 108.837488 211.448376 
L 108.902432 210.858775 
L 108.967376 210.877749 
L 109.227152 210.669797 
L 109.357039 210.476187 
L 109.486927 209.777689 
L 109.616815 208.537968 
L 110.006478 209.763757 
L 110.266254 207.576423 
L 110.331198 207.516796 
L 110.396142 207.630895 
L 110.461086 207.578613 
L 110.52603 207.042224 
L 110.655917 207.690341 
L 110.720861 207.254101 
L 110.785805 207.307218 
L 110.850749 207.27357 
L 110.980637 206.476177 
L 111.045581 205.853877 
L 111.240412 209.106121 
L 111.3703 208.553451 
L 111.435244 208.683738 
L 111.565132 209.165162 
L 111.630076 209.145929 
L 111.759964 208.714762 
L 111.824908 208.742148 
L 111.889851 209.065307 
L 112.084683 208.159622 
L 112.279515 208.73397 
L 112.344459 208.514629 
L 112.409403 208.017813 
L 112.604234 209.213122 
L 112.669178 209.12871 
L 112.86401 209.786366 
L 113.123785 210.700276 
L 113.188729 210.760831 
L 113.318617 210.250583 
L 113.383561 210.646986 
L 113.448505 210.557378 
L 113.643337 209.686956 
L 113.773224 209.573521 
L 113.903112 209.263503 
L 113.968056 209.364454 
L 114.033 209.821463 
L 114.162888 211.761743 
L 114.227832 212.096973 
L 114.292776 211.704424 
L 114.35772 211.810633 
L 114.422663 211.984532 
L 114.487607 211.895253 
L 114.552551 211.954818 
L 114.617495 212.393201 
L 114.682439 212.258419 
L 114.747383 212.206951 
L 114.812327 212.595612 
L 114.877271 212.366148 
L 115.137046 213.165138 
L 115.331878 212.677342 
L 115.656598 213.705764 
L 115.786485 213.787997 
L 116.111205 214.88964 
L 116.306036 213.592325 
L 116.37098 212.53709 
L 116.435924 212.70417 
L 116.565812 212.71453 
L 116.760644 212.058404 
L 116.955475 212.357096 
L 117.085363 210.63735 
L 117.150307 210.74811 
L 117.280195 211.271345 
L 117.345139 211.234999 
L 117.410083 210.981097 
L 117.604914 211.379137 
L 117.669858 212.657999 
L 117.929634 209.447989 
L 117.994578 209.474079 
L 118.124466 235.110033 
L 118.254353 234.939937 
L 118.319297 235.013152 
L 118.514129 235.025662 
L 118.708961 234.013903 
L 118.773905 233.155235 
L 118.838848 233.16616 
L 118.903792 233.04179 
L 118.968736 233.087375 
L 119.03368 233.071268 
L 119.293456 232.470914 
L 119.423344 232.596362 
L 119.553231 232.487147 
L 119.748063 230.002507 
L 119.813007 230.034782 
L 119.877951 233.70426 
L 119.942895 232.845911 
L 120.20267 229.801392 
L 120.267614 229.930502 
L 120.52739 229.345932 
L 120.657278 227.619033 
L 120.852109 227.127671 
L 120.917053 227.222951 
L 121.046941 227.432811 
L 121.111885 227.373085 
L 121.176829 227.731436 
L 121.241773 227.56146 
L 121.566492 228.01387 
L 121.631436 227.903152 
L 121.826268 228.418813 
L 121.891212 228.210152 
L 121.956156 227.67293 
L 122.021099 227.684044 
L 122.086043 227.691118 
L 122.280875 229.540279 
L 122.410763 226.032746 
L 122.670538 225.346393 
L 122.800426 220.983078 
L 123.255034 220.119061 
L 123.384921 219.767535 
L 123.579753 220.210642 
L 123.774585 220.316233 
L 124.03436 219.616712 
L 124.164248 219.488694 
L 124.229192 219.120294 
L 124.294136 219.392189 
L 124.424024 214.265177 
L 124.553912 214.420085 
L 124.813687 215.091624 
L 124.878631 214.990017 
L 124.943575 214.864239 
L 125.138407 215.130894 
L 125.268294 214.719225 
L 125.333238 214.852548 
L 125.722902 215.788457 
L 125.852789 215.603696 
L 125.917733 215.575037 
L 126.112565 216.009872 
L 126.307397 215.789547 
L 126.437285 209.394881 
L 126.567172 208.27147 
L 126.69706 208.08979 
L 126.826948 208.493737 
L 126.891892 208.458253 
L 126.956836 208.592221 
L 127.02178 209.16784 
L 127.086724 209.033848 
L 127.281555 209.256105 
L 127.346499 209.18068 
L 127.411443 209.396971 
L 127.476387 209.276447 
L 127.541331 209.169027 
L 127.606275 209.242393 
L 127.736163 209.391063 
L 127.86605 208.851193 
L 127.930994 209.043609 
L 127.995938 209.150454 
L 128.060882 209.503765 
L 128.125826 209.249725 
L 128.19077 209.00787 
L 128.255714 209.154425 
L 128.385601 209.495212 
L 128.515489 209.416984 
L 128.645377 208.868255 
L 128.710321 209.177198 
L 128.905153 210.428967 
L 128.970097 210.467144 
L 129.164928 211.321667 
L 129.35976 211.968068 
L 129.619536 213.126778 
L 129.814367 214.39685 
L 129.879311 214.305513 
L 130.009199 214.291081 
L 130.268975 215.409327 
L 130.333918 214.641613 
L 130.398862 214.834741 
L 130.593694 213.76845 
L 130.658638 213.921422 
L 130.723582 213.779195 
L 130.788526 212.790478 
L 130.85347 212.98125 
L 131.048301 213.510604 
L 131.113245 213.450509 
L 131.178189 212.543269 
L 131.243133 212.679629 
L 131.308077 212.590262 
L 131.373021 212.678983 
L 132.02246 214.323009 
L 132.217291 215.152647 
L 132.412123 215.265526 
L 132.477067 215.600649 
L 132.542011 215.315661 
L 132.606955 215.6066 
L 132.671899 215.31883 
L 132.736843 215.470279 
L 132.86673 215.578282 
L 132.931674 215.330379 
L 133.061562 215.649258 
L 133.126506 215.672069 
L 133.256394 214.231 
L 133.321338 214.254627 
L 133.386282 214.332631 
L 133.516169 213.971787 
L 133.581113 214.2679 
L 133.646057 214.100346 
L 133.775945 214.290386 
L 133.840889 214.438388 
L 134.035721 212.416379 
L 134.100664 212.460261 
L 134.295496 211.934725 
L 134.36044 211.702142 
L 134.555272 209.96177 
L 134.68516 209.962941 
L 134.750103 210.084561 
L 134.879991 209.087529 
L 134.944935 209.445681 
L 135.009879 209.242442 
L 135.139767 207.643949 
L 135.204711 207.575867 
L 135.334599 207.87594 
L 135.52943 207.698297 
L 135.659318 208.05809 
L 135.724262 207.836629 
L 135.85415 206.442217 
L 135.984038 199.523508 
L 136.048981 199.826382 
L 136.113925 199.714814 
L 136.178869 199.510456 
L 136.243813 199.683746 
L 136.308757 199.614269 
L 136.503589 199.44117 
L 136.633477 204.773426 
L 136.69842 204.658016 
L 136.893252 203.685103 
L 137.217972 202.408669 
L 137.347859 202.604682 
L 137.542691 202.115261 
L 137.607635 202.379467 
L 137.672579 202.35542 
L 138.127186 199.819407 
L 138.19213 199.869407 
L 138.257074 200.550592 
L 138.322018 200.335151 
L 138.581793 189.019114 
L 138.711681 188.552665 
L 138.776625 188.472714 
L 138.971457 187.424097 
L 139.036401 187.603844 
L 139.231232 186.470512 
L 139.491008 185.674307 
L 139.555952 185.346047 
L 139.620896 185.400747 
L 139.68584 185.338388 
L 139.815728 183.786116 
L 139.880671 183.730927 
L 140.140447 182.714024 
L 140.205391 182.855907 
L 140.400223 182.870266 
L 140.465166 182.917648 
L 140.53011 182.736047 
L 140.595054 182.894015 
L 140.85483 181.981729 
L 140.919774 182.111134 
L 140.984718 182.042605 
L 141.049662 182.050021 
L 141.179549 181.915846 
L 141.374381 180.319156 
L 141.439325 180.274446 
L 141.504269 180.813277 
L 141.569213 180.672969 
L 141.699101 180.258117 
L 141.828988 180.871622 
L 142.02382 176.324559 
L 142.088764 176.557494 
L 142.413483 177.073948 
L 142.608315 176.543269 
L 142.803147 177.496907 
L 142.997979 177.050179 
L 143.19281 177.370383 
L 143.322698 177.031986 
L 143.51753 177.520928 
L 143.582474 176.148422 
L 143.647417 176.153513 
L 143.712361 176.035544 
L 143.777305 176.087814 
L 143.842249 176.218116 
L 143.972137 177.024 
L 144.037081 176.718112 
L 144.166969 177.514098 
L 144.231913 177.580075 
L 144.3618 178.265621 
L 144.426744 177.839869 
L 144.491688 177.891089 
L 144.556632 177.944052 
L 144.621576 178.316242 
L 144.68652 178.260004 
L 144.751464 178.39606 
L 144.816408 177.991785 
L 144.881352 178.319194 
L 144.946295 178.258945 
L 145.011239 179.930586 
L 145.076183 179.799412 
L 145.271015 180.446933 
L 145.335959 180.468526 
L 145.465847 181.335417 
L 145.530791 186.876677 
L 145.595734 186.734458 
L 145.725622 185.359934 
L 145.790566 185.201453 
L 146.050342 192.090631 
L 146.115286 192.371419 
L 146.245173 191.316206 
L 146.440005 192.33035 
L 146.634837 191.761918 
L 146.699781 191.352741 
L 146.764725 191.382363 
L 146.829668 191.363563 
L 146.894612 191.160024 
L 146.959556 191.263351 
L 147.219332 197.947942 
L 147.284276 197.918223 
L 147.544051 198.83154 
L 147.608995 198.590816 
L 147.673939 198.734186 
L 147.738883 198.611626 
L 147.803827 198.689536 
L 147.933715 199.253876 
L 148.063603 183.688993 
L 148.19349 183.913376 
L 148.323378 182.396429 
L 148.583154 183.457052 
L 148.713042 182.002537 
L 148.777985 181.968158 
L 149.037761 182.801568 
L 149.102705 182.679015 
L 149.232593 183.476399 
L 149.36248 151.897509 
L 149.427424 151.942262 
L 149.557312 152.321709 
L 149.6872 151.807489 
L 149.752144 152.068189 
L 149.946976 153.182851 
L 150.011919 153.668955 
L 150.206751 152.200157 
L 150.466527 153.396447 
L 150.531471 153.259603 
L 150.596415 152.792413 
L 150.726302 155.81511 
L 150.921134 156.858061 
L 151.18091 158.421255 
L 151.245854 158.166685 
L 151.505629 159.18899 
L 151.570573 159.238203 
L 152.220012 162.61868 
L 152.414844 163.710974 
L 152.479788 163.5353 
L 152.544731 163.560477 
L 152.609675 162.414624 
L 152.674619 163.078604 
L 153.19417 165.771863 
L 153.51889 166.292874 
L 153.583834 165.873891 
L 153.648778 165.940884 
L 153.713722 166.051522 
L 153.908553 167.033384 
L 153.973497 166.900484 
L 154.038441 166.396665 
L 154.233273 167.399919 
L 154.428105 164.446796 
L 154.493048 164.065394 
L 154.557992 164.519616 
L 154.68788 164.036519 
L 154.882712 161.101795 
L 155.0126 161.404253 
L 155.077544 161.151849 
L 155.142487 161.231552 
L 155.207431 161.214086 
L 155.272375 161.343894 
L 155.337319 161.135943 
L 155.467207 161.417273 
L 155.532151 161.202822 
L 155.597095 161.222834 
L 155.662039 159.262969 
L 155.726982 159.754805 
L 155.791926 159.838662 
L 155.85687 159.778961 
L 155.921814 159.442511 
L 155.986758 160.723341 
L 156.051702 160.600864 
L 156.18159 160.374236 
L 156.376421 160.646048 
L 156.766085 159.067191 
L 157.415524 154.271891 
L 157.480468 154.385556 
L 157.545412 154.227009 
L 157.610356 154.837948 
L 157.675299 154.447709 
L 157.935075 153.580155 
L 158.000019 153.68673 
L 158.064963 153.63038 
L 158.129907 153.669031 
L 158.259795 152.618681 
L 158.324738 152.871711 
L 158.389682 152.807151 
L 158.584514 150.086699 
L 158.649458 150.226712 
L 158.974177 145.632858 
L 159.039121 145.658832 
L 159.363841 143.621596 
L 159.818448 140.83704 
L 159.883392 140.605584 
L 159.948336 140.757255 
L 160.01328 140.820577 
L 160.078224 141.800768 
L 160.143168 140.949494 
L 160.208111 141.708071 
L 160.467887 139.324058 
L 160.532831 139.511782 
L 160.597775 139.53459 
L 160.792607 137.959286 
L 160.85755 138.039182 
L 160.922494 137.462309 
L 161.052382 134.024019 
L 161.117326 134.41458 
L 161.312158 132.063299 
L 161.442046 115.579938 
L 161.506989 115.842507 
L 161.571933 115.303118 
L 161.636877 115.566702 
L 161.766765 115.762529 
L 161.961597 114.491713 
L 162.026541 115.019233 
L 162.221372 113.047156 
L 162.286316 113.115509 
L 162.35126 112.36412 
L 162.416204 113.126389 
L 162.611036 112.103765 
L 162.67598 113.070277 
L 162.740923 112.520384 
L 162.805867 112.659936 
L 163.000699 112.183575 
L 163.130587 110.996325 
L 163.260475 111.511304 
L 163.390362 110.75798 
L 163.455306 111.094317 
L 163.585194 110.262867 
L 163.650138 106.458962 
L 163.715082 106.908877 
L 163.780026 106.633197 
L 163.909914 106.89355 
L 164.039801 106.810322 
L 164.104745 107.093351 
L 164.169689 106.286775 
L 164.234633 106.594441 
L 164.429465 105.964907 
L 164.624296 107.284104 
L 164.68924 107.013858 
L 164.884072 107.886136 
L 165.01396 106.984124 
L 165.078904 107.006246 
L 165.338679 105.217408 
L 165.403623 105.473264 
L 165.728343 103.989892 
L 165.858231 101.089077 
L 165.923174 100.648699 
L 165.988118 99.382942 
L 166.053062 99.834619 
L 166.247894 98.655728 
L 166.312838 98.96968 
L 166.377782 97.892189 
L 166.442726 98.249881 
L 166.50767 97.878522 
L 166.572613 98.271428 
L 166.767445 97.429963 
L 166.832389 98.184023 
L 166.897333 97.305739 
L 166.962277 97.901298 
L 167.027221 97.897595 
L 167.092165 98.190634 
L 167.157109 97.293899 
L 167.222052 97.685344 
L 167.286996 97.381073 
L 167.35194 97.71738 
L 167.416884 97.409893 
L 167.481828 99.169093 
L 167.546772 99.031953 
L 167.611716 99.082253 
L 167.67666 98.73551 
L 167.741604 96.502411 
L 167.806547 97.031514 
L 167.871491 96.860906 
L 167.936435 96.09155 
L 168.001379 97.223775 
L 168.196211 95.363387 
L 168.261155 96.344445 
L 168.326099 96.242822 
L 168.391043 93.22478 
L 168.455986 94.030204 
L 168.52093 93.841525 
L 168.585874 94.02886 
L 168.650818 93.206921 
L 168.715762 93.530805 
L 168.780706 93.845261 
L 168.84565 93.666133 
L 168.910594 93.310847 
L 169.105425 86.979675 
L 169.170369 87.282074 
L 169.430145 85.566953 
L 169.560033 88.013919 
L 169.819808 86.411436 
L 169.884752 87.452758 
L 169.949696 86.851223 
L 170.144528 85.304215 
L 170.274416 80.391133 
L 170.534191 79.231158 
L 170.599135 79.281566 
L 170.923855 75.866667 
L 171.053742 77.675057 
L 171.18363 76.508035 
L 171.248574 78.312526 
L 171.313518 77.948754 
L 171.378462 78.10454 
L 171.50835 77.33894 
L 171.703181 75.084714 
L 171.768125 75.690378 
L 171.833069 75.380444 
L 172.027901 74.367521 
L 172.222733 75.032538 
L 172.287676 74.647674 
L 172.482508 60.936096 
L 172.612396 58.914259 
L 172.67734 59.29912 
L 172.937115 57.285967 
L 173.196891 56.135714 
L 173.261835 55.346152 
L 173.456667 56.845496 
L 173.521611 56.283223 
L 173.586554 56.707848 
L 173.781386 55.832093 
L 173.911274 57.731735 
L 174.041162 56.964479 
L 174.106106 53.568 
L 174.171049 53.995259 
L 174.560713 58.027907 
L 174.625657 57.910399 
L 174.690601 57.987827 
L 174.885432 60.96614 
L 174.950376 60.960934 
L 175.145208 63.340182 
L 175.404984 67.843855 
L 175.469927 67.494366 
L 175.534871 67.92314 
L 175.859591 73.148586 
L 176.18431 76.137056 
L 176.249254 77.66774 
L 176.314198 77.257372 
L 176.898693 82.672339 
L 176.963637 81.796743 
L 177.093525 82.648374 
L 177.288357 83.693882 
L 177.3533 83.818895 
L 177.418244 85.069332 
L 177.548132 83.058193 
L 177.67802 82.91342 
L 177.742964 82.511086 
L 177.807908 82.824319 
L 177.872852 82.440413 
L 177.937796 84.917042 
L 178.067683 215.582086 
L 178.197571 215.523298 
L 178.262515 216.569806 
L 178.327459 216.325026 
L 178.522291 217.052698 
L 178.652178 216.543723 
L 179.301617 219.378239 
L 179.366561 219.243248 
L 179.431505 220.043217 
L 179.496449 219.642052 
L 179.691281 219.112211 
L 179.821169 220.051845 
L 180.016 220.295938 
L 180.080944 220.474119 
L 180.145888 219.90431 
L 180.210832 220.178941 
L 180.275776 220.16227 
L 180.34072 220.481082 
L 180.405664 220.1289 
L 180.860271 222.453193 
L 180.925215 222.37893 
L 181.18499 220.844956 
L 181.314878 221.327825 
L 181.379822 221.711106 
L 181.444766 221.534129 
L 181.50971 221.583605 
L 181.704542 221.986164 
L 181.769486 222.103184 
L 181.834429 222.450247 
L 181.899373 222.41167 
L 181.964317 222.316302 
L 182.029261 221.872045 
L 182.159149 222.917328 
L 182.224093 222.891057 
L 182.289037 223.327885 
L 182.548812 222.058716 
L 182.6787 222.653524 
L 182.743644 222.103816 
L 182.808588 222.537393 
L 183.00342 221.680152 
L 183.198251 221.822084 
L 183.263195 221.890779 
L 183.458027 222.476014 
L 183.587915 219.906451 
L 183.652859 219.945704 
L 183.782746 220.918047 
L 183.912634 218.243047 
L 183.977578 218.275674 
L 184.237354 217.309128 
L 184.302298 217.427222 
L 184.367241 217.354074 
L 184.432185 217.279954 
L 184.497129 216.7505 
L 184.562073 216.963103 
L 184.691961 217.332837 
L 184.756905 215.904615 
L 184.821849 216.00969 
L 184.886793 216.08142 
L 184.951737 215.571127 
L 185.01668 217.725424 
L 185.081624 216.777755 
L 185.211512 216.612981 
L 185.3414 216.707112 
L 185.471288 216.526419 
L 185.536232 216.792458 
L 185.601176 216.744508 
L 185.731063 215.950357 
L 185.925895 215.467919 
L 185.990839 215.558403 
L 186.120727 216.466357 
L 186.185671 216.648948 
L 186.51039 214.079817 
L 186.575334 213.815486 
L 186.640278 214.14385 
L 186.705222 214.085015 
L 186.770166 213.439578 
L 186.964997 209.785194 
L 187.159829 209.60024 
L 187.289717 210.085413 
L 187.484549 208.472711 
L 187.549492 208.083821 
L 187.614436 208.671507 
L 187.67938 208.608676 
L 188.263875 203.078899 
L 188.328819 201.442957 
L 188.393763 201.828293 
L 188.588595 200.827688 
L 188.653539 200.908856 
L 188.718483 200.075255 
L 188.783427 200.231133 
L 188.978258 200.680965 
L 189.043202 200.710852 
L 189.108146 200.153768 
L 189.238034 200.932928 
L 189.432865 200.329467 
L 189.627697 195.578977 
L 189.757585 195.563088 
L 189.887473 193.833764 
L 189.952417 193.806982 
L 190.277136 187.557674 
L 190.34208 187.961879 
L 190.407024 187.764045 
L 190.536912 186.620197 
L 190.601856 186.644634 
L 190.861631 184.85638 
L 190.991519 185.73707 
L 191.056463 185.885169 
L 191.121407 184.899608 
L 191.186351 185.370446 
L 191.316239 185.121397 
L 191.705902 180.16176 
L 191.770846 180.434669 
L 192.160509 177.720235 
L 192.355341 176.225299 
L 192.420285 176.213604 
L 192.550173 174.923375 
L 192.615116 175.358546 
L 192.68006 175.324541 
L 192.745004 175.271992 
L 192.874892 173.622595 
L 192.939836 173.795233 
L 193.00478 173.786312 
L 193.069724 173.421444 
L 193.264555 171.090372 
L 193.913994 166.54746 
L 193.978938 166.761263 
L 194.043882 166.628147 
L 194.108826 166.339078 
L 194.238714 166.694782 
L 194.49849 169.636772 
L 194.628377 169.062716 
L 194.693321 169.086713 
L 194.758265 168.976885 
L 194.823209 169.194561 
L 194.953097 167.223678 
L 195.082985 167.433817 
L 195.147928 174.504648 
L 195.212872 173.884233 
L 195.277816 173.329733 
L 195.472648 175.342803 
L 195.537592 175.400986 
L 195.66748 177.498463 
L 195.732424 176.870695 
L 195.797367 177.650681 
L 195.862311 176.337777 
L 195.927255 176.511999 
L 195.992199 176.518411 
L 196.057143 177.028081 
L 196.187031 179.281743 
L 196.381863 178.119923 
L 196.446806 178.262634 
L 196.576694 179.807578 
L 196.641638 178.543096 
L 196.706582 179.118959 
L 196.771526 179.383606 
L 196.83647 178.760157 
L 196.966358 175.973375 
L 197.096245 179.515965 
L 197.161189 179.202879 
L 197.356021 180.6138 
L 197.420965 180.627623 
L 197.485909 180.119168 
L 197.550853 180.133832 
L 197.615797 180.222371 
L 197.810628 181.062844 
L 197.940516 183.726507 
L 198.00546 183.314897 
L 198.070404 183.591491 
L 198.135348 183.23619 
L 198.265236 184.842673 
L 198.330179 185.851029 
L 198.395123 184.573933 
L 198.460067 185.28337 
L 198.979618 189.110918 
L 199.109506 187.402114 
L 199.239394 187.847762 
L 199.304338 186.939924 
L 199.369282 187.13124 
L 199.434226 187.472106 
L 199.564114 186.859787 
L 199.629057 186.973324 
L 199.694001 186.861274 
L 199.758945 187.38966 
L 199.888833 186.799348 
L 200.213553 188.663248 
L 200.408384 187.491939 
L 200.603216 189.503434 
L 200.66816 189.407192 
L 200.733104 189.432869 
L 200.927935 188.295927 
L 200.992879 188.712265 
L 201.252655 186.975722 
L 201.577374 188.10604 
L 201.707262 187.597438 
L 201.83715 189.243882 
L 201.902094 188.669484 
L 201.967038 188.787902 
L 202.096926 189.124554 
L 202.161869 188.32941 
L 202.226813 188.596387 
L 202.291757 188.522066 
L 202.421645 190.449895 
L 202.551533 189.985539 
L 202.616477 190.065064 
L 202.746365 190.414378 
L 202.811308 190.358849 
L 202.876252 190.897944 
L 203.136028 187.950997 
L 203.395804 190.417615 
L 203.460747 193.433912 
L 203.525691 192.757271 
L 203.590635 193.180715 
L 204.629738 181.824428 
L 204.759625 180.745227 
L 205.603896 171.730432 
L 205.66884 171.85414 
L 205.733784 172.493842 
L 205.863672 170.923009 
L 205.928616 171.019485 
L 206.058503 171.311037 
L 206.188391 169.800287 
L 206.253335 169.889545 
L 206.448167 168.966289 
L 206.642998 169.613593 
L 206.707942 168.890169 
L 206.902774 169.652775 
L 207.032662 169.49758 
L 207.097606 169.501961 
L 207.16255 168.444976 
L 207.227493 169.202827 
L 207.292437 168.734101 
L 207.487269 166.467096 
L 207.617157 164.698427 
L 207.682101 164.953483 
L 208.136708 162.751791 
L 208.33154 164.062977 
L 208.396484 165.766157 
L 208.461428 164.742898 
L 208.591315 165.741964 
L 208.721203 164.664679 
L 208.786147 164.528686 
L 208.851091 165.136266 
L 208.916035 164.760585 
L 208.980979 164.092047 
L 209.045923 164.55829 
L 209.110867 164.642671 
L 209.17581 163.386358 
L 209.240754 163.476601 
L 209.305698 163.400892 
L 209.435586 163.819825 
L 209.695362 166.521188 
L 209.760306 166.495751 
L 210.020081 167.667096 
L 210.799408 171.156031 
L 210.864352 171.152397 
L 210.929296 170.930856 
L 211.189071 173.435834 
L 211.318959 173.021285 
L 211.448847 173.879372 
L 211.513791 172.897471 
L 211.578735 173.435271 
L 211.643679 174.037111 
L 211.708622 176.069984 
L 211.773566 176.001424 
L 211.968398 177.081578 
L 212.033342 176.934869 
L 212.16323 176.180605 
L 212.228174 177.072171 
L 212.293118 176.354762 
L 212.358061 176.853677 
L 212.423005 176.775398 
L 212.552893 178.292464 
L 212.617837 178.007536 
L 212.812669 180.219279 
L 212.877613 179.962943 
L 213.202332 182.187446 
L 213.33222 183.115496 
L 213.397164 182.945558 
L 213.527052 186.161218 
L 213.591995 186.097731 
L 214.111547 192.10751 
L 214.176491 192.067254 
L 214.566154 199.581713 
L 214.631098 199.425995 
L 214.760986 200.237105 
L 214.82593 199.161191 
L 214.890873 200.344071 
L 214.955817 199.894002 
L 215.020761 199.847869 
L 215.150649 199.560614 
L 215.345481 200.089882 
L 215.475369 199.380911 
L 215.605256 196.496241 
L 215.6702 196.55819 
L 215.800088 196.00652 
L 215.865032 196.040751 
L 216.059864 196.6562 
L 216.124808 198.618724 
L 216.189751 198.254106 
L 216.319639 198.382226 
L 216.384583 198.57931 
L 216.579415 200.616854 
L 216.644359 200.411192 
L 216.774246 200.961258 
L 216.83919 200.939457 
L 216.904134 201.205262 
L 217.16391 203.669848 
L 217.228854 203.353846 
L 217.293798 203.848873 
L 217.423685 202.978543 
L 217.618517 204.263542 
L 217.683461 203.888048 
L 217.748405 204.341387 
L 218.073124 199.079041 
L 218.3329 197.86162 
L 218.397844 197.938472 
L 218.462788 197.552398 
L 218.592676 198.485902 
L 218.65762 198.591545 
L 218.982339 195.498021 
L 219.047283 195.693207 
L 219.112227 195.429328 
L 219.177171 194.691021 
L 219.242115 194.829655 
L 219.372002 194.436124 
L 219.436946 194.599117 
L 219.50189 194.543471 
L 219.631778 193.933936 
L 219.696722 194.511288 
L 219.761666 194.204131 
L 219.956497 192.677663 
L 220.346161 189.809034 
L 220.411105 190.023851 
L 220.476049 189.664321 
L 220.605936 190.271604 
L 220.735824 189.556847 
L 220.800768 189.626812 
L 220.865712 189.911537 
L 221.320319 185.395325 
L 222.034702 178.822514 
L 222.099646 179.449651 
L 222.16459 179.239003 
L 222.359422 176.876 
L 222.424366 177.229384 
L 222.554253 176.518263 
L 222.878973 171.403337 
L 222.943917 172.098932 
L 223.008861 172.702508 
L 223.33358 167.726831 
L 223.593356 164.927958 
L 223.788187 164.589787 
L 223.983019 162.237437 
L 224.047963 160.55906 
L 224.112907 161.788689 
L 224.242795 160.282706 
L 224.307739 160.287691 
L 224.372683 160.144042 
L 224.50257 158.32812 
L 224.567514 158.626533 
L 224.632458 157.433189 
L 224.697402 157.871175 
L 224.892234 156.708178 
L 224.957178 156.413749 
L 225.087065 154.627735 
L 225.346841 156.542378 
L 225.411785 156.148575 
L 225.476729 156.261725 
L 225.606617 157.100896 
L 225.801448 155.703855 
L 226.256056 152.078509 
L 226.320999 152.459509 
L 226.385943 152.367078 
L 226.450887 151.931865 
L 226.515831 152.08406 
L 226.840551 154.178003 
L 226.905495 153.334889 
L 226.970438 153.392233 
L 227.035382 153.478928 
L 227.16527 155.921902 
L 227.230214 155.053501 
L 227.425046 158.275957 
L 227.48999 158.622246 
L 227.619877 158.142522 
L 227.684821 158.189831 
L 227.879653 160.568629 
L 228.139429 159.670371 
L 228.204373 159.769266 
L 228.464148 159.131607 
L 228.594036 159.924436 
L 228.853811 161.571606 
L 228.918755 161.455696 
L 229.178531 163.544381 
L 229.243475 163.63071 
L 229.438307 163.0211 
L 229.50325 163.137283 
L 230.217633 173.151976 
L 230.282577 173.093346 
L 230.542353 174.65844 
L 230.737185 177.486545 
L 230.867072 178.930139 
L 230.99696 180.602815 
L 231.061904 179.139346 
L 231.126848 179.30344 
L 231.386624 182.390677 
L 231.451567 181.968991 
L 231.516511 182.29667 
L 231.711343 184.712425 
L 231.776287 184.224855 
L 232.230894 191.213648 
L 232.295838 191.411976 
L 232.49067 193.678609 
L 232.880333 190.184323 
L 232.945277 191.597957 
L 233.010221 190.74554 
L 233.075165 190.88248 
L 233.140109 191.885171 
L 233.269997 190.93956 
L 233.399884 191.660717 
L 233.65966 190.248956 
L 233.724604 190.082563 
L 234.114267 192.554107 
L 234.438987 187.486035 
L 234.568875 186.408561 
L 234.633818 186.635428 
L 234.698762 186.656807 
L 235.023482 184.197263 
L 235.283257 186.765652 
L 235.413145 184.858498 
L 235.607977 184.730136 
L 235.737865 185.124263 
L 235.867752 184.074543 
L 235.932696 184.49556 
L 235.99764 184.576183 
L 236.257416 181.681282 
L 236.32236 181.594101 
L 236.387304 182.322227 
L 236.582135 179.860312 
L 236.647079 181.056684 
L 236.712023 180.878545 
L 236.776967 180.066844 
L 236.841911 180.571053 
L 236.906855 180.565099 
L 236.971799 181.488022 
L 237.036743 181.066267 
L 237.231574 179.410483 
L 237.296518 180.357069 
L 237.621238 177.760806 
L 237.686182 177.809733 
L 237.881013 174.587402 
L 238.010901 173.902133 
L 238.075845 173.65367 
L 238.205733 174.598272 
L 238.335621 173.632535 
L 238.400564 174.680919 
L 238.465508 174.01027 
L 238.530452 173.902808 
L 238.595396 174.047353 
L 238.66034 174.543406 
L 238.725284 174.453774 
L 238.790228 174.423074 
L 238.920116 175.085668 
L 238.98506 174.97308 
L 239.114947 175.372954 
L 239.244835 174.453892 
L 239.439667 176.159784 
L 239.569555 175.256962 
L 239.634499 175.924091 
L 239.699442 175.461529 
L 239.764386 175.630891 
L 239.894274 174.591327 
L 239.959218 176.264553 
L 240.089106 173.672083 
L 240.15405 174.445752 
L 240.218994 174.191419 
L 240.348881 172.872475 
L 240.543713 171.548633 
L 240.608657 171.618023 
L 240.673601 172.175103 
L 240.738545 171.995973 
L 240.868433 172.517233 
L 240.99832 171.938804 
L 241.063264 171.89177 
L 241.258096 172.983855 
L 241.32304 172.61556 
L 241.387984 170.969005 
L 241.452928 171.270562 
L 241.517872 170.695726 
L 241.582815 171.320409 
L 241.647759 170.660506 
L 241.907535 172.035928 
L 241.972479 171.694685 
L 242.037423 172.336294 
L 242.102367 169.491609 
L 242.167311 169.937349 
L 242.232254 170.03083 
L 242.427086 171.884067 
L 242.49203 171.545647 
L 242.556974 172.276916 
L 242.621918 172.032123 
L 242.686862 171.743523 
L 242.751806 167.928272 
L 242.81675 168.751466 
L 242.946637 166.559124 
L 243.011581 167.200923 
L 243.076525 167.285762 
L 243.141469 167.115727 
L 243.336301 168.6482 
L 243.401245 168.594897 
L 243.531132 167.831283 
L 243.596076 168.273582 
L 243.66102 167.928496 
L 243.725964 168.150709 
L 243.855852 167.690433 
L 244.375403 171.714149 
L 244.505291 171.541222 
L 244.700123 170.761718 
L 244.765066 171.998838 
L 244.83001 171.107255 
L 244.894954 171.553925 
L 244.959898 171.197346 
L 245.089786 169.847531 
L 245.15473 170.401536 
L 245.219674 169.205991 
L 245.284618 169.748366 
L 245.349562 169.894943 
L 245.414505 169.779815 
L 245.544393 169.170151 
L 245.609337 169.422807 
L 245.674281 169.26365 
L 245.804169 164.94988 
L 245.869113 165.154189 
L 245.934057 164.729692 
L 245.999001 165.614531 
L 246.063944 165.538289 
L 246.128888 164.624886 
L 246.193832 164.970092 
L 246.32372 164.696085 
L 246.388664 163.477987 
L 246.453608 164.168337 
L 246.518552 164.55784 
L 246.583496 164.222328 
L 246.64844 164.369512 
L 246.713383 164.199753 
L 247.232935 160.147607 
L 247.297878 160.753168 
L 247.49271 158.475005 
L 247.81743 155.739301 
L 247.947317 152.592131 
L 248.012261 152.488562 
L 248.336981 146.980626 
L 248.596756 142.551248 
L 248.791588 139.316429 
L 248.921476 139.12619 
L 249.181252 134.851907 
L 249.246195 134.541593 
L 249.505971 130.911165 
L 249.570915 131.66606 
L 249.635859 131.423199 
L 249.700803 130.929775 
L 249.830691 132.540392 
L 249.960578 130.16438 
L 250.285298 125.254411 
L 250.545073 124.683348 
L 250.610017 124.869631 
L 250.869793 120.481306 
L 250.934737 120.427596 
L 250.999681 125.014186 
L 251.064625 124.062974 
L 251.129568 124.374062 
L 251.194512 125.800946 
L 251.259456 124.864421 
L 251.3244 125.870115 
L 251.389344 125.620153 
L 251.584176 124.869161 
L 251.779007 123.44337 
L 251.843951 123.548817 
L 251.973839 119.261544 
L 252.038783 118.724338 
L 252.298559 120.615702 
L 252.363503 118.81489 
L 252.428446 119.783547 
L 252.49339 120.358637 
L 252.558334 120.304885 
L 252.623278 119.84391 
L 252.81811 113.268801 
L 252.883054 113.477487 
L 252.947998 112.768673 
L 253.012941 112.875251 
L 253.077885 112.607758 
L 253.142829 112.641465 
L 253.272717 114.342094 
L 253.337661 230.02426 
L 253.402605 229.937053 
L 253.467549 229.770842 
L 253.922156 231.298848 
L 253.9871 231.243155 
L 254.052044 231.730959 
L 254.116988 231.518171 
L 254.181932 231.273785 
L 254.376763 232.794809 
L 254.441707 233.012587 
L 254.571595 232.36628 
L 254.636539 232.707725 
L 255.285978 233.592063 
L 255.415866 233.730318 
L 255.870473 235.876452 
L 256.714744 241.53471 
L 256.779688 241.164063 
L 256.844631 241.296716 
L 257.039463 241.770305 
L 257.104407 241.14832 
L 257.169351 241.232791 
L 257.364183 241.933339 
L 257.49407 241.874551 
L 257.623958 241.546134 
L 257.688902 241.640435 
L 257.753846 241.564067 
L 257.948678 241.288157 
L 258.273397 241.72643 
L 258.598117 243.157576 
L 258.663061 243.008547 
L 258.728005 243.317192 
L 258.792948 243.046356 
L 258.857892 243.185539 
L 258.98778 243.71083 
L 259.052724 243.497779 
L 259.961939 241.034151 
L 260.221714 241.278048 
L 260.286658 241.265845 
L 260.351602 241.034125 
L 260.416546 241.207931 
L 260.48149 241.242149 
L 260.806209 240.650389 
L 260.936097 240.624869 
L 261.065985 239.630138 
L 261.130929 239.746055 
L 261.520592 241.190576 
L 262.234975 243.054689 
L 262.299919 243.044741 
L 262.559694 243.657165 
L 262.624638 243.724849 
L 263.014302 245.923796 
L 263.14419 246.586662 
L 263.468909 247.988984 
L 264.248236 250.784261 
L 264.31318 250.861376 
L 264.378124 250.624623 
L 264.443068 250.754459 
L 264.508011 250.797425 
L 264.572955 250.662715 
L 264.637899 250.736987 
L 264.702843 250.858839 
L 264.767787 250.791949 
L 264.962619 250.501396 
L 265.092507 250.458284 
L 265.352282 248.189717 
L 265.417226 248.478298 
L 265.48217 248.305412 
L 265.612058 248.543387 
L 266.391384 246.300038 
L 266.456328 245.938709 
L 266.521272 245.998719 
L 266.586216 246.000516 
L 266.781048 245.34097 
L 266.97588 245.489806 
L 267.040823 245.578218 
L 267.105767 245.470221 
L 267.235655 245.782432 
L 267.300599 245.623806 
L 267.365543 245.943717 
L 267.430487 245.825511 
L 267.495431 245.865548 
L 267.560375 245.381934 
L 267.625319 245.410884 
L 267.690262 245.422587 
L 268.14487 246.340742 
L 268.274757 246.809222 
L 268.534533 247.235637 
L 268.599477 247.099152 
L 268.729365 247.064993 
L 268.98914 247.696912 
L 269.183972 248.505438 
L 269.31386 248.199491 
L 269.378804 260.283204 
L 269.443748 260.262105 
L 269.638579 259.660789 
L 269.703523 259.74087 
L 270.223074 257.869063 
L 270.352962 258.141736 
L 270.612738 256.904652 
L 270.677682 256.979107 
L 270.80757 256.145786 
L 270.872513 256.107902 
L 270.937457 256.205613 
L 271.002401 256.151332 
L 271.197233 254.669638 
L 271.262177 254.619702 
L 271.327121 254.798108 
L 271.457008 254.473271 
L 271.586896 254.430675 
L 271.781728 253.965238 
L 271.846672 253.861509 
L 271.911616 254.149333 
L 272.171391 253.263644 
L 272.301279 253.429945 
L 272.366223 253.387945 
L 272.431167 253.146513 
L 272.561055 253.667282 
L 272.755886 252.926635 
L 273.015662 253.422762 
L 273.210494 254.719679 
L 273.405325 255.000068 
L 273.600157 254.555154 
L 273.665101 254.601763 
L 273.859933 255.216865 
L 274.184652 255.736251 
L 274.379484 255.457715 
L 274.444428 255.503991 
L 274.704203 256.163793 
L 274.769147 256.226486 
L 275.48353 259.265597 
L 275.548474 259.130298 
L 275.613418 258.971329 
L 275.678362 259.099155 
L 275.743306 259.298291 
L 275.80825 259.214464 
L 275.873194 259.263682 
L 276.003081 258.172615 
L 276.068025 258.191837 
L 276.262857 258.687288 
L 276.392745 258.215757 
L 276.457689 258.427347 
L 276.717464 258.169157 
L 276.782408 258.424905 
L 276.847352 258.260563 
L 276.912296 257.862258 
L 276.97724 258.138118 
L 277.237015 259.220992 
L 277.366903 259.630656 
L 277.496791 259.973418 
L 277.561735 259.647626 
L 277.626679 259.743558 
L 277.82151 260.15477 
L 277.886454 259.815993 
L 277.951398 259.91672 
L 278.016342 259.818582 
L 278.081286 260.058329 
L 278.14623 259.996253 
L 278.211174 259.811412 
L 278.276118 259.885794 
L 278.470949 260.16223 
L 278.535893 259.909601 
L 278.600837 259.985613 
L 278.730725 259.934773 
L 278.795669 259.992099 
L 278.925557 259.496047 
L 278.990501 259.719353 
L 279.120388 259.919041 
L 279.185332 259.994957 
L 279.250276 260.322005 
L 279.31522 260.263131 
L 279.380164 260.335579 
L 279.445108 260.134535 
L 279.510052 260.249044 
L 279.63994 260.356863 
L 279.899715 260.529108 
L 279.964659 260.434344 
L 280.029603 260.618146 
L 280.094547 260.380005 
L 280.159491 260.47158 
L 280.289379 260.631294 
L 280.354323 260.501072 
L 280.419266 260.562602 
L 280.549154 260.557325 
L 280.679042 260.755128 
L 280.743986 260.690027 
L 280.80893 260.663632 
L 280.873874 261.229604 
L 280.938818 260.908874 
L 281.133649 260.755855 
L 281.328481 260.087561 
L 281.848032 258.777526 
L 282.367583 258.144047 
L 282.562415 257.806908 
L 282.627359 257.81935 
L 282.822191 256.896677 
L 282.887135 256.994864 
L 283.081966 256.769706 
L 283.276798 255.968898 
L 283.601517 255.348894 
L 283.861293 254.75437 
L 283.926237 254.780132 
L 283.991181 254.66952 
L 284.121069 254.079228 
L 284.3159 254.685224 
L 284.380844 254.526518 
L 284.445788 254.577945 
L 284.575676 254.922735 
L 284.64062 254.584786 
L 284.705564 254.724753 
L 284.835451 255.018321 
L 284.965339 254.786942 
L 285.095227 255.007759 
L 285.160171 255.032971 
L 286.523993 259.186402 
L 286.653881 259.028448 
L 286.848712 259.86605 
L 286.913656 259.836239 
L 287.043544 260.447852 
L 287.108488 260.336999 
L 287.173432 260.32213 
L 287.30332 260.157948 
L 287.433207 260.135108 
L 287.498151 260.24269 
L 287.563095 260.197628 
L 287.822871 260.240662 
L 287.887815 260.344374 
L 287.952759 260.27177 
L 288.082646 259.902681 
L 288.14759 260.01846 
L 288.212534 259.968716 
L 288.277478 260.203755 
L 288.342422 260.1179 
L 288.537254 260.332739 
L 288.667141 260.047917 
L 288.732085 260.333247 
L 288.797029 260.132691 
L 288.926917 259.878519 
L 289.381524 260.613264 
L 289.6413 260.489409 
L 289.771188 260.712494 
L 290.095907 260.299993 
L 290.225795 259.957407 
L 290.355683 259.892014 
L 290.550514 259.993273 
L 290.940178 259.975528 
L 291.199953 259.331121 
L 291.264897 259.359797 
L 291.524673 258.916692 
L 291.589617 259.014104 
L 292.304 257.866947 
L 292.433888 257.319867 
L 292.563775 257.358066 
L 293.14827 256.393364 
L 293.408046 254.943478 
L 293.602878 254.318786 
L 293.667822 254.268563 
L 293.862653 253.217803 
L 293.927597 253.241435 
L 293.992541 253.329574 
L 294.057485 253.277879 
L 294.187373 252.323715 
L 294.252317 252.367675 
L 294.447148 251.667405 
L 294.512092 250.916355 
L 294.577036 251.033603 
L 294.64198 251.035003 
L 294.836812 251.369191 
L 295.096587 251.464319 
L 295.161531 251.58992 
L 295.356363 252.343465 
L 295.616139 253.118 
L 295.746026 253.019237 
L 296.070746 254.18778 
L 296.265577 255.177199 
L 296.525353 255.831986 
L 296.590297 255.612218 
L 296.785129 256.440131 
L 296.850073 256.361411 
L 296.97996 256.615332 
L 297.629399 259.561496 
L 298.343782 261.889178 
L 298.408726 261.783712 
L 298.47367 262.156635 
L 298.668502 261.499156 
L 298.863333 261.55732 
L 298.993221 261.42245 
L 299.058165 261.509028 
L 299.317941 261.511098 
L 299.382885 262.039976 
L 299.447828 261.909269 
L 299.577716 261.881004 
L 299.837492 262.32109 
L 300.032324 261.982133 
L 300.097267 262.053296 
L 300.227155 261.864851 
L 300.357043 261.796391 
L 300.616819 261.410543 
L 300.681763 261.454441 
L 300.746706 261.334507 
L 300.81165 261.451361 
L 300.941538 260.942066 
L 301.006482 261.103479 
L 301.785809 263.459766 
L 301.850753 263.331694 
L 302.045584 263.716255 
L 302.240416 263.668623 
L 302.435248 263.905464 
L 302.500192 263.994737 
L 302.630079 263.531813 
L 302.954799 262.443436 
L 303.084687 262.423957 
L 303.279518 262.001949 
L 303.344462 262.095502 
L 303.864014 261.392731 
L 303.993901 261.242583 
L 304.188733 260.739084 
L 304.253677 260.662246 
L 304.318621 260.877813 
L 304.448509 260.36416 
L 304.578396 260.826535 
L 305.422667 257.639534 
L 305.552555 257.220621 
L 305.942218 255.348958 
L 306.591657 253.277667 
L 306.656601 253.215221 
L 306.916377 251.849756 
L 307.111208 252.038769 
L 307.30604 251.507882 
L 307.565816 250.896545 
L 307.63076 251.128833 
L 307.695704 251.11084 
L 307.825591 250.31784 
L 307.890535 250.362636 
L 307.955479 250.318183 
L 308.020423 250.412285 
L 308.215255 251.71315 
L 308.280199 251.58071 
L 308.864694 250.196418 
L 308.929638 250.155108 
L 308.994581 250.259936 
L 309.254357 249.290361 
L 309.319301 249.151952 
L 309.514133 247.75143 
L 309.579077 247.85672 
L 309.773908 246.208833 
L 309.96874 246.801955 
L 310.098628 245.709094 
L 310.163572 245.900535 
L 310.423347 242.66962 
L 310.488291 242.749095 
L 310.618179 242.645151 
L 310.683123 242.497405 
L 310.748067 242.872761 
L 310.813011 242.77259 
L 311.202674 241.262216 
L 311.332562 241.440908 
L 311.527393 241.751487 
L 311.722225 241.153793 
L 311.852113 241.074809 
L 311.982001 240.234851 
L 312.046945 240.282639 
L 312.176832 240.601959 
L 312.30672 240.306609 
L 312.761328 238.927273 
L 312.826271 239.293957 
L 312.956159 238.666654 
L 313.021103 238.766417 
L 313.150991 238.555176 
L 313.280879 237.991349 
L 313.345823 238.018429 
L 313.47571 238.177335 
L 313.540654 238.053566 
L 313.605598 237.111467 
L 313.670542 237.293289 
L 313.80043 236.192054 
L 313.865374 237.04973 
L 313.930318 236.650128 
L 314.060205 236.328401 
L 314.449869 234.722948 
L 314.579757 234.685305 
L 314.644701 234.567718 
L 314.96942 232.691104 
L 315.034364 232.726642 
L 315.164252 232.129682 
L 315.29414 231.179155 
L 315.359083 231.307571 
L 315.424027 231.342366 
L 315.553915 230.885494 
L 315.748747 231.481329 
L 315.813691 230.917645 
L 315.878635 231.030724 
L 315.943579 231.01296 
L 316.008522 231.336071 
L 316.073466 231.134146 
L 316.13841 231.156126 
L 316.203354 231.041205 
L 316.333242 231.345986 
L 316.398186 231.24715 
L 316.657961 232.481781 
L 316.852793 233.77914 
L 317.047625 235.971623 
L 317.177513 236.041792 
L 317.437288 237.522556 
L 317.956839 240.501347 
L 318.021783 240.388566 
L 318.995942 247.739354 
L 319.060886 247.804183 
L 319.645381 251.094938 
L 319.710325 251.015023 
L 319.9701 251.893264 
L 320.29482 253.692179 
L 320.359764 253.790083 
L 320.424707 254.212676 
L 320.489651 254.020718 
L 320.554595 254.070362 
L 320.619539 253.923144 
L 320.684483 254.04064 
L 320.814371 261.617867 
L 321.074146 262.773934 
L 321.13909 262.783669 
L 321.268978 263.055071 
L 321.46381 263.825835 
L 321.593698 263.931956 
L 322.178193 266.168008 
L 322.243137 266.091502 
L 322.308081 266.19255 
L 322.567856 267.230866 
L 322.6328 267.233906 
L 322.762688 267.536252 
L 322.892576 267.306129 
L 322.95752 267.427953 
L 323.412127 269.766296 
L 323.80179 270.642354 
L 323.866734 270.735498 
L 323.931678 271.060591 
L 323.996622 270.958769 
L 324.061566 270.990598 
L 324.12651 270.835283 
L 324.191454 270.87127 
L 324.256397 270.903299 
L 324.386285 271.319056 
L 324.451229 271.192949 
L 324.581117 271.264177 
L 324.840893 270.961189 
L 324.97078 270.804151 
L 325.035724 270.633955 
L 325.100668 273.344441 
L 325.165612 272.978874 
L 325.620219 270.333428 
L 326.074827 268.834443 
L 326.13977 268.855702 
L 326.204714 268.739424 
L 326.269658 268.780245 
L 326.334602 268.946358 
L 326.399546 268.893776 
L 326.659322 268.188124 
L 326.789209 268.439723 
L 326.984041 268.451625 
L 327.243817 268.905983 
L 327.373705 268.872567 
L 327.503592 269.1405 
L 327.568536 268.918088 
L 327.63348 269.030155 
L 327.893256 269.576035 
L 328.023144 269.134283 
L 328.153031 268.45224 
L 328.217975 268.460872 
L 328.347863 268.309842 
L 328.412807 268.399512 
L 328.542695 268.079764 
L 328.867414 265.627325 
L 328.932358 265.486724 
L 329.451909 262.731042 
L 329.97146 260.416595 
L 330.166292 260.024823 
L 330.231236 260.213233 
L 330.29618 260.23985 
L 330.555956 258.587262 
L 330.685843 258.657253 
L 330.750787 258.562588 
L 330.880675 257.856792 
L 331.010563 258.333529 
L 331.075507 258.328491 
L 331.400226 257.482595 
L 331.46517 257.562805 
L 331.660002 257.034286 
L 331.78989 257.311497 
L 331.854834 257.260657 
L 331.984721 256.589747 
L 332.049665 256.710497 
L 332.114609 256.426507 
L 332.179553 256.493116 
L 332.439329 257.321466 
L 332.504272 257.287021 
L 332.63416 257.597719 
L 332.699104 257.395901 
L 332.764048 257.47423 
L 332.828992 257.380715 
L 333.023824 258.318026 
L 333.088768 258.157035 
L 333.348543 258.888775 
L 333.608319 257.659506 
L 333.673263 257.641989 
L 333.868094 257.331567 
L 334.907197 259.802685 
L 335.29686 261.844563 
L 335.361804 261.967811 
L 335.62158 263.70213 
L 335.816411 263.964964 
L 335.881355 263.901241 
L 336.076187 264.233029 
L 336.271019 264.095998 
L 336.335962 264.239225 
L 336.46585 263.883528 
L 336.530794 264.047211 
L 336.595738 263.956054 
L 336.725626 263.844172 
L 336.920458 264.390988 
L 336.985401 264.125615 
L 337.180233 264.908047 
L 337.245177 264.850847 
L 337.569897 264.304817 
L 337.829672 264.966658 
L 337.894616 262.200214 
L 337.95956 262.398965 
L 338.219336 263.517133 
L 338.284279 263.49754 
L 338.868774 264.942302 
L 339.063606 264.628104 
L 339.323382 265.145622 
L 339.388326 265.059717 
L 339.45327 265.10259 
L 339.518213 265.358184 
L 339.583157 265.316383 
L 339.713045 265.306342 
L 339.777989 265.502152 
L 339.842933 264.962303 
L 339.907877 265.14811 
L 340.037765 264.627914 
L 340.102709 264.688224 
L 340.29754 264.899867 
L 340.362484 264.745437 
L 340.427428 264.500732 
L 340.492372 264.658246 
L 341.206755 262.166291 
L 341.336643 261.602776 
L 341.401586 261.737495 
L 341.531474 261.147243 
L 341.726306 261.805615 
L 341.856194 261.517113 
L 341.986082 261.944948 
L 342.051025 261.670076 
L 342.115969 261.751308 
L 342.310801 262.167292 
L 342.440689 261.588596 
L 342.505633 261.74256 
L 342.635521 262.638712 
L 343.025184 261.892653 
L 343.090128 262.104014 
L 343.155072 262.016471 
L 343.28496 261.715857 
L 343.479791 261.782349 
L 343.544735 261.717087 
L 343.869455 262.281318 
L 343.999342 263.383857 
L 344.194174 263.047777 
L 344.259118 263.22823 
L 344.45395 262.950649 
L 344.518894 263.057808 
L 344.713725 262.329181 
L 344.973501 261.311207 
L 345.038445 261.454678 
L 345.103389 261.550358 
L 345.233276 260.884617 
L 345.363164 260.908191 
L 345.493052 260.232746 
L 345.557996 260.369374 
L 345.687884 260.314055 
L 345.817772 259.334904 
L 345.882715 259.435874 
L 345.947659 259.388342 
L 346.467211 257.625317 
L 346.726986 258.159081 
L 346.79193 258.116494 
L 347.246537 259.820023 
L 347.571257 261.25103 
L 347.766088 262.189958 
L 348.025864 263.237339 
L 348.090808 263.110205 
L 348.480471 264.749851 
L 348.545415 264.710727 
L 349.064966 265.97665 
L 349.12991 265.954736 
L 349.194854 266.072853 
L 349.259798 266.033424 
L 349.389686 265.927054 
L 349.45463 266.220108 
L 349.519574 266.068213 
L 349.584518 265.955501 
L 349.649462 266.031489 
L 349.714405 265.981475 
L 349.779349 265.781302 
L 349.974181 266.662191 
L 350.104069 266.52779 
L 350.363844 267.315635 
L 350.428788 267.656658 
L 350.493732 267.634663 
L 350.688564 267.776686 
L 350.818452 268.303167 
L 351.013283 267.948186 
L 351.078227 268.149569 
L 351.143171 268.0393 
L 351.208115 267.837411 
L 351.338003 268.039112 
L 351.467891 267.966875 
L 351.597778 269.078567 
L 351.79261 268.444468 
L 351.922498 268.553953 
L 351.987442 268.541702 
L 352.182274 267.939449 
L 352.247217 268.067718 
L 352.442049 267.900291 
L 352.766769 268.798313 
L 352.831713 268.786399 
L 353.416208 270.527182 
L 353.481152 270.477912 
L 353.546095 270.497119 
L 353.675983 271.027576 
L 353.740927 270.803689 
L 353.805871 270.358173 
L 353.870815 270.476338 
L 354.000703 270.370762 
L 354.13059 270.5205 
L 354.260478 270.189347 
L 354.390366 271.120811 
L 354.45531 271.01659 
L 354.585198 270.873381 
L 354.650142 271.157886 
L 354.715086 271.067037 
L 354.844973 270.990667 
L 354.909917 271.246115 
L 354.974861 271.122819 
L 355.104749 271.130616 
L 355.299581 270.056462 
L 355.494412 270.325906 
L 356.143851 268.276872 
L 356.338683 267.085654 
L 356.468571 267.274153 
L 356.663402 266.97821 
L 356.858234 266.25936 
L 356.923178 266.589336 
L 356.988122 266.48242 
L 357.11801 265.687791 
L 357.182954 265.720704 
L 357.247898 265.814983 
L 357.507673 265.398792 
L 357.572617 265.637061 
L 357.637561 265.370111 
L 357.702505 265.629507 
L 357.767449 265.353821 
L 357.897337 265.749666 
L 358.287 264.146308 
L 358.351944 264.07645 
L 358.481832 263.406938 
L 358.546776 263.599443 
L 358.611719 263.461776 
L 358.806551 262.744584 
L 358.871495 263.089822 
L 359.066327 261.625176 
L 359.131271 261.56834 
L 359.261158 261.204584 
L 359.326102 261.243209 
L 359.45599 261.147199 
L 359.520934 261.700486 
L 359.585878 261.652813 
L 359.715766 261.508898 
L 359.845653 262.274381 
L 359.910597 262.161698 
L 360.040485 262.350146 
L 360.105429 262.112711 
L 360.170373 262.272324 
L 360.430149 262.004186 
L 360.495092 261.935628 
L 360.884756 259.822547 
L 361.014644 259.950524 
L 361.209475 258.714528 
L 361.274419 258.773049 
L 361.534195 258.72169 
L 361.599139 258.83509 
L 361.664083 258.760897 
L 361.729027 258.673028 
L 361.79397 258.380064 
L 361.858914 258.673724 
L 362.248578 257.018482 
L 362.313522 256.995331 
L 362.443409 256.593394 
L 362.508353 256.624798 
L 362.638241 256.75583 
L 362.703185 256.51321 
L 362.768129 256.68184 
L 363.027904 257.280969 
L 363.092848 256.765526 
L 363.222736 257.444603 
L 363.28768 257.369581 
L 363.417568 257.753265 
L 363.547456 258.11446 
L 363.6124 258.120397 
L 363.742287 258.579365 
L 363.807231 259.3916 
L 363.872175 259.300709 
L 364.002063 259.364453 
L 364.131951 260.127049 
L 364.326782 260.560515 
L 364.45667 260.984496 
L 364.911278 259.980724 
L 365.106109 260.548641 
L 365.171053 260.447423 
L 365.235997 260.797492 
L 365.365885 260.401544 
L 365.560717 260.907895 
L 365.62566 260.847812 
L 365.820492 261.15649 
L 365.95038 261.000314 
L 366.080268 261.260295 
L 366.145212 261.210684 
L 366.275099 260.211311 
L 366.340043 260.252406 
L 366.404987 259.986643 
L 366.469931 260.01721 
L 366.599819 260.207323 
L 366.794651 259.530559 
L 366.989482 260.207318 
L 367.249258 259.815037 
L 367.379146 259.790812 
L 367.509033 259.760541 
L 367.638921 259.928133 
L 367.703865 259.838903 
L 367.768809 259.928647 
L 368.093529 260.252052 
L 368.483192 257.792884 
L 368.548136 257.848274 
L 368.61308 257.709233 
L 368.678024 258.04709 
L 368.742968 257.845415 
L 368.807911 257.826514 
L 368.872855 257.944427 
L 369.45735 255.956949 
L 369.652182 254.640056 
L 369.78207 254.457312 
L 369.911958 253.978414 
L 369.976902 254.191498 
L 370.041845 254.073601 
L 370.236677 253.312976 
L 370.366565 253.653019 
L 370.431509 253.381762 
L 370.496453 253.481574 
L 370.691284 253.409087 
L 370.756228 253.12188 
L 370.821172 253.226071 
L 370.95106 253.620701 
L 371.210836 252.322884 
L 371.340723 251.855288 
L 371.405667 252.196734 
L 371.665443 250.943858 
L 372.055106 251.687927 
L 372.184994 251.181899 
L 372.249938 250.189213 
L 372.314882 250.230909 
L 372.379826 250.194999 
L 372.639601 248.979335 
L 372.704545 249.027331 
L 372.899377 249.422717 
L 372.964321 249.450857 
L 373.224096 247.231895 
L 373.28904 247.24843 
L 373.418928 246.884683 
L 374.003423 242.878372 
L 374.068367 242.716238 
L 374.458031 237.240883 
L 374.587918 237.335607 
L 374.78275 235.7777 
L 374.912638 235.889571 
L 375.042526 234.315333 
L 375.107469 234.462343 
L 375.302301 233.511194 
L 375.497133 231.727759 
L 375.562077 231.849217 
L 375.691965 233.617787 
L 375.756908 233.397495 
L 376.081628 235.303613 
L 376.27646 236.903791 
L 376.341404 237.124956 
L 376.860955 242.888702 
L 377.315562 248.215031 
L 377.575338 255.53642 
L 377.705225 256.009622 
L 377.900057 256.759136 
L 378.029945 257.254476 
L 378.28972 260.267269 
L 378.484552 262.94302 
L 378.61444 263.505372 
L 378.679384 263.018867 
L 379.004103 266.136552 
L 379.069047 266.141571 
L 379.133991 266.926975 
L 379.198935 266.742195 
L 379.263879 266.420913 
L 379.328823 266.471869 
L 379.393767 267.364369 
L 379.458711 267.334181 
L 379.523655 267.318094 
L 379.848374 267.829157 
L 379.913318 267.661153 
L 379.978262 267.887176 
L 380.238037 266.913089 
L 380.367925 265.809593 
L 380.432869 265.828074 
L 380.497813 265.73939 
L 380.627701 265.223575 
L 380.692645 265.117682 
L 380.757589 265.196405 
L 380.887476 265.525448 
L 381.147252 265.723775 
L 381.212196 265.380809 
L 381.27714 265.497959 
L 381.407028 266.741806 
L 381.471971 266.718869 
L 381.536915 266.55696 
L 381.666803 267.290297 
L 382.12141 268.834707 
L 382.186354 268.758363 
L 382.381186 269.282833 
L 382.511074 268.977735 
L 382.576018 268.787417 
L 382.705906 269.292018 
L 382.770849 269.16907 
L 382.835793 269.013071 
L 382.900737 269.111147 
L 382.965681 269.02656 
L 383.030625 269.191165 
L 383.095569 269.063053 
L 383.355345 268.819992 
L 383.420288 268.943422 
L 384.394447 265.578809 
L 384.459391 265.70007 
L 384.719166 263.871511 
L 384.78411 263.604749 
L 385.043886 260.644696 
L 385.498493 256.514327 
L 385.563437 256.573609 
L 385.693325 256.025806 
L 385.888157 255.468858 
L 385.9531 255.51118 
L 386.082988 254.925493 
L 386.407708 253.291365 
L 386.602539 252.944616 
L 386.732427 252.41967 
L 386.797371 252.614577 
L 386.862315 252.442936 
L 387.187034 253.615429 
L 387.316922 253.644182 
L 387.44681 253.291488 
L 387.511754 253.411509 
L 387.576698 253.831218 
L 387.641642 253.58825 
L 387.706586 253.616705 
L 387.77153 253.28149 
L 387.966361 254.732554 
L 388.096249 253.333918 
L 388.356025 254.524402 
L 388.550856 255.015859 
L 388.6158 255.192337 
L 388.875576 254.306336 
L 388.94052 254.413043 
L 389.070408 253.011258 
L 389.265239 251.223152 
L 389.914678 245.387928 
L 389.979622 245.129888 
L 390.10951 242.93139 
L 390.174454 242.648251 
L 390.369285 239.807944 
L 390.888837 236.337747 
L 391.213556 233.757858 
L 391.2785 233.597847 
L 391.343444 233.626879 
L 391.408388 234.230405 
L 391.60322 232.760719 
L 391.668163 232.835588 
L 391.862995 233.960581 
L 391.927939 233.625024 
L 392.187715 235.739379 
L 392.252659 235.870288 
L 392.512434 238.741324 
L 392.642322 239.376981 
L 392.837154 241.189714 
L 392.902098 241.271747 
L 393.356705 244.818711 
L 393.551536 244.32577 
L 393.61648 244.413005 
L 393.746368 243.395637 
L 393.811312 243.63331 
L 394.006144 243.064857 
L 394.136032 243.261857 
L 394.200975 243.236811 
L 394.330863 241.976413 
L 394.395807 242.243727 
L 394.590639 241.590875 
L 394.720527 241.806419 
L 394.980302 240.710268 
L 395.11019 240.317555 
L 395.175134 240.522979 
L 395.305022 240.077172 
L 395.43491 239.218852 
L 395.499853 239.439674 
L 395.629741 238.823805 
L 395.694685 239.000364 
L 395.759629 239.194382 
L 395.824573 237.895782 
L 395.889517 237.931038 
L 396.084349 238.356996 
L 396.214236 238.641127 
L 396.344124 238.240784 
L 396.409068 238.513853 
L 396.474012 238.467632 
L 396.538956 238.498134 
L 396.6039 238.300109 
L 396.798731 239.355008 
L 396.863675 239.308463 
L 397.188395 241.590945 
L 397.513114 245.73046 
L 397.77289 247.770075 
L 397.967722 249.547682 
L 398.227497 253.217412 
L 398.422329 255.822906 
L 398.487273 255.761642 
L 398.487273 255.761642 
" style="fill:none;stroke:#ff7f0e;stroke-linecap:square;stroke-width:1.5;"/>
   </g>
   <g id="patch_3">
    <path d="M 57.6 307.584 
L 57.6 41.472 
" style="fill:none;stroke:#000000;stroke-linecap:square;stroke-linejoin:miter;stroke-width:0.8;"/>
   </g>
   <g id="patch_4">
    <path d="M 414.72 307.584 
L 414.72 41.472 
" style="fill:none;stroke:#000000;stroke-linecap:square;stroke-linejoin:miter;stroke-width:0.8;"/>
   </g>
   <g id="patch_5">
    <path d="M 57.6 307.584 
L 414.72 307.584 
" style="fill:none;stroke:#000000;stroke-linecap:square;stroke-linejoin:miter;stroke-width:0.8;"/>
   </g>
   <g id="patch_6">
    <path d="M 57.6 41.472 
L 414.72 41.472 
" style="fill:none;stroke:#000000;stroke-linecap:square;stroke-linejoin:miter;stroke-width:0.8;"/>
   </g>
   <g id="legend_1">
    <g id="patch_7">
     <path d="M 283.105938 78.82825 
L 407.72 78.82825 
Q 409.72 78.82825 409.72 76.82825 
L 409.72 48.472 
Q 409.72 46.472 407.72 46.472 
L 283.105938 46.472 
Q 281.105938 46.472 281.105938 48.472 
L 281.105938 76.82825 
Q 281.105938 78.82825 283.105938 78.82825 
z
" style="fill:#ffffff;opacity:0.8;stroke:#cccccc;stroke-linejoin:miter;"/>
    </g>
    <g id="line2d_18">
     <path d="M 285.105938 54.570437 
L 305.105938 54.570437 
" style="fill:none;stroke:#1f77b4;stroke-linecap:square;stroke-width:1.5;"/>
    </g>
    <g id="line2d_19"/>
    <g id="text_18">
     <!-- HiC (sample-1-4) -->
     <defs>
      <path d="M 9.8125 72.90625 
L 19.671875 72.90625 
L 19.671875 43.015625 
L 55.515625 43.015625 
L 55.515625 72.90625 
L 65.375 72.90625 
L 65.375 0 
L 55.515625 0 
L 55.515625 34.71875 
L 19.671875 34.71875 
L 19.671875 0 
L 9.8125 0 
z
" id="DejaVuSans-72"/>
      <path d="M 64.40625 67.28125 
L 64.40625 56.890625 
Q 59.421875 61.53125 53.78125 63.8125 
Q 48.140625 66.109375 41.796875 66.109375 
Q 29.296875 66.109375 22.65625 58.46875 
Q 16.015625 50.828125 16.015625 36.375 
Q 16.015625 21.96875 22.65625 14.328125 
Q 29.296875 6.6875 41.796875 6.6875 
Q 48.140625 6.6875 53.78125 8.984375 
Q 59.421875 11.28125 64.40625 15.921875 
L 64.40625 5.609375 
Q 59.234375 2.09375 53.4375 0.328125 
Q 47.65625 -1.421875 41.21875 -1.421875 
Q 24.65625 -1.421875 15.125 8.703125 
Q 5.609375 18.84375 5.609375 36.375 
Q 5.609375 53.953125 15.125 64.078125 
Q 24.65625 74.21875 41.21875 74.21875 
Q 47.75 74.21875 53.53125 72.484375 
Q 59.328125 70.75 64.40625 67.28125 
z
" id="DejaVuSans-67"/>
      <path d="M 31 75.875 
Q 24.46875 64.65625 21.28125 53.65625 
Q 18.109375 42.671875 18.109375 31.390625 
Q 18.109375 20.125 21.3125 9.0625 
Q 24.515625 -2 31 -13.1875 
L 23.1875 -13.1875 
Q 15.875 -1.703125 12.234375 9.375 
Q 8.59375 20.453125 8.59375 31.390625 
Q 8.59375 42.28125 12.203125 53.3125 
Q 15.828125 64.359375 23.1875 75.875 
z
" id="DejaVuSans-40"/>
      <path d="M 9.421875 75.984375 
L 18.40625 75.984375 
L 18.40625 0 
L 9.421875 0 
z
" id="DejaVuSans-108"/>
      <path d="M 4.890625 31.390625 
L 31.203125 31.390625 
L 31.203125 23.390625 
L 4.890625 23.390625 
z
" id="DejaVuSans-45"/>
      <path d="M 8.015625 75.875 
L 15.828125 75.875 
Q 23.140625 64.359375 26.78125 53.3125 
Q 30.421875 42.28125 30.421875 31.390625 
Q 30.421875 20.453125 26.78125 9.375 
Q 23.140625 -1.703125 15.828125 -13.1875 
L 8.015625 -13.1875 
Q 14.5 -2 17.703125 9.0625 
Q 20.90625 20.125 20.90625 31.390625 
Q 20.90625 42.671875 17.703125 53.65625 
Q 14.5 64.65625 8.015625 75.875 
z
" id="DejaVuSans-41"/>
     </defs>
     <g transform="translate(313.105938 58.070437)scale(0.1 -0.1)">
      <use xlink:href="#DejaVuSans-72"/>
      <use x="75.195312" xlink:href="#DejaVuSans-105"/>
      <use x="102.978516" xlink:href="#DejaVuSans-67"/>
      <use x="172.802734" xlink:href="#DejaVuSans-32"/>
      <use x="204.589844" xlink:href="#DejaVuSans-40"/>
      <use x="243.603516" xlink:href="#DejaVuSans-115"/>
      <use x="295.703125" xlink:href="#DejaVuSans-97"/>
      <use x="356.982422" xlink:href="#DejaVuSans-109"/>
      <use x="454.394531" xlink:href="#DejaVuSans-112"/>
      <use x="517.871094" xlink:href="#DejaVuSans-108"/>
      <use x="545.654297" xlink:href="#DejaVuSans-101"/>
      <use x="607.177734" xlink:href="#DejaVuSans-45"/>
      <use x="643.261719" xlink:href="#DejaVuSans-49"/>
      <use x="706.884766" xlink:href="#DejaVuSans-45"/>
      <use x="742.96875" xlink:href="#DejaVuSans-52"/>
      <use x="806.591797" xlink:href="#DejaVuSans-41"/>
     </g>
    </g>
    <g id="line2d_20">
     <path d="M 285.105938 69.248562 
L 305.105938 69.248562 
" style="fill:none;stroke:#ff7f0e;stroke-linecap:square;stroke-width:1.5;"/>
    </g>
    <g id="line2d_21"/>
    <g id="text_19">
     <!-- ExoC (sample-1-5) -->
     <defs>
      <path d="M 9.8125 72.90625 
L 55.90625 72.90625 
L 55.90625 64.59375 
L 19.671875 64.59375 
L 19.671875 43.015625 
L 54.390625 43.015625 
L 54.390625 34.71875 
L 19.671875 34.71875 
L 19.671875 8.296875 
L 56.78125 8.296875 
L 56.78125 0 
L 9.8125 0 
z
" id="DejaVuSans-69"/>
      <path d="M 54.890625 54.6875 
L 35.109375 28.078125 
L 55.90625 0 
L 45.3125 0 
L 29.390625 21.484375 
L 13.484375 0 
L 2.875 0 
L 24.125 28.609375 
L 4.6875 54.6875 
L 15.28125 54.6875 
L 29.78125 35.203125 
L 44.28125 54.6875 
z
" id="DejaVuSans-120"/>
     </defs>
     <g transform="translate(313.105938 72.748562)scale(0.1 -0.1)">
      <use xlink:href="#DejaVuSans-69"/>
      <use x="63.183594" xlink:href="#DejaVuSans-120"/>
      <use x="122.316406" xlink:href="#DejaVuSans-111"/>
      <use x="183.498047" xlink:href="#DejaVuSans-67"/>
      <use x="253.322266" xlink:href="#DejaVuSans-32"/>
      <use x="285.109375" xlink:href="#DejaVuSans-40"/>
      <use x="324.123047" xlink:href="#DejaVuSans-115"/>
      <use x="376.222656" xlink:href="#DejaVuSans-97"/>
      <use x="437.501953" xlink:href="#DejaVuSans-109"/>
      <use x="534.914062" xlink:href="#DejaVuSans-112"/>
      <use x="598.390625" xlink:href="#DejaVuSans-108"/>
      <use x="626.173828" xlink:href="#DejaVuSans-101"/>
      <use x="687.697266" xlink:href="#DejaVuSans-45"/>
      <use x="723.78125" xlink:href="#DejaVuSans-49"/>
      <use x="787.404297" xlink:href="#DejaVuSans-45"/>
      <use x="823.488281" xlink:href="#DejaVuSans-53"/>
      <use x="887.111328" xlink:href="#DejaVuSans-41"/>
     </g>
    </g>
   </g>
  </g>
  <g id="text_20">
   <!-- Distance coverage (5000b, samples 4-5) -->
   <g transform="translate(108.271875 16.030125)scale(0.12 -0.12)">
    <use xlink:href="#DejaVuSans-68"/>
    <use x="77.001953" xlink:href="#DejaVuSans-105"/>
    <use x="104.785156" xlink:href="#DejaVuSans-115"/>
    <use x="156.884766" xlink:href="#DejaVuSans-116"/>
    <use x="196.09375" xlink:href="#DejaVuSans-97"/>
    <use x="257.373047" xlink:href="#DejaVuSans-110"/>
    <use x="320.751953" xlink:href="#DejaVuSans-99"/>
    <use x="375.732422" xlink:href="#DejaVuSans-101"/>
    <use x="437.255859" xlink:href="#DejaVuSans-32"/>
    <use x="469.042969" xlink:href="#DejaVuSans-99"/>
    <use x="524.023438" xlink:href="#DejaVuSans-111"/>
    <use x="585.205078" xlink:href="#DejaVuSans-118"/>
    <use x="644.384766" xlink:href="#DejaVuSans-101"/>
    <use x="705.908203" xlink:href="#DejaVuSans-114"/>
    <use x="747.021484" xlink:href="#DejaVuSans-97"/>
    <use x="808.300781" xlink:href="#DejaVuSans-103"/>
    <use x="871.777344" xlink:href="#DejaVuSans-101"/>
    <use x="933.300781" xlink:href="#DejaVuSans-32"/>
    <use x="965.087891" xlink:href="#DejaVuSans-40"/>
    <use x="1004.101562" xlink:href="#DejaVuSans-53"/>
    <use x="1067.724609" xlink:href="#DejaVuSans-48"/>
    <use x="1131.347656" xlink:href="#DejaVuSans-48"/>
    <use x="1194.970703" xlink:href="#DejaVuSans-48"/>
    <use x="1258.59375" xlink:href="#DejaVuSans-98"/>
    <use x="1322.070312" xlink:href="#DejaVuSans-44"/>
    <use x="1353.857422" xlink:href="#DejaVuSans-32"/>
    <use x="1385.644531" xlink:href="#DejaVuSans-115"/>
    <use x="1437.744141" xlink:href="#DejaVuSans-97"/>
    <use x="1499.023438" xlink:href="#DejaVuSans-109"/>
    <use x="1596.435547" xlink:href="#DejaVuSans-112"/>
    <use x="1659.912109" xlink:href="#DejaVuSans-108"/>
    <use x="1687.695312" xlink:href="#DejaVuSans-101"/>
    <use x="1749.21875" xlink:href="#DejaVuSans-115"/>
    <use x="1801.318359" xlink:href="#DejaVuSans-32"/>
    <use x="1833.105469" xlink:href="#DejaVuSans-52"/>
    <use x="1896.728516" xlink:href="#DejaVuSans-45"/>
    <use x="1932.8125" xlink:href="#DejaVuSans-53"/>
    <use x="1996.435547" xlink:href="#DejaVuSans-41"/>
   </g>
  </g>
 </g>
 <defs>
  <clipPath id="p6c351195ed">
   <rect height="266.112" width="357.12" x="57.6" y="41.472"/>
  </clipPath>
 </defs>
</svg>
