<?xml version="1.0" encoding="utf-8" standalone="no"?>
<!DOCTYPE svg PUBLIC "-//W3C//DTD SVG 1.1//EN"
  "http://www.w3.org/Graphics/SVG/1.1/DTD/svg11.dtd">
<!-- Created with matplotlib (https://matplotlib.org/) -->
<svg height="345.6pt" version="1.1" viewBox="0 0 460.8 345.6" width="460.8pt" xmlns="http://www.w3.org/2000/svg" xmlns:xlink="http://www.w3.org/1999/xlink">
 <defs>
  <style type="text/css">
*{stroke-linecap:butt;stroke-linejoin:round;}
  </style>
 </defs>
 <g id="figure_1">
  <g id="patch_1">
   <path d="M 0 345.6 
L 460.8 345.6 
L 460.8 0 
L 0 0 
z
" style="fill:#ffffff;"/>
  </g>
  <g id="axes_1">
   <g id="patch_2">
    <path d="M 57.6 307.584 
L 414.72 307.584 
L 414.72 41.472 
L 57.6 41.472 
z
" style="fill:#ffffff;"/>
   </g>
   <g id="matplotlib.axis_1">
    <g id="xtick_1">
     <g id="line2d_1">
      <defs>
       <path d="M 0 0 
L 0 3.5 
" id="m215f1bf46b" style="stroke:#000000;stroke-width:0.8;"/>
      </defs>
      <g>
       <use style="stroke:#000000;stroke-width:0.8;" x="73.832727" xlink:href="#m215f1bf46b" y="307.584"/>
      </g>
     </g>
     <g id="text_1">
      <!-- 0 -->
      <defs>
       <path d="M 31.78125 66.40625 
Q 24.171875 66.40625 20.328125 58.90625 
Q 16.5 51.421875 16.5 36.375 
Q 16.5 21.390625 20.328125 13.890625 
Q 24.171875 6.390625 31.78125 6.390625 
Q 39.453125 6.390625 43.28125 13.890625 
Q 47.125 21.390625 47.125 36.375 
Q 47.125 51.421875 43.28125 58.90625 
Q 39.453125 66.40625 31.78125 66.40625 
z
M 31.78125 74.21875 
Q 44.046875 74.21875 50.515625 64.515625 
Q 56.984375 54.828125 56.984375 36.375 
Q 56.984375 17.96875 50.515625 8.265625 
Q 44.046875 -1.421875 31.78125 -1.421875 
Q 19.53125 -1.421875 13.0625 8.265625 
Q 6.59375 17.96875 6.59375 36.375 
Q 6.59375 54.828125 13.0625 64.515625 
Q 19.53125 74.21875 31.78125 74.21875 
z
" id="DejaVuSans-48"/>
      </defs>
      <g transform="translate(70.651477 322.182437)scale(0.1 -0.1)">
       <use xlink:href="#DejaVuSans-48"/>
      </g>
     </g>
    </g>
    <g id="xtick_2">
     <g id="line2d_2">
      <g>
       <use style="stroke:#000000;stroke-width:0.8;" x="139.419504" xlink:href="#m215f1bf46b" y="307.584"/>
      </g>
     </g>
     <g id="text_2">
      <!-- 20 -->
      <defs>
       <path d="M 19.1875 8.296875 
L 53.609375 8.296875 
L 53.609375 0 
L 7.328125 0 
L 7.328125 8.296875 
Q 12.9375 14.109375 22.625 23.890625 
Q 32.328125 33.6875 34.8125 36.53125 
Q 39.546875 41.84375 41.421875 45.53125 
Q 43.3125 49.21875 43.3125 52.78125 
Q 43.3125 58.59375 39.234375 62.25 
Q 35.15625 65.921875 28.609375 65.921875 
Q 23.96875 65.921875 18.8125 64.3125 
Q 13.671875 62.703125 7.8125 59.421875 
L 7.8125 69.390625 
Q 13.765625 71.78125 18.9375 73 
Q 24.125 74.21875 28.421875 74.21875 
Q 39.75 74.21875 46.484375 68.546875 
Q 53.21875 62.890625 53.21875 53.421875 
Q 53.21875 48.921875 51.53125 44.890625 
Q 49.859375 40.875 45.40625 35.40625 
Q 44.1875 33.984375 37.640625 27.21875 
Q 31.109375 20.453125 19.1875 8.296875 
z
" id="DejaVuSans-50"/>
      </defs>
      <g transform="translate(133.057004 322.182437)scale(0.1 -0.1)">
       <use xlink:href="#DejaVuSans-50"/>
       <use x="63.623047" xlink:href="#DejaVuSans-48"/>
      </g>
     </g>
    </g>
    <g id="xtick_3">
     <g id="line2d_3">
      <g>
       <use style="stroke:#000000;stroke-width:0.8;" x="205.006281" xlink:href="#m215f1bf46b" y="307.584"/>
      </g>
     </g>
     <g id="text_3">
      <!-- 40 -->
      <defs>
       <path d="M 37.796875 64.3125 
L 12.890625 25.390625 
L 37.796875 25.390625 
z
M 35.203125 72.90625 
L 47.609375 72.90625 
L 47.609375 25.390625 
L 58.015625 25.390625 
L 58.015625 17.1875 
L 47.609375 17.1875 
L 47.609375 0 
L 37.796875 0 
L 37.796875 17.1875 
L 4.890625 17.1875 
L 4.890625 26.703125 
z
" id="DejaVuSans-52"/>
      </defs>
      <g transform="translate(198.643781 322.182437)scale(0.1 -0.1)">
       <use xlink:href="#DejaVuSans-52"/>
       <use x="63.623047" xlink:href="#DejaVuSans-48"/>
      </g>
     </g>
    </g>
    <g id="xtick_4">
     <g id="line2d_4">
      <g>
       <use style="stroke:#000000;stroke-width:0.8;" x="270.593058" xlink:href="#m215f1bf46b" y="307.584"/>
      </g>
     </g>
     <g id="text_4">
      <!-- 60 -->
      <defs>
       <path d="M 33.015625 40.375 
Q 26.375 40.375 22.484375 35.828125 
Q 18.609375 31.296875 18.609375 23.390625 
Q 18.609375 15.53125 22.484375 10.953125 
Q 26.375 6.390625 33.015625 6.390625 
Q 39.65625 6.390625 43.53125 10.953125 
Q 47.40625 15.53125 47.40625 23.390625 
Q 47.40625 31.296875 43.53125 35.828125 
Q 39.65625 40.375 33.015625 40.375 
z
M 52.59375 71.296875 
L 52.59375 62.3125 
Q 48.875 64.0625 45.09375 64.984375 
Q 41.3125 65.921875 37.59375 65.921875 
Q 27.828125 65.921875 22.671875 59.328125 
Q 17.53125 52.734375 16.796875 39.40625 
Q 19.671875 43.65625 24.015625 45.921875 
Q 28.375 48.1875 33.59375 48.1875 
Q 44.578125 48.1875 50.953125 41.515625 
Q 57.328125 34.859375 57.328125 23.390625 
Q 57.328125 12.15625 50.6875 5.359375 
Q 44.046875 -1.421875 33.015625 -1.421875 
Q 20.359375 -1.421875 13.671875 8.265625 
Q 6.984375 17.96875 6.984375 36.375 
Q 6.984375 53.65625 15.1875 63.9375 
Q 23.390625 74.21875 37.203125 74.21875 
Q 40.921875 74.21875 44.703125 73.484375 
Q 48.484375 72.75 52.59375 71.296875 
z
" id="DejaVuSans-54"/>
      </defs>
      <g transform="translate(264.230558 322.182437)scale(0.1 -0.1)">
       <use xlink:href="#DejaVuSans-54"/>
       <use x="63.623047" xlink:href="#DejaVuSans-48"/>
      </g>
     </g>
    </g>
    <g id="xtick_5">
     <g id="line2d_5">
      <g>
       <use style="stroke:#000000;stroke-width:0.8;" x="336.179835" xlink:href="#m215f1bf46b" y="307.584"/>
      </g>
     </g>
     <g id="text_5">
      <!-- 80 -->
      <defs>
       <path d="M 31.78125 34.625 
Q 24.75 34.625 20.71875 30.859375 
Q 16.703125 27.09375 16.703125 20.515625 
Q 16.703125 13.921875 20.71875 10.15625 
Q 24.75 6.390625 31.78125 6.390625 
Q 38.8125 6.390625 42.859375 10.171875 
Q 46.921875 13.96875 46.921875 20.515625 
Q 46.921875 27.09375 42.890625 30.859375 
Q 38.875 34.625 31.78125 34.625 
z
M 21.921875 38.8125 
Q 15.578125 40.375 12.03125 44.71875 
Q 8.5 49.078125 8.5 55.328125 
Q 8.5 64.0625 14.71875 69.140625 
Q 20.953125 74.21875 31.78125 74.21875 
Q 42.671875 74.21875 48.875 69.140625 
Q 55.078125 64.0625 55.078125 55.328125 
Q 55.078125 49.078125 51.53125 44.71875 
Q 48 40.375 41.703125 38.8125 
Q 48.828125 37.15625 52.796875 32.3125 
Q 56.78125 27.484375 56.78125 20.515625 
Q 56.78125 9.90625 50.3125 4.234375 
Q 43.84375 -1.421875 31.78125 -1.421875 
Q 19.734375 -1.421875 13.25 4.234375 
Q 6.78125 9.90625 6.78125 20.515625 
Q 6.78125 27.484375 10.78125 32.3125 
Q 14.796875 37.15625 21.921875 38.8125 
z
M 18.3125 54.390625 
Q 18.3125 48.734375 21.84375 45.5625 
Q 25.390625 42.390625 31.78125 42.390625 
Q 38.140625 42.390625 41.71875 45.5625 
Q 45.3125 48.734375 45.3125 54.390625 
Q 45.3125 60.0625 41.71875 63.234375 
Q 38.140625 66.40625 31.78125 66.40625 
Q 25.390625 66.40625 21.84375 63.234375 
Q 18.3125 60.0625 18.3125 54.390625 
z
" id="DejaVuSans-56"/>
      </defs>
      <g transform="translate(329.817335 322.182437)scale(0.1 -0.1)">
       <use xlink:href="#DejaVuSans-56"/>
       <use x="63.623047" xlink:href="#DejaVuSans-48"/>
      </g>
     </g>
    </g>
    <g id="xtick_6">
     <g id="line2d_6">
      <g>
       <use style="stroke:#000000;stroke-width:0.8;" x="401.766612" xlink:href="#m215f1bf46b" y="307.584"/>
      </g>
     </g>
     <g id="text_6">
      <!-- 100 -->
      <defs>
       <path d="M 12.40625 8.296875 
L 28.515625 8.296875 
L 28.515625 63.921875 
L 10.984375 60.40625 
L 10.984375 69.390625 
L 28.421875 72.90625 
L 38.28125 72.90625 
L 38.28125 8.296875 
L 54.390625 8.296875 
L 54.390625 0 
L 12.40625 0 
z
" id="DejaVuSans-49"/>
      </defs>
      <g transform="translate(392.222862 322.182437)scale(0.1 -0.1)">
       <use xlink:href="#DejaVuSans-49"/>
       <use x="63.623047" xlink:href="#DejaVuSans-48"/>
       <use x="127.246094" xlink:href="#DejaVuSans-48"/>
      </g>
     </g>
    </g>
    <g id="text_7">
     <!-- Depth -->
     <defs>
      <path d="M 19.671875 64.796875 
L 19.671875 8.109375 
L 31.59375 8.109375 
Q 46.6875 8.109375 53.6875 14.9375 
Q 60.6875 21.78125 60.6875 36.53125 
Q 60.6875 51.171875 53.6875 57.984375 
Q 46.6875 64.796875 31.59375 64.796875 
z
M 9.8125 72.90625 
L 30.078125 72.90625 
Q 51.265625 72.90625 61.171875 64.09375 
Q 71.09375 55.28125 71.09375 36.53125 
Q 71.09375 17.671875 61.125 8.828125 
Q 51.171875 0 30.078125 0 
L 9.8125 0 
z
" id="DejaVuSans-68"/>
      <path d="M 56.203125 29.59375 
L 56.203125 25.203125 
L 14.890625 25.203125 
Q 15.484375 15.921875 20.484375 11.0625 
Q 25.484375 6.203125 34.421875 6.203125 
Q 39.59375 6.203125 44.453125 7.46875 
Q 49.3125 8.734375 54.109375 11.28125 
L 54.109375 2.78125 
Q 49.265625 0.734375 44.1875 -0.34375 
Q 39.109375 -1.421875 33.890625 -1.421875 
Q 20.796875 -1.421875 13.15625 6.1875 
Q 5.515625 13.8125 5.515625 26.8125 
Q 5.515625 40.234375 12.765625 48.109375 
Q 20.015625 56 32.328125 56 
Q 43.359375 56 49.78125 48.890625 
Q 56.203125 41.796875 56.203125 29.59375 
z
M 47.21875 32.234375 
Q 47.125 39.59375 43.09375 43.984375 
Q 39.0625 48.390625 32.421875 48.390625 
Q 24.90625 48.390625 20.390625 44.140625 
Q 15.875 39.890625 15.1875 32.171875 
z
" id="DejaVuSans-101"/>
      <path d="M 18.109375 8.203125 
L 18.109375 -20.796875 
L 9.078125 -20.796875 
L 9.078125 54.6875 
L 18.109375 54.6875 
L 18.109375 46.390625 
Q 20.953125 51.265625 25.265625 53.625 
Q 29.59375 56 35.59375 56 
Q 45.5625 56 51.78125 48.09375 
Q 58.015625 40.1875 58.015625 27.296875 
Q 58.015625 14.40625 51.78125 6.484375 
Q 45.5625 -1.421875 35.59375 -1.421875 
Q 29.59375 -1.421875 25.265625 0.953125 
Q 20.953125 3.328125 18.109375 8.203125 
z
M 48.6875 27.296875 
Q 48.6875 37.203125 44.609375 42.84375 
Q 40.53125 48.484375 33.40625 48.484375 
Q 26.265625 48.484375 22.1875 42.84375 
Q 18.109375 37.203125 18.109375 27.296875 
Q 18.109375 17.390625 22.1875 11.75 
Q 26.265625 6.109375 33.40625 6.109375 
Q 40.53125 6.109375 44.609375 11.75 
Q 48.6875 17.390625 48.6875 27.296875 
z
" id="DejaVuSans-112"/>
      <path d="M 18.3125 70.21875 
L 18.3125 54.6875 
L 36.8125 54.6875 
L 36.8125 47.703125 
L 18.3125 47.703125 
L 18.3125 18.015625 
Q 18.3125 11.328125 20.140625 9.421875 
Q 21.96875 7.515625 27.59375 7.515625 
L 36.8125 7.515625 
L 36.8125 0 
L 27.59375 0 
Q 17.1875 0 13.234375 3.875 
Q 9.28125 7.765625 9.28125 18.015625 
L 9.28125 47.703125 
L 2.6875 47.703125 
L 2.6875 54.6875 
L 9.28125 54.6875 
L 9.28125 70.21875 
z
" id="DejaVuSans-116"/>
      <path d="M 54.890625 33.015625 
L 54.890625 0 
L 45.90625 0 
L 45.90625 32.71875 
Q 45.90625 40.484375 42.875 44.328125 
Q 39.84375 48.1875 33.796875 48.1875 
Q 26.515625 48.1875 22.3125 43.546875 
Q 18.109375 38.921875 18.109375 30.90625 
L 18.109375 0 
L 9.078125 0 
L 9.078125 75.984375 
L 18.109375 75.984375 
L 18.109375 46.1875 
Q 21.34375 51.125 25.703125 53.5625 
Q 30.078125 56 35.796875 56 
Q 45.21875 56 50.046875 50.171875 
Q 54.890625 44.34375 54.890625 33.015625 
z
" id="DejaVuSans-104"/>
     </defs>
     <g transform="translate(220.930312 335.860562)scale(0.1 -0.1)">
      <use xlink:href="#DejaVuSans-68"/>
      <use x="77.001953" xlink:href="#DejaVuSans-101"/>
      <use x="138.525391" xlink:href="#DejaVuSans-112"/>
      <use x="202.001953" xlink:href="#DejaVuSans-116"/>
      <use x="241.210938" xlink:href="#DejaVuSans-104"/>
     </g>
    </g>
   </g>
   <g id="matplotlib.axis_2">
    <g id="ytick_1">
     <g id="line2d_7">
      <defs>
       <path d="M 0 0 
L -3.5 0 
" id="m911ce58a8d" style="stroke:#000000;stroke-width:0.8;"/>
      </defs>
      <g>
       <use style="stroke:#000000;stroke-width:0.8;" x="57.6" xlink:href="#m911ce58a8d" y="295.540871"/>
      </g>
     </g>
     <g id="text_8">
      <!-- 0.0 -->
      <defs>
       <path d="M 10.6875 12.40625 
L 21 12.40625 
L 21 0 
L 10.6875 0 
z
" id="DejaVuSans-46"/>
      </defs>
      <g transform="translate(34.696875 299.34009)scale(0.1 -0.1)">
       <use xlink:href="#DejaVuSans-48"/>
       <use x="63.623047" xlink:href="#DejaVuSans-46"/>
       <use x="95.410156" xlink:href="#DejaVuSans-48"/>
      </g>
     </g>
    </g>
    <g id="ytick_2">
     <g id="line2d_8">
      <g>
       <use style="stroke:#000000;stroke-width:0.8;" x="57.6" xlink:href="#m911ce58a8d" y="247.146258"/>
      </g>
     </g>
     <g id="text_9">
      <!-- 0.2 -->
      <g transform="translate(34.696875 250.945477)scale(0.1 -0.1)">
       <use xlink:href="#DejaVuSans-48"/>
       <use x="63.623047" xlink:href="#DejaVuSans-46"/>
       <use x="95.410156" xlink:href="#DejaVuSans-50"/>
      </g>
     </g>
    </g>
    <g id="ytick_3">
     <g id="line2d_9">
      <g>
       <use style="stroke:#000000;stroke-width:0.8;" x="57.6" xlink:href="#m911ce58a8d" y="198.751645"/>
      </g>
     </g>
     <g id="text_10">
      <!-- 0.4 -->
      <g transform="translate(34.696875 202.550864)scale(0.1 -0.1)">
       <use xlink:href="#DejaVuSans-48"/>
       <use x="63.623047" xlink:href="#DejaVuSans-46"/>
       <use x="95.410156" xlink:href="#DejaVuSans-52"/>
      </g>
     </g>
    </g>
    <g id="ytick_4">
     <g id="line2d_10">
      <g>
       <use style="stroke:#000000;stroke-width:0.8;" x="57.6" xlink:href="#m911ce58a8d" y="150.357032"/>
      </g>
     </g>
     <g id="text_11">
      <!-- 0.6 -->
      <g transform="translate(34.696875 154.156251)scale(0.1 -0.1)">
       <use xlink:href="#DejaVuSans-48"/>
       <use x="63.623047" xlink:href="#DejaVuSans-46"/>
       <use x="95.410156" xlink:href="#DejaVuSans-54"/>
      </g>
     </g>
    </g>
    <g id="ytick_5">
     <g id="line2d_11">
      <g>
       <use style="stroke:#000000;stroke-width:0.8;" x="57.6" xlink:href="#m911ce58a8d" y="101.962419"/>
      </g>
     </g>
     <g id="text_12">
      <!-- 0.8 -->
      <g transform="translate(34.696875 105.761638)scale(0.1 -0.1)">
       <use xlink:href="#DejaVuSans-48"/>
       <use x="63.623047" xlink:href="#DejaVuSans-46"/>
       <use x="95.410156" xlink:href="#DejaVuSans-56"/>
      </g>
     </g>
    </g>
    <g id="ytick_6">
     <g id="line2d_12">
      <g>
       <use style="stroke:#000000;stroke-width:0.8;" x="57.6" xlink:href="#m911ce58a8d" y="53.567806"/>
      </g>
     </g>
     <g id="text_13">
      <!-- 1.0 -->
      <g transform="translate(34.696875 57.367025)scale(0.1 -0.1)">
       <use xlink:href="#DejaVuSans-49"/>
       <use x="63.623047" xlink:href="#DejaVuSans-46"/>
       <use x="95.410156" xlink:href="#DejaVuSans-48"/>
      </g>
     </g>
    </g>
    <g id="text_14">
     <!-- % of A with more depth -->
     <defs>
      <path d="M 72.703125 32.078125 
Q 68.453125 32.078125 66.03125 28.46875 
Q 63.625 24.859375 63.625 18.40625 
Q 63.625 12.0625 66.03125 8.421875 
Q 68.453125 4.78125 72.703125 4.78125 
Q 76.859375 4.78125 79.265625 8.421875 
Q 81.6875 12.0625 81.6875 18.40625 
Q 81.6875 24.8125 79.265625 28.4375 
Q 76.859375 32.078125 72.703125 32.078125 
z
M 72.703125 38.28125 
Q 80.421875 38.28125 84.953125 32.90625 
Q 89.5 27.546875 89.5 18.40625 
Q 89.5 9.28125 84.9375 3.921875 
Q 80.375 -1.421875 72.703125 -1.421875 
Q 64.890625 -1.421875 60.34375 3.921875 
Q 55.8125 9.28125 55.8125 18.40625 
Q 55.8125 27.59375 60.375 32.9375 
Q 64.9375 38.28125 72.703125 38.28125 
z
M 22.3125 68.015625 
Q 18.109375 68.015625 15.6875 64.375 
Q 13.28125 60.75 13.28125 54.390625 
Q 13.28125 47.953125 15.671875 44.328125 
Q 18.0625 40.71875 22.3125 40.71875 
Q 26.5625 40.71875 28.96875 44.328125 
Q 31.390625 47.953125 31.390625 54.390625 
Q 31.390625 60.6875 28.953125 64.34375 
Q 26.515625 68.015625 22.3125 68.015625 
z
M 66.40625 74.21875 
L 74.21875 74.21875 
L 28.609375 -1.421875 
L 20.796875 -1.421875 
z
M 22.3125 74.21875 
Q 30.03125 74.21875 34.609375 68.875 
Q 39.203125 63.53125 39.203125 54.390625 
Q 39.203125 45.171875 34.640625 39.84375 
Q 30.078125 34.515625 22.3125 34.515625 
Q 14.546875 34.515625 10.03125 39.859375 
Q 5.515625 45.21875 5.515625 54.390625 
Q 5.515625 63.484375 10.046875 68.84375 
Q 14.59375 74.21875 22.3125 74.21875 
z
" id="DejaVuSans-37"/>
      <path id="DejaVuSans-32"/>
      <path d="M 30.609375 48.390625 
Q 23.390625 48.390625 19.1875 42.75 
Q 14.984375 37.109375 14.984375 27.296875 
Q 14.984375 17.484375 19.15625 11.84375 
Q 23.34375 6.203125 30.609375 6.203125 
Q 37.796875 6.203125 41.984375 11.859375 
Q 46.1875 17.53125 46.1875 27.296875 
Q 46.1875 37.015625 41.984375 42.703125 
Q 37.796875 48.390625 30.609375 48.390625 
z
M 30.609375 56 
Q 42.328125 56 49.015625 48.375 
Q 55.71875 40.765625 55.71875 27.296875 
Q 55.71875 13.875 49.015625 6.21875 
Q 42.328125 -1.421875 30.609375 -1.421875 
Q 18.84375 -1.421875 12.171875 6.21875 
Q 5.515625 13.875 5.515625 27.296875 
Q 5.515625 40.765625 12.171875 48.375 
Q 18.84375 56 30.609375 56 
z
" id="DejaVuSans-111"/>
      <path d="M 37.109375 75.984375 
L 37.109375 68.5 
L 28.515625 68.5 
Q 23.6875 68.5 21.796875 66.546875 
Q 19.921875 64.59375 19.921875 59.515625 
L 19.921875 54.6875 
L 34.71875 54.6875 
L 34.71875 47.703125 
L 19.921875 47.703125 
L 19.921875 0 
L 10.890625 0 
L 10.890625 47.703125 
L 2.296875 47.703125 
L 2.296875 54.6875 
L 10.890625 54.6875 
L 10.890625 58.5 
Q 10.890625 67.625 15.140625 71.796875 
Q 19.390625 75.984375 28.609375 75.984375 
z
" id="DejaVuSans-102"/>
      <path d="M 34.1875 63.1875 
L 20.796875 26.90625 
L 47.609375 26.90625 
z
M 28.609375 72.90625 
L 39.796875 72.90625 
L 67.578125 0 
L 57.328125 0 
L 50.6875 18.703125 
L 17.828125 18.703125 
L 11.1875 0 
L 0.78125 0 
z
" id="DejaVuSans-65"/>
      <path d="M 4.203125 54.6875 
L 13.1875 54.6875 
L 24.421875 12.015625 
L 35.59375 54.6875 
L 46.1875 54.6875 
L 57.421875 12.015625 
L 68.609375 54.6875 
L 77.59375 54.6875 
L 63.28125 0 
L 52.6875 0 
L 40.921875 44.828125 
L 29.109375 0 
L 18.5 0 
z
" id="DejaVuSans-119"/>
      <path d="M 9.421875 54.6875 
L 18.40625 54.6875 
L 18.40625 0 
L 9.421875 0 
z
M 9.421875 75.984375 
L 18.40625 75.984375 
L 18.40625 64.59375 
L 9.421875 64.59375 
z
" id="DejaVuSans-105"/>
      <path d="M 52 44.1875 
Q 55.375 50.25 60.0625 53.125 
Q 64.75 56 71.09375 56 
Q 79.640625 56 84.28125 50.015625 
Q 88.921875 44.046875 88.921875 33.015625 
L 88.921875 0 
L 79.890625 0 
L 79.890625 32.71875 
Q 79.890625 40.578125 77.09375 44.375 
Q 74.3125 48.1875 68.609375 48.1875 
Q 61.625 48.1875 57.5625 43.546875 
Q 53.515625 38.921875 53.515625 30.90625 
L 53.515625 0 
L 44.484375 0 
L 44.484375 32.71875 
Q 44.484375 40.625 41.703125 44.40625 
Q 38.921875 48.1875 33.109375 48.1875 
Q 26.21875 48.1875 22.15625 43.53125 
Q 18.109375 38.875 18.109375 30.90625 
L 18.109375 0 
L 9.078125 0 
L 9.078125 54.6875 
L 18.109375 54.6875 
L 18.109375 46.1875 
Q 21.1875 51.21875 25.484375 53.609375 
Q 29.78125 56 35.6875 56 
Q 41.65625 56 45.828125 52.96875 
Q 50 49.953125 52 44.1875 
z
" id="DejaVuSans-109"/>
      <path d="M 41.109375 46.296875 
Q 39.59375 47.171875 37.8125 47.578125 
Q 36.03125 48 33.890625 48 
Q 26.265625 48 22.1875 43.046875 
Q 18.109375 38.09375 18.109375 28.8125 
L 18.109375 0 
L 9.078125 0 
L 9.078125 54.6875 
L 18.109375 54.6875 
L 18.109375 46.1875 
Q 20.953125 51.171875 25.484375 53.578125 
Q 30.03125 56 36.53125 56 
Q 37.453125 56 38.578125 55.875 
Q 39.703125 55.765625 41.0625 55.515625 
z
" id="DejaVuSans-114"/>
      <path d="M 45.40625 46.390625 
L 45.40625 75.984375 
L 54.390625 75.984375 
L 54.390625 0 
L 45.40625 0 
L 45.40625 8.203125 
Q 42.578125 3.328125 38.25 0.953125 
Q 33.9375 -1.421875 27.875 -1.421875 
Q 17.96875 -1.421875 11.734375 6.484375 
Q 5.515625 14.40625 5.515625 27.296875 
Q 5.515625 40.1875 11.734375 48.09375 
Q 17.96875 56 27.875 56 
Q 33.9375 56 38.25 53.625 
Q 42.578125 51.265625 45.40625 46.390625 
z
M 14.796875 27.296875 
Q 14.796875 17.390625 18.875 11.75 
Q 22.953125 6.109375 30.078125 6.109375 
Q 37.203125 6.109375 41.296875 11.75 
Q 45.40625 17.390625 45.40625 27.296875 
Q 45.40625 37.203125 41.296875 42.84375 
Q 37.203125 48.484375 30.078125 48.484375 
Q 22.953125 48.484375 18.875 42.84375 
Q 14.796875 37.203125 14.796875 27.296875 
z
" id="DejaVuSans-100"/>
     </defs>
     <g transform="translate(28.617187 233.685031)rotate(-90)scale(0.1 -0.1)">
      <use xlink:href="#DejaVuSans-37"/>
      <use x="95.019531" xlink:href="#DejaVuSans-32"/>
      <use x="126.806641" xlink:href="#DejaVuSans-111"/>
      <use x="187.988281" xlink:href="#DejaVuSans-102"/>
      <use x="223.193359" xlink:href="#DejaVuSans-32"/>
      <use x="254.980469" xlink:href="#DejaVuSans-65"/>
      <use x="323.388672" xlink:href="#DejaVuSans-32"/>
      <use x="355.175781" xlink:href="#DejaVuSans-119"/>
      <use x="436.962891" xlink:href="#DejaVuSans-105"/>
      <use x="464.746094" xlink:href="#DejaVuSans-116"/>
      <use x="503.955078" xlink:href="#DejaVuSans-104"/>
      <use x="567.333984" xlink:href="#DejaVuSans-32"/>
      <use x="599.121094" xlink:href="#DejaVuSans-109"/>
      <use x="696.533203" xlink:href="#DejaVuSans-111"/>
      <use x="757.714844" xlink:href="#DejaVuSans-114"/>
      <use x="798.796875" xlink:href="#DejaVuSans-101"/>
      <use x="860.320312" xlink:href="#DejaVuSans-32"/>
      <use x="892.107422" xlink:href="#DejaVuSans-100"/>
      <use x="955.583984" xlink:href="#DejaVuSans-101"/>
      <use x="1017.107422" xlink:href="#DejaVuSans-112"/>
      <use x="1080.583984" xlink:href="#DejaVuSans-116"/>
      <use x="1119.792969" xlink:href="#DejaVuSans-104"/>
     </g>
    </g>
   </g>
   <g id="line2d_13">
    <path clip-path="url(#pd3ce47b335)" d="M 73.832727 53.570904 
L 77.112066 64.937225 
L 80.391405 78.544048 
L 83.670744 92.321656 
L 86.950083 105.370683 
L 90.229421 117.379878 
L 93.50876 128.453122 
L 96.788099 138.526074 
L 100.067438 147.728939 
L 103.346777 156.242713 
L 106.626116 164.062193 
L 109.905455 171.292639 
L 113.184793 178.017457 
L 116.464132 184.307402 
L 119.743471 190.149479 
L 123.02281 195.624797 
L 126.302149 200.746665 
L 129.581488 205.518664 
L 132.860826 210.006103 
L 136.140165 214.252585 
L 139.419504 218.254287 
L 142.698843 222.023211 
L 145.978182 225.558897 
L 149.257521 228.896601 
L 152.53686 232.066642 
L 155.816198 235.048936 
L 159.095537 237.867511 
L 162.374876 240.536595 
L 165.654215 243.088225 
L 168.933554 245.50147 
L 172.212893 247.799561 
L 175.492231 249.978359 
L 178.77157 252.04885 
L 182.050909 254.00467 
L 185.330248 255.855498 
L 188.609587 257.622288 
L 191.888926 259.3063 
L 195.168264 260.905016 
L 198.447603 262.421243 
L 201.726942 263.853555 
L 205.006281 265.23314 
L 208.28562 266.541488 
L 211.564959 267.787625 
L 214.844298 268.968575 
L 218.123636 270.092177 
L 221.402975 271.157028 
L 224.682314 272.165596 
L 227.961653 273.130124 
L 231.240992 274.043186 
L 234.520331 274.915256 
L 237.799669 275.739005 
L 241.079008 276.534274 
L 244.358347 277.289399 
L 247.637686 278.012754 
L 250.917025 278.694077 
L 254.196364 279.352075 
L 257.475702 279.970001 
L 260.755041 280.561408 
L 264.03438 281.124068 
L 267.313719 281.6642 
L 270.593058 282.181248 
L 273.872397 282.671316 
L 277.151736 283.138372 
L 280.431074 283.583651 
L 283.710413 284.00708 
L 286.989752 284.411393 
L 290.269091 284.795549 
L 293.54843 285.167825 
L 296.827769 285.525025 
L 300.107107 285.862965 
L 303.386446 286.187451 
L 306.665785 286.499669 
L 309.945124 286.800973 
L 313.224463 287.088486 
L 316.503802 287.365618 
L 319.78314 287.630505 
L 323.062479 287.882448 
L 326.341818 288.126695 
L 329.621157 288.356812 
L 332.900496 288.581992 
L 336.179835 288.794565 
L 339.459174 288.998791 
L 342.738512 289.195007 
L 346.017851 289.384326 
L 349.29719 289.564983 
L 352.576529 289.736687 
L 355.855868 289.903286 
L 359.135207 290.062843 
L 362.414545 290.21577 
L 365.693884 290.361268 
L 368.973223 290.502508 
L 372.252562 290.637989 
L 375.531901 290.768654 
L 378.81124 290.895012 
L 382.090579 291.021008 
L 385.369917 291.140518 
L 388.649256 291.254415 
L 391.928595 291.363932 
L 395.207934 291.472215 
L 398.487273 291.575247 
" style="fill:none;stroke:#1f77b4;stroke-linecap:square;stroke-width:1.5;"/>
   </g>
   <g id="line2d_14">
    <path clip-path="url(#pd3ce47b335)" d="M 73.832727 53.571267 
L 77.112066 62.568938 
L 80.391405 73.775243 
L 83.670744 85.573245 
L 86.950083 97.069627 
L 90.229421 107.850665 
L 93.50876 117.879625 
L 96.788099 127.152711 
L 100.067438 135.749433 
L 103.346777 143.74536 
L 106.626116 151.15172 
L 109.905455 158.064262 
L 113.184793 164.529008 
L 116.464132 170.609379 
L 119.743471 176.343657 
L 123.02281 181.718145 
L 126.302149 186.78569 
L 129.581488 191.587428 
L 132.860826 196.084328 
L 136.140165 200.370881 
L 139.419504 204.428333 
L 142.698843 208.275874 
L 145.978182 211.920013 
L 149.257521 215.401739 
L 152.53686 218.71014 
L 155.816198 221.865179 
L 159.095537 224.848029 
L 162.374876 227.683155 
L 165.654215 230.389817 
L 168.933554 232.97121 
L 172.212893 235.434447 
L 175.492231 237.779432 
L 178.77157 240.020272 
L 182.050909 242.16834 
L 185.330248 244.226877 
L 188.609587 246.200313 
L 191.888926 248.105802 
L 195.168264 249.930134 
L 198.447603 251.673187 
L 201.726942 253.335324 
L 205.006281 254.92816 
L 208.28562 256.456801 
L 211.564959 257.913503 
L 214.844298 259.299283 
L 218.123636 260.6357 
L 221.402975 261.91973 
L 224.682314 263.152413 
L 227.961653 264.338832 
L 231.240992 265.474798 
L 234.520331 266.56283 
L 237.799669 267.608928 
L 241.079008 268.614955 
L 244.358347 269.566055 
L 247.637686 270.481947 
L 250.917025 271.358954 
L 254.196364 272.204045 
L 257.475702 273.016978 
L 260.755041 273.792453 
L 264.03438 274.536617 
L 267.313719 275.24042 
L 270.593058 275.919009 
L 273.872397 276.572215 
L 277.151736 277.203088 
L 280.431074 277.805213 
L 283.710413 278.381884 
L 286.989752 278.944423 
L 290.269091 279.479643 
L 293.54843 279.996788 
L 296.827769 280.496946 
L 300.107107 280.97765 
L 303.386446 281.437326 
L 306.665785 281.881346 
L 309.945124 282.3078 
L 313.224463 282.718452 
L 316.503802 283.110618 
L 319.78314 283.485265 
L 323.062479 283.848491 
L 326.341818 284.196472 
L 329.621157 284.531556 
L 332.900496 284.853163 
L 336.179835 285.160686 
L 339.459174 285.458095 
L 342.738512 285.741422 
L 346.017851 286.018263 
L 349.29719 286.285764 
L 352.576529 286.543635 
L 355.855868 286.792674 
L 359.135207 287.0338 
L 362.414545 287.267328 
L 365.693884 287.49033 
L 368.973223 287.703872 
L 372.252562 287.912162 
L 375.531901 288.112419 
L 378.81124 288.305247 
L 382.090579 288.490187 
L 385.369917 288.673603 
L 388.649256 288.850993 
L 391.928595 289.022504 
L 395.207934 289.186755 
L 398.487273 289.34532 
" style="fill:none;stroke:#ff7f0e;stroke-linecap:square;stroke-width:1.5;"/>
   </g>
   <g id="line2d_15">
    <path clip-path="url(#pd3ce47b335)" d="M 73.832727 53.568 
L 77.112066 111.612717 
L 80.391405 155.005819 
L 83.670744 186.523803 
L 86.950083 209.835512 
L 90.229421 227.476486 
L 93.50876 241.018556 
L 96.788099 251.592344 
L 100.067438 259.885414 
L 103.346777 266.446151 
L 106.626116 271.687384 
L 109.905455 275.835432 
L 113.184793 279.179088 
L 116.464132 281.853447 
L 119.743471 284.023582 
L 123.02281 285.80552 
L 126.302149 287.249616 
L 129.581488 288.44068 
L 132.860826 289.430785 
L 136.140165 290.244274 
L 139.419504 290.907135 
L 142.698843 291.463044 
L 145.978182 291.92635 
L 149.257521 292.327832 
L 152.53686 292.668288 
L 155.816198 292.960204 
L 159.095537 293.220712 
L 162.374876 293.457459 
L 165.654215 293.661007 
L 168.933554 293.836437 
L 172.212893 293.988928 
L 175.492231 294.127555 
L 178.77157 294.247356 
L 182.050909 294.35409 
L 185.330248 294.448653 
L 188.609587 294.532303 
L 191.888926 294.607944 
L 195.168264 294.674511 
L 198.447603 294.736601 
L 201.726942 294.794675 
L 205.006281 294.84711 
L 208.28562 294.894876 
L 211.564959 294.937052 
L 214.844298 294.975211 
L 218.123636 295.009498 
L 221.402975 295.041753 
L 224.682314 295.072266 
L 227.961653 295.098641 
L 231.240992 295.123492 
L 234.520331 295.147689 
L 237.799669 295.169055 
L 241.079008 295.189986 
L 244.358347 295.209102 
L 247.637686 295.227322 
L 250.917025 295.244503 
L 254.196364 295.260618 
L 257.475702 295.275693 
L 260.755041 295.289582 
L 264.03438 295.30306 
L 267.313719 295.31528 
L 270.593058 295.32641 
L 273.872397 295.337299 
L 277.151736 295.347268 
L 280.431074 295.356875 
L 283.710413 295.366046 
L 286.989752 295.373716 
L 290.269091 295.381241 
L 293.54843 295.388017 
L 296.827769 295.394332 
L 300.107107 295.400357 
L 303.386446 295.406431 
L 306.665785 295.411706 
L 309.945124 295.416812 
L 313.224463 295.421724 
L 316.503802 295.426563 
L 319.78314 295.431282 
L 323.062479 295.436073 
L 326.341818 295.439896 
L 329.621157 295.443332 
L 332.900496 295.446719 
L 336.179835 295.449671 
L 339.459174 295.452575 
L 342.738512 295.455358 
L 346.017851 295.457874 
L 349.29719 295.460633 
L 352.576529 295.462835 
L 355.855868 295.464843 
L 359.135207 295.467118 
L 362.414545 295.469199 
L 365.693884 295.471497 
L 368.973223 295.473264 
L 372.252562 295.475175 
L 375.531901 295.476797 
L 378.81124 295.478611 
L 382.090579 295.480354 
L 385.369917 295.481951 
L 388.649256 295.483523 
L 391.928595 295.485048 
L 395.207934 295.486451 
L 398.487273 295.488 
" style="fill:none;stroke:#2ca02c;stroke-linecap:square;stroke-width:1.5;"/>
   </g>
   <g id="line2d_16">
    <path clip-path="url(#pd3ce47b335)" d="M 73.832727 53.569355 
L 77.112066 85.141468 
L 80.391405 114.653786 
L 83.670744 139.557799 
L 86.950083 160.186172 
L 90.229421 177.399652 
L 93.50876 191.881885 
L 96.788099 204.288449 
L 100.067438 214.912542 
L 103.346777 224.070327 
L 106.626116 232.041332 
L 109.905455 239.044831 
L 113.184793 245.169701 
L 116.464132 250.544044 
L 119.743471 255.276529 
L 123.02281 259.45717 
L 126.302149 263.130587 
L 129.581488 266.401507 
L 132.860826 269.308668 
L 136.140165 271.887423 
L 139.419504 274.166398 
L 142.698843 276.19164 
L 145.978182 277.999203 
L 149.257521 279.616672 
L 152.53686 281.037586 
L 155.816198 282.311696 
L 159.095537 283.450929 
L 162.374876 284.476217 
L 165.654215 285.391093 
L 168.933554 286.226021 
L 172.212893 286.96883 
L 175.492231 287.637571 
L 178.77157 288.238971 
L 182.050909 288.788952 
L 185.330248 289.276334 
L 188.609587 289.725097 
L 191.888926 290.127958 
L 195.168264 290.492974 
L 198.447603 290.826994 
L 201.726942 291.132315 
L 205.006281 291.409399 
L 208.28562 291.665334 
L 211.564959 291.896781 
L 214.844298 292.112742 
L 218.123636 292.308571 
L 221.402975 292.491091 
L 224.682314 292.661053 
L 227.961653 292.817029 
L 231.240992 292.962382 
L 234.520331 293.09508 
L 237.799669 293.21776 
L 241.079008 293.333278 
L 244.358347 293.438537 
L 247.637686 293.540262 
L 250.917025 293.634704 
L 254.196364 293.722565 
L 257.475702 293.806795 
L 260.755041 293.886501 
L 264.03438 293.962311 
L 267.313719 294.030548 
L 270.593058 294.095881 
L 273.872397 294.158189 
L 277.151736 294.217787 
L 280.431074 294.275473 
L 283.710413 294.330062 
L 286.989752 294.380223 
L 290.269091 294.428085 
L 293.54843 294.474181 
L 296.827769 294.51568 
L 300.107107 294.556912 
L 303.386446 294.596063 
L 306.665785 294.633666 
L 309.945124 294.667977 
L 313.224463 294.700063 
L 316.503802 294.730165 
L 319.78314 294.75925 
L 323.062479 294.787682 
L 326.341818 294.814976 
L 329.621157 294.840649 
L 332.900496 294.865936 
L 336.179835 294.888923 
L 339.459174 294.910822 
L 342.738512 294.930518 
L 346.017851 294.949997 
L 349.29719 294.968919 
L 352.576529 294.987067 
L 355.855868 295.004514 
L 359.135207 295.021428 
L 362.414545 295.037349 
L 365.693884 295.05286 
L 368.973223 295.067741 
L 372.252562 295.082477 
L 375.531901 295.09702 
L 378.81124 295.110014 
L 382.090579 295.122693 
L 385.369917 295.134913 
L 388.649256 295.146673 
L 391.928595 295.158433 
L 395.207934 295.170023 
L 398.487273 295.180718 
" style="fill:none;stroke:#d62728;stroke-linecap:square;stroke-width:1.5;"/>
   </g>
   <g id="line2d_17">
    <path clip-path="url(#pd3ce47b335)" d="M 73.832727 53.569694 
L 77.112066 74.254931 
L 80.391405 96.116495 
L 83.670744 116.072449 
L 86.950083 133.589267 
L 90.229421 148.918914 
L 93.50876 162.30438 
L 96.788099 174.1169 
L 100.067438 184.664385 
L 103.346777 194.055238 
L 106.626116 202.442606 
L 109.905455 209.971985 
L 113.184793 216.789213 
L 116.464132 222.94387 
L 119.743471 228.595393 
L 123.02281 233.710897 
L 126.302149 238.404884 
L 129.581488 242.712513 
L 132.860826 246.644043 
L 136.140165 250.249079 
L 139.419504 253.558351 
L 142.698843 256.60109 
L 145.978182 259.398056 
L 149.257521 261.975819 
L 152.53686 264.336436 
L 155.816198 266.501829 
L 159.095537 268.51715 
L 162.374876 270.366163 
L 165.654215 272.064814 
L 168.933554 273.636719 
L 172.212893 275.068692 
L 175.492231 276.400608 
L 178.77157 277.63513 
L 182.050909 278.772888 
L 185.330248 279.826923 
L 188.609587 280.795468 
L 191.888926 281.69026 
L 195.168264 282.513791 
L 198.447603 283.286024 
L 201.726942 284.001781 
L 205.006281 284.662851 
L 208.28562 285.27964 
L 211.564959 285.851858 
L 214.844298 286.383304 
L 218.123636 286.876275 
L 221.402975 287.342824 
L 224.682314 287.772665 
L 227.961653 288.175695 
L 231.240992 288.549785 
L 234.520331 288.907591 
L 237.799669 289.235416 
L 241.079008 289.542746 
L 244.358347 289.826048 
L 247.637686 290.09246 
L 250.917025 290.338886 
L 254.196364 290.573019 
L 257.475702 290.790795 
L 260.755041 290.996157 
L 264.03438 291.193704 
L 267.313719 291.380967 
L 270.593058 291.5533 
L 273.872397 291.718907 
L 277.151736 291.875124 
L 280.431074 292.019437 
L 283.710413 292.156345 
L 286.989752 292.284954 
L 290.269091 292.409062 
L 293.54843 292.524556 
L 296.827769 292.636565 
L 300.107107 292.742598 
L 303.386446 292.843888 
L 306.665785 292.939443 
L 309.945124 293.03086 
L 313.224463 293.11768 
L 316.503802 293.198983 
L 319.78314 293.276729 
L 323.062479 293.351838 
L 326.341818 293.423026 
L 329.621157 293.492109 
L 332.900496 293.558797 
L 336.179835 293.621734 
L 339.459174 293.682494 
L 342.738512 293.739188 
L 346.017851 293.794987 
L 349.29719 293.848245 
L 352.576529 293.900512 
L 355.855868 293.949801 
L 359.135207 293.997398 
L 362.414545 294.042961 
L 365.693884 294.087726 
L 368.973223 294.131789 
L 372.252562 294.174425 
L 375.531901 294.215512 
L 378.81124 294.254034 
L 382.090579 294.289459 
L 385.369917 294.324884 
L 388.649256 294.359801 
L 391.928595 294.393144 
L 395.207934 294.425278 
L 398.487273 294.456929 
" style="fill:none;stroke:#9467bd;stroke-linecap:square;stroke-width:1.5;"/>
   </g>
   <g id="line2d_18">
    <path clip-path="url(#pd3ce47b335)" d="M 73.832727 53.57042 
L 77.112066 68.440294 
L 80.391405 85.422859 
L 83.670744 101.872938 
L 86.950083 116.864911 
L 90.229421 130.40645 
L 93.50876 142.546989 
L 96.788099 153.493439 
L 100.067438 163.388564 
L 103.346777 172.419846 
L 106.626116 180.619636 
L 109.905455 188.14916 
L 113.184793 195.034358 
L 116.464132 201.391233 
L 119.743471 207.244198 
L 123.02281 212.674146 
L 126.302149 217.69712 
L 129.581488 222.37533 
L 132.860826 226.726611 
L 136.140165 230.784233 
L 139.419504 234.544761 
L 142.698843 238.07101 
L 145.978182 241.385533 
L 149.257521 244.485401 
L 152.53686 247.385182 
L 155.816198 250.097579 
L 159.095537 252.651533 
L 162.374876 255.025337 
L 165.654215 257.244206 
L 168.933554 259.321714 
L 172.212893 261.292246 
L 175.492231 263.149558 
L 178.77157 264.887312 
L 182.050909 266.522372 
L 185.330248 268.052683 
L 188.609587 269.497746 
L 191.888926 270.846746 
L 195.168264 272.122839 
L 198.447603 273.321017 
L 201.726942 274.446893 
L 205.006281 275.504558 
L 208.28562 276.502551 
L 211.564959 277.440342 
L 214.844298 278.321826 
L 218.123636 279.150729 
L 221.402975 279.936028 
L 224.682314 280.670973 
L 227.961653 281.360015 
L 231.240992 282.009665 
L 234.520331 282.622316 
L 237.799669 283.198019 
L 241.079008 283.744103 
L 244.358347 284.260014 
L 247.637686 284.748703 
L 250.917025 285.213074 
L 254.196364 285.65165 
L 257.475702 286.066004 
L 260.755041 286.459743 
L 264.03438 286.835334 
L 267.313719 287.190913 
L 270.593058 287.528877 
L 273.872397 287.848378 
L 277.151736 288.15099 
L 280.431074 288.436566 
L 283.710413 288.70852 
L 286.989752 288.967649 
L 290.269091 289.214655 
L 293.54843 289.447336 
L 296.827769 289.669346 
L 300.107107 289.878798 
L 303.386446 290.074821 
L 306.665785 290.262398 
L 309.945124 290.441095 
L 313.224463 290.615267 
L 316.503802 290.77918 
L 319.78314 290.937309 
L 323.062479 291.088567 
L 326.341818 291.232928 
L 329.621157 291.373659 
L 332.900496 291.50718 
L 336.179835 291.634071 
L 339.459174 291.756122 
L 342.738512 291.873915 
L 346.017851 291.984835 
L 349.29719 292.091327 
L 352.576529 292.192085 
L 355.855868 292.290181 
L 359.135207 292.384163 
L 362.414545 292.475121 
L 365.693884 292.559981 
L 368.973223 292.641961 
L 372.252562 292.720723 
L 375.531901 292.79709 
L 378.81124 292.869537 
L 382.090579 292.938983 
L 385.369917 293.00659 
L 388.649256 293.070084 
L 391.928595 293.132973 
L 395.207934 293.194966 
L 398.487273 293.25425 
" style="fill:none;stroke:#8c564b;stroke-linecap:square;stroke-width:1.5;"/>
   </g>
   <g id="patch_3">
    <path d="M 57.6 307.584 
L 57.6 41.472 
" style="fill:none;stroke:#000000;stroke-linecap:square;stroke-linejoin:miter;stroke-width:0.8;"/>
   </g>
   <g id="patch_4">
    <path d="M 414.72 307.584 
L 414.72 41.472 
" style="fill:none;stroke:#000000;stroke-linecap:square;stroke-linejoin:miter;stroke-width:0.8;"/>
   </g>
   <g id="patch_5">
    <path d="M 57.6 307.584 
L 414.72 307.584 
" style="fill:none;stroke:#000000;stroke-linecap:square;stroke-linejoin:miter;stroke-width:0.8;"/>
   </g>
   <g id="patch_6">
    <path d="M 57.6 41.472 
L 414.72 41.472 
" style="fill:none;stroke:#000000;stroke-linecap:square;stroke-linejoin:miter;stroke-width:0.8;"/>
   </g>
   <g id="legend_1">
    <g id="patch_7">
     <path d="M 251.0075 139.2095 
L 407.72 139.2095 
Q 409.72 139.2095 409.72 137.2095 
L 409.72 48.472 
Q 409.72 46.472 407.72 46.472 
L 251.0075 46.472 
Q 249.0075 46.472 249.0075 48.472 
L 249.0075 137.2095 
Q 249.0075 139.2095 251.0075 139.2095 
z
" style="fill:#ffffff;opacity:0.8;stroke:#cccccc;stroke-linejoin:miter;"/>
    </g>
    <g id="line2d_19">
     <path d="M 253.0075 54.570438 
L 273.0075 54.570438 
" style="fill:none;stroke:#1f77b4;stroke-linecap:square;stroke-width:1.5;"/>
    </g>
    <g id="line2d_20"/>
    <g id="text_15">
     <!-- sample-1-2_100_Shorten -->
     <defs>
      <path d="M 44.28125 53.078125 
L 44.28125 44.578125 
Q 40.484375 46.53125 36.375 47.5 
Q 32.28125 48.484375 27.875 48.484375 
Q 21.1875 48.484375 17.84375 46.4375 
Q 14.5 44.390625 14.5 40.28125 
Q 14.5 37.15625 16.890625 35.375 
Q 19.28125 33.59375 26.515625 31.984375 
L 29.59375 31.296875 
Q 39.15625 29.25 43.1875 25.515625 
Q 47.21875 21.78125 47.21875 15.09375 
Q 47.21875 7.46875 41.1875 3.015625 
Q 35.15625 -1.421875 24.609375 -1.421875 
Q 20.21875 -1.421875 15.453125 -0.5625 
Q 10.6875 0.296875 5.421875 2 
L 5.421875 11.28125 
Q 10.40625 8.6875 15.234375 7.390625 
Q 20.0625 6.109375 24.8125 6.109375 
Q 31.15625 6.109375 34.5625 8.28125 
Q 37.984375 10.453125 37.984375 14.40625 
Q 37.984375 18.0625 35.515625 20.015625 
Q 33.0625 21.96875 24.703125 23.78125 
L 21.578125 24.515625 
Q 13.234375 26.265625 9.515625 29.90625 
Q 5.8125 33.546875 5.8125 39.890625 
Q 5.8125 47.609375 11.28125 51.796875 
Q 16.75 56 26.8125 56 
Q 31.78125 56 36.171875 55.265625 
Q 40.578125 54.546875 44.28125 53.078125 
z
" id="DejaVuSans-115"/>
      <path d="M 34.28125 27.484375 
Q 23.390625 27.484375 19.1875 25 
Q 14.984375 22.515625 14.984375 16.5 
Q 14.984375 11.71875 18.140625 8.90625 
Q 21.296875 6.109375 26.703125 6.109375 
Q 34.1875 6.109375 38.703125 11.40625 
Q 43.21875 16.703125 43.21875 25.484375 
L 43.21875 27.484375 
z
M 52.203125 31.203125 
L 52.203125 0 
L 43.21875 0 
L 43.21875 8.296875 
Q 40.140625 3.328125 35.546875 0.953125 
Q 30.953125 -1.421875 24.3125 -1.421875 
Q 15.921875 -1.421875 10.953125 3.296875 
Q 6 8.015625 6 15.921875 
Q 6 25.140625 12.171875 29.828125 
Q 18.359375 34.515625 30.609375 34.515625 
L 43.21875 34.515625 
L 43.21875 35.40625 
Q 43.21875 41.609375 39.140625 45 
Q 35.0625 48.390625 27.6875 48.390625 
Q 23 48.390625 18.546875 47.265625 
Q 14.109375 46.140625 10.015625 43.890625 
L 10.015625 52.203125 
Q 14.9375 54.109375 19.578125 55.046875 
Q 24.21875 56 28.609375 56 
Q 40.484375 56 46.34375 49.84375 
Q 52.203125 43.703125 52.203125 31.203125 
z
" id="DejaVuSans-97"/>
      <path d="M 9.421875 75.984375 
L 18.40625 75.984375 
L 18.40625 0 
L 9.421875 0 
z
" id="DejaVuSans-108"/>
      <path d="M 4.890625 31.390625 
L 31.203125 31.390625 
L 31.203125 23.390625 
L 4.890625 23.390625 
z
" id="DejaVuSans-45"/>
      <path d="M 50.984375 -16.609375 
L 50.984375 -23.578125 
L -0.984375 -23.578125 
L -0.984375 -16.609375 
z
" id="DejaVuSans-95"/>
      <path d="M 53.515625 70.515625 
L 53.515625 60.890625 
Q 47.90625 63.578125 42.921875 64.890625 
Q 37.9375 66.21875 33.296875 66.21875 
Q 25.25 66.21875 20.875 63.09375 
Q 16.5 59.96875 16.5 54.203125 
Q 16.5 49.359375 19.40625 46.890625 
Q 22.3125 44.4375 30.421875 42.921875 
L 36.375 41.703125 
Q 47.40625 39.59375 52.65625 34.296875 
Q 57.90625 29 57.90625 20.125 
Q 57.90625 9.515625 50.796875 4.046875 
Q 43.703125 -1.421875 29.984375 -1.421875 
Q 24.8125 -1.421875 18.96875 -0.25 
Q 13.140625 0.921875 6.890625 3.21875 
L 6.890625 13.375 
Q 12.890625 10.015625 18.65625 8.296875 
Q 24.421875 6.59375 29.984375 6.59375 
Q 38.421875 6.59375 43.015625 9.90625 
Q 47.609375 13.234375 47.609375 19.390625 
Q 47.609375 24.75 44.3125 27.78125 
Q 41.015625 30.8125 33.5 32.328125 
L 27.484375 33.5 
Q 16.453125 35.6875 11.515625 40.375 
Q 6.59375 45.0625 6.59375 53.421875 
Q 6.59375 63.09375 13.40625 68.65625 
Q 20.21875 74.21875 32.171875 74.21875 
Q 37.3125 74.21875 42.625 73.28125 
Q 47.953125 72.359375 53.515625 70.515625 
z
" id="DejaVuSans-83"/>
      <path d="M 54.890625 33.015625 
L 54.890625 0 
L 45.90625 0 
L 45.90625 32.71875 
Q 45.90625 40.484375 42.875 44.328125 
Q 39.84375 48.1875 33.796875 48.1875 
Q 26.515625 48.1875 22.3125 43.546875 
Q 18.109375 38.921875 18.109375 30.90625 
L 18.109375 0 
L 9.078125 0 
L 9.078125 54.6875 
L 18.109375 54.6875 
L 18.109375 46.1875 
Q 21.34375 51.125 25.703125 53.5625 
Q 30.078125 56 35.796875 56 
Q 45.21875 56 50.046875 50.171875 
Q 54.890625 44.34375 54.890625 33.015625 
z
" id="DejaVuSans-110"/>
     </defs>
     <g transform="translate(281.0075 58.070438)scale(0.1 -0.1)">
      <use xlink:href="#DejaVuSans-115"/>
      <use x="52.099609" xlink:href="#DejaVuSans-97"/>
      <use x="113.378906" xlink:href="#DejaVuSans-109"/>
      <use x="210.791016" xlink:href="#DejaVuSans-112"/>
      <use x="274.267578" xlink:href="#DejaVuSans-108"/>
      <use x="302.050781" xlink:href="#DejaVuSans-101"/>
      <use x="363.574219" xlink:href="#DejaVuSans-45"/>
      <use x="399.658203" xlink:href="#DejaVuSans-49"/>
      <use x="463.28125" xlink:href="#DejaVuSans-45"/>
      <use x="499.365234" xlink:href="#DejaVuSans-50"/>
      <use x="562.988281" xlink:href="#DejaVuSans-95"/>
      <use x="612.988281" xlink:href="#DejaVuSans-49"/>
      <use x="676.611328" xlink:href="#DejaVuSans-48"/>
      <use x="740.234375" xlink:href="#DejaVuSans-48"/>
      <use x="803.857422" xlink:href="#DejaVuSans-95"/>
      <use x="853.857422" xlink:href="#DejaVuSans-83"/>
      <use x="917.333984" xlink:href="#DejaVuSans-104"/>
      <use x="980.712891" xlink:href="#DejaVuSans-111"/>
      <use x="1041.894531" xlink:href="#DejaVuSans-114"/>
      <use x="1083.007812" xlink:href="#DejaVuSans-116"/>
      <use x="1122.216797" xlink:href="#DejaVuSans-101"/>
      <use x="1183.740234" xlink:href="#DejaVuSans-110"/>
     </g>
    </g>
    <g id="line2d_21">
     <path d="M 253.0075 69.526688 
L 273.0075 69.526688 
" style="fill:none;stroke:#ff7f0e;stroke-linecap:square;stroke-width:1.5;"/>
    </g>
    <g id="line2d_22"/>
    <g id="text_16">
     <!-- sample-1-2_120_Shorten -->
     <g transform="translate(281.0075 73.026688)scale(0.1 -0.1)">
      <use xlink:href="#DejaVuSans-115"/>
      <use x="52.099609" xlink:href="#DejaVuSans-97"/>
      <use x="113.378906" xlink:href="#DejaVuSans-109"/>
      <use x="210.791016" xlink:href="#DejaVuSans-112"/>
      <use x="274.267578" xlink:href="#DejaVuSans-108"/>
      <use x="302.050781" xlink:href="#DejaVuSans-101"/>
      <use x="363.574219" xlink:href="#DejaVuSans-45"/>
      <use x="399.658203" xlink:href="#DejaVuSans-49"/>
      <use x="463.28125" xlink:href="#DejaVuSans-45"/>
      <use x="499.365234" xlink:href="#DejaVuSans-50"/>
      <use x="562.988281" xlink:href="#DejaVuSans-95"/>
      <use x="612.988281" xlink:href="#DejaVuSans-49"/>
      <use x="676.611328" xlink:href="#DejaVuSans-50"/>
      <use x="740.234375" xlink:href="#DejaVuSans-48"/>
      <use x="803.857422" xlink:href="#DejaVuSans-95"/>
      <use x="853.857422" xlink:href="#DejaVuSans-83"/>
      <use x="917.333984" xlink:href="#DejaVuSans-104"/>
      <use x="980.712891" xlink:href="#DejaVuSans-111"/>
      <use x="1041.894531" xlink:href="#DejaVuSans-114"/>
      <use x="1083.007812" xlink:href="#DejaVuSans-116"/>
      <use x="1122.216797" xlink:href="#DejaVuSans-101"/>
      <use x="1183.740234" xlink:href="#DejaVuSans-110"/>
     </g>
    </g>
    <g id="line2d_23">
     <path d="M 253.0075 84.482938 
L 273.0075 84.482938 
" style="fill:none;stroke:#2ca02c;stroke-linecap:square;stroke-width:1.5;"/>
    </g>
    <g id="line2d_24"/>
    <g id="text_17">
     <!-- sample-1-2_20_Shorten -->
     <g transform="translate(281.0075 87.982938)scale(0.1 -0.1)">
      <use xlink:href="#DejaVuSans-115"/>
      <use x="52.099609" xlink:href="#DejaVuSans-97"/>
      <use x="113.378906" xlink:href="#DejaVuSans-109"/>
      <use x="210.791016" xlink:href="#DejaVuSans-112"/>
      <use x="274.267578" xlink:href="#DejaVuSans-108"/>
      <use x="302.050781" xlink:href="#DejaVuSans-101"/>
      <use x="363.574219" xlink:href="#DejaVuSans-45"/>
      <use x="399.658203" xlink:href="#DejaVuSans-49"/>
      <use x="463.28125" xlink:href="#DejaVuSans-45"/>
      <use x="499.365234" xlink:href="#DejaVuSans-50"/>
      <use x="562.988281" xlink:href="#DejaVuSans-95"/>
      <use x="612.988281" xlink:href="#DejaVuSans-50"/>
      <use x="676.611328" xlink:href="#DejaVuSans-48"/>
      <use x="740.234375" xlink:href="#DejaVuSans-95"/>
      <use x="790.234375" xlink:href="#DejaVuSans-83"/>
      <use x="853.710938" xlink:href="#DejaVuSans-104"/>
      <use x="917.089844" xlink:href="#DejaVuSans-111"/>
      <use x="978.271484" xlink:href="#DejaVuSans-114"/>
      <use x="1019.384766" xlink:href="#DejaVuSans-116"/>
      <use x="1058.59375" xlink:href="#DejaVuSans-101"/>
      <use x="1120.117188" xlink:href="#DejaVuSans-110"/>
     </g>
    </g>
    <g id="line2d_25">
     <path d="M 253.0075 99.439188 
L 273.0075 99.439188 
" style="fill:none;stroke:#d62728;stroke-linecap:square;stroke-width:1.5;"/>
    </g>
    <g id="line2d_26"/>
    <g id="text_18">
     <!-- sample-1-2_40_Shorten -->
     <g transform="translate(281.0075 102.939188)scale(0.1 -0.1)">
      <use xlink:href="#DejaVuSans-115"/>
      <use x="52.099609" xlink:href="#DejaVuSans-97"/>
      <use x="113.378906" xlink:href="#DejaVuSans-109"/>
      <use x="210.791016" xlink:href="#DejaVuSans-112"/>
      <use x="274.267578" xlink:href="#DejaVuSans-108"/>
      <use x="302.050781" xlink:href="#DejaVuSans-101"/>
      <use x="363.574219" xlink:href="#DejaVuSans-45"/>
      <use x="399.658203" xlink:href="#DejaVuSans-49"/>
      <use x="463.28125" xlink:href="#DejaVuSans-45"/>
      <use x="499.365234" xlink:href="#DejaVuSans-50"/>
      <use x="562.988281" xlink:href="#DejaVuSans-95"/>
      <use x="612.988281" xlink:href="#DejaVuSans-52"/>
      <use x="676.611328" xlink:href="#DejaVuSans-48"/>
      <use x="740.234375" xlink:href="#DejaVuSans-95"/>
      <use x="790.234375" xlink:href="#DejaVuSans-83"/>
      <use x="853.710938" xlink:href="#DejaVuSans-104"/>
      <use x="917.089844" xlink:href="#DejaVuSans-111"/>
      <use x="978.271484" xlink:href="#DejaVuSans-114"/>
      <use x="1019.384766" xlink:href="#DejaVuSans-116"/>
      <use x="1058.59375" xlink:href="#DejaVuSans-101"/>
      <use x="1120.117188" xlink:href="#DejaVuSans-110"/>
     </g>
    </g>
    <g id="line2d_27">
     <path d="M 253.0075 114.395438 
L 273.0075 114.395438 
" style="fill:none;stroke:#9467bd;stroke-linecap:square;stroke-width:1.5;"/>
    </g>
    <g id="line2d_28"/>
    <g id="text_19">
     <!-- sample-1-2_60_Shorten -->
     <g transform="translate(281.0075 117.895438)scale(0.1 -0.1)">
      <use xlink:href="#DejaVuSans-115"/>
      <use x="52.099609" xlink:href="#DejaVuSans-97"/>
      <use x="113.378906" xlink:href="#DejaVuSans-109"/>
      <use x="210.791016" xlink:href="#DejaVuSans-112"/>
      <use x="274.267578" xlink:href="#DejaVuSans-108"/>
      <use x="302.050781" xlink:href="#DejaVuSans-101"/>
      <use x="363.574219" xlink:href="#DejaVuSans-45"/>
      <use x="399.658203" xlink:href="#DejaVuSans-49"/>
      <use x="463.28125" xlink:href="#DejaVuSans-45"/>
      <use x="499.365234" xlink:href="#DejaVuSans-50"/>
      <use x="562.988281" xlink:href="#DejaVuSans-95"/>
      <use x="612.988281" xlink:href="#DejaVuSans-54"/>
      <use x="676.611328" xlink:href="#DejaVuSans-48"/>
      <use x="740.234375" xlink:href="#DejaVuSans-95"/>
      <use x="790.234375" xlink:href="#DejaVuSans-83"/>
      <use x="853.710938" xlink:href="#DejaVuSans-104"/>
      <use x="917.089844" xlink:href="#DejaVuSans-111"/>
      <use x="978.271484" xlink:href="#DejaVuSans-114"/>
      <use x="1019.384766" xlink:href="#DejaVuSans-116"/>
      <use x="1058.59375" xlink:href="#DejaVuSans-101"/>
      <use x="1120.117188" xlink:href="#DejaVuSans-110"/>
     </g>
    </g>
    <g id="line2d_29">
     <path d="M 253.0075 129.351688 
L 273.0075 129.351688 
" style="fill:none;stroke:#8c564b;stroke-linecap:square;stroke-width:1.5;"/>
    </g>
    <g id="line2d_30"/>
    <g id="text_20">
     <!-- sample-1-2_80_Shorten -->
     <g transform="translate(281.0075 132.851688)scale(0.1 -0.1)">
      <use xlink:href="#DejaVuSans-115"/>
      <use x="52.099609" xlink:href="#DejaVuSans-97"/>
      <use x="113.378906" xlink:href="#DejaVuSans-109"/>
      <use x="210.791016" xlink:href="#DejaVuSans-112"/>
      <use x="274.267578" xlink:href="#DejaVuSans-108"/>
      <use x="302.050781" xlink:href="#DejaVuSans-101"/>
      <use x="363.574219" xlink:href="#DejaVuSans-45"/>
      <use x="399.658203" xlink:href="#DejaVuSans-49"/>
      <use x="463.28125" xlink:href="#DejaVuSans-45"/>
      <use x="499.365234" xlink:href="#DejaVuSans-50"/>
      <use x="562.988281" xlink:href="#DejaVuSans-95"/>
      <use x="612.988281" xlink:href="#DejaVuSans-56"/>
      <use x="676.611328" xlink:href="#DejaVuSans-48"/>
      <use x="740.234375" xlink:href="#DejaVuSans-95"/>
      <use x="790.234375" xlink:href="#DejaVuSans-83"/>
      <use x="853.710938" xlink:href="#DejaVuSans-104"/>
      <use x="917.089844" xlink:href="#DejaVuSans-111"/>
      <use x="978.271484" xlink:href="#DejaVuSans-114"/>
      <use x="1019.384766" xlink:href="#DejaVuSans-116"/>
      <use x="1058.59375" xlink:href="#DejaVuSans-101"/>
      <use x="1120.117188" xlink:href="#DejaVuSans-110"/>
     </g>
    </g>
   </g>
  </g>
  <g id="text_21">
   <!-- Cumulative coverage (20-120M) -->
   <defs>
    <path d="M 64.40625 67.28125 
L 64.40625 56.890625 
Q 59.421875 61.53125 53.78125 63.8125 
Q 48.140625 66.109375 41.796875 66.109375 
Q 29.296875 66.109375 22.65625 58.46875 
Q 16.015625 50.828125 16.015625 36.375 
Q 16.015625 21.96875 22.65625 14.328125 
Q 29.296875 6.6875 41.796875 6.6875 
Q 48.140625 6.6875 53.78125 8.984375 
Q 59.421875 11.28125 64.40625 15.921875 
L 64.40625 5.609375 
Q 59.234375 2.09375 53.4375 0.328125 
Q 47.65625 -1.421875 41.21875 -1.421875 
Q 24.65625 -1.421875 15.125 8.703125 
Q 5.609375 18.84375 5.609375 36.375 
Q 5.609375 53.953125 15.125 64.078125 
Q 24.65625 74.21875 41.21875 74.21875 
Q 47.75 74.21875 53.53125 72.484375 
Q 59.328125 70.75 64.40625 67.28125 
z
" id="DejaVuSans-67"/>
    <path d="M 8.5 21.578125 
L 8.5 54.6875 
L 17.484375 54.6875 
L 17.484375 21.921875 
Q 17.484375 14.15625 20.5 10.265625 
Q 23.53125 6.390625 29.59375 6.390625 
Q 36.859375 6.390625 41.078125 11.03125 
Q 45.3125 15.671875 45.3125 23.6875 
L 45.3125 54.6875 
L 54.296875 54.6875 
L 54.296875 0 
L 45.3125 0 
L 45.3125 8.40625 
Q 42.046875 3.421875 37.71875 1 
Q 33.40625 -1.421875 27.6875 -1.421875 
Q 18.265625 -1.421875 13.375 4.4375 
Q 8.5 10.296875 8.5 21.578125 
z
M 31.109375 56 
z
" id="DejaVuSans-117"/>
    <path d="M 2.984375 54.6875 
L 12.5 54.6875 
L 29.59375 8.796875 
L 46.6875 54.6875 
L 56.203125 54.6875 
L 35.6875 0 
L 23.484375 0 
z
" id="DejaVuSans-118"/>
    <path d="M 48.78125 52.59375 
L 48.78125 44.1875 
Q 44.96875 46.296875 41.140625 47.34375 
Q 37.3125 48.390625 33.40625 48.390625 
Q 24.65625 48.390625 19.8125 42.84375 
Q 14.984375 37.3125 14.984375 27.296875 
Q 14.984375 17.28125 19.8125 11.734375 
Q 24.65625 6.203125 33.40625 6.203125 
Q 37.3125 6.203125 41.140625 7.25 
Q 44.96875 8.296875 48.78125 10.40625 
L 48.78125 2.09375 
Q 45.015625 0.34375 40.984375 -0.53125 
Q 36.96875 -1.421875 32.421875 -1.421875 
Q 20.0625 -1.421875 12.78125 6.34375 
Q 5.515625 14.109375 5.515625 27.296875 
Q 5.515625 40.671875 12.859375 48.328125 
Q 20.21875 56 33.015625 56 
Q 37.15625 56 41.109375 55.140625 
Q 45.0625 54.296875 48.78125 52.59375 
z
" id="DejaVuSans-99"/>
    <path d="M 45.40625 27.984375 
Q 45.40625 37.75 41.375 43.109375 
Q 37.359375 48.484375 30.078125 48.484375 
Q 22.859375 48.484375 18.828125 43.109375 
Q 14.796875 37.75 14.796875 27.984375 
Q 14.796875 18.265625 18.828125 12.890625 
Q 22.859375 7.515625 30.078125 7.515625 
Q 37.359375 7.515625 41.375 12.890625 
Q 45.40625 18.265625 45.40625 27.984375 
z
M 54.390625 6.78125 
Q 54.390625 -7.171875 48.1875 -13.984375 
Q 42 -20.796875 29.203125 -20.796875 
Q 24.46875 -20.796875 20.265625 -20.09375 
Q 16.0625 -19.390625 12.109375 -17.921875 
L 12.109375 -9.1875 
Q 16.0625 -11.328125 19.921875 -12.34375 
Q 23.78125 -13.375 27.78125 -13.375 
Q 36.625 -13.375 41.015625 -8.765625 
Q 45.40625 -4.15625 45.40625 5.171875 
L 45.40625 9.625 
Q 42.625 4.78125 38.28125 2.390625 
Q 33.9375 0 27.875 0 
Q 17.828125 0 11.671875 7.65625 
Q 5.515625 15.328125 5.515625 27.984375 
Q 5.515625 40.671875 11.671875 48.328125 
Q 17.828125 56 27.875 56 
Q 33.9375 56 38.28125 53.609375 
Q 42.625 51.21875 45.40625 46.390625 
L 45.40625 54.6875 
L 54.390625 54.6875 
z
" id="DejaVuSans-103"/>
    <path d="M 31 75.875 
Q 24.46875 64.65625 21.28125 53.65625 
Q 18.109375 42.671875 18.109375 31.390625 
Q 18.109375 20.125 21.3125 9.0625 
Q 24.515625 -2 31 -13.1875 
L 23.1875 -13.1875 
Q 15.875 -1.703125 12.234375 9.375 
Q 8.59375 20.453125 8.59375 31.390625 
Q 8.59375 42.28125 12.203125 53.3125 
Q 15.828125 64.359375 23.1875 75.875 
z
" id="DejaVuSans-40"/>
    <path d="M 9.8125 72.90625 
L 24.515625 72.90625 
L 43.109375 23.296875 
L 61.8125 72.90625 
L 76.515625 72.90625 
L 76.515625 0 
L 66.890625 0 
L 66.890625 64.015625 
L 48.09375 14.015625 
L 38.1875 14.015625 
L 19.390625 64.015625 
L 19.390625 0 
L 9.8125 0 
z
" id="DejaVuSans-77"/>
    <path d="M 8.015625 75.875 
L 15.828125 75.875 
Q 23.140625 64.359375 26.78125 53.3125 
Q 30.421875 42.28125 30.421875 31.390625 
Q 30.421875 20.453125 26.78125 9.375 
Q 23.140625 -1.703125 15.828125 -13.1875 
L 8.015625 -13.1875 
Q 14.5 -2 17.703125 9.0625 
Q 20.90625 20.125 20.90625 31.390625 
Q 20.90625 42.671875 17.703125 53.65625 
Q 14.5 64.65625 8.015625 75.875 
z
" id="DejaVuSans-41"/>
   </defs>
   <g transform="translate(133.3725 16.030125)scale(0.12 -0.12)">
    <use xlink:href="#DejaVuSans-67"/>
    <use x="69.824219" xlink:href="#DejaVuSans-117"/>
    <use x="133.203125" xlink:href="#DejaVuSans-109"/>
    <use x="230.615234" xlink:href="#DejaVuSans-117"/>
    <use x="293.994141" xlink:href="#DejaVuSans-108"/>
    <use x="321.777344" xlink:href="#DejaVuSans-97"/>
    <use x="383.056641" xlink:href="#DejaVuSans-116"/>
    <use x="422.265625" xlink:href="#DejaVuSans-105"/>
    <use x="450.048828" xlink:href="#DejaVuSans-118"/>
    <use x="509.228516" xlink:href="#DejaVuSans-101"/>
    <use x="570.751953" xlink:href="#DejaVuSans-32"/>
    <use x="602.539062" xlink:href="#DejaVuSans-99"/>
    <use x="657.519531" xlink:href="#DejaVuSans-111"/>
    <use x="718.701172" xlink:href="#DejaVuSans-118"/>
    <use x="777.880859" xlink:href="#DejaVuSans-101"/>
    <use x="839.404297" xlink:href="#DejaVuSans-114"/>
    <use x="880.517578" xlink:href="#DejaVuSans-97"/>
    <use x="941.796875" xlink:href="#DejaVuSans-103"/>
    <use x="1005.273438" xlink:href="#DejaVuSans-101"/>
    <use x="1066.796875" xlink:href="#DejaVuSans-32"/>
    <use x="1098.583984" xlink:href="#DejaVuSans-40"/>
    <use x="1137.597656" xlink:href="#DejaVuSans-50"/>
    <use x="1201.220703" xlink:href="#DejaVuSans-48"/>
    <use x="1264.84375" xlink:href="#DejaVuSans-45"/>
    <use x="1300.927734" xlink:href="#DejaVuSans-49"/>
    <use x="1364.550781" xlink:href="#DejaVuSans-50"/>
    <use x="1428.173828" xlink:href="#DejaVuSans-48"/>
    <use x="1491.796875" xlink:href="#DejaVuSans-77"/>
    <use x="1578.076172" xlink:href="#DejaVuSans-41"/>
   </g>
  </g>
 </g>
 <defs>
  <clipPath id="pd3ce47b335">
   <rect height="266.112" width="357.12" x="57.6" y="41.472"/>
  </clipPath>
 </defs>
</svg>
