<?xml version="1.0" encoding="utf-8" standalone="no"?>
<!DOCTYPE svg PUBLIC "-//W3C//DTD SVG 1.1//EN"
  "http://www.w3.org/Graphics/SVG/1.1/DTD/svg11.dtd">
<!-- Created with matplotlib (https://matplotlib.org/) -->
<svg height="345.6pt" version="1.1" viewBox="0 0 460.8 345.6" width="460.8pt" xmlns="http://www.w3.org/2000/svg" xmlns:xlink="http://www.w3.org/1999/xlink">
 <defs>
  <style type="text/css">
*{stroke-linecap:butt;stroke-linejoin:round;}
  </style>
 </defs>
 <g id="figure_1">
  <g id="patch_1">
   <path d="M 0 345.6 
L 460.8 345.6 
L 460.8 0 
L 0 0 
z
" style="fill:#ffffff;"/>
  </g>
  <g id="axes_1">
   <g id="patch_2">
    <path d="M 57.6 307.584 
L 414.72 307.584 
L 414.72 41.472 
L 57.6 41.472 
z
" style="fill:#ffffff;"/>
   </g>
   <g id="matplotlib.axis_1">
    <g id="xtick_1">
     <g id="line2d_1">
      <defs>
       <path d="M 0 0 
L 0 3.5 
" id="m9753b0b3a0" style="stroke:#000000;stroke-width:0.8;"/>
      </defs>
      <g>
       <use style="stroke:#000000;stroke-width:0.8;" x="73.832727" xlink:href="#m9753b0b3a0" y="307.584"/>
      </g>
     </g>
     <g id="text_1">
      <!-- 0 -->
      <defs>
       <path d="M 31.78125 66.40625 
Q 24.171875 66.40625 20.328125 58.90625 
Q 16.5 51.421875 16.5 36.375 
Q 16.5 21.390625 20.328125 13.890625 
Q 24.171875 6.390625 31.78125 6.390625 
Q 39.453125 6.390625 43.28125 13.890625 
Q 47.125 21.390625 47.125 36.375 
Q 47.125 51.421875 43.28125 58.90625 
Q 39.453125 66.40625 31.78125 66.40625 
z
M 31.78125 74.21875 
Q 44.046875 74.21875 50.515625 64.515625 
Q 56.984375 54.828125 56.984375 36.375 
Q 56.984375 17.96875 50.515625 8.265625 
Q 44.046875 -1.421875 31.78125 -1.421875 
Q 19.53125 -1.421875 13.0625 8.265625 
Q 6.59375 17.96875 6.59375 36.375 
Q 6.59375 54.828125 13.0625 64.515625 
Q 19.53125 74.21875 31.78125 74.21875 
z
" id="DejaVuSans-48"/>
      </defs>
      <g transform="translate(70.651477 322.182437)scale(0.1 -0.1)">
       <use xlink:href="#DejaVuSans-48"/>
      </g>
     </g>
    </g>
    <g id="xtick_2">
     <g id="line2d_2">
      <g>
       <use style="stroke:#000000;stroke-width:0.8;" x="139.419504" xlink:href="#m9753b0b3a0" y="307.584"/>
      </g>
     </g>
     <g id="text_2">
      <!-- 20 -->
      <defs>
       <path d="M 19.1875 8.296875 
L 53.609375 8.296875 
L 53.609375 0 
L 7.328125 0 
L 7.328125 8.296875 
Q 12.9375 14.109375 22.625 23.890625 
Q 32.328125 33.6875 34.8125 36.53125 
Q 39.546875 41.84375 41.421875 45.53125 
Q 43.3125 49.21875 43.3125 52.78125 
Q 43.3125 58.59375 39.234375 62.25 
Q 35.15625 65.921875 28.609375 65.921875 
Q 23.96875 65.921875 18.8125 64.3125 
Q 13.671875 62.703125 7.8125 59.421875 
L 7.8125 69.390625 
Q 13.765625 71.78125 18.9375 73 
Q 24.125 74.21875 28.421875 74.21875 
Q 39.75 74.21875 46.484375 68.546875 
Q 53.21875 62.890625 53.21875 53.421875 
Q 53.21875 48.921875 51.53125 44.890625 
Q 49.859375 40.875 45.40625 35.40625 
Q 44.1875 33.984375 37.640625 27.21875 
Q 31.109375 20.453125 19.1875 8.296875 
z
" id="DejaVuSans-50"/>
      </defs>
      <g transform="translate(133.057004 322.182437)scale(0.1 -0.1)">
       <use xlink:href="#DejaVuSans-50"/>
       <use x="63.623047" xlink:href="#DejaVuSans-48"/>
      </g>
     </g>
    </g>
    <g id="xtick_3">
     <g id="line2d_3">
      <g>
       <use style="stroke:#000000;stroke-width:0.8;" x="205.006281" xlink:href="#m9753b0b3a0" y="307.584"/>
      </g>
     </g>
     <g id="text_3">
      <!-- 40 -->
      <defs>
       <path d="M 37.796875 64.3125 
L 12.890625 25.390625 
L 37.796875 25.390625 
z
M 35.203125 72.90625 
L 47.609375 72.90625 
L 47.609375 25.390625 
L 58.015625 25.390625 
L 58.015625 17.1875 
L 47.609375 17.1875 
L 47.609375 0 
L 37.796875 0 
L 37.796875 17.1875 
L 4.890625 17.1875 
L 4.890625 26.703125 
z
" id="DejaVuSans-52"/>
      </defs>
      <g transform="translate(198.643781 322.182437)scale(0.1 -0.1)">
       <use xlink:href="#DejaVuSans-52"/>
       <use x="63.623047" xlink:href="#DejaVuSans-48"/>
      </g>
     </g>
    </g>
    <g id="xtick_4">
     <g id="line2d_4">
      <g>
       <use style="stroke:#000000;stroke-width:0.8;" x="270.593058" xlink:href="#m9753b0b3a0" y="307.584"/>
      </g>
     </g>
     <g id="text_4">
      <!-- 60 -->
      <defs>
       <path d="M 33.015625 40.375 
Q 26.375 40.375 22.484375 35.828125 
Q 18.609375 31.296875 18.609375 23.390625 
Q 18.609375 15.53125 22.484375 10.953125 
Q 26.375 6.390625 33.015625 6.390625 
Q 39.65625 6.390625 43.53125 10.953125 
Q 47.40625 15.53125 47.40625 23.390625 
Q 47.40625 31.296875 43.53125 35.828125 
Q 39.65625 40.375 33.015625 40.375 
z
M 52.59375 71.296875 
L 52.59375 62.3125 
Q 48.875 64.0625 45.09375 64.984375 
Q 41.3125 65.921875 37.59375 65.921875 
Q 27.828125 65.921875 22.671875 59.328125 
Q 17.53125 52.734375 16.796875 39.40625 
Q 19.671875 43.65625 24.015625 45.921875 
Q 28.375 48.1875 33.59375 48.1875 
Q 44.578125 48.1875 50.953125 41.515625 
Q 57.328125 34.859375 57.328125 23.390625 
Q 57.328125 12.15625 50.6875 5.359375 
Q 44.046875 -1.421875 33.015625 -1.421875 
Q 20.359375 -1.421875 13.671875 8.265625 
Q 6.984375 17.96875 6.984375 36.375 
Q 6.984375 53.65625 15.1875 63.9375 
Q 23.390625 74.21875 37.203125 74.21875 
Q 40.921875 74.21875 44.703125 73.484375 
Q 48.484375 72.75 52.59375 71.296875 
z
" id="DejaVuSans-54"/>
      </defs>
      <g transform="translate(264.230558 322.182437)scale(0.1 -0.1)">
       <use xlink:href="#DejaVuSans-54"/>
       <use x="63.623047" xlink:href="#DejaVuSans-48"/>
      </g>
     </g>
    </g>
    <g id="xtick_5">
     <g id="line2d_5">
      <g>
       <use style="stroke:#000000;stroke-width:0.8;" x="336.179835" xlink:href="#m9753b0b3a0" y="307.584"/>
      </g>
     </g>
     <g id="text_5">
      <!-- 80 -->
      <defs>
       <path d="M 31.78125 34.625 
Q 24.75 34.625 20.71875 30.859375 
Q 16.703125 27.09375 16.703125 20.515625 
Q 16.703125 13.921875 20.71875 10.15625 
Q 24.75 6.390625 31.78125 6.390625 
Q 38.8125 6.390625 42.859375 10.171875 
Q 46.921875 13.96875 46.921875 20.515625 
Q 46.921875 27.09375 42.890625 30.859375 
Q 38.875 34.625 31.78125 34.625 
z
M 21.921875 38.8125 
Q 15.578125 40.375 12.03125 44.71875 
Q 8.5 49.078125 8.5 55.328125 
Q 8.5 64.0625 14.71875 69.140625 
Q 20.953125 74.21875 31.78125 74.21875 
Q 42.671875 74.21875 48.875 69.140625 
Q 55.078125 64.0625 55.078125 55.328125 
Q 55.078125 49.078125 51.53125 44.71875 
Q 48 40.375 41.703125 38.8125 
Q 48.828125 37.15625 52.796875 32.3125 
Q 56.78125 27.484375 56.78125 20.515625 
Q 56.78125 9.90625 50.3125 4.234375 
Q 43.84375 -1.421875 31.78125 -1.421875 
Q 19.734375 -1.421875 13.25 4.234375 
Q 6.78125 9.90625 6.78125 20.515625 
Q 6.78125 27.484375 10.78125 32.3125 
Q 14.796875 37.15625 21.921875 38.8125 
z
M 18.3125 54.390625 
Q 18.3125 48.734375 21.84375 45.5625 
Q 25.390625 42.390625 31.78125 42.390625 
Q 38.140625 42.390625 41.71875 45.5625 
Q 45.3125 48.734375 45.3125 54.390625 
Q 45.3125 60.0625 41.71875 63.234375 
Q 38.140625 66.40625 31.78125 66.40625 
Q 25.390625 66.40625 21.84375 63.234375 
Q 18.3125 60.0625 18.3125 54.390625 
z
" id="DejaVuSans-56"/>
      </defs>
      <g transform="translate(329.817335 322.182437)scale(0.1 -0.1)">
       <use xlink:href="#DejaVuSans-56"/>
       <use x="63.623047" xlink:href="#DejaVuSans-48"/>
      </g>
     </g>
    </g>
    <g id="xtick_6">
     <g id="line2d_6">
      <g>
       <use style="stroke:#000000;stroke-width:0.8;" x="401.766612" xlink:href="#m9753b0b3a0" y="307.584"/>
      </g>
     </g>
     <g id="text_6">
      <!-- 100 -->
      <defs>
       <path d="M 12.40625 8.296875 
L 28.515625 8.296875 
L 28.515625 63.921875 
L 10.984375 60.40625 
L 10.984375 69.390625 
L 28.421875 72.90625 
L 38.28125 72.90625 
L 38.28125 8.296875 
L 54.390625 8.296875 
L 54.390625 0 
L 12.40625 0 
z
" id="DejaVuSans-49"/>
      </defs>
      <g transform="translate(392.222862 322.182437)scale(0.1 -0.1)">
       <use xlink:href="#DejaVuSans-49"/>
       <use x="63.623047" xlink:href="#DejaVuSans-48"/>
       <use x="127.246094" xlink:href="#DejaVuSans-48"/>
      </g>
     </g>
    </g>
    <g id="text_7">
     <!-- Depth -->
     <defs>
      <path d="M 19.671875 64.796875 
L 19.671875 8.109375 
L 31.59375 8.109375 
Q 46.6875 8.109375 53.6875 14.9375 
Q 60.6875 21.78125 60.6875 36.53125 
Q 60.6875 51.171875 53.6875 57.984375 
Q 46.6875 64.796875 31.59375 64.796875 
z
M 9.8125 72.90625 
L 30.078125 72.90625 
Q 51.265625 72.90625 61.171875 64.09375 
Q 71.09375 55.28125 71.09375 36.53125 
Q 71.09375 17.671875 61.125 8.828125 
Q 51.171875 0 30.078125 0 
L 9.8125 0 
z
" id="DejaVuSans-68"/>
      <path d="M 56.203125 29.59375 
L 56.203125 25.203125 
L 14.890625 25.203125 
Q 15.484375 15.921875 20.484375 11.0625 
Q 25.484375 6.203125 34.421875 6.203125 
Q 39.59375 6.203125 44.453125 7.46875 
Q 49.3125 8.734375 54.109375 11.28125 
L 54.109375 2.78125 
Q 49.265625 0.734375 44.1875 -0.34375 
Q 39.109375 -1.421875 33.890625 -1.421875 
Q 20.796875 -1.421875 13.15625 6.1875 
Q 5.515625 13.8125 5.515625 26.8125 
Q 5.515625 40.234375 12.765625 48.109375 
Q 20.015625 56 32.328125 56 
Q 43.359375 56 49.78125 48.890625 
Q 56.203125 41.796875 56.203125 29.59375 
z
M 47.21875 32.234375 
Q 47.125 39.59375 43.09375 43.984375 
Q 39.0625 48.390625 32.421875 48.390625 
Q 24.90625 48.390625 20.390625 44.140625 
Q 15.875 39.890625 15.1875 32.171875 
z
" id="DejaVuSans-101"/>
      <path d="M 18.109375 8.203125 
L 18.109375 -20.796875 
L 9.078125 -20.796875 
L 9.078125 54.6875 
L 18.109375 54.6875 
L 18.109375 46.390625 
Q 20.953125 51.265625 25.265625 53.625 
Q 29.59375 56 35.59375 56 
Q 45.5625 56 51.78125 48.09375 
Q 58.015625 40.1875 58.015625 27.296875 
Q 58.015625 14.40625 51.78125 6.484375 
Q 45.5625 -1.421875 35.59375 -1.421875 
Q 29.59375 -1.421875 25.265625 0.953125 
Q 20.953125 3.328125 18.109375 8.203125 
z
M 48.6875 27.296875 
Q 48.6875 37.203125 44.609375 42.84375 
Q 40.53125 48.484375 33.40625 48.484375 
Q 26.265625 48.484375 22.1875 42.84375 
Q 18.109375 37.203125 18.109375 27.296875 
Q 18.109375 17.390625 22.1875 11.75 
Q 26.265625 6.109375 33.40625 6.109375 
Q 40.53125 6.109375 44.609375 11.75 
Q 48.6875 17.390625 48.6875 27.296875 
z
" id="DejaVuSans-112"/>
      <path d="M 18.3125 70.21875 
L 18.3125 54.6875 
L 36.8125 54.6875 
L 36.8125 47.703125 
L 18.3125 47.703125 
L 18.3125 18.015625 
Q 18.3125 11.328125 20.140625 9.421875 
Q 21.96875 7.515625 27.59375 7.515625 
L 36.8125 7.515625 
L 36.8125 0 
L 27.59375 0 
Q 17.1875 0 13.234375 3.875 
Q 9.28125 7.765625 9.28125 18.015625 
L 9.28125 47.703125 
L 2.6875 47.703125 
L 2.6875 54.6875 
L 9.28125 54.6875 
L 9.28125 70.21875 
z
" id="DejaVuSans-116"/>
      <path d="M 54.890625 33.015625 
L 54.890625 0 
L 45.90625 0 
L 45.90625 32.71875 
Q 45.90625 40.484375 42.875 44.328125 
Q 39.84375 48.1875 33.796875 48.1875 
Q 26.515625 48.1875 22.3125 43.546875 
Q 18.109375 38.921875 18.109375 30.90625 
L 18.109375 0 
L 9.078125 0 
L 9.078125 75.984375 
L 18.109375 75.984375 
L 18.109375 46.1875 
Q 21.34375 51.125 25.703125 53.5625 
Q 30.078125 56 35.796875 56 
Q 45.21875 56 50.046875 50.171875 
Q 54.890625 44.34375 54.890625 33.015625 
z
" id="DejaVuSans-104"/>
     </defs>
     <g transform="translate(220.930312 335.860562)scale(0.1 -0.1)">
      <use xlink:href="#DejaVuSans-68"/>
      <use x="77.001953" xlink:href="#DejaVuSans-101"/>
      <use x="138.525391" xlink:href="#DejaVuSans-112"/>
      <use x="202.001953" xlink:href="#DejaVuSans-116"/>
      <use x="241.210938" xlink:href="#DejaVuSans-104"/>
     </g>
    </g>
   </g>
   <g id="matplotlib.axis_2">
    <g id="ytick_1">
     <g id="line2d_7">
      <defs>
       <path d="M 0 0 
L -3.5 0 
" id="m195293a701" style="stroke:#000000;stroke-width:0.8;"/>
      </defs>
      <g>
       <use style="stroke:#000000;stroke-width:0.8;" x="57.6" xlink:href="#m195293a701" y="303.47214"/>
      </g>
     </g>
     <g id="text_8">
      <!-- 0.0 -->
      <defs>
       <path d="M 10.6875 12.40625 
L 21 12.40625 
L 21 0 
L 10.6875 0 
z
" id="DejaVuSans-46"/>
      </defs>
      <g transform="translate(34.696875 307.271359)scale(0.1 -0.1)">
       <use xlink:href="#DejaVuSans-48"/>
       <use x="63.623047" xlink:href="#DejaVuSans-46"/>
       <use x="95.410156" xlink:href="#DejaVuSans-48"/>
      </g>
     </g>
    </g>
    <g id="ytick_2">
     <g id="line2d_8">
      <g>
       <use style="stroke:#000000;stroke-width:0.8;" x="57.6" xlink:href="#m195293a701" y="253.490512"/>
      </g>
     </g>
     <g id="text_9">
      <!-- 0.2 -->
      <g transform="translate(34.696875 257.289731)scale(0.1 -0.1)">
       <use xlink:href="#DejaVuSans-48"/>
       <use x="63.623047" xlink:href="#DejaVuSans-46"/>
       <use x="95.410156" xlink:href="#DejaVuSans-50"/>
      </g>
     </g>
    </g>
    <g id="ytick_3">
     <g id="line2d_9">
      <g>
       <use style="stroke:#000000;stroke-width:0.8;" x="57.6" xlink:href="#m195293a701" y="203.508885"/>
      </g>
     </g>
     <g id="text_10">
      <!-- 0.4 -->
      <g transform="translate(34.696875 207.308103)scale(0.1 -0.1)">
       <use xlink:href="#DejaVuSans-48"/>
       <use x="63.623047" xlink:href="#DejaVuSans-46"/>
       <use x="95.410156" xlink:href="#DejaVuSans-52"/>
      </g>
     </g>
    </g>
    <g id="ytick_4">
     <g id="line2d_10">
      <g>
       <use style="stroke:#000000;stroke-width:0.8;" x="57.6" xlink:href="#m195293a701" y="153.527257"/>
      </g>
     </g>
     <g id="text_11">
      <!-- 0.6 -->
      <g transform="translate(34.696875 157.326476)scale(0.1 -0.1)">
       <use xlink:href="#DejaVuSans-48"/>
       <use x="63.623047" xlink:href="#DejaVuSans-46"/>
       <use x="95.410156" xlink:href="#DejaVuSans-54"/>
      </g>
     </g>
    </g>
    <g id="ytick_5">
     <g id="line2d_11">
      <g>
       <use style="stroke:#000000;stroke-width:0.8;" x="57.6" xlink:href="#m195293a701" y="103.545629"/>
      </g>
     </g>
     <g id="text_12">
      <!-- 0.8 -->
      <g transform="translate(34.696875 107.344848)scale(0.1 -0.1)">
       <use xlink:href="#DejaVuSans-48"/>
       <use x="63.623047" xlink:href="#DejaVuSans-46"/>
       <use x="95.410156" xlink:href="#DejaVuSans-56"/>
      </g>
     </g>
    </g>
    <g id="ytick_6">
     <g id="line2d_12">
      <g>
       <use style="stroke:#000000;stroke-width:0.8;" x="57.6" xlink:href="#m195293a701" y="53.564001"/>
      </g>
     </g>
     <g id="text_13">
      <!-- 1.0 -->
      <g transform="translate(34.696875 57.36322)scale(0.1 -0.1)">
       <use xlink:href="#DejaVuSans-49"/>
       <use x="63.623047" xlink:href="#DejaVuSans-46"/>
       <use x="95.410156" xlink:href="#DejaVuSans-48"/>
      </g>
     </g>
    </g>
    <g id="text_14">
     <!-- % of A with more depth -->
     <defs>
      <path d="M 72.703125 32.078125 
Q 68.453125 32.078125 66.03125 28.46875 
Q 63.625 24.859375 63.625 18.40625 
Q 63.625 12.0625 66.03125 8.421875 
Q 68.453125 4.78125 72.703125 4.78125 
Q 76.859375 4.78125 79.265625 8.421875 
Q 81.6875 12.0625 81.6875 18.40625 
Q 81.6875 24.8125 79.265625 28.4375 
Q 76.859375 32.078125 72.703125 32.078125 
z
M 72.703125 38.28125 
Q 80.421875 38.28125 84.953125 32.90625 
Q 89.5 27.546875 89.5 18.40625 
Q 89.5 9.28125 84.9375 3.921875 
Q 80.375 -1.421875 72.703125 -1.421875 
Q 64.890625 -1.421875 60.34375 3.921875 
Q 55.8125 9.28125 55.8125 18.40625 
Q 55.8125 27.59375 60.375 32.9375 
Q 64.9375 38.28125 72.703125 38.28125 
z
M 22.3125 68.015625 
Q 18.109375 68.015625 15.6875 64.375 
Q 13.28125 60.75 13.28125 54.390625 
Q 13.28125 47.953125 15.671875 44.328125 
Q 18.0625 40.71875 22.3125 40.71875 
Q 26.5625 40.71875 28.96875 44.328125 
Q 31.390625 47.953125 31.390625 54.390625 
Q 31.390625 60.6875 28.953125 64.34375 
Q 26.515625 68.015625 22.3125 68.015625 
z
M 66.40625 74.21875 
L 74.21875 74.21875 
L 28.609375 -1.421875 
L 20.796875 -1.421875 
z
M 22.3125 74.21875 
Q 30.03125 74.21875 34.609375 68.875 
Q 39.203125 63.53125 39.203125 54.390625 
Q 39.203125 45.171875 34.640625 39.84375 
Q 30.078125 34.515625 22.3125 34.515625 
Q 14.546875 34.515625 10.03125 39.859375 
Q 5.515625 45.21875 5.515625 54.390625 
Q 5.515625 63.484375 10.046875 68.84375 
Q 14.59375 74.21875 22.3125 74.21875 
z
" id="DejaVuSans-37"/>
      <path id="DejaVuSans-32"/>
      <path d="M 30.609375 48.390625 
Q 23.390625 48.390625 19.1875 42.75 
Q 14.984375 37.109375 14.984375 27.296875 
Q 14.984375 17.484375 19.15625 11.84375 
Q 23.34375 6.203125 30.609375 6.203125 
Q 37.796875 6.203125 41.984375 11.859375 
Q 46.1875 17.53125 46.1875 27.296875 
Q 46.1875 37.015625 41.984375 42.703125 
Q 37.796875 48.390625 30.609375 48.390625 
z
M 30.609375 56 
Q 42.328125 56 49.015625 48.375 
Q 55.71875 40.765625 55.71875 27.296875 
Q 55.71875 13.875 49.015625 6.21875 
Q 42.328125 -1.421875 30.609375 -1.421875 
Q 18.84375 -1.421875 12.171875 6.21875 
Q 5.515625 13.875 5.515625 27.296875 
Q 5.515625 40.765625 12.171875 48.375 
Q 18.84375 56 30.609375 56 
z
" id="DejaVuSans-111"/>
      <path d="M 37.109375 75.984375 
L 37.109375 68.5 
L 28.515625 68.5 
Q 23.6875 68.5 21.796875 66.546875 
Q 19.921875 64.59375 19.921875 59.515625 
L 19.921875 54.6875 
L 34.71875 54.6875 
L 34.71875 47.703125 
L 19.921875 47.703125 
L 19.921875 0 
L 10.890625 0 
L 10.890625 47.703125 
L 2.296875 47.703125 
L 2.296875 54.6875 
L 10.890625 54.6875 
L 10.890625 58.5 
Q 10.890625 67.625 15.140625 71.796875 
Q 19.390625 75.984375 28.609375 75.984375 
z
" id="DejaVuSans-102"/>
      <path d="M 34.1875 63.1875 
L 20.796875 26.90625 
L 47.609375 26.90625 
z
M 28.609375 72.90625 
L 39.796875 72.90625 
L 67.578125 0 
L 57.328125 0 
L 50.6875 18.703125 
L 17.828125 18.703125 
L 11.1875 0 
L 0.78125 0 
z
" id="DejaVuSans-65"/>
      <path d="M 4.203125 54.6875 
L 13.1875 54.6875 
L 24.421875 12.015625 
L 35.59375 54.6875 
L 46.1875 54.6875 
L 57.421875 12.015625 
L 68.609375 54.6875 
L 77.59375 54.6875 
L 63.28125 0 
L 52.6875 0 
L 40.921875 44.828125 
L 29.109375 0 
L 18.5 0 
z
" id="DejaVuSans-119"/>
      <path d="M 9.421875 54.6875 
L 18.40625 54.6875 
L 18.40625 0 
L 9.421875 0 
z
M 9.421875 75.984375 
L 18.40625 75.984375 
L 18.40625 64.59375 
L 9.421875 64.59375 
z
" id="DejaVuSans-105"/>
      <path d="M 52 44.1875 
Q 55.375 50.25 60.0625 53.125 
Q 64.75 56 71.09375 56 
Q 79.640625 56 84.28125 50.015625 
Q 88.921875 44.046875 88.921875 33.015625 
L 88.921875 0 
L 79.890625 0 
L 79.890625 32.71875 
Q 79.890625 40.578125 77.09375 44.375 
Q 74.3125 48.1875 68.609375 48.1875 
Q 61.625 48.1875 57.5625 43.546875 
Q 53.515625 38.921875 53.515625 30.90625 
L 53.515625 0 
L 44.484375 0 
L 44.484375 32.71875 
Q 44.484375 40.625 41.703125 44.40625 
Q 38.921875 48.1875 33.109375 48.1875 
Q 26.21875 48.1875 22.15625 43.53125 
Q 18.109375 38.875 18.109375 30.90625 
L 18.109375 0 
L 9.078125 0 
L 9.078125 54.6875 
L 18.109375 54.6875 
L 18.109375 46.1875 
Q 21.1875 51.21875 25.484375 53.609375 
Q 29.78125 56 35.6875 56 
Q 41.65625 56 45.828125 52.96875 
Q 50 49.953125 52 44.1875 
z
" id="DejaVuSans-109"/>
      <path d="M 41.109375 46.296875 
Q 39.59375 47.171875 37.8125 47.578125 
Q 36.03125 48 33.890625 48 
Q 26.265625 48 22.1875 43.046875 
Q 18.109375 38.09375 18.109375 28.8125 
L 18.109375 0 
L 9.078125 0 
L 9.078125 54.6875 
L 18.109375 54.6875 
L 18.109375 46.1875 
Q 20.953125 51.171875 25.484375 53.578125 
Q 30.03125 56 36.53125 56 
Q 37.453125 56 38.578125 55.875 
Q 39.703125 55.765625 41.0625 55.515625 
z
" id="DejaVuSans-114"/>
      <path d="M 45.40625 46.390625 
L 45.40625 75.984375 
L 54.390625 75.984375 
L 54.390625 0 
L 45.40625 0 
L 45.40625 8.203125 
Q 42.578125 3.328125 38.25 0.953125 
Q 33.9375 -1.421875 27.875 -1.421875 
Q 17.96875 -1.421875 11.734375 6.484375 
Q 5.515625 14.40625 5.515625 27.296875 
Q 5.515625 40.1875 11.734375 48.09375 
Q 17.96875 56 27.875 56 
Q 33.9375 56 38.25 53.625 
Q 42.578125 51.265625 45.40625 46.390625 
z
M 14.796875 27.296875 
Q 14.796875 17.390625 18.875 11.75 
Q 22.953125 6.109375 30.078125 6.109375 
Q 37.203125 6.109375 41.296875 11.75 
Q 45.40625 17.390625 45.40625 27.296875 
Q 45.40625 37.203125 41.296875 42.84375 
Q 37.203125 48.484375 30.078125 48.484375 
Q 22.953125 48.484375 18.875 42.84375 
Q 14.796875 37.203125 14.796875 27.296875 
z
" id="DejaVuSans-100"/>
     </defs>
     <g transform="translate(28.617187 233.685031)rotate(-90)scale(0.1 -0.1)">
      <use xlink:href="#DejaVuSans-37"/>
      <use x="95.019531" xlink:href="#DejaVuSans-32"/>
      <use x="126.806641" xlink:href="#DejaVuSans-111"/>
      <use x="187.988281" xlink:href="#DejaVuSans-102"/>
      <use x="223.193359" xlink:href="#DejaVuSans-32"/>
      <use x="254.980469" xlink:href="#DejaVuSans-65"/>
      <use x="323.388672" xlink:href="#DejaVuSans-32"/>
      <use x="355.175781" xlink:href="#DejaVuSans-119"/>
      <use x="436.962891" xlink:href="#DejaVuSans-105"/>
      <use x="464.746094" xlink:href="#DejaVuSans-116"/>
      <use x="503.955078" xlink:href="#DejaVuSans-104"/>
      <use x="567.333984" xlink:href="#DejaVuSans-32"/>
      <use x="599.121094" xlink:href="#DejaVuSans-109"/>
      <use x="696.533203" xlink:href="#DejaVuSans-111"/>
      <use x="757.714844" xlink:href="#DejaVuSans-114"/>
      <use x="798.796875" xlink:href="#DejaVuSans-101"/>
      <use x="860.320312" xlink:href="#DejaVuSans-32"/>
      <use x="892.107422" xlink:href="#DejaVuSans-100"/>
      <use x="955.583984" xlink:href="#DejaVuSans-101"/>
      <use x="1017.107422" xlink:href="#DejaVuSans-112"/>
      <use x="1080.583984" xlink:href="#DejaVuSans-116"/>
      <use x="1119.792969" xlink:href="#DejaVuSans-104"/>
     </g>
    </g>
   </g>
   <g id="line2d_13">
    <path clip-path="url(#pc851bb7a4e)" d="M 73.832727 53.568 
L 77.112066 71.51003 
L 80.391405 76.737258 
L 83.670744 92.079694 
L 86.950083 98.337993 
L 90.229421 110.800587 
L 93.50876 117.059712 
L 96.788099 127.181866 
L 100.067438 133.181086 
L 103.346777 141.520995 
L 106.626116 147.036918 
L 109.905455 154.051789 
L 113.184793 159.139919 
L 116.464132 165.166754 
L 119.743471 169.84061 
L 123.02281 175.141162 
L 126.302149 179.447454 
L 129.581488 184.118837 
L 132.860826 188.102773 
L 136.140165 192.277688 
L 139.419504 195.929471 
L 142.698843 199.686015 
L 145.978182 203.069446 
L 149.257521 206.478893 
L 152.53686 209.584726 
L 155.816198 212.694483 
L 159.095537 215.571251 
L 162.374876 218.420179 
L 165.654215 221.081925 
L 168.933554 223.714533 
L 172.212893 226.183275 
L 175.492231 228.588166 
L 178.77157 230.869428 
L 182.050909 233.106905 
L 185.330248 235.239946 
L 188.609587 237.319307 
L 191.888926 239.312924 
L 195.168264 241.237666 
L 198.447603 243.095433 
L 201.726942 244.879228 
L 205.006281 246.610866 
L 208.28562 248.284276 
L 211.564959 249.901132 
L 214.844298 251.474204 
L 218.123636 252.995969 
L 221.402975 254.467828 
L 224.682314 255.882258 
L 227.961653 257.257403 
L 231.240992 258.578492 
L 234.520331 259.858897 
L 237.799669 261.088969 
L 241.079008 262.295576 
L 244.358347 263.456674 
L 247.637686 264.585459 
L 250.917025 265.673259 
L 254.196364 266.724073 
L 257.475702 267.736026 
L 260.755041 268.723813 
L 264.03438 269.675838 
L 267.313719 270.600973 
L 270.593058 271.493295 
L 273.872397 272.359577 
L 277.151736 273.202842 
L 280.431074 274.013943 
L 283.710413 274.801679 
L 286.989752 275.569872 
L 290.269091 276.312199 
L 293.54843 277.032759 
L 296.827769 277.732052 
L 300.107107 278.409328 
L 303.386446 279.058964 
L 306.665785 279.689307 
L 309.945124 280.304831 
L 313.224463 280.904036 
L 316.503802 281.47805 
L 319.78314 282.037094 
L 323.062479 282.577696 
L 326.341818 283.111774 
L 329.621157 283.618713 
L 332.900496 284.113856 
L 336.179835 284.598178 
L 339.459174 285.068905 
L 342.738512 285.523988 
L 346.017851 285.969474 
L 349.29719 286.396892 
L 352.576529 286.815313 
L 355.855868 287.220914 
L 359.135207 287.61097 
L 362.414545 287.99358 
L 365.693884 288.362894 
L 368.973223 288.730659 
L 372.252562 289.083579 
L 375.531901 289.423454 
L 378.81124 289.755057 
L 382.090579 290.076889 
L 385.369917 290.388699 
L 388.649256 290.696561 
L 391.928595 290.991753 
L 395.207934 291.279572 
L 398.487273 291.55822 
" style="fill:none;stroke:#1f77b4;stroke-linecap:square;stroke-width:1.5;"/>
   </g>
   <g id="line2d_14">
    <path clip-path="url(#pc851bb7a4e)" d="M 73.832727 53.568225 
L 77.112066 65.734278 
L 80.391405 70.551257 
L 83.670744 83.072605 
L 86.950083 89.520734 
L 90.229421 100.798839 
L 93.50876 107.626529 
L 96.788099 117.361351 
L 100.067438 124.062987 
L 103.346777 132.484417 
L 106.626116 138.806068 
L 109.905455 146.126577 
L 113.184793 152.026784 
L 116.464132 158.466716 
L 119.743471 163.889673 
L 123.02281 169.61157 
L 126.302149 174.602385 
L 129.581488 179.715756 
L 132.860826 184.313715 
L 136.140165 188.921222 
L 139.419504 193.120078 
L 142.698843 197.287047 
L 145.978182 201.156824 
L 149.257521 204.936835 
L 152.53686 208.488429 
L 155.816198 211.94246 
L 159.095537 215.197913 
L 162.374876 218.350229 
L 165.654215 221.337756 
L 168.933554 224.233842 
L 172.212893 227.005123 
L 175.492231 229.675042 
L 178.77157 232.217332 
L 182.050909 234.677828 
L 185.330248 237.027364 
L 188.609587 239.289732 
L 191.888926 241.470106 
L 195.168264 243.566685 
L 198.447603 245.588467 
L 201.726942 247.526905 
L 205.006281 249.399066 
L 208.28562 251.215224 
L 211.564959 252.943364 
L 214.844298 254.621947 
L 218.123636 256.23033 
L 221.402975 257.785659 
L 224.682314 259.282958 
L 227.961653 260.722429 
L 231.240992 262.124489 
L 234.520331 263.450626 
L 237.799669 264.738553 
L 241.079008 265.97005 
L 244.358347 267.164386 
L 247.637686 268.321486 
L 250.917025 269.435251 
L 254.196364 270.501535 
L 257.475702 271.531431 
L 260.755041 272.527865 
L 264.03438 273.489986 
L 267.313719 274.420844 
L 270.593058 275.317714 
L 273.872397 276.182996 
L 277.151736 277.013941 
L 280.431074 277.816746 
L 283.710413 278.592935 
L 286.989752 279.344559 
L 290.269091 280.066369 
L 293.54843 280.767061 
L 296.827769 281.439189 
L 300.107107 282.08845 
L 303.386446 282.711147 
L 306.665785 283.320722 
L 309.945124 283.904558 
L 313.224463 284.47015 
L 316.503802 285.0136 
L 319.78314 285.541556 
L 323.062479 286.050294 
L 326.341818 286.539414 
L 329.621157 287.013765 
L 332.900496 287.472221 
L 336.179835 287.915533 
L 339.459174 288.344226 
L 342.738512 288.75455 
L 346.017851 289.160176 
L 349.29719 289.544835 
L 352.576529 289.920222 
L 355.855868 290.282388 
L 359.135207 290.629761 
L 362.414545 290.967287 
L 365.693884 291.292267 
L 368.973223 291.609901 
L 372.252562 291.914788 
L 375.531901 292.20958 
L 378.81124 292.49675 
L 382.090579 292.771623 
L 385.369917 293.04 
L 388.649256 293.29698 
L 391.928595 293.546614 
L 395.207934 293.788775 
L 398.487273 294.023238 
" style="fill:none;stroke:#ff7f0e;stroke-linecap:square;stroke-width:1.5;"/>
   </g>
   <g id="line2d_15">
    <path clip-path="url(#pc851bb7a4e)" d="M 73.832727 53.571424 
L 77.112066 53.804963 
L 80.391405 54.080662 
L 83.670744 54.528147 
L 86.950083 55.158865 
L 90.229421 56.025822 
L 93.50876 57.135014 
L 96.788099 58.507584 
L 100.067438 60.137385 
L 103.346777 62.023242 
L 106.626116 64.14946 
L 109.905455 66.534159 
L 113.184793 69.179487 
L 116.464132 72.058378 
L 119.743471 75.171934 
L 123.02281 78.496587 
L 126.302149 81.981306 
L 129.581488 85.641735 
L 132.860826 89.460507 
L 136.140165 93.386613 
L 139.419504 97.442723 
L 142.698843 101.604318 
L 145.978182 105.859904 
L 149.257521 110.197209 
L 152.53686 114.562805 
L 155.816198 118.969885 
L 159.095537 123.401531 
L 162.374876 127.85082 
L 165.654215 132.312655 
L 168.933554 136.75962 
L 172.212893 141.188367 
L 175.492231 145.578104 
L 178.77157 149.941975 
L 182.050909 154.26641 
L 185.330248 158.52487 
L 188.609587 162.747693 
L 191.888926 166.890795 
L 195.168264 170.985115 
L 198.447603 174.980321 
L 201.726942 178.911151 
L 205.006281 182.770558 
L 208.28562 186.567262 
L 211.564959 190.252757 
L 214.844298 193.854508 
L 218.123636 197.381037 
L 221.402975 200.826971 
L 224.682314 204.166018 
L 227.961653 207.413175 
L 231.240992 210.576012 
L 234.520331 213.657779 
L 237.799669 216.666873 
L 241.079008 219.577353 
L 244.358347 222.389894 
L 247.637686 225.114768 
L 250.917025 227.754822 
L 254.196364 230.299587 
L 257.475702 232.769629 
L 260.755041 235.171971 
L 264.03438 237.486745 
L 267.313719 239.73107 
L 270.593058 241.902672 
L 273.872397 243.984532 
L 277.151736 246.003914 
L 280.431074 247.950099 
L 283.710413 249.829708 
L 286.989752 251.637544 
L 290.269091 253.384876 
L 293.54843 255.078854 
L 296.827769 256.697759 
L 300.107107 258.252887 
L 303.386446 259.764131 
L 306.665785 261.22227 
L 309.945124 262.617757 
L 313.224463 263.963938 
L 316.503802 265.257637 
L 319.78314 266.500355 
L 323.062479 267.694716 
L 326.341818 268.843244 
L 329.621157 269.938641 
L 332.900496 270.998852 
L 336.179835 272.016628 
L 339.459174 273.003415 
L 342.738512 273.945269 
L 346.017851 274.857733 
L 349.29719 275.738634 
L 352.576529 276.584424 
L 355.855868 277.393151 
L 359.135207 278.169991 
L 362.414545 278.91974 
L 365.693884 279.6415 
L 368.973223 280.33547 
L 372.252562 281.003424 
L 375.531901 281.645288 
L 378.81124 282.264011 
L 382.090579 282.857318 
L 385.369917 283.423935 
L 388.649256 283.969459 
L 391.928595 284.49679 
L 395.207934 285.007352 
L 398.487273 285.493174 
" style="fill:none;stroke:#2ca02c;stroke-linecap:square;stroke-width:1.5;"/>
   </g>
   <g id="line2d_16">
    <path clip-path="url(#pc851bb7a4e)" d="M 73.832727 53.58147 
L 77.112066 68.341245 
L 80.391405 79.458233 
L 83.670744 91.575979 
L 86.950083 101.784477 
L 90.229421 111.399942 
L 93.50876 119.806277 
L 96.788099 127.526989 
L 100.067438 134.390241 
L 103.346777 140.677205 
L 106.626116 146.373237 
L 109.905455 151.589769 
L 113.184793 156.421868 
L 116.464132 160.853414 
L 119.743471 165.015334 
L 123.02281 168.895683 
L 126.302149 172.523174 
L 129.581488 175.973731 
L 132.860826 179.179653 
L 136.140165 182.220885 
L 139.419504 185.102426 
L 142.698843 187.859387 
L 145.978182 190.486846 
L 149.257521 192.985628 
L 152.53686 195.400715 
L 155.816198 197.724561 
L 159.095537 199.941096 
L 162.374876 202.071638 
L 165.654215 204.133105 
L 168.933554 206.11945 
L 172.212893 208.035621 
L 175.492231 209.891039 
L 178.77157 211.681731 
L 182.050909 213.422141 
L 185.330248 215.103973 
L 188.609587 216.722378 
L 191.888926 218.2947 
L 195.168264 219.811917 
L 198.447603 221.290449 
L 201.726942 222.738566 
L 205.006281 224.134253 
L 208.28562 225.485107 
L 211.564959 226.795425 
L 214.844298 228.055937 
L 218.123636 229.291333 
L 221.402975 230.504412 
L 224.682314 231.679055 
L 227.961653 232.837104 
L 231.240992 233.973536 
L 234.520331 235.072957 
L 237.799669 236.143214 
L 241.079008 237.194403 
L 244.358347 238.208055 
L 247.637686 239.204814 
L 250.917025 240.176281 
L 254.196364 241.128357 
L 257.475702 242.059964 
L 260.755041 242.966856 
L 264.03438 243.857978 
L 267.313719 244.713689 
L 270.593058 245.553955 
L 273.872397 246.378302 
L 277.151736 247.191378 
L 280.431074 247.983512 
L 283.710413 248.7647 
L 286.989752 249.520447 
L 290.269091 250.261799 
L 293.54843 250.985208 
L 296.827769 251.694148 
L 300.107107 252.390042 
L 303.386446 253.071217 
L 306.665785 253.737172 
L 309.945124 254.388782 
L 313.224463 255.03557 
L 316.503802 255.668637 
L 319.78314 256.294582 
L 323.062479 256.904857 
L 326.341818 257.503412 
L 329.621157 258.085948 
L 332.900496 258.665385 
L 336.179835 259.233277 
L 339.459174 259.790822 
L 342.738512 260.335946 
L 346.017851 260.873948 
L 349.29719 261.40003 
L 352.576529 261.918115 
L 355.855868 262.428477 
L 359.135207 262.929643 
L 362.414545 263.425935 
L 365.693884 263.913581 
L 368.973223 264.387307 
L 372.252562 264.85616 
L 375.531901 265.321139 
L 378.81124 265.775422 
L 382.090579 266.22888 
L 385.369917 266.665195 
L 388.649256 267.096411 
L 391.928595 267.520105 
L 395.207934 267.943075 
L 398.487273 268.360397 
" style="fill:none;stroke:#d62728;stroke-linecap:square;stroke-width:1.5;"/>
   </g>
   <g id="line2d_17">
    <path clip-path="url(#pc851bb7a4e)" d="M 73.832727 53.573398 
L 77.112066 55.769666 
L 80.391405 57.648875 
L 83.670744 61.168506 
L 86.950083 64.407691 
L 90.229421 68.748545 
L 93.50876 72.814325 
L 96.788099 77.501178 
L 100.067438 81.989903 
L 103.346777 86.801634 
L 106.626116 91.443028 
L 109.905455 96.219772 
L 113.184793 100.844697 
L 116.464132 105.481493 
L 119.743471 109.966794 
L 123.02281 114.406837 
L 126.302149 118.734671 
L 129.581488 122.995555 
L 132.860826 127.136833 
L 136.140165 131.191242 
L 139.419504 135.131069 
L 142.698843 138.984278 
L 145.978182 142.735149 
L 149.257521 146.396928 
L 152.53686 149.949122 
L 155.816198 153.413324 
L 159.095537 156.813574 
L 162.374876 160.108513 
L 165.654215 163.317508 
L 168.933554 166.438736 
L 172.212893 169.478619 
L 175.492231 172.435657 
L 178.77157 175.316123 
L 182.050909 178.135936 
L 185.330248 180.87468 
L 188.609587 183.537326 
L 191.888926 186.136271 
L 195.168264 188.66909 
L 198.447603 191.153476 
L 201.726942 193.569938 
L 205.006281 195.9189 
L 208.28562 198.224727 
L 211.564959 200.464254 
L 214.844298 202.652724 
L 218.123636 204.797186 
L 221.402975 206.885194 
L 224.682314 208.937564 
L 227.961653 210.94755 
L 231.240992 212.893585 
L 234.520331 214.797835 
L 237.799669 216.64918 
L 241.079008 218.465787 
L 244.358347 220.243633 
L 247.637686 221.985093 
L 250.917025 223.686118 
L 254.196364 225.348282 
L 257.475702 226.966087 
L 260.755041 228.546656 
L 264.03438 230.084191 
L 267.313719 231.591487 
L 270.593058 233.063696 
L 273.872397 234.505891 
L 277.151736 235.909375 
L 280.431074 237.29544 
L 283.710413 238.638597 
L 286.989752 239.963785 
L 290.269091 241.25466 
L 293.54843 242.524868 
L 296.827769 243.760139 
L 300.107107 244.973568 
L 303.386446 246.151035 
L 306.665785 247.304586 
L 309.945124 248.435695 
L 313.224463 249.537965 
L 316.503802 250.624091 
L 319.78314 251.685451 
L 323.062479 252.723244 
L 326.341818 253.739071 
L 329.621157 254.729207 
L 332.900496 255.698876 
L 336.179835 256.645803 
L 339.459174 257.569638 
L 342.738512 258.468458 
L 346.017851 259.351933 
L 349.29719 260.206219 
L 352.576529 261.046585 
L 355.855868 261.865659 
L 359.135207 262.669289 
L 362.414545 263.4535 
L 365.693884 264.224492 
L 368.973223 264.977565 
L 372.252562 265.715044 
L 375.531901 266.430831 
L 378.81124 267.136247 
L 382.090579 267.822594 
L 385.369917 268.495222 
L 388.649256 269.160178 
L 391.928595 269.80599 
L 395.207934 270.438583 
L 398.487273 271.05718 
" style="fill:none;stroke:#9467bd;stroke-linecap:square;stroke-width:1.5;"/>
   </g>
   <g id="line2d_18">
    <path clip-path="url(#pc851bb7a4e)" d="M 73.832727 53.572473 
L 77.112066 57.572453 
L 80.391405 59.936259 
L 83.670744 65.02099 
L 86.950083 68.930903 
L 90.229421 74.751613 
L 93.50876 79.551374 
L 96.788099 85.592553 
L 100.067438 90.858793 
L 103.346777 96.8234 
L 106.626116 102.219242 
L 109.905455 108.01921 
L 113.184793 113.380639 
L 116.464132 118.932523 
L 119.743471 124.130438 
L 123.02281 129.432014 
L 126.302149 134.454268 
L 129.581488 139.46735 
L 132.860826 144.228375 
L 136.140165 148.945491 
L 139.419504 153.455583 
L 142.698843 157.909371 
L 145.978182 162.156185 
L 149.257521 166.307859 
L 152.53686 170.318785 
L 155.816198 174.223599 
L 159.095537 177.97682 
L 162.374876 181.619731 
L 165.654215 185.136438 
L 168.933554 188.559605 
L 172.212893 191.874836 
L 175.492231 195.093903 
L 178.77157 198.21593 
L 182.050909 201.23657 
L 185.330248 204.163694 
L 188.609587 207.0049 
L 191.888926 209.760937 
L 195.168264 212.41856 
L 198.447603 215.012981 
L 201.726942 217.511288 
L 205.006281 219.929974 
L 208.28562 222.252295 
L 211.564959 224.528083 
L 214.844298 226.719703 
L 218.123636 228.83605 
L 221.402975 230.895093 
L 224.682314 232.887836 
L 227.961653 234.809229 
L 231.240992 236.67132 
L 234.520331 238.476656 
L 237.799669 240.239483 
L 241.079008 241.943432 
L 244.358347 243.5951 
L 247.637686 245.203259 
L 250.917025 246.769433 
L 254.196364 248.275704 
L 257.475702 249.72897 
L 260.755041 251.145674 
L 264.03438 252.510298 
L 267.313719 253.843983 
L 270.593058 255.123762 
L 273.872397 256.370504 
L 277.151736 257.581759 
L 280.431074 258.754977 
L 283.710413 259.888711 
L 286.989752 260.990006 
L 290.269091 262.057613 
L 293.54843 263.096506 
L 296.827769 264.105985 
L 300.107107 265.086475 
L 303.386446 266.03745 
L 306.665785 266.968233 
L 309.945124 267.872226 
L 313.224463 268.745955 
L 316.503802 269.593043 
L 319.78314 270.417041 
L 323.062479 271.216022 
L 326.341818 271.991212 
L 329.621157 272.742036 
L 332.900496 273.469569 
L 336.179835 274.179383 
L 339.459174 274.869629 
L 342.738512 275.544831 
L 346.017851 276.193792 
L 349.29719 276.82646 
L 352.576529 277.446182 
L 355.855868 278.045537 
L 359.135207 278.630596 
L 362.414545 279.193889 
L 365.693884 279.742538 
L 368.973223 280.273393 
L 372.252562 280.788653 
L 375.531901 281.282197 
L 378.81124 281.770817 
L 382.090579 282.235746 
L 385.369917 282.690829 
L 388.649256 283.137115 
L 391.928595 283.568281 
L 395.207934 283.995 
L 398.487273 284.408198 
" style="fill:none;stroke:#8c564b;stroke-linecap:square;stroke-width:1.5;"/>
   </g>
   <g id="line2d_19">
    <path clip-path="url(#pc851bb7a4e)" d="M 73.832727 53.569849 
L 77.112066 68.665326 
L 80.391405 73.887631 
L 83.670744 88.426087 
L 86.950083 95.006443 
L 90.229421 107.577322 
L 93.50876 114.464516 
L 96.788099 125.126596 
L 100.067438 131.743114 
L 103.346777 140.735084 
L 106.626116 146.939004 
L 109.905455 154.654643 
L 113.184793 160.378164 
L 116.464132 167.069529 
L 119.743471 172.365657 
L 123.02281 178.225104 
L 126.302149 183.094789 
L 129.581488 188.302824 
L 132.860826 192.739068 
L 136.140165 197.364993 
L 139.419504 201.444868 
L 142.698843 205.606514 
L 145.978182 209.340666 
L 149.257521 213.094636 
L 152.53686 216.531623 
L 155.816198 219.932023 
L 159.095537 223.072843 
L 162.374876 226.178252 
L 165.654215 229.05312 
L 168.933554 231.857714 
L 172.212893 234.500493 
L 175.492231 237.086842 
L 178.77157 239.508952 
L 182.050909 241.859313 
L 185.330248 244.076373 
L 188.609587 246.230006 
L 191.888926 248.290999 
L 195.168264 250.281042 
L 198.447603 252.17852 
L 201.726942 254.005823 
L 205.006281 255.743309 
L 208.28562 257.443459 
L 211.564959 259.054892 
L 214.844298 260.59815 
L 218.123636 262.074832 
L 221.402975 263.496384 
L 224.682314 264.861258 
L 227.961653 266.178299 
L 231.240992 267.429289 
L 234.520331 268.643992 
L 237.799669 269.818361 
L 241.079008 270.946746 
L 244.358347 272.019077 
L 247.637686 273.063468 
L 250.917025 274.058877 
L 254.196364 275.036593 
L 257.475702 275.964776 
L 260.755041 276.859522 
L 264.03438 277.718232 
L 267.313719 278.545303 
L 270.593058 279.337262 
L 273.872397 280.105954 
L 277.151736 280.844833 
L 280.431074 281.553147 
L 283.710413 282.228274 
L 286.989752 282.876861 
L 290.269091 283.506029 
L 293.54843 284.115455 
L 296.827769 284.698116 
L 300.107107 285.264008 
L 303.386446 285.813031 
L 306.665785 286.340113 
L 309.945124 286.841578 
L 313.224463 287.324751 
L 316.503802 287.792229 
L 319.78314 288.242213 
L 323.062479 288.680227 
L 326.341818 289.098299 
L 329.621157 289.513046 
L 332.900496 289.90975 
L 336.179835 290.290286 
L 339.459174 290.661724 
L 342.738512 291.018768 
L 346.017851 291.364091 
L 349.29719 291.699168 
L 352.576529 292.018225 
L 355.855868 292.328836 
L 359.135207 292.629626 
L 362.414545 292.917945 
L 365.693884 293.198317 
L 368.973223 293.466093 
L 372.252562 293.723374 
L 375.531901 293.972257 
L 378.81124 294.211244 
L 382.090579 294.439186 
L 385.369917 294.663903 
L 388.649256 294.879349 
L 391.928595 295.089247 
L 395.207934 295.293422 
L 398.487273 295.488 
" style="fill:none;stroke:#e377c2;stroke-linecap:square;stroke-width:1.5;"/>
   </g>
   <g id="line2d_20">
    <path clip-path="url(#pc851bb7a4e)" d="M 73.832727 53.568775 
L 77.112066 67.410362 
L 80.391405 72.713463 
L 83.670744 86.627398 
L 86.950083 93.489925 
L 90.229421 105.789429 
L 93.50876 112.959969 
L 96.788099 123.409453 
L 100.067438 130.242841 
L 103.346777 139.063624 
L 106.626116 145.436481 
L 109.905455 152.967088 
L 113.184793 158.82351 
L 116.464132 165.364606 
L 119.743471 170.695071 
L 123.02281 176.452755 
L 126.302149 181.367923 
L 129.581488 186.440284 
L 132.860826 190.917888 
L 136.140165 195.465991 
L 139.419504 199.588001 
L 142.698843 203.703063 
L 145.978182 207.466755 
L 149.257521 211.199333 
L 152.53686 214.64864 
L 155.816198 218.019126 
L 159.095537 221.192485 
L 162.374876 224.282349 
L 165.654215 227.17716 
L 168.933554 229.990401 
L 172.212893 232.654072 
L 175.492231 235.234248 
L 178.77157 237.667154 
L 182.050909 240.026187 
L 185.330248 242.260365 
L 188.609587 244.417522 
L 191.888926 246.476791 
L 195.168264 248.483928 
L 198.447603 250.386978 
L 201.726942 252.224203 
L 205.006281 253.974535 
L 208.28562 255.663439 
L 211.564959 257.288092 
L 214.844298 258.852916 
L 218.123636 260.363011 
L 221.402975 261.817552 
L 224.682314 263.214688 
L 227.961653 264.55597 
L 231.240992 265.858966 
L 234.520331 267.112955 
L 237.799669 268.304592 
L 241.079008 269.457018 
L 244.358347 270.565511 
L 247.637686 271.626296 
L 250.917025 272.651819 
L 254.196364 273.644854 
L 257.475702 274.603052 
L 260.755041 275.520715 
L 264.03438 276.40299 
L 267.313719 277.255477 
L 270.593058 278.071827 
L 273.872397 278.859437 
L 277.151736 279.623556 
L 280.431074 280.354463 
L 283.710413 281.054381 
L 286.989752 281.727733 
L 290.269091 282.383167 
L 293.54843 283.01381 
L 296.827769 283.621837 
L 300.107107 284.208571 
L 303.386446 284.775563 
L 306.665785 285.323536 
L 309.945124 285.847594 
L 313.224463 286.349884 
L 316.503802 286.840554 
L 319.78314 287.31268 
L 323.062479 287.77671 
L 326.341818 288.217098 
L 329.621157 288.642016 
L 332.900496 289.055514 
L 336.179835 289.452868 
L 339.459174 289.838552 
L 342.738512 290.212089 
L 346.017851 290.573756 
L 349.29719 290.920879 
L 352.576529 291.255131 
L 355.855868 291.581086 
L 359.135207 291.893721 
L 362.414545 292.197634 
L 365.693884 292.492076 
L 368.973223 292.778521 
L 372.252562 293.05222 
L 375.531901 293.316223 
L 378.81124 293.572229 
L 382.090579 293.819488 
L 385.369917 294.054527 
L 388.649256 294.283643 
L 391.928595 294.503987 
L 395.207934 294.718708 
L 398.487273 294.926906 
" style="fill:none;stroke:#7f7f7f;stroke-linecap:square;stroke-width:1.5;"/>
   </g>
   <g id="line2d_21">
    <path clip-path="url(#pc851bb7a4e)" d="M 73.832727 53.569524 
L 77.112066 62.232565 
L 80.391405 66.917668 
L 83.670744 77.134787 
L 86.950083 83.687704 
L 90.229421 93.43577 
L 93.50876 100.464662 
L 96.788099 109.18913 
L 100.067438 116.00365 
L 103.346777 123.761348 
L 106.626116 130.171867 
L 109.905455 137.028397 
L 113.184793 143.002626 
L 116.464132 149.108106 
L 119.743471 154.596764 
L 123.02281 160.146524 
L 126.302149 165.173451 
L 129.581488 170.16874 
L 132.860826 174.808584 
L 136.140165 179.345442 
L 139.419504 183.629067 
L 142.698843 187.782216 
L 145.978182 191.712121 
L 149.257521 195.548636 
L 152.53686 199.189322 
L 155.816198 202.671692 
L 159.095537 205.994521 
L 162.374876 209.222385 
L 165.654215 212.308375 
L 168.933554 215.262564 
L 172.212893 218.117265 
L 175.492231 220.862681 
L 178.77157 223.511732 
L 182.050909 226.058621 
L 185.330248 228.505796 
L 188.609587 230.877874 
L 191.888926 233.170832 
L 195.168264 235.372722 
L 198.447603 237.484596 
L 201.726942 239.524071 
L 205.006281 241.489174 
L 208.28562 243.389026 
L 211.564959 245.222027 
L 214.844298 246.989027 
L 218.123636 248.695875 
L 221.402975 250.344544 
L 224.682314 251.940357 
L 227.961653 253.485214 
L 231.240992 254.980415 
L 234.520331 256.419086 
L 237.799669 257.814748 
L 241.079008 259.162153 
L 244.358347 260.44723 
L 247.637686 261.704318 
L 250.917025 262.909425 
L 254.196364 264.08027 
L 257.475702 265.219776 
L 260.755041 266.320971 
L 264.03438 267.385905 
L 267.313719 268.415101 
L 270.593058 269.41076 
L 273.872397 270.380979 
L 277.151736 271.314736 
L 280.431074 272.226825 
L 283.710413 273.109376 
L 286.989752 273.957014 
L 290.269091 274.779862 
L 293.54843 275.572146 
L 296.827769 276.341213 
L 300.107107 277.087364 
L 303.386446 277.803151 
L 306.665785 278.502394 
L 309.945124 279.181794 
L 313.224463 279.841276 
L 316.503802 280.478342 
L 319.78314 281.092092 
L 323.062479 281.686998 
L 326.341818 282.267784 
L 329.621157 282.832627 
L 332.900496 283.375502 
L 336.179835 283.89996 
L 339.459174 284.410247 
L 342.738512 284.902191 
L 346.017851 285.381315 
L 349.29719 285.84397 
L 352.576529 286.29403 
L 355.855868 286.728595 
L 359.135207 287.14834 
L 362.414545 287.557065 
L 365.693884 287.954069 
L 368.973223 288.340077 
L 372.252562 288.710216 
L 375.531901 289.072408 
L 378.81124 289.428702 
L 382.090579 289.770002 
L 385.369917 290.103779 
L 388.649256 290.426486 
L 391.928595 290.738021 
L 395.207934 291.040485 
L 398.487273 291.334602 
" style="fill:none;stroke:#bcbd22;stroke-linecap:square;stroke-width:1.5;"/>
   </g>
   <g id="patch_3">
    <path d="M 57.6 307.584 
L 57.6 41.472 
" style="fill:none;stroke:#000000;stroke-linecap:square;stroke-linejoin:miter;stroke-width:0.8;"/>
   </g>
   <g id="patch_4">
    <path d="M 414.72 307.584 
L 414.72 41.472 
" style="fill:none;stroke:#000000;stroke-linecap:square;stroke-linejoin:miter;stroke-width:0.8;"/>
   </g>
   <g id="patch_5">
    <path d="M 57.6 307.584 
L 414.72 307.584 
" style="fill:none;stroke:#000000;stroke-linecap:square;stroke-linejoin:miter;stroke-width:0.8;"/>
   </g>
   <g id="patch_6">
    <path d="M 57.6 41.472 
L 414.72 41.472 
" style="fill:none;stroke:#000000;stroke-linecap:square;stroke-linejoin:miter;stroke-width:0.8;"/>
   </g>
   <g id="legend_1">
    <g id="patch_7">
     <path d="M 187.935625 184.07825 
L 407.72 184.07825 
Q 409.72 184.07825 409.72 182.07825 
L 409.72 48.472 
Q 409.72 46.472 407.72 46.472 
L 187.935625 46.472 
Q 185.935625 46.472 185.935625 48.472 
L 185.935625 182.07825 
Q 185.935625 184.07825 187.935625 184.07825 
z
" style="fill:#ffffff;opacity:0.8;stroke:#cccccc;stroke-linejoin:miter;"/>
    </g>
    <g id="line2d_22">
     <path d="M 189.935625 54.570438 
L 209.935625 54.570438 
" style="fill:none;stroke:#1f77b4;stroke-linecap:square;stroke-width:1.5;"/>
    </g>
    <g id="line2d_23"/>
    <g id="text_15">
     <!-- sample-1-1_ExomeCoverage_Shorten -->
     <defs>
      <path d="M 44.28125 53.078125 
L 44.28125 44.578125 
Q 40.484375 46.53125 36.375 47.5 
Q 32.28125 48.484375 27.875 48.484375 
Q 21.1875 48.484375 17.84375 46.4375 
Q 14.5 44.390625 14.5 40.28125 
Q 14.5 37.15625 16.890625 35.375 
Q 19.28125 33.59375 26.515625 31.984375 
L 29.59375 31.296875 
Q 39.15625 29.25 43.1875 25.515625 
Q 47.21875 21.78125 47.21875 15.09375 
Q 47.21875 7.46875 41.1875 3.015625 
Q 35.15625 -1.421875 24.609375 -1.421875 
Q 20.21875 -1.421875 15.453125 -0.5625 
Q 10.6875 0.296875 5.421875 2 
L 5.421875 11.28125 
Q 10.40625 8.6875 15.234375 7.390625 
Q 20.0625 6.109375 24.8125 6.109375 
Q 31.15625 6.109375 34.5625 8.28125 
Q 37.984375 10.453125 37.984375 14.40625 
Q 37.984375 18.0625 35.515625 20.015625 
Q 33.0625 21.96875 24.703125 23.78125 
L 21.578125 24.515625 
Q 13.234375 26.265625 9.515625 29.90625 
Q 5.8125 33.546875 5.8125 39.890625 
Q 5.8125 47.609375 11.28125 51.796875 
Q 16.75 56 26.8125 56 
Q 31.78125 56 36.171875 55.265625 
Q 40.578125 54.546875 44.28125 53.078125 
z
" id="DejaVuSans-115"/>
      <path d="M 34.28125 27.484375 
Q 23.390625 27.484375 19.1875 25 
Q 14.984375 22.515625 14.984375 16.5 
Q 14.984375 11.71875 18.140625 8.90625 
Q 21.296875 6.109375 26.703125 6.109375 
Q 34.1875 6.109375 38.703125 11.40625 
Q 43.21875 16.703125 43.21875 25.484375 
L 43.21875 27.484375 
z
M 52.203125 31.203125 
L 52.203125 0 
L 43.21875 0 
L 43.21875 8.296875 
Q 40.140625 3.328125 35.546875 0.953125 
Q 30.953125 -1.421875 24.3125 -1.421875 
Q 15.921875 -1.421875 10.953125 3.296875 
Q 6 8.015625 6 15.921875 
Q 6 25.140625 12.171875 29.828125 
Q 18.359375 34.515625 30.609375 34.515625 
L 43.21875 34.515625 
L 43.21875 35.40625 
Q 43.21875 41.609375 39.140625 45 
Q 35.0625 48.390625 27.6875 48.390625 
Q 23 48.390625 18.546875 47.265625 
Q 14.109375 46.140625 10.015625 43.890625 
L 10.015625 52.203125 
Q 14.9375 54.109375 19.578125 55.046875 
Q 24.21875 56 28.609375 56 
Q 40.484375 56 46.34375 49.84375 
Q 52.203125 43.703125 52.203125 31.203125 
z
" id="DejaVuSans-97"/>
      <path d="M 9.421875 75.984375 
L 18.40625 75.984375 
L 18.40625 0 
L 9.421875 0 
z
" id="DejaVuSans-108"/>
      <path d="M 4.890625 31.390625 
L 31.203125 31.390625 
L 31.203125 23.390625 
L 4.890625 23.390625 
z
" id="DejaVuSans-45"/>
      <path d="M 50.984375 -16.609375 
L 50.984375 -23.578125 
L -0.984375 -23.578125 
L -0.984375 -16.609375 
z
" id="DejaVuSans-95"/>
      <path d="M 9.8125 72.90625 
L 55.90625 72.90625 
L 55.90625 64.59375 
L 19.671875 64.59375 
L 19.671875 43.015625 
L 54.390625 43.015625 
L 54.390625 34.71875 
L 19.671875 34.71875 
L 19.671875 8.296875 
L 56.78125 8.296875 
L 56.78125 0 
L 9.8125 0 
z
" id="DejaVuSans-69"/>
      <path d="M 54.890625 54.6875 
L 35.109375 28.078125 
L 55.90625 0 
L 45.3125 0 
L 29.390625 21.484375 
L 13.484375 0 
L 2.875 0 
L 24.125 28.609375 
L 4.6875 54.6875 
L 15.28125 54.6875 
L 29.78125 35.203125 
L 44.28125 54.6875 
z
" id="DejaVuSans-120"/>
      <path d="M 64.40625 67.28125 
L 64.40625 56.890625 
Q 59.421875 61.53125 53.78125 63.8125 
Q 48.140625 66.109375 41.796875 66.109375 
Q 29.296875 66.109375 22.65625 58.46875 
Q 16.015625 50.828125 16.015625 36.375 
Q 16.015625 21.96875 22.65625 14.328125 
Q 29.296875 6.6875 41.796875 6.6875 
Q 48.140625 6.6875 53.78125 8.984375 
Q 59.421875 11.28125 64.40625 15.921875 
L 64.40625 5.609375 
Q 59.234375 2.09375 53.4375 0.328125 
Q 47.65625 -1.421875 41.21875 -1.421875 
Q 24.65625 -1.421875 15.125 8.703125 
Q 5.609375 18.84375 5.609375 36.375 
Q 5.609375 53.953125 15.125 64.078125 
Q 24.65625 74.21875 41.21875 74.21875 
Q 47.75 74.21875 53.53125 72.484375 
Q 59.328125 70.75 64.40625 67.28125 
z
" id="DejaVuSans-67"/>
      <path d="M 2.984375 54.6875 
L 12.5 54.6875 
L 29.59375 8.796875 
L 46.6875 54.6875 
L 56.203125 54.6875 
L 35.6875 0 
L 23.484375 0 
z
" id="DejaVuSans-118"/>
      <path d="M 45.40625 27.984375 
Q 45.40625 37.75 41.375 43.109375 
Q 37.359375 48.484375 30.078125 48.484375 
Q 22.859375 48.484375 18.828125 43.109375 
Q 14.796875 37.75 14.796875 27.984375 
Q 14.796875 18.265625 18.828125 12.890625 
Q 22.859375 7.515625 30.078125 7.515625 
Q 37.359375 7.515625 41.375 12.890625 
Q 45.40625 18.265625 45.40625 27.984375 
z
M 54.390625 6.78125 
Q 54.390625 -7.171875 48.1875 -13.984375 
Q 42 -20.796875 29.203125 -20.796875 
Q 24.46875 -20.796875 20.265625 -20.09375 
Q 16.0625 -19.390625 12.109375 -17.921875 
L 12.109375 -9.1875 
Q 16.0625 -11.328125 19.921875 -12.34375 
Q 23.78125 -13.375 27.78125 -13.375 
Q 36.625 -13.375 41.015625 -8.765625 
Q 45.40625 -4.15625 45.40625 5.171875 
L 45.40625 9.625 
Q 42.625 4.78125 38.28125 2.390625 
Q 33.9375 0 27.875 0 
Q 17.828125 0 11.671875 7.65625 
Q 5.515625 15.328125 5.515625 27.984375 
Q 5.515625 40.671875 11.671875 48.328125 
Q 17.828125 56 27.875 56 
Q 33.9375 56 38.28125 53.609375 
Q 42.625 51.21875 45.40625 46.390625 
L 45.40625 54.6875 
L 54.390625 54.6875 
z
" id="DejaVuSans-103"/>
      <path d="M 53.515625 70.515625 
L 53.515625 60.890625 
Q 47.90625 63.578125 42.921875 64.890625 
Q 37.9375 66.21875 33.296875 66.21875 
Q 25.25 66.21875 20.875 63.09375 
Q 16.5 59.96875 16.5 54.203125 
Q 16.5 49.359375 19.40625 46.890625 
Q 22.3125 44.4375 30.421875 42.921875 
L 36.375 41.703125 
Q 47.40625 39.59375 52.65625 34.296875 
Q 57.90625 29 57.90625 20.125 
Q 57.90625 9.515625 50.796875 4.046875 
Q 43.703125 -1.421875 29.984375 -1.421875 
Q 24.8125 -1.421875 18.96875 -0.25 
Q 13.140625 0.921875 6.890625 3.21875 
L 6.890625 13.375 
Q 12.890625 10.015625 18.65625 8.296875 
Q 24.421875 6.59375 29.984375 6.59375 
Q 38.421875 6.59375 43.015625 9.90625 
Q 47.609375 13.234375 47.609375 19.390625 
Q 47.609375 24.75 44.3125 27.78125 
Q 41.015625 30.8125 33.5 32.328125 
L 27.484375 33.5 
Q 16.453125 35.6875 11.515625 40.375 
Q 6.59375 45.0625 6.59375 53.421875 
Q 6.59375 63.09375 13.40625 68.65625 
Q 20.21875 74.21875 32.171875 74.21875 
Q 37.3125 74.21875 42.625 73.28125 
Q 47.953125 72.359375 53.515625 70.515625 
z
" id="DejaVuSans-83"/>
      <path d="M 54.890625 33.015625 
L 54.890625 0 
L 45.90625 0 
L 45.90625 32.71875 
Q 45.90625 40.484375 42.875 44.328125 
Q 39.84375 48.1875 33.796875 48.1875 
Q 26.515625 48.1875 22.3125 43.546875 
Q 18.109375 38.921875 18.109375 30.90625 
L 18.109375 0 
L 9.078125 0 
L 9.078125 54.6875 
L 18.109375 54.6875 
L 18.109375 46.1875 
Q 21.34375 51.125 25.703125 53.5625 
Q 30.078125 56 35.796875 56 
Q 45.21875 56 50.046875 50.171875 
Q 54.890625 44.34375 54.890625 33.015625 
z
" id="DejaVuSans-110"/>
     </defs>
     <g transform="translate(217.935625 58.070438)scale(0.1 -0.1)">
      <use xlink:href="#DejaVuSans-115"/>
      <use x="52.099609" xlink:href="#DejaVuSans-97"/>
      <use x="113.378906" xlink:href="#DejaVuSans-109"/>
      <use x="210.791016" xlink:href="#DejaVuSans-112"/>
      <use x="274.267578" xlink:href="#DejaVuSans-108"/>
      <use x="302.050781" xlink:href="#DejaVuSans-101"/>
      <use x="363.574219" xlink:href="#DejaVuSans-45"/>
      <use x="399.658203" xlink:href="#DejaVuSans-49"/>
      <use x="463.28125" xlink:href="#DejaVuSans-45"/>
      <use x="499.365234" xlink:href="#DejaVuSans-49"/>
      <use x="562.988281" xlink:href="#DejaVuSans-95"/>
      <use x="612.988281" xlink:href="#DejaVuSans-69"/>
      <use x="676.171875" xlink:href="#DejaVuSans-120"/>
      <use x="735.304688" xlink:href="#DejaVuSans-111"/>
      <use x="796.486328" xlink:href="#DejaVuSans-109"/>
      <use x="893.898438" xlink:href="#DejaVuSans-101"/>
      <use x="955.421875" xlink:href="#DejaVuSans-67"/>
      <use x="1025.246094" xlink:href="#DejaVuSans-111"/>
      <use x="1086.427734" xlink:href="#DejaVuSans-118"/>
      <use x="1145.607422" xlink:href="#DejaVuSans-101"/>
      <use x="1207.130859" xlink:href="#DejaVuSans-114"/>
      <use x="1248.244141" xlink:href="#DejaVuSans-97"/>
      <use x="1309.523438" xlink:href="#DejaVuSans-103"/>
      <use x="1373" xlink:href="#DejaVuSans-101"/>
      <use x="1434.523438" xlink:href="#DejaVuSans-95"/>
      <use x="1484.523438" xlink:href="#DejaVuSans-83"/>
      <use x="1548" xlink:href="#DejaVuSans-104"/>
      <use x="1611.378906" xlink:href="#DejaVuSans-111"/>
      <use x="1672.560547" xlink:href="#DejaVuSans-114"/>
      <use x="1713.673828" xlink:href="#DejaVuSans-116"/>
      <use x="1752.882812" xlink:href="#DejaVuSans-101"/>
      <use x="1814.40625" xlink:href="#DejaVuSans-110"/>
     </g>
    </g>
    <g id="line2d_24">
     <path d="M 189.935625 69.526688 
L 209.935625 69.526688 
" style="fill:none;stroke:#ff7f0e;stroke-linecap:square;stroke-width:1.5;"/>
    </g>
    <g id="line2d_25"/>
    <g id="text_16">
     <!-- sample-1-2_ExomeCoverage_Shorten -->
     <g transform="translate(217.935625 73.026688)scale(0.1 -0.1)">
      <use xlink:href="#DejaVuSans-115"/>
      <use x="52.099609" xlink:href="#DejaVuSans-97"/>
      <use x="113.378906" xlink:href="#DejaVuSans-109"/>
      <use x="210.791016" xlink:href="#DejaVuSans-112"/>
      <use x="274.267578" xlink:href="#DejaVuSans-108"/>
      <use x="302.050781" xlink:href="#DejaVuSans-101"/>
      <use x="363.574219" xlink:href="#DejaVuSans-45"/>
      <use x="399.658203" xlink:href="#DejaVuSans-49"/>
      <use x="463.28125" xlink:href="#DejaVuSans-45"/>
      <use x="499.365234" xlink:href="#DejaVuSans-50"/>
      <use x="562.988281" xlink:href="#DejaVuSans-95"/>
      <use x="612.988281" xlink:href="#DejaVuSans-69"/>
      <use x="676.171875" xlink:href="#DejaVuSans-120"/>
      <use x="735.304688" xlink:href="#DejaVuSans-111"/>
      <use x="796.486328" xlink:href="#DejaVuSans-109"/>
      <use x="893.898438" xlink:href="#DejaVuSans-101"/>
      <use x="955.421875" xlink:href="#DejaVuSans-67"/>
      <use x="1025.246094" xlink:href="#DejaVuSans-111"/>
      <use x="1086.427734" xlink:href="#DejaVuSans-118"/>
      <use x="1145.607422" xlink:href="#DejaVuSans-101"/>
      <use x="1207.130859" xlink:href="#DejaVuSans-114"/>
      <use x="1248.244141" xlink:href="#DejaVuSans-97"/>
      <use x="1309.523438" xlink:href="#DejaVuSans-103"/>
      <use x="1373" xlink:href="#DejaVuSans-101"/>
      <use x="1434.523438" xlink:href="#DejaVuSans-95"/>
      <use x="1484.523438" xlink:href="#DejaVuSans-83"/>
      <use x="1548" xlink:href="#DejaVuSans-104"/>
      <use x="1611.378906" xlink:href="#DejaVuSans-111"/>
      <use x="1672.560547" xlink:href="#DejaVuSans-114"/>
      <use x="1713.673828" xlink:href="#DejaVuSans-116"/>
      <use x="1752.882812" xlink:href="#DejaVuSans-101"/>
      <use x="1814.40625" xlink:href="#DejaVuSans-110"/>
     </g>
    </g>
    <g id="line2d_26">
     <path d="M 189.935625 84.482938 
L 209.935625 84.482938 
" style="fill:none;stroke:#2ca02c;stroke-linecap:square;stroke-width:1.5;"/>
    </g>
    <g id="line2d_27"/>
    <g id="text_17">
     <!-- sample-1-3_ExomeCoverage_Shorten -->
     <defs>
      <path d="M 40.578125 39.3125 
Q 47.65625 37.796875 51.625 33 
Q 55.609375 28.21875 55.609375 21.1875 
Q 55.609375 10.40625 48.1875 4.484375 
Q 40.765625 -1.421875 27.09375 -1.421875 
Q 22.515625 -1.421875 17.65625 -0.515625 
Q 12.796875 0.390625 7.625 2.203125 
L 7.625 11.71875 
Q 11.71875 9.328125 16.59375 8.109375 
Q 21.484375 6.890625 26.8125 6.890625 
Q 36.078125 6.890625 40.9375 10.546875 
Q 45.796875 14.203125 45.796875 21.1875 
Q 45.796875 27.640625 41.28125 31.265625 
Q 36.765625 34.90625 28.71875 34.90625 
L 20.21875 34.90625 
L 20.21875 43.015625 
L 29.109375 43.015625 
Q 36.375 43.015625 40.234375 45.921875 
Q 44.09375 48.828125 44.09375 54.296875 
Q 44.09375 59.90625 40.109375 62.90625 
Q 36.140625 65.921875 28.71875 65.921875 
Q 24.65625 65.921875 20.015625 65.03125 
Q 15.375 64.15625 9.8125 62.3125 
L 9.8125 71.09375 
Q 15.4375 72.65625 20.34375 73.4375 
Q 25.25 74.21875 29.59375 74.21875 
Q 40.828125 74.21875 47.359375 69.109375 
Q 53.90625 64.015625 53.90625 55.328125 
Q 53.90625 49.265625 50.4375 45.09375 
Q 46.96875 40.921875 40.578125 39.3125 
z
" id="DejaVuSans-51"/>
     </defs>
     <g transform="translate(217.935625 87.982938)scale(0.1 -0.1)">
      <use xlink:href="#DejaVuSans-115"/>
      <use x="52.099609" xlink:href="#DejaVuSans-97"/>
      <use x="113.378906" xlink:href="#DejaVuSans-109"/>
      <use x="210.791016" xlink:href="#DejaVuSans-112"/>
      <use x="274.267578" xlink:href="#DejaVuSans-108"/>
      <use x="302.050781" xlink:href="#DejaVuSans-101"/>
      <use x="363.574219" xlink:href="#DejaVuSans-45"/>
      <use x="399.658203" xlink:href="#DejaVuSans-49"/>
      <use x="463.28125" xlink:href="#DejaVuSans-45"/>
      <use x="499.365234" xlink:href="#DejaVuSans-51"/>
      <use x="562.988281" xlink:href="#DejaVuSans-95"/>
      <use x="612.988281" xlink:href="#DejaVuSans-69"/>
      <use x="676.171875" xlink:href="#DejaVuSans-120"/>
      <use x="735.304688" xlink:href="#DejaVuSans-111"/>
      <use x="796.486328" xlink:href="#DejaVuSans-109"/>
      <use x="893.898438" xlink:href="#DejaVuSans-101"/>
      <use x="955.421875" xlink:href="#DejaVuSans-67"/>
      <use x="1025.246094" xlink:href="#DejaVuSans-111"/>
      <use x="1086.427734" xlink:href="#DejaVuSans-118"/>
      <use x="1145.607422" xlink:href="#DejaVuSans-101"/>
      <use x="1207.130859" xlink:href="#DejaVuSans-114"/>
      <use x="1248.244141" xlink:href="#DejaVuSans-97"/>
      <use x="1309.523438" xlink:href="#DejaVuSans-103"/>
      <use x="1373" xlink:href="#DejaVuSans-101"/>
      <use x="1434.523438" xlink:href="#DejaVuSans-95"/>
      <use x="1484.523438" xlink:href="#DejaVuSans-83"/>
      <use x="1548" xlink:href="#DejaVuSans-104"/>
      <use x="1611.378906" xlink:href="#DejaVuSans-111"/>
      <use x="1672.560547" xlink:href="#DejaVuSans-114"/>
      <use x="1713.673828" xlink:href="#DejaVuSans-116"/>
      <use x="1752.882812" xlink:href="#DejaVuSans-101"/>
      <use x="1814.40625" xlink:href="#DejaVuSans-110"/>
     </g>
    </g>
    <g id="line2d_28">
     <path d="M 189.935625 99.439188 
L 209.935625 99.439188 
" style="fill:none;stroke:#d62728;stroke-linecap:square;stroke-width:1.5;"/>
    </g>
    <g id="line2d_29"/>
    <g id="text_18">
     <!-- sample-1-4_ExomeCoverage_Shorten -->
     <g transform="translate(217.935625 102.939188)scale(0.1 -0.1)">
      <use xlink:href="#DejaVuSans-115"/>
      <use x="52.099609" xlink:href="#DejaVuSans-97"/>
      <use x="113.378906" xlink:href="#DejaVuSans-109"/>
      <use x="210.791016" xlink:href="#DejaVuSans-112"/>
      <use x="274.267578" xlink:href="#DejaVuSans-108"/>
      <use x="302.050781" xlink:href="#DejaVuSans-101"/>
      <use x="363.574219" xlink:href="#DejaVuSans-45"/>
      <use x="399.658203" xlink:href="#DejaVuSans-49"/>
      <use x="463.28125" xlink:href="#DejaVuSans-45"/>
      <use x="499.365234" xlink:href="#DejaVuSans-52"/>
      <use x="562.988281" xlink:href="#DejaVuSans-95"/>
      <use x="612.988281" xlink:href="#DejaVuSans-69"/>
      <use x="676.171875" xlink:href="#DejaVuSans-120"/>
      <use x="735.304688" xlink:href="#DejaVuSans-111"/>
      <use x="796.486328" xlink:href="#DejaVuSans-109"/>
      <use x="893.898438" xlink:href="#DejaVuSans-101"/>
      <use x="955.421875" xlink:href="#DejaVuSans-67"/>
      <use x="1025.246094" xlink:href="#DejaVuSans-111"/>
      <use x="1086.427734" xlink:href="#DejaVuSans-118"/>
      <use x="1145.607422" xlink:href="#DejaVuSans-101"/>
      <use x="1207.130859" xlink:href="#DejaVuSans-114"/>
      <use x="1248.244141" xlink:href="#DejaVuSans-97"/>
      <use x="1309.523438" xlink:href="#DejaVuSans-103"/>
      <use x="1373" xlink:href="#DejaVuSans-101"/>
      <use x="1434.523438" xlink:href="#DejaVuSans-95"/>
      <use x="1484.523438" xlink:href="#DejaVuSans-83"/>
      <use x="1548" xlink:href="#DejaVuSans-104"/>
      <use x="1611.378906" xlink:href="#DejaVuSans-111"/>
      <use x="1672.560547" xlink:href="#DejaVuSans-114"/>
      <use x="1713.673828" xlink:href="#DejaVuSans-116"/>
      <use x="1752.882812" xlink:href="#DejaVuSans-101"/>
      <use x="1814.40625" xlink:href="#DejaVuSans-110"/>
     </g>
    </g>
    <g id="line2d_30">
     <path d="M 189.935625 114.395438 
L 209.935625 114.395438 
" style="fill:none;stroke:#9467bd;stroke-linecap:square;stroke-width:1.5;"/>
    </g>
    <g id="line2d_31"/>
    <g id="text_19">
     <!-- sample-1-5_ExomeCoverage_Shorten -->
     <defs>
      <path d="M 10.796875 72.90625 
L 49.515625 72.90625 
L 49.515625 64.59375 
L 19.828125 64.59375 
L 19.828125 46.734375 
Q 21.96875 47.46875 24.109375 47.828125 
Q 26.265625 48.1875 28.421875 48.1875 
Q 40.625 48.1875 47.75 41.5 
Q 54.890625 34.8125 54.890625 23.390625 
Q 54.890625 11.625 47.5625 5.09375 
Q 40.234375 -1.421875 26.90625 -1.421875 
Q 22.3125 -1.421875 17.546875 -0.640625 
Q 12.796875 0.140625 7.71875 1.703125 
L 7.71875 11.625 
Q 12.109375 9.234375 16.796875 8.0625 
Q 21.484375 6.890625 26.703125 6.890625 
Q 35.15625 6.890625 40.078125 11.328125 
Q 45.015625 15.765625 45.015625 23.390625 
Q 45.015625 31 40.078125 35.4375 
Q 35.15625 39.890625 26.703125 39.890625 
Q 22.75 39.890625 18.8125 39.015625 
Q 14.890625 38.140625 10.796875 36.28125 
z
" id="DejaVuSans-53"/>
     </defs>
     <g transform="translate(217.935625 117.895438)scale(0.1 -0.1)">
      <use xlink:href="#DejaVuSans-115"/>
      <use x="52.099609" xlink:href="#DejaVuSans-97"/>
      <use x="113.378906" xlink:href="#DejaVuSans-109"/>
      <use x="210.791016" xlink:href="#DejaVuSans-112"/>
      <use x="274.267578" xlink:href="#DejaVuSans-108"/>
      <use x="302.050781" xlink:href="#DejaVuSans-101"/>
      <use x="363.574219" xlink:href="#DejaVuSans-45"/>
      <use x="399.658203" xlink:href="#DejaVuSans-49"/>
      <use x="463.28125" xlink:href="#DejaVuSans-45"/>
      <use x="499.365234" xlink:href="#DejaVuSans-53"/>
      <use x="562.988281" xlink:href="#DejaVuSans-95"/>
      <use x="612.988281" xlink:href="#DejaVuSans-69"/>
      <use x="676.171875" xlink:href="#DejaVuSans-120"/>
      <use x="735.304688" xlink:href="#DejaVuSans-111"/>
      <use x="796.486328" xlink:href="#DejaVuSans-109"/>
      <use x="893.898438" xlink:href="#DejaVuSans-101"/>
      <use x="955.421875" xlink:href="#DejaVuSans-67"/>
      <use x="1025.246094" xlink:href="#DejaVuSans-111"/>
      <use x="1086.427734" xlink:href="#DejaVuSans-118"/>
      <use x="1145.607422" xlink:href="#DejaVuSans-101"/>
      <use x="1207.130859" xlink:href="#DejaVuSans-114"/>
      <use x="1248.244141" xlink:href="#DejaVuSans-97"/>
      <use x="1309.523438" xlink:href="#DejaVuSans-103"/>
      <use x="1373" xlink:href="#DejaVuSans-101"/>
      <use x="1434.523438" xlink:href="#DejaVuSans-95"/>
      <use x="1484.523438" xlink:href="#DejaVuSans-83"/>
      <use x="1548" xlink:href="#DejaVuSans-104"/>
      <use x="1611.378906" xlink:href="#DejaVuSans-111"/>
      <use x="1672.560547" xlink:href="#DejaVuSans-114"/>
      <use x="1713.673828" xlink:href="#DejaVuSans-116"/>
      <use x="1752.882812" xlink:href="#DejaVuSans-101"/>
      <use x="1814.40625" xlink:href="#DejaVuSans-110"/>
     </g>
    </g>
    <g id="line2d_32">
     <path d="M 189.935625 129.351688 
L 209.935625 129.351688 
" style="fill:none;stroke:#8c564b;stroke-linecap:square;stroke-width:1.5;"/>
    </g>
    <g id="line2d_33"/>
    <g id="text_20">
     <!-- sample-1-6_ExomeCoverage_Shorten -->
     <g transform="translate(217.935625 132.851688)scale(0.1 -0.1)">
      <use xlink:href="#DejaVuSans-115"/>
      <use x="52.099609" xlink:href="#DejaVuSans-97"/>
      <use x="113.378906" xlink:href="#DejaVuSans-109"/>
      <use x="210.791016" xlink:href="#DejaVuSans-112"/>
      <use x="274.267578" xlink:href="#DejaVuSans-108"/>
      <use x="302.050781" xlink:href="#DejaVuSans-101"/>
      <use x="363.574219" xlink:href="#DejaVuSans-45"/>
      <use x="399.658203" xlink:href="#DejaVuSans-49"/>
      <use x="463.28125" xlink:href="#DejaVuSans-45"/>
      <use x="499.365234" xlink:href="#DejaVuSans-54"/>
      <use x="562.988281" xlink:href="#DejaVuSans-95"/>
      <use x="612.988281" xlink:href="#DejaVuSans-69"/>
      <use x="676.171875" xlink:href="#DejaVuSans-120"/>
      <use x="735.304688" xlink:href="#DejaVuSans-111"/>
      <use x="796.486328" xlink:href="#DejaVuSans-109"/>
      <use x="893.898438" xlink:href="#DejaVuSans-101"/>
      <use x="955.421875" xlink:href="#DejaVuSans-67"/>
      <use x="1025.246094" xlink:href="#DejaVuSans-111"/>
      <use x="1086.427734" xlink:href="#DejaVuSans-118"/>
      <use x="1145.607422" xlink:href="#DejaVuSans-101"/>
      <use x="1207.130859" xlink:href="#DejaVuSans-114"/>
      <use x="1248.244141" xlink:href="#DejaVuSans-97"/>
      <use x="1309.523438" xlink:href="#DejaVuSans-103"/>
      <use x="1373" xlink:href="#DejaVuSans-101"/>
      <use x="1434.523438" xlink:href="#DejaVuSans-95"/>
      <use x="1484.523438" xlink:href="#DejaVuSans-83"/>
      <use x="1548" xlink:href="#DejaVuSans-104"/>
      <use x="1611.378906" xlink:href="#DejaVuSans-111"/>
      <use x="1672.560547" xlink:href="#DejaVuSans-114"/>
      <use x="1713.673828" xlink:href="#DejaVuSans-116"/>
      <use x="1752.882812" xlink:href="#DejaVuSans-101"/>
      <use x="1814.40625" xlink:href="#DejaVuSans-110"/>
     </g>
    </g>
    <g id="line2d_34">
     <path d="M 189.935625 144.307938 
L 209.935625 144.307938 
" style="fill:none;stroke:#e377c2;stroke-linecap:square;stroke-width:1.5;"/>
    </g>
    <g id="line2d_35"/>
    <g id="text_21">
     <!-- sample-1-7_ExomeCoverage_Shorten -->
     <defs>
      <path d="M 8.203125 72.90625 
L 55.078125 72.90625 
L 55.078125 68.703125 
L 28.609375 0 
L 18.3125 0 
L 43.21875 64.59375 
L 8.203125 64.59375 
z
" id="DejaVuSans-55"/>
     </defs>
     <g transform="translate(217.935625 147.807938)scale(0.1 -0.1)">
      <use xlink:href="#DejaVuSans-115"/>
      <use x="52.099609" xlink:href="#DejaVuSans-97"/>
      <use x="113.378906" xlink:href="#DejaVuSans-109"/>
      <use x="210.791016" xlink:href="#DejaVuSans-112"/>
      <use x="274.267578" xlink:href="#DejaVuSans-108"/>
      <use x="302.050781" xlink:href="#DejaVuSans-101"/>
      <use x="363.574219" xlink:href="#DejaVuSans-45"/>
      <use x="399.658203" xlink:href="#DejaVuSans-49"/>
      <use x="463.28125" xlink:href="#DejaVuSans-45"/>
      <use x="499.365234" xlink:href="#DejaVuSans-55"/>
      <use x="562.988281" xlink:href="#DejaVuSans-95"/>
      <use x="612.988281" xlink:href="#DejaVuSans-69"/>
      <use x="676.171875" xlink:href="#DejaVuSans-120"/>
      <use x="735.304688" xlink:href="#DejaVuSans-111"/>
      <use x="796.486328" xlink:href="#DejaVuSans-109"/>
      <use x="893.898438" xlink:href="#DejaVuSans-101"/>
      <use x="955.421875" xlink:href="#DejaVuSans-67"/>
      <use x="1025.246094" xlink:href="#DejaVuSans-111"/>
      <use x="1086.427734" xlink:href="#DejaVuSans-118"/>
      <use x="1145.607422" xlink:href="#DejaVuSans-101"/>
      <use x="1207.130859" xlink:href="#DejaVuSans-114"/>
      <use x="1248.244141" xlink:href="#DejaVuSans-97"/>
      <use x="1309.523438" xlink:href="#DejaVuSans-103"/>
      <use x="1373" xlink:href="#DejaVuSans-101"/>
      <use x="1434.523438" xlink:href="#DejaVuSans-95"/>
      <use x="1484.523438" xlink:href="#DejaVuSans-83"/>
      <use x="1548" xlink:href="#DejaVuSans-104"/>
      <use x="1611.378906" xlink:href="#DejaVuSans-111"/>
      <use x="1672.560547" xlink:href="#DejaVuSans-114"/>
      <use x="1713.673828" xlink:href="#DejaVuSans-116"/>
      <use x="1752.882812" xlink:href="#DejaVuSans-101"/>
      <use x="1814.40625" xlink:href="#DejaVuSans-110"/>
     </g>
    </g>
    <g id="line2d_36">
     <path d="M 189.935625 159.264188 
L 209.935625 159.264188 
" style="fill:none;stroke:#7f7f7f;stroke-linecap:square;stroke-width:1.5;"/>
    </g>
    <g id="line2d_37"/>
    <g id="text_22">
     <!-- sample-1-8_ExomeCoverage_Shorten -->
     <g transform="translate(217.935625 162.764188)scale(0.1 -0.1)">
      <use xlink:href="#DejaVuSans-115"/>
      <use x="52.099609" xlink:href="#DejaVuSans-97"/>
      <use x="113.378906" xlink:href="#DejaVuSans-109"/>
      <use x="210.791016" xlink:href="#DejaVuSans-112"/>
      <use x="274.267578" xlink:href="#DejaVuSans-108"/>
      <use x="302.050781" xlink:href="#DejaVuSans-101"/>
      <use x="363.574219" xlink:href="#DejaVuSans-45"/>
      <use x="399.658203" xlink:href="#DejaVuSans-49"/>
      <use x="463.28125" xlink:href="#DejaVuSans-45"/>
      <use x="499.365234" xlink:href="#DejaVuSans-56"/>
      <use x="562.988281" xlink:href="#DejaVuSans-95"/>
      <use x="612.988281" xlink:href="#DejaVuSans-69"/>
      <use x="676.171875" xlink:href="#DejaVuSans-120"/>
      <use x="735.304688" xlink:href="#DejaVuSans-111"/>
      <use x="796.486328" xlink:href="#DejaVuSans-109"/>
      <use x="893.898438" xlink:href="#DejaVuSans-101"/>
      <use x="955.421875" xlink:href="#DejaVuSans-67"/>
      <use x="1025.246094" xlink:href="#DejaVuSans-111"/>
      <use x="1086.427734" xlink:href="#DejaVuSans-118"/>
      <use x="1145.607422" xlink:href="#DejaVuSans-101"/>
      <use x="1207.130859" xlink:href="#DejaVuSans-114"/>
      <use x="1248.244141" xlink:href="#DejaVuSans-97"/>
      <use x="1309.523438" xlink:href="#DejaVuSans-103"/>
      <use x="1373" xlink:href="#DejaVuSans-101"/>
      <use x="1434.523438" xlink:href="#DejaVuSans-95"/>
      <use x="1484.523438" xlink:href="#DejaVuSans-83"/>
      <use x="1548" xlink:href="#DejaVuSans-104"/>
      <use x="1611.378906" xlink:href="#DejaVuSans-111"/>
      <use x="1672.560547" xlink:href="#DejaVuSans-114"/>
      <use x="1713.673828" xlink:href="#DejaVuSans-116"/>
      <use x="1752.882812" xlink:href="#DejaVuSans-101"/>
      <use x="1814.40625" xlink:href="#DejaVuSans-110"/>
     </g>
    </g>
    <g id="line2d_38">
     <path d="M 189.935625 174.220438 
L 209.935625 174.220438 
" style="fill:none;stroke:#bcbd22;stroke-linecap:square;stroke-width:1.5;"/>
    </g>
    <g id="line2d_39"/>
    <g id="text_23">
     <!-- sample-1-9_ExomeCoverage_Shorten -->
     <defs>
      <path d="M 10.984375 1.515625 
L 10.984375 10.5 
Q 14.703125 8.734375 18.5 7.8125 
Q 22.3125 6.890625 25.984375 6.890625 
Q 35.75 6.890625 40.890625 13.453125 
Q 46.046875 20.015625 46.78125 33.40625 
Q 43.953125 29.203125 39.59375 26.953125 
Q 35.25 24.703125 29.984375 24.703125 
Q 19.046875 24.703125 12.671875 31.3125 
Q 6.296875 37.9375 6.296875 49.421875 
Q 6.296875 60.640625 12.9375 67.421875 
Q 19.578125 74.21875 30.609375 74.21875 
Q 43.265625 74.21875 49.921875 64.515625 
Q 56.59375 54.828125 56.59375 36.375 
Q 56.59375 19.140625 48.40625 8.859375 
Q 40.234375 -1.421875 26.421875 -1.421875 
Q 22.703125 -1.421875 18.890625 -0.6875 
Q 15.09375 0.046875 10.984375 1.515625 
z
M 30.609375 32.421875 
Q 37.25 32.421875 41.125 36.953125 
Q 45.015625 41.5 45.015625 49.421875 
Q 45.015625 57.28125 41.125 61.84375 
Q 37.25 66.40625 30.609375 66.40625 
Q 23.96875 66.40625 20.09375 61.84375 
Q 16.21875 57.28125 16.21875 49.421875 
Q 16.21875 41.5 20.09375 36.953125 
Q 23.96875 32.421875 30.609375 32.421875 
z
" id="DejaVuSans-57"/>
     </defs>
     <g transform="translate(217.935625 177.720438)scale(0.1 -0.1)">
      <use xlink:href="#DejaVuSans-115"/>
      <use x="52.099609" xlink:href="#DejaVuSans-97"/>
      <use x="113.378906" xlink:href="#DejaVuSans-109"/>
      <use x="210.791016" xlink:href="#DejaVuSans-112"/>
      <use x="274.267578" xlink:href="#DejaVuSans-108"/>
      <use x="302.050781" xlink:href="#DejaVuSans-101"/>
      <use x="363.574219" xlink:href="#DejaVuSans-45"/>
      <use x="399.658203" xlink:href="#DejaVuSans-49"/>
      <use x="463.28125" xlink:href="#DejaVuSans-45"/>
      <use x="499.365234" xlink:href="#DejaVuSans-57"/>
      <use x="562.988281" xlink:href="#DejaVuSans-95"/>
      <use x="612.988281" xlink:href="#DejaVuSans-69"/>
      <use x="676.171875" xlink:href="#DejaVuSans-120"/>
      <use x="735.304688" xlink:href="#DejaVuSans-111"/>
      <use x="796.486328" xlink:href="#DejaVuSans-109"/>
      <use x="893.898438" xlink:href="#DejaVuSans-101"/>
      <use x="955.421875" xlink:href="#DejaVuSans-67"/>
      <use x="1025.246094" xlink:href="#DejaVuSans-111"/>
      <use x="1086.427734" xlink:href="#DejaVuSans-118"/>
      <use x="1145.607422" xlink:href="#DejaVuSans-101"/>
      <use x="1207.130859" xlink:href="#DejaVuSans-114"/>
      <use x="1248.244141" xlink:href="#DejaVuSans-97"/>
      <use x="1309.523438" xlink:href="#DejaVuSans-103"/>
      <use x="1373" xlink:href="#DejaVuSans-101"/>
      <use x="1434.523438" xlink:href="#DejaVuSans-95"/>
      <use x="1484.523438" xlink:href="#DejaVuSans-83"/>
      <use x="1548" xlink:href="#DejaVuSans-104"/>
      <use x="1611.378906" xlink:href="#DejaVuSans-111"/>
      <use x="1672.560547" xlink:href="#DejaVuSans-114"/>
      <use x="1713.673828" xlink:href="#DejaVuSans-116"/>
      <use x="1752.882812" xlink:href="#DejaVuSans-101"/>
      <use x="1814.40625" xlink:href="#DejaVuSans-110"/>
     </g>
    </g>
   </g>
  </g>
  <g id="text_24">
   <!-- Cumulative coverage (all) -->
   <defs>
    <path d="M 8.5 21.578125 
L 8.5 54.6875 
L 17.484375 54.6875 
L 17.484375 21.921875 
Q 17.484375 14.15625 20.5 10.265625 
Q 23.53125 6.390625 29.59375 6.390625 
Q 36.859375 6.390625 41.078125 11.03125 
Q 45.3125 15.671875 45.3125 23.6875 
L 45.3125 54.6875 
L 54.296875 54.6875 
L 54.296875 0 
L 45.3125 0 
L 45.3125 8.40625 
Q 42.046875 3.421875 37.71875 1 
Q 33.40625 -1.421875 27.6875 -1.421875 
Q 18.265625 -1.421875 13.375 4.4375 
Q 8.5 10.296875 8.5 21.578125 
z
M 31.109375 56 
z
" id="DejaVuSans-117"/>
    <path d="M 48.78125 52.59375 
L 48.78125 44.1875 
Q 44.96875 46.296875 41.140625 47.34375 
Q 37.3125 48.390625 33.40625 48.390625 
Q 24.65625 48.390625 19.8125 42.84375 
Q 14.984375 37.3125 14.984375 27.296875 
Q 14.984375 17.28125 19.8125 11.734375 
Q 24.65625 6.203125 33.40625 6.203125 
Q 37.3125 6.203125 41.140625 7.25 
Q 44.96875 8.296875 48.78125 10.40625 
L 48.78125 2.09375 
Q 45.015625 0.34375 40.984375 -0.53125 
Q 36.96875 -1.421875 32.421875 -1.421875 
Q 20.0625 -1.421875 12.78125 6.34375 
Q 5.515625 14.109375 5.515625 27.296875 
Q 5.515625 40.671875 12.859375 48.328125 
Q 20.21875 56 33.015625 56 
Q 37.15625 56 41.109375 55.140625 
Q 45.0625 54.296875 48.78125 52.59375 
z
" id="DejaVuSans-99"/>
    <path d="M 31 75.875 
Q 24.46875 64.65625 21.28125 53.65625 
Q 18.109375 42.671875 18.109375 31.390625 
Q 18.109375 20.125 21.3125 9.0625 
Q 24.515625 -2 31 -13.1875 
L 23.1875 -13.1875 
Q 15.875 -1.703125 12.234375 9.375 
Q 8.59375 20.453125 8.59375 31.390625 
Q 8.59375 42.28125 12.203125 53.3125 
Q 15.828125 64.359375 23.1875 75.875 
z
" id="DejaVuSans-40"/>
    <path d="M 8.015625 75.875 
L 15.828125 75.875 
Q 23.140625 64.359375 26.78125 53.3125 
Q 30.421875 42.28125 30.421875 31.390625 
Q 30.421875 20.453125 26.78125 9.375 
Q 23.140625 -1.703125 15.828125 -13.1875 
L 8.015625 -13.1875 
Q 14.5 -2 17.703125 9.0625 
Q 20.90625 20.125 20.90625 31.390625 
Q 20.90625 42.671875 17.703125 53.65625 
Q 14.5 64.65625 8.015625 75.875 
z
" id="DejaVuSans-41"/>
   </defs>
   <g transform="translate(152.790938 16.030125)scale(0.12 -0.12)">
    <use xlink:href="#DejaVuSans-67"/>
    <use x="69.824219" xlink:href="#DejaVuSans-117"/>
    <use x="133.203125" xlink:href="#DejaVuSans-109"/>
    <use x="230.615234" xlink:href="#DejaVuSans-117"/>
    <use x="293.994141" xlink:href="#DejaVuSans-108"/>
    <use x="321.777344" xlink:href="#DejaVuSans-97"/>
    <use x="383.056641" xlink:href="#DejaVuSans-116"/>
    <use x="422.265625" xlink:href="#DejaVuSans-105"/>
    <use x="450.048828" xlink:href="#DejaVuSans-118"/>
    <use x="509.228516" xlink:href="#DejaVuSans-101"/>
    <use x="570.751953" xlink:href="#DejaVuSans-32"/>
    <use x="602.539062" xlink:href="#DejaVuSans-99"/>
    <use x="657.519531" xlink:href="#DejaVuSans-111"/>
    <use x="718.701172" xlink:href="#DejaVuSans-118"/>
    <use x="777.880859" xlink:href="#DejaVuSans-101"/>
    <use x="839.404297" xlink:href="#DejaVuSans-114"/>
    <use x="880.517578" xlink:href="#DejaVuSans-97"/>
    <use x="941.796875" xlink:href="#DejaVuSans-103"/>
    <use x="1005.273438" xlink:href="#DejaVuSans-101"/>
    <use x="1066.796875" xlink:href="#DejaVuSans-32"/>
    <use x="1098.583984" xlink:href="#DejaVuSans-40"/>
    <use x="1137.597656" xlink:href="#DejaVuSans-97"/>
    <use x="1198.876953" xlink:href="#DejaVuSans-108"/>
    <use x="1226.660156" xlink:href="#DejaVuSans-108"/>
    <use x="1254.443359" xlink:href="#DejaVuSans-41"/>
   </g>
  </g>
 </g>
 <defs>
  <clipPath id="pc851bb7a4e">
   <rect height="266.112" width="357.12" x="57.6" y="41.472"/>
  </clipPath>
 </defs>
</svg>
