<?xml version="1.0" encoding="utf-8" standalone="no"?>
<!DOCTYPE svg PUBLIC "-//W3C//DTD SVG 1.1//EN"
  "http://www.w3.org/Graphics/SVG/1.1/DTD/svg11.dtd">
<!-- Created with matplotlib (https://matplotlib.org/) -->
<svg height="345.6pt" version="1.1" viewBox="0 0 460.8 345.6" width="460.8pt" xmlns="http://www.w3.org/2000/svg" xmlns:xlink="http://www.w3.org/1999/xlink">
 <defs>
  <style type="text/css">
*{stroke-linecap:butt;stroke-linejoin:round;}
  </style>
 </defs>
 <g id="figure_1">
  <g id="patch_1">
   <path d="M 0 345.6 
L 460.8 345.6 
L 460.8 0 
L 0 0 
z
" style="fill:#ffffff;"/>
  </g>
  <g id="axes_1">
   <g id="patch_2">
    <path d="M 57.6 307.584 
L 414.72 307.584 
L 414.72 41.472 
L 57.6 41.472 
z
" style="fill:#ffffff;"/>
   </g>
   <g id="matplotlib.axis_1">
    <g id="xtick_1">
     <g id="line2d_1">
      <defs>
       <path d="M 0 0 
L 0 3.5 
" id="m5c1bec80b6" style="stroke:#000000;stroke-width:0.8;"/>
      </defs>
      <g>
       <use style="stroke:#000000;stroke-width:0.8;" x="73.832727" xlink:href="#m5c1bec80b6" y="307.584"/>
      </g>
     </g>
     <g id="text_1">
      <!-- 0 -->
      <defs>
       <path d="M 31.78125 66.40625 
Q 24.171875 66.40625 20.328125 58.90625 
Q 16.5 51.421875 16.5 36.375 
Q 16.5 21.390625 20.328125 13.890625 
Q 24.171875 6.390625 31.78125 6.390625 
Q 39.453125 6.390625 43.28125 13.890625 
Q 47.125 21.390625 47.125 36.375 
Q 47.125 51.421875 43.28125 58.90625 
Q 39.453125 66.40625 31.78125 66.40625 
z
M 31.78125 74.21875 
Q 44.046875 74.21875 50.515625 64.515625 
Q 56.984375 54.828125 56.984375 36.375 
Q 56.984375 17.96875 50.515625 8.265625 
Q 44.046875 -1.421875 31.78125 -1.421875 
Q 19.53125 -1.421875 13.0625 8.265625 
Q 6.59375 17.96875 6.59375 36.375 
Q 6.59375 54.828125 13.0625 64.515625 
Q 19.53125 74.21875 31.78125 74.21875 
z
" id="DejaVuSans-48"/>
      </defs>
      <g transform="translate(70.651477 322.182437)scale(0.1 -0.1)">
       <use xlink:href="#DejaVuSans-48"/>
      </g>
     </g>
    </g>
    <g id="xtick_2">
     <g id="line2d_2">
      <g>
       <use style="stroke:#000000;stroke-width:0.8;" x="139.419504" xlink:href="#m5c1bec80b6" y="307.584"/>
      </g>
     </g>
     <g id="text_2">
      <!-- 20 -->
      <defs>
       <path d="M 19.1875 8.296875 
L 53.609375 8.296875 
L 53.609375 0 
L 7.328125 0 
L 7.328125 8.296875 
Q 12.9375 14.109375 22.625 23.890625 
Q 32.328125 33.6875 34.8125 36.53125 
Q 39.546875 41.84375 41.421875 45.53125 
Q 43.3125 49.21875 43.3125 52.78125 
Q 43.3125 58.59375 39.234375 62.25 
Q 35.15625 65.921875 28.609375 65.921875 
Q 23.96875 65.921875 18.8125 64.3125 
Q 13.671875 62.703125 7.8125 59.421875 
L 7.8125 69.390625 
Q 13.765625 71.78125 18.9375 73 
Q 24.125 74.21875 28.421875 74.21875 
Q 39.75 74.21875 46.484375 68.546875 
Q 53.21875 62.890625 53.21875 53.421875 
Q 53.21875 48.921875 51.53125 44.890625 
Q 49.859375 40.875 45.40625 35.40625 
Q 44.1875 33.984375 37.640625 27.21875 
Q 31.109375 20.453125 19.1875 8.296875 
z
" id="DejaVuSans-50"/>
      </defs>
      <g transform="translate(133.057004 322.182437)scale(0.1 -0.1)">
       <use xlink:href="#DejaVuSans-50"/>
       <use x="63.623047" xlink:href="#DejaVuSans-48"/>
      </g>
     </g>
    </g>
    <g id="xtick_3">
     <g id="line2d_3">
      <g>
       <use style="stroke:#000000;stroke-width:0.8;" x="205.006281" xlink:href="#m5c1bec80b6" y="307.584"/>
      </g>
     </g>
     <g id="text_3">
      <!-- 40 -->
      <defs>
       <path d="M 37.796875 64.3125 
L 12.890625 25.390625 
L 37.796875 25.390625 
z
M 35.203125 72.90625 
L 47.609375 72.90625 
L 47.609375 25.390625 
L 58.015625 25.390625 
L 58.015625 17.1875 
L 47.609375 17.1875 
L 47.609375 0 
L 37.796875 0 
L 37.796875 17.1875 
L 4.890625 17.1875 
L 4.890625 26.703125 
z
" id="DejaVuSans-52"/>
      </defs>
      <g transform="translate(198.643781 322.182437)scale(0.1 -0.1)">
       <use xlink:href="#DejaVuSans-52"/>
       <use x="63.623047" xlink:href="#DejaVuSans-48"/>
      </g>
     </g>
    </g>
    <g id="xtick_4">
     <g id="line2d_4">
      <g>
       <use style="stroke:#000000;stroke-width:0.8;" x="270.593058" xlink:href="#m5c1bec80b6" y="307.584"/>
      </g>
     </g>
     <g id="text_4">
      <!-- 60 -->
      <defs>
       <path d="M 33.015625 40.375 
Q 26.375 40.375 22.484375 35.828125 
Q 18.609375 31.296875 18.609375 23.390625 
Q 18.609375 15.53125 22.484375 10.953125 
Q 26.375 6.390625 33.015625 6.390625 
Q 39.65625 6.390625 43.53125 10.953125 
Q 47.40625 15.53125 47.40625 23.390625 
Q 47.40625 31.296875 43.53125 35.828125 
Q 39.65625 40.375 33.015625 40.375 
z
M 52.59375 71.296875 
L 52.59375 62.3125 
Q 48.875 64.0625 45.09375 64.984375 
Q 41.3125 65.921875 37.59375 65.921875 
Q 27.828125 65.921875 22.671875 59.328125 
Q 17.53125 52.734375 16.796875 39.40625 
Q 19.671875 43.65625 24.015625 45.921875 
Q 28.375 48.1875 33.59375 48.1875 
Q 44.578125 48.1875 50.953125 41.515625 
Q 57.328125 34.859375 57.328125 23.390625 
Q 57.328125 12.15625 50.6875 5.359375 
Q 44.046875 -1.421875 33.015625 -1.421875 
Q 20.359375 -1.421875 13.671875 8.265625 
Q 6.984375 17.96875 6.984375 36.375 
Q 6.984375 53.65625 15.1875 63.9375 
Q 23.390625 74.21875 37.203125 74.21875 
Q 40.921875 74.21875 44.703125 73.484375 
Q 48.484375 72.75 52.59375 71.296875 
z
" id="DejaVuSans-54"/>
      </defs>
      <g transform="translate(264.230558 322.182437)scale(0.1 -0.1)">
       <use xlink:href="#DejaVuSans-54"/>
       <use x="63.623047" xlink:href="#DejaVuSans-48"/>
      </g>
     </g>
    </g>
    <g id="xtick_5">
     <g id="line2d_5">
      <g>
       <use style="stroke:#000000;stroke-width:0.8;" x="336.179835" xlink:href="#m5c1bec80b6" y="307.584"/>
      </g>
     </g>
     <g id="text_5">
      <!-- 80 -->
      <defs>
       <path d="M 31.78125 34.625 
Q 24.75 34.625 20.71875 30.859375 
Q 16.703125 27.09375 16.703125 20.515625 
Q 16.703125 13.921875 20.71875 10.15625 
Q 24.75 6.390625 31.78125 6.390625 
Q 38.8125 6.390625 42.859375 10.171875 
Q 46.921875 13.96875 46.921875 20.515625 
Q 46.921875 27.09375 42.890625 30.859375 
Q 38.875 34.625 31.78125 34.625 
z
M 21.921875 38.8125 
Q 15.578125 40.375 12.03125 44.71875 
Q 8.5 49.078125 8.5 55.328125 
Q 8.5 64.0625 14.71875 69.140625 
Q 20.953125 74.21875 31.78125 74.21875 
Q 42.671875 74.21875 48.875 69.140625 
Q 55.078125 64.0625 55.078125 55.328125 
Q 55.078125 49.078125 51.53125 44.71875 
Q 48 40.375 41.703125 38.8125 
Q 48.828125 37.15625 52.796875 32.3125 
Q 56.78125 27.484375 56.78125 20.515625 
Q 56.78125 9.90625 50.3125 4.234375 
Q 43.84375 -1.421875 31.78125 -1.421875 
Q 19.734375 -1.421875 13.25 4.234375 
Q 6.78125 9.90625 6.78125 20.515625 
Q 6.78125 27.484375 10.78125 32.3125 
Q 14.796875 37.15625 21.921875 38.8125 
z
M 18.3125 54.390625 
Q 18.3125 48.734375 21.84375 45.5625 
Q 25.390625 42.390625 31.78125 42.390625 
Q 38.140625 42.390625 41.71875 45.5625 
Q 45.3125 48.734375 45.3125 54.390625 
Q 45.3125 60.0625 41.71875 63.234375 
Q 38.140625 66.40625 31.78125 66.40625 
Q 25.390625 66.40625 21.84375 63.234375 
Q 18.3125 60.0625 18.3125 54.390625 
z
" id="DejaVuSans-56"/>
      </defs>
      <g transform="translate(329.817335 322.182437)scale(0.1 -0.1)">
       <use xlink:href="#DejaVuSans-56"/>
       <use x="63.623047" xlink:href="#DejaVuSans-48"/>
      </g>
     </g>
    </g>
    <g id="xtick_6">
     <g id="line2d_6">
      <g>
       <use style="stroke:#000000;stroke-width:0.8;" x="401.766612" xlink:href="#m5c1bec80b6" y="307.584"/>
      </g>
     </g>
     <g id="text_6">
      <!-- 100 -->
      <defs>
       <path d="M 12.40625 8.296875 
L 28.515625 8.296875 
L 28.515625 63.921875 
L 10.984375 60.40625 
L 10.984375 69.390625 
L 28.421875 72.90625 
L 38.28125 72.90625 
L 38.28125 8.296875 
L 54.390625 8.296875 
L 54.390625 0 
L 12.40625 0 
z
" id="DejaVuSans-49"/>
      </defs>
      <g transform="translate(392.222862 322.182437)scale(0.1 -0.1)">
       <use xlink:href="#DejaVuSans-49"/>
       <use x="63.623047" xlink:href="#DejaVuSans-48"/>
       <use x="127.246094" xlink:href="#DejaVuSans-48"/>
      </g>
     </g>
    </g>
    <g id="text_7">
     <!-- Depth -->
     <defs>
      <path d="M 19.671875 64.796875 
L 19.671875 8.109375 
L 31.59375 8.109375 
Q 46.6875 8.109375 53.6875 14.9375 
Q 60.6875 21.78125 60.6875 36.53125 
Q 60.6875 51.171875 53.6875 57.984375 
Q 46.6875 64.796875 31.59375 64.796875 
z
M 9.8125 72.90625 
L 30.078125 72.90625 
Q 51.265625 72.90625 61.171875 64.09375 
Q 71.09375 55.28125 71.09375 36.53125 
Q 71.09375 17.671875 61.125 8.828125 
Q 51.171875 0 30.078125 0 
L 9.8125 0 
z
" id="DejaVuSans-68"/>
      <path d="M 56.203125 29.59375 
L 56.203125 25.203125 
L 14.890625 25.203125 
Q 15.484375 15.921875 20.484375 11.0625 
Q 25.484375 6.203125 34.421875 6.203125 
Q 39.59375 6.203125 44.453125 7.46875 
Q 49.3125 8.734375 54.109375 11.28125 
L 54.109375 2.78125 
Q 49.265625 0.734375 44.1875 -0.34375 
Q 39.109375 -1.421875 33.890625 -1.421875 
Q 20.796875 -1.421875 13.15625 6.1875 
Q 5.515625 13.8125 5.515625 26.8125 
Q 5.515625 40.234375 12.765625 48.109375 
Q 20.015625 56 32.328125 56 
Q 43.359375 56 49.78125 48.890625 
Q 56.203125 41.796875 56.203125 29.59375 
z
M 47.21875 32.234375 
Q 47.125 39.59375 43.09375 43.984375 
Q 39.0625 48.390625 32.421875 48.390625 
Q 24.90625 48.390625 20.390625 44.140625 
Q 15.875 39.890625 15.1875 32.171875 
z
" id="DejaVuSans-101"/>
      <path d="M 18.109375 8.203125 
L 18.109375 -20.796875 
L 9.078125 -20.796875 
L 9.078125 54.6875 
L 18.109375 54.6875 
L 18.109375 46.390625 
Q 20.953125 51.265625 25.265625 53.625 
Q 29.59375 56 35.59375 56 
Q 45.5625 56 51.78125 48.09375 
Q 58.015625 40.1875 58.015625 27.296875 
Q 58.015625 14.40625 51.78125 6.484375 
Q 45.5625 -1.421875 35.59375 -1.421875 
Q 29.59375 -1.421875 25.265625 0.953125 
Q 20.953125 3.328125 18.109375 8.203125 
z
M 48.6875 27.296875 
Q 48.6875 37.203125 44.609375 42.84375 
Q 40.53125 48.484375 33.40625 48.484375 
Q 26.265625 48.484375 22.1875 42.84375 
Q 18.109375 37.203125 18.109375 27.296875 
Q 18.109375 17.390625 22.1875 11.75 
Q 26.265625 6.109375 33.40625 6.109375 
Q 40.53125 6.109375 44.609375 11.75 
Q 48.6875 17.390625 48.6875 27.296875 
z
" id="DejaVuSans-112"/>
      <path d="M 18.3125 70.21875 
L 18.3125 54.6875 
L 36.8125 54.6875 
L 36.8125 47.703125 
L 18.3125 47.703125 
L 18.3125 18.015625 
Q 18.3125 11.328125 20.140625 9.421875 
Q 21.96875 7.515625 27.59375 7.515625 
L 36.8125 7.515625 
L 36.8125 0 
L 27.59375 0 
Q 17.1875 0 13.234375 3.875 
Q 9.28125 7.765625 9.28125 18.015625 
L 9.28125 47.703125 
L 2.6875 47.703125 
L 2.6875 54.6875 
L 9.28125 54.6875 
L 9.28125 70.21875 
z
" id="DejaVuSans-116"/>
      <path d="M 54.890625 33.015625 
L 54.890625 0 
L 45.90625 0 
L 45.90625 32.71875 
Q 45.90625 40.484375 42.875 44.328125 
Q 39.84375 48.1875 33.796875 48.1875 
Q 26.515625 48.1875 22.3125 43.546875 
Q 18.109375 38.921875 18.109375 30.90625 
L 18.109375 0 
L 9.078125 0 
L 9.078125 75.984375 
L 18.109375 75.984375 
L 18.109375 46.1875 
Q 21.34375 51.125 25.703125 53.5625 
Q 30.078125 56 35.796875 56 
Q 45.21875 56 50.046875 50.171875 
Q 54.890625 44.34375 54.890625 33.015625 
z
" id="DejaVuSans-104"/>
     </defs>
     <g transform="translate(220.930312 335.860562)scale(0.1 -0.1)">
      <use xlink:href="#DejaVuSans-68"/>
      <use x="77.001953" xlink:href="#DejaVuSans-101"/>
      <use x="138.525391" xlink:href="#DejaVuSans-112"/>
      <use x="202.001953" xlink:href="#DejaVuSans-116"/>
      <use x="241.210938" xlink:href="#DejaVuSans-104"/>
     </g>
    </g>
   </g>
   <g id="matplotlib.axis_2">
    <g id="ytick_1">
     <g id="line2d_7">
      <defs>
       <path d="M 0 0 
L -3.5 0 
" id="m03c098bdc5" style="stroke:#000000;stroke-width:0.8;"/>
      </defs>
      <g>
       <use style="stroke:#000000;stroke-width:0.8;" x="57.6" xlink:href="#m03c098bdc5" y="303.840503"/>
      </g>
     </g>
     <g id="text_8">
      <!-- 0.0 -->
      <defs>
       <path d="M 10.6875 12.40625 
L 21 12.40625 
L 21 0 
L 10.6875 0 
z
" id="DejaVuSans-46"/>
      </defs>
      <g transform="translate(34.696875 307.639722)scale(0.1 -0.1)">
       <use xlink:href="#DejaVuSans-48"/>
       <use x="63.623047" xlink:href="#DejaVuSans-46"/>
       <use x="95.410156" xlink:href="#DejaVuSans-48"/>
      </g>
     </g>
    </g>
    <g id="ytick_2">
     <g id="line2d_8">
      <g>
       <use style="stroke:#000000;stroke-width:0.8;" x="57.6" xlink:href="#m03c098bdc5" y="253.786002"/>
      </g>
     </g>
     <g id="text_9">
      <!-- 0.2 -->
      <g transform="translate(34.696875 257.585221)scale(0.1 -0.1)">
       <use xlink:href="#DejaVuSans-48"/>
       <use x="63.623047" xlink:href="#DejaVuSans-46"/>
       <use x="95.410156" xlink:href="#DejaVuSans-50"/>
      </g>
     </g>
    </g>
    <g id="ytick_3">
     <g id="line2d_9">
      <g>
       <use style="stroke:#000000;stroke-width:0.8;" x="57.6" xlink:href="#m03c098bdc5" y="203.731502"/>
      </g>
     </g>
     <g id="text_10">
      <!-- 0.4 -->
      <g transform="translate(34.696875 207.530721)scale(0.1 -0.1)">
       <use xlink:href="#DejaVuSans-48"/>
       <use x="63.623047" xlink:href="#DejaVuSans-46"/>
       <use x="95.410156" xlink:href="#DejaVuSans-52"/>
      </g>
     </g>
    </g>
    <g id="ytick_4">
     <g id="line2d_10">
      <g>
       <use style="stroke:#000000;stroke-width:0.8;" x="57.6" xlink:href="#m03c098bdc5" y="153.677001"/>
      </g>
     </g>
     <g id="text_11">
      <!-- 0.6 -->
      <g transform="translate(34.696875 157.47622)scale(0.1 -0.1)">
       <use xlink:href="#DejaVuSans-48"/>
       <use x="63.623047" xlink:href="#DejaVuSans-46"/>
       <use x="95.410156" xlink:href="#DejaVuSans-54"/>
      </g>
     </g>
    </g>
    <g id="ytick_5">
     <g id="line2d_11">
      <g>
       <use style="stroke:#000000;stroke-width:0.8;" x="57.6" xlink:href="#m03c098bdc5" y="103.622501"/>
      </g>
     </g>
     <g id="text_12">
      <!-- 0.8 -->
      <g transform="translate(34.696875 107.421719)scale(0.1 -0.1)">
       <use xlink:href="#DejaVuSans-48"/>
       <use x="63.623047" xlink:href="#DejaVuSans-46"/>
       <use x="95.410156" xlink:href="#DejaVuSans-56"/>
      </g>
     </g>
    </g>
    <g id="ytick_6">
     <g id="line2d_12">
      <g>
       <use style="stroke:#000000;stroke-width:0.8;" x="57.6" xlink:href="#m03c098bdc5" y="53.568"/>
      </g>
     </g>
     <g id="text_13">
      <!-- 1.0 -->
      <g transform="translate(34.696875 57.367219)scale(0.1 -0.1)">
       <use xlink:href="#DejaVuSans-49"/>
       <use x="63.623047" xlink:href="#DejaVuSans-46"/>
       <use x="95.410156" xlink:href="#DejaVuSans-48"/>
      </g>
     </g>
    </g>
    <g id="text_14">
     <!-- % from A at depth -->
     <defs>
      <path d="M 72.703125 32.078125 
Q 68.453125 32.078125 66.03125 28.46875 
Q 63.625 24.859375 63.625 18.40625 
Q 63.625 12.0625 66.03125 8.421875 
Q 68.453125 4.78125 72.703125 4.78125 
Q 76.859375 4.78125 79.265625 8.421875 
Q 81.6875 12.0625 81.6875 18.40625 
Q 81.6875 24.8125 79.265625 28.4375 
Q 76.859375 32.078125 72.703125 32.078125 
z
M 72.703125 38.28125 
Q 80.421875 38.28125 84.953125 32.90625 
Q 89.5 27.546875 89.5 18.40625 
Q 89.5 9.28125 84.9375 3.921875 
Q 80.375 -1.421875 72.703125 -1.421875 
Q 64.890625 -1.421875 60.34375 3.921875 
Q 55.8125 9.28125 55.8125 18.40625 
Q 55.8125 27.59375 60.375 32.9375 
Q 64.9375 38.28125 72.703125 38.28125 
z
M 22.3125 68.015625 
Q 18.109375 68.015625 15.6875 64.375 
Q 13.28125 60.75 13.28125 54.390625 
Q 13.28125 47.953125 15.671875 44.328125 
Q 18.0625 40.71875 22.3125 40.71875 
Q 26.5625 40.71875 28.96875 44.328125 
Q 31.390625 47.953125 31.390625 54.390625 
Q 31.390625 60.6875 28.953125 64.34375 
Q 26.515625 68.015625 22.3125 68.015625 
z
M 66.40625 74.21875 
L 74.21875 74.21875 
L 28.609375 -1.421875 
L 20.796875 -1.421875 
z
M 22.3125 74.21875 
Q 30.03125 74.21875 34.609375 68.875 
Q 39.203125 63.53125 39.203125 54.390625 
Q 39.203125 45.171875 34.640625 39.84375 
Q 30.078125 34.515625 22.3125 34.515625 
Q 14.546875 34.515625 10.03125 39.859375 
Q 5.515625 45.21875 5.515625 54.390625 
Q 5.515625 63.484375 10.046875 68.84375 
Q 14.59375 74.21875 22.3125 74.21875 
z
" id="DejaVuSans-37"/>
      <path id="DejaVuSans-32"/>
      <path d="M 37.109375 75.984375 
L 37.109375 68.5 
L 28.515625 68.5 
Q 23.6875 68.5 21.796875 66.546875 
Q 19.921875 64.59375 19.921875 59.515625 
L 19.921875 54.6875 
L 34.71875 54.6875 
L 34.71875 47.703125 
L 19.921875 47.703125 
L 19.921875 0 
L 10.890625 0 
L 10.890625 47.703125 
L 2.296875 47.703125 
L 2.296875 54.6875 
L 10.890625 54.6875 
L 10.890625 58.5 
Q 10.890625 67.625 15.140625 71.796875 
Q 19.390625 75.984375 28.609375 75.984375 
z
" id="DejaVuSans-102"/>
      <path d="M 41.109375 46.296875 
Q 39.59375 47.171875 37.8125 47.578125 
Q 36.03125 48 33.890625 48 
Q 26.265625 48 22.1875 43.046875 
Q 18.109375 38.09375 18.109375 28.8125 
L 18.109375 0 
L 9.078125 0 
L 9.078125 54.6875 
L 18.109375 54.6875 
L 18.109375 46.1875 
Q 20.953125 51.171875 25.484375 53.578125 
Q 30.03125 56 36.53125 56 
Q 37.453125 56 38.578125 55.875 
Q 39.703125 55.765625 41.0625 55.515625 
z
" id="DejaVuSans-114"/>
      <path d="M 30.609375 48.390625 
Q 23.390625 48.390625 19.1875 42.75 
Q 14.984375 37.109375 14.984375 27.296875 
Q 14.984375 17.484375 19.15625 11.84375 
Q 23.34375 6.203125 30.609375 6.203125 
Q 37.796875 6.203125 41.984375 11.859375 
Q 46.1875 17.53125 46.1875 27.296875 
Q 46.1875 37.015625 41.984375 42.703125 
Q 37.796875 48.390625 30.609375 48.390625 
z
M 30.609375 56 
Q 42.328125 56 49.015625 48.375 
Q 55.71875 40.765625 55.71875 27.296875 
Q 55.71875 13.875 49.015625 6.21875 
Q 42.328125 -1.421875 30.609375 -1.421875 
Q 18.84375 -1.421875 12.171875 6.21875 
Q 5.515625 13.875 5.515625 27.296875 
Q 5.515625 40.765625 12.171875 48.375 
Q 18.84375 56 30.609375 56 
z
" id="DejaVuSans-111"/>
      <path d="M 52 44.1875 
Q 55.375 50.25 60.0625 53.125 
Q 64.75 56 71.09375 56 
Q 79.640625 56 84.28125 50.015625 
Q 88.921875 44.046875 88.921875 33.015625 
L 88.921875 0 
L 79.890625 0 
L 79.890625 32.71875 
Q 79.890625 40.578125 77.09375 44.375 
Q 74.3125 48.1875 68.609375 48.1875 
Q 61.625 48.1875 57.5625 43.546875 
Q 53.515625 38.921875 53.515625 30.90625 
L 53.515625 0 
L 44.484375 0 
L 44.484375 32.71875 
Q 44.484375 40.625 41.703125 44.40625 
Q 38.921875 48.1875 33.109375 48.1875 
Q 26.21875 48.1875 22.15625 43.53125 
Q 18.109375 38.875 18.109375 30.90625 
L 18.109375 0 
L 9.078125 0 
L 9.078125 54.6875 
L 18.109375 54.6875 
L 18.109375 46.1875 
Q 21.1875 51.21875 25.484375 53.609375 
Q 29.78125 56 35.6875 56 
Q 41.65625 56 45.828125 52.96875 
Q 50 49.953125 52 44.1875 
z
" id="DejaVuSans-109"/>
      <path d="M 34.1875 63.1875 
L 20.796875 26.90625 
L 47.609375 26.90625 
z
M 28.609375 72.90625 
L 39.796875 72.90625 
L 67.578125 0 
L 57.328125 0 
L 50.6875 18.703125 
L 17.828125 18.703125 
L 11.1875 0 
L 0.78125 0 
z
" id="DejaVuSans-65"/>
      <path d="M 34.28125 27.484375 
Q 23.390625 27.484375 19.1875 25 
Q 14.984375 22.515625 14.984375 16.5 
Q 14.984375 11.71875 18.140625 8.90625 
Q 21.296875 6.109375 26.703125 6.109375 
Q 34.1875 6.109375 38.703125 11.40625 
Q 43.21875 16.703125 43.21875 25.484375 
L 43.21875 27.484375 
z
M 52.203125 31.203125 
L 52.203125 0 
L 43.21875 0 
L 43.21875 8.296875 
Q 40.140625 3.328125 35.546875 0.953125 
Q 30.953125 -1.421875 24.3125 -1.421875 
Q 15.921875 -1.421875 10.953125 3.296875 
Q 6 8.015625 6 15.921875 
Q 6 25.140625 12.171875 29.828125 
Q 18.359375 34.515625 30.609375 34.515625 
L 43.21875 34.515625 
L 43.21875 35.40625 
Q 43.21875 41.609375 39.140625 45 
Q 35.0625 48.390625 27.6875 48.390625 
Q 23 48.390625 18.546875 47.265625 
Q 14.109375 46.140625 10.015625 43.890625 
L 10.015625 52.203125 
Q 14.9375 54.109375 19.578125 55.046875 
Q 24.21875 56 28.609375 56 
Q 40.484375 56 46.34375 49.84375 
Q 52.203125 43.703125 52.203125 31.203125 
z
" id="DejaVuSans-97"/>
      <path d="M 45.40625 46.390625 
L 45.40625 75.984375 
L 54.390625 75.984375 
L 54.390625 0 
L 45.40625 0 
L 45.40625 8.203125 
Q 42.578125 3.328125 38.25 0.953125 
Q 33.9375 -1.421875 27.875 -1.421875 
Q 17.96875 -1.421875 11.734375 6.484375 
Q 5.515625 14.40625 5.515625 27.296875 
Q 5.515625 40.1875 11.734375 48.09375 
Q 17.96875 56 27.875 56 
Q 33.9375 56 38.25 53.625 
Q 42.578125 51.265625 45.40625 46.390625 
z
M 14.796875 27.296875 
Q 14.796875 17.390625 18.875 11.75 
Q 22.953125 6.109375 30.078125 6.109375 
Q 37.203125 6.109375 41.296875 11.75 
Q 45.40625 17.390625 45.40625 27.296875 
Q 45.40625 37.203125 41.296875 42.84375 
Q 37.203125 48.484375 30.078125 48.484375 
Q 22.953125 48.484375 18.875 42.84375 
Q 14.796875 37.203125 14.796875 27.296875 
z
" id="DejaVuSans-100"/>
     </defs>
     <g transform="translate(28.617187 220.266281)rotate(-90)scale(0.1 -0.1)">
      <use xlink:href="#DejaVuSans-37"/>
      <use x="95.019531" xlink:href="#DejaVuSans-32"/>
      <use x="126.806641" xlink:href="#DejaVuSans-102"/>
      <use x="162.011719" xlink:href="#DejaVuSans-114"/>
      <use x="200.875" xlink:href="#DejaVuSans-111"/>
      <use x="262.056641" xlink:href="#DejaVuSans-109"/>
      <use x="359.46875" xlink:href="#DejaVuSans-32"/>
      <use x="391.255859" xlink:href="#DejaVuSans-65"/>
      <use x="459.664062" xlink:href="#DejaVuSans-32"/>
      <use x="491.451172" xlink:href="#DejaVuSans-97"/>
      <use x="552.730469" xlink:href="#DejaVuSans-116"/>
      <use x="591.939453" xlink:href="#DejaVuSans-32"/>
      <use x="623.726562" xlink:href="#DejaVuSans-100"/>
      <use x="687.203125" xlink:href="#DejaVuSans-101"/>
      <use x="748.726562" xlink:href="#DejaVuSans-112"/>
      <use x="812.203125" xlink:href="#DejaVuSans-116"/>
      <use x="851.412109" xlink:href="#DejaVuSans-104"/>
     </g>
    </g>
   </g>
   <g id="line2d_13">
    <path clip-path="url(#p8eb673b7f0)" d="M 73.832727 53.568 
L 77.112066 54.16932 
L 80.391405 54.668651 
L 83.670744 55.30088 
L 86.950083 56.095015 
L 90.229421 57.097857 
L 93.50876 58.353881 
L 96.788099 59.888039 
L 100.067438 61.718103 
L 103.346777 63.88837 
L 106.626116 66.38883 
L 109.905455 69.253195 
L 113.184793 72.488048 
L 116.464132 76.100872 
L 119.743471 80.060682 
L 123.02281 84.335068 
L 126.302149 88.923404 
L 129.581488 93.773881 
L 132.860826 98.888903 
L 136.140165 104.168509 
L 139.419504 109.64168 
L 142.698843 115.232707 
L 145.978182 120.929052 
L 149.257521 126.709965 
L 152.53686 132.557654 
L 155.816198 138.396206 
L 159.095537 144.239289 
L 162.374876 150.031165 
L 165.654215 155.804321 
L 168.933554 161.488927 
L 172.212893 167.063386 
L 175.492231 172.559783 
L 178.77157 177.955267 
L 182.050909 183.222859 
L 185.330248 188.366764 
L 188.609587 193.343331 
L 191.888926 198.18575 
L 195.168264 202.865362 
L 198.447603 207.402891 
L 201.726942 211.773709 
L 205.006281 215.98525 
L 208.28562 220.029329 
L 211.564959 223.922315 
L 214.844298 227.661805 
L 218.123636 231.228553 
L 221.402975 234.642005 
L 224.682314 237.901986 
L 227.961653 241.025214 
L 231.240992 243.994522 
L 234.520331 246.814463 
L 237.799669 249.502381 
L 241.079008 252.049794 
L 244.358347 254.473919 
L 247.637686 256.779537 
L 250.917025 258.965621 
L 254.196364 261.044462 
L 257.475702 263.021038 
L 260.755041 264.894475 
L 264.03438 266.664521 
L 267.313719 268.347871 
L 270.593058 269.936766 
L 273.872397 271.446573 
L 277.151736 272.87579 
L 280.431074 274.232876 
L 283.710413 275.519885 
L 286.989752 276.735514 
L 290.269091 277.884468 
L 293.54843 278.966023 
L 296.827769 279.999249 
L 300.107107 280.973609 
L 303.386446 281.899065 
L 306.665785 282.772538 
L 309.945124 283.598382 
L 313.224463 284.383081 
L 316.503802 285.130414 
L 319.78314 285.838177 
L 323.062479 286.507523 
L 326.341818 287.143656 
L 329.621157 287.747729 
L 332.900496 288.320992 
L 336.179835 288.865574 
L 339.459174 289.386079 
L 342.738512 289.880304 
L 346.017851 290.349952 
L 349.29719 290.799653 
L 352.576529 291.229657 
L 355.855868 291.637061 
L 359.135207 292.02234 
L 362.414545 292.392277 
L 365.693884 292.741992 
L 368.973223 293.076264 
L 372.252562 293.396771 
L 375.531901 293.701685 
L 378.81124 293.993385 
L 382.090579 294.270369 
L 385.369917 294.535364 
L 388.649256 294.789672 
L 391.928595 295.033794 
L 395.207934 295.265502 
L 398.487273 295.488 
" style="fill:none;stroke:#1f77b4;stroke-linecap:square;stroke-width:1.5;"/>
   </g>
   <g id="line2d_14">
    <path clip-path="url(#p8eb673b7f0)" d="M 73.832727 53.568 
L 77.112066 53.968377 
L 80.391405 54.265061 
L 83.670744 54.579917 
L 86.950083 54.91527 
L 90.229421 55.320477 
L 93.50876 55.809178 
L 96.788099 56.389157 
L 100.067438 57.075682 
L 103.346777 57.849255 
L 106.626116 58.733577 
L 109.905455 59.756832 
L 113.184793 60.909732 
L 116.464132 62.217632 
L 119.743471 63.68669 
L 123.02281 65.328617 
L 126.302149 67.122891 
L 129.581488 69.091186 
L 132.860826 71.230149 
L 136.140165 73.545561 
L 139.419504 76.052439 
L 142.698843 78.724704 
L 145.978182 81.542908 
L 149.257521 84.5277 
L 152.53686 87.669144 
L 155.816198 90.913679 
L 159.095537 94.28313 
L 162.374876 97.779524 
L 165.654215 101.362917 
L 168.933554 105.017389 
L 172.212893 108.787367 
L 175.492231 112.597815 
L 178.77157 116.464402 
L 182.050909 120.358195 
L 185.330248 124.315459 
L 188.609587 128.302031 
L 191.888926 132.311354 
L 195.168264 136.318224 
L 198.447603 140.336382 
L 201.726942 144.324906 
L 205.006281 148.300091 
L 208.28562 152.241862 
L 211.564959 156.161934 
L 214.844298 160.041861 
L 218.123636 163.901665 
L 221.402975 167.715042 
L 224.682314 171.491853 
L 227.961653 175.210323 
L 231.240992 178.875482 
L 234.520331 182.473316 
L 237.799669 186.017289 
L 241.079008 189.507226 
L 244.358347 192.922003 
L 247.637686 196.263572 
L 250.917025 199.519971 
L 254.196364 202.715926 
L 257.475702 205.840926 
L 260.755041 208.891418 
L 264.03438 211.861518 
L 267.313719 214.760438 
L 270.593058 217.589305 
L 273.872397 220.337129 
L 277.151736 223.017228 
L 280.431074 225.620765 
L 283.710413 228.155349 
L 286.989752 230.616575 
L 290.269091 232.989152 
L 293.54843 235.294502 
L 296.827769 237.527947 
L 300.107107 239.689611 
L 303.386446 241.7858 
L 306.665785 243.803827 
L 309.945124 245.759157 
L 313.224463 247.649515 
L 316.503802 249.468667 
L 319.78314 251.234809 
L 323.062479 252.938156 
L 326.341818 254.585064 
L 329.621157 256.175133 
L 332.900496 257.698676 
L 336.179835 259.167533 
L 339.459174 260.587911 
L 342.738512 261.962786 
L 346.017851 263.292236 
L 349.29719 264.565272 
L 352.576529 265.792682 
L 355.855868 266.975742 
L 359.135207 268.118856 
L 362.414545 269.211989 
L 365.693884 270.264301 
L 368.973223 271.279872 
L 372.252562 272.256949 
L 375.531901 273.211301 
L 378.81124 274.123855 
L 382.090579 275.000369 
L 385.369917 275.846498 
L 388.649256 276.66342 
L 391.928595 277.451184 
L 395.207934 278.214169 
L 398.487273 278.949249 
" style="fill:none;stroke:#ff7f0e;stroke-linecap:square;stroke-width:1.5;"/>
   </g>
   <g id="line2d_15">
    <path clip-path="url(#p8eb673b7f0)" d="M 73.832727 53.568 
L 77.112066 53.882757 
L 80.391405 54.092671 
L 83.670744 54.318327 
L 86.950083 54.529141 
L 90.229421 54.767512 
L 93.50876 55.035967 
L 96.788099 55.347971 
L 100.067438 55.703099 
L 103.346777 56.103003 
L 106.626116 56.557645 
L 109.905455 57.064745 
L 113.184793 57.622779 
L 116.464132 58.244986 
L 119.743471 58.924507 
L 123.02281 59.673683 
L 126.302149 60.502824 
L 129.581488 61.42417 
L 132.860826 62.435244 
L 136.140165 63.534166 
L 139.419504 64.730675 
L 142.698843 66.019063 
L 145.978182 67.405913 
L 149.257521 68.903138 
L 152.53686 70.504256 
L 155.816198 72.217952 
L 159.095537 74.026931 
L 162.374876 75.938852 
L 165.654215 77.952138 
L 168.933554 80.060356 
L 172.212893 82.250568 
L 175.492231 84.527404 
L 178.77157 86.896143 
L 182.050909 89.335713 
L 185.330248 91.857877 
L 188.609587 94.438057 
L 191.888926 97.087515 
L 195.168264 99.795665 
L 198.447603 102.544687 
L 201.726942 105.33901 
L 205.006281 108.182488 
L 208.28562 111.070468 
L 211.564959 113.990358 
L 214.844298 116.943636 
L 218.123636 119.91929 
L 221.402975 122.916043 
L 224.682314 125.947235 
L 227.961653 128.989014 
L 231.240992 132.022333 
L 234.520331 135.061108 
L 237.799669 138.099408 
L 241.079008 141.131626 
L 244.358347 144.164745 
L 247.637686 147.180595 
L 250.917025 150.190838 
L 254.196364 153.189092 
L 257.475702 156.177911 
L 260.755041 159.13632 
L 264.03438 162.085319 
L 267.313719 165.012843 
L 270.593058 167.911384 
L 273.872397 170.787375 
L 277.151736 173.63273 
L 280.431074 176.439643 
L 283.710413 179.206434 
L 286.989752 181.949374 
L 290.269091 184.646937 
L 293.54843 187.317995 
L 296.827769 189.960996 
L 300.107107 192.566304 
L 303.386446 195.132793 
L 306.665785 197.650252 
L 309.945124 200.121883 
L 313.224463 202.550366 
L 316.503802 204.939003 
L 319.78314 207.279686 
L 323.062479 209.580623 
L 326.341818 211.836034 
L 329.621157 214.054403 
L 332.900496 216.225243 
L 336.179835 218.352133 
L 339.459174 220.4367 
L 342.738512 222.477567 
L 346.017851 224.473058 
L 349.29719 226.423098 
L 352.576529 228.325908 
L 355.855868 230.19015 
L 359.135207 232.014521 
L 362.414545 233.79214 
L 365.693884 235.533292 
L 368.973223 237.233247 
L 372.252562 238.887651 
L 375.531901 240.50316 
L 378.81124 242.071416 
L 382.090579 243.608586 
L 385.369917 245.109816 
L 388.649256 246.566695 
L 391.928595 247.996594 
L 395.207934 249.386222 
L 398.487273 250.738958 
" style="fill:none;stroke:#2ca02c;stroke-linecap:square;stroke-width:1.5;"/>
   </g>
   <g id="line2d_16">
    <path clip-path="url(#p8eb673b7f0)" d="M 73.832727 53.568 
L 77.112066 53.826796 
L 80.391405 54.010931 
L 83.670744 54.186507 
L 86.950083 54.345364 
L 90.229421 54.51661 
L 93.50876 54.693612 
L 96.788099 54.891513 
L 100.067438 55.121927 
L 103.346777 55.371587 
L 106.626116 55.654936 
L 109.905455 55.962337 
L 113.184793 56.301 
L 116.464132 56.670747 
L 119.743471 57.072156 
L 123.02281 57.51256 
L 126.302149 57.98928 
L 129.581488 58.508398 
L 132.860826 59.068063 
L 136.140165 59.671528 
L 139.419504 60.323674 
L 142.698843 61.022998 
L 145.978182 61.786871 
L 149.257521 62.607234 
L 152.53686 63.490594 
L 155.816198 64.43565 
L 159.095537 65.444553 
L 162.374876 66.514601 
L 165.654215 67.65035 
L 168.933554 68.84912 
L 172.212893 70.124128 
L 175.492231 71.464811 
L 178.77157 72.877025 
L 182.050909 74.35454 
L 185.330248 75.895802 
L 188.609587 77.502363 
L 191.888926 79.160985 
L 195.168264 80.887759 
L 198.447603 82.684338 
L 201.726942 84.530598 
L 205.006281 86.431271 
L 208.28562 88.390411 
L 211.564959 90.387695 
L 214.844298 92.437463 
L 218.123636 94.527027 
L 221.402975 96.661668 
L 224.682314 98.838206 
L 227.961653 101.05011 
L 231.240992 103.291397 
L 234.520331 105.564246 
L 237.799669 107.854314 
L 241.079008 110.170637 
L 244.358347 112.509085 
L 247.637686 114.875941 
L 250.917025 117.260092 
L 254.196364 119.661863 
L 257.475702 122.08183 
L 260.755041 124.507202 
L 264.03438 126.950396 
L 267.313719 129.389484 
L 270.593058 131.83518 
L 273.872397 134.283604 
L 277.151736 136.730001 
L 280.431074 139.176849 
L 283.710413 141.620668 
L 286.989752 144.057904 
L 290.269091 146.491036 
L 293.54843 148.920463 
L 296.827769 151.343433 
L 300.107107 153.752087 
L 303.386446 156.146199 
L 306.665785 158.532327 
L 309.945124 160.901786 
L 313.224463 163.260983 
L 316.503802 165.603937 
L 319.78314 167.92419 
L 323.062479 170.23338 
L 326.341818 172.52525 
L 329.621157 174.800826 
L 332.900496 177.043916 
L 336.179835 179.27389 
L 339.459174 181.486595 
L 342.738512 183.68188 
L 346.017851 185.848757 
L 349.29719 187.989705 
L 352.576529 190.110079 
L 355.855868 192.206025 
L 359.135207 194.277593 
L 362.414545 196.315799 
L 365.693884 198.326748 
L 368.973223 200.302406 
L 372.252562 202.25639 
L 375.531901 204.192654 
L 378.81124 206.088672 
L 382.090579 207.967069 
L 385.369917 209.823416 
L 388.649256 211.643047 
L 391.928595 213.436923 
L 395.207934 215.198136 
L 398.487273 216.935247 
" style="fill:none;stroke:#d62728;stroke-linecap:square;stroke-width:1.5;"/>
   </g>
   <g id="line2d_17">
    <path clip-path="url(#p8eb673b7f0)" d="M 73.832727 53.568 
L 77.112066 53.787377 
L 80.391405 53.94746 
L 83.670744 54.101137 
L 86.950083 54.237343 
L 90.229421 54.368268 
L 93.50876 54.502872 
L 96.788099 54.644335 
L 100.067438 54.803668 
L 103.346777 54.979795 
L 106.626116 55.171264 
L 109.905455 55.376975 
L 113.184793 55.606664 
L 116.464132 55.858878 
L 119.743471 56.127962 
L 123.02281 56.419471 
L 126.302149 56.733556 
L 129.581488 57.065863 
L 132.860826 57.420144 
L 136.140165 57.80914 
L 139.419504 58.221764 
L 142.698843 58.66302 
L 145.978182 59.134836 
L 149.257521 59.633608 
L 152.53686 60.169523 
L 155.816198 60.742605 
L 159.095537 61.345247 
L 162.374876 61.994867 
L 165.654215 62.688363 
L 168.933554 63.4181 
L 172.212893 64.201598 
L 175.492231 65.028847 
L 178.77157 65.895517 
L 182.050909 66.810767 
L 185.330248 67.764486 
L 188.609587 68.767962 
L 191.888926 69.826576 
L 195.168264 70.928215 
L 198.447603 72.080287 
L 201.726942 73.274632 
L 205.006281 74.523464 
L 208.28562 75.824807 
L 211.564959 77.172804 
L 214.844298 78.557217 
L 218.123636 79.993264 
L 221.402975 81.469282 
L 224.682314 82.993931 
L 227.961653 84.545286 
L 231.240992 86.13098 
L 234.520331 87.761225 
L 237.799669 89.429464 
L 241.079008 91.126811 
L 244.358347 92.859874 
L 247.637686 94.621795 
L 250.917025 96.406793 
L 254.196364 98.22563 
L 257.475702 100.063538 
L 260.755041 101.925599 
L 264.03438 103.805781 
L 267.313719 105.71835 
L 270.593058 107.651342 
L 273.872397 109.604057 
L 277.151736 111.561678 
L 280.431074 113.542525 
L 283.710413 115.53844 
L 286.989752 117.538484 
L 290.269091 119.549016 
L 293.54843 121.569083 
L 296.827769 123.603192 
L 300.107107 125.646035 
L 303.386446 127.681795 
L 306.665785 129.728794 
L 309.945124 131.779947 
L 313.224463 133.8316 
L 316.503802 135.877948 
L 319.78314 137.922243 
L 323.062479 139.969767 
L 326.341818 142.018067 
L 329.621157 144.061411 
L 332.900496 146.095744 
L 336.179835 148.144244 
L 339.459174 150.180605 
L 342.738512 152.212561 
L 346.017851 154.231778 
L 349.29719 156.244336 
L 352.576529 158.25214 
L 355.855868 160.251658 
L 359.135207 162.238513 
L 362.414545 164.210275 
L 365.693884 166.166569 
L 368.973223 168.114428 
L 372.252562 170.058433 
L 375.531901 171.980739 
L 378.81124 173.883146 
L 382.090579 175.770861 
L 385.369917 177.654497 
L 388.649256 179.512929 
L 391.928595 181.367281 
L 395.207934 183.202587 
L 398.487273 185.026004 
" style="fill:none;stroke:#9467bd;stroke-linecap:square;stroke-width:1.5;"/>
   </g>
   <g id="patch_3">
    <path d="M 57.6 307.584 
L 57.6 41.472 
" style="fill:none;stroke:#000000;stroke-linecap:square;stroke-linejoin:miter;stroke-width:0.8;"/>
   </g>
   <g id="patch_4">
    <path d="M 414.72 307.584 
L 414.72 41.472 
" style="fill:none;stroke:#000000;stroke-linecap:square;stroke-linejoin:miter;stroke-width:0.8;"/>
   </g>
   <g id="patch_5">
    <path d="M 57.6 307.584 
L 414.72 307.584 
" style="fill:none;stroke:#000000;stroke-linecap:square;stroke-linejoin:miter;stroke-width:0.8;"/>
   </g>
   <g id="patch_6">
    <path d="M 57.6 41.472 
L 414.72 41.472 
" style="fill:none;stroke:#000000;stroke-linecap:square;stroke-linejoin:miter;stroke-width:0.8;"/>
   </g>
   <g id="legend_1">
    <g id="patch_7">
     <path d="M 324.82 122.862625 
L 407.72 122.862625 
Q 409.72 122.862625 409.72 120.862625 
L 409.72 48.472 
Q 409.72 46.472 407.72 46.472 
L 324.82 46.472 
Q 322.82 46.472 322.82 48.472 
L 322.82 120.862625 
Q 322.82 122.862625 324.82 122.862625 
z
" style="fill:#ffffff;opacity:0.8;stroke:#cccccc;stroke-linejoin:miter;"/>
    </g>
    <g id="line2d_18">
     <path d="M 326.82 54.570438 
L 346.82 54.570438 
" style="fill:none;stroke:#1f77b4;stroke-linecap:square;stroke-width:1.5;"/>
    </g>
    <g id="line2d_19"/>
    <g id="text_15">
     <!-- 20000000 -->
     <g transform="translate(354.82 58.070438)scale(0.1 -0.1)">
      <use xlink:href="#DejaVuSans-50"/>
      <use x="63.623047" xlink:href="#DejaVuSans-48"/>
      <use x="127.246094" xlink:href="#DejaVuSans-48"/>
      <use x="190.869141" xlink:href="#DejaVuSans-48"/>
      <use x="254.492188" xlink:href="#DejaVuSans-48"/>
      <use x="318.115234" xlink:href="#DejaVuSans-48"/>
      <use x="381.738281" xlink:href="#DejaVuSans-48"/>
      <use x="445.361328" xlink:href="#DejaVuSans-48"/>
     </g>
    </g>
    <g id="line2d_20">
     <path d="M 326.82 69.248563 
L 346.82 69.248563 
" style="fill:none;stroke:#ff7f0e;stroke-linecap:square;stroke-width:1.5;"/>
    </g>
    <g id="line2d_21"/>
    <g id="text_16">
     <!-- 30000000 -->
     <defs>
      <path d="M 40.578125 39.3125 
Q 47.65625 37.796875 51.625 33 
Q 55.609375 28.21875 55.609375 21.1875 
Q 55.609375 10.40625 48.1875 4.484375 
Q 40.765625 -1.421875 27.09375 -1.421875 
Q 22.515625 -1.421875 17.65625 -0.515625 
Q 12.796875 0.390625 7.625 2.203125 
L 7.625 11.71875 
Q 11.71875 9.328125 16.59375 8.109375 
Q 21.484375 6.890625 26.8125 6.890625 
Q 36.078125 6.890625 40.9375 10.546875 
Q 45.796875 14.203125 45.796875 21.1875 
Q 45.796875 27.640625 41.28125 31.265625 
Q 36.765625 34.90625 28.71875 34.90625 
L 20.21875 34.90625 
L 20.21875 43.015625 
L 29.109375 43.015625 
Q 36.375 43.015625 40.234375 45.921875 
Q 44.09375 48.828125 44.09375 54.296875 
Q 44.09375 59.90625 40.109375 62.90625 
Q 36.140625 65.921875 28.71875 65.921875 
Q 24.65625 65.921875 20.015625 65.03125 
Q 15.375 64.15625 9.8125 62.3125 
L 9.8125 71.09375 
Q 15.4375 72.65625 20.34375 73.4375 
Q 25.25 74.21875 29.59375 74.21875 
Q 40.828125 74.21875 47.359375 69.109375 
Q 53.90625 64.015625 53.90625 55.328125 
Q 53.90625 49.265625 50.4375 45.09375 
Q 46.96875 40.921875 40.578125 39.3125 
z
" id="DejaVuSans-51"/>
     </defs>
     <g transform="translate(354.82 72.748563)scale(0.1 -0.1)">
      <use xlink:href="#DejaVuSans-51"/>
      <use x="63.623047" xlink:href="#DejaVuSans-48"/>
      <use x="127.246094" xlink:href="#DejaVuSans-48"/>
      <use x="190.869141" xlink:href="#DejaVuSans-48"/>
      <use x="254.492188" xlink:href="#DejaVuSans-48"/>
      <use x="318.115234" xlink:href="#DejaVuSans-48"/>
      <use x="381.738281" xlink:href="#DejaVuSans-48"/>
      <use x="445.361328" xlink:href="#DejaVuSans-48"/>
     </g>
    </g>
    <g id="line2d_22">
     <path d="M 326.82 83.926688 
L 346.82 83.926688 
" style="fill:none;stroke:#2ca02c;stroke-linecap:square;stroke-width:1.5;"/>
    </g>
    <g id="line2d_23"/>
    <g id="text_17">
     <!-- 40000000 -->
     <g transform="translate(354.82 87.426688)scale(0.1 -0.1)">
      <use xlink:href="#DejaVuSans-52"/>
      <use x="63.623047" xlink:href="#DejaVuSans-48"/>
      <use x="127.246094" xlink:href="#DejaVuSans-48"/>
      <use x="190.869141" xlink:href="#DejaVuSans-48"/>
      <use x="254.492188" xlink:href="#DejaVuSans-48"/>
      <use x="318.115234" xlink:href="#DejaVuSans-48"/>
      <use x="381.738281" xlink:href="#DejaVuSans-48"/>
      <use x="445.361328" xlink:href="#DejaVuSans-48"/>
     </g>
    </g>
    <g id="line2d_24">
     <path d="M 326.82 98.604813 
L 346.82 98.604813 
" style="fill:none;stroke:#d62728;stroke-linecap:square;stroke-width:1.5;"/>
    </g>
    <g id="line2d_25"/>
    <g id="text_18">
     <!-- 50000000 -->
     <defs>
      <path d="M 10.796875 72.90625 
L 49.515625 72.90625 
L 49.515625 64.59375 
L 19.828125 64.59375 
L 19.828125 46.734375 
Q 21.96875 47.46875 24.109375 47.828125 
Q 26.265625 48.1875 28.421875 48.1875 
Q 40.625 48.1875 47.75 41.5 
Q 54.890625 34.8125 54.890625 23.390625 
Q 54.890625 11.625 47.5625 5.09375 
Q 40.234375 -1.421875 26.90625 -1.421875 
Q 22.3125 -1.421875 17.546875 -0.640625 
Q 12.796875 0.140625 7.71875 1.703125 
L 7.71875 11.625 
Q 12.109375 9.234375 16.796875 8.0625 
Q 21.484375 6.890625 26.703125 6.890625 
Q 35.15625 6.890625 40.078125 11.328125 
Q 45.015625 15.765625 45.015625 23.390625 
Q 45.015625 31 40.078125 35.4375 
Q 35.15625 39.890625 26.703125 39.890625 
Q 22.75 39.890625 18.8125 39.015625 
Q 14.890625 38.140625 10.796875 36.28125 
z
" id="DejaVuSans-53"/>
     </defs>
     <g transform="translate(354.82 102.104813)scale(0.1 -0.1)">
      <use xlink:href="#DejaVuSans-53"/>
      <use x="63.623047" xlink:href="#DejaVuSans-48"/>
      <use x="127.246094" xlink:href="#DejaVuSans-48"/>
      <use x="190.869141" xlink:href="#DejaVuSans-48"/>
      <use x="254.492188" xlink:href="#DejaVuSans-48"/>
      <use x="318.115234" xlink:href="#DejaVuSans-48"/>
      <use x="381.738281" xlink:href="#DejaVuSans-48"/>
      <use x="445.361328" xlink:href="#DejaVuSans-48"/>
     </g>
    </g>
    <g id="line2d_26">
     <path d="M 326.82 113.282938 
L 346.82 113.282938 
" style="fill:none;stroke:#9467bd;stroke-linecap:square;stroke-width:1.5;"/>
    </g>
    <g id="line2d_27"/>
    <g id="text_19">
     <!-- 60000000 -->
     <g transform="translate(354.82 116.782938)scale(0.1 -0.1)">
      <use xlink:href="#DejaVuSans-54"/>
      <use x="63.623047" xlink:href="#DejaVuSans-48"/>
      <use x="127.246094" xlink:href="#DejaVuSans-48"/>
      <use x="190.869141" xlink:href="#DejaVuSans-48"/>
      <use x="254.492188" xlink:href="#DejaVuSans-48"/>
      <use x="318.115234" xlink:href="#DejaVuSans-48"/>
      <use x="381.738281" xlink:href="#DejaVuSans-48"/>
      <use x="445.361328" xlink:href="#DejaVuSans-48"/>
     </g>
    </g>
   </g>
  </g>
 </g>
 <defs>
  <clipPath id="p8eb673b7f0">
   <rect height="266.112" width="357.12" x="57.6" y="41.472"/>
  </clipPath>
 </defs>
</svg>
