<?xml version="1.0" encoding="utf-8" standalone="no"?>
<!DOCTYPE svg PUBLIC "-//W3C//DTD SVG 1.1//EN"
  "http://www.w3.org/Graphics/SVG/1.1/DTD/svg11.dtd">
<!-- Created with matplotlib (https://matplotlib.org/) -->
<svg height="345.6pt" version="1.1" viewBox="0 0 460.8 345.6" width="460.8pt" xmlns="http://www.w3.org/2000/svg" xmlns:xlink="http://www.w3.org/1999/xlink">
 <defs>
  <style type="text/css">
*{stroke-linecap:butt;stroke-linejoin:round;}
  </style>
 </defs>
 <g id="figure_1">
  <g id="patch_1">
   <path d="M 0 345.6 
L 460.8 345.6 
L 460.8 0 
L 0 0 
z
" style="fill:#ffffff;"/>
  </g>
  <g id="axes_1">
   <g id="patch_2">
    <path d="M 57.6 307.584 
L 414.72 307.584 
L 414.72 41.472 
L 57.6 41.472 
z
" style="fill:#ffffff;"/>
   </g>
   <g id="matplotlib.axis_1">
    <g id="xtick_1">
     <g id="line2d_1">
      <defs>
       <path d="M 0 0 
L 0 3.5 
" id="md3b540bfdd" style="stroke:#000000;stroke-width:0.8;"/>
      </defs>
      <g>
       <use style="stroke:#000000;stroke-width:0.8;" x="73.832727" xlink:href="#md3b540bfdd" y="307.584"/>
      </g>
     </g>
     <g id="text_1">
      <!-- 0 -->
      <defs>
       <path d="M 31.78125 66.40625 
Q 24.171875 66.40625 20.328125 58.90625 
Q 16.5 51.421875 16.5 36.375 
Q 16.5 21.390625 20.328125 13.890625 
Q 24.171875 6.390625 31.78125 6.390625 
Q 39.453125 6.390625 43.28125 13.890625 
Q 47.125 21.390625 47.125 36.375 
Q 47.125 51.421875 43.28125 58.90625 
Q 39.453125 66.40625 31.78125 66.40625 
z
M 31.78125 74.21875 
Q 44.046875 74.21875 50.515625 64.515625 
Q 56.984375 54.828125 56.984375 36.375 
Q 56.984375 17.96875 50.515625 8.265625 
Q 44.046875 -1.421875 31.78125 -1.421875 
Q 19.53125 -1.421875 13.0625 8.265625 
Q 6.59375 17.96875 6.59375 36.375 
Q 6.59375 54.828125 13.0625 64.515625 
Q 19.53125 74.21875 31.78125 74.21875 
z
" id="DejaVuSans-48"/>
      </defs>
      <g transform="translate(70.651477 322.182437)scale(0.1 -0.1)">
       <use xlink:href="#DejaVuSans-48"/>
      </g>
     </g>
    </g>
    <g id="xtick_2">
     <g id="line2d_2">
      <g>
       <use style="stroke:#000000;stroke-width:0.8;" x="138.776625" xlink:href="#md3b540bfdd" y="307.584"/>
      </g>
     </g>
     <g id="text_2">
      <!-- 1000 -->
      <defs>
       <path d="M 12.40625 8.296875 
L 28.515625 8.296875 
L 28.515625 63.921875 
L 10.984375 60.40625 
L 10.984375 69.390625 
L 28.421875 72.90625 
L 38.28125 72.90625 
L 38.28125 8.296875 
L 54.390625 8.296875 
L 54.390625 0 
L 12.40625 0 
z
" id="DejaVuSans-49"/>
      </defs>
      <g transform="translate(126.051625 322.182437)scale(0.1 -0.1)">
       <use xlink:href="#DejaVuSans-49"/>
       <use x="63.623047" xlink:href="#DejaVuSans-48"/>
       <use x="127.246094" xlink:href="#DejaVuSans-48"/>
       <use x="190.869141" xlink:href="#DejaVuSans-48"/>
      </g>
     </g>
    </g>
    <g id="xtick_3">
     <g id="line2d_3">
      <g>
       <use style="stroke:#000000;stroke-width:0.8;" x="203.720523" xlink:href="#md3b540bfdd" y="307.584"/>
      </g>
     </g>
     <g id="text_3">
      <!-- 2000 -->
      <defs>
       <path d="M 19.1875 8.296875 
L 53.609375 8.296875 
L 53.609375 0 
L 7.328125 0 
L 7.328125 8.296875 
Q 12.9375 14.109375 22.625 23.890625 
Q 32.328125 33.6875 34.8125 36.53125 
Q 39.546875 41.84375 41.421875 45.53125 
Q 43.3125 49.21875 43.3125 52.78125 
Q 43.3125 58.59375 39.234375 62.25 
Q 35.15625 65.921875 28.609375 65.921875 
Q 23.96875 65.921875 18.8125 64.3125 
Q 13.671875 62.703125 7.8125 59.421875 
L 7.8125 69.390625 
Q 13.765625 71.78125 18.9375 73 
Q 24.125 74.21875 28.421875 74.21875 
Q 39.75 74.21875 46.484375 68.546875 
Q 53.21875 62.890625 53.21875 53.421875 
Q 53.21875 48.921875 51.53125 44.890625 
Q 49.859375 40.875 45.40625 35.40625 
Q 44.1875 33.984375 37.640625 27.21875 
Q 31.109375 20.453125 19.1875 8.296875 
z
" id="DejaVuSans-50"/>
      </defs>
      <g transform="translate(190.995523 322.182437)scale(0.1 -0.1)">
       <use xlink:href="#DejaVuSans-50"/>
       <use x="63.623047" xlink:href="#DejaVuSans-48"/>
       <use x="127.246094" xlink:href="#DejaVuSans-48"/>
       <use x="190.869141" xlink:href="#DejaVuSans-48"/>
      </g>
     </g>
    </g>
    <g id="xtick_4">
     <g id="line2d_4">
      <g>
       <use style="stroke:#000000;stroke-width:0.8;" x="268.664421" xlink:href="#md3b540bfdd" y="307.584"/>
      </g>
     </g>
     <g id="text_4">
      <!-- 3000 -->
      <defs>
       <path d="M 40.578125 39.3125 
Q 47.65625 37.796875 51.625 33 
Q 55.609375 28.21875 55.609375 21.1875 
Q 55.609375 10.40625 48.1875 4.484375 
Q 40.765625 -1.421875 27.09375 -1.421875 
Q 22.515625 -1.421875 17.65625 -0.515625 
Q 12.796875 0.390625 7.625 2.203125 
L 7.625 11.71875 
Q 11.71875 9.328125 16.59375 8.109375 
Q 21.484375 6.890625 26.8125 6.890625 
Q 36.078125 6.890625 40.9375 10.546875 
Q 45.796875 14.203125 45.796875 21.1875 
Q 45.796875 27.640625 41.28125 31.265625 
Q 36.765625 34.90625 28.71875 34.90625 
L 20.21875 34.90625 
L 20.21875 43.015625 
L 29.109375 43.015625 
Q 36.375 43.015625 40.234375 45.921875 
Q 44.09375 48.828125 44.09375 54.296875 
Q 44.09375 59.90625 40.109375 62.90625 
Q 36.140625 65.921875 28.71875 65.921875 
Q 24.65625 65.921875 20.015625 65.03125 
Q 15.375 64.15625 9.8125 62.3125 
L 9.8125 71.09375 
Q 15.4375 72.65625 20.34375 73.4375 
Q 25.25 74.21875 29.59375 74.21875 
Q 40.828125 74.21875 47.359375 69.109375 
Q 53.90625 64.015625 53.90625 55.328125 
Q 53.90625 49.265625 50.4375 45.09375 
Q 46.96875 40.921875 40.578125 39.3125 
z
" id="DejaVuSans-51"/>
      </defs>
      <g transform="translate(255.939421 322.182437)scale(0.1 -0.1)">
       <use xlink:href="#DejaVuSans-51"/>
       <use x="63.623047" xlink:href="#DejaVuSans-48"/>
       <use x="127.246094" xlink:href="#DejaVuSans-48"/>
       <use x="190.869141" xlink:href="#DejaVuSans-48"/>
      </g>
     </g>
    </g>
    <g id="xtick_5">
     <g id="line2d_5">
      <g>
       <use style="stroke:#000000;stroke-width:0.8;" x="333.608319" xlink:href="#md3b540bfdd" y="307.584"/>
      </g>
     </g>
     <g id="text_5">
      <!-- 4000 -->
      <defs>
       <path d="M 37.796875 64.3125 
L 12.890625 25.390625 
L 37.796875 25.390625 
z
M 35.203125 72.90625 
L 47.609375 72.90625 
L 47.609375 25.390625 
L 58.015625 25.390625 
L 58.015625 17.1875 
L 47.609375 17.1875 
L 47.609375 0 
L 37.796875 0 
L 37.796875 17.1875 
L 4.890625 17.1875 
L 4.890625 26.703125 
z
" id="DejaVuSans-52"/>
      </defs>
      <g transform="translate(320.883319 322.182437)scale(0.1 -0.1)">
       <use xlink:href="#DejaVuSans-52"/>
       <use x="63.623047" xlink:href="#DejaVuSans-48"/>
       <use x="127.246094" xlink:href="#DejaVuSans-48"/>
       <use x="190.869141" xlink:href="#DejaVuSans-48"/>
      </g>
     </g>
    </g>
    <g id="xtick_6">
     <g id="line2d_6">
      <g>
       <use style="stroke:#000000;stroke-width:0.8;" x="398.552217" xlink:href="#md3b540bfdd" y="307.584"/>
      </g>
     </g>
     <g id="text_6">
      <!-- 5000 -->
      <defs>
       <path d="M 10.796875 72.90625 
L 49.515625 72.90625 
L 49.515625 64.59375 
L 19.828125 64.59375 
L 19.828125 46.734375 
Q 21.96875 47.46875 24.109375 47.828125 
Q 26.265625 48.1875 28.421875 48.1875 
Q 40.625 48.1875 47.75 41.5 
Q 54.890625 34.8125 54.890625 23.390625 
Q 54.890625 11.625 47.5625 5.09375 
Q 40.234375 -1.421875 26.90625 -1.421875 
Q 22.3125 -1.421875 17.546875 -0.640625 
Q 12.796875 0.140625 7.71875 1.703125 
L 7.71875 11.625 
Q 12.109375 9.234375 16.796875 8.0625 
Q 21.484375 6.890625 26.703125 6.890625 
Q 35.15625 6.890625 40.078125 11.328125 
Q 45.015625 15.765625 45.015625 23.390625 
Q 45.015625 31 40.078125 35.4375 
Q 35.15625 39.890625 26.703125 39.890625 
Q 22.75 39.890625 18.8125 39.015625 
Q 14.890625 38.140625 10.796875 36.28125 
z
" id="DejaVuSans-53"/>
      </defs>
      <g transform="translate(385.827217 322.182437)scale(0.1 -0.1)">
       <use xlink:href="#DejaVuSans-53"/>
       <use x="63.623047" xlink:href="#DejaVuSans-48"/>
       <use x="127.246094" xlink:href="#DejaVuSans-48"/>
       <use x="190.869141" xlink:href="#DejaVuSans-48"/>
      </g>
     </g>
    </g>
    <g id="text_7">
     <!-- Distance from restriction site, b -->
     <defs>
      <path d="M 19.671875 64.796875 
L 19.671875 8.109375 
L 31.59375 8.109375 
Q 46.6875 8.109375 53.6875 14.9375 
Q 60.6875 21.78125 60.6875 36.53125 
Q 60.6875 51.171875 53.6875 57.984375 
Q 46.6875 64.796875 31.59375 64.796875 
z
M 9.8125 72.90625 
L 30.078125 72.90625 
Q 51.265625 72.90625 61.171875 64.09375 
Q 71.09375 55.28125 71.09375 36.53125 
Q 71.09375 17.671875 61.125 8.828125 
Q 51.171875 0 30.078125 0 
L 9.8125 0 
z
" id="DejaVuSans-68"/>
      <path d="M 9.421875 54.6875 
L 18.40625 54.6875 
L 18.40625 0 
L 9.421875 0 
z
M 9.421875 75.984375 
L 18.40625 75.984375 
L 18.40625 64.59375 
L 9.421875 64.59375 
z
" id="DejaVuSans-105"/>
      <path d="M 44.28125 53.078125 
L 44.28125 44.578125 
Q 40.484375 46.53125 36.375 47.5 
Q 32.28125 48.484375 27.875 48.484375 
Q 21.1875 48.484375 17.84375 46.4375 
Q 14.5 44.390625 14.5 40.28125 
Q 14.5 37.15625 16.890625 35.375 
Q 19.28125 33.59375 26.515625 31.984375 
L 29.59375 31.296875 
Q 39.15625 29.25 43.1875 25.515625 
Q 47.21875 21.78125 47.21875 15.09375 
Q 47.21875 7.46875 41.1875 3.015625 
Q 35.15625 -1.421875 24.609375 -1.421875 
Q 20.21875 -1.421875 15.453125 -0.5625 
Q 10.6875 0.296875 5.421875 2 
L 5.421875 11.28125 
Q 10.40625 8.6875 15.234375 7.390625 
Q 20.0625 6.109375 24.8125 6.109375 
Q 31.15625 6.109375 34.5625 8.28125 
Q 37.984375 10.453125 37.984375 14.40625 
Q 37.984375 18.0625 35.515625 20.015625 
Q 33.0625 21.96875 24.703125 23.78125 
L 21.578125 24.515625 
Q 13.234375 26.265625 9.515625 29.90625 
Q 5.8125 33.546875 5.8125 39.890625 
Q 5.8125 47.609375 11.28125 51.796875 
Q 16.75 56 26.8125 56 
Q 31.78125 56 36.171875 55.265625 
Q 40.578125 54.546875 44.28125 53.078125 
z
" id="DejaVuSans-115"/>
      <path d="M 18.3125 70.21875 
L 18.3125 54.6875 
L 36.8125 54.6875 
L 36.8125 47.703125 
L 18.3125 47.703125 
L 18.3125 18.015625 
Q 18.3125 11.328125 20.140625 9.421875 
Q 21.96875 7.515625 27.59375 7.515625 
L 36.8125 7.515625 
L 36.8125 0 
L 27.59375 0 
Q 17.1875 0 13.234375 3.875 
Q 9.28125 7.765625 9.28125 18.015625 
L 9.28125 47.703125 
L 2.6875 47.703125 
L 2.6875 54.6875 
L 9.28125 54.6875 
L 9.28125 70.21875 
z
" id="DejaVuSans-116"/>
      <path d="M 34.28125 27.484375 
Q 23.390625 27.484375 19.1875 25 
Q 14.984375 22.515625 14.984375 16.5 
Q 14.984375 11.71875 18.140625 8.90625 
Q 21.296875 6.109375 26.703125 6.109375 
Q 34.1875 6.109375 38.703125 11.40625 
Q 43.21875 16.703125 43.21875 25.484375 
L 43.21875 27.484375 
z
M 52.203125 31.203125 
L 52.203125 0 
L 43.21875 0 
L 43.21875 8.296875 
Q 40.140625 3.328125 35.546875 0.953125 
Q 30.953125 -1.421875 24.3125 -1.421875 
Q 15.921875 -1.421875 10.953125 3.296875 
Q 6 8.015625 6 15.921875 
Q 6 25.140625 12.171875 29.828125 
Q 18.359375 34.515625 30.609375 34.515625 
L 43.21875 34.515625 
L 43.21875 35.40625 
Q 43.21875 41.609375 39.140625 45 
Q 35.0625 48.390625 27.6875 48.390625 
Q 23 48.390625 18.546875 47.265625 
Q 14.109375 46.140625 10.015625 43.890625 
L 10.015625 52.203125 
Q 14.9375 54.109375 19.578125 55.046875 
Q 24.21875 56 28.609375 56 
Q 40.484375 56 46.34375 49.84375 
Q 52.203125 43.703125 52.203125 31.203125 
z
" id="DejaVuSans-97"/>
      <path d="M 54.890625 33.015625 
L 54.890625 0 
L 45.90625 0 
L 45.90625 32.71875 
Q 45.90625 40.484375 42.875 44.328125 
Q 39.84375 48.1875 33.796875 48.1875 
Q 26.515625 48.1875 22.3125 43.546875 
Q 18.109375 38.921875 18.109375 30.90625 
L 18.109375 0 
L 9.078125 0 
L 9.078125 54.6875 
L 18.109375 54.6875 
L 18.109375 46.1875 
Q 21.34375 51.125 25.703125 53.5625 
Q 30.078125 56 35.796875 56 
Q 45.21875 56 50.046875 50.171875 
Q 54.890625 44.34375 54.890625 33.015625 
z
" id="DejaVuSans-110"/>
      <path d="M 48.78125 52.59375 
L 48.78125 44.1875 
Q 44.96875 46.296875 41.140625 47.34375 
Q 37.3125 48.390625 33.40625 48.390625 
Q 24.65625 48.390625 19.8125 42.84375 
Q 14.984375 37.3125 14.984375 27.296875 
Q 14.984375 17.28125 19.8125 11.734375 
Q 24.65625 6.203125 33.40625 6.203125 
Q 37.3125 6.203125 41.140625 7.25 
Q 44.96875 8.296875 48.78125 10.40625 
L 48.78125 2.09375 
Q 45.015625 0.34375 40.984375 -0.53125 
Q 36.96875 -1.421875 32.421875 -1.421875 
Q 20.0625 -1.421875 12.78125 6.34375 
Q 5.515625 14.109375 5.515625 27.296875 
Q 5.515625 40.671875 12.859375 48.328125 
Q 20.21875 56 33.015625 56 
Q 37.15625 56 41.109375 55.140625 
Q 45.0625 54.296875 48.78125 52.59375 
z
" id="DejaVuSans-99"/>
      <path d="M 56.203125 29.59375 
L 56.203125 25.203125 
L 14.890625 25.203125 
Q 15.484375 15.921875 20.484375 11.0625 
Q 25.484375 6.203125 34.421875 6.203125 
Q 39.59375 6.203125 44.453125 7.46875 
Q 49.3125 8.734375 54.109375 11.28125 
L 54.109375 2.78125 
Q 49.265625 0.734375 44.1875 -0.34375 
Q 39.109375 -1.421875 33.890625 -1.421875 
Q 20.796875 -1.421875 13.15625 6.1875 
Q 5.515625 13.8125 5.515625 26.8125 
Q 5.515625 40.234375 12.765625 48.109375 
Q 20.015625 56 32.328125 56 
Q 43.359375 56 49.78125 48.890625 
Q 56.203125 41.796875 56.203125 29.59375 
z
M 47.21875 32.234375 
Q 47.125 39.59375 43.09375 43.984375 
Q 39.0625 48.390625 32.421875 48.390625 
Q 24.90625 48.390625 20.390625 44.140625 
Q 15.875 39.890625 15.1875 32.171875 
z
" id="DejaVuSans-101"/>
      <path id="DejaVuSans-32"/>
      <path d="M 37.109375 75.984375 
L 37.109375 68.5 
L 28.515625 68.5 
Q 23.6875 68.5 21.796875 66.546875 
Q 19.921875 64.59375 19.921875 59.515625 
L 19.921875 54.6875 
L 34.71875 54.6875 
L 34.71875 47.703125 
L 19.921875 47.703125 
L 19.921875 0 
L 10.890625 0 
L 10.890625 47.703125 
L 2.296875 47.703125 
L 2.296875 54.6875 
L 10.890625 54.6875 
L 10.890625 58.5 
Q 10.890625 67.625 15.140625 71.796875 
Q 19.390625 75.984375 28.609375 75.984375 
z
" id="DejaVuSans-102"/>
      <path d="M 41.109375 46.296875 
Q 39.59375 47.171875 37.8125 47.578125 
Q 36.03125 48 33.890625 48 
Q 26.265625 48 22.1875 43.046875 
Q 18.109375 38.09375 18.109375 28.8125 
L 18.109375 0 
L 9.078125 0 
L 9.078125 54.6875 
L 18.109375 54.6875 
L 18.109375 46.1875 
Q 20.953125 51.171875 25.484375 53.578125 
Q 30.03125 56 36.53125 56 
Q 37.453125 56 38.578125 55.875 
Q 39.703125 55.765625 41.0625 55.515625 
z
" id="DejaVuSans-114"/>
      <path d="M 30.609375 48.390625 
Q 23.390625 48.390625 19.1875 42.75 
Q 14.984375 37.109375 14.984375 27.296875 
Q 14.984375 17.484375 19.15625 11.84375 
Q 23.34375 6.203125 30.609375 6.203125 
Q 37.796875 6.203125 41.984375 11.859375 
Q 46.1875 17.53125 46.1875 27.296875 
Q 46.1875 37.015625 41.984375 42.703125 
Q 37.796875 48.390625 30.609375 48.390625 
z
M 30.609375 56 
Q 42.328125 56 49.015625 48.375 
Q 55.71875 40.765625 55.71875 27.296875 
Q 55.71875 13.875 49.015625 6.21875 
Q 42.328125 -1.421875 30.609375 -1.421875 
Q 18.84375 -1.421875 12.171875 6.21875 
Q 5.515625 13.875 5.515625 27.296875 
Q 5.515625 40.765625 12.171875 48.375 
Q 18.84375 56 30.609375 56 
z
" id="DejaVuSans-111"/>
      <path d="M 52 44.1875 
Q 55.375 50.25 60.0625 53.125 
Q 64.75 56 71.09375 56 
Q 79.640625 56 84.28125 50.015625 
Q 88.921875 44.046875 88.921875 33.015625 
L 88.921875 0 
L 79.890625 0 
L 79.890625 32.71875 
Q 79.890625 40.578125 77.09375 44.375 
Q 74.3125 48.1875 68.609375 48.1875 
Q 61.625 48.1875 57.5625 43.546875 
Q 53.515625 38.921875 53.515625 30.90625 
L 53.515625 0 
L 44.484375 0 
L 44.484375 32.71875 
Q 44.484375 40.625 41.703125 44.40625 
Q 38.921875 48.1875 33.109375 48.1875 
Q 26.21875 48.1875 22.15625 43.53125 
Q 18.109375 38.875 18.109375 30.90625 
L 18.109375 0 
L 9.078125 0 
L 9.078125 54.6875 
L 18.109375 54.6875 
L 18.109375 46.1875 
Q 21.1875 51.21875 25.484375 53.609375 
Q 29.78125 56 35.6875 56 
Q 41.65625 56 45.828125 52.96875 
Q 50 49.953125 52 44.1875 
z
" id="DejaVuSans-109"/>
      <path d="M 11.71875 12.40625 
L 22.015625 12.40625 
L 22.015625 4 
L 14.015625 -11.625 
L 7.71875 -11.625 
L 11.71875 4 
z
" id="DejaVuSans-44"/>
      <path d="M 48.6875 27.296875 
Q 48.6875 37.203125 44.609375 42.84375 
Q 40.53125 48.484375 33.40625 48.484375 
Q 26.265625 48.484375 22.1875 42.84375 
Q 18.109375 37.203125 18.109375 27.296875 
Q 18.109375 17.390625 22.1875 11.75 
Q 26.265625 6.109375 33.40625 6.109375 
Q 40.53125 6.109375 44.609375 11.75 
Q 48.6875 17.390625 48.6875 27.296875 
z
M 18.109375 46.390625 
Q 20.953125 51.265625 25.265625 53.625 
Q 29.59375 56 35.59375 56 
Q 45.5625 56 51.78125 48.09375 
Q 58.015625 40.1875 58.015625 27.296875 
Q 58.015625 14.40625 51.78125 6.484375 
Q 45.5625 -1.421875 35.59375 -1.421875 
Q 29.59375 -1.421875 25.265625 0.953125 
Q 20.953125 3.328125 18.109375 8.203125 
L 18.109375 0 
L 9.078125 0 
L 9.078125 75.984375 
L 18.109375 75.984375 
z
" id="DejaVuSans-98"/>
     </defs>
     <g transform="translate(156.937344 335.860562)scale(0.1 -0.1)">
      <use xlink:href="#DejaVuSans-68"/>
      <use x="77.001953" xlink:href="#DejaVuSans-105"/>
      <use x="104.785156" xlink:href="#DejaVuSans-115"/>
      <use x="156.884766" xlink:href="#DejaVuSans-116"/>
      <use x="196.09375" xlink:href="#DejaVuSans-97"/>
      <use x="257.373047" xlink:href="#DejaVuSans-110"/>
      <use x="320.751953" xlink:href="#DejaVuSans-99"/>
      <use x="375.732422" xlink:href="#DejaVuSans-101"/>
      <use x="437.255859" xlink:href="#DejaVuSans-32"/>
      <use x="469.042969" xlink:href="#DejaVuSans-102"/>
      <use x="504.248047" xlink:href="#DejaVuSans-114"/>
      <use x="545.330078" xlink:href="#DejaVuSans-111"/>
      <use x="606.511719" xlink:href="#DejaVuSans-109"/>
      <use x="703.923828" xlink:href="#DejaVuSans-32"/>
      <use x="735.710938" xlink:href="#DejaVuSans-114"/>
      <use x="776.792969" xlink:href="#DejaVuSans-101"/>
      <use x="838.316406" xlink:href="#DejaVuSans-115"/>
      <use x="890.416016" xlink:href="#DejaVuSans-116"/>
      <use x="929.625" xlink:href="#DejaVuSans-114"/>
      <use x="970.738281" xlink:href="#DejaVuSans-105"/>
      <use x="998.521484" xlink:href="#DejaVuSans-99"/>
      <use x="1053.501953" xlink:href="#DejaVuSans-116"/>
      <use x="1092.710938" xlink:href="#DejaVuSans-105"/>
      <use x="1120.494141" xlink:href="#DejaVuSans-111"/>
      <use x="1181.675781" xlink:href="#DejaVuSans-110"/>
      <use x="1245.054688" xlink:href="#DejaVuSans-32"/>
      <use x="1276.841797" xlink:href="#DejaVuSans-115"/>
      <use x="1328.941406" xlink:href="#DejaVuSans-105"/>
      <use x="1356.724609" xlink:href="#DejaVuSans-116"/>
      <use x="1395.933594" xlink:href="#DejaVuSans-101"/>
      <use x="1457.457031" xlink:href="#DejaVuSans-44"/>
      <use x="1489.244141" xlink:href="#DejaVuSans-32"/>
      <use x="1521.03125" xlink:href="#DejaVuSans-98"/>
     </g>
    </g>
   </g>
   <g id="matplotlib.axis_2">
    <g id="ytick_1">
     <g id="line2d_7">
      <defs>
       <path d="M 0 0 
L -3.5 0 
" id="m6125c2f280" style="stroke:#000000;stroke-width:0.8;"/>
      </defs>
      <g>
       <use style="stroke:#000000;stroke-width:0.8;" x="57.6" xlink:href="#m6125c2f280" y="295.488"/>
      </g>
     </g>
     <g id="text_8">
      <!-- 0.00 -->
      <defs>
       <path d="M 10.6875 12.40625 
L 21 12.40625 
L 21 0 
L 10.6875 0 
z
" id="DejaVuSans-46"/>
      </defs>
      <g transform="translate(28.334375 299.287219)scale(0.1 -0.1)">
       <use xlink:href="#DejaVuSans-48"/>
       <use x="63.623047" xlink:href="#DejaVuSans-46"/>
       <use x="95.410156" xlink:href="#DejaVuSans-48"/>
       <use x="159.033203" xlink:href="#DejaVuSans-48"/>
      </g>
     </g>
    </g>
    <g id="ytick_2">
     <g id="line2d_8">
      <g>
       <use style="stroke:#000000;stroke-width:0.8;" x="57.6" xlink:href="#m6125c2f280" y="240.719721"/>
      </g>
     </g>
     <g id="text_9">
      <!-- 0.01 -->
      <g transform="translate(28.334375 244.51894)scale(0.1 -0.1)">
       <use xlink:href="#DejaVuSans-48"/>
       <use x="63.623047" xlink:href="#DejaVuSans-46"/>
       <use x="95.410156" xlink:href="#DejaVuSans-48"/>
       <use x="159.033203" xlink:href="#DejaVuSans-49"/>
      </g>
     </g>
    </g>
    <g id="ytick_3">
     <g id="line2d_9">
      <g>
       <use style="stroke:#000000;stroke-width:0.8;" x="57.6" xlink:href="#m6125c2f280" y="185.951442"/>
      </g>
     </g>
     <g id="text_10">
      <!-- 0.02 -->
      <g transform="translate(28.334375 189.750661)scale(0.1 -0.1)">
       <use xlink:href="#DejaVuSans-48"/>
       <use x="63.623047" xlink:href="#DejaVuSans-46"/>
       <use x="95.410156" xlink:href="#DejaVuSans-48"/>
       <use x="159.033203" xlink:href="#DejaVuSans-50"/>
      </g>
     </g>
    </g>
    <g id="ytick_4">
     <g id="line2d_10">
      <g>
       <use style="stroke:#000000;stroke-width:0.8;" x="57.6" xlink:href="#m6125c2f280" y="131.183163"/>
      </g>
     </g>
     <g id="text_11">
      <!-- 0.03 -->
      <g transform="translate(28.334375 134.982382)scale(0.1 -0.1)">
       <use xlink:href="#DejaVuSans-48"/>
       <use x="63.623047" xlink:href="#DejaVuSans-46"/>
       <use x="95.410156" xlink:href="#DejaVuSans-48"/>
       <use x="159.033203" xlink:href="#DejaVuSans-51"/>
      </g>
     </g>
    </g>
    <g id="ytick_5">
     <g id="line2d_11">
      <g>
       <use style="stroke:#000000;stroke-width:0.8;" x="57.6" xlink:href="#m6125c2f280" y="76.414885"/>
      </g>
     </g>
     <g id="text_12">
      <!-- 0.04 -->
      <g transform="translate(28.334375 80.214103)scale(0.1 -0.1)">
       <use xlink:href="#DejaVuSans-48"/>
       <use x="63.623047" xlink:href="#DejaVuSans-46"/>
       <use x="95.410156" xlink:href="#DejaVuSans-48"/>
       <use x="159.033203" xlink:href="#DejaVuSans-52"/>
      </g>
     </g>
    </g>
    <g id="text_13">
     <!-- Depth average -->
     <defs>
      <path d="M 18.109375 8.203125 
L 18.109375 -20.796875 
L 9.078125 -20.796875 
L 9.078125 54.6875 
L 18.109375 54.6875 
L 18.109375 46.390625 
Q 20.953125 51.265625 25.265625 53.625 
Q 29.59375 56 35.59375 56 
Q 45.5625 56 51.78125 48.09375 
Q 58.015625 40.1875 58.015625 27.296875 
Q 58.015625 14.40625 51.78125 6.484375 
Q 45.5625 -1.421875 35.59375 -1.421875 
Q 29.59375 -1.421875 25.265625 0.953125 
Q 20.953125 3.328125 18.109375 8.203125 
z
M 48.6875 27.296875 
Q 48.6875 37.203125 44.609375 42.84375 
Q 40.53125 48.484375 33.40625 48.484375 
Q 26.265625 48.484375 22.1875 42.84375 
Q 18.109375 37.203125 18.109375 27.296875 
Q 18.109375 17.390625 22.1875 11.75 
Q 26.265625 6.109375 33.40625 6.109375 
Q 40.53125 6.109375 44.609375 11.75 
Q 48.6875 17.390625 48.6875 27.296875 
z
" id="DejaVuSans-112"/>
      <path d="M 54.890625 33.015625 
L 54.890625 0 
L 45.90625 0 
L 45.90625 32.71875 
Q 45.90625 40.484375 42.875 44.328125 
Q 39.84375 48.1875 33.796875 48.1875 
Q 26.515625 48.1875 22.3125 43.546875 
Q 18.109375 38.921875 18.109375 30.90625 
L 18.109375 0 
L 9.078125 0 
L 9.078125 75.984375 
L 18.109375 75.984375 
L 18.109375 46.1875 
Q 21.34375 51.125 25.703125 53.5625 
Q 30.078125 56 35.796875 56 
Q 45.21875 56 50.046875 50.171875 
Q 54.890625 44.34375 54.890625 33.015625 
z
" id="DejaVuSans-104"/>
      <path d="M 2.984375 54.6875 
L 12.5 54.6875 
L 29.59375 8.796875 
L 46.6875 54.6875 
L 56.203125 54.6875 
L 35.6875 0 
L 23.484375 0 
z
" id="DejaVuSans-118"/>
      <path d="M 45.40625 27.984375 
Q 45.40625 37.75 41.375 43.109375 
Q 37.359375 48.484375 30.078125 48.484375 
Q 22.859375 48.484375 18.828125 43.109375 
Q 14.796875 37.75 14.796875 27.984375 
Q 14.796875 18.265625 18.828125 12.890625 
Q 22.859375 7.515625 30.078125 7.515625 
Q 37.359375 7.515625 41.375 12.890625 
Q 45.40625 18.265625 45.40625 27.984375 
z
M 54.390625 6.78125 
Q 54.390625 -7.171875 48.1875 -13.984375 
Q 42 -20.796875 29.203125 -20.796875 
Q 24.46875 -20.796875 20.265625 -20.09375 
Q 16.0625 -19.390625 12.109375 -17.921875 
L 12.109375 -9.1875 
Q 16.0625 -11.328125 19.921875 -12.34375 
Q 23.78125 -13.375 27.78125 -13.375 
Q 36.625 -13.375 41.015625 -8.765625 
Q 45.40625 -4.15625 45.40625 5.171875 
L 45.40625 9.625 
Q 42.625 4.78125 38.28125 2.390625 
Q 33.9375 0 27.875 0 
Q 17.828125 0 11.671875 7.65625 
Q 5.515625 15.328125 5.515625 27.984375 
Q 5.515625 40.671875 11.671875 48.328125 
Q 17.828125 56 27.875 56 
Q 33.9375 56 38.28125 53.609375 
Q 42.625 51.21875 45.40625 46.390625 
L 45.40625 54.6875 
L 54.390625 54.6875 
z
" id="DejaVuSans-103"/>
     </defs>
     <g transform="translate(22.254687 211.817062)rotate(-90)scale(0.1 -0.1)">
      <use xlink:href="#DejaVuSans-68"/>
      <use x="77.001953" xlink:href="#DejaVuSans-101"/>
      <use x="138.525391" xlink:href="#DejaVuSans-112"/>
      <use x="202.001953" xlink:href="#DejaVuSans-116"/>
      <use x="241.210938" xlink:href="#DejaVuSans-104"/>
      <use x="304.589844" xlink:href="#DejaVuSans-32"/>
      <use x="336.376953" xlink:href="#DejaVuSans-97"/>
      <use x="397.65625" xlink:href="#DejaVuSans-118"/>
      <use x="456.835938" xlink:href="#DejaVuSans-101"/>
      <use x="518.359375" xlink:href="#DejaVuSans-114"/>
      <use x="559.472656" xlink:href="#DejaVuSans-97"/>
      <use x="620.751953" xlink:href="#DejaVuSans-103"/>
      <use x="684.228516" xlink:href="#DejaVuSans-101"/>
     </g>
    </g>
   </g>
   <g id="line2d_12">
    <path clip-path="url(#p9549a35c53)" d="M 73.832727 272.132009 
L 74.222391 271.318096 
L 74.287335 271.605032 
L 74.482166 270.712027 
L 74.612054 270.750052 
L 74.936774 270.962328 
L 75.066661 271.300875 
L 75.391381 272.202556 
L 75.586213 272.517082 
L 76.170708 273.793715 
L 76.365539 274.247495 
L 76.625315 274.695213 
L 77.664417 275.67695 
L 77.924193 276.373186 
L 78.248912 276.867688 
L 78.508688 277.09519 
L 78.70352 277.07653 
L 78.833407 277.165631 
L 79.028239 277.596164 
L 79.352959 277.915348 
L 79.54779 278.534373 
L 79.87251 278.583237 
L 80.067341 278.561082 
L 80.262173 278.612103 
L 80.71678 278.672277 
L 80.911612 278.730264 
L 82.924873 278.87201 
L 84.418583 279.092689 
L 84.743302 279.024757 
L 85.003078 279.087665 
L 85.132966 279.134308 
L 85.327797 279.118427 
L 85.717461 279.155321 
L 88.185329 279.82704 
L 89.029599 279.50932 
L 89.87387 279.565198 
L 89.938814 279.732277 
L 90.003758 279.698584 
L 90.19859 279.599735 
L 90.718141 279.668917 
L 91.04286 279.478586 
L 91.36758 279.488264 
L 92.341738 278.731122 
L 93.186009 278.187026 
L 93.380841 278.135133 
L 94.419943 277.261973 
L 94.939494 276.973323 
L 95.19927 276.875325 
L 95.523989 276.610594 
L 95.653877 276.552225 
L 95.848709 276.492984 
L 96.173428 276.438397 
L 96.36826 276.299858 
L 96.433204 276.37281 
L 96.498148 276.30303 
L 97.082643 275.946727 
L 97.212531 275.977581 
L 97.342418 276.11679 
L 97.667138 276.045222 
L 97.861969 276.120663 
L 98.056801 276.04764 
L 98.381521 275.84459 
L 98.576352 275.703775 
L 98.70624 275.59413 
L 98.901072 275.503778 
L 99.160847 275.274711 
L 99.355679 275.258672 
L 99.420623 275.341024 
L 99.485567 275.264402 
L 99.87523 275.337555 
L 100.005118 275.5329 
L 100.329838 275.346666 
L 100.524669 275.345064 
L 100.719501 275.317298 
L 100.849389 275.329174 
L 100.914333 275.272704 
L 100.979277 275.386458 
L 101.04422 275.322176 
L 101.693659 274.914572 
L 101.758603 274.901132 
L 101.888491 275.088659 
L 101.953435 275.0685 
L 102.018379 275.23532 
L 102.083323 275.169027 
L 102.278155 275.190401 
L 102.408042 275.195983 
L 102.732762 275.108882 
L 103.187369 274.781643 
L 103.447145 274.565304 
L 103.70692 274.456923 
L 103.771864 274.703858 
L 103.836808 274.636032 
L 104.161528 274.99107 
L 104.291415 275.105356 
L 104.551191 275.028003 
L 104.940854 275.166081 
L 105.135686 275.074607 
L 105.395462 275.12689 
L 105.460406 275.376676 
L 105.525349 275.284471 
L 105.590293 275.21405 
L 105.720181 275.426366 
L 106.109845 275.095773 
L 106.239732 275.051069 
L 106.889171 274.405693 
L 107.408722 274.440585 
L 107.668498 274.188439 
L 107.86333 274.4015 
L 107.993218 274.505059 
L 108.188049 274.316916 
L 108.447825 274.255528 
L 108.512769 274.314684 
L 108.642657 274.106371 
L 108.772544 274.263362 
L 109.486927 273.36331 
L 109.616815 273.234187 
L 109.811647 273.030652 
L 110.461086 272.724305 
L 110.980637 272.173683 
L 111.110525 272.024157 
L 111.500188 271.536355 
L 111.630076 271.511206 
L 111.69502 271.579134 
L 112.084683 271.141515 
L 112.344459 270.818245 
L 112.799066 270.027866 
L 112.928954 269.914181 
L 113.123785 269.700389 
L 113.188729 269.739472 
L 113.448505 269.45087 
L 114.097944 268.715691 
L 114.162888 268.568608 
L 114.227832 268.623707 
L 114.35772 268.547991 
L 114.422663 268.413656 
L 114.617495 267.900819 
L 114.877271 267.4891 
L 115.20199 267.319546 
L 115.461766 267.011441 
L 115.656598 266.682721 
L 115.721541 266.749427 
L 115.786485 266.849122 
L 115.916373 266.558285 
L 115.981317 266.59315 
L 116.306036 266.454672 
L 116.565812 266.143011 
L 116.630756 266.327279 
L 116.6957 266.220954 
L 117.150307 265.391551 
L 117.280195 266.158877 
L 117.410083 266.048217 
L 117.475027 265.957878 
L 117.539971 266.429205 
L 117.604914 266.412032 
L 117.734802 265.897945 
L 117.86469 267.700024 
L 117.994578 267.593478 
L 118.18941 267.025873 
L 118.449185 267.214707 
L 118.773905 267.230897 
L 118.903792 267.528082 
L 119.163568 267.065535 
L 119.3584 267.000623 
L 119.488287 267.270459 
L 119.553231 267.22787 
L 119.683119 266.665487 
L 119.813007 266.912481 
L 119.942895 267.295228 
L 120.137726 266.931202 
L 120.332558 266.921588 
L 120.462446 266.912023 
L 120.52739 267.365656 
L 120.592334 267.21424 
L 120.657278 267.067198 
L 120.787165 267.596841 
L 120.852109 267.420748 
L 120.917053 267.438974 
L 121.501548 266.621319 
L 121.566492 266.684333 
L 121.69638 266.529405 
L 121.826268 266.756875 
L 121.891212 266.658945 
L 121.956156 266.724313 
L 122.150987 267.644534 
L 122.215931 267.528733 
L 122.475707 267.866849 
L 122.735482 267.790386 
L 122.800426 268.19523 
L 122.86537 268.029366 
L 123.384921 267.973184 
L 124.03436 266.749305 
L 124.099304 267.321298 
L 124.164248 267.220614 
L 124.294136 267.012994 
L 124.683799 266.512988 
L 124.813687 266.63559 
L 125.268294 265.87519 
L 125.333238 266.028217 
L 125.463126 266.255329 
L 125.982677 265.115638 
L 126.372341 264.721205 
L 126.437285 264.916058 
L 126.567172 264.479539 
L 126.632116 264.582359 
L 126.69706 264.565618 
L 126.891892 264.044051 
L 126.956836 264.078023 
L 127.086724 264.231743 
L 127.411443 263.518852 
L 127.476387 263.427525 
L 127.606275 263.918815 
L 127.86605 263.240362 
L 128.125826 263.066632 
L 128.19077 263.000398 
L 128.320658 263.438521 
L 128.515489 262.660494 
L 129.099984 261.26535 
L 129.489648 260.034069 
L 129.619536 259.877458 
L 130.268975 258.238989 
L 130.52875 256.803793 
L 130.723582 256.424228 
L 130.983357 255.129713 
L 131.048301 255.191132 
L 131.113245 255.122444 
L 131.308077 254.025525 
L 131.437965 253.27398 
L 131.502909 253.525999 
L 131.762684 252.935938 
L 131.957516 253.814151 
L 132.217291 253.403694 
L 132.282235 253.49954 
L 132.412123 253.260624 
L 132.477067 253.295653 
L 132.606955 253.438035 
L 133.061562 252.685023 
L 133.126506 252.853547 
L 133.256394 252.113955 
L 133.451226 253.032803 
L 133.775945 251.879153 
L 133.970777 253.21253 
L 134.36044 251.747782 
L 134.490328 250.805274 
L 134.555272 250.834588 
L 134.750103 250.171998 
L 134.879991 249.496918 
L 134.944935 249.534002 
L 135.074823 249.760766 
L 135.139767 249.634909 
L 135.204711 249.698467 
L 135.269655 249.64325 
L 136.568533 244.935753 
L 136.633477 244.876129 
L 137.412803 242.31431 
L 137.542691 242.803706 
L 137.802467 241.979781 
L 137.867411 241.766544 
L 138.062242 240.076782 
L 138.19213 240.052967 
L 138.386962 239.596808 
L 138.451906 239.633546 
L 138.51685 239.927223 
L 138.646737 238.945609 
L 138.711681 239.321521 
L 139.101345 237.588183 
L 139.166289 239.913728 
L 139.231232 239.630232 
L 139.296176 239.741585 
L 139.426064 239.252591 
L 139.555952 239.783403 
L 139.750784 238.738998 
L 139.815728 239.162603 
L 140.010559 238.111425 
L 140.140447 237.884453 
L 140.205391 238.014945 
L 140.270335 237.979264 
L 140.400223 238.12588 
L 140.465166 238.121921 
L 140.53011 238.29712 
L 140.659998 237.493946 
L 140.724942 237.453423 
L 140.85483 237.061406 
L 140.919774 237.093818 
L 141.049662 236.96561 
L 141.114605 237.175658 
L 141.179549 236.87809 
L 141.309437 235.07931 
L 141.374381 235.196337 
L 141.439325 234.702904 
L 141.504269 234.787786 
L 141.569213 234.921927 
L 141.764044 233.763939 
L 141.828988 233.553807 
L 142.088764 230.978588 
L 142.283596 229.982949 
L 142.543371 228.439675 
L 142.738203 228.043493 
L 142.997979 226.786447 
L 143.062922 226.868032 
L 143.387642 225.521489 
L 143.582474 224.53025 
L 143.842249 223.662975 
L 143.907193 224.010562 
L 144.166969 222.219749 
L 144.426744 221.518635 
L 144.556632 222.451723 
L 144.946295 220.162877 
L 145.011239 220.583331 
L 145.206071 219.974727 
L 145.271015 219.95072 
L 145.335959 226.793236 
L 145.400903 226.476235 
L 145.465847 226.488094 
L 145.595734 225.824155 
L 145.660678 224.741629 
L 145.790566 226.807294 
L 145.85551 226.86853 
L 145.920454 226.795377 
L 146.245173 224.6295 
L 146.310117 225.396829 
L 146.375061 224.995321 
L 146.440005 225.16846 
L 146.504949 225.977669 
L 146.569893 225.435842 
L 146.764725 224.992401 
L 146.829668 225.166192 
L 147.0245 226.999396 
L 147.089444 227.037767 
L 147.154388 226.770632 
L 147.219332 226.892429 
L 147.284276 226.854308 
L 147.34922 227.249959 
L 147.414164 227.229576 
L 147.479107 227.329357 
L 147.673939 226.727596 
L 147.868771 227.089104 
L 147.933715 227.040876 
L 148.19349 226.449996 
L 148.323378 225.155207 
L 148.388322 225.436822 
L 148.51821 226.585156 
L 148.583154 226.631401 
L 148.777985 224.571499 
L 149.037761 225.701755 
L 149.102705 225.803558 
L 149.297537 226.341943 
L 149.36248 226.157112 
L 149.427424 225.555199 
L 149.557312 226.2756 
L 149.622256 226.15326 
L 149.6872 226.652427 
L 149.752144 226.566033 
L 149.946976 227.190607 
L 150.011919 227.097235 
L 150.206751 226.185516 
L 150.271695 226.526215 
L 150.596415 224.496141 
L 150.661358 225.390951 
L 150.726302 224.77154 
L 150.791246 224.683801 
L 150.921134 223.821467 
L 151.051022 224.086199 
L 151.18091 223.743469 
L 151.245854 223.762461 
L 151.375741 224.092475 
L 151.440685 223.890232 
L 151.570573 222.795313 
L 151.635517 223.098699 
L 151.700461 223.205702 
L 151.765405 223.104275 
L 151.960236 224.967244 
L 152.155068 223.646814 
L 152.220012 223.610424 
L 152.869451 218.663028 
L 152.999339 220.621553 
L 153.064283 220.567562 
L 153.129227 220.287572 
L 153.324058 221.748056 
L 153.453946 221.068066 
L 153.583834 221.189241 
L 153.648778 221.358306 
L 153.713722 221.317383 
L 153.778666 220.982063 
L 153.843609 221.524038 
L 153.973497 220.916935 
L 154.038441 220.926763 
L 154.103385 220.781643 
L 154.233273 221.114818 
L 154.493048 217.773416 
L 154.622936 218.944085 
L 154.817768 217.351774 
L 154.882712 217.570831 
L 154.947656 218.826705 
L 155.0126 218.813434 
L 155.142487 218.374263 
L 155.272375 219.080084 
L 155.402263 218.245581 
L 155.467207 218.440227 
L 155.532151 218.404607 
L 155.986758 216.427596 
L 156.116646 216.624766 
L 156.18159 216.553362 
L 156.246534 216.203395 
L 156.311478 216.55229 
L 156.636197 214.262394 
L 156.701141 213.975705 
L 156.895973 215.325303 
L 157.090804 213.921554 
L 157.220692 214.219727 
L 157.415524 212.902657 
L 157.480468 212.567114 
L 157.610356 215.910476 
L 157.675299 215.730779 
L 157.805187 216.260612 
L 157.870131 215.211018 
L 157.935075 215.567485 
L 158.000019 215.607308 
L 158.259795 214.532856 
L 158.389682 216.586853 
L 158.51957 216.000092 
L 158.714402 213.422473 
L 159.169009 208.504495 
L 159.233953 208.072993 
L 159.298897 208.314019 
L 159.363841 209.022637 
L 159.428785 208.487495 
L 159.493729 210.055547 
L 159.558672 209.015547 
L 159.623616 209.121531 
L 159.68856 209.479819 
L 159.753504 209.041568 
L 159.818448 209.072515 
L 159.948336 209.46936 
L 160.01328 209.136286 
L 160.078224 209.429507 
L 160.273055 207.088914 
L 160.337999 207.114251 
L 160.402943 206.726245 
L 160.662719 211.757857 
L 160.792607 212.229589 
L 160.922494 211.934337 
L 160.987438 210.376071 
L 161.052382 210.541736 
L 161.117326 210.428484 
L 161.18227 209.91632 
L 161.247214 210.523598 
L 161.312158 210.409026 
L 161.377102 210.257218 
L 161.831709 205.714888 
L 161.896653 205.667588 
L 162.091484 206.690147 
L 162.156428 206.548388 
L 162.221372 205.673629 
L 162.35126 212.53923 
L 162.611036 214.215232 
L 162.67598 214.293884 
L 162.740923 214.231532 
L 162.805867 214.082321 
L 162.870811 214.412416 
L 162.935755 214.31978 
L 163.065643 213.353407 
L 163.325419 215.309528 
L 163.390362 214.95397 
L 163.585194 215.889409 
L 163.715082 215.636583 
L 163.780026 215.966181 
L 163.84497 215.702281 
L 163.909914 217.163472 
L 163.974858 217.109577 
L 164.039801 217.483465 
L 164.104745 216.906651 
L 164.169689 217.559175 
L 164.234633 219.462819 
L 164.299577 218.936906 
L 164.364521 218.408588 
L 164.429465 218.757878 
L 164.494409 219.408232 
L 164.559353 219.276606 
L 164.624296 219.523187 
L 164.68924 219.233077 
L 164.754184 222.573337 
L 164.819128 222.238887 
L 164.884072 222.71005 
L 165.078904 221.734339 
L 165.143848 222.244108 
L 165.208792 221.918828 
L 165.273735 221.989536 
L 165.403623 221.234607 
L 165.598455 223.016919 
L 165.663399 222.814082 
L 165.728343 222.852611 
L 165.988118 217.947218 
L 166.312838 216.528157 
L 166.442726 214.211005 
L 166.50767 214.457739 
L 166.637557 215.096551 
L 166.702501 215.686468 
L 166.897333 213.936116 
L 167.092165 214.64036 
L 167.35194 212.40424 
L 167.416884 211.950849 
L 167.481828 212.402405 
L 167.546772 212.288511 
L 167.67666 215.197345 
L 167.936435 211.136206 
L 168.001379 210.900586 
L 168.131267 213.187001 
L 168.261155 210.732229 
L 168.326099 210.349528 
L 168.52093 206.637771 
L 168.650818 210.265888 
L 168.715762 210.100267 
L 169.040482 205.661963 
L 169.235313 202.704194 
L 169.300257 202.352007 
L 169.430145 203.334038 
L 169.624977 201.256786 
L 169.754864 202.678069 
L 170.01464 200.762989 
L 170.079584 200.848755 
L 170.144528 201.011092 
L 170.33936 196.585081 
L 170.729023 192.953926 
L 170.858911 191.15133 
L 170.923855 191.924983 
L 170.988798 191.723061 
L 171.313518 188.534167 
L 171.443406 193.629734 
L 171.50835 193.272318 
L 172.157789 182.084749 
L 172.222733 181.358312 
L 172.612396 166.388569 
L 172.67734 167.172336 
L 172.742284 168.986736 
L 172.807228 168.761944 
L 172.872172 190.707034 
L 172.937115 190.309795 
L 173.002059 190.596233 
L 173.196891 188.03776 
L 173.261835 187.620192 
L 173.391723 196.527756 
L 173.456667 196.249102 
L 173.586554 193.567192 
L 173.651498 194.285414 
L 173.716442 194.086 
L 173.781386 195.619973 
L 173.911274 193.179847 
L 173.976218 193.59257 
L 174.041162 193.800062 
L 174.106106 192.702305 
L 174.171049 193.586068 
L 174.300937 192.327089 
L 174.755545 194.891856 
L 174.820488 195.011917 
L 174.885432 193.826852 
L 174.950376 193.842354 
L 175.01532 193.865856 
L 175.080264 194.219628 
L 175.145208 193.796236 
L 175.210152 194.51471 
L 175.275096 194.179993 
L 175.34004 193.748396 
L 175.404984 191.802754 
L 175.534871 193.588585 
L 175.729703 192.794488 
L 175.794647 193.283309 
L 175.859591 194.973684 
L 175.924535 194.145692 
L 176.249254 188.680956 
L 176.314198 188.555448 
L 176.638918 185.24508 
L 176.703861 185.744331 
L 176.833749 187.096709 
L 176.898693 186.201969 
L 176.963637 187.224529 
L 177.093525 185.920578 
L 177.158469 186.559178 
L 177.223413 185.136699 
L 177.288357 185.494867 
L 177.418244 186.384208 
L 177.548132 183.107966 
L 177.613076 183.360874 
L 177.872852 179.738953 
L 177.937796 179.980424 
L 178.002739 177.525131 
L 178.067683 179.541243 
L 178.132627 178.640102 
L 178.197571 178.603201 
L 178.262515 178.846399 
L 178.327459 180.087228 
L 178.392403 179.925269 
L 178.522291 180.286542 
L 178.587235 179.991721 
L 178.652178 178.661589 
L 178.782066 180.633688 
L 178.84701 177.87857 
L 178.911954 178.742287 
L 178.976898 179.018019 
L 179.041842 180.128391 
L 179.17173 177.12625 
L 179.301617 181.118204 
L 179.366561 179.299304 
L 179.431505 180.172191 
L 179.496449 179.838542 
L 179.756225 181.683387 
L 179.821169 181.511889 
L 179.951056 178.733917 
L 180.016 178.808986 
L 180.145888 173.447975 
L 180.210832 174.211345 
L 180.275776 172.153611 
L 180.34072 172.921168 
L 180.405664 172.734613 
L 180.470608 174.634569 
L 180.535551 171.818223 
L 180.600495 172.876155 
L 180.665439 172.355492 
L 180.925215 165.47328 
L 180.990159 166.992932 
L 181.704542 150.72371 
L 181.769486 150.953262 
L 181.899373 147.427055 
L 182.029261 143.338852 
L 182.159149 145.143705 
L 182.289037 142.311878 
L 182.353981 141.970016 
L 183.068363 128.24633 
L 183.198251 132.660244 
L 183.263195 130.915661 
L 183.587915 119.294687 
L 183.717802 118.124026 
L 183.84769 113.134056 
L 183.977578 118.163776 
L 184.042522 117.713312 
L 184.302298 110.722855 
L 184.367241 110.722855 
L 184.432185 111.155054 
L 184.627017 119.309708 
L 184.691961 117.315554 
L 184.756905 117.534979 
L 184.821849 118.193251 
L 184.886793 117.754403 
L 185.081624 125.221629 
L 185.406344 117.771817 
L 185.471288 114.430192 
L 185.536232 116.776247 
L 185.666119 116.484052 
L 185.796007 116.915953 
L 185.860951 116.087494 
L 186.055783 109.139305 
L 186.120727 109.546313 
L 186.185671 110.954962 
L 186.380502 102.230141 
L 186.445446 102.467851 
L 186.640278 96.234131 
L 186.705222 96.537199 
L 186.770166 98.295064 
L 186.83511 91.191659 
L 186.900053 91.501442 
L 187.094885 85.536234 
L 187.159829 86.392932 
L 187.289717 86.803416 
L 187.419605 85.94158 
L 187.484549 87.730391 
L 187.614436 85.018468 
L 187.67938 86.718979 
L 187.744324 82.19968 
L 187.809268 84.540649 
L 187.939156 87.401834 
L 188.0041 86.522729 
L 188.069044 83.786219 
L 188.133988 84.098879 
L 188.263875 83.353612 
L 188.393763 77.930213 
L 188.458707 78.200807 
L 188.523651 81.014246 
L 188.588595 79.706103 
L 188.653539 79.211191 
L 188.783427 84.524233 
L 188.84837 83.547549 
L 188.913314 84.690633 
L 188.978258 80.110283 
L 189.043202 81.233505 
L 189.17309 83.66604 
L 189.367922 77.113226 
L 189.432865 76.827021 
L 189.627697 67.910038 
L 189.822529 72.651954 
L 190.082304 61.366348 
L 190.147248 62.565435 
L 190.34208 54.901429 
L 190.407024 55.565597 
L 190.861631 73.350925 
L 191.186351 63.072896 
L 191.251295 65.017793 
L 191.381182 62.264229 
L 191.446126 61.936667 
L 191.51107 60.371651 
L 191.576014 61.359535 
L 191.640958 62.018124 
L 191.705902 60.371651 
L 191.770846 61.359535 
L 191.965677 55.527323 
L 192.030621 53.568 
L 192.095565 54.906423 
L 192.420285 66.497605 
L 192.485229 67.850576 
L 192.550173 65.873653 
L 192.745004 70.007567 
L 192.874892 67.801191 
L 193.199612 78.876537 
L 193.329499 82.45376 
L 193.459387 76.161001 
L 193.524331 76.329775 
L 193.913994 92.682265 
L 194.043882 146.911416 
L 194.17377 150.449475 
L 194.303658 148.81325 
L 194.368602 153.441929 
L 194.433546 150.452668 
L 194.49849 148.416797 
L 194.563433 149.528166 
L 194.628377 150.269079 
L 194.693321 149.528166 
L 194.888153 155.825925 
L 194.953097 153.922775 
L 195.018041 154.616951 
L 195.34276 165.765762 
L 195.407704 165.356759 
L 195.537592 171.780629 
L 195.602536 171.398816 
L 195.66748 171.782993 
L 195.732424 170.239104 
L 195.862311 160.446146 
L 195.992199 161.926108 
L 196.122087 155.464747 
L 196.187031 159.138826 
L 196.251975 156.68944 
L 196.316919 155.872978 
L 196.51175 162.743984 
L 196.641638 167.703674 
L 196.771526 166.862988 
L 197.226133 156.335614 
L 197.356021 159.398717 
L 197.420965 158.877781 
L 197.550853 157.103622 
L 197.680741 157.103622 
L 198.070404 183.397018 
L 198.135348 182.950441 
L 198.330179 186.221237 
L 198.395123 185.321922 
L 198.460067 183.523292 
L 198.525011 183.972949 
L 198.719843 181.275005 
L 198.784787 184.038298 
L 198.849731 182.807287 
L 198.914675 182.869245 
L 199.044562 178.012363 
L 199.109506 178.959747 
L 199.369282 188.14599 
L 199.434226 187.668914 
L 199.49917 189.295777 
L 199.564114 188.815269 
L 199.629057 185.932222 
L 199.694001 187.373745 
L 199.758945 188.042278 
L 199.823889 187.558288 
L 199.953777 192.398186 
L 200.213553 185.479979 
L 200.278496 186.953301 
L 200.473328 182.763371 
L 200.538272 186.330255 
L 200.603216 184.336506 
L 200.798048 180.487671 
L 200.862992 181.994226 
L 200.927935 184.002965 
L 200.992879 182.22336 
L 201.122767 187.399421 
L 201.382543 178.222089 
L 201.577374 182.457781 
L 201.642318 181.944007 
L 201.83715 184.512876 
L 201.902094 184.512876 
L 202.096926 188.623066 
L 202.226813 187.694702 
L 202.356701 188.830168 
L 202.421645 187.794655 
L 202.616477 189.865681 
L 202.746365 187.475103 
L 202.876252 194.780323 
L 203.071084 187.676427 
L 203.136028 187.150517 
L 203.460747 194.77204 
L 203.525691 194.77204 
L 203.590635 196.362292 
L 203.785467 193.686223 
L 203.850411 195.840758 
L 203.980299 193.147589 
L 204.17513 197.995293 
L 204.240074 195.302124 
L 204.305018 196.379392 
L 204.369962 195.840758 
L 204.694681 200.776762 
L 204.759625 199.134371 
L 204.889513 204.061545 
L 204.954457 203.685304 
L 205.019401 203.857943 
L 205.084345 204.961919 
L 205.538952 196.434168 
L 205.603896 198.698255 
L 205.733784 195.868146 
L 205.928616 198.132234 
L 206.253335 189.641905 
L 206.318279 191.339971 
L 206.513111 185.679752 
L 206.578055 187.943839 
L 206.642998 183.981686 
L 206.707942 187.943839 
L 206.772886 182.849642 
L 206.83783 185.11373 
L 207.032662 182.849642 
L 207.097606 179.032623 
L 207.16255 183.028641 
L 207.227493 182.457781 
L 207.292437 181.316062 
L 207.422325 172.182307 
L 207.487269 173.324026 
L 207.552213 171.040587 
L 207.811989 184.362287 
L 207.876932 184.938068 
L 207.941876 199.658032 
L 208.00682 196.906265 
L 208.071764 197.803093 
L 208.136708 197.370859 
L 208.266596 192.642322 
L 208.461428 184.367382 
L 208.656259 182.182545 
L 208.721203 183.971579 
L 208.786147 182.77889 
L 208.851091 182.77889 
L 209.17581 176.815445 
L 209.435586 182.365209 
L 209.695362 178.300885 
L 209.760306 180.122446 
L 209.825249 177.693697 
L 209.890193 179.515259 
L 210.149969 169.193078 
L 210.279857 167.978703 
L 210.66952 175.872136 
L 210.864352 171.710955 
L 210.99424 174.161985 
L 211.059183 173.549227 
L 211.124127 174.161985 
L 211.189071 172.93647 
L 211.254015 177.838531 
L 211.318959 177.225773 
L 211.513791 171.894209 
L 211.578735 173.142631 
L 211.643679 174.391053 
L 211.83851 186.251064 
L 212.228174 179.081554 
L 212.423005 169.005348 
L 212.487949 170.336712 
L 212.552893 169.039807 
L 212.617837 170.985164 
L 212.812669 165.83569 
L 212.877613 166.4905 
L 212.942557 171.074167 
L 213.0075 168.454929 
L 213.137388 163.229418 
L 213.267276 166.535882 
L 213.591995 153.136351 
L 213.656939 154.485656 
L 213.721883 155.160308 
L 214.046603 140.097662 
L 214.111547 140.779198 
L 214.176491 139.416125 
L 214.436266 124.561559 
L 214.696042 138.206947 
L 214.760986 136.770591 
L 214.82593 135.334234 
L 214.955817 140.127294 
L 215.085705 145.935171 
L 215.150649 143.757217 
L 215.215593 143.757217 
L 215.280537 148.113125 
L 215.345481 145.935171 
L 215.540312 139.401309 
L 215.605256 139.401309 
L 215.800088 135.771386 
L 215.865032 141.468183 
L 215.929976 136.952108 
L 216.059864 148.548715 
L 216.124808 146.322363 
L 216.189751 139.393152 
L 216.254695 140.894064 
L 216.384583 143.145432 
L 216.449527 143.145432 
L 216.644359 135.640872 
L 217.098966 146.897712 
L 217.293798 152.150904 
L 217.358742 151.281057 
L 217.488629 146.727154 
L 217.748405 152.799025 
L 217.813349 142.17325 
L 217.878293 147.486138 
L 218.008181 145.96817 
L 218.073124 143.691218 
L 218.138068 146.727154 
L 218.203012 145.209186 
L 218.267956 145.209186 
L 218.527732 141.71433 
L 218.592676 146.374138 
L 218.65762 145.597503 
L 218.787507 144.820869 
L 218.852451 144.820869 
L 218.917395 147.927408 
L 218.982339 147.150773 
L 219.112227 149.334487 
L 219.436946 172.24347 
L 219.696722 168.26784 
L 219.761666 168.26784 
L 219.891554 161.906832 
L 219.956497 162.701958 
L 220.086385 156.34095 
L 220.151329 158.726328 
L 220.216273 158.726328 
L 220.540993 149.184816 
L 220.605936 149.979942 
L 220.800768 157.931202 
L 220.865712 157.931202 
L 220.9956 175.586831 
L 221.060544 174.782125 
L 221.125488 174.782125 
L 221.320319 179.61036 
L 221.450207 177.196243 
L 221.580095 183.63389 
L 221.645039 183.63389 
L 221.709983 181.219772 
L 221.774927 183.63389 
L 221.839871 182.955986 
L 222.034702 176.749184 
L 222.099646 176.749184 
L 222.16459 174.275459 
L 222.229534 175.924609 
L 222.294478 175.924609 
L 222.359422 175.100034 
L 222.619197 183.345785 
L 222.684141 179.222909 
L 222.749085 181.696635 
L 222.878973 180.047485 
L 223.008861 185.81951 
L 223.33358 170.977158 
L 223.398524 172.626309 
L 223.463468 169.328008 
L 223.528412 170.203799 
L 223.593356 169.420773 
L 223.723244 213.284204 
L 223.788187 214.140494 
L 223.853131 216.709363 
L 223.918075 215.853073 
L 224.047963 215.853073 
L 224.112907 216.709363 
L 224.242795 214.996783 
L 224.307739 212.427915 
L 224.372683 213.284204 
L 224.567514 210.715336 
L 224.82729 217.565652 
L 225.022122 239.973748 
L 225.087065 239.973748 
L 225.216953 239.106338 
L 225.281897 239.106338 
L 225.346841 237.371518 
L 225.411785 239.106338 
L 225.476729 238.238928 
L 225.541673 238.737831 
L 225.736504 231.333886 
L 225.866392 231.369039 
L 226.061224 234.040663 
L 226.191112 231.369039 
L 226.385943 236.712286 
L 226.515831 234.040663 
L 226.645719 234.931204 
L 227.035382 223.354169 
L 227.100326 224.24471 
L 227.16527 224.24471 
L 227.295158 223.354169 
L 227.48999 225.135252 
L 227.619877 225.135252 
L 227.684821 226.025793 
L 227.749765 237.602827 
L 227.814709 235.821745 
L 227.944597 237.846811 
L 228.139429 235.101993 
L 228.204373 235.101993 
L 228.269316 233.272114 
L 228.529092 240.374092 
L 228.594036 239.985965 
L 228.723924 237.163828 
L 228.853811 239.985965 
L 228.918755 239.045253 
L 229.048643 239.045253 
L 229.243475 236.223116 
L 229.373363 236.223116 
L 229.633138 239.045253 
L 229.698082 237.163828 
L 229.763026 238.104541 
L 230.022802 242.808103 
L 230.152689 244.689528 
L 230.217633 243.748815 
L 230.282577 245.63024 
L 230.347521 244.689528 
L 230.477409 241.86739 
L 230.542353 241.86739 
L 230.607297 240.926678 
L 230.802128 242.808103 
L 230.932016 240.926678 
L 231.061904 240.926678 
L 231.32168 250.333802 
L 231.386624 248.452378 
L 231.516511 250.333802 
L 231.581455 249.39309 
L 231.711343 253.15594 
L 231.776287 254.096652 
L 231.971119 262.092708 
L 232.16595 265.909313 
L 232.295838 265.480636 
L 232.360782 267.416595 
L 232.425726 266.448616 
L 232.620558 266.448616 
L 232.750445 267.416595 
L 232.880333 265.480636 
L 232.945277 265.480636 
L 233.140109 263.544677 
L 233.205053 263.544677 
L 233.269997 262.576698 
L 233.399884 265.480636 
L 233.464828 265.480636 
L 233.529772 266.448616 
L 233.65966 261.608718 
L 233.724604 261.608718 
L 233.789548 260.640739 
L 233.984379 265.480636 
L 234.049323 260.640739 
L 234.114267 261.608718 
L 234.374043 255.800841 
L 234.438987 255.800841 
L 234.503931 254.832862 
L 234.633818 247.359491 
L 234.698762 250.306134 
L 234.763706 248.341705 
L 234.958538 242.448419 
L 235.023482 242.448419 
L 235.088426 239.501775 
L 235.15337 240.48399 
L 235.218313 240.48399 
L 235.283257 241.466204 
L 235.413145 240.48399 
L 235.478089 240.48399 
L 235.607977 238.519561 
L 235.737865 243.430633 
L 235.802809 242.448419 
L 235.932696 243.430633 
L 236.127528 235.572917 
L 236.32236 232.626274 
L 236.452248 233.608488 
L 236.712023 230.661845 
L 236.841911 230.661845 
L 236.906855 229.679631 
L 237.101687 235.572917 
L 237.16663 235.572917 
L 237.426406 238.519561 
L 237.556294 242.653657 
L 237.621238 242.653657 
L 237.751125 240.311003 
L 237.816069 242.354595 
L 237.881013 241.332799 
L 238.010901 239.289206 
L 238.205733 239.289206 
L 238.270677 238.26741 
L 238.400564 239.289206 
L 238.530452 238.26741 
L 238.66034 239.289206 
L 238.725284 239.289206 
L 238.920116 242.354595 
L 238.98506 242.354595 
L 239.114947 240.311003 
L 239.179891 241.332799 
L 239.309779 245.419984 
L 239.374723 241.332799 
L 239.569555 247.463576 
L 239.699442 247.463576 
L 239.764386 248.485373 
L 240.024162 244.398188 
L 240.15405 250.528965 
L 240.218994 250.528965 
L 240.283938 249.507169 
L 240.413825 253.594354 
L 240.543713 252.572558 
L 240.608657 252.572558 
L 240.738545 254.61615 
L 240.803489 253.594354 
L 240.933376 261.768724 
L 240.99832 261.768724 
L 241.063264 263.574153 
L 241.128208 263.332382 
L 241.258096 261.257826 
L 241.32304 261.784444 
L 241.452928 260.731208 
L 241.777647 260.731208 
L 241.907535 264.944152 
L 241.972479 263.890916 
L 242.037423 260.380129 
L 242.102367 260.58223 
L 242.297198 268.035229 
L 242.427086 263.459767 
L 242.49203 263.203541 
L 242.621918 265.267812 
L 242.686862 265.267812 
L 242.751806 264.45105 
L 242.881693 262.063593 
L 243.336301 262.063593 
L 243.401245 261.515652 
L 243.466189 259.715926 
L 243.531132 260.949446 
L 243.596076 265.883525 
L 243.66102 265.381754 
L 243.725964 265.381754 
L 243.855852 266.636181 
L 243.98574 265.381754 
L 244.050684 267.890608 
L 244.180571 265.381754 
L 244.310459 266.636181 
L 244.440347 266.636181 
L 244.700123 260.364047 
L 244.83001 262.8729 
L 244.959898 262.8729 
L 245.089786 261.618473 
L 245.219674 261.618473 
L 245.479449 254.654241 
L 245.544393 254.654241 
L 245.804169 251.449179 
L 245.934057 252.783689 
L 245.999001 252.783689 
L 246.128888 246.11114 
L 246.258776 248.78016 
L 246.388664 248.78016 
L 246.518552 246.11114 
L 246.64844 247.44565 
L 246.713383 247.44565 
L 246.843271 250.11467 
L 247.038103 250.11467 
L 247.103047 248.78016 
L 247.232935 256.787218 
L 247.427766 256.096133 
L 247.557654 256.096133 
L 247.622598 258.812813 
L 247.687542 257.111829 
L 247.81743 256.762954 
L 247.882374 256.762954 
L 248.012261 259.529029 
L 248.142149 259.529029 
L 248.272037 256.762954 
L 248.401925 256.762954 
L 248.6617 260.912066 
L 248.856532 260.912066 
L 249.051364 265.061178 
L 249.181252 274.74244 
L 249.311139 270.593328 
L 249.441027 273.359402 
L 249.505971 273.359402 
L 249.635859 278.891552 
L 249.700803 278.891552 
L 249.830691 277.508515 
L 249.895634 277.508515 
L 250.025522 276.125477 
L 250.090466 276.125477 
L 250.15541 274.74244 
L 250.285298 266.444216 
L 250.545073 270.593328 
L 250.739905 270.593328 
L 250.869793 265.061178 
L 250.934737 267.827253 
L 250.999681 267.036946 
L 251.3244 267.036946 
L 251.389344 265.614393 
L 251.454288 267.036946 
L 251.584176 272.727157 
L 251.714064 272.727157 
L 251.843951 275.572262 
L 252.103727 275.572262 
L 252.233615 278.417368 
L 252.428446 278.417368 
L 252.49339 275.572262 
L 252.558334 276.994815 
L 252.623278 281.262473 
L 252.688222 280.709727 
L 252.753166 280.572891 
L 252.883054 274.606848 
L 252.947998 274.606848 
L 253.532493 263.217129 
L 253.597437 263.217129 
L 253.857212 259.476839 
L 253.922156 259.476839 
L 253.9871 261.042542 
L 254.116988 257.911136 
L 254.181932 257.911136 
L 254.311819 253.214028 
L 254.376763 254.779731 
L 254.441707 254.779731 
L 254.571595 253.214028 
L 254.636539 253.214028 
L 255.15609 239.122704 
L 255.221034 240.688407 
L 255.285978 246.951218 
L 255.350922 245.385515 
L 255.545754 242.25411 
L 255.675641 246.951218 
L 255.870473 242.25411 
L 256.065305 251.648326 
L 256.260136 251.648326 
L 256.519912 256.345434 
L 256.714744 256.345434 
L 256.844631 254.779731 
L 256.909575 259.476839 
L 256.974519 257.911136 
L 257.039463 256.345434 
L 257.234295 259.476839 
L 257.299239 259.476839 
L 257.364183 261.042542 
L 257.49407 253.214028 
L 257.559014 254.779731 
L 257.623958 251.648326 
L 257.753846 254.779731 
L 257.883734 254.779731 
L 258.013622 257.911136 
L 258.143509 257.911136 
L 258.338341 264.173947 
L 258.403285 264.173947 
L 258.533173 256.345434 
L 258.663061 256.345434 
L 258.792948 253.214028 
L 258.857892 254.779731 
L 258.98778 261.042542 
L 259.052724 261.042542 
L 259.247556 251.648326 
L 259.377443 253.214028 
L 259.442387 253.214028 
L 259.896995 228.162786 
L 259.961939 226.597083 
L 260.091826 229.728489 
L 260.286658 226.597083 
L 260.416546 228.162786 
L 260.48149 225.031381 
L 260.546434 226.597083 
L 260.741265 220.334273 
L 260.806209 221.899975 
L 260.871153 223.465678 
L 260.936097 221.899975 
L 261.065985 231.294191 
L 261.195873 232.859894 
L 261.260817 226.597083 
L 261.32576 228.162786 
L 261.520592 234.425596 
L 261.585536 243.819812 
L 261.65048 239.122704 
L 261.780368 235.991299 
L 261.845312 235.991299 
L 261.910256 231.294191 
L 261.975199 232.859894 
L 262.429807 223.465678 
L 262.494751 223.465678 
L 262.624638 217.202867 
L 262.754526 218.76857 
L 262.949358 214.071462 
L 263.079246 218.76857 
L 263.209133 214.071462 
L 263.274077 214.071462 
L 263.403965 217.202867 
L 263.468909 215.637165 
L 263.533853 210.940057 
L 263.598797 214.071462 
L 263.663741 212.505759 
L 263.793629 204.677246 
L 263.858572 206.242949 
L 263.923516 206.242949 
L 264.248236 199.980138 
L 264.378124 206.242949 
L 264.572955 198.414435 
L 264.702843 204.677246 
L 264.832731 204.677246 
L 264.897675 206.242949 
L 265.092507 214.071462 
L 265.287338 220.334273 
L 265.547114 231.294191 
L 265.612058 231.294191 
L 265.806889 235.991299 
L 265.936777 234.425596 
L 266.066665 234.425596 
L 266.131609 228.162786 
L 266.196553 229.728489 
L 266.326441 234.425596 
L 266.391384 234.425596 
L 266.521272 230.059695 
L 266.65116 226.86807 
L 266.716104 226.86807 
L 266.845992 225.272258 
L 266.97588 230.059695 
L 267.040823 228.463883 
L 267.105767 230.059695 
L 267.235655 228.463883 
L 267.300599 230.059695 
L 267.560375 225.522581 
L 267.690262 227.149684 
L 267.950038 217.387068 
L 268.079926 217.387068 
L 268.339701 230.40389 
L 268.534533 219.01417 
L 268.664421 219.01417 
L 268.794309 220.641273 
L 268.859253 220.641273 
L 268.924196 222.268376 
L 269.119028 217.387068 
L 269.183972 217.387068 
L 269.31386 220.641273 
L 269.378804 219.01417 
L 269.508692 220.641273 
L 269.898355 220.641273 
L 269.963299 219.01417 
L 270.093187 220.641273 
L 270.223074 220.641273 
L 270.417906 217.387068 
L 270.677682 223.895479 
L 270.80757 222.268376 
L 270.937457 222.268376 
L 271.067345 225.522581 
L 271.132289 223.895479 
L 271.327121 217.387068 
L 271.457008 219.01417 
L 271.586896 219.01417 
L 271.97656 233.658095 
L 272.366223 241.793609 
L 272.496111 241.793609 
L 272.690943 258.064637 
L 272.885774 261.318842 
L 273.015662 259.691739 
L 273.080606 259.691739 
L 273.210494 262.295104 
L 273.275438 260.635459 
L 273.405325 262.295104 
L 273.535213 261.617698 
L 273.665101 263.311213 
L 273.989821 263.311213 
L 274.119708 261.617698 
L 274.31454 261.617698 
L 274.444428 259.924183 
L 274.574316 259.924183 
L 274.704203 261.617698 
L 274.769147 261.617698 
L 274.963979 258.230667 
L 275.028923 258.230667 
L 275.093867 268.391758 
L 275.158811 266.698243 
L 275.48353 259.924183 
L 275.548474 259.924183 
L 275.678362 261.617698 
L 275.743306 259.924183 
L 275.80825 263.311213 
L 275.873194 261.617698 
L 275.938137 261.617698 
L 276.327801 253.150122 
L 276.392745 253.150122 
L 276.522633 254.843637 
L 276.587576 254.843637 
L 276.717464 258.230667 
L 277.107128 258.230667 
L 277.237015 256.537152 
L 277.626679 256.537152 
L 277.691623 259.924183 
L 277.756567 258.230667 
L 277.886454 258.230667 
L 278.081286 266.698243 
L 278.276118 266.698243 
L 278.406006 265.004728 
L 278.535893 265.004728 
L 278.600837 266.698243 
L 278.795669 273.472303 
L 278.925557 271.778788 
L 279.185332 271.778788 
L 279.250276 270.085273 
L 279.574996 276.859334 
L 279.63994 276.859334 
L 279.834771 283.633394 
L 279.964659 287.020424 
L 280.159491 281.939879 
L 280.289379 285.326909 
L 281.523313 285.326909 
L 281.718144 278.552849 
L 281.848032 278.552849 
L 281.97792 280.246364 
L 282.042864 280.246364 
L 282.172752 278.552849 
L 282.757247 278.552849 
L 282.887135 276.859334 
L 283.081966 281.939879 
L 283.211854 280.246364 
L 283.536573 280.246364 
L 283.861293 287.020424 
L 283.926237 287.020424 
L 284.056125 285.326909 
L 284.3159 285.326909 
L 284.380844 287.020424 
L 284.575676 283.633394 
L 284.900395 283.633394 
L 284.965339 280.246364 
L 285.030283 281.939879 
L 285.160171 280.246364 
L 285.290059 280.246364 
L 285.419947 281.939879 
L 285.48489 281.939879 
L 285.614778 280.246364 
L 285.874554 280.246364 
L 286.004442 278.552849 
L 286.199273 278.552849 
L 286.329161 276.859334 
L 286.394105 276.859334 
L 286.459049 278.552849 
L 286.588937 276.859334 
L 286.848712 276.859334 
L 286.9786 273.472303 
L 287.108488 273.472303 
L 287.238376 275.165819 
L 287.433207 275.165819 
L 287.498151 276.859334 
L 287.628039 273.472303 
L 287.757927 275.165819 
L 288.082646 275.165819 
L 288.212534 273.472303 
L 288.342422 273.472303 
L 288.47231 275.165819 
L 288.861973 275.165819 
L 289.056805 280.246364 
L 289.186693 280.246364 
L 289.381524 279.92883 
L 289.446468 281.657627 
L 289.576356 279.92883 
L 289.6413 281.657627 
L 289.771188 279.92883 
L 289.901075 279.92883 
L 290.030963 281.657627 
L 290.290739 276.471237 
L 290.420627 276.471237 
L 290.745346 283.386423 
L 290.81029 283.386423 
L 290.940178 286.844017 
L 291.199953 286.844017 
L 291.329841 288.572813 
L 291.394785 288.572813 
L 291.589617 292.030407 
L 291.914336 292.030407 
L 292.044224 290.30161 
L 292.693663 290.30161 
L 292.888495 286.844017 
L 293.018383 286.844017 
L 293.14827 285.11522 
L 293.278158 285.11522 
L 293.408046 286.844017 
L 293.537934 285.11522 
L 293.667822 285.11522 
L 293.797709 283.386423 
L 293.992541 283.386423 
L 294.122429 281.657627 
L 294.512092 281.657627 
L 294.577036 283.386423 
L 294.706924 281.657627 
L 294.836812 283.386423 
L 295.031643 283.386423 
L 295.161531 279.92883 
L 295.291419 281.657627 
L 295.486251 281.657627 
L 295.551195 274.74244 
L 295.616139 276.471237 
L 295.681082 276.471237 
L 295.940858 271.284846 
L 296.265577 271.284846 
L 296.395465 269.55605 
L 296.655241 269.55605 
L 296.915016 262.640863 
L 297.044904 264.36966 
L 297.174792 264.36966 
L 297.369624 267.827253 
L 297.564455 267.827253 
L 297.759287 260.912066 
L 298.019063 260.912066 
L 298.148951 255.725676 
L 298.278838 252.268083 
L 298.538614 257.454473 
L 298.733446 250.539286 
L 298.928277 243.6241 
L 298.993221 245.352896 
L 299.123109 245.352896 
L 299.188053 243.6241 
L 299.317941 245.352896 
L 299.382885 245.352896 
L 299.447828 243.6241 
L 299.577716 245.352896 
L 299.707604 244.286192 
L 299.902436 244.286192 
L 300.032324 242.520612 
L 300.357043 242.520612 
L 300.421987 238.989453 
L 300.486931 244.286192 
L 300.551875 240.755033 
L 300.681763 240.755033 
L 300.81165 242.520612 
L 300.941538 249.582931 
L 301.201314 249.582931 
L 301.331202 254.879669 
L 301.396145 253.11409 
L 301.461089 254.879669 
L 301.590977 253.11409 
L 301.655921 253.11409 
L 301.850753 249.582931 
L 301.98064 249.582931 
L 302.240416 254.879669 
L 302.435248 254.879669 
L 302.630079 244.286192 
L 302.759967 244.286192 
L 302.824911 242.520612 
L 302.954799 244.286192 
L 303.019743 244.286192 
L 303.149631 240.755033 
L 303.279518 240.755033 
L 303.47435 246.051772 
L 303.669182 238.989453 
L 303.734126 238.989453 
L 303.864014 237.223874 
L 304.123789 237.223874 
L 304.253677 238.989453 
L 304.96806 238.989453 
L 305.097948 237.223874 
L 305.162891 237.223874 
L 305.357723 242.520612 
L 305.487611 240.755033 
L 305.617499 247.817351 
L 305.682443 247.817351 
L 305.81233 251.34851 
L 305.877274 251.34851 
L 305.942218 256.645249 
L 306.007162 253.11409 
L 306.13705 254.879669 
L 306.331882 254.879669 
L 306.526713 247.817351 
L 306.721545 247.817351 
L 306.916377 244.286192 
L 307.111208 244.286192 
L 307.241096 247.817351 
L 307.500872 247.817351 
L 307.63076 246.051772 
L 307.760647 247.817351 
L 307.825591 247.817351 
L 307.955479 253.11409 
L 308.020423 253.11409 
L 308.150311 254.879669 
L 308.345142 251.34851 
L 308.410086 251.34851 
L 308.79975 260.176408 
L 309.124469 260.176408 
L 309.254357 263.707567 
L 309.319301 263.707567 
L 309.449189 261.941988 
L 309.579077 263.707567 
L 309.708964 260.176408 
L 309.838852 260.176408 
L 309.96874 258.410829 
L 310.033684 258.410829 
L 310.163572 256.645249 
L 310.423347 256.645249 
L 310.553235 258.410829 
L 310.618179 258.410829 
L 310.683123 260.176408 
L 310.813011 269.004306 
L 310.942898 267.238727 
L 311.007842 267.238727 
L 311.13773 269.004306 
L 311.397506 269.004306 
L 311.527393 270.769886 
L 311.657281 269.004306 
L 311.852113 276.066625 
L 311.917057 276.066625 
L 311.982001 274.301045 
L 312.176832 277.832204 
L 312.371664 274.301045 
L 312.501552 276.066625 
L 312.63144 276.066625 
L 312.761328 274.301045 
L 312.891215 274.301045 
L 313.021103 272.535465 
L 313.150991 274.301045 
L 313.345823 270.769886 
L 313.47571 270.769886 
L 313.605598 269.004306 
L 313.735486 269.004306 
L 313.865374 267.238727 
L 314.060205 267.238727 
L 314.190093 269.004306 
L 314.644701 269.004306 
L 314.774588 265.473147 
L 315.034364 270.769886 
L 315.424027 270.769886 
L 315.683803 276.066625 
L 315.878635 276.066625 
L 315.943579 275.857793 
L 316.073466 273.840459 
L 316.13841 273.840459 
L 316.268298 270.232535 
L 316.398186 270.232535 
L 316.528074 272.036497 
L 316.593018 272.036497 
L 316.657961 273.840459 
L 316.852793 270.232535 
L 317.112569 270.232535 
L 317.242456 273.840459 
L 317.372344 273.840459 
L 317.502232 272.036497 
L 317.567176 272.036497 
L 317.697064 275.644421 
L 317.891895 275.644421 
L 318.021783 277.448382 
L 318.086727 275.644421 
L 318.216615 277.448382 
L 318.80111 277.448382 
L 318.930998 279.252344 
L 319.060886 279.252344 
L 319.190773 281.056306 
L 319.385605 281.056306 
L 319.450549 280.735602 
L 319.645381 284.423701 
L 319.775269 282.579651 
L 320.035044 282.579651 
L 320.164932 280.735602 
L 320.229876 280.735602 
L 320.359764 278.891552 
L 320.489651 280.735602 
L 320.749427 280.735602 
L 320.879315 282.579651 
L 321.009203 280.735602 
L 321.074146 280.735602 
L 321.268978 277.047502 
L 321.398866 277.047502 
L 321.46381 275.203452 
L 321.593698 277.047502 
L 321.918417 277.047502 
L 322.113249 271.515353 
L 322.178193 271.515353 
L 322.308081 273.359402 
L 322.373024 273.359402 
L 322.502912 271.515353 
L 322.6328 273.359402 
L 323.087407 273.359402 
L 323.282239 278.891552 
L 323.412127 278.891552 
L 323.542015 280.735602 
L 323.606958 280.735602 
L 323.736846 278.891552 
L 323.866734 278.891552 
L 323.996622 280.735602 
L 324.321341 280.735602 
L 324.516173 284.423701 
L 324.581117 284.423701 
L 324.775949 288.111801 
L 324.905836 288.111801 
L 325.035724 289.955851 
L 325.360444 289.955851 
L 325.490332 291.7999 
L 325.555275 291.7999 
L 325.685163 293.64395 
L 326.204714 293.64395 
L 326.334602 291.7999 
L 327.63348 291.7999 
L 327.763368 289.955851 
L 327.828312 289.955851 
L 327.9582 288.111801 
L 328.023144 288.111801 
L 328.153031 289.955851 
L 328.347863 289.955851 
L 328.607639 280.735602 
L 328.672583 280.735602 
L 328.997302 273.359402 
L 329.711685 273.359402 
L 329.97146 267.827253 
L 330.036404 267.827253 
L 330.231236 264.139154 
L 330.29618 264.139154 
L 330.426068 262.295104 
L 330.491012 264.139154 
L 330.620899 269.671303 
L 330.750787 269.671303 
L 330.880675 271.515353 
L 331.010563 271.515353 
L 331.205395 267.827253 
L 331.335282 267.827253 
L 331.400226 265.983203 
L 331.595058 269.671303 
L 332.049665 269.671303 
L 332.179553 265.983203 
L 332.244497 265.983203 
L 332.374385 267.827253 
L 332.439329 267.827253 
L 332.569216 269.671303 
L 332.95888 269.671303 
L 333.088768 267.827253 
L 333.283599 273.359402 
L 333.543375 273.359402 
L 333.738207 277.047502 
L 333.868094 277.047502 
L 333.997982 278.891552 
L 334.257758 278.891552 
L 334.452589 282.579651 
L 334.777309 282.579651 
L 334.907197 284.423701 
L 335.102028 284.423701 
L 335.231916 286.267751 
L 335.361804 286.267751 
L 335.556636 289.955851 
L 335.816411 289.955851 
L 335.946299 293.64395 
L 336.011243 293.64395 
L 336.141131 295.488 
L 339.193494 295.488 
L 339.323382 293.64395 
L 342.375745 293.64395 
L 342.505633 291.7999 
L 343.28496 291.7999 
L 343.414847 288.111801 
L 343.544735 289.955851 
L 344.324062 289.955851 
L 344.45395 288.111801 
L 345.752828 288.111801 
L 345.882715 289.955851 
L 345.947659 288.111801 
L 346.077547 289.955851 
L 346.79193 289.955851 
L 346.921818 291.7999 
L 347.571257 291.7999 
L 347.701145 295.488 
L 347.895976 295.488 
L 348.025864 293.64395 
L 348.805191 293.64395 
L 348.935079 291.7999 
L 349.45463 291.7999 
L 349.584518 293.64395 
L 350.493732 293.64395 
L 350.62362 291.7999 
L 350.753508 291.7999 
L 350.883396 289.955851 
L 351.078227 289.955851 
L 351.338003 295.488 
L 398.487273 295.488 
L 398.487273 295.488 
" style="fill:none;stroke:#1f77b4;stroke-linecap:square;stroke-width:1.5;"/>
   </g>
   <g id="patch_3">
    <path d="M 57.6 307.584 
L 57.6 41.472 
" style="fill:none;stroke:#000000;stroke-linecap:square;stroke-linejoin:miter;stroke-width:0.8;"/>
   </g>
   <g id="patch_4">
    <path d="M 414.72 307.584 
L 414.72 41.472 
" style="fill:none;stroke:#000000;stroke-linecap:square;stroke-linejoin:miter;stroke-width:0.8;"/>
   </g>
   <g id="patch_5">
    <path d="M 57.6 307.584 
L 414.72 307.584 
" style="fill:none;stroke:#000000;stroke-linecap:square;stroke-linejoin:miter;stroke-width:0.8;"/>
   </g>
   <g id="patch_6">
    <path d="M 57.6 41.472 
L 414.72 41.472 
" style="fill:none;stroke:#000000;stroke-linecap:square;stroke-linejoin:miter;stroke-width:0.8;"/>
   </g>
  </g>
  <g id="text_14">
   <!-- Distance coverage -->
   <g transform="translate(174.400313 16.030125)scale(0.12 -0.12)">
    <use xlink:href="#DejaVuSans-68"/>
    <use x="77.001953" xlink:href="#DejaVuSans-105"/>
    <use x="104.785156" xlink:href="#DejaVuSans-115"/>
    <use x="156.884766" xlink:href="#DejaVuSans-116"/>
    <use x="196.09375" xlink:href="#DejaVuSans-97"/>
    <use x="257.373047" xlink:href="#DejaVuSans-110"/>
    <use x="320.751953" xlink:href="#DejaVuSans-99"/>
    <use x="375.732422" xlink:href="#DejaVuSans-101"/>
    <use x="437.255859" xlink:href="#DejaVuSans-32"/>
    <use x="469.042969" xlink:href="#DejaVuSans-99"/>
    <use x="524.023438" xlink:href="#DejaVuSans-111"/>
    <use x="585.205078" xlink:href="#DejaVuSans-118"/>
    <use x="644.384766" xlink:href="#DejaVuSans-101"/>
    <use x="705.908203" xlink:href="#DejaVuSans-114"/>
    <use x="747.021484" xlink:href="#DejaVuSans-97"/>
    <use x="808.300781" xlink:href="#DejaVuSans-103"/>
    <use x="871.777344" xlink:href="#DejaVuSans-101"/>
   </g>
  </g>
 </g>
 <defs>
  <clipPath id="p9549a35c53">
   <rect height="266.112" width="357.12" x="57.6" y="41.472"/>
  </clipPath>
 </defs>
</svg>
