<?xml version="1.0" encoding="utf-8" standalone="no"?>
<!DOCTYPE svg PUBLIC "-//W3C//DTD SVG 1.1//EN"
  "http://www.w3.org/Graphics/SVG/1.1/DTD/svg11.dtd">
<!-- Created with matplotlib (https://matplotlib.org/) -->
<svg height="345.6pt" version="1.1" viewBox="0 0 460.8 345.6" width="460.8pt" xmlns="http://www.w3.org/2000/svg" xmlns:xlink="http://www.w3.org/1999/xlink">
 <defs>
  <style type="text/css">
*{stroke-linecap:butt;stroke-linejoin:round;}
  </style>
 </defs>
 <g id="figure_1">
  <g id="patch_1">
   <path d="M 0 345.6 
L 460.8 345.6 
L 460.8 0 
L 0 0 
z
" style="fill:#ffffff;"/>
  </g>
  <g id="axes_1">
   <g id="patch_2">
    <path d="M 57.6 307.584 
L 414.72 307.584 
L 414.72 41.472 
L 57.6 41.472 
z
" style="fill:#ffffff;"/>
   </g>
   <g id="matplotlib.axis_1">
    <g id="xtick_1">
     <g id="line2d_1">
      <defs>
       <path d="M 0 0 
L 0 3.5 
" id="mec3996cd83" style="stroke:#000000;stroke-width:0.8;"/>
      </defs>
      <g>
       <use style="stroke:#000000;stroke-width:0.8;" x="73.832727" xlink:href="#mec3996cd83" y="307.584"/>
      </g>
     </g>
     <g id="text_1">
      <!-- 0 -->
      <defs>
       <path d="M 31.78125 66.40625 
Q 24.171875 66.40625 20.328125 58.90625 
Q 16.5 51.421875 16.5 36.375 
Q 16.5 21.390625 20.328125 13.890625 
Q 24.171875 6.390625 31.78125 6.390625 
Q 39.453125 6.390625 43.28125 13.890625 
Q 47.125 21.390625 47.125 36.375 
Q 47.125 51.421875 43.28125 58.90625 
Q 39.453125 66.40625 31.78125 66.40625 
z
M 31.78125 74.21875 
Q 44.046875 74.21875 50.515625 64.515625 
Q 56.984375 54.828125 56.984375 36.375 
Q 56.984375 17.96875 50.515625 8.265625 
Q 44.046875 -1.421875 31.78125 -1.421875 
Q 19.53125 -1.421875 13.0625 8.265625 
Q 6.59375 17.96875 6.59375 36.375 
Q 6.59375 54.828125 13.0625 64.515625 
Q 19.53125 74.21875 31.78125 74.21875 
z
" id="DejaVuSans-48"/>
      </defs>
      <g transform="translate(70.651477 322.182437)scale(0.1 -0.1)">
       <use xlink:href="#DejaVuSans-48"/>
      </g>
     </g>
    </g>
    <g id="xtick_2">
     <g id="line2d_2">
      <g>
       <use style="stroke:#000000;stroke-width:0.8;" x="138.776625" xlink:href="#mec3996cd83" y="307.584"/>
      </g>
     </g>
     <g id="text_2">
      <!-- 1000 -->
      <defs>
       <path d="M 12.40625 8.296875 
L 28.515625 8.296875 
L 28.515625 63.921875 
L 10.984375 60.40625 
L 10.984375 69.390625 
L 28.421875 72.90625 
L 38.28125 72.90625 
L 38.28125 8.296875 
L 54.390625 8.296875 
L 54.390625 0 
L 12.40625 0 
z
" id="DejaVuSans-49"/>
      </defs>
      <g transform="translate(126.051625 322.182437)scale(0.1 -0.1)">
       <use xlink:href="#DejaVuSans-49"/>
       <use x="63.623047" xlink:href="#DejaVuSans-48"/>
       <use x="127.246094" xlink:href="#DejaVuSans-48"/>
       <use x="190.869141" xlink:href="#DejaVuSans-48"/>
      </g>
     </g>
    </g>
    <g id="xtick_3">
     <g id="line2d_3">
      <g>
       <use style="stroke:#000000;stroke-width:0.8;" x="203.720523" xlink:href="#mec3996cd83" y="307.584"/>
      </g>
     </g>
     <g id="text_3">
      <!-- 2000 -->
      <defs>
       <path d="M 19.1875 8.296875 
L 53.609375 8.296875 
L 53.609375 0 
L 7.328125 0 
L 7.328125 8.296875 
Q 12.9375 14.109375 22.625 23.890625 
Q 32.328125 33.6875 34.8125 36.53125 
Q 39.546875 41.84375 41.421875 45.53125 
Q 43.3125 49.21875 43.3125 52.78125 
Q 43.3125 58.59375 39.234375 62.25 
Q 35.15625 65.921875 28.609375 65.921875 
Q 23.96875 65.921875 18.8125 64.3125 
Q 13.671875 62.703125 7.8125 59.421875 
L 7.8125 69.390625 
Q 13.765625 71.78125 18.9375 73 
Q 24.125 74.21875 28.421875 74.21875 
Q 39.75 74.21875 46.484375 68.546875 
Q 53.21875 62.890625 53.21875 53.421875 
Q 53.21875 48.921875 51.53125 44.890625 
Q 49.859375 40.875 45.40625 35.40625 
Q 44.1875 33.984375 37.640625 27.21875 
Q 31.109375 20.453125 19.1875 8.296875 
z
" id="DejaVuSans-50"/>
      </defs>
      <g transform="translate(190.995523 322.182437)scale(0.1 -0.1)">
       <use xlink:href="#DejaVuSans-50"/>
       <use x="63.623047" xlink:href="#DejaVuSans-48"/>
       <use x="127.246094" xlink:href="#DejaVuSans-48"/>
       <use x="190.869141" xlink:href="#DejaVuSans-48"/>
      </g>
     </g>
    </g>
    <g id="xtick_4">
     <g id="line2d_4">
      <g>
       <use style="stroke:#000000;stroke-width:0.8;" x="268.664421" xlink:href="#mec3996cd83" y="307.584"/>
      </g>
     </g>
     <g id="text_4">
      <!-- 3000 -->
      <defs>
       <path d="M 40.578125 39.3125 
Q 47.65625 37.796875 51.625 33 
Q 55.609375 28.21875 55.609375 21.1875 
Q 55.609375 10.40625 48.1875 4.484375 
Q 40.765625 -1.421875 27.09375 -1.421875 
Q 22.515625 -1.421875 17.65625 -0.515625 
Q 12.796875 0.390625 7.625 2.203125 
L 7.625 11.71875 
Q 11.71875 9.328125 16.59375 8.109375 
Q 21.484375 6.890625 26.8125 6.890625 
Q 36.078125 6.890625 40.9375 10.546875 
Q 45.796875 14.203125 45.796875 21.1875 
Q 45.796875 27.640625 41.28125 31.265625 
Q 36.765625 34.90625 28.71875 34.90625 
L 20.21875 34.90625 
L 20.21875 43.015625 
L 29.109375 43.015625 
Q 36.375 43.015625 40.234375 45.921875 
Q 44.09375 48.828125 44.09375 54.296875 
Q 44.09375 59.90625 40.109375 62.90625 
Q 36.140625 65.921875 28.71875 65.921875 
Q 24.65625 65.921875 20.015625 65.03125 
Q 15.375 64.15625 9.8125 62.3125 
L 9.8125 71.09375 
Q 15.4375 72.65625 20.34375 73.4375 
Q 25.25 74.21875 29.59375 74.21875 
Q 40.828125 74.21875 47.359375 69.109375 
Q 53.90625 64.015625 53.90625 55.328125 
Q 53.90625 49.265625 50.4375 45.09375 
Q 46.96875 40.921875 40.578125 39.3125 
z
" id="DejaVuSans-51"/>
      </defs>
      <g transform="translate(255.939421 322.182437)scale(0.1 -0.1)">
       <use xlink:href="#DejaVuSans-51"/>
       <use x="63.623047" xlink:href="#DejaVuSans-48"/>
       <use x="127.246094" xlink:href="#DejaVuSans-48"/>
       <use x="190.869141" xlink:href="#DejaVuSans-48"/>
      </g>
     </g>
    </g>
    <g id="xtick_5">
     <g id="line2d_5">
      <g>
       <use style="stroke:#000000;stroke-width:0.8;" x="333.608319" xlink:href="#mec3996cd83" y="307.584"/>
      </g>
     </g>
     <g id="text_5">
      <!-- 4000 -->
      <defs>
       <path d="M 37.796875 64.3125 
L 12.890625 25.390625 
L 37.796875 25.390625 
z
M 35.203125 72.90625 
L 47.609375 72.90625 
L 47.609375 25.390625 
L 58.015625 25.390625 
L 58.015625 17.1875 
L 47.609375 17.1875 
L 47.609375 0 
L 37.796875 0 
L 37.796875 17.1875 
L 4.890625 17.1875 
L 4.890625 26.703125 
z
" id="DejaVuSans-52"/>
      </defs>
      <g transform="translate(320.883319 322.182437)scale(0.1 -0.1)">
       <use xlink:href="#DejaVuSans-52"/>
       <use x="63.623047" xlink:href="#DejaVuSans-48"/>
       <use x="127.246094" xlink:href="#DejaVuSans-48"/>
       <use x="190.869141" xlink:href="#DejaVuSans-48"/>
      </g>
     </g>
    </g>
    <g id="xtick_6">
     <g id="line2d_6">
      <g>
       <use style="stroke:#000000;stroke-width:0.8;" x="398.552217" xlink:href="#mec3996cd83" y="307.584"/>
      </g>
     </g>
     <g id="text_6">
      <!-- 5000 -->
      <defs>
       <path d="M 10.796875 72.90625 
L 49.515625 72.90625 
L 49.515625 64.59375 
L 19.828125 64.59375 
L 19.828125 46.734375 
Q 21.96875 47.46875 24.109375 47.828125 
Q 26.265625 48.1875 28.421875 48.1875 
Q 40.625 48.1875 47.75 41.5 
Q 54.890625 34.8125 54.890625 23.390625 
Q 54.890625 11.625 47.5625 5.09375 
Q 40.234375 -1.421875 26.90625 -1.421875 
Q 22.3125 -1.421875 17.546875 -0.640625 
Q 12.796875 0.140625 7.71875 1.703125 
L 7.71875 11.625 
Q 12.109375 9.234375 16.796875 8.0625 
Q 21.484375 6.890625 26.703125 6.890625 
Q 35.15625 6.890625 40.078125 11.328125 
Q 45.015625 15.765625 45.015625 23.390625 
Q 45.015625 31 40.078125 35.4375 
Q 35.15625 39.890625 26.703125 39.890625 
Q 22.75 39.890625 18.8125 39.015625 
Q 14.890625 38.140625 10.796875 36.28125 
z
" id="DejaVuSans-53"/>
      </defs>
      <g transform="translate(385.827217 322.182437)scale(0.1 -0.1)">
       <use xlink:href="#DejaVuSans-53"/>
       <use x="63.623047" xlink:href="#DejaVuSans-48"/>
       <use x="127.246094" xlink:href="#DejaVuSans-48"/>
       <use x="190.869141" xlink:href="#DejaVuSans-48"/>
      </g>
     </g>
    </g>
    <g id="text_7">
     <!-- Distance from restriction site, b -->
     <defs>
      <path d="M 19.671875 64.796875 
L 19.671875 8.109375 
L 31.59375 8.109375 
Q 46.6875 8.109375 53.6875 14.9375 
Q 60.6875 21.78125 60.6875 36.53125 
Q 60.6875 51.171875 53.6875 57.984375 
Q 46.6875 64.796875 31.59375 64.796875 
z
M 9.8125 72.90625 
L 30.078125 72.90625 
Q 51.265625 72.90625 61.171875 64.09375 
Q 71.09375 55.28125 71.09375 36.53125 
Q 71.09375 17.671875 61.125 8.828125 
Q 51.171875 0 30.078125 0 
L 9.8125 0 
z
" id="DejaVuSans-68"/>
      <path d="M 9.421875 54.6875 
L 18.40625 54.6875 
L 18.40625 0 
L 9.421875 0 
z
M 9.421875 75.984375 
L 18.40625 75.984375 
L 18.40625 64.59375 
L 9.421875 64.59375 
z
" id="DejaVuSans-105"/>
      <path d="M 44.28125 53.078125 
L 44.28125 44.578125 
Q 40.484375 46.53125 36.375 47.5 
Q 32.28125 48.484375 27.875 48.484375 
Q 21.1875 48.484375 17.84375 46.4375 
Q 14.5 44.390625 14.5 40.28125 
Q 14.5 37.15625 16.890625 35.375 
Q 19.28125 33.59375 26.515625 31.984375 
L 29.59375 31.296875 
Q 39.15625 29.25 43.1875 25.515625 
Q 47.21875 21.78125 47.21875 15.09375 
Q 47.21875 7.46875 41.1875 3.015625 
Q 35.15625 -1.421875 24.609375 -1.421875 
Q 20.21875 -1.421875 15.453125 -0.5625 
Q 10.6875 0.296875 5.421875 2 
L 5.421875 11.28125 
Q 10.40625 8.6875 15.234375 7.390625 
Q 20.0625 6.109375 24.8125 6.109375 
Q 31.15625 6.109375 34.5625 8.28125 
Q 37.984375 10.453125 37.984375 14.40625 
Q 37.984375 18.0625 35.515625 20.015625 
Q 33.0625 21.96875 24.703125 23.78125 
L 21.578125 24.515625 
Q 13.234375 26.265625 9.515625 29.90625 
Q 5.8125 33.546875 5.8125 39.890625 
Q 5.8125 47.609375 11.28125 51.796875 
Q 16.75 56 26.8125 56 
Q 31.78125 56 36.171875 55.265625 
Q 40.578125 54.546875 44.28125 53.078125 
z
" id="DejaVuSans-115"/>
      <path d="M 18.3125 70.21875 
L 18.3125 54.6875 
L 36.8125 54.6875 
L 36.8125 47.703125 
L 18.3125 47.703125 
L 18.3125 18.015625 
Q 18.3125 11.328125 20.140625 9.421875 
Q 21.96875 7.515625 27.59375 7.515625 
L 36.8125 7.515625 
L 36.8125 0 
L 27.59375 0 
Q 17.1875 0 13.234375 3.875 
Q 9.28125 7.765625 9.28125 18.015625 
L 9.28125 47.703125 
L 2.6875 47.703125 
L 2.6875 54.6875 
L 9.28125 54.6875 
L 9.28125 70.21875 
z
" id="DejaVuSans-116"/>
      <path d="M 34.28125 27.484375 
Q 23.390625 27.484375 19.1875 25 
Q 14.984375 22.515625 14.984375 16.5 
Q 14.984375 11.71875 18.140625 8.90625 
Q 21.296875 6.109375 26.703125 6.109375 
Q 34.1875 6.109375 38.703125 11.40625 
Q 43.21875 16.703125 43.21875 25.484375 
L 43.21875 27.484375 
z
M 52.203125 31.203125 
L 52.203125 0 
L 43.21875 0 
L 43.21875 8.296875 
Q 40.140625 3.328125 35.546875 0.953125 
Q 30.953125 -1.421875 24.3125 -1.421875 
Q 15.921875 -1.421875 10.953125 3.296875 
Q 6 8.015625 6 15.921875 
Q 6 25.140625 12.171875 29.828125 
Q 18.359375 34.515625 30.609375 34.515625 
L 43.21875 34.515625 
L 43.21875 35.40625 
Q 43.21875 41.609375 39.140625 45 
Q 35.0625 48.390625 27.6875 48.390625 
Q 23 48.390625 18.546875 47.265625 
Q 14.109375 46.140625 10.015625 43.890625 
L 10.015625 52.203125 
Q 14.9375 54.109375 19.578125 55.046875 
Q 24.21875 56 28.609375 56 
Q 40.484375 56 46.34375 49.84375 
Q 52.203125 43.703125 52.203125 31.203125 
z
" id="DejaVuSans-97"/>
      <path d="M 54.890625 33.015625 
L 54.890625 0 
L 45.90625 0 
L 45.90625 32.71875 
Q 45.90625 40.484375 42.875 44.328125 
Q 39.84375 48.1875 33.796875 48.1875 
Q 26.515625 48.1875 22.3125 43.546875 
Q 18.109375 38.921875 18.109375 30.90625 
L 18.109375 0 
L 9.078125 0 
L 9.078125 54.6875 
L 18.109375 54.6875 
L 18.109375 46.1875 
Q 21.34375 51.125 25.703125 53.5625 
Q 30.078125 56 35.796875 56 
Q 45.21875 56 50.046875 50.171875 
Q 54.890625 44.34375 54.890625 33.015625 
z
" id="DejaVuSans-110"/>
      <path d="M 48.78125 52.59375 
L 48.78125 44.1875 
Q 44.96875 46.296875 41.140625 47.34375 
Q 37.3125 48.390625 33.40625 48.390625 
Q 24.65625 48.390625 19.8125 42.84375 
Q 14.984375 37.3125 14.984375 27.296875 
Q 14.984375 17.28125 19.8125 11.734375 
Q 24.65625 6.203125 33.40625 6.203125 
Q 37.3125 6.203125 41.140625 7.25 
Q 44.96875 8.296875 48.78125 10.40625 
L 48.78125 2.09375 
Q 45.015625 0.34375 40.984375 -0.53125 
Q 36.96875 -1.421875 32.421875 -1.421875 
Q 20.0625 -1.421875 12.78125 6.34375 
Q 5.515625 14.109375 5.515625 27.296875 
Q 5.515625 40.671875 12.859375 48.328125 
Q 20.21875 56 33.015625 56 
Q 37.15625 56 41.109375 55.140625 
Q 45.0625 54.296875 48.78125 52.59375 
z
" id="DejaVuSans-99"/>
      <path d="M 56.203125 29.59375 
L 56.203125 25.203125 
L 14.890625 25.203125 
Q 15.484375 15.921875 20.484375 11.0625 
Q 25.484375 6.203125 34.421875 6.203125 
Q 39.59375 6.203125 44.453125 7.46875 
Q 49.3125 8.734375 54.109375 11.28125 
L 54.109375 2.78125 
Q 49.265625 0.734375 44.1875 -0.34375 
Q 39.109375 -1.421875 33.890625 -1.421875 
Q 20.796875 -1.421875 13.15625 6.1875 
Q 5.515625 13.8125 5.515625 26.8125 
Q 5.515625 40.234375 12.765625 48.109375 
Q 20.015625 56 32.328125 56 
Q 43.359375 56 49.78125 48.890625 
Q 56.203125 41.796875 56.203125 29.59375 
z
M 47.21875 32.234375 
Q 47.125 39.59375 43.09375 43.984375 
Q 39.0625 48.390625 32.421875 48.390625 
Q 24.90625 48.390625 20.390625 44.140625 
Q 15.875 39.890625 15.1875 32.171875 
z
" id="DejaVuSans-101"/>
      <path id="DejaVuSans-32"/>
      <path d="M 37.109375 75.984375 
L 37.109375 68.5 
L 28.515625 68.5 
Q 23.6875 68.5 21.796875 66.546875 
Q 19.921875 64.59375 19.921875 59.515625 
L 19.921875 54.6875 
L 34.71875 54.6875 
L 34.71875 47.703125 
L 19.921875 47.703125 
L 19.921875 0 
L 10.890625 0 
L 10.890625 47.703125 
L 2.296875 47.703125 
L 2.296875 54.6875 
L 10.890625 54.6875 
L 10.890625 58.5 
Q 10.890625 67.625 15.140625 71.796875 
Q 19.390625 75.984375 28.609375 75.984375 
z
" id="DejaVuSans-102"/>
      <path d="M 41.109375 46.296875 
Q 39.59375 47.171875 37.8125 47.578125 
Q 36.03125 48 33.890625 48 
Q 26.265625 48 22.1875 43.046875 
Q 18.109375 38.09375 18.109375 28.8125 
L 18.109375 0 
L 9.078125 0 
L 9.078125 54.6875 
L 18.109375 54.6875 
L 18.109375 46.1875 
Q 20.953125 51.171875 25.484375 53.578125 
Q 30.03125 56 36.53125 56 
Q 37.453125 56 38.578125 55.875 
Q 39.703125 55.765625 41.0625 55.515625 
z
" id="DejaVuSans-114"/>
      <path d="M 30.609375 48.390625 
Q 23.390625 48.390625 19.1875 42.75 
Q 14.984375 37.109375 14.984375 27.296875 
Q 14.984375 17.484375 19.15625 11.84375 
Q 23.34375 6.203125 30.609375 6.203125 
Q 37.796875 6.203125 41.984375 11.859375 
Q 46.1875 17.53125 46.1875 27.296875 
Q 46.1875 37.015625 41.984375 42.703125 
Q 37.796875 48.390625 30.609375 48.390625 
z
M 30.609375 56 
Q 42.328125 56 49.015625 48.375 
Q 55.71875 40.765625 55.71875 27.296875 
Q 55.71875 13.875 49.015625 6.21875 
Q 42.328125 -1.421875 30.609375 -1.421875 
Q 18.84375 -1.421875 12.171875 6.21875 
Q 5.515625 13.875 5.515625 27.296875 
Q 5.515625 40.765625 12.171875 48.375 
Q 18.84375 56 30.609375 56 
z
" id="DejaVuSans-111"/>
      <path d="M 52 44.1875 
Q 55.375 50.25 60.0625 53.125 
Q 64.75 56 71.09375 56 
Q 79.640625 56 84.28125 50.015625 
Q 88.921875 44.046875 88.921875 33.015625 
L 88.921875 0 
L 79.890625 0 
L 79.890625 32.71875 
Q 79.890625 40.578125 77.09375 44.375 
Q 74.3125 48.1875 68.609375 48.1875 
Q 61.625 48.1875 57.5625 43.546875 
Q 53.515625 38.921875 53.515625 30.90625 
L 53.515625 0 
L 44.484375 0 
L 44.484375 32.71875 
Q 44.484375 40.625 41.703125 44.40625 
Q 38.921875 48.1875 33.109375 48.1875 
Q 26.21875 48.1875 22.15625 43.53125 
Q 18.109375 38.875 18.109375 30.90625 
L 18.109375 0 
L 9.078125 0 
L 9.078125 54.6875 
L 18.109375 54.6875 
L 18.109375 46.1875 
Q 21.1875 51.21875 25.484375 53.609375 
Q 29.78125 56 35.6875 56 
Q 41.65625 56 45.828125 52.96875 
Q 50 49.953125 52 44.1875 
z
" id="DejaVuSans-109"/>
      <path d="M 11.71875 12.40625 
L 22.015625 12.40625 
L 22.015625 4 
L 14.015625 -11.625 
L 7.71875 -11.625 
L 11.71875 4 
z
" id="DejaVuSans-44"/>
      <path d="M 48.6875 27.296875 
Q 48.6875 37.203125 44.609375 42.84375 
Q 40.53125 48.484375 33.40625 48.484375 
Q 26.265625 48.484375 22.1875 42.84375 
Q 18.109375 37.203125 18.109375 27.296875 
Q 18.109375 17.390625 22.1875 11.75 
Q 26.265625 6.109375 33.40625 6.109375 
Q 40.53125 6.109375 44.609375 11.75 
Q 48.6875 17.390625 48.6875 27.296875 
z
M 18.109375 46.390625 
Q 20.953125 51.265625 25.265625 53.625 
Q 29.59375 56 35.59375 56 
Q 45.5625 56 51.78125 48.09375 
Q 58.015625 40.1875 58.015625 27.296875 
Q 58.015625 14.40625 51.78125 6.484375 
Q 45.5625 -1.421875 35.59375 -1.421875 
Q 29.59375 -1.421875 25.265625 0.953125 
Q 20.953125 3.328125 18.109375 8.203125 
L 18.109375 0 
L 9.078125 0 
L 9.078125 75.984375 
L 18.109375 75.984375 
z
" id="DejaVuSans-98"/>
     </defs>
     <g transform="translate(156.937344 335.860562)scale(0.1 -0.1)">
      <use xlink:href="#DejaVuSans-68"/>
      <use x="77.001953" xlink:href="#DejaVuSans-105"/>
      <use x="104.785156" xlink:href="#DejaVuSans-115"/>
      <use x="156.884766" xlink:href="#DejaVuSans-116"/>
      <use x="196.09375" xlink:href="#DejaVuSans-97"/>
      <use x="257.373047" xlink:href="#DejaVuSans-110"/>
      <use x="320.751953" xlink:href="#DejaVuSans-99"/>
      <use x="375.732422" xlink:href="#DejaVuSans-101"/>
      <use x="437.255859" xlink:href="#DejaVuSans-32"/>
      <use x="469.042969" xlink:href="#DejaVuSans-102"/>
      <use x="504.248047" xlink:href="#DejaVuSans-114"/>
      <use x="545.330078" xlink:href="#DejaVuSans-111"/>
      <use x="606.511719" xlink:href="#DejaVuSans-109"/>
      <use x="703.923828" xlink:href="#DejaVuSans-32"/>
      <use x="735.710938" xlink:href="#DejaVuSans-114"/>
      <use x="776.792969" xlink:href="#DejaVuSans-101"/>
      <use x="838.316406" xlink:href="#DejaVuSans-115"/>
      <use x="890.416016" xlink:href="#DejaVuSans-116"/>
      <use x="929.625" xlink:href="#DejaVuSans-114"/>
      <use x="970.738281" xlink:href="#DejaVuSans-105"/>
      <use x="998.521484" xlink:href="#DejaVuSans-99"/>
      <use x="1053.501953" xlink:href="#DejaVuSans-116"/>
      <use x="1092.710938" xlink:href="#DejaVuSans-105"/>
      <use x="1120.494141" xlink:href="#DejaVuSans-111"/>
      <use x="1181.675781" xlink:href="#DejaVuSans-110"/>
      <use x="1245.054688" xlink:href="#DejaVuSans-32"/>
      <use x="1276.841797" xlink:href="#DejaVuSans-115"/>
      <use x="1328.941406" xlink:href="#DejaVuSans-105"/>
      <use x="1356.724609" xlink:href="#DejaVuSans-116"/>
      <use x="1395.933594" xlink:href="#DejaVuSans-101"/>
      <use x="1457.457031" xlink:href="#DejaVuSans-44"/>
      <use x="1489.244141" xlink:href="#DejaVuSans-32"/>
      <use x="1521.03125" xlink:href="#DejaVuSans-98"/>
     </g>
    </g>
   </g>
   <g id="matplotlib.axis_2">
    <g id="ytick_1">
     <g id="line2d_7">
      <defs>
       <path d="M 0 0 
L -3.5 0 
" id="mef780cdf5b" style="stroke:#000000;stroke-width:0.8;"/>
      </defs>
      <g>
       <use style="stroke:#000000;stroke-width:0.8;" x="57.6" xlink:href="#mef780cdf5b" y="295.488"/>
      </g>
     </g>
     <g id="text_8">
      <!-- 0.000 -->
      <defs>
       <path d="M 10.6875 12.40625 
L 21 12.40625 
L 21 0 
L 10.6875 0 
z
" id="DejaVuSans-46"/>
      </defs>
      <g transform="translate(21.971875 299.287219)scale(0.1 -0.1)">
       <use xlink:href="#DejaVuSans-48"/>
       <use x="63.623047" xlink:href="#DejaVuSans-46"/>
       <use x="95.410156" xlink:href="#DejaVuSans-48"/>
       <use x="159.033203" xlink:href="#DejaVuSans-48"/>
       <use x="222.65625" xlink:href="#DejaVuSans-48"/>
      </g>
     </g>
    </g>
    <g id="ytick_2">
     <g id="line2d_8">
      <g>
       <use style="stroke:#000000;stroke-width:0.8;" x="57.6" xlink:href="#mef780cdf5b" y="264.822213"/>
      </g>
     </g>
     <g id="text_9">
      <!-- 0.025 -->
      <g transform="translate(21.971875 268.621432)scale(0.1 -0.1)">
       <use xlink:href="#DejaVuSans-48"/>
       <use x="63.623047" xlink:href="#DejaVuSans-46"/>
       <use x="95.410156" xlink:href="#DejaVuSans-48"/>
       <use x="159.033203" xlink:href="#DejaVuSans-50"/>
       <use x="222.65625" xlink:href="#DejaVuSans-53"/>
      </g>
     </g>
    </g>
    <g id="ytick_3">
     <g id="line2d_9">
      <g>
       <use style="stroke:#000000;stroke-width:0.8;" x="57.6" xlink:href="#mef780cdf5b" y="234.156426"/>
      </g>
     </g>
     <g id="text_10">
      <!-- 0.050 -->
      <g transform="translate(21.971875 237.955644)scale(0.1 -0.1)">
       <use xlink:href="#DejaVuSans-48"/>
       <use x="63.623047" xlink:href="#DejaVuSans-46"/>
       <use x="95.410156" xlink:href="#DejaVuSans-48"/>
       <use x="159.033203" xlink:href="#DejaVuSans-53"/>
       <use x="222.65625" xlink:href="#DejaVuSans-48"/>
      </g>
     </g>
    </g>
    <g id="ytick_4">
     <g id="line2d_10">
      <g>
       <use style="stroke:#000000;stroke-width:0.8;" x="57.6" xlink:href="#mef780cdf5b" y="203.490638"/>
      </g>
     </g>
     <g id="text_11">
      <!-- 0.075 -->
      <defs>
       <path d="M 8.203125 72.90625 
L 55.078125 72.90625 
L 55.078125 68.703125 
L 28.609375 0 
L 18.3125 0 
L 43.21875 64.59375 
L 8.203125 64.59375 
z
" id="DejaVuSans-55"/>
      </defs>
      <g transform="translate(21.971875 207.289857)scale(0.1 -0.1)">
       <use xlink:href="#DejaVuSans-48"/>
       <use x="63.623047" xlink:href="#DejaVuSans-46"/>
       <use x="95.410156" xlink:href="#DejaVuSans-48"/>
       <use x="159.033203" xlink:href="#DejaVuSans-55"/>
       <use x="222.65625" xlink:href="#DejaVuSans-53"/>
      </g>
     </g>
    </g>
    <g id="ytick_5">
     <g id="line2d_11">
      <g>
       <use style="stroke:#000000;stroke-width:0.8;" x="57.6" xlink:href="#mef780cdf5b" y="172.824851"/>
      </g>
     </g>
     <g id="text_12">
      <!-- 0.100 -->
      <g transform="translate(21.971875 176.62407)scale(0.1 -0.1)">
       <use xlink:href="#DejaVuSans-48"/>
       <use x="63.623047" xlink:href="#DejaVuSans-46"/>
       <use x="95.410156" xlink:href="#DejaVuSans-49"/>
       <use x="159.033203" xlink:href="#DejaVuSans-48"/>
       <use x="222.65625" xlink:href="#DejaVuSans-48"/>
      </g>
     </g>
    </g>
    <g id="ytick_6">
     <g id="line2d_12">
      <g>
       <use style="stroke:#000000;stroke-width:0.8;" x="57.6" xlink:href="#mef780cdf5b" y="142.159064"/>
      </g>
     </g>
     <g id="text_13">
      <!-- 0.125 -->
      <g transform="translate(21.971875 145.958283)scale(0.1 -0.1)">
       <use xlink:href="#DejaVuSans-48"/>
       <use x="63.623047" xlink:href="#DejaVuSans-46"/>
       <use x="95.410156" xlink:href="#DejaVuSans-49"/>
       <use x="159.033203" xlink:href="#DejaVuSans-50"/>
       <use x="222.65625" xlink:href="#DejaVuSans-53"/>
      </g>
     </g>
    </g>
    <g id="ytick_7">
     <g id="line2d_13">
      <g>
       <use style="stroke:#000000;stroke-width:0.8;" x="57.6" xlink:href="#mef780cdf5b" y="111.493277"/>
      </g>
     </g>
     <g id="text_14">
      <!-- 0.150 -->
      <g transform="translate(21.971875 115.292495)scale(0.1 -0.1)">
       <use xlink:href="#DejaVuSans-48"/>
       <use x="63.623047" xlink:href="#DejaVuSans-46"/>
       <use x="95.410156" xlink:href="#DejaVuSans-49"/>
       <use x="159.033203" xlink:href="#DejaVuSans-53"/>
       <use x="222.65625" xlink:href="#DejaVuSans-48"/>
      </g>
     </g>
    </g>
    <g id="ytick_8">
     <g id="line2d_14">
      <g>
       <use style="stroke:#000000;stroke-width:0.8;" x="57.6" xlink:href="#mef780cdf5b" y="80.827489"/>
      </g>
     </g>
     <g id="text_15">
      <!-- 0.175 -->
      <g transform="translate(21.971875 84.626708)scale(0.1 -0.1)">
       <use xlink:href="#DejaVuSans-48"/>
       <use x="63.623047" xlink:href="#DejaVuSans-46"/>
       <use x="95.410156" xlink:href="#DejaVuSans-49"/>
       <use x="159.033203" xlink:href="#DejaVuSans-55"/>
       <use x="222.65625" xlink:href="#DejaVuSans-53"/>
      </g>
     </g>
    </g>
    <g id="ytick_9">
     <g id="line2d_15">
      <g>
       <use style="stroke:#000000;stroke-width:0.8;" x="57.6" xlink:href="#mef780cdf5b" y="50.161702"/>
      </g>
     </g>
     <g id="text_16">
      <!-- 0.200 -->
      <g transform="translate(21.971875 53.960921)scale(0.1 -0.1)">
       <use xlink:href="#DejaVuSans-48"/>
       <use x="63.623047" xlink:href="#DejaVuSans-46"/>
       <use x="95.410156" xlink:href="#DejaVuSans-50"/>
       <use x="159.033203" xlink:href="#DejaVuSans-48"/>
       <use x="222.65625" xlink:href="#DejaVuSans-48"/>
      </g>
     </g>
    </g>
    <g id="text_17">
     <!-- Depth average -->
     <defs>
      <path d="M 18.109375 8.203125 
L 18.109375 -20.796875 
L 9.078125 -20.796875 
L 9.078125 54.6875 
L 18.109375 54.6875 
L 18.109375 46.390625 
Q 20.953125 51.265625 25.265625 53.625 
Q 29.59375 56 35.59375 56 
Q 45.5625 56 51.78125 48.09375 
Q 58.015625 40.1875 58.015625 27.296875 
Q 58.015625 14.40625 51.78125 6.484375 
Q 45.5625 -1.421875 35.59375 -1.421875 
Q 29.59375 -1.421875 25.265625 0.953125 
Q 20.953125 3.328125 18.109375 8.203125 
z
M 48.6875 27.296875 
Q 48.6875 37.203125 44.609375 42.84375 
Q 40.53125 48.484375 33.40625 48.484375 
Q 26.265625 48.484375 22.1875 42.84375 
Q 18.109375 37.203125 18.109375 27.296875 
Q 18.109375 17.390625 22.1875 11.75 
Q 26.265625 6.109375 33.40625 6.109375 
Q 40.53125 6.109375 44.609375 11.75 
Q 48.6875 17.390625 48.6875 27.296875 
z
" id="DejaVuSans-112"/>
      <path d="M 54.890625 33.015625 
L 54.890625 0 
L 45.90625 0 
L 45.90625 32.71875 
Q 45.90625 40.484375 42.875 44.328125 
Q 39.84375 48.1875 33.796875 48.1875 
Q 26.515625 48.1875 22.3125 43.546875 
Q 18.109375 38.921875 18.109375 30.90625 
L 18.109375 0 
L 9.078125 0 
L 9.078125 75.984375 
L 18.109375 75.984375 
L 18.109375 46.1875 
Q 21.34375 51.125 25.703125 53.5625 
Q 30.078125 56 35.796875 56 
Q 45.21875 56 50.046875 50.171875 
Q 54.890625 44.34375 54.890625 33.015625 
z
" id="DejaVuSans-104"/>
      <path d="M 2.984375 54.6875 
L 12.5 54.6875 
L 29.59375 8.796875 
L 46.6875 54.6875 
L 56.203125 54.6875 
L 35.6875 0 
L 23.484375 0 
z
" id="DejaVuSans-118"/>
      <path d="M 45.40625 27.984375 
Q 45.40625 37.75 41.375 43.109375 
Q 37.359375 48.484375 30.078125 48.484375 
Q 22.859375 48.484375 18.828125 43.109375 
Q 14.796875 37.75 14.796875 27.984375 
Q 14.796875 18.265625 18.828125 12.890625 
Q 22.859375 7.515625 30.078125 7.515625 
Q 37.359375 7.515625 41.375 12.890625 
Q 45.40625 18.265625 45.40625 27.984375 
z
M 54.390625 6.78125 
Q 54.390625 -7.171875 48.1875 -13.984375 
Q 42 -20.796875 29.203125 -20.796875 
Q 24.46875 -20.796875 20.265625 -20.09375 
Q 16.0625 -19.390625 12.109375 -17.921875 
L 12.109375 -9.1875 
Q 16.0625 -11.328125 19.921875 -12.34375 
Q 23.78125 -13.375 27.78125 -13.375 
Q 36.625 -13.375 41.015625 -8.765625 
Q 45.40625 -4.15625 45.40625 5.171875 
L 45.40625 9.625 
Q 42.625 4.78125 38.28125 2.390625 
Q 33.9375 0 27.875 0 
Q 17.828125 0 11.671875 7.65625 
Q 5.515625 15.328125 5.515625 27.984375 
Q 5.515625 40.671875 11.671875 48.328125 
Q 17.828125 56 27.875 56 
Q 33.9375 56 38.28125 53.609375 
Q 42.625 51.21875 45.40625 46.390625 
L 45.40625 54.6875 
L 54.390625 54.6875 
z
" id="DejaVuSans-103"/>
     </defs>
     <g transform="translate(15.892187 211.817062)rotate(-90)scale(0.1 -0.1)">
      <use xlink:href="#DejaVuSans-68"/>
      <use x="77.001953" xlink:href="#DejaVuSans-101"/>
      <use x="138.525391" xlink:href="#DejaVuSans-112"/>
      <use x="202.001953" xlink:href="#DejaVuSans-116"/>
      <use x="241.210938" xlink:href="#DejaVuSans-104"/>
      <use x="304.589844" xlink:href="#DejaVuSans-32"/>
      <use x="336.376953" xlink:href="#DejaVuSans-97"/>
      <use x="397.65625" xlink:href="#DejaVuSans-118"/>
      <use x="456.835938" xlink:href="#DejaVuSans-101"/>
      <use x="518.359375" xlink:href="#DejaVuSans-114"/>
      <use x="559.472656" xlink:href="#DejaVuSans-97"/>
      <use x="620.751953" xlink:href="#DejaVuSans-103"/>
      <use x="684.228516" xlink:href="#DejaVuSans-101"/>
     </g>
    </g>
   </g>
   <g id="line2d_16">
    <path clip-path="url(#pbde98e60fe)" d="M 73.832727 205.481564 
L 73.962615 82.928726 
L 74.222391 73.826407 
L 74.54711 61.768116 
L 74.936774 56.436398 
L 75.001717 56.176485 
L 75.326437 57.010598 
L 75.391381 56.699692 
L 75.586213 53.568 
L 75.651156 53.627718 
L 76.170708 57.794829 
L 77.079922 68.732618 
L 78.119025 89.933152 
L 78.443744 97.34491 
L 78.833407 106.734575 
L 79.093183 117.428918 
L 79.352959 127.537941 
L 79.54779 149.509195 
L 80.067341 163.299203 
L 81.625995 199.661808 
L 82.989817 223.693937 
L 83.314536 227.259641 
L 83.444424 237.737367 
L 85.327797 253.741568 
L 87.600834 268.185749 
L 88.510048 272.390274 
L 89.614094 276.514728 
L 90.653197 279.440646 
L 91.822187 281.76386 
L 93.121065 283.673273 
L 93.900392 284.538684 
L 95.329157 285.760623 
L 95.653877 285.91865 
L 96.238372 286.199068 
L 96.628035 286.333146 
L 97.602194 286.650043 
L 100.070062 287.047477 
L 103.577032 287.340657 
L 104.096584 287.422536 
L 104.291415 287.538333 
L 105.005798 287.542006 
L 105.265574 287.582436 
L 105.915013 287.635998 
L 112.019739 287.486363 
L 112.604234 287.429258 
L 113.123785 287.439292 
L 113.383561 287.427062 
L 114.422663 287.187099 
L 114.617495 287.033214 
L 115.137046 286.924708 
L 115.396822 286.976259 
L 116.565812 286.840629 
L 116.630756 286.852153 
L 116.760644 286.609425 
L 117.280195 286.523337 
L 117.475027 286.490014 
L 117.604914 286.556718 
L 118.384241 286.187639 
L 118.773905 286.182882 
L 118.903792 286.404851 
L 119.03368 286.35372 
L 119.163568 286.197081 
L 119.942895 286.130884 
L 120.137726 286.012065 
L 120.52739 286.106847 
L 120.917053 286.057586 
L 121.436604 286.060997 
L 121.631436 286.079377 
L 121.956156 285.982033 
L 123.384921 286.332715 
L 123.514809 286.175609 
L 123.709641 286.167774 
L 123.904473 286.088966 
L 124.03436 286.101203 
L 124.553912 285.799897 
L 124.683799 285.818952 
L 124.813687 286.01028 
L 125.463126 285.923409 
L 125.657958 285.396263 
L 125.982677 285.216393 
L 126.177509 285.187058 
L 126.632116 284.887705 
L 126.762004 285.183999 
L 126.826948 285.136671 
L 127.671219 284.703357 
L 128.060882 284.684861 
L 128.515489 284.453739 
L 128.840209 284.442335 
L 129.099984 284.352098 
L 129.749423 284.050667 
L 130.204031 283.671306 
L 130.268975 283.743421 
L 130.398862 283.570087 
L 130.658638 283.621753 
L 130.723582 283.61125 
L 130.918414 283.41928 
L 131.113245 283.509527 
L 131.308077 283.208811 
L 131.567852 282.919531 
L 131.957516 282.771165 
L 132.347179 282.669349 
L 132.801787 282.536652 
L 132.996618 282.499868 
L 133.581113 281.754178 
L 134.035721 281.801343 
L 134.100664 282.116211 
L 134.165608 282.045486 
L 134.36044 282.024971 
L 134.490328 281.845958 
L 135.074823 281.863041 
L 135.139767 281.892321 
L 135.269655 285.24253 
L 135.334599 285.199822 
L 135.399542 285.400207 
L 135.464486 284.845117 
L 135.52943 284.878141 
L 135.85415 284.645837 
L 135.919094 284.963827 
L 135.984038 284.777799 
L 136.308757 284.665643 
L 136.568533 284.740796 
L 136.69842 284.731419 
L 136.828308 285.028812 
L 136.958196 284.973973 
L 137.02314 285.199381 
L 137.088084 285.168949 
L 137.282915 285.305895 
L 137.542691 285.23801 
L 137.867411 285.334826 
L 138.062242 285.109594 
L 138.386962 285.135831 
L 138.581793 285.098395 
L 138.841569 285.010319 
L 138.971457 285.025552 
L 139.101345 284.941614 
L 139.491008 285.186979 
L 139.68584 285.169385 
L 139.750784 284.988328 
L 139.815728 285.061249 
L 139.880671 285.115932 
L 140.075503 284.952969 
L 140.205391 284.92302 
L 140.400223 285.294495 
L 140.919774 285.054145 
L 140.984718 285.242292 
L 141.049662 285.212252 
L 141.179549 285.189659 
L 141.244493 285.032654 
L 141.309437 285.070051 
L 141.439325 285.090969 
L 141.569213 285.075725 
L 141.764044 285.137372 
L 141.828988 285.184587 
L 141.958876 284.974658 
L 142.283596 284.9894 
L 143.127866 284.705469 
L 143.387642 284.980197 
L 143.777305 284.942774 
L 144.037081 285.07576 
L 144.231913 284.999611 
L 144.426744 284.950583 
L 144.621576 284.823154 
L 144.816408 284.623472 
L 144.881352 284.609105 
L 145.011239 284.855267 
L 145.271015 284.64341 
L 145.335959 285.066636 
L 145.400903 285.035373 
L 145.595734 284.93947 
L 145.725622 284.741307 
L 145.920454 284.684567 
L 146.310117 284.333083 
L 146.569893 284.415877 
L 148.063603 283.387364 
L 148.19349 283.486234 
L 148.323378 283.097131 
L 148.453266 283.470923 
L 148.583154 283.394378 
L 148.713042 283.245193 
L 148.842929 283.781767 
L 148.907873 283.72576 
L 150.141807 283.358211 
L 150.206751 283.509137 
L 150.271695 283.451397 
L 150.661358 283.301413 
L 150.921134 283.049771 
L 151.051022 283.213719 
L 151.310797 283.040552 
L 151.440685 283.087507 
L 151.505629 283.033974 
L 151.570573 282.827122 
L 151.635517 282.96009 
L 151.765405 282.960853 
L 151.895293 282.971029 
L 152.3499 283.117691 
L 152.609675 283.025386 
L 152.934395 283.527803 
L 153.129227 283.431408 
L 153.259114 283.423183 
L 153.51889 283.348666 
L 153.713722 283.392719 
L 153.843609 283.361233 
L 154.038441 283.206039 
L 154.233273 283.203729 
L 154.493048 282.368245 
L 154.622936 282.319041 
L 154.752824 281.97593 
L 154.817768 283.165431 
L 154.882712 283.155945 
L 155.142487 283.123555 
L 155.402263 283.87075 
L 155.467207 283.832859 
L 155.597095 283.682258 
L 155.662039 283.891967 
L 155.726982 283.824222 
L 156.18159 283.377082 
L 156.311478 284.510863 
L 156.506309 284.31901 
L 156.636197 284.329186 
L 156.701141 284.429387 
L 156.766085 284.331298 
L 156.895973 284.130787 
L 156.960917 284.13853 
L 157.090804 284.048023 
L 157.220692 283.988143 
L 157.285636 283.714583 
L 157.35058 283.758141 
L 157.545412 283.741909 
L 157.805187 283.497241 
L 158.000019 283.331694 
L 158.194851 283.286454 
L 158.389682 283.148563 
L 158.584514 282.90965 
L 158.649458 282.972272 
L 158.714402 282.957548 
L 158.974177 282.387012 
L 159.169009 282.069353 
L 159.558672 281.585534 
L 159.818448 281.491745 
L 160.208111 280.993677 
L 160.337999 280.785225 
L 160.402943 280.833057 
L 160.597775 280.645003 
L 160.85755 280.542423 
L 160.922494 280.46685 
L 160.987438 280.168966 
L 161.052382 280.299888 
L 161.18227 280.49494 
L 161.506989 279.996261 
L 161.571933 281.608336 
L 161.636877 281.595149 
L 161.896653 281.320938 
L 161.961597 281.421903 
L 162.35126 281.595858 
L 162.481148 281.941718 
L 162.67598 281.317863 
L 162.870811 281.085556 
L 163.065643 281.299833 
L 163.390362 281.217422 
L 163.52025 279.64987 
L 163.585194 279.642513 
L 163.650138 279.34412 
L 163.715082 279.417264 
L 163.909914 279.51761 
L 164.169689 279.339307 
L 164.299577 279.504839 
L 164.624296 278.897974 
L 164.68924 278.941275 
L 164.884072 279.188104 
L 165.078904 278.934205 
L 165.273735 278.872445 
L 165.403623 279.001018 
L 165.728343 278.757667 
L 165.858231 278.319595 
L 166.118006 278.297071 
L 166.18295 278.559682 
L 166.247894 278.516907 
L 166.312838 278.250138 
L 166.377782 278.284874 
L 166.442726 278.443227 
L 166.50767 278.397529 
L 166.637557 278.253827 
L 166.702501 277.838626 
L 166.767445 277.975235 
L 167.157109 277.718767 
L 167.222052 278.265575 
L 167.286996 278.172164 
L 167.546772 277.749882 
L 167.67666 277.769542 
L 167.806547 277.410132 
L 168.066323 277.624713 
L 168.196211 277.535874 
L 168.52093 276.932185 
L 168.585874 276.972293 
L 168.84565 277.434015 
L 168.910594 277.422735 
L 169.040482 276.612335 
L 169.105425 276.747996 
L 169.365201 276.441881 
L 169.430145 276.42989 
L 169.495089 276.249812 
L 169.689921 276.645658 
L 169.754864 276.735225 
L 169.949696 276.56741 
L 170.404303 277.243395 
L 170.599135 276.944159 
L 170.664079 276.904297 
L 170.858911 277.361064 
L 171.053742 276.922687 
L 171.18363 277.020169 
L 171.313518 276.538893 
L 171.378462 276.652293 
L 171.50835 276.55044 
L 171.703181 276.908936 
L 172.157789 275.985122 
L 172.287676 276.076541 
L 172.482508 275.105269 
L 172.742284 275.333086 
L 172.807228 275.242376 
L 172.937115 279.769192 
L 173.131947 279.847213 
L 173.326779 279.9995 
L 173.521611 279.548365 
L 173.586554 279.500077 
L 173.976218 280.089409 
L 174.235993 279.681638 
L 174.300937 279.721591 
L 174.560713 279.134543 
L 174.625657 279.313339 
L 174.885432 278.485975 
L 175.01532 278.631489 
L 175.080264 278.307086 
L 175.145208 278.660454 
L 175.275096 277.988921 
L 175.34004 278.009822 
L 175.469927 277.940676 
L 175.664759 277.482302 
L 175.729703 277.575303 
L 175.794647 277.487231 
L 175.859591 277.419205 
L 176.054423 278.619074 
L 176.119366 278.39007 
L 176.18431 278.334826 
L 176.249254 268.99183 
L 176.314198 269.071571 
L 176.444086 268.915446 
L 176.573974 267.812416 
L 176.833749 267.662062 
L 176.963637 267.404414 
L 177.028581 267.450873 
L 177.158469 267.227259 
L 177.3533 267.332369 
L 177.483188 267.011372 
L 177.67802 267.322831 
L 177.742964 267.335219 
L 177.807908 267.610012 
L 177.872852 267.558305 
L 177.937796 267.637295 
L 178.002739 267.253516 
L 178.067683 267.293839 
L 178.587235 268.887888 
L 178.652178 269.867123 
L 178.717122 269.830822 
L 179.236674 272.160253 
L 179.366561 272.004287 
L 179.496449 272.176451 
L 180.016 275.033562 
L 180.080944 275.045929 
L 180.145888 275.330814 
L 180.210832 275.270191 
L 180.34072 275.164765 
L 180.405664 275.353481 
L 180.470608 275.07724 
L 180.535551 275.230146 
L 180.600495 275.179409 
L 180.665439 275.296535 
L 180.730383 275.153805 
L 180.860271 279.993946 
L 180.925215 279.453601 
L 180.990159 279.529235 
L 181.055103 277.562753 
L 181.120047 277.695887 
L 181.249934 277.066314 
L 181.314878 277.411003 
L 181.50971 276.944994 
L 181.639598 277.097898 
L 181.704542 276.938402 
L 181.769486 277.114156 
L 181.899373 276.830033 
L 182.029261 276.65095 
L 182.094205 276.781202 
L 182.224093 277.551911 
L 182.289037 277.325749 
L 182.418925 277.636555 
L 182.613756 277.10541 
L 182.873532 276.571975 
L 182.938476 276.676215 
L 183.00342 276.848012 
L 183.068363 276.522582 
L 183.263195 277.210522 
L 183.393083 277.077595 
L 183.458027 277.252516 
L 183.717802 276.129528 
L 184.042522 275.29299 
L 184.107466 275.323272 
L 184.302298 275.595894 
L 184.367241 275.353897 
L 184.432185 275.789491 
L 184.497129 275.687889 
L 184.756905 274.700135 
L 184.886793 274.798422 
L 185.01668 275.430436 
L 185.276456 274.285088 
L 185.3414 274.344426 
L 185.471288 273.503711 
L 185.666119 273.968149 
L 185.731063 272.737975 
L 185.796007 272.841856 
L 185.925895 272.598404 
L 186.055783 268.519283 
L 186.120727 268.618629 
L 186.51039 267.585761 
L 186.575334 266.69839 
L 186.640278 266.853632 
L 186.770166 266.29799 
L 186.964997 264.18095 
L 187.029941 264.102253 
L 187.484549 261.949084 
L 187.744324 261.350175 
L 187.874212 261.117152 
L 188.0041 261.882461 
L 188.069044 262.599113 
L 188.133988 262.169453 
L 188.263875 261.915784 
L 188.393763 260.701119 
L 188.458707 260.640514 
L 188.523651 260.724918 
L 188.588595 260.706389 
L 188.84837 259.933464 
L 188.978258 258.948167 
L 189.108146 259.050905 
L 189.17309 258.814467 
L 189.238034 259.038206 
L 189.302978 258.950586 
L 189.367922 258.886486 
L 189.432865 259.399291 
L 189.627697 258.180011 
L 189.757585 258.879996 
L 189.887473 258.550788 
L 190.017361 259.60762 
L 190.212192 258.109304 
L 190.34208 258.66409 
L 190.471968 261.616244 
L 190.601856 261.344504 
L 190.731743 262.702917 
L 190.926575 263.011581 
L 190.991519 263.059977 
L 191.056463 262.251645 
L 191.121407 262.382889 
L 191.251295 268.263402 
L 191.381182 267.830101 
L 191.576014 267.831265 
L 191.770846 268.273773 
L 191.900734 267.015281 
L 191.965677 267.088231 
L 192.160509 268.209538 
L 192.225453 268.211154 
L 192.290397 268.064544 
L 192.355341 268.367566 
L 192.420285 268.29181 
L 192.485229 268.367566 
L 192.615116 268.219367 
L 192.745004 268.752552 
L 192.809948 269.748597 
L 192.874892 269.529983 
L 193.00478 269.391105 
L 193.134668 269.700861 
L 193.264555 270.491256 
L 193.719163 271.035022 
L 193.784107 275.654803 
L 193.849051 275.540819 
L 193.913994 275.781146 
L 194.108826 276.956389 
L 194.238714 277.334891 
L 194.368602 277.203319 
L 194.49849 276.985645 
L 194.628377 277.068615 
L 194.888153 278.976929 
L 194.953097 278.677989 
L 195.147928 280.000229 
L 195.212872 279.617699 
L 195.277816 279.53373 
L 195.472648 280.529079 
L 195.602536 280.430445 
L 195.66748 280.946704 
L 195.797367 280.416463 
L 195.927255 280.321673 
L 196.057143 280.039688 
L 196.187031 279.030511 
L 196.381863 279.660497 
L 196.446806 279.384436 
L 196.51175 279.465103 
L 196.576694 279.372485 
L 196.901414 280.690541 
L 196.966358 280.591229 
L 197.291077 279.415168 
L 197.356021 279.807188 
L 197.420965 279.693182 
L 197.810628 279.593844 
L 197.875572 279.384961 
L 198.200292 280.38515 
L 198.265236 280.285131 
L 198.330179 279.878158 
L 198.395123 279.978866 
L 198.914675 280.987361 
L 198.979618 281.39583 
L 199.044562 280.953446 
L 199.17445 281.696087 
L 199.239394 281.647006 
L 199.49917 281.390024 
L 199.694001 281.06717 
L 199.953777 281.504661 
L 200.213553 280.859056 
L 200.278496 281.07904 
L 200.538272 280.529079 
L 200.66816 280.529079 
L 200.733104 280.697157 
L 200.798048 280.19166 
L 200.862992 280.416606 
L 200.927935 280.304133 
L 201.122767 279.501367 
L 201.317599 280.186509 
L 201.577374 284.096207 
L 201.642318 284.326344 
L 201.707262 284.211275 
L 201.772206 284.211275 
L 202.096926 283.175658 
L 202.161869 283.635932 
L 202.226813 283.474658 
L 202.291757 283.196174 
L 202.356701 283.428095 
L 202.421645 283.312134 
L 202.486589 283.428095 
L 202.681421 282.964253 
L 202.746365 282.983277 
L 202.811308 282.866411 
L 202.876252 283.100144 
L 202.941196 282.866411 
L 203.00614 283.051564 
L 203.071084 283.002602 
L 203.136028 282.884815 
L 203.265916 281.953738 
L 203.33086 282.191182 
L 203.655579 282.563493 
L 203.915355 281.494171 
L 203.980299 281.132262 
L 204.045243 281.373535 
L 204.110186 281.373535 
L 204.240074 281.132262 
L 204.434906 281.735444 
L 204.49985 281.502017 
L 204.564794 281.745252 
L 204.759625 281.14215 
L 204.954457 281.083113 
L 205.019401 281.023589 
L 205.084345 281.270844 
L 205.149289 281.087711 
L 205.214233 281.157605 
L 205.279177 280.906195 
L 205.34412 281.157605 
L 205.409064 280.909391 
L 205.538952 281.289702 
L 205.66884 280.78262 
L 205.733784 280.909391 
L 205.928616 280.148768 
L 205.993559 280.148768 
L 206.123447 280.275538 
L 206.253335 279.895227 
L 206.448167 279.388145 
L 206.513111 279.641686 
L 206.642998 279.134604 
L 206.707942 279.134604 
L 206.83783 278.881063 
L 206.902774 279.007833 
L 206.967718 277.233046 
L 207.032662 277.359817 
L 207.16255 276.693459 
L 207.227493 276.949167 
L 207.357381 276.693459 
L 207.422325 276.309897 
L 207.617157 272.503907 
L 208.00682 270.012109 
L 208.136708 269.012034 
L 208.266596 269.409174 
L 208.526371 268.482515 
L 208.591315 268.747275 
L 208.916035 267.974271 
L 208.980979 267.974271 
L 209.110867 267.707147 
L 209.17581 268.107833 
L 209.695362 265.570159 
L 209.760306 265.570159 
L 209.890193 266.3861 
L 209.955137 268.153972 
L 210.020081 267.066051 
L 210.085025 266.930061 
L 210.214913 250.203268 
L 210.279857 250.203268 
L 210.344801 250.067277 
L 210.409744 250.339258 
L 210.539632 249.931287 
L 210.604576 250.203268 
L 210.799408 249.513336 
L 210.864352 249.787811 
L 210.929296 249.650574 
L 211.059183 248.964385 
L 211.124127 249.23886 
L 211.189071 249.101622 
L 211.254015 249.101622 
L 211.318959 249.513336 
L 211.383903 249.439341 
L 211.448847 248.933602 
L 211.513791 249.492814 
L 211.578735 249.213208 
L 211.643679 249.213208 
L 211.773566 249.632617 
L 211.903454 250.471435 
L 212.033342 250.331632 
L 212.098286 250.471435 
L 212.293118 249.044113 
L 212.423005 249.382728 
L 212.552893 248.577987 
L 212.617837 249.013684 
L 212.682781 248.93292 
L 212.812669 247.971429 
L 212.877613 248.118085 
L 213.0075 248.704709 
L 213.137388 247.945292 
L 213.202332 248.0934 
L 213.33222 249.278265 
L 213.397164 249.278265 
L 213.462108 250.536068 
L 213.527052 249.855737 
L 213.656939 251.366739 
L 213.721883 251.215639 
L 213.786827 251.517839 
L 213.916715 251.064539 
L 214.046603 251.374448 
L 214.111547 251.374448 
L 214.306378 250.219643 
L 214.436266 258.010274 
L 214.566154 257.849426 
L 214.631098 257.849426 
L 214.82593 258.814517 
L 215.020761 266.545741 
L 215.150649 266.870934 
L 215.280537 266.870934 
L 215.410425 267.196128 
L 215.475369 267.033531 
L 215.605256 268.009113 
L 215.800088 270.610665 
L 215.929976 270.337287 
L 216.124808 271.055096 
L 216.189751 270.780569 
L 216.384583 271.45288 
L 216.449527 271.45288 
L 216.579415 271.957114 
L 216.644359 271.957114 
L 216.709303 272.125191 
L 216.969078 276.159058 
L 217.098966 275.654824 
L 217.16391 275.822902 
L 217.358742 277.4693 
L 217.488629 276.619362 
L 217.553573 277.129325 
L 217.683461 276.619362 
L 217.813349 277.4693 
L 218.008181 276.959337 
L 218.267956 277.809276 
L 218.3329 277.4693 
L 218.397844 279.059128 
L 218.462788 278.963611 
L 218.592676 278.78967 
L 218.65762 278.78967 
L 218.787507 278.615729 
L 218.917395 279.137552 
L 219.047283 278.769206 
L 219.242115 279.121181 
L 219.307059 278.945194 
L 219.372002 279.473156 
L 219.436946 279.10442 
L 219.696722 278.570173 
L 219.761666 278.570173 
L 219.82661 278.926338 
L 219.956497 278.035926 
L 220.021441 278.214008 
L 220.281217 275.720855 
L 220.411105 275.36469 
L 220.476049 274.474278 
L 220.540993 275.008525 
L 220.605936 275.36469 
L 220.67088 275.008525 
L 220.800768 275.898937 
L 220.865712 275.720855 
L 221.060544 284.313867 
L 221.190432 284.85455 
L 221.255375 284.674322 
L 221.385263 284.313867 
L 221.580095 284.674322 
L 221.709983 284.674322 
L 221.774927 284.85455 
L 221.969758 284.542448 
L 222.099646 284.961352 
L 222.229534 284.961352 
L 222.359422 283.668606 
L 222.489309 284.407318 
L 222.619197 284.407318 
L 222.684141 284.22264 
L 222.878973 284.961352 
L 223.073805 283.853284 
L 223.138748 283.853284 
L 223.203692 283.668606 
L 223.268636 284.037962 
L 223.398524 282.37586 
L 223.528412 282.294418 
L 223.593356 282.024971 
L 223.6583 289.351007 
L 223.723244 289.159226 
L 223.788187 289.159226 
L 223.983019 288.775664 
L 224.047963 288.775664 
L 224.307739 288.200321 
L 224.372683 288.200321 
L 224.567514 288.583883 
L 224.762346 287.816759 
L 224.82729 287.624978 
L 224.892234 287.767267 
L 225.087065 289.271306 
L 225.216953 289.077034 
L 225.346841 289.077034 
L 225.476729 289.271306 
L 225.606617 288.402196 
L 225.801448 288.906075 
L 225.931336 288.906075 
L 226.126168 288.50717 
L 226.320999 288.906075 
L 226.385943 288.906075 
L 226.515831 288.50717 
L 226.645719 288.706623 
L 226.710663 288.706623 
L 226.840551 288.307718 
L 226.970438 288.307718 
L 227.100326 288.108266 
L 227.16527 288.108266 
L 227.295158 287.908814 
L 227.425046 288.307718 
L 227.554934 288.108266 
L 227.619877 288.307718 
L 227.944597 286.676581 
L 228.009541 286.676581 
L 228.269316 285.651997 
L 228.33426 288.424065 
L 228.399204 288.216302 
L 228.464148 288.216302 
L 228.529092 288.583883 
L 228.594036 288.535262 
L 229.113587 286.84975 
L 229.178531 287.060439 
L 229.438307 286.006994 
L 229.568194 286.217683 
L 229.633138 286.217683 
L 229.698082 287.271128 
L 229.763026 287.060439 
L 229.82797 287.060439 
L 229.892914 286.84975 
L 230.022802 287.481817 
L 230.152689 287.481817 
L 230.217633 287.692506 
L 230.347521 287.481817 
L 230.477409 287.903195 
L 230.607297 287.903195 
L 230.672241 288.113884 
L 230.737185 287.903195 
L 230.867072 290.220774 
L 230.932016 290.010085 
L 231.061904 290.220774 
L 231.191792 290.220774 
L 231.256736 290.431463 
L 231.32168 290.220774 
L 231.386624 290.431463 
L 231.516511 290.010085 
L 231.776287 290.010085 
L 231.971119 293.137312 
L 232.036062 293.137312 
L 232.16595 292.282517 
L 232.295838 292.452857 
L 232.49067 292.019265 
L 232.620558 292.019265 
L 233.010221 293.103245 
L 233.140109 292.886449 
L 233.205053 292.886449 
L 233.269997 292.669653 
L 233.399884 292.886449 
L 233.529772 292.886449 
L 233.65966 292.236061 
L 233.854492 292.236061 
L 233.919436 292.019265 
L 234.049323 292.236061 
L 234.244155 291.802469 
L 234.309099 291.802469 
L 234.438987 292.019265 
L 234.503931 291.802469 
L 234.568875 292.188238 
L 234.633818 291.968254 
L 234.698762 291.968254 
L 234.893594 291.308302 
L 234.958538 291.308302 
L 235.15337 291.74827 
L 235.218313 291.74827 
L 235.413145 292.188238 
L 235.737865 292.188238 
L 235.867752 291.74827 
L 236.192472 291.74827 
L 236.32236 291.968254 
L 236.387304 291.968254 
L 236.517191 291.74827 
L 236.647079 291.74827 
L 236.776967 292.188238 
L 236.841911 292.188238 
L 236.971799 291.968254 
L 237.101687 292.188238 
L 237.426406 292.188238 
L 237.621238 291.91572 
L 237.881013 291.826413 
L 238.010901 291.368715 
L 238.140789 291.368715 
L 238.270677 290.911017 
L 238.595396 290.911017 
L 238.725284 291.139866 
L 238.855172 290.911017 
L 239.050003 291.368715 
L 239.179891 291.368715 
L 239.439667 290.682168 
L 239.569555 290.682168 
L 239.699442 290.453319 
L 239.959218 290.453319 
L 240.089106 290.911017 
L 240.283938 290.453319 
L 241.128208 290.377035 
L 241.452928 289.590733 
L 241.517872 289.590733 
L 241.712703 290.062515 
L 241.842591 290.062515 
L 242.037423 289.345014 
L 242.102367 289.435542 
L 242.232254 289.339471 
L 242.297198 289.59566 
L 242.427086 289.339471 
L 242.556974 290.021264 
L 242.81675 289.071445 
L 242.946637 289.338801 
L 243.141469 289.338801 
L 243.271357 289.606158 
L 243.336301 289.606158 
L 243.401245 289.781473 
L 243.466189 289.686365 
L 243.725964 289.588032 
L 243.855852 289.307081 
L 244.050684 289.307081 
L 244.180571 289.588032 
L 244.310459 289.02613 
L 244.505291 289.02613 
L 244.635179 289.307081 
L 244.765066 289.02613 
L 244.83001 289.02613 
L 244.959898 289.307081 
L 245.15473 288.745179 
L 245.349562 288.687548 
L 245.414505 288.628924 
L 245.479449 288.343129 
L 245.544393 288.628924 
L 245.804169 287.716943 
L 245.999001 287.716943 
L 246.128888 287.418056 
L 246.388664 287.418056 
L 246.583496 288.314716 
L 246.973159 286.820282 
L 247.232935 286.820282 
L 247.557654 288.79507 
L 247.622598 288.79507 
L 247.687542 289.348703 
L 247.752486 289.292891 
L 247.882374 288.983136 
L 247.947317 289.292891 
L 248.207093 288.363625 
L 248.272037 288.363625 
L 248.401925 288.673381 
L 248.596756 288.673381 
L 248.6617 288.983136 
L 248.791588 289.912402 
L 248.98642 289.912402 
L 249.246195 290.841669 
L 249.505971 290.841669 
L 249.635859 291.461179 
L 249.895634 291.461179 
L 250.025522 291.151424 
L 250.285298 291.151424 
L 250.350242 291.461179 
L 250.480129 290.222158 
L 250.610017 289.912402 
L 250.739905 290.222158 
L 250.934737 290.222158 
L 251.064625 290.071705 
L 251.194512 289.434494 
L 251.584176 289.434494 
L 251.714064 289.115888 
L 251.843951 289.434494 
L 251.973839 289.115888 
L 252.363503 289.115888 
L 252.49339 288.797283 
L 252.623278 288.797283 
L 252.81811 290.47725 
L 253.077885 289.475101 
L 253.272717 289.475101 
L 253.337661 289.292891 
L 253.532493 290.669582 
L 253.922156 290.578669 
L 254.052044 291.280002 
L 254.246876 291.280002 
L 254.376763 290.929335 
L 254.636539 291.981335 
L 255.15609 291.981335 
L 255.285978 292.332001 
L 255.870473 292.332001 
L 256.000361 291.981335 
L 256.454968 291.981335 
L 256.519912 292.332001 
L 256.6498 291.981335 
L 258.013622 291.981335 
L 258.143509 291.630668 
L 258.273397 291.630668 
L 258.338341 293.033334 
L 258.403285 292.332001 
L 258.728005 292.332001 
L 258.857892 291.630668 
L 259.182612 291.630668 
L 259.3125 291.280002 
L 259.637219 291.280002 
L 259.702163 290.929335 
L 259.832051 291.280002 
L 260.026882 290.578669 
L 260.416546 290.578669 
L 260.611378 291.280002 
L 260.741265 291.280002 
L 261.001041 293.033334 
L 261.130929 292.682668 
L 261.520592 292.682668 
L 261.65048 293.033334 
L 263.14419 293.033334 
L 263.274077 292.682668 
L 263.598797 292.682668 
L 263.728685 293.033334 
L 263.923516 293.033334 
L 264.118348 293.734667 
L 264.183292 293.734667 
L 264.31318 294.085334 
L 264.443068 294.085334 
L 264.572955 293.384001 
L 265.092507 293.384001 
L 265.222394 293.033334 
L 265.612058 293.033334 
L 265.677002 292.682668 
L 265.806889 293.033334 
L 265.871833 293.033334 
L 266.001721 292.332001 
L 266.196553 292.332001 
L 266.326441 291.981335 
L 266.456328 291.981335 
L 266.586216 294.77318 
L 266.716104 294.41577 
L 267.105767 294.41577 
L 267.300599 293.700949 
L 267.625319 293.665909 
L 267.755206 294.030327 
L 267.82015 294.030327 
L 267.950038 293.665909 
L 268.079926 293.665909 
L 268.209814 294.394746 
L 268.599477 294.394746 
L 268.729365 294.759164 
L 270.417906 294.759164 
L 270.547794 294.394746 
L 272.625999 294.394746 
L 272.755886 294.030327 
L 272.950718 294.030327 
L 273.080606 293.665909 
L 273.275438 294.37288 
L 273.535213 294.350123 
L 273.665101 293.970831 
L 274.31454 293.970831 
L 274.444428 294.350123 
L 274.769147 294.350123 
L 274.899035 293.970831 
L 275.288698 293.970831 
L 275.418586 294.350123 
L 275.48353 294.350123 
L 275.613418 293.970831 
L 275.743306 294.350123 
L 275.873194 293.970831 
L 276.132969 293.970831 
L 276.392745 295.108708 
L 277.366903 295.108708 
L 277.496791 294.729415 
L 277.951398 294.729415 
L 278.016342 295.108708 
L 278.14623 294.350123 
L 278.730725 294.350123 
L 278.925557 295.108708 
L 279.185332 295.108708 
L 279.31522 295.488 
L 279.445108 294.729415 
L 279.63994 294.729415 
L 279.769827 294.350123 
L 280.48421 294.350123 
L 280.614098 294.729415 
L 281.328481 294.729415 
L 281.458369 294.350123 
L 281.848032 294.350123 
L 282.042864 293.591538 
L 282.107808 293.591538 
L 282.237696 293.970831 
L 282.497471 293.970831 
L 282.627359 294.350123 
L 282.757247 293.970831 
L 282.887135 294.350123 
L 283.536573 294.350123 
L 283.666461 294.729415 
L 284.186012 294.729415 
L 284.3159 294.350123 
L 284.835451 294.350123 
L 284.965339 294.729415 
L 285.160171 294.729415 
L 285.290059 294.350123 
L 285.355003 294.350123 
L 285.48489 293.970831 
L 286.329161 293.970831 
L 286.459049 293.591538 
L 286.718824 293.591538 
L 286.848712 293.212246 
L 287.238376 293.212246 
L 287.30332 292.832953 
L 287.368263 293.212246 
L 287.498151 292.832953 
L 287.628039 293.212246 
L 288.082646 293.212246 
L 288.212534 292.832953 
L 288.407366 292.832953 
L 288.537254 292.453661 
L 288.861973 292.453661 
L 288.991861 292.832953 
L 289.056805 292.832953 
L 289.186693 293.591538 
L 289.251637 293.571987 
L 289.31658 293.939223 
L 289.446468 292.390446 
L 289.706244 292.390446 
L 289.836132 292.003251 
L 290.615458 292.003251 
L 290.81029 293.164834 
L 290.875234 293.164834 
L 291.070066 292.390446 
L 291.13501 292.390446 
L 291.264897 292.003251 
L 291.654561 292.003251 
L 291.784449 292.390446 
L 291.914336 292.390446 
L 292.109168 293.164834 
L 293.083326 293.164834 
L 293.213214 292.77764 
L 294.901756 292.77764 
L 295.031643 293.164834 
L 295.096587 293.164834 
L 295.226475 293.552029 
L 295.486251 293.552029 
L 295.616139 292.77764 
L 296.395465 292.77764 
L 296.525353 292.390446 
L 296.915016 292.390446 
L 297.044904 292.003251 
L 297.174792 292.003251 
L 297.30468 291.228863 
L 297.694343 291.228863 
L 297.889175 292.003251 
L 298.148951 292.003251 
L 298.278838 293.552029 
L 299.837492 293.510838 
L 299.96738 292.32454 
L 300.551875 292.32454 
L 300.681763 292.719973 
L 301.266258 292.719973 
L 301.396145 292.32454 
L 301.915697 292.32454 
L 302.045584 292.719973 
L 302.824911 292.719973 
L 302.954799 293.115405 
L 304.513453 293.115405 
L 304.64334 292.719973 
L 305.227835 292.719973 
L 305.357723 293.510838 
L 305.487611 293.510838 
L 305.617499 293.115405 
L 305.747387 293.115405 
L 305.877274 292.719973 
L 306.13705 292.719973 
L 306.266938 293.115405 
L 306.331882 293.115405 
L 306.461769 293.510838 
L 306.916377 293.510838 
L 307.046265 293.90627 
L 309.579077 293.90627 
L 309.708964 294.697135 
L 313.670542 294.697135 
L 313.80043 294.301703 
L 314.255037 294.301703 
L 314.384925 295.092568 
L 314.449869 295.092568 
L 314.579757 294.697135 
L 314.644701 294.697135 
L 314.774588 294.301703 
L 315.229196 294.301703 
L 315.424027 295.488 
L 316.722905 295.488 
L 316.917737 294.679942 
L 317.502232 294.679942 
L 317.63212 295.083971 
L 317.891895 295.083971 
L 318.021783 294.679942 
L 321.853473 294.661986 
L 321.983361 294.248978 
L 322.243137 294.248978 
L 322.373024 293.835971 
L 322.762688 293.835971 
L 322.892576 294.248978 
L 322.95752 294.248978 
L 323.087407 294.661986 
L 326.46449 294.661986 
L 326.594378 295.074993 
L 326.789209 295.074993 
L 326.919097 294.661986 
L 327.373705 294.661986 
L 327.503592 295.074993 
L 327.63348 295.074993 
L 327.698424 295.488 
L 327.828312 295.074993 
L 328.542695 295.074993 
L 328.672583 295.488 
L 331.660002 295.488 
L 331.78989 295.074993 
L 332.049665 295.074993 
L 332.179553 294.661986 
L 333.023824 294.661986 
L 333.153711 295.074993 
L 333.478431 295.074993 
L 333.608319 294.661986 
L 333.868094 294.661986 
L 333.997982 293.835971 
L 335.686523 293.835971 
L 335.816411 294.248978 
L 335.881355 294.248978 
L 336.011243 293.835971 
L 337.63484 293.835971 
L 337.764728 293.422964 
L 338.349223 293.422964 
L 338.479111 293.835971 
L 338.608999 293.835971 
L 338.803831 293.009957 
L 339.258438 293.009957 
L 339.45327 293.835971 
L 340.362484 293.835971 
L 340.492372 293.422964 
L 341.206755 293.422964 
L 341.336643 293.835971 
L 341.596418 293.835971 
L 341.726306 293.422964 
L 341.79125 293.422964 
L 341.921138 294.248978 
L 342.830352 294.248978 
L 342.96024 294.661986 
L 345.363164 294.661986 
L 345.493052 294.248978 
L 345.62294 294.248978 
L 345.687884 294.661986 
L 345.817772 294.248978 
L 345.882715 294.248978 
L 346.012603 293.835971 
L 346.207435 293.835971 
L 346.337323 293.422964 
L 346.662042 293.422964 
L 346.79193 293.835971 
L 346.921818 293.835971 
L 347.051706 293.422964 
L 349.519574 293.422964 
L 349.714405 292.596949 
L 350.104069 292.596949 
L 350.233957 293.009957 
L 350.298901 293.009957 
L 350.428788 293.422964 
L 351.338003 293.326916 
L 351.467891 293.759133 
L 351.597778 293.326916 
L 352.247217 293.326916 
L 352.377105 294.191349 
L 352.506993 293.759133 
L 352.896656 293.759133 
L 353.026544 294.191349 
L 355.104749 294.191349 
L 355.234637 294.623566 
L 355.94902 294.623566 
L 356.078907 295.055783 
L 356.728346 295.055783 
L 356.858234 295.488 
L 358.027224 295.488 
L 358.157112 295.055783 
L 358.546776 295.055783 
L 358.676663 295.488 
L 360.170373 295.488 
L 360.300261 295.055783 
L 360.884756 295.055783 
L 361.014644 295.488 
L 362.833073 295.488 
L 362.962961 295.055783 
L 363.547456 295.055783 
L 363.677343 294.623566 
L 363.807231 294.623566 
L 363.937119 295.055783 
L 364.002063 295.055783 
L 364.131951 294.623566 
L 364.326782 294.623566 
L 364.45667 295.055783 
L 364.651502 295.055783 
L 364.78139 295.488 
L 365.300941 295.488 
L 365.430829 295.055783 
L 365.885436 295.055783 
L 366.015324 295.488 
L 367.638921 295.488 
L 367.768809 295.055783 
L 368.742968 295.055783 
L 368.872855 294.623566 
L 369.262519 294.623566 
L 369.392406 294.191349 
L 371.145892 294.191349 
L 371.340723 293.326916 
L 371.600499 293.326916 
L 371.730387 292.894699 
L 372.184994 292.894699 
L 372.314882 292.462482 
L 372.769489 292.462482 
L 372.899377 292.894699 
L 377.185674 292.894699 
L 377.315562 292.462482 
L 377.380506 292.462482 
L 377.510394 292.894699 
L 377.770169 292.894699 
L 377.900057 292.462482 
L 378.029945 292.894699 
L 378.094889 292.894699 
L 378.28972 292.030265 
L 378.484552 292.030265 
L 378.549496 292.462482 
L 378.61444 292.030265 
L 378.744328 292.462482 
L 379.004103 292.462482 
L 379.133991 292.030265 
L 379.393767 292.030265 
L 379.523655 291.598048 
L 379.718486 295.488 
L 398.487273 295.488 
L 398.487273 295.488 
" style="fill:none;stroke:#1f77b4;stroke-linecap:square;stroke-width:1.5;"/>
   </g>
   <g id="patch_3">
    <path d="M 57.6 307.584 
L 57.6 41.472 
" style="fill:none;stroke:#000000;stroke-linecap:square;stroke-linejoin:miter;stroke-width:0.8;"/>
   </g>
   <g id="patch_4">
    <path d="M 414.72 307.584 
L 414.72 41.472 
" style="fill:none;stroke:#000000;stroke-linecap:square;stroke-linejoin:miter;stroke-width:0.8;"/>
   </g>
   <g id="patch_5">
    <path d="M 57.6 307.584 
L 414.72 307.584 
" style="fill:none;stroke:#000000;stroke-linecap:square;stroke-linejoin:miter;stroke-width:0.8;"/>
   </g>
   <g id="patch_6">
    <path d="M 57.6 41.472 
L 414.72 41.472 
" style="fill:none;stroke:#000000;stroke-linecap:square;stroke-linejoin:miter;stroke-width:0.8;"/>
   </g>
  </g>
  <g id="text_18">
   <!-- Distance coverage -->
   <g transform="translate(174.400313 16.030125)scale(0.12 -0.12)">
    <use xlink:href="#DejaVuSans-68"/>
    <use x="77.001953" xlink:href="#DejaVuSans-105"/>
    <use x="104.785156" xlink:href="#DejaVuSans-115"/>
    <use x="156.884766" xlink:href="#DejaVuSans-116"/>
    <use x="196.09375" xlink:href="#DejaVuSans-97"/>
    <use x="257.373047" xlink:href="#DejaVuSans-110"/>
    <use x="320.751953" xlink:href="#DejaVuSans-99"/>
    <use x="375.732422" xlink:href="#DejaVuSans-101"/>
    <use x="437.255859" xlink:href="#DejaVuSans-32"/>
    <use x="469.042969" xlink:href="#DejaVuSans-99"/>
    <use x="524.023438" xlink:href="#DejaVuSans-111"/>
    <use x="585.205078" xlink:href="#DejaVuSans-118"/>
    <use x="644.384766" xlink:href="#DejaVuSans-101"/>
    <use x="705.908203" xlink:href="#DejaVuSans-114"/>
    <use x="747.021484" xlink:href="#DejaVuSans-97"/>
    <use x="808.300781" xlink:href="#DejaVuSans-103"/>
    <use x="871.777344" xlink:href="#DejaVuSans-101"/>
   </g>
  </g>
 </g>
 <defs>
  <clipPath id="pbde98e60fe">
   <rect height="266.112" width="357.12" x="57.6" y="41.472"/>
  </clipPath>
 </defs>
</svg>
