<?xml version="1.0" encoding="utf-8" standalone="no"?>
<!DOCTYPE svg PUBLIC "-//W3C//DTD SVG 1.1//EN"
  "http://www.w3.org/Graphics/SVG/1.1/DTD/svg11.dtd">
<!-- Created with matplotlib (https://matplotlib.org/) -->
<svg height="345.6pt" version="1.1" viewBox="0 0 460.8 345.6" width="460.8pt" xmlns="http://www.w3.org/2000/svg" xmlns:xlink="http://www.w3.org/1999/xlink">
 <defs>
  <style type="text/css">
*{stroke-linecap:butt;stroke-linejoin:round;}
  </style>
 </defs>
 <g id="figure_1">
  <g id="patch_1">
   <path d="M 0 345.6 
L 460.8 345.6 
L 460.8 0 
L 0 0 
z
" style="fill:#ffffff;"/>
  </g>
  <g id="axes_1">
   <g id="patch_2">
    <path d="M 57.6 307.584 
L 414.72 307.584 
L 414.72 41.472 
L 57.6 41.472 
z
" style="fill:#ffffff;"/>
   </g>
   <g id="matplotlib.axis_1">
    <g id="xtick_1">
     <g id="line2d_1">
      <defs>
       <path d="M 0 0 
L 0 3.5 
" id="m34200beef0" style="stroke:#000000;stroke-width:0.8;"/>
      </defs>
      <g>
       <use style="stroke:#000000;stroke-width:0.8;" x="73.832727" xlink:href="#m34200beef0" y="307.584"/>
      </g>
     </g>
     <g id="text_1">
      <!-- 0 -->
      <defs>
       <path d="M 31.78125 66.40625 
Q 24.171875 66.40625 20.328125 58.90625 
Q 16.5 51.421875 16.5 36.375 
Q 16.5 21.390625 20.328125 13.890625 
Q 24.171875 6.390625 31.78125 6.390625 
Q 39.453125 6.390625 43.28125 13.890625 
Q 47.125 21.390625 47.125 36.375 
Q 47.125 51.421875 43.28125 58.90625 
Q 39.453125 66.40625 31.78125 66.40625 
z
M 31.78125 74.21875 
Q 44.046875 74.21875 50.515625 64.515625 
Q 56.984375 54.828125 56.984375 36.375 
Q 56.984375 17.96875 50.515625 8.265625 
Q 44.046875 -1.421875 31.78125 -1.421875 
Q 19.53125 -1.421875 13.0625 8.265625 
Q 6.59375 17.96875 6.59375 36.375 
Q 6.59375 54.828125 13.0625 64.515625 
Q 19.53125 74.21875 31.78125 74.21875 
z
" id="DejaVuSans-48"/>
      </defs>
      <g transform="translate(70.651477 322.182437)scale(0.1 -0.1)">
       <use xlink:href="#DejaVuSans-48"/>
      </g>
     </g>
    </g>
    <g id="xtick_2">
     <g id="line2d_2">
      <g>
       <use style="stroke:#000000;stroke-width:0.8;" x="138.893758" xlink:href="#m34200beef0" y="307.584"/>
      </g>
     </g>
     <g id="text_2">
      <!-- 100 -->
      <defs>
       <path d="M 12.40625 8.296875 
L 28.515625 8.296875 
L 28.515625 63.921875 
L 10.984375 60.40625 
L 10.984375 69.390625 
L 28.421875 72.90625 
L 38.28125 72.90625 
L 38.28125 8.296875 
L 54.390625 8.296875 
L 54.390625 0 
L 12.40625 0 
z
" id="DejaVuSans-49"/>
      </defs>
      <g transform="translate(129.350008 322.182437)scale(0.1 -0.1)">
       <use xlink:href="#DejaVuSans-49"/>
       <use x="63.623047" xlink:href="#DejaVuSans-48"/>
       <use x="127.246094" xlink:href="#DejaVuSans-48"/>
      </g>
     </g>
    </g>
    <g id="xtick_3">
     <g id="line2d_3">
      <g>
       <use style="stroke:#000000;stroke-width:0.8;" x="203.95479" xlink:href="#m34200beef0" y="307.584"/>
      </g>
     </g>
     <g id="text_3">
      <!-- 200 -->
      <defs>
       <path d="M 19.1875 8.296875 
L 53.609375 8.296875 
L 53.609375 0 
L 7.328125 0 
L 7.328125 8.296875 
Q 12.9375 14.109375 22.625 23.890625 
Q 32.328125 33.6875 34.8125 36.53125 
Q 39.546875 41.84375 41.421875 45.53125 
Q 43.3125 49.21875 43.3125 52.78125 
Q 43.3125 58.59375 39.234375 62.25 
Q 35.15625 65.921875 28.609375 65.921875 
Q 23.96875 65.921875 18.8125 64.3125 
Q 13.671875 62.703125 7.8125 59.421875 
L 7.8125 69.390625 
Q 13.765625 71.78125 18.9375 73 
Q 24.125 74.21875 28.421875 74.21875 
Q 39.75 74.21875 46.484375 68.546875 
Q 53.21875 62.890625 53.21875 53.421875 
Q 53.21875 48.921875 51.53125 44.890625 
Q 49.859375 40.875 45.40625 35.40625 
Q 44.1875 33.984375 37.640625 27.21875 
Q 31.109375 20.453125 19.1875 8.296875 
z
" id="DejaVuSans-50"/>
      </defs>
      <g transform="translate(194.41104 322.182437)scale(0.1 -0.1)">
       <use xlink:href="#DejaVuSans-50"/>
       <use x="63.623047" xlink:href="#DejaVuSans-48"/>
       <use x="127.246094" xlink:href="#DejaVuSans-48"/>
      </g>
     </g>
    </g>
    <g id="xtick_4">
     <g id="line2d_4">
      <g>
       <use style="stroke:#000000;stroke-width:0.8;" x="269.015821" xlink:href="#m34200beef0" y="307.584"/>
      </g>
     </g>
     <g id="text_4">
      <!-- 300 -->
      <defs>
       <path d="M 40.578125 39.3125 
Q 47.65625 37.796875 51.625 33 
Q 55.609375 28.21875 55.609375 21.1875 
Q 55.609375 10.40625 48.1875 4.484375 
Q 40.765625 -1.421875 27.09375 -1.421875 
Q 22.515625 -1.421875 17.65625 -0.515625 
Q 12.796875 0.390625 7.625 2.203125 
L 7.625 11.71875 
Q 11.71875 9.328125 16.59375 8.109375 
Q 21.484375 6.890625 26.8125 6.890625 
Q 36.078125 6.890625 40.9375 10.546875 
Q 45.796875 14.203125 45.796875 21.1875 
Q 45.796875 27.640625 41.28125 31.265625 
Q 36.765625 34.90625 28.71875 34.90625 
L 20.21875 34.90625 
L 20.21875 43.015625 
L 29.109375 43.015625 
Q 36.375 43.015625 40.234375 45.921875 
Q 44.09375 48.828125 44.09375 54.296875 
Q 44.09375 59.90625 40.109375 62.90625 
Q 36.140625 65.921875 28.71875 65.921875 
Q 24.65625 65.921875 20.015625 65.03125 
Q 15.375 64.15625 9.8125 62.3125 
L 9.8125 71.09375 
Q 15.4375 72.65625 20.34375 73.4375 
Q 25.25 74.21875 29.59375 74.21875 
Q 40.828125 74.21875 47.359375 69.109375 
Q 53.90625 64.015625 53.90625 55.328125 
Q 53.90625 49.265625 50.4375 45.09375 
Q 46.96875 40.921875 40.578125 39.3125 
z
" id="DejaVuSans-51"/>
      </defs>
      <g transform="translate(259.472071 322.182437)scale(0.1 -0.1)">
       <use xlink:href="#DejaVuSans-51"/>
       <use x="63.623047" xlink:href="#DejaVuSans-48"/>
       <use x="127.246094" xlink:href="#DejaVuSans-48"/>
      </g>
     </g>
    </g>
    <g id="xtick_5">
     <g id="line2d_5">
      <g>
       <use style="stroke:#000000;stroke-width:0.8;" x="334.076852" xlink:href="#m34200beef0" y="307.584"/>
      </g>
     </g>
     <g id="text_5">
      <!-- 400 -->
      <defs>
       <path d="M 37.796875 64.3125 
L 12.890625 25.390625 
L 37.796875 25.390625 
z
M 35.203125 72.90625 
L 47.609375 72.90625 
L 47.609375 25.390625 
L 58.015625 25.390625 
L 58.015625 17.1875 
L 47.609375 17.1875 
L 47.609375 0 
L 37.796875 0 
L 37.796875 17.1875 
L 4.890625 17.1875 
L 4.890625 26.703125 
z
" id="DejaVuSans-52"/>
      </defs>
      <g transform="translate(324.533102 322.182437)scale(0.1 -0.1)">
       <use xlink:href="#DejaVuSans-52"/>
       <use x="63.623047" xlink:href="#DejaVuSans-48"/>
       <use x="127.246094" xlink:href="#DejaVuSans-48"/>
      </g>
     </g>
    </g>
    <g id="xtick_6">
     <g id="line2d_6">
      <g>
       <use style="stroke:#000000;stroke-width:0.8;" x="399.137883" xlink:href="#m34200beef0" y="307.584"/>
      </g>
     </g>
     <g id="text_6">
      <!-- 500 -->
      <defs>
       <path d="M 10.796875 72.90625 
L 49.515625 72.90625 
L 49.515625 64.59375 
L 19.828125 64.59375 
L 19.828125 46.734375 
Q 21.96875 47.46875 24.109375 47.828125 
Q 26.265625 48.1875 28.421875 48.1875 
Q 40.625 48.1875 47.75 41.5 
Q 54.890625 34.8125 54.890625 23.390625 
Q 54.890625 11.625 47.5625 5.09375 
Q 40.234375 -1.421875 26.90625 -1.421875 
Q 22.3125 -1.421875 17.546875 -0.640625 
Q 12.796875 0.140625 7.71875 1.703125 
L 7.71875 11.625 
Q 12.109375 9.234375 16.796875 8.0625 
Q 21.484375 6.890625 26.703125 6.890625 
Q 35.15625 6.890625 40.078125 11.328125 
Q 45.015625 15.765625 45.015625 23.390625 
Q 45.015625 31 40.078125 35.4375 
Q 35.15625 39.890625 26.703125 39.890625 
Q 22.75 39.890625 18.8125 39.015625 
Q 14.890625 38.140625 10.796875 36.28125 
z
" id="DejaVuSans-53"/>
      </defs>
      <g transform="translate(389.594133 322.182437)scale(0.1 -0.1)">
       <use xlink:href="#DejaVuSans-53"/>
       <use x="63.623047" xlink:href="#DejaVuSans-48"/>
       <use x="127.246094" xlink:href="#DejaVuSans-48"/>
      </g>
     </g>
    </g>
    <g id="text_7">
     <!-- Distance from restriction site, b -->
     <defs>
      <path d="M 19.671875 64.796875 
L 19.671875 8.109375 
L 31.59375 8.109375 
Q 46.6875 8.109375 53.6875 14.9375 
Q 60.6875 21.78125 60.6875 36.53125 
Q 60.6875 51.171875 53.6875 57.984375 
Q 46.6875 64.796875 31.59375 64.796875 
z
M 9.8125 72.90625 
L 30.078125 72.90625 
Q 51.265625 72.90625 61.171875 64.09375 
Q 71.09375 55.28125 71.09375 36.53125 
Q 71.09375 17.671875 61.125 8.828125 
Q 51.171875 0 30.078125 0 
L 9.8125 0 
z
" id="DejaVuSans-68"/>
      <path d="M 9.421875 54.6875 
L 18.40625 54.6875 
L 18.40625 0 
L 9.421875 0 
z
M 9.421875 75.984375 
L 18.40625 75.984375 
L 18.40625 64.59375 
L 9.421875 64.59375 
z
" id="DejaVuSans-105"/>
      <path d="M 44.28125 53.078125 
L 44.28125 44.578125 
Q 40.484375 46.53125 36.375 47.5 
Q 32.28125 48.484375 27.875 48.484375 
Q 21.1875 48.484375 17.84375 46.4375 
Q 14.5 44.390625 14.5 40.28125 
Q 14.5 37.15625 16.890625 35.375 
Q 19.28125 33.59375 26.515625 31.984375 
L 29.59375 31.296875 
Q 39.15625 29.25 43.1875 25.515625 
Q 47.21875 21.78125 47.21875 15.09375 
Q 47.21875 7.46875 41.1875 3.015625 
Q 35.15625 -1.421875 24.609375 -1.421875 
Q 20.21875 -1.421875 15.453125 -0.5625 
Q 10.6875 0.296875 5.421875 2 
L 5.421875 11.28125 
Q 10.40625 8.6875 15.234375 7.390625 
Q 20.0625 6.109375 24.8125 6.109375 
Q 31.15625 6.109375 34.5625 8.28125 
Q 37.984375 10.453125 37.984375 14.40625 
Q 37.984375 18.0625 35.515625 20.015625 
Q 33.0625 21.96875 24.703125 23.78125 
L 21.578125 24.515625 
Q 13.234375 26.265625 9.515625 29.90625 
Q 5.8125 33.546875 5.8125 39.890625 
Q 5.8125 47.609375 11.28125 51.796875 
Q 16.75 56 26.8125 56 
Q 31.78125 56 36.171875 55.265625 
Q 40.578125 54.546875 44.28125 53.078125 
z
" id="DejaVuSans-115"/>
      <path d="M 18.3125 70.21875 
L 18.3125 54.6875 
L 36.8125 54.6875 
L 36.8125 47.703125 
L 18.3125 47.703125 
L 18.3125 18.015625 
Q 18.3125 11.328125 20.140625 9.421875 
Q 21.96875 7.515625 27.59375 7.515625 
L 36.8125 7.515625 
L 36.8125 0 
L 27.59375 0 
Q 17.1875 0 13.234375 3.875 
Q 9.28125 7.765625 9.28125 18.015625 
L 9.28125 47.703125 
L 2.6875 47.703125 
L 2.6875 54.6875 
L 9.28125 54.6875 
L 9.28125 70.21875 
z
" id="DejaVuSans-116"/>
      <path d="M 34.28125 27.484375 
Q 23.390625 27.484375 19.1875 25 
Q 14.984375 22.515625 14.984375 16.5 
Q 14.984375 11.71875 18.140625 8.90625 
Q 21.296875 6.109375 26.703125 6.109375 
Q 34.1875 6.109375 38.703125 11.40625 
Q 43.21875 16.703125 43.21875 25.484375 
L 43.21875 27.484375 
z
M 52.203125 31.203125 
L 52.203125 0 
L 43.21875 0 
L 43.21875 8.296875 
Q 40.140625 3.328125 35.546875 0.953125 
Q 30.953125 -1.421875 24.3125 -1.421875 
Q 15.921875 -1.421875 10.953125 3.296875 
Q 6 8.015625 6 15.921875 
Q 6 25.140625 12.171875 29.828125 
Q 18.359375 34.515625 30.609375 34.515625 
L 43.21875 34.515625 
L 43.21875 35.40625 
Q 43.21875 41.609375 39.140625 45 
Q 35.0625 48.390625 27.6875 48.390625 
Q 23 48.390625 18.546875 47.265625 
Q 14.109375 46.140625 10.015625 43.890625 
L 10.015625 52.203125 
Q 14.9375 54.109375 19.578125 55.046875 
Q 24.21875 56 28.609375 56 
Q 40.484375 56 46.34375 49.84375 
Q 52.203125 43.703125 52.203125 31.203125 
z
" id="DejaVuSans-97"/>
      <path d="M 54.890625 33.015625 
L 54.890625 0 
L 45.90625 0 
L 45.90625 32.71875 
Q 45.90625 40.484375 42.875 44.328125 
Q 39.84375 48.1875 33.796875 48.1875 
Q 26.515625 48.1875 22.3125 43.546875 
Q 18.109375 38.921875 18.109375 30.90625 
L 18.109375 0 
L 9.078125 0 
L 9.078125 54.6875 
L 18.109375 54.6875 
L 18.109375 46.1875 
Q 21.34375 51.125 25.703125 53.5625 
Q 30.078125 56 35.796875 56 
Q 45.21875 56 50.046875 50.171875 
Q 54.890625 44.34375 54.890625 33.015625 
z
" id="DejaVuSans-110"/>
      <path d="M 48.78125 52.59375 
L 48.78125 44.1875 
Q 44.96875 46.296875 41.140625 47.34375 
Q 37.3125 48.390625 33.40625 48.390625 
Q 24.65625 48.390625 19.8125 42.84375 
Q 14.984375 37.3125 14.984375 27.296875 
Q 14.984375 17.28125 19.8125 11.734375 
Q 24.65625 6.203125 33.40625 6.203125 
Q 37.3125 6.203125 41.140625 7.25 
Q 44.96875 8.296875 48.78125 10.40625 
L 48.78125 2.09375 
Q 45.015625 0.34375 40.984375 -0.53125 
Q 36.96875 -1.421875 32.421875 -1.421875 
Q 20.0625 -1.421875 12.78125 6.34375 
Q 5.515625 14.109375 5.515625 27.296875 
Q 5.515625 40.671875 12.859375 48.328125 
Q 20.21875 56 33.015625 56 
Q 37.15625 56 41.109375 55.140625 
Q 45.0625 54.296875 48.78125 52.59375 
z
" id="DejaVuSans-99"/>
      <path d="M 56.203125 29.59375 
L 56.203125 25.203125 
L 14.890625 25.203125 
Q 15.484375 15.921875 20.484375 11.0625 
Q 25.484375 6.203125 34.421875 6.203125 
Q 39.59375 6.203125 44.453125 7.46875 
Q 49.3125 8.734375 54.109375 11.28125 
L 54.109375 2.78125 
Q 49.265625 0.734375 44.1875 -0.34375 
Q 39.109375 -1.421875 33.890625 -1.421875 
Q 20.796875 -1.421875 13.15625 6.1875 
Q 5.515625 13.8125 5.515625 26.8125 
Q 5.515625 40.234375 12.765625 48.109375 
Q 20.015625 56 32.328125 56 
Q 43.359375 56 49.78125 48.890625 
Q 56.203125 41.796875 56.203125 29.59375 
z
M 47.21875 32.234375 
Q 47.125 39.59375 43.09375 43.984375 
Q 39.0625 48.390625 32.421875 48.390625 
Q 24.90625 48.390625 20.390625 44.140625 
Q 15.875 39.890625 15.1875 32.171875 
z
" id="DejaVuSans-101"/>
      <path id="DejaVuSans-32"/>
      <path d="M 37.109375 75.984375 
L 37.109375 68.5 
L 28.515625 68.5 
Q 23.6875 68.5 21.796875 66.546875 
Q 19.921875 64.59375 19.921875 59.515625 
L 19.921875 54.6875 
L 34.71875 54.6875 
L 34.71875 47.703125 
L 19.921875 47.703125 
L 19.921875 0 
L 10.890625 0 
L 10.890625 47.703125 
L 2.296875 47.703125 
L 2.296875 54.6875 
L 10.890625 54.6875 
L 10.890625 58.5 
Q 10.890625 67.625 15.140625 71.796875 
Q 19.390625 75.984375 28.609375 75.984375 
z
" id="DejaVuSans-102"/>
      <path d="M 41.109375 46.296875 
Q 39.59375 47.171875 37.8125 47.578125 
Q 36.03125 48 33.890625 48 
Q 26.265625 48 22.1875 43.046875 
Q 18.109375 38.09375 18.109375 28.8125 
L 18.109375 0 
L 9.078125 0 
L 9.078125 54.6875 
L 18.109375 54.6875 
L 18.109375 46.1875 
Q 20.953125 51.171875 25.484375 53.578125 
Q 30.03125 56 36.53125 56 
Q 37.453125 56 38.578125 55.875 
Q 39.703125 55.765625 41.0625 55.515625 
z
" id="DejaVuSans-114"/>
      <path d="M 30.609375 48.390625 
Q 23.390625 48.390625 19.1875 42.75 
Q 14.984375 37.109375 14.984375 27.296875 
Q 14.984375 17.484375 19.15625 11.84375 
Q 23.34375 6.203125 30.609375 6.203125 
Q 37.796875 6.203125 41.984375 11.859375 
Q 46.1875 17.53125 46.1875 27.296875 
Q 46.1875 37.015625 41.984375 42.703125 
Q 37.796875 48.390625 30.609375 48.390625 
z
M 30.609375 56 
Q 42.328125 56 49.015625 48.375 
Q 55.71875 40.765625 55.71875 27.296875 
Q 55.71875 13.875 49.015625 6.21875 
Q 42.328125 -1.421875 30.609375 -1.421875 
Q 18.84375 -1.421875 12.171875 6.21875 
Q 5.515625 13.875 5.515625 27.296875 
Q 5.515625 40.765625 12.171875 48.375 
Q 18.84375 56 30.609375 56 
z
" id="DejaVuSans-111"/>
      <path d="M 52 44.1875 
Q 55.375 50.25 60.0625 53.125 
Q 64.75 56 71.09375 56 
Q 79.640625 56 84.28125 50.015625 
Q 88.921875 44.046875 88.921875 33.015625 
L 88.921875 0 
L 79.890625 0 
L 79.890625 32.71875 
Q 79.890625 40.578125 77.09375 44.375 
Q 74.3125 48.1875 68.609375 48.1875 
Q 61.625 48.1875 57.5625 43.546875 
Q 53.515625 38.921875 53.515625 30.90625 
L 53.515625 0 
L 44.484375 0 
L 44.484375 32.71875 
Q 44.484375 40.625 41.703125 44.40625 
Q 38.921875 48.1875 33.109375 48.1875 
Q 26.21875 48.1875 22.15625 43.53125 
Q 18.109375 38.875 18.109375 30.90625 
L 18.109375 0 
L 9.078125 0 
L 9.078125 54.6875 
L 18.109375 54.6875 
L 18.109375 46.1875 
Q 21.1875 51.21875 25.484375 53.609375 
Q 29.78125 56 35.6875 56 
Q 41.65625 56 45.828125 52.96875 
Q 50 49.953125 52 44.1875 
z
" id="DejaVuSans-109"/>
      <path d="M 11.71875 12.40625 
L 22.015625 12.40625 
L 22.015625 4 
L 14.015625 -11.625 
L 7.71875 -11.625 
L 11.71875 4 
z
" id="DejaVuSans-44"/>
      <path d="M 48.6875 27.296875 
Q 48.6875 37.203125 44.609375 42.84375 
Q 40.53125 48.484375 33.40625 48.484375 
Q 26.265625 48.484375 22.1875 42.84375 
Q 18.109375 37.203125 18.109375 27.296875 
Q 18.109375 17.390625 22.1875 11.75 
Q 26.265625 6.109375 33.40625 6.109375 
Q 40.53125 6.109375 44.609375 11.75 
Q 48.6875 17.390625 48.6875 27.296875 
z
M 18.109375 46.390625 
Q 20.953125 51.265625 25.265625 53.625 
Q 29.59375 56 35.59375 56 
Q 45.5625 56 51.78125 48.09375 
Q 58.015625 40.1875 58.015625 27.296875 
Q 58.015625 14.40625 51.78125 6.484375 
Q 45.5625 -1.421875 35.59375 -1.421875 
Q 29.59375 -1.421875 25.265625 0.953125 
Q 20.953125 3.328125 18.109375 8.203125 
L 18.109375 0 
L 9.078125 0 
L 9.078125 75.984375 
L 18.109375 75.984375 
z
" id="DejaVuSans-98"/>
     </defs>
     <g transform="translate(156.937344 335.860562)scale(0.1 -0.1)">
      <use xlink:href="#DejaVuSans-68"/>
      <use x="77.001953" xlink:href="#DejaVuSans-105"/>
      <use x="104.785156" xlink:href="#DejaVuSans-115"/>
      <use x="156.884766" xlink:href="#DejaVuSans-116"/>
      <use x="196.09375" xlink:href="#DejaVuSans-97"/>
      <use x="257.373047" xlink:href="#DejaVuSans-110"/>
      <use x="320.751953" xlink:href="#DejaVuSans-99"/>
      <use x="375.732422" xlink:href="#DejaVuSans-101"/>
      <use x="437.255859" xlink:href="#DejaVuSans-32"/>
      <use x="469.042969" xlink:href="#DejaVuSans-102"/>
      <use x="504.248047" xlink:href="#DejaVuSans-114"/>
      <use x="545.330078" xlink:href="#DejaVuSans-111"/>
      <use x="606.511719" xlink:href="#DejaVuSans-109"/>
      <use x="703.923828" xlink:href="#DejaVuSans-32"/>
      <use x="735.710938" xlink:href="#DejaVuSans-114"/>
      <use x="776.792969" xlink:href="#DejaVuSans-101"/>
      <use x="838.316406" xlink:href="#DejaVuSans-115"/>
      <use x="890.416016" xlink:href="#DejaVuSans-116"/>
      <use x="929.625" xlink:href="#DejaVuSans-114"/>
      <use x="970.738281" xlink:href="#DejaVuSans-105"/>
      <use x="998.521484" xlink:href="#DejaVuSans-99"/>
      <use x="1053.501953" xlink:href="#DejaVuSans-116"/>
      <use x="1092.710938" xlink:href="#DejaVuSans-105"/>
      <use x="1120.494141" xlink:href="#DejaVuSans-111"/>
      <use x="1181.675781" xlink:href="#DejaVuSans-110"/>
      <use x="1245.054688" xlink:href="#DejaVuSans-32"/>
      <use x="1276.841797" xlink:href="#DejaVuSans-115"/>
      <use x="1328.941406" xlink:href="#DejaVuSans-105"/>
      <use x="1356.724609" xlink:href="#DejaVuSans-116"/>
      <use x="1395.933594" xlink:href="#DejaVuSans-101"/>
      <use x="1457.457031" xlink:href="#DejaVuSans-44"/>
      <use x="1489.244141" xlink:href="#DejaVuSans-32"/>
      <use x="1521.03125" xlink:href="#DejaVuSans-98"/>
     </g>
    </g>
   </g>
   <g id="matplotlib.axis_2">
    <g id="ytick_1">
     <g id="line2d_7">
      <defs>
       <path d="M 0 0 
L -3.5 0 
" id="m2b61380e38" style="stroke:#000000;stroke-width:0.8;"/>
      </defs>
      <g>
       <use style="stroke:#000000;stroke-width:0.8;" x="57.6" xlink:href="#m2b61380e38" y="209.382542"/>
      </g>
     </g>
     <g id="text_8">
      <!-- $\mathdefault{10^{1}}$ -->
      <g transform="translate(33 213.18176)scale(0.1 -0.1)">
       <use transform="translate(0 0.684375)" xlink:href="#DejaVuSans-49"/>
       <use transform="translate(63.623047 0.684375)" xlink:href="#DejaVuSans-48"/>
       <use transform="translate(128.203125 38.965625)scale(0.7)" xlink:href="#DejaVuSans-49"/>
      </g>
     </g>
    </g>
    <g id="ytick_2">
     <g id="line2d_8">
      <g>
       <use style="stroke:#000000;stroke-width:0.8;" x="57.6" xlink:href="#m2b61380e38" y="52.275534"/>
      </g>
     </g>
     <g id="text_9">
      <!-- $\mathdefault{10^{2}}$ -->
      <g transform="translate(33 56.074753)scale(0.1 -0.1)">
       <use transform="translate(0 0.765625)" xlink:href="#DejaVuSans-49"/>
       <use transform="translate(63.623047 0.765625)" xlink:href="#DejaVuSans-48"/>
       <use transform="translate(128.203125 39.046875)scale(0.7)" xlink:href="#DejaVuSans-50"/>
      </g>
     </g>
    </g>
    <g id="ytick_3">
     <g id="line2d_9">
      <defs>
       <path d="M 0 0 
L -2 0 
" id="md70912508b" style="stroke:#000000;stroke-width:0.6;"/>
      </defs>
      <g>
       <use style="stroke:#000000;stroke-width:0.6;" x="57.6" xlink:href="#md70912508b" y="291.530457"/>
      </g>
     </g>
    </g>
    <g id="ytick_4">
     <g id="line2d_10">
      <g>
       <use style="stroke:#000000;stroke-width:0.6;" x="57.6" xlink:href="#md70912508b" y="271.901706"/>
      </g>
     </g>
    </g>
    <g id="ytick_5">
     <g id="line2d_11">
      <g>
       <use style="stroke:#000000;stroke-width:0.6;" x="57.6" xlink:href="#md70912508b" y="256.676463"/>
      </g>
     </g>
    </g>
    <g id="ytick_6">
     <g id="line2d_12">
      <g>
       <use style="stroke:#000000;stroke-width:0.6;" x="57.6" xlink:href="#md70912508b" y="244.236535"/>
      </g>
     </g>
    </g>
    <g id="ytick_7">
     <g id="line2d_13">
      <g>
       <use style="stroke:#000000;stroke-width:0.6;" x="57.6" xlink:href="#md70912508b" y="233.718725"/>
      </g>
     </g>
    </g>
    <g id="ytick_8">
     <g id="line2d_14">
      <g>
       <use style="stroke:#000000;stroke-width:0.6;" x="57.6" xlink:href="#md70912508b" y="224.607784"/>
      </g>
     </g>
    </g>
    <g id="ytick_9">
     <g id="line2d_15">
      <g>
       <use style="stroke:#000000;stroke-width:0.6;" x="57.6" xlink:href="#md70912508b" y="216.571364"/>
      </g>
     </g>
    </g>
    <g id="ytick_10">
     <g id="line2d_16">
      <g>
       <use style="stroke:#000000;stroke-width:0.6;" x="57.6" xlink:href="#md70912508b" y="162.08862"/>
      </g>
     </g>
    </g>
    <g id="ytick_11">
     <g id="line2d_17">
      <g>
       <use style="stroke:#000000;stroke-width:0.6;" x="57.6" xlink:href="#md70912508b" y="134.423449"/>
      </g>
     </g>
    </g>
    <g id="ytick_12">
     <g id="line2d_18">
      <g>
       <use style="stroke:#000000;stroke-width:0.6;" x="57.6" xlink:href="#md70912508b" y="114.794698"/>
      </g>
     </g>
    </g>
    <g id="ytick_13">
     <g id="line2d_19">
      <g>
       <use style="stroke:#000000;stroke-width:0.6;" x="57.6" xlink:href="#md70912508b" y="99.569456"/>
      </g>
     </g>
    </g>
    <g id="ytick_14">
     <g id="line2d_20">
      <g>
       <use style="stroke:#000000;stroke-width:0.6;" x="57.6" xlink:href="#md70912508b" y="87.129527"/>
      </g>
     </g>
    </g>
    <g id="ytick_15">
     <g id="line2d_21">
      <g>
       <use style="stroke:#000000;stroke-width:0.6;" x="57.6" xlink:href="#md70912508b" y="76.611717"/>
      </g>
     </g>
    </g>
    <g id="ytick_16">
     <g id="line2d_22">
      <g>
       <use style="stroke:#000000;stroke-width:0.6;" x="57.6" xlink:href="#md70912508b" y="67.500776"/>
      </g>
     </g>
    </g>
    <g id="ytick_17">
     <g id="line2d_23">
      <g>
       <use style="stroke:#000000;stroke-width:0.6;" x="57.6" xlink:href="#md70912508b" y="59.464356"/>
      </g>
     </g>
    </g>
    <g id="text_10">
     <!-- Depth average -->
     <defs>
      <path d="M 18.109375 8.203125 
L 18.109375 -20.796875 
L 9.078125 -20.796875 
L 9.078125 54.6875 
L 18.109375 54.6875 
L 18.109375 46.390625 
Q 20.953125 51.265625 25.265625 53.625 
Q 29.59375 56 35.59375 56 
Q 45.5625 56 51.78125 48.09375 
Q 58.015625 40.1875 58.015625 27.296875 
Q 58.015625 14.40625 51.78125 6.484375 
Q 45.5625 -1.421875 35.59375 -1.421875 
Q 29.59375 -1.421875 25.265625 0.953125 
Q 20.953125 3.328125 18.109375 8.203125 
z
M 48.6875 27.296875 
Q 48.6875 37.203125 44.609375 42.84375 
Q 40.53125 48.484375 33.40625 48.484375 
Q 26.265625 48.484375 22.1875 42.84375 
Q 18.109375 37.203125 18.109375 27.296875 
Q 18.109375 17.390625 22.1875 11.75 
Q 26.265625 6.109375 33.40625 6.109375 
Q 40.53125 6.109375 44.609375 11.75 
Q 48.6875 17.390625 48.6875 27.296875 
z
" id="DejaVuSans-112"/>
      <path d="M 54.890625 33.015625 
L 54.890625 0 
L 45.90625 0 
L 45.90625 32.71875 
Q 45.90625 40.484375 42.875 44.328125 
Q 39.84375 48.1875 33.796875 48.1875 
Q 26.515625 48.1875 22.3125 43.546875 
Q 18.109375 38.921875 18.109375 30.90625 
L 18.109375 0 
L 9.078125 0 
L 9.078125 75.984375 
L 18.109375 75.984375 
L 18.109375 46.1875 
Q 21.34375 51.125 25.703125 53.5625 
Q 30.078125 56 35.796875 56 
Q 45.21875 56 50.046875 50.171875 
Q 54.890625 44.34375 54.890625 33.015625 
z
" id="DejaVuSans-104"/>
      <path d="M 2.984375 54.6875 
L 12.5 54.6875 
L 29.59375 8.796875 
L 46.6875 54.6875 
L 56.203125 54.6875 
L 35.6875 0 
L 23.484375 0 
z
" id="DejaVuSans-118"/>
      <path d="M 45.40625 27.984375 
Q 45.40625 37.75 41.375 43.109375 
Q 37.359375 48.484375 30.078125 48.484375 
Q 22.859375 48.484375 18.828125 43.109375 
Q 14.796875 37.75 14.796875 27.984375 
Q 14.796875 18.265625 18.828125 12.890625 
Q 22.859375 7.515625 30.078125 7.515625 
Q 37.359375 7.515625 41.375 12.890625 
Q 45.40625 18.265625 45.40625 27.984375 
z
M 54.390625 6.78125 
Q 54.390625 -7.171875 48.1875 -13.984375 
Q 42 -20.796875 29.203125 -20.796875 
Q 24.46875 -20.796875 20.265625 -20.09375 
Q 16.0625 -19.390625 12.109375 -17.921875 
L 12.109375 -9.1875 
Q 16.0625 -11.328125 19.921875 -12.34375 
Q 23.78125 -13.375 27.78125 -13.375 
Q 36.625 -13.375 41.015625 -8.765625 
Q 45.40625 -4.15625 45.40625 5.171875 
L 45.40625 9.625 
Q 42.625 4.78125 38.28125 2.390625 
Q 33.9375 0 27.875 0 
Q 17.828125 0 11.671875 7.65625 
Q 5.515625 15.328125 5.515625 27.984375 
Q 5.515625 40.671875 11.671875 48.328125 
Q 17.828125 56 27.875 56 
Q 33.9375 56 38.28125 53.609375 
Q 42.625 51.21875 45.40625 46.390625 
L 45.40625 54.6875 
L 54.390625 54.6875 
z
" id="DejaVuSans-103"/>
     </defs>
     <g transform="translate(26.920312 211.817062)rotate(-90)scale(0.1 -0.1)">
      <use xlink:href="#DejaVuSans-68"/>
      <use x="77.001953" xlink:href="#DejaVuSans-101"/>
      <use x="138.525391" xlink:href="#DejaVuSans-112"/>
      <use x="202.001953" xlink:href="#DejaVuSans-116"/>
      <use x="241.210938" xlink:href="#DejaVuSans-104"/>
      <use x="304.589844" xlink:href="#DejaVuSans-32"/>
      <use x="336.376953" xlink:href="#DejaVuSans-97"/>
      <use x="397.65625" xlink:href="#DejaVuSans-118"/>
      <use x="456.835938" xlink:href="#DejaVuSans-101"/>
      <use x="518.359375" xlink:href="#DejaVuSans-114"/>
      <use x="559.472656" xlink:href="#DejaVuSans-97"/>
      <use x="620.751953" xlink:href="#DejaVuSans-103"/>
      <use x="684.228516" xlink:href="#DejaVuSans-101"/>
     </g>
    </g>
   </g>
   <g id="line2d_24">
    <path clip-path="url(#pe5d56c4053)" d="M 73.832727 136.350841 
L 74.483338 59.113531 
L 75.784558 58.621089 
L 77.085779 58.009637 
L 77.736389 57.309261 
L 78.386999 56.339935 
L 80.989441 54.288109 
L 82.941272 53.721454 
L 83.591882 53.568 
L 84.893103 53.597618 
L 85.543713 54.04462 
L 86.194323 53.985302 
L 88.146154 54.205791 
L 90.097985 54.912577 
L 90.748595 54.888073 
L 93.351037 56.198736 
L 94.001647 56.88617 
L 94.652257 57.151875 
L 95.302868 58.04538 
L 97.254698 59.724802 
L 98.555919 60.198741 
L 99.206529 60.291043 
L 100.50775 60.849833 
L 101.15836 60.832026 
L 103.110191 61.797577 
L 104.411412 61.873962 
L 105.062022 62.150177 
L 105.712633 62.628639 
L 106.363243 62.863727 
L 107.013853 63.516882 
L 107.664463 63.694913 
L 110.266905 65.064011 
L 110.917515 65.406249 
L 112.218736 66.715971 
L 112.869346 67.236651 
L 114.821177 68.400458 
L 116.122398 69.525453 
L 117.423618 70.61121 
L 118.074228 71.901803 
L 120.026059 74.587971 
L 120.67667 75.288356 
L 122.628501 76.54029 
L 123.929721 77.590578 
L 124.580332 79.169666 
L 127.833383 81.448811 
L 129.785214 84.179638 
L 131.737045 87.734566 
L 132.387655 88.79905 
L 134.339486 90.666839 
L 135.640707 93.06615 
L 136.291317 93.544892 
L 136.941927 95.761196 
L 137.592538 96.392703 
L 138.893758 98.923833 
L 139.544369 99.77053 
L 140.194979 101.697418 
L 140.845589 102.668708 
L 141.4962 104.52264 
L 142.14681 105.613121 
L 144.098641 107.738989 
L 144.749251 108.341646 
L 145.399862 109.15523 
L 146.701082 111.344457 
L 147.351692 112.067061 
L 148.002303 113.59829 
L 148.652913 114.389117 
L 149.303523 116.769903 
L 150.604744 118.426573 
L 151.255354 119.456618 
L 153.207185 122.01426 
L 153.857796 123.176536 
L 155.809627 125.594209 
L 159.062678 130.390591 
L 160.363899 133.572155 
L 161.014509 134.523307 
L 163.61695 139.432107 
L 166.219392 141.835518 
L 167.520612 143.05048 
L 168.821833 144.054212 
L 169.472443 154.239267 
L 170.123053 155.322911 
L 170.773664 156.082508 
L 173.376105 158.231121 
L 174.677326 160.438129 
L 176.629156 163.01124 
L 177.279767 164.571301 
L 180.532818 167.985422 
L 181.834039 168.92775 
L 184.43648 172.018312 
L 185.087091 173.089056 
L 185.737701 173.862385 
L 187.689532 175.632643 
L 188.340142 176.5765 
L 190.942583 178.982418 
L 191.593194 179.366974 
L 192.894414 181.011824 
L 193.545025 181.214352 
L 194.846245 182.480458 
L 195.496856 182.936622 
L 197.448686 185.16676 
L 199.400517 187.093646 
L 200.701738 189.105284 
L 202.002959 190.4024 
L 203.304179 191.613431 
L 204.6054 193.079736 
L 207.207841 195.262946 
L 208.509062 196.447689 
L 209.159672 196.791507 
L 209.810282 197.290971 
L 211.111503 199.658219 
L 211.762113 200.385329 
L 212.412724 200.821551 
L 213.063334 201.970208 
L 214.364555 203.800249 
L 215.015165 204.281859 
L 215.665775 204.941934 
L 216.316385 205.230055 
L 216.966996 205.806677 
L 218.918827 208.233729 
L 219.569437 208.965273 
L 220.220047 209.222626 
L 221.521268 210.496534 
L 224.123709 212.314742 
L 224.77432 213.687102 
L 225.42493 214.317265 
L 226.72615 216.479457 
L 228.027371 217.76022 
L 228.677981 218.879019 
L 229.979202 222.370198 
L 232.581643 225.066044 
L 233.232254 225.394607 
L 233.882864 227.185287 
L 234.533474 227.743213 
L 235.184085 228.083974 
L 236.485305 229.496852 
L 237.135915 229.98152 
L 240.388967 233.250297 
L 241.039577 234.011354 
L 242.340798 235.900112 
L 243.642019 237.194172 
L 244.292629 237.994082 
L 246.24446 239.313551 
L 248.196291 240.343162 
L 248.846901 241.496146 
L 250.148122 242.522129 
L 251.449342 247.79389 
L 252.099953 248.256443 
L 253.401173 250.190339 
L 254.702394 251.002898 
L 255.353004 251.367624 
L 256.654225 252.367515 
L 257.955445 253.143701 
L 259.907276 254.736344 
L 260.557887 255.123929 
L 261.208497 256.396079 
L 261.859107 257.332184 
L 262.509718 257.680509 
L 263.160328 258.233137 
L 263.810938 258.932938 
L 265.112159 259.702673 
L 265.762769 260.675281 
L 266.413379 260.99826 
L 267.06399 261.140223 
L 269.666431 263.39366 
L 270.317041 263.672483 
L 270.967652 264.254034 
L 271.618262 265.127224 
L 272.919483 266.098465 
L 274.220703 266.88411 
L 274.871314 267.125663 
L 275.521924 267.496935 
L 276.172534 268.056456 
L 277.473755 268.831866 
L 278.124365 269.371662 
L 278.774975 269.669731 
L 279.425586 270.315574 
L 280.726806 270.902753 
L 281.377417 271.56201 
L 282.678637 272.152842 
L 283.329248 272.683109 
L 283.979858 272.650263 
L 285.281079 273.084595 
L 285.931689 273.478546 
L 286.582299 273.708325 
L 287.232909 274.53489 
L 287.88352 274.801001 
L 288.53413 275.218436 
L 289.18474 276.401536 
L 289.835351 276.624502 
L 290.485961 277.285268 
L 291.136571 277.616394 
L 291.787182 278.170251 
L 293.739013 280.39611 
L 294.389623 280.895067 
L 295.040233 280.666147 
L 295.690844 280.870437 
L 296.341454 280.790887 
L 297.642674 281.57215 
L 298.293285 281.614449 
L 298.943895 281.918792 
L 301.546336 282.708187 
L 302.196947 282.558411 
L 302.847557 282.588819 
L 303.498167 282.258264 
L 304.148778 282.133428 
L 305.449998 282.539664 
L 306.100608 282.595474 
L 306.751219 283.034475 
L 308.70305 283.275257 
L 309.35366 283.513475 
L 310.00427 283.561095 
L 311.305491 284.415333 
L 313.907932 284.571659 
L 314.558543 284.435254 
L 315.209153 285.099051 
L 315.859763 285.337391 
L 316.510373 285.417584 
L 317.811594 285.928317 
L 318.462204 286.780769 
L 319.112815 286.972748 
L 320.414035 287.094815 
L 322.365866 287.521952 
L 323.016477 289.13971 
L 324.317697 289.522139 
L 324.968308 289.437703 
L 325.618918 288.203273 
L 326.269528 288.362534 
L 326.920138 288.721624 
L 327.570749 288.516671 
L 328.871969 288.429299 
L 329.52258 289.978135 
L 330.17319 290.198854 
L 330.8238 290.71621 
L 331.474411 290.772953 
L 332.775631 290.539989 
L 333.426242 290.683846 
L 334.727462 291.226149 
L 335.378073 290.820942 
L 336.028683 290.875553 
L 337.329903 290.281809 
L 337.980514 290.404116 
L 339.281734 290.961437 
L 339.932345 291.634919 
L 340.582955 291.80333 
L 341.233565 291.65738 
L 341.884176 291.296075 
L 342.534786 291.196569 
L 343.836007 290.468957 
L 344.486617 290.290347 
L 345.137227 290.359978 
L 345.787837 290.036456 
L 348.390279 288.246717 
L 349.040889 288.176716 
L 349.691499 287.845436 
L 351.64333 287.492961 
L 352.293941 287.136549 
L 352.944551 286.990793 
L 354.245772 291.426761 
L 354.896382 291.570874 
L 355.546992 291.496107 
L 358.800044 291.71202 
L 359.450654 291.658879 
L 360.101264 291.400415 
L 360.751875 291.397121 
L 361.402485 295.245769 
L 362.053095 295.091758 
L 363.354316 295.488 
L 364.004926 294.930202 
L 364.655537 294.836142 
L 365.306147 294.597481 
L 365.956757 294.64232 
L 366.607367 294.161098 
L 367.908588 293.68497 
L 368.559198 293.570013 
L 370.511029 292.950891 
L 371.16164 293.205477 
L 371.81225 293.598835 
L 373.113471 293.907853 
L 374.414691 294.793895 
L 375.065302 294.661712 
L 375.715912 294.316655 
L 376.366522 294.129511 
L 377.017132 293.129447 
L 377.667743 293.112047 
L 378.968963 293.721083 
L 380.270184 293.917858 
L 381.571405 293.310541 
L 382.222015 293.025203 
L 382.872625 292.54629 
L 383.523236 292.285436 
L 384.173846 291.659116 
L 384.824456 291.996049 
L 385.475066 291.977994 
L 386.125677 291.35741 
L 387.426897 290.888413 
L 388.077508 290.67795 
L 389.378728 290.570815 
L 390.029339 291.395889 
L 390.679949 291.20761 
L 391.98117 291.273684 
L 392.63178 291.163522 
L 393.28239 290.872906 
L 393.933001 290.437394 
L 395.234221 290.21951 
L 395.884831 290.055217 
L 396.535442 289.742623 
L 397.186052 289.745516 
L 397.836662 290.512046 
L 398.487273 290.123739 
L 398.487273 290.123739 
" style="fill:none;stroke:#1f77b4;stroke-linecap:square;stroke-width:1.5;"/>
   </g>
   <g id="line2d_25">
    <path clip-path="url(#pe5d56c4053)" d="M 73.832727 121.46133 
L 74.483338 121.552104 
L 75.133948 121.106185 
L 76.435169 121.383467 
L 77.085779 121.685622 
L 77.736389 121.432981 
L 78.386999 121.059042 
L 79.03761 120.341618 
L 79.68822 119.957617 
L 80.989441 120.034905 
L 82.941272 120.363794 
L 83.591882 120.342427 
L 84.893103 120.460527 
L 85.543713 121.930238 
L 86.194323 122.234557 
L 88.146154 122.076532 
L 88.796764 122.392324 
L 90.097985 123.52663 
L 90.748595 123.57551 
L 91.399206 124.267304 
L 92.049816 124.622385 
L 92.700426 124.791519 
L 93.351037 125.84469 
L 94.001647 126.462057 
L 94.652257 126.886168 
L 95.302868 129.514862 
L 95.953478 131.15114 
L 96.604088 132.36448 
L 97.254698 132.94681 
L 98.555919 132.824893 
L 99.206529 132.668428 
L 99.85714 132.708412 
L 101.808971 133.243864 
L 102.459581 133.260974 
L 104.411412 132.717913 
L 105.062022 132.61193 
L 105.712633 132.997335 
L 106.363243 133.170253 
L 107.013853 133.50106 
L 109.616294 133.540594 
L 110.266905 133.431149 
L 111.568125 133.973107 
L 112.218736 133.839144 
L 114.170567 134.49667 
L 116.773008 135.082294 
L 117.423618 135.596992 
L 118.074228 136.514688 
L 119.375449 137.377185 
L 120.026059 137.953843 
L 120.67667 138.28463 
L 121.32728 138.305799 
L 121.97789 138.073885 
L 122.628501 138.14664 
L 123.929721 137.921061 
L 124.580332 138.402437 
L 125.230942 138.160481 
L 125.881552 138.285416 
L 127.182773 138.202912 
L 127.833383 137.984744 
L 129.134604 138.810181 
L 129.785214 138.663525 
L 131.086435 139.254527 
L 131.737045 139.64482 
L 132.387655 140.276875 
L 133.038266 140.402429 
L 134.990097 139.963754 
L 135.640707 139.975518 
L 136.291317 139.712986 
L 136.941927 140.386083 
L 137.592538 140.25778 
L 138.243148 140.657617 
L 138.893758 141.207849 
L 139.544369 141.294488 
L 140.194979 141.89623 
L 140.845589 141.562323 
L 141.4962 142.262342 
L 143.448031 141.91678 
L 144.098641 141.94324 
L 144.749251 141.615184 
L 145.399862 141.57383 
L 146.701082 142.270576 
L 147.351692 142.285549 
L 148.002303 143.385783 
L 148.652913 143.370839 
L 149.303523 143.180604 
L 151.255354 143.446292 
L 151.905965 143.204762 
L 153.857796 143.251124 
L 154.508406 143.426471 
L 155.159016 143.246871 
L 155.809627 142.940425 
L 156.460237 142.938299 
L 157.110847 143.26733 
L 157.761457 143.350316 
L 158.412068 143.316206 
L 159.062678 143.404011 
L 159.713288 143.932681 
L 160.363899 144.733352 
L 161.014509 144.80879 
L 162.96634 146.338971 
L 163.61695 146.488679 
L 164.267561 146.477028 
L 164.918171 148.265862 
L 165.568781 148.62007 
L 166.219392 149.155788 
L 167.520612 149.290037 
L 170.123053 149.181127 
L 170.773664 149.314382 
L 172.074884 149.035961 
L 173.376105 148.475077 
L 174.026715 149.199432 
L 174.677326 149.670864 
L 175.978546 149.76763 
L 176.629156 149.96475 
L 177.279767 150.642468 
L 178.580987 150.701287 
L 179.231598 150.640879 
L 179.882208 150.889502 
L 181.183429 150.67632 
L 181.834039 150.885248 
L 182.484649 150.915889 
L 183.13526 151.108396 
L 183.78587 150.983066 
L 184.43648 151.048937 
L 185.087091 151.308478 
L 185.737701 151.10217 
L 186.388311 151.069207 
L 187.038921 150.49254 
L 187.689532 150.211929 
L 188.340142 150.489118 
L 188.990752 150.370701 
L 189.641363 150.385938 
L 190.291973 150.1309 
L 191.593194 149.990482 
L 192.243804 150.380335 
L 192.894414 150.546934 
L 193.545025 150.349075 
L 194.195635 150.295518 
L 194.846245 150.091855 
L 196.147466 150.225033 
L 196.798076 150.504445 
L 197.448686 150.532298 
L 198.749907 150.389444 
L 199.400517 150.554587 
L 200.051128 151.732959 
L 200.701738 152.575292 
L 202.002959 152.832038 
L 202.653569 152.56444 
L 203.304179 152.693625 
L 206.557231 152.711079 
L 207.858451 152.600702 
L 209.159672 152.525053 
L 209.810282 152.379352 
L 210.460893 153.259627 
L 211.111503 153.406598 
L 211.762113 153.093501 
L 212.412724 152.626885 
L 213.063334 153.128499 
L 213.713944 153.466983 
L 214.364555 153.204042 
L 215.015165 153.215758 
L 217.617606 152.747251 
L 218.268216 153.067034 
L 218.918827 152.966866 
L 219.569437 153.319581 
L 220.870658 153.632359 
L 221.521268 153.55689 
L 222.171878 153.11112 
L 222.822489 153.039907 
L 223.473099 152.556832 
L 224.77432 152.42513 
L 225.42493 152.588083 
L 226.07554 153.215975 
L 226.72615 154.314374 
L 227.376761 155.080005 
L 228.027371 155.244659 
L 229.328592 157.039599 
L 229.979202 158.322795 
L 230.629812 158.223649 
L 231.280423 158.484577 
L 232.581643 158.405205 
L 233.232254 157.49635 
L 233.882864 158.425529 
L 234.533474 157.904509 
L 235.184085 157.726493 
L 235.834695 157.943491 
L 236.485305 157.928142 
L 237.135915 157.720925 
L 237.786526 157.812754 
L 238.437136 157.786839 
L 239.087746 158.04213 
L 239.738357 158.420644 
L 240.388967 158.200945 
L 241.039577 158.211304 
L 242.340798 159.660367 
L 242.991408 159.925082 
L 243.642019 160.041212 
L 244.292629 161.210285 
L 246.24446 160.821265 
L 246.89507 160.937694 
L 248.196291 160.976384 
L 248.846901 161.17692 
L 250.148122 161.14754 
L 250.798732 161.203263 
L 251.449342 161.444458 
L 252.099953 161.554291 
L 252.750563 161.989653 
L 253.401173 162.275807 
L 254.051784 162.725528 
L 254.702394 162.554459 
L 255.353004 162.624656 
L 256.003615 162.549374 
L 257.304835 163.0246 
L 257.955445 162.713772 
L 258.606056 162.921701 
L 259.256666 162.942635 
L 259.907276 163.111751 
L 260.557887 163.138106 
L 261.859107 165.303546 
L 262.509718 165.627546 
L 263.160328 166.617119 
L 263.810938 166.71183 
L 264.461549 167.04956 
L 265.112159 166.787592 
L 266.413379 167.205183 
L 267.06399 167.021562 
L 267.7146 167.318794 
L 269.015821 168.747161 
L 269.666431 169.060422 
L 272.268872 169.588831 
L 272.919483 169.612586 
L 273.570093 169.756701 
L 274.220703 169.740334 
L 274.871314 169.975316 
L 275.521924 170.050768 
L 276.823144 169.586754 
L 277.473755 169.627666 
L 278.124365 170.613251 
L 279.425586 170.795984 
L 280.076196 170.791789 
L 280.726806 170.572011 
L 282.028027 170.666568 
L 283.329248 171.088046 
L 283.979858 171.301702 
L 284.630468 171.185515 
L 285.281079 171.46945 
L 285.931689 171.476677 
L 286.582299 172.017694 
L 287.232909 172.318214 
L 287.88352 172.371052 
L 288.53413 172.63477 
L 289.18474 172.644485 
L 289.835351 172.857842 
L 290.485961 172.862673 
L 291.136571 173.111346 
L 292.437792 175.266973 
L 293.739013 175.754937 
L 295.690844 175.71233 
L 296.992064 176.217311 
L 297.642674 175.900523 
L 298.293285 176.052278 
L 298.943895 175.917411 
L 299.594505 175.931055 
L 300.245116 175.699133 
L 300.895726 175.739904 
L 301.546336 175.907404 
L 302.196947 175.813504 
L 302.847557 175.509159 
L 304.148778 175.451829 
L 306.100608 175.340289 
L 307.401829 175.594756 
L 308.052439 176.209377 
L 308.70305 176.397297 
L 309.35366 176.730049 
L 310.00427 176.919431 
L 310.654881 176.88529 
L 311.956101 177.187133 
L 312.606712 177.327348 
L 313.257322 177.178353 
L 313.907932 177.179098 
L 314.558543 177.443663 
L 315.209153 177.301595 
L 315.859763 177.452534 
L 316.510373 177.107374 
L 317.160984 177.226892 
L 317.811594 177.088854 
L 318.462204 177.183626 
L 321.064646 176.563702 
L 322.365866 177.103637 
L 323.016477 178.193476 
L 323.667087 178.124296 
L 324.968308 177.685618 
L 325.618918 177.189813 
L 326.269528 177.26993 
L 326.920138 178.057303 
L 327.570749 177.999654 
L 328.221359 178.249874 
L 328.871969 179.477271 
L 329.52258 180.261913 
L 330.8238 180.642661 
L 332.125021 180.557709 
L 333.426242 181.275964 
L 334.076852 181.342993 
L 334.727462 181.278826 
L 335.378073 180.809992 
L 336.028683 180.924428 
L 336.679293 180.835398 
L 337.329903 180.597356 
L 337.980514 180.560371 
L 338.631124 180.81418 
L 339.281734 180.798956 
L 339.932345 180.987683 
L 341.233565 181.048206 
L 341.884176 180.594965 
L 343.185396 180.984197 
L 343.836007 180.646359 
L 344.486617 179.2605 
L 345.787837 178.532297 
L 346.438448 178.047556 
L 347.089058 177.411627 
L 348.390279 177.075266 
L 349.691499 176.157299 
L 350.34211 176.168902 
L 351.64333 176.49248 
L 352.293941 176.297996 
L 352.944551 175.952943 
L 353.595161 176.982543 
L 354.245772 178.809539 
L 354.896382 179.037101 
L 355.546992 179.120183 
L 356.197602 179.023925 
L 356.848213 179.562652 
L 357.498823 179.40916 
L 358.149433 179.622342 
L 358.800044 179.610051 
L 361.402485 179.157602 
L 362.053095 179.322307 
L 364.004926 179.425734 
L 364.655537 179.519103 
L 365.306147 180.264439 
L 365.956757 180.355243 
L 366.607367 180.573207 
L 367.908588 180.374801 
L 368.559198 180.296158 
L 370.511029 180.706688 
L 371.16164 180.726021 
L 372.46286 182.719446 
L 373.113471 182.681154 
L 374.414691 183.84111 
L 376.366522 184.438285 
L 377.017132 184.320395 
L 377.667743 183.989606 
L 378.318353 183.830687 
L 379.619574 184.324523 
L 380.270184 185.16566 
L 380.920794 185.391783 
L 382.222015 185.075738 
L 382.872625 185.266954 
L 383.523236 185.816288 
L 384.173846 185.927121 
L 384.824456 186.451022 
L 385.475066 186.285176 
L 386.125677 186.527196 
L 386.776287 186.199502 
L 387.426897 186.03057 
L 388.728118 186.128894 
L 390.029339 186.101668 
L 391.330559 185.859625 
L 391.98117 185.535583 
L 393.28239 185.646015 
L 393.933001 185.827928 
L 394.583611 186.142369 
L 395.234221 186.278897 
L 395.884831 185.832986 
L 396.535442 185.952188 
L 397.186052 186.248879 
L 397.836662 186.734633 
L 398.487273 186.945647 
L 398.487273 186.945647 
" style="fill:none;stroke:#ff7f0e;stroke-linecap:square;stroke-width:1.5;"/>
   </g>
   <g id="patch_3">
    <path d="M 57.6 307.584 
L 57.6 41.472 
" style="fill:none;stroke:#000000;stroke-linecap:square;stroke-linejoin:miter;stroke-width:0.8;"/>
   </g>
   <g id="patch_4">
    <path d="M 414.72 307.584 
L 414.72 41.472 
" style="fill:none;stroke:#000000;stroke-linecap:square;stroke-linejoin:miter;stroke-width:0.8;"/>
   </g>
   <g id="patch_5">
    <path d="M 57.6 307.584 
L 414.72 307.584 
" style="fill:none;stroke:#000000;stroke-linecap:square;stroke-linejoin:miter;stroke-width:0.8;"/>
   </g>
   <g id="patch_6">
    <path d="M 57.6 41.472 
L 414.72 41.472 
" style="fill:none;stroke:#000000;stroke-linecap:square;stroke-linejoin:miter;stroke-width:0.8;"/>
   </g>
   <g id="legend_1">
    <g id="patch_7">
     <path d="M 283.105938 78.82825 
L 407.72 78.82825 
Q 409.72 78.82825 409.72 76.82825 
L 409.72 48.472 
Q 409.72 46.472 407.72 46.472 
L 283.105938 46.472 
Q 281.105938 46.472 281.105938 48.472 
L 281.105938 76.82825 
Q 281.105938 78.82825 283.105938 78.82825 
z
" style="fill:#ffffff;opacity:0.8;stroke:#cccccc;stroke-linejoin:miter;"/>
    </g>
    <g id="line2d_26">
     <path d="M 285.105938 54.570437 
L 305.105938 54.570437 
" style="fill:none;stroke:#1f77b4;stroke-linecap:square;stroke-width:1.5;"/>
    </g>
    <g id="line2d_27"/>
    <g id="text_11">
     <!-- HiC (sample-1-4) -->
     <defs>
      <path d="M 9.8125 72.90625 
L 19.671875 72.90625 
L 19.671875 43.015625 
L 55.515625 43.015625 
L 55.515625 72.90625 
L 65.375 72.90625 
L 65.375 0 
L 55.515625 0 
L 55.515625 34.71875 
L 19.671875 34.71875 
L 19.671875 0 
L 9.8125 0 
z
" id="DejaVuSans-72"/>
      <path d="M 64.40625 67.28125 
L 64.40625 56.890625 
Q 59.421875 61.53125 53.78125 63.8125 
Q 48.140625 66.109375 41.796875 66.109375 
Q 29.296875 66.109375 22.65625 58.46875 
Q 16.015625 50.828125 16.015625 36.375 
Q 16.015625 21.96875 22.65625 14.328125 
Q 29.296875 6.6875 41.796875 6.6875 
Q 48.140625 6.6875 53.78125 8.984375 
Q 59.421875 11.28125 64.40625 15.921875 
L 64.40625 5.609375 
Q 59.234375 2.09375 53.4375 0.328125 
Q 47.65625 -1.421875 41.21875 -1.421875 
Q 24.65625 -1.421875 15.125 8.703125 
Q 5.609375 18.84375 5.609375 36.375 
Q 5.609375 53.953125 15.125 64.078125 
Q 24.65625 74.21875 41.21875 74.21875 
Q 47.75 74.21875 53.53125 72.484375 
Q 59.328125 70.75 64.40625 67.28125 
z
" id="DejaVuSans-67"/>
      <path d="M 31 75.875 
Q 24.46875 64.65625 21.28125 53.65625 
Q 18.109375 42.671875 18.109375 31.390625 
Q 18.109375 20.125 21.3125 9.0625 
Q 24.515625 -2 31 -13.1875 
L 23.1875 -13.1875 
Q 15.875 -1.703125 12.234375 9.375 
Q 8.59375 20.453125 8.59375 31.390625 
Q 8.59375 42.28125 12.203125 53.3125 
Q 15.828125 64.359375 23.1875 75.875 
z
" id="DejaVuSans-40"/>
      <path d="M 9.421875 75.984375 
L 18.40625 75.984375 
L 18.40625 0 
L 9.421875 0 
z
" id="DejaVuSans-108"/>
      <path d="M 4.890625 31.390625 
L 31.203125 31.390625 
L 31.203125 23.390625 
L 4.890625 23.390625 
z
" id="DejaVuSans-45"/>
      <path d="M 8.015625 75.875 
L 15.828125 75.875 
Q 23.140625 64.359375 26.78125 53.3125 
Q 30.421875 42.28125 30.421875 31.390625 
Q 30.421875 20.453125 26.78125 9.375 
Q 23.140625 -1.703125 15.828125 -13.1875 
L 8.015625 -13.1875 
Q 14.5 -2 17.703125 9.0625 
Q 20.90625 20.125 20.90625 31.390625 
Q 20.90625 42.671875 17.703125 53.65625 
Q 14.5 64.65625 8.015625 75.875 
z
" id="DejaVuSans-41"/>
     </defs>
     <g transform="translate(313.105938 58.070437)scale(0.1 -0.1)">
      <use xlink:href="#DejaVuSans-72"/>
      <use x="75.195312" xlink:href="#DejaVuSans-105"/>
      <use x="102.978516" xlink:href="#DejaVuSans-67"/>
      <use x="172.802734" xlink:href="#DejaVuSans-32"/>
      <use x="204.589844" xlink:href="#DejaVuSans-40"/>
      <use x="243.603516" xlink:href="#DejaVuSans-115"/>
      <use x="295.703125" xlink:href="#DejaVuSans-97"/>
      <use x="356.982422" xlink:href="#DejaVuSans-109"/>
      <use x="454.394531" xlink:href="#DejaVuSans-112"/>
      <use x="517.871094" xlink:href="#DejaVuSans-108"/>
      <use x="545.654297" xlink:href="#DejaVuSans-101"/>
      <use x="607.177734" xlink:href="#DejaVuSans-45"/>
      <use x="643.261719" xlink:href="#DejaVuSans-49"/>
      <use x="706.884766" xlink:href="#DejaVuSans-45"/>
      <use x="742.96875" xlink:href="#DejaVuSans-52"/>
      <use x="806.591797" xlink:href="#DejaVuSans-41"/>
     </g>
    </g>
    <g id="line2d_28">
     <path d="M 285.105938 69.248562 
L 305.105938 69.248562 
" style="fill:none;stroke:#ff7f0e;stroke-linecap:square;stroke-width:1.5;"/>
    </g>
    <g id="line2d_29"/>
    <g id="text_12">
     <!-- ExoC (sample-1-5) -->
     <defs>
      <path d="M 9.8125 72.90625 
L 55.90625 72.90625 
L 55.90625 64.59375 
L 19.671875 64.59375 
L 19.671875 43.015625 
L 54.390625 43.015625 
L 54.390625 34.71875 
L 19.671875 34.71875 
L 19.671875 8.296875 
L 56.78125 8.296875 
L 56.78125 0 
L 9.8125 0 
z
" id="DejaVuSans-69"/>
      <path d="M 54.890625 54.6875 
L 35.109375 28.078125 
L 55.90625 0 
L 45.3125 0 
L 29.390625 21.484375 
L 13.484375 0 
L 2.875 0 
L 24.125 28.609375 
L 4.6875 54.6875 
L 15.28125 54.6875 
L 29.78125 35.203125 
L 44.28125 54.6875 
z
" id="DejaVuSans-120"/>
     </defs>
     <g transform="translate(313.105938 72.748562)scale(0.1 -0.1)">
      <use xlink:href="#DejaVuSans-69"/>
      <use x="63.183594" xlink:href="#DejaVuSans-120"/>
      <use x="122.316406" xlink:href="#DejaVuSans-111"/>
      <use x="183.498047" xlink:href="#DejaVuSans-67"/>
      <use x="253.322266" xlink:href="#DejaVuSans-32"/>
      <use x="285.109375" xlink:href="#DejaVuSans-40"/>
      <use x="324.123047" xlink:href="#DejaVuSans-115"/>
      <use x="376.222656" xlink:href="#DejaVuSans-97"/>
      <use x="437.501953" xlink:href="#DejaVuSans-109"/>
      <use x="534.914062" xlink:href="#DejaVuSans-112"/>
      <use x="598.390625" xlink:href="#DejaVuSans-108"/>
      <use x="626.173828" xlink:href="#DejaVuSans-101"/>
      <use x="687.697266" xlink:href="#DejaVuSans-45"/>
      <use x="723.78125" xlink:href="#DejaVuSans-49"/>
      <use x="787.404297" xlink:href="#DejaVuSans-45"/>
      <use x="823.488281" xlink:href="#DejaVuSans-53"/>
      <use x="887.111328" xlink:href="#DejaVuSans-41"/>
     </g>
    </g>
   </g>
  </g>
  <g id="text_13">
   <!-- Distance coverage (500b, samples 4-5, log) -->
   <g transform="translate(99.128438 16.030125)scale(0.12 -0.12)">
    <use xlink:href="#DejaVuSans-68"/>
    <use x="77.001953" xlink:href="#DejaVuSans-105"/>
    <use x="104.785156" xlink:href="#DejaVuSans-115"/>
    <use x="156.884766" xlink:href="#DejaVuSans-116"/>
    <use x="196.09375" xlink:href="#DejaVuSans-97"/>
    <use x="257.373047" xlink:href="#DejaVuSans-110"/>
    <use x="320.751953" xlink:href="#DejaVuSans-99"/>
    <use x="375.732422" xlink:href="#DejaVuSans-101"/>
    <use x="437.255859" xlink:href="#DejaVuSans-32"/>
    <use x="469.042969" xlink:href="#DejaVuSans-99"/>
    <use x="524.023438" xlink:href="#DejaVuSans-111"/>
    <use x="585.205078" xlink:href="#DejaVuSans-118"/>
    <use x="644.384766" xlink:href="#DejaVuSans-101"/>
    <use x="705.908203" xlink:href="#DejaVuSans-114"/>
    <use x="747.021484" xlink:href="#DejaVuSans-97"/>
    <use x="808.300781" xlink:href="#DejaVuSans-103"/>
    <use x="871.777344" xlink:href="#DejaVuSans-101"/>
    <use x="933.300781" xlink:href="#DejaVuSans-32"/>
    <use x="965.087891" xlink:href="#DejaVuSans-40"/>
    <use x="1004.101562" xlink:href="#DejaVuSans-53"/>
    <use x="1067.724609" xlink:href="#DejaVuSans-48"/>
    <use x="1131.347656" xlink:href="#DejaVuSans-48"/>
    <use x="1194.970703" xlink:href="#DejaVuSans-98"/>
    <use x="1258.447266" xlink:href="#DejaVuSans-44"/>
    <use x="1290.234375" xlink:href="#DejaVuSans-32"/>
    <use x="1322.021484" xlink:href="#DejaVuSans-115"/>
    <use x="1374.121094" xlink:href="#DejaVuSans-97"/>
    <use x="1435.400391" xlink:href="#DejaVuSans-109"/>
    <use x="1532.8125" xlink:href="#DejaVuSans-112"/>
    <use x="1596.289062" xlink:href="#DejaVuSans-108"/>
    <use x="1624.072266" xlink:href="#DejaVuSans-101"/>
    <use x="1685.595703" xlink:href="#DejaVuSans-115"/>
    <use x="1737.695312" xlink:href="#DejaVuSans-32"/>
    <use x="1769.482422" xlink:href="#DejaVuSans-52"/>
    <use x="1833.105469" xlink:href="#DejaVuSans-45"/>
    <use x="1869.189453" xlink:href="#DejaVuSans-53"/>
    <use x="1932.8125" xlink:href="#DejaVuSans-44"/>
    <use x="1964.599609" xlink:href="#DejaVuSans-32"/>
    <use x="1996.386719" xlink:href="#DejaVuSans-108"/>
    <use x="2024.169922" xlink:href="#DejaVuSans-111"/>
    <use x="2085.351562" xlink:href="#DejaVuSans-103"/>
    <use x="2148.828125" xlink:href="#DejaVuSans-41"/>
   </g>
  </g>
 </g>
 <defs>
  <clipPath id="pe5d56c4053">
   <rect height="266.112" width="357.12" x="57.6" y="41.472"/>
  </clipPath>
 </defs>
</svg>
