<?xml version="1.0" encoding="UTF-8" standalone="no"?>
<!-- Created with Inkscape (http://www.inkscape.org/) -->

<svg
   xmlns:dc="http://purl.org/dc/elements/1.1/"
   xmlns:cc="http://creativecommons.org/ns#"
   xmlns:rdf="http://www.w3.org/1999/02/22-rdf-syntax-ns#"
   xmlns:svg="http://www.w3.org/2000/svg"
   xmlns="http://www.w3.org/2000/svg"
   xmlns:sodipodi="http://sodipodi.sourceforge.net/DTD/sodipodi-0.dtd"
   xmlns:inkscape="http://www.inkscape.org/namespaces/inkscape"
   width="373.10828mm"
   height="207.40115mm"
   viewBox="0 0 373.10828 207.40115"
   version="1.1"
   id="svg8"
   inkscape:version="0.92.5 (2060ec1f9f, 2020-04-08)"
   sodipodi:docname="goldnsilver.svg"
   inkscape:export-filename="/dev/datasets/FairWind/.cloud/core/labjournal/data/docs/goldnsilver.png"
   inkscape:export-xdpi="150"
   inkscape:export-ydpi="150">
  <defs
     id="defs2" />
  <sodipodi:namedview
     id="base"
     pagecolor="#ffffff"
     bordercolor="#666666"
     borderopacity="1.0"
     inkscape:pageopacity="0.0"
     inkscape:pageshadow="2"
     inkscape:zoom="0.49497475"
     inkscape:cx="689.46752"
     inkscape:cy="375.64076"
     inkscape:document-units="mm"
     inkscape:current-layer="layer1"
     showgrid="false"
     fit-margin-top="0"
     fit-margin-left="0"
     fit-margin-right="0"
     fit-margin-bottom="0"
     inkscape:window-width="1832"
     inkscape:window-height="1015"
     inkscape:window-x="88"
     inkscape:window-y="0"
     inkscape:window-maximized="1" />
  <metadata
     id="metadata5">
    <rdf:RDF>
      <cc:Work
         rdf:about="">
        <dc:format>image/svg+xml</dc:format>
        <dc:type
           rdf:resource="http://purl.org/dc/dcmitype/StillImage" />
        <dc:title></dc:title>
      </cc:Work>
    </rdf:RDF>
  </metadata>
  <g
     inkscape:label="Layer 1"
     inkscape:groupmode="layer"
     id="layer1"
     transform="translate(5.5236821,-67.400352)">
    <rect
       style="opacity:1;vector-effect:none;fill:#ffffff;fill-opacity:1;fill-rule:evenodd;stroke:none;stroke-width:1;stroke-linecap:butt;stroke-linejoin:miter;stroke-miterlimit:4;stroke-dasharray:none;stroke-dashoffset:0;stroke-opacity:1;paint-order:fill markers stroke"
       id="rect1570"
       width="373.10828"
       height="207.40115"
       x="-5.5236821"
       y="67.400352"
       inkscape:export-xdpi="150"
       inkscape:export-ydpi="150" />
    <flowRoot
       xml:space="preserve"
       id="flowRoot944"
       style="font-style:normal;font-variant:normal;font-weight:normal;font-stretch:normal;font-size:40px;line-height:1.25;font-family:'Yauza TYGRA';-inkscape-font-specification:'Yauza TYGRA';letter-spacing:0px;word-spacing:0px;fill:#000000;fill-opacity:1;stroke:none"
       transform="matrix(0.26458333,0,0,0.26458333,0,26.458335)"><flowRegion
         id="flowRegion946"><rect
           id="rect948"
           width="242.14284"
           height="114.28571"
           x="241.42857"
           y="182.51968" /></flowRegion><flowPara
         id="flowPara950"
         style="font-style:normal;font-variant:normal;font-weight:bold;font-stretch:normal;font-size:24px;font-family:sans-serif;-inkscape-font-specification:'sans-serif Bold'">&quot;Золотой стандарт&quot;</flowPara></flowRoot>    <flowRoot
       transform="matrix(0.26458333,0,0,0.26458333,167.9643,26.458335)"
       xml:space="preserve"
       id="flowRoot944-55"
       style="font-style:normal;font-variant:normal;font-weight:normal;font-stretch:normal;font-size:40px;line-height:1.25;font-family:'Yauza TYGRA';-inkscape-font-specification:'Yauza TYGRA';letter-spacing:0px;word-spacing:0px;fill:#000000;fill-opacity:1;stroke:none"><flowRegion
         id="flowRegion946-4"><rect
           id="rect948-76"
           width="291.64032"
           height="109.23494"
           x="241.42857"
           y="182.51968" /></flowRegion><flowPara
         id="flowPara950-5"
         style="font-style:normal;font-variant:normal;font-weight:bold;font-stretch:normal;font-size:24px;font-family:sans-serif;-inkscape-font-specification:'sans-serif Bold'">&quot;Серебряный стандарт&quot;</flowPara></flowRoot>    <path
       style="color:#000000;font-style:normal;font-variant:normal;font-weight:normal;font-stretch:normal;font-size:medium;line-height:normal;font-family:sans-serif;font-variant-ligatures:normal;font-variant-position:normal;font-variant-caps:normal;font-variant-numeric:normal;font-variant-alternates:normal;font-feature-settings:normal;text-indent:0;text-align:start;text-decoration:none;text-decoration-line:none;text-decoration-style:solid;text-decoration-color:#000000;letter-spacing:normal;word-spacing:normal;text-transform:none;writing-mode:lr-tb;direction:ltr;text-orientation:mixed;dominant-baseline:auto;baseline-shift:baseline;text-anchor:start;white-space:normal;shape-padding:0;clip-rule:nonzero;display:inline;overflow:visible;visibility:visible;opacity:1;isolation:auto;mix-blend-mode:normal;color-interpolation:sRGB;color-interpolation-filters:linearRGB;solid-color:#000000;solid-opacity:1;vector-effect:none;fill:#000000;fill-opacity:1;fill-rule:evenodd;stroke:none;stroke-width:1;stroke-linecap:butt;stroke-linejoin:miter;stroke-miterlimit:4;stroke-dasharray:none;stroke-dashoffset:0;stroke-opacity:1;paint-order:fill markers stroke;color-rendering:auto;image-rendering:auto;shape-rendering:auto;text-rendering:auto;enable-background:accumulate"
       d="m 95.475315,97.068381 c -14.623464,0 -27.628939,6.937869 -35.910474,17.698139 -12.254261,8.10636 -20.341394,22.00804 -20.341394,37.79615 0,15.02074 7.320116,28.33466 18.584394,36.57503 -5.275709,7.40507 -8.379333,16.46373 -8.379333,26.24542 0,25.00716 20.283625,45.29078 45.290777,45.29078 25.007155,0 45.289215,-20.28362 45.289215,-45.29078 0,-9.40271 -2.86793,-18.13724 -7.77575,-25.37726 11.35153,-8.23138 18.73891,-21.59808 18.73891,-36.68717 0,-14.6234 -6.93842,-27.62845 -17.69918,-35.90943 -8.10627,-12.2542 -22.00867,-20.340879 -37.797165,-20.340879 z m 0,1.000456 c 14.424875,0 27.233565,6.891363 35.319285,17.561203 -7.18828,-4.80003 -15.82477,-7.60057 -25.11423,-7.60057 -3.08464,0 -6.097045,0.31014 -9.008755,0.89814 -3.869199,-1.07622 -7.94583,-1.65417 -12.157394,-1.65417 -8.128603,0 -15.756564,2.14518 -22.35264,5.8968 8.117062,-9.25685 20.030215,-15.101403 33.313734,-15.101403 z M 84.514221,108.2739 c 3.448227,0 6.804509,0.39398 10.025744,1.13895 -19.622787,4.96598 -34.150367,22.74292 -34.150367,43.90584 0,8.12835 2.144601,15.75619 5.896279,22.35213 -9.256805,-8.11705 -15.101403,-20.03017 -15.101403,-33.31321 0,-10.0985 3.379681,-19.40377 9.06663,-26.85263 6.968892,-4.5708 15.303712,-7.23108 24.263117,-7.23108 z m 21.166149,0.75551 c 10.09806,0 19.40353,3.37896 26.85262,9.06508 4.57094,6.96863 7.2316,15.30356 7.2316,24.26312 0,14.4254 -6.89226,27.23513 -17.56275,35.32135 4.80083,-7.18866 7.6016,-15.82599 7.6016,-25.11629 0,-20.02644 -13.0084,-37.02002 -31.033245,-42.99583 2.251765,-0.35257 4.559215,-0.53743 6.910175,-0.53743 z m -9.038725,0.92397 c 18.568085,5.27148 32.161855,22.34779 32.161855,42.60929 0,9.56833 -3.03216,18.42638 -8.18761,25.66665 -7.33997,-5.12692 -16.26705,-8.13749 -25.896605,-8.13749 -9.480016,0 -18.279292,2.91748 -25.553998,7.89977 -0.182679,-0.13508 -0.363638,-0.27249 -0.544153,-0.41031 -4.570888,-6.96877 -7.231599,-15.30345 -7.231599,-24.2626 0,-21.3689 15.122509,-39.19382 35.25211,-43.36531 z m -38.856023,7.29051 c -4.800423,7.18797 -7.601088,15.8242 -7.601088,25.11372 0,14.62278 6.93714,27.62836 17.697111,35.90995 0.09462,0.14302 0.188034,0.28703 0.284221,0.42891 -3.724087,2.70061 -7.022529,5.95225 -9.772012,9.63817 -11.015541,-8.05608 -18.170467,-21.07522 -18.170467,-35.77197 0,-14.42463 6.892171,-27.23304 17.562235,-35.31878 z m 77.082108,2.76056 c 9.25812,8.11656 15.10347,20.03011 15.10347,33.31424 0,14.7567 -7.21329,27.82194 -18.30534,35.87017 -2.72157,-3.83147 -6.02445,-7.221 -9.77925,-10.04125 11.43089,-8.22268 18.87792,-21.63844 18.87792,-36.79 0,-8.12877 -2.14504,-15.75728 -5.8968,-22.35316 z m -40.148445,51.08783 c 9.413025,0 18.136755,2.93653 25.310595,7.9406 -0.0968,0.12974 -0.19635,0.2574 -0.29456,0.38603 -6.96796,4.56994 -15.30188,7.22953 -24.260005,7.22953 -9.474993,0 -18.252423,-2.97439 -25.45323,-8.03879 7.055342,-4.74694 15.551615,-7.51737 24.6972,-7.51737 z m -25.986528,8.4212 c 5.527079,7.78043 13.450482,13.73868 22.691637,16.80259 -2.251707,0.35259 -4.559239,0.53795 -6.910173,0.53795 -9.413187,0 -18.137378,-2.9369 -25.311631,-7.94112 2.682446,-3.59384 5.899094,-6.76461 9.530167,-9.39942 z m 52.296023,0.23616 c 3.78074,2.79592 7.10166,6.1776 9.82576,10.01386 -7.14817,4.94611 -15.82094,7.84603 -25.17417,7.84603 -3.44823,0 -6.803925,-0.39392 -10.025225,-1.13895 9.993465,-2.52947 18.663585,-8.3829 24.767475,-16.31373 0.20305,-0.13433 0.40542,-0.26972 0.60616,-0.40721 z m -50.669248,0.29662 c 7.18861,4.80105 15.825594,7.60264 25.115783,7.60264 8.127515,0 15.754845,-2.14479 22.350045,-5.89577 -6.22344,7.09734 -14.67818,12.18848 -24.271895,14.17692 -9.366036,-2.65919 -17.464987,-8.32375 -23.193933,-15.88379 z m -11.742955,9.67021 c 7.340415,5.12712 16.26788,8.13749 25.897644,8.13749 3.084809,0 6.097471,-0.31003 9.009269,-0.89814 3.869145,1.07622 7.9455,1.65365 12.15688,1.65365 9.56141,0 18.4304,-2.96765 25.74106,-8.02845 4.78965,7.07586 7.58713,15.61135 7.58713,24.8021 0,24.46672 -19.82256,44.29084 -44.289275,44.29084 -24.466711,0 -44.290837,-19.82412 -44.290837,-44.29084 0,-9.56833 3.032318,-18.42638 8.188129,-25.66665 z"
       id="path1801"
       inkscape:connector-curvature="0" />
    <path
       style="opacity:1;vector-effect:none;fill:#ff0000;fill-opacity:1;fill-rule:evenodd;stroke:none;stroke-width:1;stroke-linecap:butt;stroke-linejoin:miter;stroke-miterlimit:4;stroke-dasharray:none;stroke-dashoffset:0;stroke-opacity:1;paint-order:fill markers stroke"
       d="m 88.230752,185.90832 c -4.858486,-0.90062 -8.585721,-2.109 -12.439952,-4.03307 -2.226135,-1.11131 -5.33347,-3.01095 -5.33347,-3.26056 0,-0.1067 0.862102,-0.69749 1.915784,-1.31287 14.274109,-8.33653 32.087146,-8.03288 45.953426,0.78335 l 1.63456,1.03926 -1.56626,0.94344 c -4.24805,2.55884 -9.04458,4.46285 -14.04083,5.57362 -3.66847,0.81557 -12.384825,0.95982 -16.123258,0.26683 z"
       id="path1845"
       inkscape:connector-curvature="0" />
    <path
       style="opacity:1;vector-effect:none;fill:#e3dbdb;fill-opacity:1;fill-rule:evenodd;stroke:none;stroke-width:1;stroke-linecap:butt;stroke-linejoin:miter;stroke-miterlimit:4;stroke-dasharray:none;stroke-dashoffset:0;stroke-opacity:1;paint-order:fill markers stroke"
       d="m 126.18302,112.89534 c -7.15458,-3.77363 -16.32575,-5.5833 -24.32153,-4.79918 -1.76398,0.17299 -3.628175,0.40574 -4.142665,0.51722 -0.5145,0.11148 -1.29626,0.10038 -1.73726,-0.0247 -2.833432,-0.80344 -7.216572,-1.32414 -11.225316,-1.33354 -6.765089,-0.0158 -11.453109,0.89121 -17.639789,3.41304 -1.61698,0.65912 -3.120372,1.27137 -3.34087,1.36057 -0.734055,0.29693 2.24132,-2.61436 4.409948,-4.31496 12.466428,-9.775984 28.875307,-12.181208 43.560872,-6.38518 5.42292,2.1403 9.91367,5.0985 14.50343,9.55388 2.95423,2.86774 3.67384,3.71067 3.0736,3.60033 -0.11025,-0.0203 -1.52344,-0.73465 -3.14042,-1.58751 z"
       id="path1847"
       inkscape:connector-curvature="0" />
    <path
       style="opacity:1;vector-effect:none;fill:#e3dbdb;fill-opacity:1;fill-rule:evenodd;stroke:none;stroke-width:1;stroke-linecap:butt;stroke-linejoin:miter;stroke-miterlimit:4;stroke-dasharray:none;stroke-dashoffset:0;stroke-opacity:1;paint-order:fill markers stroke"
       d="m 57.463983,187.43359 c -11.520206,-8.74414 -18.309698,-24.14365 -16.946107,-38.43612 0.892829,-9.3582 4.164317,-17.44043 9.902934,-24.46528 1.565976,-1.91697 6.115473,-6.38284 6.307121,-6.19119 0.05807,0.0581 -0.431519,1.05617 -1.087972,2.218 -2.568416,4.54575 -4.600935,10.91175 -5.242266,16.41919 -0.44926,3.85801 -0.180853,10.80907 0.551831,14.29107 1.546556,7.34984 4.777428,14.17806 9.3668,19.79607 1.627045,1.99172 6.816717,7.06452 7.227287,7.06452 0.631306,0 0.10704,0.79336 -1.155854,1.74915 -1.743,1.31913 -6.26147,5.8354 -7.155748,7.15226 -0.367496,0.54115 -0.742157,0.98473 -0.832583,0.98574 -0.09042,0.001 -0.511374,-0.26153 -0.935443,-0.58341 z"
       id="path1849"
       inkscape:connector-curvature="0" />
    <path
       style="opacity:1;vector-effect:none;fill:#e3dbdb;fill-opacity:1;fill-rule:evenodd;stroke:none;stroke-width:1;stroke-linecap:butt;stroke-linejoin:miter;stroke-miterlimit:4;stroke-dasharray:none;stroke-dashoffset:0;stroke-opacity:1;paint-order:fill markers stroke"
       d="m 130.19206,187.06248 c -1.35369,-1.76116 -5.36925,-5.81504 -7.08264,-7.15024 l -0.93544,-0.72896 1.0682,-0.8608 c 10.45538,-8.42542 16.69602,-20.14063 17.47217,-32.79952 0.48341,-7.88433 -0.8849,-15.46351 -3.9995,-22.15354 -0.57407,-1.23309 -1.04376,-2.30796 -1.04376,-2.38862 0,-0.27298 1.64101,1.41281 3.4669,3.56151 7.3848,8.69039 11.10513,19.41663 10.61424,30.60236 -0.45498,10.36747 -4.28999,19.79866 -11.25281,27.6733 -1.73828,1.96591 -6.25334,6.00839 -6.69348,5.99288 -0.15264,-0.005 -0.87889,-0.79214 -1.61388,-1.74837 z"
       id="path1851"
       inkscape:connector-curvature="0" />
    <path
       style="opacity:1;vector-effect:none;fill:#e3dbdb;fill-opacity:1;fill-rule:evenodd;stroke:none;stroke-width:1;stroke-linecap:butt;stroke-linejoin:miter;stroke-miterlimit:4;stroke-dasharray:none;stroke-dashoffset:0;stroke-opacity:1;paint-order:fill markers stroke"
       d="m 90.769812,259.35117 c -17.199226,-1.50633 -32.375432,-13.45002 -37.83976,-29.77992 -1.618308,-4.83624 -2.013138,-7.19407 -2.169314,-12.95459 -0.122449,-4.51644 -0.06582,-5.65402 0.424485,-8.52679 0.913474,-5.35222 3.238,-11.55226 5.971884,-15.92837 1.497218,-2.39659 1.383008,-2.34682 2.960772,-1.29027 2.156745,1.44428 7.533917,3.96541 10.371626,4.86283 5.271278,1.66703 7.574093,2.00645 13.732203,2.02406 3.534942,0.0101 6.306206,-0.11257 7.486182,-0.33137 1.614538,-0.29939 2.094823,-0.28961 3.474505,0.0707 2.49328,0.65115 7.356635,1.21214 10.508385,1.21214 8.25905,0 16.71067,-2.37319 23.63736,-6.63732 0.99483,-0.61242 1.904,-1.11349 2.02037,-1.11349 0.37659,0 2.79316,4.31849 3.95851,7.07397 2.55321,6.0371 3.41638,10.42761 3.41712,17.38119 5.3e-4,4.2127 -0.10314,5.59855 -0.60788,8.13192 -1.87497,9.41086 -6.22555,17.31763 -13.15318,23.90466 -7.32908,6.96874 -16.58291,11.07218 -26.896395,11.92672 -3.5016,0.29013 -3.69429,0.28944 -7.296873,-0.0261 z"
       id="path1853"
       inkscape:connector-curvature="0" />
    <path
       style="opacity:1;vector-effect:none;fill:#c8b7b7;fill-opacity:1;fill-rule:evenodd;stroke:none;stroke-width:1;stroke-linecap:butt;stroke-linejoin:miter;stroke-miterlimit:4;stroke-dasharray:none;stroke-dashoffset:0;stroke-opacity:1;paint-order:fill markers stroke"
       d="M 64.131499,173.51384 C 53.692385,162.59605 49.408342,148.33866 52.172891,133.71533 c 1.359739,-7.19246 6.096198,-16.73858 9.330293,-18.80478 6.818011,-4.3559 16.621815,-6.90094 24.856273,-6.45261 3.264059,0.17771 7.084094,0.68983 7.081136,0.94931 -0.0011,0.0924 -1.053425,0.50803 -2.338607,0.92367 -7.302984,2.36185 -15.024507,7.61301 -20.027095,13.61978 -7.501398,9.00716 -11.122131,19.50607 -10.700282,31.02721 0.227923,6.22482 1.544751,11.85714 4.062024,17.37406 0.528658,1.15862 0.919435,2.14833 0.868399,2.19937 -0.05104,0.051 -0.579128,-0.41583 -1.173533,-1.0375 z"
       id="path1855"
       inkscape:connector-curvature="0" />
    <path
       style="opacity:1;vector-effect:none;fill:#c8b7b7;fill-opacity:1;fill-rule:evenodd;stroke:none;stroke-width:1;stroke-linecap:butt;stroke-linejoin:miter;stroke-miterlimit:4;stroke-dasharray:none;stroke-dashoffset:0;stroke-opacity:1;paint-order:fill markers stroke"
       d="m 123.10942,176.6672 c 0,-0.0997 0.46827,-0.98409 1.04059,-1.96523 5.45814,-9.35692 7.16708,-22.53096 4.34133,-33.46689 -3.54058,-13.70236 -13.58686,-25.29077 -26.51189,-30.58151 -1.17964,-0.48288 -2.208115,-0.94127 -2.285505,-1.01866 -0.27973,-0.27974 5.180645,-0.5314 8.314745,-0.38322 7.6717,0.36272 15.77261,3.05795 22.23611,7.39812 1.97919,1.32901 2.29687,1.66925 3.49377,3.74178 9.37895,16.24044 7.43091,36.37208 -4.92057,50.85073 -1.79354,2.10241 -5.70858,5.82289 -5.70858,5.42488 z"
       id="path1857"
       inkscape:connector-curvature="0" />
    <path
       style="opacity:1;vector-effect:none;fill:#c8b7b7;fill-opacity:1;fill-rule:evenodd;stroke:none;stroke-width:1;stroke-linecap:butt;stroke-linejoin:miter;stroke-miterlimit:4;stroke-dasharray:none;stroke-dashoffset:0;stroke-opacity:1;paint-order:fill markers stroke"
       d="m 80.747205,196.54799 c -7.029307,-0.58573 -14.32452,-3.08793 -20.242357,-6.94298 -0.549424,-0.35791 -1.00043,-0.71088 -1.002234,-0.78438 -0.01725,-0.70295 7.267363,-7.99079 8.815348,-8.81925 0.32667,-0.17483 0.754149,0.19965 1.882367,1.64898 4.320694,5.55046 11.491725,10.93904 18.107954,13.60699 1.584915,0.63911 2.079484,0.94236 1.737251,1.0652 -0.872408,0.31315 -6.583868,0.45162 -9.298329,0.22544 z"
       id="path1859"
       inkscape:connector-curvature="0" />
    <path
       style="opacity:1;vector-effect:none;fill:#c8b7b7;fill-opacity:1;fill-rule:evenodd;stroke:none;stroke-width:1;stroke-linecap:butt;stroke-linejoin:miter;stroke-miterlimit:4;stroke-dasharray:none;stroke-dashoffset:0;stroke-opacity:1;paint-order:fill markers stroke"
       d="m 99.055165,196.97351 c -1.24948,-0.20868 -2.4522,-0.38628 -2.67269,-0.39467 -0.2205,-0.008 0.99688,-0.48564 2.70528,-1.06054 7.541675,-2.53786 14.504925,-7.17739 19.542035,-13.02062 1.18386,-1.37332 2.2386,-2.49695 2.34386,-2.49695 0.9058,0 9.61932,8.793 9.61932,9.70707 0,0.0788 -0.71621,0.57828 -1.59158,1.11004 -4.27616,2.59762 -9.62496,4.74298 -14.40221,5.7766 -3.40323,0.73633 -12.13055,0.94916 -15.544015,0.37907 z"
       id="path1861"
       inkscape:connector-curvature="0" />
    <path
       style="opacity:1;vector-effect:none;fill:#916f6f;fill-opacity:1;fill-rule:evenodd;stroke:none;stroke-width:1;stroke-linecap:butt;stroke-linejoin:miter;stroke-miterlimit:4;stroke-dasharray:none;stroke-dashoffset:0;stroke-opacity:1;paint-order:fill markers stroke"
       d="m 90.368908,194.73258 c -4.581295,-1.74919 -8.097718,-3.71838 -11.759859,-6.58548 -2.207752,-1.72846 -7.261378,-6.72037 -7.033823,-6.94793 0.07072,-0.0707 1.045961,0.39421 2.167205,1.03318 2.571773,1.46559 6.943722,3.19331 10.26275,4.05567 10.025539,2.60485 21.111389,1.62129 30.527159,-2.70844 1.08904,-0.50078 2.02613,-0.86445 2.08243,-0.80816 0.0563,0.0563 -0.86121,0.99753 -2.03889,2.09163 -3.87021,3.5955 -8.50153,6.57792 -13.17923,8.48698 -2.519685,1.02834 -7.135965,2.42766 -7.954141,2.41112 -0.220499,-0.004 -1.603619,-0.46731 -3.073601,-1.02857 z"
       id="path1863"
       inkscape:connector-curvature="0" />
    <path
       style="opacity:1;vector-effect:none;fill:#916f6f;fill-opacity:1;fill-rule:evenodd;stroke:none;stroke-width:1;stroke-linecap:butt;stroke-linejoin:miter;stroke-miterlimit:4;stroke-dasharray:none;stroke-dashoffset:0;stroke-opacity:1;paint-order:fill markers stroke"
       d="m 119.23401,177.13913 c -1.94675,-1.33805 -7.36794,-3.91628 -10.22332,-4.86205 -12.610415,-4.17689 -27.437328,-2.38684 -38.419518,4.63839 -0.766866,0.49056 -1.508927,0.81414 -1.649024,0.71906 -0.781217,-0.53015 -3.397551,-5.60211 -4.707776,-9.12639 -1.698265,-4.56802 -2.390902,-8.31681 -2.536338,-13.72752 -0.144926,-5.39171 0.132302,-8.11378 1.283091,-12.59852 3.698195,-14.41224 14.791584,-26.17358 29.125034,-30.87869 3.918626,-1.28633 4.743516,-1.30118 7.750226,-0.13948 5.960245,2.30285 10.622165,5.26076 15.188065,9.6366 9.57847,9.17974 14.60139,22.3258 13.45325,35.21005 -0.6782,7.61077 -3.20475,15.03517 -7.06896,20.77258 l -0.85838,1.27447 z"
       id="path1865"
       inkscape:connector-curvature="0" />
    <path
       style="color:#000000;font-style:normal;font-variant:normal;font-weight:normal;font-stretch:normal;font-size:medium;line-height:normal;font-family:sans-serif;font-variant-ligatures:normal;font-variant-position:normal;font-variant-caps:normal;font-variant-numeric:normal;font-variant-alternates:normal;font-feature-settings:normal;text-indent:0;text-align:start;text-decoration:none;text-decoration-line:none;text-decoration-style:solid;text-decoration-color:#000000;letter-spacing:normal;word-spacing:normal;text-transform:none;writing-mode:lr-tb;direction:ltr;text-orientation:mixed;dominant-baseline:auto;baseline-shift:baseline;text-anchor:start;white-space:normal;shape-padding:0;clip-rule:nonzero;display:inline;overflow:visible;visibility:visible;opacity:1;isolation:auto;mix-blend-mode:normal;color-interpolation:sRGB;color-interpolation-filters:linearRGB;solid-color:#000000;solid-opacity:1;vector-effect:none;fill:#000000;fill-opacity:1;fill-rule:evenodd;stroke:none;stroke-width:1;stroke-linecap:butt;stroke-linejoin:miter;stroke-miterlimit:4;stroke-dasharray:none;stroke-dashoffset:0;stroke-opacity:1;paint-order:fill markers stroke;color-rendering:auto;image-rendering:auto;shape-rendering:auto;text-rendering:auto;enable-background:accumulate"
       d="m 270.36478,97.068382 c -14.62347,0 -27.62894,6.937868 -35.91048,17.698138 -12.25426,8.10636 -20.34139,22.00804 -20.34139,37.79615 0,15.02074 7.32011,28.33466 18.58439,36.57503 -5.27571,7.40507 -8.37933,16.46373 -8.37933,26.24542 0,25.00716 20.28362,45.29078 45.29078,45.29078 25.00715,0 45.28921,-20.28362 45.28921,-45.29078 0,-9.40271 -2.86793,-18.13724 -7.77575,-25.37726 11.35153,-8.23138 18.73891,-21.59808 18.73891,-36.68717 0,-14.6234 -6.93842,-27.62845 -17.69918,-35.90943 -8.10627,-12.2542 -22.00867,-20.340878 -37.79716,-20.340878 z m 0,1.000456 c 14.42487,0 27.23356,6.891362 35.31928,17.561202 -7.18828,-4.80003 -15.82477,-7.60057 -25.11423,-7.60057 -3.08464,0 -6.09705,0.31014 -9.00876,0.89814 -3.86919,-1.07622 -7.94583,-1.65417 -12.15739,-1.65417 -8.1286,0 -15.75656,2.14518 -22.35264,5.8968 8.11706,-9.25685 20.03022,-15.101402 33.31374,-15.101402 z m -10.9611,10.205062 c 3.44823,0 6.80451,0.39398 10.02574,1.13895 -19.62278,4.96598 -34.15036,22.74292 -34.15036,43.90584 0,8.12835 2.1446,15.75619 5.89628,22.35213 -9.25681,-8.11705 -15.10141,-20.03017 -15.10141,-33.31321 0,-10.0985 3.37968,-19.40377 9.06663,-26.85263 6.9689,-4.5708 15.30372,-7.23108 24.26312,-7.23108 z m 21.16615,0.75551 c 10.09806,0 19.40353,3.37896 26.85262,9.06508 4.57094,6.96863 7.2316,15.30356 7.2316,24.26312 0,14.4254 -6.89226,27.23513 -17.56275,35.32135 4.80083,-7.18866 7.6016,-15.82599 7.6016,-25.11629 0,-20.02644 -13.0084,-37.02002 -31.03324,-42.99583 2.25176,-0.35257 4.55921,-0.53743 6.91017,-0.53743 z m -9.03873,0.92397 c 18.56809,5.27148 32.16186,22.34779 32.16186,42.60929 0,9.56833 -3.03216,18.42638 -8.18761,25.66665 -7.33997,-5.12692 -16.26705,-8.13749 -25.8966,-8.13749 -9.48002,0 -18.2793,2.91748 -25.554,7.89977 -0.18268,-0.13508 -0.36364,-0.27249 -0.54416,-0.41031 -4.57088,-6.96877 -7.23159,-15.30345 -7.23159,-24.2626 0,-21.3689 15.1225,-39.19382 35.2521,-43.36531 z m -38.85602,7.29051 c -4.80042,7.18797 -7.60109,15.8242 -7.60109,25.11372 0,14.62278 6.93714,27.62836 17.69711,35.90995 0.0946,0.14302 0.18804,0.28703 0.28423,0.42891 -3.72409,2.70061 -7.02253,5.95225 -9.77202,9.63817 -11.01554,-8.05608 -18.17046,-21.07522 -18.17046,-35.77197 0,-14.42463 6.89217,-27.23304 17.56223,-35.31878 z m 77.08211,2.76056 c 9.25812,8.11656 15.10347,20.03011 15.10347,33.31424 0,14.7567 -7.21329,27.82194 -18.30534,35.87017 -2.72157,-3.83147 -6.02445,-7.221 -9.77925,-10.04125 11.43089,-8.22268 18.87792,-21.63844 18.87792,-36.79 0,-8.12877 -2.14504,-15.75728 -5.8968,-22.35316 z m -40.14844,51.08783 c 9.41302,0 18.13675,2.93653 25.31059,7.9406 -0.0968,0.12974 -0.19635,0.2574 -0.29456,0.38603 -6.96796,4.56994 -15.30188,7.22953 -24.26,7.22953 -9.475,0 -18.25243,-2.97439 -25.45324,-8.03879 7.05535,-4.74694 15.55162,-7.51737 24.69721,-7.51737 z m -25.98653,8.4212 c 5.52708,7.78043 13.45048,13.73868 22.69163,16.80259 -2.2517,0.35259 -4.55924,0.53795 -6.91017,0.53795 -9.41319,0 -18.13738,-2.9369 -25.31163,-7.94112 2.68245,-3.59384 5.89909,-6.76461 9.53017,-9.39942 z m 52.29602,0.23616 c 3.78074,2.79592 7.10166,6.1776 9.82576,10.01386 -7.14817,4.94611 -15.82094,7.84603 -25.17417,7.84603 -3.44823,0 -6.80393,-0.39392 -10.02523,-1.13895 9.99347,-2.52947 18.66359,-8.3829 24.76748,-16.31373 0.20305,-0.13433 0.40542,-0.26972 0.60616,-0.40721 z m -50.66925,0.29662 c 7.18861,4.80105 15.8256,7.60264 25.11578,7.60264 8.12752,0 15.75485,-2.14479 22.35005,-5.89577 -6.22344,7.09734 -14.67818,12.18848 -24.2719,14.17692 -9.36603,-2.65919 -17.46498,-8.32375 -23.19393,-15.88379 z m -11.74295,9.67021 c 7.34041,5.12712 16.26788,8.13749 25.89764,8.13749 3.08481,0 6.09747,-0.31003 9.00927,-0.89814 3.86914,1.07622 7.9455,1.65365 12.15688,1.65365 9.56141,0 18.4304,-2.96765 25.74106,-8.02845 4.78965,7.07586 7.58713,15.61135 7.58713,24.8021 0,24.46672 -19.82256,44.29084 -44.28928,44.29084 -24.46671,0 -44.29083,-19.82412 -44.29083,-44.29084 0,-9.56833 3.03232,-18.42638 8.18813,-25.66665 z"
       id="path1801-1"
       inkscape:connector-curvature="0" />
    <path
       style="opacity:1;vector-effect:none;fill:#ff0000;fill-opacity:1;fill-rule:evenodd;stroke:none;stroke-width:1;stroke-linecap:butt;stroke-linejoin:miter;stroke-miterlimit:4;stroke-dasharray:none;stroke-dashoffset:0;stroke-opacity:1;paint-order:fill markers stroke"
       d="m 263.12021,185.90832 c -4.85848,-0.90062 -8.58572,-2.109 -12.43995,-4.03307 -2.22614,-1.11131 -5.33347,-3.01095 -5.33347,-3.26056 0,-0.1067 0.8621,-0.69749 1.91578,-1.31287 14.27411,-8.33653 32.08715,-8.03288 45.95343,0.78335 l 1.63456,1.03926 -1.56626,0.94344 c -4.24805,2.55884 -9.04458,4.46285 -14.04083,5.57362 -3.66847,0.81557 -12.38483,0.95982 -16.12326,0.26683 z"
       id="path1845-1"
       inkscape:connector-curvature="0" />
    <path
       style="opacity:1;vector-effect:none;fill:#e3dbdb;fill-opacity:1;fill-rule:evenodd;stroke:none;stroke-width:1;stroke-linecap:butt;stroke-linejoin:miter;stroke-miterlimit:4;stroke-dasharray:none;stroke-dashoffset:0;stroke-opacity:1;paint-order:fill markers stroke"
       d="m 301.07248,112.89534 c -7.15458,-3.77363 -16.32575,-5.5833 -24.32153,-4.79918 -1.76398,0.17299 -3.62818,0.40574 -4.14266,0.51722 -0.5145,0.11148 -1.29626,0.10038 -1.73727,-0.0247 -2.83343,-0.80344 -7.21657,-1.32414 -11.22531,-1.33354 -6.76509,-0.0158 -11.45311,0.89121 -17.63979,3.41304 -1.61698,0.65912 -3.12037,1.27137 -3.34087,1.36057 -0.73406,0.29693 2.24132,-2.61436 4.40995,-4.31496 12.46643,-9.775983 28.8753,-12.181207 43.56087,-6.38518 5.42292,2.1403 9.91367,5.0985 14.50343,9.55388 2.95423,2.86774 3.67384,3.71067 3.0736,3.60033 -0.11025,-0.0203 -1.52344,-0.73465 -3.14042,-1.58751 z"
       id="path1847-5"
       inkscape:connector-curvature="0" />
    <path
       style="opacity:1;vector-effect:none;fill:#e3dbdb;fill-opacity:1;fill-rule:evenodd;stroke:none;stroke-width:1;stroke-linecap:butt;stroke-linejoin:miter;stroke-miterlimit:4;stroke-dasharray:none;stroke-dashoffset:0;stroke-opacity:1;paint-order:fill markers stroke"
       d="m 232.35344,187.43359 c -11.5202,-8.74414 -18.3097,-24.14365 -16.9461,-38.43612 0.89283,-9.3582 4.16431,-17.44043 9.90293,-24.46528 1.56598,-1.91697 6.11547,-6.38284 6.30712,-6.19119 0.0581,0.0581 -0.43152,1.05617 -1.08797,2.218 -2.56842,4.54575 -4.60094,10.91175 -5.24227,16.41919 -0.44926,3.85801 -0.18085,10.80907 0.55183,14.29107 1.54656,7.34984 4.77743,14.17806 9.3668,19.79607 1.62705,1.99172 6.81672,7.06452 7.22729,7.06452 0.63131,0 0.10704,0.79336 -1.15585,1.74915 -1.743,1.31913 -6.26147,5.8354 -7.15575,7.15226 -0.3675,0.54115 -0.74216,0.98473 -0.83258,0.98574 -0.0904,0.001 -0.51138,-0.26153 -0.93545,-0.58341 z"
       id="path1849-9"
       inkscape:connector-curvature="0" />
    <path
       style="opacity:1;vector-effect:none;fill:#e3dbdb;fill-opacity:1;fill-rule:evenodd;stroke:none;stroke-width:1;stroke-linecap:butt;stroke-linejoin:miter;stroke-miterlimit:4;stroke-dasharray:none;stroke-dashoffset:0;stroke-opacity:1;paint-order:fill markers stroke"
       d="m 305.08152,187.06248 c -1.35369,-1.76116 -5.36925,-5.81504 -7.08264,-7.15024 l -0.93544,-0.72896 1.0682,-0.8608 c 10.45538,-8.42542 16.69602,-20.14063 17.47217,-32.79952 0.48341,-7.88433 -0.8849,-15.46351 -3.9995,-22.15354 -0.57407,-1.23309 -1.04376,-2.30796 -1.04376,-2.38862 0,-0.27298 1.64101,1.41281 3.4669,3.56151 7.3848,8.69039 11.10513,19.41663 10.61424,30.60236 -0.45498,10.36747 -4.28999,19.79866 -11.25281,27.6733 -1.73828,1.96591 -6.25334,6.00839 -6.69348,5.99288 -0.15264,-0.005 -0.87889,-0.79214 -1.61388,-1.74837 z"
       id="path1851-7"
       inkscape:connector-curvature="0" />
    <path
       style="opacity:1;vector-effect:none;fill:#afc6e9;fill-opacity:1;fill-rule:evenodd;stroke:none;stroke-width:1;stroke-linecap:butt;stroke-linejoin:miter;stroke-miterlimit:4;stroke-dasharray:none;stroke-dashoffset:0;stroke-opacity:1;paint-order:fill markers stroke"
       d="m 265.65927,259.35117 c -17.19922,-1.50633 -32.37543,-13.45002 -37.83976,-29.77992 -1.61831,-4.83624 -2.01314,-7.19407 -2.16931,-12.95459 -0.12245,-4.51644 -0.0658,-5.65402 0.42448,-8.52679 0.91348,-5.35222 3.238,-11.55226 5.97189,-15.92837 1.49721,-2.39659 1.383,-2.34682 2.96077,-1.29027 2.15674,1.44428 7.53392,3.96541 10.37162,4.86283 5.27128,1.66703 7.5741,2.00645 13.73221,2.02406 3.53494,0.0101 6.3062,-0.11257 7.48618,-0.33137 1.61454,-0.29939 2.09482,-0.28961 3.4745,0.0707 2.49328,0.65115 7.35664,1.21214 10.50839,1.21214 8.25905,0 16.71067,-2.37319 23.63736,-6.63732 0.99483,-0.61242 1.904,-1.11349 2.02037,-1.11349 0.37659,0 2.79316,4.31849 3.95851,7.07397 2.55321,6.0371 3.41638,10.42761 3.41712,17.38119 5.3e-4,4.2127 -0.10314,5.59855 -0.60788,8.13192 -1.87497,9.41086 -6.22555,17.31763 -13.15318,23.90466 -7.32908,6.96874 -16.58291,11.07218 -26.8964,11.92672 -3.50159,0.29013 -3.69429,0.28944 -7.29687,-0.0261 z"
       id="path1853-7"
       inkscape:connector-curvature="0" />
    <path
       style="opacity:1;vector-effect:none;fill:#c8b7b7;fill-opacity:1;fill-rule:evenodd;stroke:none;stroke-width:1;stroke-linecap:butt;stroke-linejoin:miter;stroke-miterlimit:4;stroke-dasharray:none;stroke-dashoffset:0;stroke-opacity:1;paint-order:fill markers stroke"
       d="m 239.02096,173.51384 c -10.43912,-10.91779 -14.72316,-25.17518 -11.95861,-39.79851 1.35974,-7.19246 6.0962,-16.73858 9.33029,-18.80478 6.81801,-4.3559 16.62182,-6.90094 24.85628,-6.45261 3.26406,0.17771 7.08409,0.68983 7.08113,0.94931 -0.001,0.0924 -1.05342,0.50803 -2.3386,0.92367 -7.30299,2.36185 -15.02451,7.61301 -20.0271,13.61978 -7.5014,9.00716 -11.12213,19.50607 -10.70028,31.02721 0.22792,6.22482 1.54475,11.85714 4.06202,17.37406 0.52866,1.15862 0.91944,2.14833 0.8684,2.19937 -0.051,0.051 -0.57913,-0.41583 -1.17353,-1.0375 z"
       id="path1855-6"
       inkscape:connector-curvature="0" />
    <path
       style="opacity:1;vector-effect:none;fill:#c8b7b7;fill-opacity:1;fill-rule:evenodd;stroke:none;stroke-width:1;stroke-linecap:butt;stroke-linejoin:miter;stroke-miterlimit:4;stroke-dasharray:none;stroke-dashoffset:0;stroke-opacity:1;paint-order:fill markers stroke"
       d="m 297.99888,176.6672 c 0,-0.0997 0.46827,-0.98409 1.04059,-1.96523 5.45814,-9.35692 7.16708,-22.53096 4.34133,-33.46689 -3.54058,-13.70236 -13.58686,-25.29077 -26.51189,-30.58151 -1.17964,-0.48288 -2.20812,-0.94127 -2.28551,-1.01866 -0.27972,-0.27974 5.18065,-0.5314 8.31475,-0.38322 7.6717,0.36272 15.77261,3.05795 22.23611,7.39812 1.97919,1.32901 2.29687,1.66925 3.49377,3.74178 9.37895,16.24044 7.43091,36.37208 -4.92057,50.85073 -1.79354,2.10241 -5.70858,5.82289 -5.70858,5.42488 z"
       id="path1857-7"
       inkscape:connector-curvature="0" />
    <path
       style="opacity:1;vector-effect:none;fill:#939dac;fill-opacity:1;fill-rule:evenodd;stroke:none;stroke-width:1;stroke-linecap:butt;stroke-linejoin:miter;stroke-miterlimit:4;stroke-dasharray:none;stroke-dashoffset:0;stroke-opacity:1;paint-order:fill markers stroke"
       d="m 255.63667,196.54799 c -7.02931,-0.58573 -14.32453,-3.08793 -20.24236,-6.94298 -0.54943,-0.35791 -1.00043,-0.71088 -1.00224,-0.78438 -0.0173,-0.70295 7.26737,-7.99079 8.81535,-8.81925 0.32667,-0.17483 0.75415,0.19965 1.88237,1.64898 4.32069,5.55046 11.49172,10.93904 18.10795,13.60699 1.58492,0.63911 2.07949,0.94236 1.73725,1.0652 -0.8724,0.31315 -6.58386,0.45162 -9.29832,0.22544 z"
       id="path1859-3"
       inkscape:connector-curvature="0" />
    <path
       style="opacity:1;vector-effect:none;fill:#939dac;fill-opacity:1;fill-rule:evenodd;stroke:none;stroke-width:1;stroke-linecap:butt;stroke-linejoin:miter;stroke-miterlimit:4;stroke-dasharray:none;stroke-dashoffset:0;stroke-opacity:1;paint-order:fill markers stroke"
       d="m 273.94462,196.97351 c -1.24948,-0.20868 -2.4522,-0.38628 -2.67269,-0.39467 -0.2205,-0.008 0.99688,-0.48564 2.70529,-1.06054 7.54167,-2.53786 14.50492,-7.17739 19.54203,-13.02062 1.18386,-1.37332 2.2386,-2.49695 2.34386,-2.49695 0.9058,0 9.61932,8.793 9.61932,9.70707 0,0.0788 -0.71621,0.57828 -1.59158,1.11004 -4.27616,2.59762 -9.62496,4.74298 -14.40221,5.7766 -3.40323,0.73633 -12.13055,0.94916 -15.54402,0.37907 z"
       id="path1861-6"
       inkscape:connector-curvature="0" />
    <path
       style="opacity:1;vector-effect:none;fill:#535d6c;fill-opacity:1;fill-rule:evenodd;stroke:none;stroke-width:1;stroke-linecap:butt;stroke-linejoin:miter;stroke-miterlimit:4;stroke-dasharray:none;stroke-dashoffset:0;stroke-opacity:1;paint-order:fill markers stroke"
       d="m 265.25837,194.73258 c -4.5813,-1.74919 -8.09772,-3.71838 -11.75986,-6.58548 -2.20775,-1.72846 -7.26138,-6.72037 -7.03382,-6.94793 0.0707,-0.0707 1.04596,0.39421 2.1672,1.03318 2.57177,1.46559 6.94372,3.19331 10.26275,4.05567 10.02554,2.60485 21.11139,1.62129 30.52716,-2.70844 1.08904,-0.50078 2.02613,-0.86445 2.08243,-0.80816 0.0563,0.0563 -0.86121,0.99753 -2.03889,2.09163 -3.87021,3.5955 -8.50153,6.57792 -13.17923,8.48698 -2.51969,1.02834 -7.13597,2.42766 -7.95414,2.41112 -0.2205,-0.004 -1.60362,-0.46731 -3.0736,-1.02857 z"
       id="path1863-5"
       inkscape:connector-curvature="0" />
    <path
       style="opacity:1;vector-effect:none;fill:#ff0000;fill-opacity:1;fill-rule:evenodd;stroke:none;stroke-width:1;stroke-linecap:butt;stroke-linejoin:miter;stroke-miterlimit:4;stroke-dasharray:none;stroke-dashoffset:0;stroke-opacity:1;paint-order:fill markers stroke"
       d="m 294.12347,177.13913 c -1.94675,-1.33805 -7.36794,-3.91628 -10.22332,-4.86205 -12.61042,-4.17689 -27.43733,-2.38684 -38.41952,4.63839 -0.76686,0.49056 -1.50893,0.81414 -1.64902,0.71906 -0.78122,-0.53015 -3.39755,-5.60211 -4.70778,-9.12639 -1.69826,-4.56802 -2.3909,-8.31681 -2.53634,-13.72752 -0.14492,-5.39171 0.13231,-8.11378 1.28309,-12.59852 3.6982,-14.41224 14.79159,-26.17358 29.12504,-30.87869 3.91863,-1.28633 4.74351,-1.30118 7.75022,-0.13948 5.96025,2.30285 10.62217,5.26076 15.18807,9.6366 9.57847,9.17974 14.60139,22.3258 13.45325,35.21005 -0.6782,7.61077 -3.20475,15.03517 -7.06896,20.77258 l -0.85838,1.27447 z"
       id="path1865-6"
       inkscape:connector-curvature="0" />
    <flowRoot
       transform="matrix(0.26458333,0,0,0.26458333,20.713665,45.565528)"
       xml:space="preserve"
       id="flowRoot944-2"
       style="font-style:normal;font-variant:normal;font-weight:normal;font-stretch:normal;font-size:40px;line-height:1.25;font-family:'Yauza TYGRA';-inkscape-font-specification:'Yauza TYGRA';letter-spacing:0px;word-spacing:0px;fill:#000000;fill-opacity:1;stroke:none"><flowRegion
         id="flowRegion946-6"><rect
           id="rect948-1"
           width="242.14284"
           height="114.28571"
           x="241.42857"
           y="182.51968" /></flowRegion><flowPara
         id="flowPara950-8"
         style="font-style:normal;font-variant:normal;font-weight:normal;font-stretch:normal;font-size:18.66666603px;font-family:sans-serif;-inkscape-font-specification:sans-serif">Образец 2</flowPara></flowRoot>    <flowRoot
       transform="matrix(0.26458333,0,0,0.26458333,-45.059155,130.33254)"
       xml:space="preserve"
       id="flowRoot944-7"
       style="font-style:normal;font-variant:normal;font-weight:normal;font-stretch:normal;font-size:40px;line-height:1.25;font-family:'Yauza TYGRA';-inkscape-font-specification:'Yauza TYGRA';letter-spacing:0px;word-spacing:0px;fill:#000000;fill-opacity:1;stroke:none"><flowRegion
         id="flowRegion946-9"><rect
           id="rect948-2"
           width="242.14284"
           height="114.28571"
           x="241.42857"
           y="182.51968" /></flowRegion><flowPara
         id="flowPara950-0"
         style="font-style:normal;font-variant:normal;font-weight:normal;font-stretch:normal;font-size:18.66666603px;font-family:sans-serif;-inkscape-font-specification:sans-serif">Образец 1</flowPara></flowRoot>    <flowRoot
       transform="matrix(0.26458333,0,0,0.26458333,81.286476,130.33254)"
       xml:space="preserve"
       id="flowRoot944-23"
       style="font-style:normal;font-variant:normal;font-weight:normal;font-stretch:normal;font-size:40px;line-height:1.25;font-family:'Yauza TYGRA';-inkscape-font-specification:'Yauza TYGRA';letter-spacing:0px;word-spacing:0px;fill:#000000;fill-opacity:1;stroke:none"><flowRegion
         id="flowRegion946-7"><rect
           id="rect948-5"
           width="242.14284"
           height="114.28571"
           x="241.42857"
           y="182.51968" /></flowRegion><flowPara
         id="flowPara950-9"
         style="font-style:normal;font-variant:normal;font-weight:normal;font-stretch:normal;font-size:18.66666603px;font-family:sans-serif;-inkscape-font-specification:sans-serif">Образец 3</flowPara></flowRoot>    <flowRoot
       transform="matrix(0.26458333,0,0,0.26458333,18.786506,166.74085)"
       xml:space="preserve"
       id="flowRoot944-22"
       style="font-style:normal;font-variant:normal;font-weight:normal;font-stretch:normal;font-size:40px;line-height:1.25;font-family:'Yauza TYGRA';-inkscape-font-specification:'Yauza TYGRA';letter-spacing:0px;word-spacing:0px;fill:#000000;fill-opacity:1;stroke:none"><flowRegion
         id="flowRegion946-8"><rect
           id="rect948-9"
           width="242.14284"
           height="114.28571"
           x="241.42857"
           y="182.51968" /></flowRegion><flowPara
         id="flowPara950-7"
         style="font-style:normal;font-variant:normal;font-weight:normal;font-stretch:normal;font-size:18.66666603px;font-family:sans-serif;-inkscape-font-specification:sans-serif">Образец 4</flowPara></flowRoot>    <flowRoot
       transform="matrix(0.26458333,0,0,0.26458333,195.60312,45.036361)"
       xml:space="preserve"
       id="flowRoot944-2-8"
       style="font-style:normal;font-variant:normal;font-weight:normal;font-stretch:normal;font-size:40px;line-height:1.25;font-family:'Yauza TYGRA';-inkscape-font-specification:'Yauza TYGRA';letter-spacing:0px;word-spacing:0px;fill:#000000;fill-opacity:1;stroke:none"><flowRegion
         id="flowRegion946-6-7"><rect
           id="rect948-1-1"
           width="242.14284"
           height="114.28571"
           x="241.42857"
           y="182.51968" /></flowRegion><flowPara
         id="flowPara950-8-7"
         style="font-style:normal;font-variant:normal;font-weight:normal;font-stretch:normal;font-size:18.66666603px;font-family:sans-serif;-inkscape-font-specification:sans-serif">Образец 2</flowPara></flowRoot>    <flowRoot
       transform="matrix(0.26458333,0,0,0.26458333,133.83716,130.33254)"
       xml:space="preserve"
       id="flowRoot944-7-2"
       style="font-style:normal;font-variant:normal;font-weight:normal;font-stretch:normal;font-size:40px;line-height:1.25;font-family:'Yauza TYGRA';-inkscape-font-specification:'Yauza TYGRA';letter-spacing:0px;word-spacing:0px;fill:#000000;fill-opacity:1;stroke:none"><flowRegion
         id="flowRegion946-9-7"><rect
           id="rect948-2-2"
           width="242.14284"
           height="114.28571"
           x="241.42857"
           y="182.51968" /></flowRegion><flowPara
         id="flowPara950-0-2"
         style="font-style:normal;font-variant:normal;font-weight:normal;font-stretch:normal;font-size:18.66666603px;font-family:sans-serif;-inkscape-font-specification:sans-serif">Образец 1</flowPara></flowRoot>    <flowRoot
       transform="matrix(0.26458333,0,0,0.26458333,256.02513,130.33254)"
       xml:space="preserve"
       id="flowRoot944-23-6"
       style="font-style:normal;font-variant:normal;font-weight:normal;font-stretch:normal;font-size:40px;line-height:1.25;font-family:'Yauza TYGRA';-inkscape-font-specification:'Yauza TYGRA';letter-spacing:0px;word-spacing:0px;fill:#000000;fill-opacity:1;stroke:none"><flowRegion
         id="flowRegion946-7-1"><rect
           id="rect948-5-0"
           width="242.14284"
           height="114.28571"
           x="241.42857"
           y="182.51968" /></flowRegion><flowPara
         id="flowPara950-9-6"
         style="font-style:normal;font-variant:normal;font-weight:normal;font-stretch:normal;font-size:18.66666603px;font-family:sans-serif;-inkscape-font-specification:sans-serif">Образец 3</flowPara></flowRoot>    <flowRoot
       transform="matrix(0.26458333,0,0,0.26458333,173.66151,169.03816)"
       xml:space="preserve"
       id="flowRoot944-22-1"
       style="font-style:normal;font-variant:normal;font-weight:normal;font-stretch:normal;font-size:40px;line-height:0.30000001;font-family:'Yauza TYGRA';-inkscape-font-specification:'Yauza TYGRA';text-align:center;letter-spacing:0px;word-spacing:0px;text-anchor:middle;fill:#000000;fill-opacity:1;stroke:none"><flowRegion
         id="flowRegion946-8-5"
         style="line-height:0.30000001;text-align:center;text-anchor:middle"><rect
           id="rect948-9-9"
           width="242.14284"
           height="114.28571"
           x="241.42857"
           y="182.51968"
           style="line-height:0.30000001;text-align:center;text-anchor:middle" /></flowRegion><flowPara
         id="flowPara950-7-4"
         style="font-style:normal;font-variant:normal;font-weight:normal;font-stretch:normal;font-size:18.66666603px;line-height:0.30000001;font-family:sans-serif;-inkscape-font-specification:sans-serif;text-align:center;text-anchor:middle">Исключённый</flowPara><flowPara
         style="font-style:normal;font-variant:normal;font-weight:normal;font-stretch:normal;font-size:18.66666603px;line-height:0.30000001;font-family:sans-serif;-inkscape-font-specification:sans-serif;text-align:center;text-anchor:middle"
         id="flowPara1366">образец</flowPara></flowRoot>    <path
       style="fill:none;stroke:#000000;stroke-width:0.5;stroke-linecap:butt;stroke-linejoin:miter;stroke-miterlimit:4;stroke-dasharray:none;stroke-opacity:1"
       d="m 42.092214,183.15059 10.690784,-12.6953"
       id="path1982"
       inkscape:connector-curvature="0" />
    <path
       style="fill:none;stroke:#000000;stroke-width:0.5;stroke-linecap:butt;stroke-linejoin:miter;stroke-miterlimit:4;stroke-dasharray:none;stroke-opacity:1"
       d="m 144.59008,184.48694 -7.21628,-12.2944"
       id="path1984"
       inkscape:connector-curvature="0" />
    <path
       style="fill:none;stroke:#000000;stroke-width:0.5;stroke-linecap:butt;stroke-linejoin:miter;stroke-miterlimit:4;stroke-dasharray:none;stroke-opacity:1"
       d="m 221.43007,184.62057 8.01808,-10.0226"
       id="path1986"
       inkscape:connector-curvature="0" />
    <path
       style="fill:none;stroke:#000000;stroke-width:0.5;stroke-linecap:butt;stroke-linejoin:miter;stroke-miterlimit:4;stroke-dasharray:none;stroke-opacity:1"
       d="m 318.71617,185.55602 -8.55263,-9.08717"
       id="path1988"
       inkscape:connector-curvature="0" />
  </g>
</svg>
