<?xml version="1.0" encoding="UTF-8" standalone="no"?>
<!-- Created with Inkscape (http://www.inkscape.org/) -->

<svg
   xmlns:dc="http://purl.org/dc/elements/1.1/"
   xmlns:cc="http://creativecommons.org/ns#"
   xmlns:rdf="http://www.w3.org/1999/02/22-rdf-syntax-ns#"
   xmlns:svg="http://www.w3.org/2000/svg"
   xmlns="http://www.w3.org/2000/svg"
   xmlns:sodipodi="http://sodipodi.sourceforge.net/DTD/sodipodi-0.dtd"
   xmlns:inkscape="http://www.inkscape.org/namespaces/inkscape"
   width="145.14285mm"
   height="176.1369mm"
   viewBox="0 0 145.14285 176.1369"
   version="1.1"
   id="svg8"
   inkscape:version="0.92.5 (2060ec1f9f, 2020-04-08)"
   sodipodi:docname="repoqr.svg"
   inkscape:export-filename="/dev/datasets/FairWind/.cloud/core/labjournal/data/docs/repoqr.png"
   inkscape:export-xdpi="300"
   inkscape:export-ydpi="300">
  <defs
     id="defs2" />
  <sodipodi:namedview
     id="base"
     pagecolor="#ffffff"
     bordercolor="#666666"
     borderopacity="1.0"
     inkscape:pageopacity="0.0"
     inkscape:pageshadow="2"
     inkscape:zoom="0.7"
     inkscape:cx="178.09275"
     inkscape:cy="400.83592"
     inkscape:document-units="mm"
     inkscape:current-layer="layer1"
     showgrid="false"
     fit-margin-top="0"
     fit-margin-left="0"
     fit-margin-right="0"
     fit-margin-bottom="0"
     inkscape:window-width="1832"
     inkscape:window-height="1015"
     inkscape:window-x="88"
     inkscape:window-y="0"
     inkscape:window-maximized="1" />
  <metadata
     id="metadata5">
    <rdf:RDF>
      <cc:Work
         rdf:about="">
        <dc:format>image/svg+xml</dc:format>
        <dc:type
           rdf:resource="http://purl.org/dc/dcmitype/StillImage" />
        <dc:title />
      </cc:Work>
    </rdf:RDF>
  </metadata>
  <g
     inkscape:label="Layer 1"
     inkscape:groupmode="layer"
     id="layer1"
     transform="translate(0,0.08928587)">
    <rect
       style="opacity:1;vector-effect:none;fill:#ffffff;fill-opacity:1;fill-rule:evenodd;stroke:none;stroke-width:0.80000001;stroke-linecap:butt;stroke-linejoin:miter;stroke-miterlimit:4;stroke-dasharray:0.79999999, 0.79999999;stroke-dashoffset:0;stroke-opacity:1;paint-order:fill markers stroke"
       id="rect880"
       width="145.14285"
       height="176.1369"
       x="0"
       y="-0.089285865" />
    <path
       style="fill:#010101;stroke-width:3.77952766"
       d="m 271.88086,51.900391 c -104.32773,-0.0083 -208.645326,0.363966 -211.378907,1.123047 -4.881226,1.355414 -11.469839,7.28391 -13.8125,12.427734 -1.747453,3.836863 -1.82397,14.744684 -1.839844,267.499998 -0.01125,180.84946 0.313253,264.68482 1.033203,267.27735 1.79274,6.45562 8.234965,12.43647 15.933594,14.79296 1.378564,0.42188 96.555854,0.69259 211.505864,0.59961 l 209,-0.16992 4,-2.15234 c 5.13962,-2.76601 7.87813,-5.74965 10.41601,-11.34766 2.03562,-4.49242 2.03982,-4.94115 2.0625,-266.80664 0.0164,-195.97804 -0.27258,-263.474604 -1.14062,-266.921874 -1.51529,-6.017801 -8.70783,-13.62582 -14.33789,-15.166015 -2.77629,-0.759874 -107.11368,-1.147945 -211.44141,-1.15625 z m -72.17383,17.044921 c 20.71662,0.0013 44.65357,0.0093 72.31641,0.0098 199.13695,0.0037 200.31842,0.01505 203.60937,2.021484 6.64169,4.049311 6.19146,-11.148577 6.18946,208.191404 -10e-4,187.72204 -0.103,199.48624 -1.75,202.7832 -1.00033,2.00236 -3.24761,4.24776 -5.25,5.24805 -3.29704,1.64715 -15.06875,1.74805 -203,1.74805 -187.931298,0 -199.702964,-0.10101 -203.000004,-1.74805 -2.002368,-1.00029 -4.247754,-3.24569 -5.248047,-5.24805 -1.647126,-3.29718 -1.748192,-15.09016 -1.746094,-203.5 C 61.830276,81.851169 61.864348,78.397024 63.783203,75.25 67.421518,69.282957 54.69068,68.936313 199.70703,68.945312 Z M 93.822266,100.95117 v 37.5 37.5 h 38.000004 38 v -37.5 -37.5 h -38 z m 108.000004,0 v 11 11 h 5.5 5.5 v -11 -11 h -5.5 z m 21,0 v 5.5 5.5 h 5.5 5.5 v -5.5 -5.5 h -5.5 z m 11,11 v 5.5 5.5 h 11 11 v 10.5 10.5 h 5.5 5.5 v 5.5 5.5 h 5 5 v -16 -16 h 5.5 5.5 v -5.5 -5.5 h -16 -16 v -5.5 -5.5 h -5.5 -5.5 v 5.5 5.5 h -5.5 z m 54,11 v 5 5 h 21.5 21.5 v -5 -5 h -21.5 z m 43,0 h 5.5 5.5 v 5 5 h 5.5 5.5 v -5 -5 h 5.5 5.5 v -11 -11 h -5.5 -5.5 v 5.5 5.5 h -5.5 -5.5 v -5.5 -5.5 h -16 -16 v 5.5 5.5 h 10.5 10.5 v 5.5 z m 11,10 h -5.5 -5.5 v 5.5 5.5 h -5.5 -5.5 v 5.5 5.5 h 11 11 v -11 z m -22,22 h -5 -5 v 10.5 10.5 h -5.5 -5.5 v -10.5 -10.5 h -11 -11 v 5.5 5.5 h 5.5 5.5 v 5 5 h -5.5 -5.5 v 5.5 5.5 h -10.5 -10.5 v 5.5 5.5 h 16 16 v -5.5 -5.5 h 16 16 v -16 z m -64,43 h -5.5 -5.5 v 5.5 5.5 h -5.5 -5.5 v 5.5 5.5 h 5.5 5.5 v 5 5 h 5.5 5.5 v -5 -5 h 5.5 5.5 v 5 5 h 21.5 21.5 v 5.5 5.5 h -5.5 -5.5 v 11 11 h -5.5 -5.5 v 10.5 10.5 h 5.5 5.5 v -5.5 -5.5 h 5.5 5.5 v -10.5 -10.5 h 10.5 10.5 v -5.5 -5.5 h 5.5 5.5 v -5.5 -5.5 h -11 -11 v -10.5 -10.5 h 5.5 5.5 v 5.5 5.5 h 5.5 5.5 v -5.5 -5.5 h 5.5 5.5 v -5.5 -5.5 h -5.5 -5.5 v -5.5 -5.5 h -5.5 -5.5 v 5.5 5.5 h -10.5 -10.5 v 11 11 h -11 -11 v -5.5 -5.5 h -16 -16 v -5.5 z m 86,-11 h 5.5 5.5 v -5.5 -5.5 h -5.5 -5.5 v 5.5 z m 0,-11 v -5 -5 h -5.5 -5.5 v 5 5 h 5.5 z m 11,0 h 5.5 5.5 v -10.5 -10.5 h -5.5 -5.5 v 10.5 z m 0,11 v 5.5 5.5 h 10.5 10.5 v -5.5 -5.5 h -10.5 z m 21,11 v 5.5 5.5 h 5.5 5.5 v 5.5 5.5 h 16 16 v -5.5 -5.5 h 5.5 5.5 v -5.5 -5.5 h -5.5 -5.5 v -5.5 -5.5 h -5 -5 v 11 11 h -5.5 -5.5 v -11 -11 h -5.5 -5.5 v 5.5 5.5 h -5.5 z m 54,0 h 5.5 5.5 v -5.5 -5.5 h -5.5 -5.5 v 5.5 z m 0,11 v 5.5 5.5 h -5.5 -5.5 v 10.5 10.5 h -5 -5 v 5.5 5.5 h -5.5 -5.5 v 5.5 5.5 h 10.5 10.5 v -5.5 -5.5 h 5.5 5.5 v -5.5 -5.5 h 5.5 5.5 v -5.5 -5.5 h 5.5 5.5 v -5 -5 h -5.5 -5.5 v -5.5 -5.5 h -5.5 z m 0,43 v 5.5 5.5 h -5.5 -5.5 v 5 5 h 5.5 5.5 v 5.5 5.5 h 5.5 5.5 v -5.5 -5.5 h 5.5 5.5 v -5 -5 h -5.5 -5.5 v -5.5 -5.5 h -5.5 z m 0,32 h -5.5 -5.5 v 5.5 5.5 h 5.5 5.5 v -5.5 z m -11,11 h -5 -5 v -5.5 -5.5 h -5.5 -5.5 v -5.5 -5.5 h -5.5 -5.5 v 5.5 5.5 h -10.5 -10.5 v 5.5 5.5 h -5.5 -5.5 v 5.5 5.5 h 10.5 10.5 v -5.5 -5.5 h 5.5 5.5 v 5.5 5.5 h 16 16 v -5.5 z m -32,11 h -5.5 -5.5 v 5.5 5.5 h -5 -5 v 10.5 10.5 h -5.5 -5.5 v 5.5 5.5 h 10.5 10.5 v -5.5 -5.5 h 5.5 5.5 v -5.5 -5.5 h 5.5 5.5 v -5 -5 h -5.5 -5.5 v -5.5 z m -11,43 v 5.5 5.5 h -10.5 -10.5 v 10.5 10.5 h -11 -11 v 5.5 5.5 h 11 11 v 11 11 h 5.5 5.5 v 5 5 h -5.5 -5.5 v -5 -5 h -5.5 -5.5 v -5.5 -5.5 h -5.5 -5.5 v 5.5 5.5 h -5.5 -5.5 v 5 5 h 5.5 5.5 v 5.5 5.5 h -5.5 -5.5 v -5.5 -5.5 h -5 -5 v 5.5 5.5 h -5.5 -5.5 v 5.5 5.5 h 5.5 5.5 v 5.5 5.5 h 21.5 21.5 v -11 -11 h 10.5 10.5 v -5.5 -5.5 h 5.5 5.5 v -5 -5 h 11 11 v 5 5 h 16 16 v -5 -5 h -11 -11 v -11 -11 h -5 -5 v -11 -11 h 5 5 v -10.5 -10.5 h -5 -5 v 5.5 5.5 h -11 -11 v -5.5 -5.5 h -5.5 z m 33,0 v -5.5 -5.5 h -5.5 -5.5 v 5.5 5.5 h 5.5 z m 10,21 v 5.5 5.5 h 5.5 5.5 v -5.5 -5.5 h -5.5 z m 11,0 h 5.5 5.5 v -5 -5 h -5.5 -5.5 v 5 z m 0,11 v 5.5 5.5 h 5.5 5.5 v -5.5 -5.5 h -5.5 z m 11,11 v 11 11 h 5.5 5.5 v -11 -11 h -5.5 z m -32,32 h -11 -11 v 11 11 h 11 11 v 5.5 5.5 h 5 5 v -5.5 -5.5 h 5.5 5.5 v 5.5 5.5 h 5.5 5.5 v -5.5 -5.5 h 5.5 5.5 v -5.5 -5.5 h -21.5 -21.5 v -5.5 z m -22,22 h -5.5 -5.5 v 5.5 5.5 h 5.5 5.5 v -5.5 z m -86,0 h -11 -11 v 5.5 5.5 h 11 11 v -5.5 z m 11,-22 v -5 -5 h -5.5 -5.5 v 5 5 h 5.5 z m 21,-43 v -5.5 -5.5 h -21.5 -21.5 v 5.5 5.5 h 5.5 5.5 v 5.5 5.5 h -5.5 -5.5 v 5.5 5.5 h 16 16 v -5.5 -5.5 h -5 -5 v -5.5 -5.5 h 10.5 z m -43,11 v -5.5 -5.5 h -5.5 -5.5 v -5.5 -5.5 h -5 -5 v -5 -5 h -5.5 -5.5 v 10.5 10.5 h -11 -11 v 5.5 5.5 h 5.5 5.5 v 5.5 5.5 h 5.5 5.5 v -5.5 -5.5 h 5.5 5.5 v 5.5 5.5 h -5.5 -5.5 v 5.5 5.5 h 5.5 5.5 v 5 5 h 5 5 v -16 -16 h 5.5 z m -11,32 v 5.5 5.5 h 5.5 5.5 v -5.5 -5.5 h -5.5 z m -21,-10 h -5.5 -5.5 v 5 5 h 5.5 5.5 v -5 z m -11,0 v -5.5 -5.5 h -5.5 -5.5 v -5.5 -5.5 h -5.5 -5.5 v 11 11 h 11 z m -11,-33 v -5.5 -5.5 h -5.5 -5.5 v 5.5 5.5 h 5.5 z m -11,-11 v -10.5 -10.5 h 11 11 v 5.5 5.5 h 5.5 5.5 v -16.5 -16.5 h 5.5 5.5 v 5.5 5.5 h 5 5 v -5.5 -5.5 h 11 11 v -5 -5 h -11 -11 v -5.5 -5.5 h -5 -5 v 5.5 5.5 h -11 -11 v -5.5 -5.5 h 5.5 5.5 v -11 -11 h -5.5 -5.5 v 5.5 5.5 h -5.5 -5.5 v 5.5 5.5 h -5.5 -5.5 v 10.5 10.5 h 11 11 v 5.5 5.5 h -16 -16 v 5.5 5.5 h -5.5 -5.5 v 5.5 5.5 h -5.5 -5.5 v -5.5 -5.5 h 5.5 5.5 v -5.5 -5.5 h -5.5 -5.5 v -5.5 -5.5 h 5.5 5.5 v -5 -5 h -5.5 -5.5 v -5.5 -5.5 h -5.5 -5.5 v 5.5 5.5 h -10.5 -10.5 v -5.5 -5.5 h 10.5 10.5 v -5.5 -5.5 h 11 11 v -11 -11 h -21.5 -21.5 v 5.5 5.5 h 5.5 5.5 v 5.5 5.5 h -16.5 -16.5 v -5.5 -5.5 h -5.5 -5.5 v 5.5 5.5 h -5 -5 v 11 11 h 16 16 v 21.5 21.5 h 5.5 5.5 v -5.5 -5.5 h 5.5 5.5 v 5.5 5.5 h -5.5 -5.5 v 5 5 h 10.5 10.5 v 11 11 h 11 11 v -11 -11 h 10.5 z m -107,-75 v -5.5 -5.5 h 5 5 v -5.5 -5.5 h -5 -5 v -5 -5 h -5.5 -5.5 v -5.5 -5.5 h -5.500004 -5.5 v 10.5 10.5 h 5.5 5.500004 v 11 11 h 5.5 z m -11,0 h -5.500004 -5.5 v 5.5 5.5 h 5.5 5.500004 v -5.5 z m 0,-43 h 5.5 5.5 v -5.5 -5.5 h -5.5 -5.5 v 5.5 z m 0,-11 v -5.5 -5.5 h -5.500004 -5.5 v 5.5 5.5 h 5.5 z m 0,-11 h 5.5 5.5 v 5.5 5.5 h 10.5 10.5 v -5.5 -5.5 h 5.5 5.5 v -21.5 -21.5 h -27 -27.000004 v 11 11 h 5.5 5.500004 v 10.5 z m 43,0 v 5.5 5.5 h -5.5 -5.5 v 11 11 h 5.5 5.5 v 5 5 h 5.5 5.5 v -5 -5 h 5.5 5.5 v -5.5 -5.5 h -5.5 -5.5 v -5.5 -5.5 h 5.5 5.5 v 5.5 5.5 h 5 5 v -16 -16 h -5 -5 v 5 5 h -11 z m 22,-10 v -5.5 -5.5 h -5.5 -5.5 v 5.5 5.5 h 5.5 z m 0,-11 h 5 5 v 5.5 5.5 h 5.5 5.5 v -11 -11 h 5.5 5.5 v -5.5 -5.5 h 5.5 5.5 v 5.5 5.5 h 5 5 v -11 -11 h -5 -5 v -5 -5 h -5.5 -5.5 v 5 5 h -5.5 -5.5 v 5.5 5.5 h -16 -16 v 5.5 5.5 h 5.5 5.5 v 5.5 z m 21,-33 v -5 -5 h 5.5 5.5 v -11 -11 h 5.5 5.5 v -5.5 -5.5 h -16.5 -16.5 v 5.5 5.5 h 5.5 5.5 v 5.5 5.5 h -5.5 -5.5 v 10.5 10.5 h 5.5 z m 22,-10 h 5 5 v 5 5 h 5.5 5.5 v -5 -5 h 5.5 5.5 v 5 5 h 5.5 5.5 v -16 -16 h -5.5 -5.5 v 5.5 5.5 h -16 -16 v 5.5 z m 32,-22 v -5.5 -5.5 h -5.5 -5.5 v -5 -5 h -5.5 -5.5 v 10.5 10.5 h 11 z m 0,32 h -5.5 -5.5 v 5.5 5.5 h 5.5 5.5 v -5.5 z m -22,22 v 5.5 5.5 h 5.5 5.5 v -5.5 -5.5 h -5.5 z m -10,0 h -5.5 -5.5 v 11 11 h 5.5 5.5 v -11 z m -33,54 v 5.5 5.5 h 16.5 16.5 v 10.5 10.5 h 5 5 v -10.5 -10.5 h 11 11 v 5 5 h 5.5 5.5 v -10.5 -10.5 h 10.5 10.5 v -5.5 -5.5 h -5 -5 v -5.5 -5.5 h -5.5 -5.5 v 5.5 5.5 h -5.5 -5.5 v 5.5 5.5 h -21.5 -21.5 v -5.5 -5.5 h 5.5 5.5 v -5.5 -5.5 h -11 -11 v 11 11 h -5.5 z m 65,-11 v -5.5 -5.5 h -5.5 -5.5 v -5 -5 h -5.5 -5.5 v 10.5 10.5 h 11 z m 32,11 v 5.5 5.5 h 5.5 5.5 v -5.5 -5.5 h -5.5 z m 0,11 h -5 -5 v 5 5 h -5.5 -5.5 v 5.5 5.5 h 5.5 5.5 v 5.5 5.5 h 5 5 v -16 z m 0,32 v 5.5 5.5 h 5.5 5.5 v -5.5 -5.5 h -5.5 z m -32,-22 h -5.5 -5.5 v 5.5 5.5 h 5.5 5.5 v -5.5 z m -11,11 h -5.5 -5.5 v 5.5 5.5 h 5.5 5.5 v -5.5 z m -118,-32 v 5.5 5.5 h 5 5 v -5.5 -5.5 h -5 z m 86,43 v 11 11 h 5.5 5.5 v -11 -11 h -5.5 z m 97,22 h 5.5 5.5 v 5 5 h 5 5 v -5 -5 h 5.5 5.5 v -5.5 -5.5 h -10.5 -10.5 v -5.5 -5.5 h -5.5 -5.5 v 11 z m 11,-22 h 10.5 10.5 v 5.5 5.5 h 5.5 5.5 v -5.5 -5.5 h 5.5 5.5 v -5.5 -5.5 h -11 -11 v -10.5 -10.5 h -5.5 -5.5 v 10.5 10.5 h -5 -5 v 5.5 z m 21,-32 h 5.5 5.5 v 5 5 h 5.5 5.5 v -5 -5 h 10.5 10.5 v -5.5 -5.5 h -10.5 -10.5 v -5.5 -5.5 h -5.5 -5.5 v 5.5 5.5 h -5.5 -5.5 v 5.5 z m 22,-22 h 10.5 10.5 v 5.5 5.5 h 5.5 5.5 v -16 -16 h -5.5 -5.5 v 5 5 h -10.5 -10.5 v 5.5 z m 0,-11 v -5 -5 h -5.5 -5.5 v 5 5 h 5.5 z m 21,33 v 5 5 h 5.5 5.5 v -5 -5 h -5.5 z m -32,43 v 5.5 5.5 h 5.5 5.5 v -5.5 -5.5 h -5.5 z m -22,21 v 5.5 5.5 h 5.5 5.5 v -5.5 -5.5 h -5.5 z m 11,11 v 5.5 5.5 h 5.5 5.5 v -5.5 -5.5 h -5.5 z m 11,11 v 5.5 5.5 h 5.5 5.5 v -5.5 -5.5 h -5.5 z m -65,-11 v 5.5 5.5 h 5.5 5.5 v -5.5 -5.5 h -5.5 z m 0,11 h -5 -5 v 5.5 5.5 h 5 5 v -5.5 z m -32,11 h -5.5 -5.5 v 5 5 h 5.5 5.5 v -5 z m 162,-76 h 5 5 v -5.5 -5.5 h -5 -5 v 5.5 z m -130,-108 v -5 -5 h -5 -5 v 5 5 h 5 z m 22,-21 h 5.5 5.5 v -5.5 -5.5 h -5.5 -5.5 v 5.5 z m 75,-54 v 37.5 37.5 h 38 38 v -37.5 -37.5 h -38 z m -269,11 h 27 27 v 27 27 h -27 -27 v -27 z m 75,0 v 5.5 5.5 h 5.5 5.5 v -5.5 -5.5 h -5.5 z m 205,0 h 27 27 v 27 27 h -27 -27 v -27 z m -269,10 v 16.5 16.5 h 16 16 v -16.5 -16.5 h -16 z m 280,0 v 16.5 16.5 h 16 16 v -16.5 -16.5 h -16 z m -280,87 h 5 5 v 5.5 5.5 h -5 -5 v -5.5 z m 323,86 v 11 11 h 5.5 5.5 v -11 -11 h -5.5 z m 0,22 h -5.5 -5.5 v 5 5 h -5.5 -5.5 v 5.5 5.5 h 11 11 v -10.5 z m -345.000004,10 v 21.5 21.5 h 5.5 5.500004 v -16 -16 h 5.5 5.5 v -5.5 -5.5 h -11 z m 32.000004,0 v 11 11 h 5.5 5.5 v -11 -11 h -5.5 z m 33,0 h 5.5 5.5 v 5.5 5.5 h -5.5 -5.5 v -5.5 z m 140,22 v 5.5 5.5 h 10.5 10.5 v -5.5 -5.5 h -10.5 z m 65,21 h 16 16 v 16.5 16.5 h -16 -16 v -16.5 z m -270.000004,11 v 38 38 h 38.000004 38 v -38 -38 h -38 z m 280.000004,0 v 5.5 5.5 h 5.5 5.5 v -5.5 -5.5 h -5.5 z m -269,11 h 27 27 v 27 27 h -27 -27 v -27 z m 11,11 v 16 16 h 16 16 v -16 -16 h -16 z m 64,0 v 27 27 h 27 27 v -5.5 -5.5 h -5.5 -5.5 v -5.5 -5.5 h 5.5 5.5 v -5.5 -5.5 h -10.5 -10.5 v -5 -5 h -11 -11 v -5.5 -5.5 h -5.5 z m 11,21 h 5.5 5.5 v 5.5 5.5 h 5.5 5.5 v 5.5 5.5 h -5.5 -5.5 v -5.5 -5.5 h -5.5 -5.5 v -5.5 z m 65,22 v 5.5 5.5 h 5.5 5.5 v -5.5 -5.5 h -5.5 z m -98.23438,59.26758 c 4.09573,0 8.19127,0.36956 11.10938,1.11133 13.03375,3.31313 25.69802,13.41176 31.13085,24.82226 2.89906,6.08886 5.13086,15.23154 5.13086,21.01172 0,5.78022 -2.2318,14.92286 -5.13086,21.01172 -2.09338,4.39669 -4.17185,7.16164 -8.92382,11.87891 -8.84759,8.78301 -19.97395,14.29456 -21.39258,10.59765 -0.25508,-0.66474 -0.47534,-5.04689 -0.49024,-9.74023 -0.0189,-5.95393 -0.35723,-9.11254 -1.11914,-10.44531 -1.56708,-2.74133 -1.51726,-2.80957 2.48243,-3.34766 4.48543,-0.60344 10.9507,-4.21567 13.20312,-7.37891 4.27617,-6.00532 5.12899,-17.07318 1.79883,-23.33593 -1.5917,-2.99339 -1.9714,-4.69833 -1.86719,-8.37305 0.072,-2.53795 -0.23403,-5.57402 -0.67969,-6.74609 -0.72511,-1.90719 -1.07014,-2.07574 -3.28906,-1.61524 -1.36366,0.28309 -4.19958,1.4463 -6.30078,2.58594 -2.8892,1.56707 -4.37781,1.94486 -6.11133,1.54687 -3.47494,-0.7977 -15.73203,-0.80093 -18.50976,-0.004 -2.06004,0.59081 -3.10952,0.3504 -6.53321,-1.50391 -2.24302,-1.21489 -5.23227,-2.30609 -6.64258,-2.42383 -2.34905,-0.19615 -2.62315,0.0121 -3.28124,2.46094 -0.3951,1.4708 -0.52711,4.31328 -0.29297,6.31836 0.35308,3.02385 0.11316,4.10882 -1.41016,6.35352 -4.61598,6.80201 -3.00672,20.50735 3.11914,26.5625 2.84004,2.80728 6.99534,4.90948 10.95703,5.54297 1.72884,0.27628 3.26275,0.7166 3.41016,0.97656 0.14744,0.26003 -0.34308,1.88939 -1.08985,3.62109 -1.13924,2.64174 -1.80532,3.23218 -4.13867,3.66992 -3.49768,0.65617 -5.58677,0.0343 -8.25195,-2.46289 -1.15566,-1.082 -2.10156,-1.53928 -2.10156,-1.01562 0,0.52365 -0.3806,0.71716 -0.84571,0.42968 -0.59001,-0.36472 -0.53187,-0.72864 0.19141,-1.20312 1.62135,-1.06356 -3.34801,-5.24219 -6.23437,-5.24219 -2.88659,0 -2.88431,0.79603 0.01,2.93555 1.2596,0.93124 3.16203,3.4149 4.22852,5.51953 2.59664,5.12425 5.4963,6.82055 11.66211,6.82422 l 4.81054,0.004 -0.22461,5.15625 c -0.21365,4.87683 -0.33118,5.16983 -2.15625,5.38281 -1.07617,0.12548 -4.33902,-0.97828 -7.37304,-2.4961 v -0.002 c -18.13722,-9.0737 -28.61981,-29.79691 -25.17383,-49.76562 3.18921,-18.4808 17.06316,-33.49872 35.20898,-38.11133 2.9181,-0.74177 7.0156,-1.11133 11.11133,-1.11133 z m 87.48633,17.14648 c 5.78455,0 10.25415,0.38279 12.11133,1.03907 2.74004,0.96824 2.91133,1.20311 2.47265,3.39648 -1.007,5.03497 -2.07418,8.20138 -2.64648,7.84766 -1.93106,-1.19346 -10.98319,-1.91162 -14.52344,-1.15235 -6.97977,1.49689 -10.01367,6.80607 -10.01367,17.52149 0,7.41214 1.09604,11.19178 4.12695,14.22265 2.61072,2.61075 7.7862,3.9756 11.51758,3.03907 1.82121,-0.4571 1.91992,-0.75683 1.91992,-5.81641 v -5.33203 h -3.82031 -3.82031 v -5.34961 -5.34766 h 9.93359 9.93359 v 14.56055 14.55859 l -3.63085,1.64454 c -4.64079,2.10255 -18.76248,2.72566 -23.33985,1.02929 -10.38595,-3.84899 -15.02977,-12.25483 -15.03125,-27.20898 -0.002,-13.27412 3.86798,-22.1338 11.51563,-26.36914 3.93774,-2.18075 4.54314,-2.28321 13.29492,-2.28321 z m 158.90234,1.23047 c 0.54048,0.006 1.08517,0.0258 1.60352,0.0586 l 3.76953,0.23828 0.21289,9.31054 0.21484,9.3125 2.62696,-1.09765 c 3.51723,-1.46959 10.60613,-1.39354 13.85547,0.14844 1.60338,0.76085 3.43359,2.61909 4.70117,4.77539 1.95919,3.33267 2.07422,4.06317 2.07422,13.09961 0,8.71071 -0.17192,9.90499 -1.91016,13.28125 -2.52359,4.90114 -5.63572,6.57101 -12.21289,6.54882 -3.29753,-0.0113 -6.10241,-0.52821 -8.30859,-1.52929 -3.99077,-1.81085 -3.92774,-1.80512 -3.92774,-0.36524 0,0.87984 -0.97703,1.14649 -4.20312,1.14649 h -4.20313 v -27.10938 -27.10937 l 1.76953,-0.44531 c 0.73007,-0.18312 2.31608,-0.28152 3.9375,-0.26368 z m -89.37304,0.29688 h 5.73046 5.73047 l 0.21485,10.12304 0.21289,10.125 h 7.5957 7.5957 l 0.21485,-10.125 0.21289,-10.12304 h 5.73047 5.73047 l 0.20117,27.3164 0.19922,27.31446 h -6.1211 -6.12304 v -11.84375 -11.8418 h -7.64063 -7.64062 v 11.8418 11.84375 h -6.12305 -6.1211 l 0.20118,-27.31446 z m -40.91407,1.18554 c 4.33205,-0.0181 8.36412,4.87227 5.84375,9.7461 -1.32009,2.55281 -2.56523,3.20312 -6.11914,3.20312 -1.6029,0 -3.06427,-0.62393 -4.13867,-1.76757 -2.3442,-2.49529 -2.24482,-6.88803 0.21289,-9.34571 1.27902,-1.27902 2.75716,-1.82991 4.20117,-1.83594 z m 16.14844,5.3086 h 5.69727 5.69726 v 5.34961 5.34765 h 4.20313 4.20117 v 4.9668 4.9668 h -4.20117 -4.20313 v 8.38672 c 0,8.05266 0.0757,8.43623 1.86914,9.61132 1.02738,0.67321 2.83088,1.11084 4.00977,0.97266 2.09126,-0.24529 2.14956,-0.15075 2.3789,3.87891 0.15859,2.78676 -0.0895,4.33613 -0.76367,4.76367 -1.77437,1.12532 -10.76864,0.70344 -13.48047,-0.63281 -4.44847,-2.19194 -5.04998,-3.93437 -5.47461,-15.86524 l -0.38281,-10.73437 -2.86523,-0.23633 -2.86524,-0.23633 v -4.02148 c 0,-4.0119 0.007,-4.02438 2.86524,-4.73047 l 2.86523,-0.70703 0.22461,-5.53907 z m 68.58594,10.63086 5.97851,0.22461 5.97852,0.22461 0.38281,13.59179 c 0.30792,10.95413 0.60367,13.73188 1.52735,14.31446 1.6171,1.01994 3.45879,0.91759 6.51953,-0.36133 l 2.65039,-1.10742 v -13.41016 -13.41016 h 5.73047 5.73047 v 18.72071 18.71875 h -3.84376 c -2.56467,0 -3.97995,-0.35087 -4.25,-1.05469 -0.33373,-0.86952 -1.07041,-0.80158 -4.1875,0.38281 -5.18197,1.96899 -13.24393,1.9398 -16.52148,-0.0586 -4.89959,-2.98745 -5.17341,-4.05179 -5.44726,-21.23242 z m -90.42774,0.44922 h 5.73047 5.73047 v 18.33789 18.33789 l -5.55078,0.22461 c -4.04945,0.16403 -5.65605,-0.0479 -5.9375,-0.78125 -0.21218,-0.55291 -0.29288,-8.90604 -0.17969,-18.5625 z m 147.74414,8.49804 c -0.84748,0.0207 -1.79561,0.16898 -2.85351,0.4375 l -3.15625,0.80078 v 8.67188 8.67188 l 2.48437,0.71679 c 3.91465,1.13031 5.80638,0.96898 7.40625,-0.63086 1.89419,-1.89418 2.64967,-5.93916 2.10157,-11.25 -0.53771,-5.20991 -2.31001,-7.5075 -5.98243,-7.41797 z m -281.83984,28.5586 c 0.42024,0 0.76367,0.3435 0.76367,0.76367 0,0.42021 -0.34342,0.76562 -0.76367,0.76562 -0.42024,0 -0.76367,-0.34553 -0.76367,-0.76562 0,-0.42028 0.34342,-0.76367 0.76367,-0.76367 z m 3.39258,2.29297 c 0.65516,0 1.1914,0.3435 1.19141,0.76367 0,0.42024 -0.3233,0.76367 -0.71876,0.76367 -0.39543,0 -0.93168,-0.34354 -1.1914,-0.76367 -0.25973,-0.42029 0.0636,-0.76367 0.71875,-0.76367 z m 7.30469,0 c 0.42023,0 0.76367,0.3435 0.76367,0.76367 0,0.42024 -0.34342,0.76367 -0.76367,0.76367 -0.42024,0 -0.76368,-0.34354 -0.76368,-0.76367 0,-0.42029 0.34343,-0.76367 0.76368,-0.76367 z m -3.4375,0.76367 c 0.67996,0 1.02339,0.34354 0.76367,0.76367 -0.25973,0.42025 -0.60316,0.76563 -0.76367,0.76563 -0.16052,0 -0.50591,-0.3455 -0.76563,-0.76563 -0.25973,-0.42025 0.0856,-0.76367 0.76563,-0.76367 z"
       transform="scale(0.26458333)"
       id="path834"
       inkscape:connector-curvature="0" />
  </g>
</svg>
