<?xml version="1.0" encoding="UTF-8" standalone="no"?>
<!-- Created with Inkscape (http://www.inkscape.org/) -->

<svg
   xmlns:dc="http://purl.org/dc/elements/1.1/"
   xmlns:cc="http://creativecommons.org/ns#"
   xmlns:rdf="http://www.w3.org/1999/02/22-rdf-syntax-ns#"
   xmlns:svg="http://www.w3.org/2000/svg"
   xmlns="http://www.w3.org/2000/svg"
   xmlns:sodipodi="http://sodipodi.sourceforge.net/DTD/sodipodi-0.dtd"
   xmlns:inkscape="http://www.inkscape.org/namespaces/inkscape"
   width="336.3988mm"
   height="151.94643mm"
   viewBox="0 0 336.3988 151.94643"
   version="1.1"
   id="svg8"
   inkscape:version="0.92.5 (2060ec1f9f, 2020-04-08)"
   sodipodi:docname="wgswes.svg"
   inkscape:export-filename="/dev/datasets/FairWind/.cloud/core/labjournal/data/docs/wgswes.png"
   inkscape:export-xdpi="150"
   inkscape:export-ydpi="150">
  <defs
     id="defs2">
    <marker
       inkscape:stockid="Arrow1Mend"
       orient="auto"
       refY="0"
       refX="0"
       id="Arrow1Mend"
       style="overflow:visible"
       inkscape:isstock="true">
      <path
         id="path861"
         d="M 0,0 5,-5 -12.5,0 5,5 Z"
         style="fill:#000000;fill-opacity:1;fill-rule:evenodd;stroke:#000000;stroke-width:1.00000003pt;stroke-opacity:1"
         transform="matrix(-0.4,0,0,-0.4,-4,0)"
         inkscape:connector-curvature="0" />
    </marker>
    <marker
       inkscape:stockid="Arrow1Lstart"
       orient="auto"
       refY="0"
       refX="0"
       id="marker1346"
       style="overflow:visible"
       inkscape:isstock="true">
      <path
         id="path1344"
         d="M 0,0 5,-5 -12.5,0 5,5 Z"
         style="fill:#000000;fill-opacity:1;fill-rule:evenodd;stroke:#000000;stroke-width:1.00000003pt;stroke-opacity:1"
         transform="matrix(0.8,0,0,0.8,10,0)"
         inkscape:connector-curvature="0" />
    </marker>
    <marker
       inkscape:stockid="Arrow1Lstart"
       orient="auto"
       refY="0"
       refX="0"
       id="marker1300"
       style="overflow:visible"
       inkscape:isstock="true">
      <path
         id="path1298"
         d="M 0,0 5,-5 -12.5,0 5,5 Z"
         style="fill:#000000;fill-opacity:1;fill-rule:evenodd;stroke:#000000;stroke-width:1.00000003pt;stroke-opacity:1"
         transform="matrix(0.8,0,0,0.8,10,0)"
         inkscape:connector-curvature="0" />
    </marker>
    <marker
       inkscape:stockid="Arrow1Lstart"
       orient="auto"
       refY="0"
       refX="0"
       id="marker1260"
       style="overflow:visible"
       inkscape:isstock="true">
      <path
         id="path1258"
         d="M 0,0 5,-5 -12.5,0 5,5 Z"
         style="fill:#000000;fill-opacity:1;fill-rule:evenodd;stroke:#000000;stroke-width:1.00000003pt;stroke-opacity:1"
         transform="matrix(0.8,0,0,0.8,10,0)"
         inkscape:connector-curvature="0" />
    </marker>
    <marker
       inkscape:stockid="Arrow1Lend"
       orient="auto"
       refY="0"
       refX="0"
       id="Arrow1Lend"
       style="overflow:visible"
       inkscape:isstock="true">
      <path
         id="path855"
         d="M 0,0 5,-5 -12.5,0 5,5 Z"
         style="fill:#000000;fill-opacity:1;fill-rule:evenodd;stroke:#000000;stroke-width:1.00000003pt;stroke-opacity:1"
         transform="matrix(-0.8,0,0,-0.8,-10,0)"
         inkscape:connector-curvature="0" />
    </marker>
    <marker
       inkscape:stockid="Arrow1Lstart"
       orient="auto"
       refY="0"
       refX="0"
       id="marker1164"
       style="overflow:visible"
       inkscape:isstock="true">
      <path
         id="path1162"
         d="M 0,0 5,-5 -12.5,0 5,5 Z"
         style="fill:#000000;fill-opacity:1;fill-rule:evenodd;stroke:#000000;stroke-width:1.00000003pt;stroke-opacity:1"
         transform="matrix(0.8,0,0,0.8,10,0)"
         inkscape:connector-curvature="0" />
    </marker>
    <marker
       inkscape:stockid="Arrow1Lstart"
       orient="auto"
       refY="0"
       refX="0"
       id="marker1136"
       style="overflow:visible"
       inkscape:isstock="true">
      <path
         id="path1134"
         d="M 0,0 5,-5 -12.5,0 5,5 Z"
         style="fill:#000000;fill-opacity:1;fill-rule:evenodd;stroke:#000000;stroke-width:1.00000003pt;stroke-opacity:1"
         transform="matrix(0.8,0,0,0.8,10,0)"
         inkscape:connector-curvature="0" />
    </marker>
    <marker
       inkscape:stockid="Arrow1Lstart"
       orient="auto"
       refY="0"
       refX="0"
       id="Arrow1Lstart"
       style="overflow:visible"
       inkscape:isstock="true">
      <path
         id="path852"
         d="M 0,0 5,-5 -12.5,0 5,5 Z"
         style="fill:#000000;fill-opacity:1;fill-rule:evenodd;stroke:#000000;stroke-width:1.00000003pt;stroke-opacity:1"
         transform="matrix(0.8,0,0,0.8,10,0)"
         inkscape:connector-curvature="0" />
    </marker>
  </defs>
  <sodipodi:namedview
     id="base"
     pagecolor="#ffffff"
     bordercolor="#666666"
     borderopacity="1.0"
     inkscape:pageopacity="0.0"
     inkscape:pageshadow="2"
     inkscape:zoom="0.7"
     inkscape:cx="438.58254"
     inkscape:cy="432.19529"
     inkscape:document-units="mm"
     inkscape:current-layer="layer1"
     showgrid="false"
     objecttolerance="1"
     gridtolerance="1"
     guidetolerance="1"
     inkscape:window-width="1832"
     inkscape:window-height="1015"
     inkscape:window-x="88"
     inkscape:window-y="0"
     inkscape:window-maximized="1"
     fit-margin-top="0"
     fit-margin-left="0"
     fit-margin-right="0"
     fit-margin-bottom="0" />
  <metadata
     id="metadata5">
    <rdf:RDF>
      <cc:Work
         rdf:about="">
        <dc:format>image/svg+xml</dc:format>
        <dc:type
           rdf:resource="http://purl.org/dc/dcmitype/StillImage" />
        <dc:title></dc:title>
      </cc:Work>
    </rdf:RDF>
  </metadata>
  <g
     inkscape:label="Layer 1"
     inkscape:groupmode="layer"
     id="layer1"
     transform="translate(122.46429,-227.07442)">
    <rect
       style="opacity:1;vector-effect:none;fill:#ffffff;fill-opacity:1;fill-rule:evenodd;stroke:none;stroke-width:0.99999994;stroke-linecap:butt;stroke-linejoin:miter;stroke-miterlimit:4;stroke-dasharray:none;stroke-dashoffset:0;stroke-opacity:1;paint-order:fill markers stroke"
       id="rect1777"
       width="336.3988"
       height="151.94643"
       x="-122.46429"
       y="227.07442" />
    <rect
       style="opacity:1;vector-effect:none;fill:#f2f2f2;fill-opacity:1;fill-rule:evenodd;stroke:#000000;stroke-width:1;stroke-linecap:butt;stroke-linejoin:miter;stroke-miterlimit:4;stroke-dasharray:none;stroke-dashoffset:0;stroke-opacity:1;paint-order:fill markers stroke"
       id="rect838-3"
       width="288.95114"
       height="81.486916"
       x="-93.042542"
       y="244.61517" />
    <path
       style="opacity:0.903;fill:#c83737;stroke-width:1"
       d="m -20.745148,326.43304 c 39.836327,-0.0369 105.023045,-0.0369 144.859368,0 39.83632,0.0369 7.24296,0.0671 -72.429682,0.0671 -79.672654,0 -112.266013,-0.0302 -72.429686,-0.0671 z M -93.023215,308.0445 c 0.0188,-17.59051 0.0314,-18.02358 0.48621,-16.7349 0.44973,1.27434 0.86762,3.61168 1.21807,6.81303 0.0916,0.83674 0.26689,1.52135 0.38952,1.52135 0.12263,0 0.31897,-0.92273 0.4363,-2.05052 0.11733,-1.12779 0.25466,-1.72108 0.30517,-1.31843 0.0505,0.40265 0.20279,0.66351 0.33841,0.5797 0.13561,-0.0838 0.2554,0.063 0.2662,0.32624 0.0108,0.26325 0.24008,0.95488 0.50954,1.53697 l 0.48992,1.05833 0.0509,-1.45521 c 0.028,-0.80036 0.13149,-1.81239 0.22997,-2.24896 0.16673,-0.73917 0.19186,-0.70479 0.36557,0.49995 0.10259,0.71154 0.18653,1.61054 0.18653,1.99778 0,0.85318 0.53843,2.07513 0.99218,2.25174 0.18191,0.0708 0.33073,0.0134 0.33073,-0.12756 0,-0.14095 0.11907,-0.25628 0.26459,-0.25628 0.14552,0 0.26458,0.28277 0.26458,0.62838 0,0.34562 0.074,0.99818 0.164353,1.45014 l 0.16435,0.82175 0.45782,-0.59024 c 0.27034,-0.34853 0.53216,-1.33186 0.63934,-2.40124 0.0998,-0.99604 0.3539,-2.30573 0.5646,-2.91041 0.2107,-0.60468 0.396689,-1.57567 0.413313,-2.15776 0.01662,-0.58208 0.114815,-1.35598 0.218204,-1.71979 0.181472,-0.63855 0.194299,-0.63054 0.370501,0.23151 0.100387,0.49114 0.182522,1.17575 0.182522,1.52136 0,0.86894 0.469249,0.79189 0.604241,-0.0992 l 0.110223,-0.72761 0.03964,0.72761 c 0.05669,1.04055 0.833393,0.9789 0.833393,-0.0662 0,-0.91354 0.513733,-1.09571 0.559593,-0.19843 0.03274,0.64048 0.159764,0.17947 0.856629,-3.10886 0.652018,-3.0767 1.061833,-3.6032 1.338646,-1.71979 0.08555,0.58208 0.22563,1.53509 0.311286,2.11779 0.170081,1.15703 0.625404,1.19117 0.6589,0.0494 l 0.02089,-0.71199 0.22345,0.66146 c 0.122897,0.3638 0.300859,1.34767 0.395471,2.18638 0.09461,0.83871 0.282316,1.45676 0.41712,1.37345 0.134805,-0.0833 0.245099,-0.37698 0.245099,-0.65258 0,-0.27561 0.134854,-0.79708 0.299675,-1.15882 0.261594,-0.57414 0.348359,-0.60903 0.682789,-0.2746 0.533827,0.53383 0.869619,0.23557 0.869619,-0.7724 0,-0.47016 0.178594,-1.54051 0.396875,-2.37855 0.218281,-0.83803 0.396875,-1.87092 0.396875,-2.2953 0,-0.42437 0.167088,-1.28177 0.371306,-1.90532 0.204219,-0.62355 0.45182,-1.93739 0.550226,-2.91966 0.09841,-0.98226 0.27261,-1.78594 0.387121,-1.78594 0.11451,0 0.364967,1.33946 0.556571,2.97657 0.232073,1.98288 0.406683,2.75574 0.523046,2.3151 0.116837,-0.44244 0.242673,0.10642 0.380032,1.65757 0.112947,1.27547 0.31019,2.38383 0.43832,2.46301 0.128129,0.0792 0.24483,-0.0714 0.259335,-0.33465 0.01868,-0.33907 0.08815,-0.28576 0.23821,0.18282 0.202975,0.63379 0.212939,0.62641 0.238209,-0.17639 0.0145,-0.46082 0.160686,-0.88262 0.324845,-0.93734 0.164159,-0.0547 0.393241,-0.92784 0.509072,-1.94027 0.11583,-1.01244 0.383027,-2.4361 0.59377,-3.16371 l 0.38317,-1.32292 0.296908,1.05834 c 0.163299,0.58208 0.313245,1.53458 0.333214,2.11666 l 0.0363,1.05834 0.194923,-0.92604 c 0.149043,-0.70807 0.203122,-0.77402 0.229754,-0.28016 0.03374,0.62569 0.04697,0.62982 0.423291,0.13229 0.35923,-0.47495 0.391401,-0.41405 0.427567,0.80932 0.02151,0.72761 0.09356,1.11456 0.160107,0.8599 0.155675,-0.59571 0.537887,-0.59571 0.693563,0 0.06974,0.26686 0.137975,0.12675 0.161068,-0.33073 0.03945,-0.78155 0.04517,-0.78457 0.371951,-0.19616 0.182536,0.32868 0.595034,0.78192 0.916665,1.00719 0.321632,0.22528 0.584784,0.63124 0.584784,0.90213 0,1.23013 0.66775,1.79264 0.871609,0.73424 0.09271,-0.48133 0.12156,-0.44756 0.150694,0.17639 0.01982,0.42443 0.105807,0.70192 0.191087,0.61664 0.214138,-0.21414 0.884634,-5.34659 0.894895,-6.85014 0.0057,-0.84208 0.13321,-1.27637 0.405257,-1.38076 0.248467,-0.0954 0.406736,-0.52642 0.423249,-1.15279 0.0145,-0.55027 0.111379,-1.29814 0.215275,-1.66195 0.145698,-0.51016 0.230439,-0.27435 0.370501,1.031 0.09988,0.93085 0.18291,2.30007 0.184513,3.04271 0.0038,1.74576 0.27305,3.35882 0.533821,3.19766 0.195193,-0.12064 0.558421,1.36175 1.038434,4.23801 0.121427,0.7276 0.342238,1.6801 0.490688,2.11666 l 0.269909,0.79375 0.04134,-1.05833 c 0.02273,-0.58208 0.13203,-1.29008 0.242874,-1.57333 0.192363,-0.49156 0.208455,-0.48855 0.35351,0.0661 0.259937,0.99401 0.730446,0.64607 0.734729,-0.54334 0.004,-1.11737 0.247105,-1.79133 0.676143,-1.87468 0.263152,-0.0511 0.612005,1.22329 0.893403,3.26374 0.19935,1.44551 0.200948,1.44759 0.239588,0.31183 0.02141,-0.62885 0.208933,-1.31341 0.41675,-1.52123 0.327414,-0.32741 0.404355,-0.17478 0.576387,1.14338 0.194905,1.49343 0.203205,1.50551 0.454173,0.66134 0.1406,-0.47295 0.361313,-0.8599 0.490472,-0.8599 0.129159,0 0.342513,-0.26789 0.474122,-0.59531 0.231818,-0.57674 0.239811,-0.5731 0.256056,0.11667 0.01627,0.69033 0.545939,1.37522 0.545939,0.70592 0,-0.48481 0.455313,0.0588 0.585239,0.69876 0.118566,0.58399 1.002261,-2.06259 1.002261,-3.00167 0,-0.29643 0.110294,-0.60714 0.245099,-0.69045 0.134803,-0.0833 0.320723,0.53473 0.413155,1.37344 0.09243,0.83871 0.191569,1.70061 0.220303,1.91534 0.03084,0.23053 0.293235,0.0138 0.640717,-0.52917 l 0.588478,-0.91957 0.0044,0.97974 c 0.0024,0.53885 0.116584,1.25323 0.253627,1.5875 0.137041,0.33427 0.336021,1.32213 0.442172,2.19526 0.157401,1.29465 0.221255,1.44384 0.346144,0.80875 0.08423,-0.42831 0.267554,-0.74692 0.407395,-0.70803 0.139837,0.0389 0.339828,-0.14644 0.444423,-0.41187 0.17462,-0.44313 0.191693,-0.44473 0.208767,-0.0196 0.01024,0.25466 0.123348,0.46302 0.25138,0.46302 0.12803,0 0.299038,-0.68461 0.380019,-1.52135 0.08098,-0.83675 0.390985,-2.77151 0.688903,-4.29948 0.297918,-1.52797 0.547251,-3.25438 0.55407,-3.83646 0.01085,-0.92639 0.04981,-0.99236 0.312472,-0.52917 0.16504,0.29104 0.381691,0.5887 0.481447,0.66146 0.09976,0.0728 0.242676,0.31089 0.317595,0.52917 0.07492,0.21828 0.226147,-0.43657 0.336055,-1.45521 0.309089,-2.86463 0.58833,-2.88291 0.800539,-0.0524 0.199779,2.66467 0.657524,3.28649 0.660094,0.89669 7.93e-4,-0.7554 0.147288,-1.8497 0.325506,-2.43178 l 0.32403,-1.05834 0.159181,1.5875 c 0.08755,0.87313 0.18102,1.28985 0.207714,0.92605 0.02669,-0.36381 0.163944,-0.84006 0.305009,-1.05834 0.184713,-0.28582 0.258746,-0.0267 0.264583,0.92604 0.01199,1.95488 0.410467,2.32204 0.669888,0.61722 l 0.214715,-1.41097 0.179289,1.65788 c 0.181589,1.67912 0.523619,2.5549 0.523619,1.34074 0,-0.98372 0.324233,-1.12523 0.671039,-0.29288 l 0.305765,0.73385 0.158319,-0.79375 c 0.08708,-0.43656 0.237122,-2.78726 0.333439,-5.22378 0.09835,-2.48811 0.278783,-4.36595 0.411609,-4.28386 0.130072,0.0804 0.236495,0.44382 0.236495,0.80762 0,0.92806 0.43438,0.55699 0.641713,-0.54819 0.308991,-1.64707 0.600834,-1.2328 0.780785,1.1083 0.09702,1.26219 0.277707,2.35986 0.401529,2.43927 0.12382,0.0794 0.320543,1.45408 0.437163,3.0548 0.116618,1.60073 0.259602,2.70206 0.317738,2.4474 0.123413,-0.54058 0.596072,-0.62799 0.596072,-0.11024 0,0.19403 0.178594,0.35278 0.396875,0.35278 0.259395,0 0.396875,-0.25969 0.396875,-0.74966 0,-0.96491 0.520925,-0.98562 0.55458,-0.022 0.02442,0.69886 0.0427,0.68846 0.463021,-0.26323 0.552969,-1.25204 0.775465,-1.25237 0.906325,-0.001 0.077,0.73607 0.115268,0.59948 0.148264,-0.52917 0.02447,-0.83674 0.148657,-1.52135 0.275987,-1.52135 0.127331,0 0.319532,-0.38695 0.427112,-0.8599 0.192611,-0.84674 0.198628,-0.84977 0.393316,-0.19843 0.176694,0.59113 0.209685,0.54893 0.31029,-0.39688 0.112144,-1.05428 0.113348,-1.05529 0.314294,-0.26458 0.510558,2.00902 0.808849,2.77317 0.976579,2.50178 0.219837,-0.35571 0.51349,1.28512 0.52297,2.92218 0.0071,1.23582 0.758942,3.84613 0.781066,2.71198 0.01588,-0.81391 0.491329,-0.75217 0.703022,0.0913 0.127323,0.5073 0.231227,0.59367 0.397864,0.33073 0.148199,-0.23384 0.237665,0.007 0.260895,0.70246 0.01945,0.58209 0.114883,1.41553 0.21208,1.85209 l 0.176726,0.79375 0.314293,-0.87974 c 0.389326,-1.08977 0.844738,-0.86963 0.894403,0.43233 0.03459,0.90686 0.05282,0.88214 0.255291,-0.34634 0.689266,-4.18201 0.746535,-4.31772 1.116481,-2.64584 0.06933,0.31335 0.136535,0.15148 0.164769,-0.39687 0.02622,-0.50932 0.195313,-1.62558 0.375751,-2.48056 l 0.32807,-1.55453 0.316399,1.05606 c 0.174022,0.58083 0.318225,1.33989 0.320453,1.68681 0.0021,0.34692 0.119467,0.80936 0.260532,1.02764 0.190778,0.29521 0.257519,0.14271 0.260533,-0.59532 0.0021,-0.5457 0.114382,-0.99218 0.249235,-0.99218 0.13485,0 0.283678,-0.19986 0.330729,-0.44413 0.07915,-0.41091 0.120179,-0.40949 0.548566,0.0189 0.440973,0.44098 0.463571,0.42118 0.474564,-0.41577 0.0063,-0.48334 0.172744,-1.59317 0.369763,-2.46629 0.347094,-1.5382 0.359638,-1.55463 0.403927,-0.52917 0.02513,0.58208 0.143901,1.29646 0.263914,1.5875 0.208356,0.50529 0.229565,0.49989 0.47005,-0.11964 0.210389,-0.54199 0.275453,-0.35477 0.395219,1.13726 0.08169,1.01766 0.313314,1.97977 0.538387,2.2363 0.217263,0.24764 0.481653,0.73387 0.587534,1.08052 0.242935,0.79535 0.639498,0.28066 0.68947,-0.89486 0.02759,-0.64901 0.09345,-0.55251 0.361175,0.52917 0.180088,0.7276 0.424857,1.6142 0.543927,1.9702 0.201798,0.60336 0.230172,0.61234 0.418029,0.1323 0.13476,-0.34436 0.214434,-0.0328 0.240466,0.94021 l 0.03893,1.45521 0.3488,-1.05834 0.348797,-1.05833 0.03968,1.05833 0.03968,1.05834 0.363453,-0.79375 c 0.237056,-0.51772 0.370925,-0.63273 0.38494,-0.33073 0.01183,0.25466 0.156352,0.46302 0.321183,0.46302 0.537233,0 1.242533,1.06806 1.452641,2.19979 l 0.205611,1.1075 0.188473,-1.32292 c 0.103661,-0.7276 0.210772,-2.27541 0.238025,-3.43958 0.02725,-1.16417 0.130267,-2.4055 0.228914,-2.75851 0.269479,-0.96432 0.805294,-0.98417 0.994757,-0.0369 0.09042,0.4521 0.268084,0.88608 0.394809,0.9644 0.126724,0.0783 0.230409,0.37349 0.230409,0.65595 0,0.63962 0.453396,0.67816 0.594355,0.0505 0.0572,-0.25466 0.197691,0.63913 0.312219,1.98621 0.114525,1.34708 0.314584,2.51496 0.444577,2.5953 0.129992,0.0803 0.247086,-0.12884 0.260212,-0.46485 0.01892,-0.48434 0.07582,-0.43079 0.274593,0.25839 0.1379,0.47813 0.357968,0.80305 0.489042,0.72204 0.131072,-0.081 0.361072,0.0636 0.511112,0.3213 0.217974,0.37442 0.280733,0.38883 0.312277,0.0717 0.07664,-0.77049 0.720069,2.26694 0.756642,3.57188 0.04335,1.54684 0.62141596,3.93432 0.88803696,3.66769 0.101211,-0.1012 0.184018,-1.10705 0.184018,-2.23521 0,-2.09258 0.520887,-4.68599 1.20411,-5.99505 0.209291,-0.401 0.45395404,-1.11605 0.54369504,-1.58899 0.09089,-0.47901 0.325922,-0.8599 0.530598,-0.8599 0.278226,0 0.36743,-0.44585 0.36743,-1.83647 0,-1.7381 0.346276,-2.68636 0.610743,-1.6725 0.06689,0.25644 0.147621,-0.01 0.179398,-0.59207 l 0.05777,-1.05834 0.251259,0.92605 c 0.138192,0.50932 0.346051,1.64041 0.461912,2.51354 0.19861,1.49671 0.222528,1.53773 0.4182586,0.71727 0.418391,-1.75383 1.096449,-0.48158 1.168863,2.19314 l 0.03581,1.32292 0.761299,-1.29316 0.7612961,-1.29316 0.1910397,2.88066 c 0.2175483,3.28039 0.6379739,4.59642 0.6505469,2.03638 0.010451,-2.12638 0.5262271,-2.51519 0.5679043,-0.4281 0.01688,0.84533 0.085143,1.32861 0.1516936,1.07394 0.066548,-0.25466 0.2201386,-0.46302 0.3413098,-0.46302 0.3377777,0 1.0599526,-2.34295 1.0951077,-3.55286 0.029969,-1.03133 0.039934,-1.04344 0.2332803,-0.2836 l 0.201975,0.79375 0.0313,-0.87829 c 0.02681,-0.75234 0.116681,-0.86618 0.626615,-0.79375 0.52727,0.0749 0.620356,0.29624 0.814412,1.93663 0.248179,2.09792 0.43194,2.41475 1.171104,2.01916 0.453734,-0.24283 0.545505,-0.67717 0.711044,-3.36536 0.201255,-3.26814 0.322728,-3.89976 0.704601,-3.66375 0.130273,0.0805 0.23686,-0.21409 0.23686,-0.65467 0,-0.60336 0.09795,-0.76348 0.396875,-0.64877 0.218281,0.0838 0.396875,0.0403 0.396875,-0.0965 0,-0.13684 0.174927,-0.24879 0.388726,-0.24879 0.278209,0 0.443468,0.4576 0.581279,1.60955 l 0.192556,1.60954 0.341799,-1.82707 c 0.187989,-1.00489 0.393732,-1.879 0.457205,-1.94248 0.06347,-0.0635 0.191434,0.46106 0.284361,1.16562 0.09292,0.70456 0.192741,1.4594 0.221816,1.67742 0.02907,0.21802 0.28565,0.39661 0.570167,0.39687 0.423468,4e-4 0.570042,0.28844 0.808045,1.58798 l 0.29074,1.5875 0.153369,-1.45521 c 0.226872,-2.15265 0.886663,-4.74134 1.045247,-4.10104 0.117094,0.47277 0.170495,0.44741 0.501078,-0.238 l 0.370015,-0.76716 0.177718,0.63487 c 0.144597,0.51656 0.182631,0.44706 0.204089,-0.37293 0.03908,-1.49341 0.55554,-0.92463 0.55554,0.61182 0,2.23775 0.822449,10.1221 1.213197,11.63022 0.205867,0.79455 0.374443,1.80658 0.374615,2.24895 5.29e-4,1.63082 1.013249,5.98147 1.075008,4.61872 0.0093,-0.20615 0.166018,-1.08136 0.348162,-1.94489 l 0.331174,-1.57007 0.599929,0.59993 c 0.329962,0.32996 0.650005,0.54985 0.711205,0.48865 0.0612,-0.0612 0.230347,-1.05039 0.375873,-2.19819 0.380344,-2.99984 0.432488,-3.1209 1.069787,-2.4836 0.283599,0.2836 0.515633,0.69423 0.515633,0.91251 0,0.21828 0.142208,0.36711 0.316021,0.33073 0.453147,-0.0949 0.67514,1.15804 0.71101,4.01285 0.01722,1.37032 0.07832,2.44188 0.135784,2.38125 0.105447,-0.11126 0.870278,-8.54813 1.041365,-11.48733 0.05082,-0.87312 0.349581,-2.71019 0.663906,-4.08238 0.314322,-1.37218 0.571497,-3.06882 0.571497,-3.77031 0,-0.70149 0.113382,-1.27543 0.251958,-1.27543 0.138578,0 0.287406,-0.74414 0.330729,-1.65365 l 0.07877,-1.65365 0.33274,1.98438 c 0.183009,1.09141 0.571894,3.29406 0.864192,4.89479 0.292301,1.60073 0.529519,3.11878 0.527156,3.37344 -0.0024,0.25466 0.114766,0.46302 0.260287,0.46302 0.145521,0 0.278669,0.62508 0.295886,1.38906 0.01722,0.76399 0.111874,1.74625 0.210346,2.18281 0.16673,0.73918 0.191868,0.7048 0.365572,-0.49994 0.10259,-0.71154 0.186529,-1.75334 0.186529,-2.31511 0,-0.97946 0.353505,-1.38268 0.60551,-0.69067 0.06624,0.1819 0.202088,-0.14553 0.301876,-0.72761 0.09979,-0.58208 0.255026,-1.35599 0.344974,-1.71979 0.153369,-0.62033 0.174932,-0.60388 0.3468,0.26458 l 0.183264,0.92604 0.03483,-0.87551 c 0.05305,-1.3334 0.559956,-0.73864 0.59037,0.69269 0.02948,1.38751 0.415263,2.97336 0.495017,2.03491 0.03489,-0.41062 0.08526,-0.44026 0.224811,-0.13229 0.09891,0.21828 0.370866,0.42788 0.604342,0.46577 0.341334,0.0554 0.457603,-0.28154 0.593432,-1.71979 0.09291,-0.98378 0.169775,-2.2422 0.170809,-2.79649 0.0011,-0.6041 0.107868,-0.9423 0.266465,-0.84429 0.145521,0.0899 0.264583,0.0374 0.264583,-0.11667 0,-0.15411 0.148828,-0.25043 0.330729,-0.21405 0.195162,0.039 0.357897,-0.25922 0.39701,-0.72761 0.269161,-3.2234 0.406744,-4.12955 0.596914,-3.93138 0.119922,0.12497 0.271438,0.52487 0.336703,0.88867 0.07837,0.43686 0.1309,0.29065 0.154697,-0.43056 0.05159,-1.56373 0.842838,-4.88426 1.12265,-4.71133 0.129964,0.0803 0.236297,0.51621 0.236297,0.96865 0,2.04629 0.986576,5.92616 1.091451,4.29231 0.06845,-1.06633 0.457626,1.93935 0.476438,3.67955 0.01619,1.49906 0.08856,1.78779 0.416486,1.66195 0.257262,-0.0987 0.398301,0.008 0.400926,0.30242 0.0028,0.30967 0.06829,0.35368 0.205422,0.13796 0.232831,-0.36626 0.710147,-0.12815 0.900176,0.44905 0.07186,0.21828 0.213755,-0.25899 0.315315,-1.06061 0.245086,-1.93449 0.667962,-2.62544 0.727294,-1.18835 0.0331,0.80164 0.07043,0.88186 0.153917,0.33073 0.137723,-0.90913 0.604242,-0.9602 0.604242,-0.0661 0,0.3638 0.103706,0.66146 0.230457,0.66146 0.126749,0 0.314283,-1.07157 0.416737,-2.38125 0.186979,-2.39015 0.549659,-3.12691 0.748906,-1.52136 0.07823,0.63041 0.119094,0.50684 0.153109,-0.46302 0.04761,-1.35747 0.555194,-2.7281 0.563407,-1.52135 0.0021,0.32742 0.123113,0.59531 0.268634,0.59531 0.14552,0 0.264583,-0.11906 0.264583,-0.26458 0,-0.14552 0.119062,-0.26459 0.264583,-0.26459 0.151686,0 0.266311,0.8185 0.268634,1.91823 0.0024,1.18039 0.09195,1.7795 0.232556,1.55756 0.192918,-0.3045 0.250957,-0.3045 0.372681,0 0.118235,0.29578 0.194676,0.28926 0.424852,-0.0362 0.224764,-0.31782 0.285642,-0.23876 0.305613,0.39687 l 0.02495,0.79375 0.266295,-0.72925 c 0.14646,-0.40109 0.35791,-0.67263 0.46989,-0.60342 0.111976,0.0692 0.287678,-0.97185 0.390448,-2.31346 0.300725,-3.9258 0.533447,-5.49501 0.815967,-5.50194 0.145521,-0.004 0.400433,0.68408 0.566473,1.52809 0.166042,0.84401 0.318656,1.29644 0.339145,1.0054 0.03676,-0.52224 0.04234,-0.52245 0.425712,-0.0156 0.22497,0.29744 0.388461,1.08796 0.388461,1.87831 0,2.34199 0.330399,5.40386 0.567317,5.25744 0.12454,-0.077 0.235834,-0.46034 0.247322,-0.85193 l 0.02088,-0.71199 0.222028,0.66146 c 0.122115,0.3638 0.300744,1.12947 0.396951,1.70148 0.127969,0.76085 0.239234,0.93841 0.414491,0.66146 0.180629,-0.28543 0.241562,-0.21583 0.247671,0.28289 0.01146,0.93431 0.400318,1.51116 0.624639,0.92659 0.09301,-0.24239 0.169111,-0.73713 0.169111,-1.09942 0,-0.56666 0.05211,-0.60661 0.372849,-0.28587 0.205065,0.20507 0.426976,0.66005 0.493135,1.01109 0.117325,0.62251 0.121174,0.62101 0.156319,-0.0611 0.07014,-1.36121 0.738719,-1.06983 1.495237,0.65165 0.605115,1.37695 0.752597,1.55159 0.934008,1.10598 0.118483,-0.29104 0.235485,-0.94589 0.259998,-1.45521 l 0.04457,-0.92604 0.306298,1.14498 c 0.30558,1.14232 0.676486,1.24442 0.726458,0.19998 0.02309,-0.48252 0.05277,-0.46878 0.23821,0.11025 0.179949,0.56188 0.218607,0.5818 0.256808,0.13229 0.04433,-0.5217 0.04783,-0.52184 0.248092,-0.01 0.180827,0.4625 0.227451,0.43346 0.42477,-0.26458 l 0.221644,-0.78411 0.183262,0.92605 0.183264,0.92604 0.03888,-0.92604 c 0.02949,-0.70227 0.100859,-0.83014 0.295362,-0.52917 0.141065,0.21828 0.258305,0.71579 0.260533,1.10558 0.0021,0.38979 0.171831,0.87649 0.376898,1.08155 0.205066,0.20507 0.426977,0.66006 0.493136,1.01109 0.07423,0.39389 0.13408,0.20774 0.156319,-0.48624 0.01982,-0.61846 0.155093,-1.12448 0.300615,-1.12448 0.145521,0 0.264583,-0.23813 0.264583,-0.52917 0,-0.97794 0.528812,-0.54059 0.559859,0.46302 0.01688,0.54571 0.08542,0.78237 0.152315,0.52593 0.159231,-0.61043 0.601012,-0.32594 0.645573,0.41573 0.02207,0.36737 0.106225,0.24052 0.229753,-0.34634 0.193559,-0.91956 0.195178,-0.92049 0.231384,-0.1323 0.02006,0.43657 0.21432,1.13479 0.431704,1.5516 0.217385,0.41682 0.397069,1.13119 0.399296,1.5875 0.0031,0.63297 0.06486,0.73557 0.260533,0.43278 0.204898,-0.31706 0.263467,-0.26385 0.291224,0.26458 0.02402,0.45754 0.07224,0.51772 0.156366,0.1952 0.0669,-0.25644 0.222909,-0.40366 0.3467,-0.32716 0.12379,0.0765 0.307091,-0.51734 0.407336,-1.31967 0.100246,-0.80233 0.287608,-1.45878 0.416359,-1.45878 0.128754,0 0.234098,-0.35016 0.234098,-0.77814 0,-0.42797 0.119063,-0.85172 0.264583,-0.94166 0.145521,-0.0899 0.264584,-0.0247 0.264584,0.14499 0,0.16968 0.171315,0.24276 0.380701,0.16242 0.260718,-0.10005 0.414996,0.0786 0.489524,0.567 0.06625,0.43416 0.134644,0.19563 0.174839,-0.60982 0.03631,-0.72761 0.156504,-1.62057 0.2671,-1.98438 l 0.20108,-0.66146 0.301215,0.74353 c 0.425654,1.05069 0.740027,0.69787 0.954067,-1.07076 0.101496,-0.83867 0.353536,-1.78855 0.560091,-2.11085 0.206552,-0.3223 0.375549,-0.83535 0.375549,-1.1401 0,-0.30475 0.119063,-0.4805 0.264584,-0.39057 0.145521,0.0899 0.264583,0.45416 0.264583,0.80937 0,0.35521 0.119063,0.64584 0.264583,0.64584 0.145521,0 0.264584,0.4068 0.264584,0.904 0,0.49719 0.13739,0.94979 0.305308,1.00576 0.16792,0.056 0.382251,0.9291 0.476287,1.94028 0.168709,1.8141 0.173852,1.79387 0.38735,-1.52409 0.119001,-1.84942 0.309205,-3.75442 0.422669,-4.23333 0.195347,-0.82451 0.209846,-0.80049 0.273029,0.45217 0.03921,0.77742 0.111036,1.03471 0.174186,0.62396 0.08338,-0.54235 0.223355,-0.66865 0.624707,-0.5637 0.284488,0.0744 0.57548,0.4187 0.64665,0.76511 0.07117,0.34641 0.195778,0.94576 0.276912,1.33187 0.08113,0.38612 0.327224,3.03526 0.54687,5.88698 0.390498,5.06997 0.781489,8.55672 0.855862,7.63235 0.02048,-0.25466 0.156315,-0.46302 0.301835,-0.46302 0.145521,0 0.264584,0.60234 0.264584,1.33853 0,0.75627 0.106865,1.27248 0.245668,1.1867 0.135115,-0.0835 0.297495,0.11782 0.360841,0.4474 0.06335,0.32959 0.129778,-1.06763 0.147624,-3.10493 0.03986,-4.55041 0.583743,-12.58969 0.840976,-12.43071 0.103746,0.0641 0.274667,0.50601 0.379828,0.98198 0.105161,0.47597 0.249523,0.71657 0.320807,0.53467 0.07128,-0.1819 0.298275,-0.33073 0.504428,-0.33073 0.206156,0 0.374827,-0.23812 0.374827,-0.52916 0,-0.29105 0.101847,-0.52917 0.226325,-0.52917 0.235828,0 0.507958,1.99011 0.795946,5.82083 l 0.169074,2.24896 0.383027,-2.05052 c 0.210664,-1.12779 0.466373,-2.05052 0.568237,-2.05052 0.494001,0 1.378154,-2.38063 1.501013,-4.04155 0.130424,-1.76319 0.585844,-2.78475 0.593762,-1.33188 0.0039,0.71558 0.51244,1.90093 0.521066,1.21455 0.0062,-0.48986 0.796422,-0.0817 0.807177,0.41687 0.01291,0.59927 0.754126,-0.71327 0.800397,-1.41737 0.01913,-0.29104 0.179784,0.0661 0.357015,0.79375 l 0.322241,1.32292 0.168032,-1.05833 c 0.09242,-0.58209 0.242202,-1.74294 0.332856,-2.57969 0.161441,-1.49011 0.655916,-2.15013 0.655916,-0.87551 0,0.35521 0.09872,0.70685 0.219368,0.78142 0.216261,0.13366 0.677635,1.99332 0.975149,3.93055 0.157346,1.02452 0.657567,1.38863 0.657567,0.47863 0,-0.28245 0.119061,-0.58713 0.264583,-0.67707 0.145521,-0.0899 0.264584,-0.67739 0.264584,-1.30546 0,-2.21785 0.584181,-3.69255 0.871607,-2.20027 0.06306,0.32742 0.148747,-0.23812 0.190427,-1.25677 0.0709,-1.73228 0.0866,-1.77507 0.24363,-0.66146 l 0.16787,1.19063 0.24138,-1.45521 c 0.2381,-1.43537 0.24381,-1.44258 0.41904,-0.52917 0.17568,0.91585 0.17803,0.91293 0.21394,-0.26458 0.0445,-1.45918 0.49819,-3.175 0.83954,-3.175 0.13868,0 0.25214,-0.22539 0.25214,-0.50086 0,-0.27547 0.18833,-0.57313 0.41852,-0.66146 0.61245,-0.23502 0.63944,-0.21679 0.64388,0.43472 0.003,0.42041 0.0689,0.49308 0.22471,0.24733 0.27132,-0.42787 0.55887,2.36433 0.56716,5.50735 0.004,1.35194 0.0963,2.10635 0.2325,1.89143 0.1646,-0.25975 0.26864,-0.15119 0.3804,0.39687 0.0846,0.41493 0.25073,1.23066 0.36918,1.81274 0.11844,0.58209 0.33239,1.05834 0.47544,1.05834 0.32082,0 0.88639,-1.59953 0.90662,-2.56407 0.0147,-0.70167 0.54028,-1.36581 0.54815,-0.69269 0.003,0.25167 0.0742,0.23785 0.26054,-0.0505 0.19726,-0.30526 0.25835,-0.21363 0.26458,0.39687 0.006,0.6105 0.0673,0.70213 0.26458,0.39688 0.18815,-0.29113 0.25756,-0.10143 0.26054,0.71199 0.002,0.60987 0.12311,1.18244 0.26863,1.27238 0.14552,0.0899 0.26458,0.0247 0.26458,-0.14498 0,-0.16968 0.1786,-0.23998 0.39688,-0.15621 0.32125,0.12327 0.39765,-0.11081 0.40092,-1.22847 0.002,-0.75941 0.11947,-1.55935 0.26054,-1.77763 0.19077,-0.29521 0.25752,-0.14271 0.26053,0.59531 0.003,0.70376 0.11942,0.99219 0.40092,0.99219 0.31208,0 0.39688,-0.36748 0.39688,-1.71979 0,-0.97014 0.11533,-1.71979 0.26458,-1.71979 0.14552,0 0.26459,0.17035 0.26459,0.37855 0,0.74153 1.08726,8.73441 1.20401,8.85116 0.0654,0.0654 0.12269,-0.46649 0.12732,-1.18197 0.007,-1.14685 0.0506,-1.24532 0.3644,-0.83168 0.3339,0.44007 0.36599,0.43186 0.51714,-0.1323 0.0886,-0.33081 0.16278,-1.04957 0.16476,-1.59725 0.002,-0.54768 0.14579,-1.22344 0.31956,-1.50168 0.29233,-0.46811 0.34014,-0.47281 0.63982,-0.063 0.17814,0.24362 0.39337,0.37344 0.47833,0.28849 0.0849,-0.0849 0.33327,-1.27538 0.55182,-2.64542 0.21857,-1.37003 0.516,-3.0656 0.66094,-3.76792 0.14495,-0.70233 0.26355,-2.02356 0.26355,-2.93608 0,-1.27936 0.12112,-1.79878 0.52917,-2.26926 0.29104,-0.33557 0.53278,-0.74074 0.53721,-0.90038 0.004,-0.15963 0.12202,-0.0951 0.26133,0.14348 0.13931,0.23855 0.31853,1.6673 0.39826,3.175 0.16111,3.04656 0.5712,6.25916 0.96629,7.56992 0.19628,0.65119 0.4094,0.8599 0.87808,0.8599 0.49287,0 0.69518,-0.22885 0.99352,-1.12388 l 0.37463,-1.12388 0.17971,1.12388 c 0.18793,1.17523 0.69968,1.558 0.70668,0.52857 0.002,-0.32742 0.11947,-0.77391 0.26054,-0.99219 0.19035,-0.29456 0.26291,-0.12402 0.28141,0.66146 0.0259,1.09761 0.0702,1.06792 0.39489,-0.26459 l 0.19342,-0.79375 0.20022,0.66146 0.20022,0.66146 0.0431,-0.66146 0.0431,-0.66146 0.26052,0.65272 c 0.14329,0.35899 0.3317,1.57568 0.41869,2.70375 0.087,1.12807 0.25987,1.98818 0.38417,1.91136 0.1243,-0.0768 0.226,0.52219 0.226,1.33114 0,0.80896 0.11906,1.47083 0.26458,1.47083 0.14552,0 0.26458,0.29765 0.26458,0.66145 0,0.41158 0.14994,0.66146 0.39688,0.66146 0.28907,0 0.3994,-0.30546 0.40617,-1.12448 0.005,-0.61846 0.17952,-1.89838 0.38758,-2.84427 0.20806,-0.94588 0.39655,-2.13651 0.41889,-2.64583 l 0.0406,-0.92604 0.20198,0.79375 c 0.19652,0.77231 0.20327,0.76517 0.25005,-0.26459 0.0589,-1.29627 0.36917,-0.68649 0.66224,1.30146 0.13085,0.88758 0.26415,1.18451 0.41915,0.93371 0.32647,-0.52825 0.42272,-0.33516 0.86414,1.73358 l 0.39519,1.85209 0.0484,-1.32292 c 0.0445,-1.2152 0.07,-1.26367 0.31416,-0.59531 0.46548,1.27447 0.7755,0.94971 1.13657,-1.19063 0.21939,-1.30042 0.62282,-1.26426 0.83698,0.075 0.0939,0.58696 0.21648,1.02137 0.27249,0.96536 0.056,-0.056 0.224,-1.16133 0.3733,-2.45626 0.1493,-1.29493 0.37756,-2.59254 0.50726,-2.88359 0.12969,-0.29104 0.31251,-1.33283 0.40627,-2.3151 0.0938,-0.98227 0.26473,-1.78594 0.37992,-1.78594 0.11519,0 0.29385,-1.19062 0.39702,-2.64583 0.29125,-4.10804 0.68756,-3.41116 1.09089,1.91823 0.1685,2.2265 0.47908,2.96873 0.71964,1.71979 0.0631,-0.32742 0.13088,0.26086 0.15069,1.3073 0.0198,1.04644 0.1551,1.9762 0.30062,2.06614 0.14552,0.0899 0.26458,0.45143 0.26458,0.80332 0,0.35189 0.29766,1.43061 0.66146,2.39714 0.3638,0.96653 0.67219,2.13011 0.68532,2.58573 l 0.0239,0.82839 0.26457,-0.92604 c 0.14552,-0.50932 0.35927,-1.0451 0.475,-1.19063 0.11574,-0.14552 0.3552,-1.13556 0.53214,-2.20009 0.17694,-1.06452 0.38015,-1.87706 0.45159,-1.80562 0.0714,0.0714 0.29226,0.58523 0.49073,1.14176 l 0.36085,1.01187 0.0116,-1.27238 c 0.0133,-1.46012 0.388,-1.4531 0.67697,0.0127 0.10791,0.54731 0.25039,0.84628 0.31663,0.66438 0.30655,-0.84179 0.53992,-0.1341 0.68275,2.07041 0.0856,1.32062 0.26563,2.54101 0.40017,2.71197 0.13454,0.17097 0.3269,1.91819 0.42746,3.88272 0.10057,1.96453 0.33211,5.06016 0.51454,6.87917 l 0.33168,3.30729 0.16842,-5.68854 c 0.23836,-8.05105 0.67169,-14.60328 0.9866,-14.91819 0.14789,-0.14789 0.26889,-0.66883 0.26889,-1.15763 0,-0.52512 0.10825,-0.82184 0.26458,-0.72522 0.16124,0.0996 0.26459,-0.29585 0.26459,-1.01248 0,-0.6468 0.16421,-1.49252 0.36492,-1.87939 0.36024,-0.69436 0.36693,-0.6854 0.52011,0.69736 0.0853,0.77042 0.2414,2.35326 0.34681,3.51742 0.14914,1.64737 0.23221,1.94068 0.37463,1.32292 0.10065,-0.43656 0.19709,-1.41883 0.21431,-2.18281 0.0303,-1.34406 0.56047,-2.04711 0.56047,-0.74322 0,0.35521 0.11906,0.71943 0.26458,0.80936 0.14552,0.0899 0.26458,0.43431 0.26458,0.76527 0,0.96372 0.7898,0.75619 0.81464,-0.21405 l 0.0209,-0.8158 0.26629,0.72925 c 0.33346,0.91318 0.73917,0.69916 0.7851,-0.41413 l 0.0348,-0.84429 0.19492,0.92605 c 0.17919,0.85128 0.19893,0.80857 0.24454,-0.52917 0.0273,-0.80036 0.26594,-1.9889 0.53035,-2.64118 l 0.48074,-1.18597 0.18896,1.11844 c 0.10392,0.61514 0.2873,1.17922 0.40749,1.2535 0.1202,0.0743 0.29546,0.5903 0.38946,1.1467 0.23854,1.41193 0.80777,2.99185 1.00637,2.79324 0.0913,-0.0913 0.23949,0.17555 0.3294,0.5929 0.0899,0.41736 0.27431,1.03232 0.40975,1.36659 0.13545,0.33427 0.26036,1.3463 0.27758,2.24896 0.025,1.31026 0.072,1.48114 0.23329,0.84744 0.11107,-0.43656 0.21788,-0.61515 0.23732,-0.39687 0.0314,0.35278 0.0639,0.35278 0.29183,0 0.21119,-0.32678 0.25721,-0.33068 0.26054,-0.0221 0.008,0.72333 0.2923,0.0762 0.52808,-1.20128 0.38219,-2.07079 0.99217,-4.6144 1.14265,-4.76488 0.0764,-0.0764 0.21599,0.67421 0.31031,1.66792 0.24938,2.62753 0.30223,2.74883 0.52997,1.21647 0.11314,-0.76121 0.30973,-1.31973 0.43687,-1.24115 0.12714,0.0786 0.23117,-0.22883 0.23117,-0.68313 0,-0.70473 0.0874,-0.81384 0.59531,-0.74322 0.55427,0.0771 0.60001,-0.0267 0.66342,-1.50472 0.0829,-1.93226 0.25998,-2.77813 0.58163,-2.77813 0.13353,0 0.2908,0.38696 0.34949,0.8599 0.0952,0.76699 0.11129,0.74169 0.14905,-0.23421 0.0233,-0.60175 0.20369,-1.47782 0.40089,-1.94681 0.34902,-0.83007 0.36324,-0.83615 0.53553,-0.22882 0.0974,0.34315 0.25176,2.08242 0.34313,3.86505 0.0914,1.78263 0.25882,3.24114 0.3721,3.24114 0.11329,0 0.24441,0.26789 0.29138,0.59532 0.063,0.43946 0.24103,0.57881 0.67986,0.53228 0.52091,-0.0552 0.5949,0.0594 0.59807,0.92604 0.002,0.54399 0.0856,1.28673 0.18572,1.65053 0.1493,0.54228 0.23207,0.37919 0.45941,-0.90513 0.26108,-1.47495 0.91402,-2.35928 0.95965,-1.29973 0.0143,0.33257 0.10443,0.25631 0.28663,-0.24254 0.14616,-0.40018 0.37488,-0.7276 0.50828,-0.7276 0.13339,0 0.25472,-0.62508 0.26961,-1.38906 0.0267,-1.36967 0.0306,-1.37614 0.28111,-0.46302 0.13972,0.50932 0.33683,1.33609 0.43802,1.83727 l 0.18399,0.91123 0.43093,-0.65768 c 0.23701,-0.36172 0.47894,-0.89083 0.53762,-1.17581 0.0587,-0.28498 0.26819,0.43436 0.46557,1.59853 0.19737,1.16417 0.49029,2.35479 0.65093,2.64583 0.24608,0.44589 0.32048,0.25851 0.47283,-1.19062 0.0994,-0.94589 0.2929,-2.25558 0.4299,-2.91042 0.21696,-1.03689 0.25688,-1.08813 0.30924,-0.39687 l 0.0601,0.79375 0.27273,-0.92605 c 0.15,-0.50932 0.42982,-1.40229 0.6218,-1.98437 0.33377,-1.01187 0.34983,-1.02349 0.36579,-0.26458 0.009,0.43656 0.13208,0.97234 0.27315,1.19062 0.19119,0.29583 0.25752,0.14824 0.26054,-0.5797 0.004,-1.04754 0.52753,-1.71663 0.54163,-0.69269 0.008,0.56826 0.0333,0.57816 0.36441,0.14175 0.3339,-0.44008 0.36597,-0.43187 0.51713,0.13229 0.0886,0.33081 0.16459,1.01819 0.16883,1.52752 0.01,1.15166 0.37309,1.84549 0.62418,1.19117 0.093,-0.24239 0.17851,-0.69885 0.18999,-1.01437 0.0114,-0.31552 0.0812,-0.42411 0.15492,-0.2413 0.0737,0.18281 0.24288,0.26508 0.37597,0.18282 0.13308,-0.0823 0.24381,0.30396 0.24604,0.85825 0.003,0.75459 0.0695,0.90809 0.26458,0.61093 0.21323,-0.32482 0.30189,-0.3328 0.48829,-0.044 0.30371,0.47058 0.56599,-0.19344 0.56599,-1.43289 0,-0.49742 0.11907,-0.9044 0.26459,-0.9044 0.14552,0 0.26458,0.0652 0.26458,0.14494 0,0.97071 0.90056,7.49776 1.08101,7.83494 0.13306,0.2486 0.24191,1.16446 0.24191,2.03525 0,2.21705 0.14576,2.5067 0.90395,1.7963 0.48948,-0.45862 0.6405,-0.96736 0.79216,-2.66872 0.18933,-2.12406 0.66069,-3.66461 0.67709,-2.21302 0.009,0.77581 0.41103,1.21195 0.62601,0.67873 0.0737,-0.18281 0.16213,2.46559 0.19653,5.88533 0.0649,6.45813 0.16346,6.41794 0.74115,-0.30237 0.14565,-1.69426 0.44389,-4.55176 0.66276,-6.35 0.21889,-1.79823 0.47476,-4.69826 0.56861,-6.44451 0.17947,-3.33939 0.55883,-6.82381 0.61788,-5.67531 0.019,0.37108 0.1533,0.79331 0.29829,0.93829 0.145,0.14498 0.39066,0.97247 0.54595,1.83885 0.43053,2.40188 0.78044,3.58933 1.01494,3.44439 0.11676,-0.0722 0.28371,1.2637 0.37097,2.96858 0.14356,2.80469 0.3238,4.08388 0.97726,6.93624 l 0.21217,0.92604 0.0273,-1.10886 c 0.0151,-0.60988 0.13268,-1.17396 0.26143,-1.25353 0.38185,-0.23599 0.55869,-1.62587 0.78637,-6.17981 0.13237,-2.64738 0.33422,-4.42768 0.52353,-4.61698 0.16947,-0.16946 0.31647,-0.73078 0.32671,-1.24738 0.0151,-0.76584 0.0606,-0.84156 0.24598,-0.4101 0.17706,0.41204 0.23151,0.28515 0.24598,-0.57327 0.0103,-0.60633 0.13886,-1.14251 0.28583,-1.19151 0.14701,-0.049 0.36277,-0.62446 0.47951,-1.27882 l 0.21225,-1.18974 0.20272,1.96639 c 0.11652,1.13021 0.29072,1.82405 0.40963,1.63167 0.2663,-0.4309 0.80991,1.67243 0.80991,3.13369 0,0.7778 0.1093,1.07346 0.39688,1.07346 0.29268,0 0.4051,-0.32994 0.42817,-1.25677 0.0279,-1.12182 0.053,-1.17154 0.23329,-0.46302 0.1111,0.43656 0.21606,9.21742 0.23328,19.51302 l 0.0313,18.71927 H 51.684538 -93.042545 Z"
       id="path854"
       inkscape:connector-curvature="0" />
    <path
       style="opacity:0.903;fill:#3737c8;stroke-width:1"
       d="m -20.745148,326.43304 c 39.836328,-0.0579 105.023045,-0.0579 144.859368,0 39.83632,0.0579 7.24296,0.10526 -72.429682,0.10526 -79.672654,0 -112.266013,-0.0474 -72.429686,-0.10526 z m -69.122397,-0.81355 c 0.55326,-0.31948 2.33169,-3.32176 2.74538,-4.63465 0.18871,-0.5989 0.80088,-3.75046 1.360373,-7.00346 0.55949,-3.253 1.10618,-5.91454 1.21487,-5.91454 0.25501,0 1.22523,4.06644 1.732986,7.26346 0.498156,3.13655 0.919718,4.70589 1.330549,4.9532 2.158266,1.29922 4.384139,-16.82592 5.628945,-45.83613 0.366656,-8.5449 0.786948,-13.6796 1.204554,-14.71601 0.188051,-0.46671 0.425278,-1.66027 0.527171,-2.65234 0.287811,-2.80226 0.644327,-1.5235 0.916369,3.28687 0.13461,2.38023 0.429006,7.12931 0.654214,10.55351 0.225208,3.42421 0.649365,12.18836 0.942571,19.47589 1.106745,27.50775 2.023879,33.58148 5.289937,35.03261 0.645538,0.28681 -2.840707,0.41286 -11.509375,0.4161 -6.839481,0.003 -12.256824,-0.0985 -12.038544,-0.22451 z m 35.851044,-0.003 c 0.693327,-0.26495 1.34883,-1.20122 2.002321,-2.85993 0.648497,-1.64604 1.700708,-8.77598 2.095728,-14.20098 0.396531,-5.44577 1.073195,-11.81017 1.309542,-12.31701 0.195884,-0.42005 0.811181,-4.087 1.323242,-7.88604 0.153847,-1.1414 0.461282,-4.50335 0.683188,-7.47099 0.429562,-5.74471 0.890493,-9.75449 1.182381,-10.28594 0.41121,-0.74868 1.24192,6.04737 2.310024,18.89832 0.07115,0.85607 0.219652,1.55646 0.330002,1.55646 0.294166,0 0.999609,-6.0978 1.604634,-13.87036 0.158472,-2.03585 0.439293,-4.04008 0.624049,-4.45387 0.294645,-0.6599 0.373033,-0.43458 0.637987,1.83377 0.307216,2.6302 0.944724,13.32344 1.242946,20.84855 0.291058,7.34432 0.936755,15.58317 1.522146,19.42199 0.499374,3.27477 0.807574,3.20752 1.930765,-0.42129 0.549627,-1.77573 1.087771,-3.50877 1.195874,-3.85119 0.108103,-0.34242 0.330753,-0.57377 0.494776,-0.51411 0.497636,0.18103 1.463199,-1.668 1.790592,-3.42891 0.16977,-0.91313 0.446143,-3.90153 0.614164,-6.64089 0.72772,-11.86457 1.512694,-17.41332 2.212239,-15.63771 0.137025,0.3478 0.819846,7.22889 1.757691,17.71299 0.937352,10.47862 1.086215,12.00118 1.481198,15.14951 0.756621,6.03091 1.380299,7.58091 3.344992,8.31317 0.469297,0.17491 -6.588138,0.31547 -15.68319,0.31236 -9.095052,-0.003 -16.298333,-0.0966 -16.007291,-0.2079 z m 67.060751,-0.24371 c 1.075576,-0.58239 2.154232,-2.86455 2.784398,-5.89111 0.525227,-2.52256 1.062807,-8.22886 1.583613,-16.80975 0.375036,-6.17915 0.82432,-11.715 1.60006,-19.7151 0.866478,-8.93592 1.454676,-14.56376 1.572519,-15.04576 0.247142,-1.01088 0.613381,-0.49587 0.88547,1.24517 0.423194,2.70789 1.454449,17.50167 1.902347,27.28987 0.386217,8.44027 1.312195,22.8778 1.697042,26.45977 l 0.323305,3.00915 -6.631836,-0.0234 c -5.486405,-0.0195 -6.473815,-0.10902 -5.716918,-0.51882 z m 29.038554,-0.27323 c 1.619374,-1.54891 2.176343,-3.49768 3.562937,-12.4663 1.051335,-6.80012 1.508831,-8.71616 2.081181,-8.71616 0.295201,0 0.932206,3.22055 1.587666,8.0269 0.572154,4.19546 1.386999,7.72031 1.899611,8.21729 0.800952,0.77654 1.126633,-0.22182 3.025216,-9.27355 0.539401,-2.57167 1.136986,-5.14541 1.327965,-5.71944 0.190977,-0.57402 0.347964,-1.26358 0.348861,-1.53236 7.94e-4,-0.26878 0.288952,-0.84323 0.640123,-1.27656 0.509174,-0.6283 0.834313,-1.99918 1.605333,-6.76861 0.900755,-5.57198 1.960329,-11.02675 1.980647,-10.19656 0.0049,0.19917 0.166068,0.15744 0.358208,-0.0927 0.278726,-0.36287 0.502333,0.33091 1.106104,3.43186 0.814962,4.18565 1.065403,4.38871 1.698914,1.37747 0.178104,-0.84656 0.424603,-1.63692 0.54778,-1.75633 0.297574,-0.2885 0.679807,1.79021 1.029956,5.60128 0.157306,1.7121 0.404972,4.42034 0.550371,6.0183 0.145399,1.59797 0.441788,5.52023 0.658638,8.71616 0.488071,7.19309 1.456978,12.67331 2.615633,14.79419 0.45978,0.84163 0.977765,1.54603 1.151078,1.56536 0.173313,0.0193 0.388699,0.22191 0.478637,0.45019 0.108264,0.27479 -4.781553,0.41453 -14.470322,0.41349 l -14.633844,-0.002 z m 76.741486,0.35041 c 1.21821,-0.55167 2.38426,-3.59375 3.08316,-8.04358 1.10129,-7.01168 1.57988,-15.24245 2.53411,-43.58079 0.80107,-23.79018 0.85042,-24.69578 1.34567,-24.69578 0.72864,0 1.06158,3.47954 1.54884,16.18715 0.14443,3.76664 0.49738,10.02359 0.78434,13.90436 0.28696,3.88076 0.64682,8.8303 0.7997,10.99895 0.39986,5.67226 1.51795,18.40518 1.99463,22.71505 1.00026,9.04375 1.79543,11.64803 3.81425,12.49217 0.67249,0.28121 -1.69862,0.40337 -7.9028,0.40719 -5.96171,0.003 -8.58145,-0.12236 -8.0019,-0.38472 z m 41.93583,0.2212 c 0.0855,-0.13412 0.54868,-0.55437 1.02929,-0.93388 1.09905,-0.86785 2.18748,-3.33951 2.77132,-6.29325 0.73686,-3.72792 1.82361,-7.15853 2.80503,-8.85477 0.73874,-1.27683 1.0815,-2.5072 1.73439,-6.22583 0.44754,-2.54899 0.93036,-5.66178 1.07295,-6.91733 0.14258,-1.25554 0.41123,-3.65818 0.59699,-5.33919 0.30187,-2.73156 1.03495,-5.17843 1.38481,-4.62214 0.12152,0.19324 0.74666,5.91435 1.53387,14.03761 0.1841,1.89954 0.48668,3.76729 0.67244,4.15056 0.31454,0.64898 0.33832,0.64694 0.34615,-0.0295 0.005,-0.39949 0.10742,-0.72634 0.22844,-0.72634 0.12105,0 0.67588,-2.15537 1.23302,-4.78971 0.5571,-2.63434 1.11315,-4.88688 1.23565,-5.00563 0.37148,-0.36016 0.7869,1.86305 1.32623,7.09748 1.40173,13.60507 1.85211,17.00134 2.65004,19.98328 0.45585,1.70362 1.12331,3.46088 1.48325,3.90499 0.65103,0.80336 0.59534,0.80751 -10.80246,0.80751 -6.30128,0 -11.38691,-0.10981 -11.30141,-0.24387 z"
       id="path856"
       inkscape:connector-curvature="0" />
    <path
       style="fill:#000000;stroke-width:1"
       d="m -87.261452,332.79091 v -2.05761 l 4.977915,-10e-4 v 1.70044 0.35861 h 2.095964 2.095965 v -0.39687 -1.7387 h 1.571973 1.571972 v 1.7387 0.39687 h 1.047982 1.047984 v -0.39687 -1.7387 h 1.309977 1.309977 v 1.7387 0.39687 h 2.043565 2.043565 l 0.352832,-0.33073 0.35283,-0.33073 -0.184897,0.33073 -0.184895,0.33073 h 3.761999 3.761998 l 0.352828,-0.33073 0.352832,-0.33073 -0.184894,0.33073 -0.184896,0.33073 h 3.761997 3.761999 l 0.352828,-0.33073 0.352833,-0.33073 -0.184895,0.33073 -0.184897,0.33073 h 1.194441 1.194443 v -0.39687 -1.7387 h 0.785986 0.785987 v 1.7387 0.39687 h 0.916985 0.916983 v -0.39687 -1.7387 h 1.571974 1.571973 v 1.7387 0.39687 h 0.916984 0.916985 v -0.39687 -1.7387 h 1.178981 1.178979 v 1.7387 0.39687 h 1.309978 1.309977 v -0.39687 -1.7387 h 0.392993 0.392993 v 1.7387 0.39687 h 1.702971 1.702972 v -0.39687 -1.7387 h 1.047982 1.047982 v 1.7387 0.39687 h 2.043565 2.043565 l 0.352829,-0.33073 0.352832,-0.33073 -0.184895,0.33073 -0.184895,0.33073 h 3.761996 3.761999 l 0.352829,-0.33073 0.352831,-0.33073 -0.184894,0.33073 -0.184896,0.33073 h 3.761997 3.7619983 l 0.35283,-0.33073 0.352832,-0.33073 -0.1848957,0.33073 -0.1848959,0.33073 h 3.7619969 3.76199913 l 0.35282934,-0.33073 0.35283198,-0.33073 -0.1848955,0.33073 -0.18489542,0.33073 H 3.7141325 7.4761314 l 0.3528295,-0.33073 0.3528322,-0.33073 -0.1848957,0.33073 -0.1848954,0.33073 h 3.761997 3.761998 l 0.35283,-0.33073 0.352833,-0.33073 -0.184897,0.33073 -0.184896,0.33073 h 0.932445 0.932447 v -0.39687 -1.7387 h 0.916985 0.916984 v 1.7387 0.39687 h 0.916985 0.916984 v -0.39687 -1.7387 h 0.916985 0.916983 v 1.7387 0.39687 h 2.043566 2.043565 l 0.352829,-0.33073 0.352833,-0.33073 -0.184896,0.33073 -0.184896,0.33073 h 3.761996 3.762 l 0.35283,-0.33073 0.352831,-0.33073 -0.184895,0.33073 -0.184896,0.33073 h 3.761997 3.761998 l 0.352831,-0.33073 0.352831,-0.33073 -0.184895,0.33073 -0.184896,0.33073 h 1.718432 1.718433 v -0.39687 -1.7387 h 1.309978 1.309978 v 1.7387 0.39687 h 2.095964 2.095964 v -0.39687 -1.7387 h 1.047982 1.047983 v 1.7387 0.39687 h 1.309978 1.309976 v -0.39687 -1.7387 h 1.17898 1.17898 v 1.7387 0.39687 h 0.916985 0.916985 v -0.39687 -1.7387 h 1.440974 1.440976 v 1.7387 0.39687 h 2.043565 2.043566 l 0.352828,-0.33073 0.352832,-0.33073 -0.184895,0.33073 -0.184896,0.33073 h 3.761997 3.761999 l 0.35283,-0.33073 0.352832,-0.33073 -0.184896,0.33073 -0.184896,0.33073 h 3.761997 3.761998 l 0.352831,-0.33073 0.352831,-0.33073 -0.184895,0.33073 -0.184896,0.33073 h 3.761997 3.762 l 0.352828,-0.33073 0.352832,-0.33073 -0.184895,0.33073 -0.184896,0.33073 h 3.761998 3.761998 l 0.35284,-0.33073 0.35282,-0.33073 -0.1849,0.33073 -0.1849,0.33073 h 3.762 3.76199 l 0.35284,-0.33073 0.35283,-0.33073 -0.1849,0.33073 -0.18489,0.33073 h 3.76199 3.762 l 0.35284,-0.33073 0.35283,-0.33073 -0.18491,0.33073 -0.1849,0.33073 h 3.8144 3.81441 v -0.39687 -1.7387 h 2.61995 2.61997 v 1.7387 0.39687 h 2.04356 2.04357 l 0.35282,-0.33073 0.35283,-0.33073 -0.1849,0.33073 -0.18489,0.33073 h 3.762 3.762 l 0.35282,-0.33073 0.35284,-0.33073 -0.18489,0.33073 -0.18491,0.33073 h 3.76201 3.76199 l 0.35283,-0.33073 0.35283,-0.33073 -0.18489,0.33073 -0.1849,0.33073 h 3.76199 3.76201 l 0.35282,-0.33073 0.35284,-0.33073 -0.18489,0.33073 -0.18492,0.33073 h 3.02843 3.02841 v -0.39687 -1.7387 h 1.83397 1.83396 v 1.7387 0.39687 h 0.655 0.65498 v -0.39687 -1.7387 h 0.65499 0.65499 v 1.7387 0.39687 h 2.04356 2.04357 l 0.35282,-0.33073 0.35284,-0.33073 -0.18489,0.33073 -0.1849,0.33073 h 0.40845 0.40846 v -0.39687 -1.7387 l 7.07388,0.002 v 2.34032 2.68574 h -3.53694 -3.53694 v -1.7009 -0.39687 h -0.40846 -0.40845 l 0.1849,0.33073 0.18489,0.33072 -0.35284,-0.33072 -0.35282,-0.33073 h -2.04357 -2.04356 v 0.39687 1.7009 h -0.65499 -0.65499 v -1.7009 -0.39687 h -0.65498 -0.655 v 0.39687 1.7009 h -1.83396 -1.83397 v -1.7009 -0.39687 h -3.02841 -3.02843 l 0.18492,0.33073 0.18489,0.33072 -0.35284,-0.33072 -0.35282,-0.33073 h -3.76201 -3.76199 l 0.1849,0.33073 0.18489,0.33072 -0.35283,-0.33072 -0.35283,-0.33073 h -3.76199 -3.76201 l 0.18491,0.33073 0.18489,0.33072 -0.35284,-0.33072 -0.35282,-0.33073 h -3.762 -3.762 l 0.18489,0.33073 0.1849,0.33072 -0.35283,-0.33072 -0.35282,-0.33073 h -2.04357 -2.04356 v 0.39687 1.7009 h -2.61997 -2.61995 v -1.7009 -0.39687 h -3.81441 -3.8144 l 0.1849,0.33073 0.18491,0.33072 -0.35283,-0.33072 -0.35284,-0.33073 h -3.762 -3.76199 l 0.18489,0.33073 0.1849,0.33072 -0.35283,-0.33072 -0.35284,-0.33073 h -3.76199 -3.762 l 0.1849,0.33073 0.1849,0.33072 -0.35282,-0.33072 -0.35284,-0.33073 h -3.761998 -3.761998 l 0.184896,0.33073 0.184895,0.33072 -0.352832,-0.33072 -0.352828,-0.33073 h -3.762 -3.761997 l 0.184896,0.33073 0.184895,0.33072 -0.352831,-0.33072 -0.352831,-0.33073 h -3.761998 -3.761997 l 0.184896,0.33073 0.184896,0.33072 -0.352832,-0.33072 -0.35283,-0.33073 h -3.761999 -3.761997 l 0.184896,0.33073 0.184895,0.33072 -0.352832,-0.33072 -0.352828,-0.33073 h -2.043566 -2.043565 v 0.39687 1.7009 H 63.77897 62.337996 v -1.7009 -0.39687 h -0.916985 -0.916985 v 0.39687 1.7009 h -1.17898 -1.17898 v -1.7009 -0.39687 H 56.83609 55.526112 v 0.39687 1.7009 h -1.047983 -1.047982 v -1.7009 -0.39687 h -2.095964 -2.095964 v 0.39687 1.7009 h -1.309978 -1.309978 v -1.7009 -0.39687 H 44.89983 43.181398 l 0.184896,0.33073 0.184895,0.33072 -0.352831,-0.33072 -0.352831,-0.33073 h -3.761998 -3.761997 l 0.184896,0.33073 0.184895,0.33072 -0.352831,-0.33072 -0.35283,-0.33073 h -3.762 -3.761996 l 0.184896,0.33073 0.184896,0.33072 -0.352833,-0.33072 -0.352829,-0.33073 h -2.043565 -2.043566 v 0.39687 1.7009 h -0.916983 -0.916985 v -1.7009 -0.39687 h -0.916984 -0.916985 v 0.39687 1.7009 h -0.916984 -0.916985 v -1.7009 -0.39687 h -0.932447 -0.932445 l 0.184896,0.33073 0.184897,0.33072 -0.352833,-0.33072 -0.35283,-0.33073 H 11.573999 7.812002 l 0.1848954,0.33073 0.1848957,0.33072 -0.3528322,-0.33072 -0.3528295,-0.33073 H 3.7141325 -0.04786387 l 0.18489542,0.33073 0.1848955,0.33072 -0.35283198,-0.33072 -0.35282934,-0.33073 H -4.1457334 -7.9077303 l 0.1848959,0.33073 0.1848957,0.33072 -0.352832,-0.33072 -0.35283,-0.33073 h -3.7619983 -3.761997 l 0.184896,0.33073 0.184894,0.33072 -0.352831,-0.33072 -0.352829,-0.33073 h -3.761999 -3.761996 l 0.184895,0.33073 0.184895,0.33072 -0.352832,-0.33072 -0.352829,-0.33073 h -2.043565 -2.043565 v 0.39687 1.7009 h -1.047982 -1.047982 v -1.7009 -0.39687 h -1.702972 -1.702971 v 0.39687 1.7009 h -0.392993 -0.392993 v -1.7009 -0.39687 h -1.309977 -1.309978 v 0.39687 1.7009 h -1.178979 -1.178981 v -1.7009 -0.39687 h -0.916985 -0.916984 v 0.39687 1.7009 h -1.571973 -1.571974 v -1.7009 -0.39687 h -0.916983 -0.916985 v 0.39687 1.7009 h -0.785987 -0.785986 v -1.7009 -0.39687 h -1.194443 -1.194441 l 0.184897,0.33073 0.184895,0.33072 -0.352833,-0.33072 -0.352828,-0.33073 h -3.761999 -3.761997 l 0.184896,0.33073 0.184894,0.33072 -0.352832,-0.33072 -0.352828,-0.33073 h -3.761998 -3.761999 l 0.184895,0.33073 0.184897,0.33072 -0.35283,-0.33072 -0.352832,-0.33073 h -2.043565 -2.043565 v 0.39687 1.7009 h -1.309977 -1.309977 v -1.7009 -0.39687 h -1.047984 -1.047982 v 0.39687 1.7009 h -1.571972 -1.571973 v -1.7009 -0.39687 h -2.095965 -2.095964 v 0.39687 1.7009 h -2.488958 -2.488957 z"
       id="path836"
       inkscape:connector-curvature="0"
       sodipodi:nodetypes="ccccccccccccccccccccccccccccccccccccccccccccccccccccccccccccccccccccccccccccccccccccccccccccccccccccccccccccccccccccccccccccccccccccccccccccccccccccccccccccccccccccccccccccccccccccccccccccccccccccccccccccccccccccccccccccccccccccccccccccccccccccccccccccccccccccccccccccccccccccccccccccccccccccccccccccccccccccccccccccccccccccccccccccccccccccccccccccccccccccccccccccccccccccccccccccccccccccccccccccccccccccccccccccccccccccccccccccccccccccccccccccccccccccccccccccccccccccccccccccccccccccccccccccccccccccccccccccccccccccccccccccccccccccccccccccccccccccccccccccccccccccccc" />
    <rect
       style="opacity:1;vector-effect:none;fill:none;fill-opacity:1;fill-rule:evenodd;stroke:#000000;stroke-width:1;stroke-linecap:butt;stroke-linejoin:miter;stroke-miterlimit:4;stroke-dasharray:none;stroke-dashoffset:0;stroke-opacity:1;paint-order:fill markers stroke"
       id="rect838"
       width="288.95111"
       height="81.486916"
       x="-93.042542"
       y="244.61517" />
    <flowRoot
       xml:space="preserve"
       id="flowRoot840"
       style="font-style:normal;font-variant:normal;font-weight:normal;font-stretch:normal;font-size:40px;line-height:1.25;font-family:'Yauza TYGRA';-inkscape-font-specification:'Yauza TYGRA';letter-spacing:0px;word-spacing:0px;fill:#000000;fill-opacity:1;stroke:none"
       transform="matrix(0.26458333,0,0,0.26458333,45.018418,-8.2692383)"><flowRegion
         id="flowRegion842"><rect
           id="rect844"
           width="364.66507"
           height="60.609154"
           x="-48.487324"
           y="1288.1847" /></flowRegion><flowPara
         id="flowPara846"
         style="font-style:normal;font-variant:normal;font-weight:normal;font-stretch:normal;font-size:24px;font-family:sans-serif;-inkscape-font-specification:sans-serif"> CCHCR1</flowPara></flowRoot>    <path
       style="fill:none;stroke:#000000;stroke-width:1;stroke-linecap:butt;stroke-linejoin:miter;stroke-miterlimit:4;stroke-dasharray:none;stroke-opacity:1;marker-end:url(#Arrow1Mend)"
       d="M -99.959508,326.57455 V 246.05148"
       id="path850"
       inkscape:connector-curvature="0"
       sodipodi:nodetypes="cc" />
    <flowRoot
       xml:space="preserve"
       id="flowRoot1622"
       style="font-style:normal;font-variant:normal;font-weight:normal;font-stretch:normal;font-size:40px;line-height:1.25;font-family:'Yauza TYGRA';-inkscape-font-specification:'Yauza TYGRA';letter-spacing:0px;word-spacing:0px;fill:#000000;fill-opacity:1;stroke:none"
       transform="scale(0.26458333)"><flowRegion
         id="flowRegion1624"><rect
           id="rect1626"
           width="122.14286"
           height="53.57143"
           x="-471.42856"
           y="840.37683" /></flowRegion><flowPara
         id="flowPara1628" /></flowRoot>    <flowRoot
       xml:space="preserve"
       id="flowRoot840-3"
       style="font-style:normal;font-variant:normal;font-weight:normal;font-stretch:normal;font-size:40px;line-height:1.25;font-family:'Yauza TYGRA';-inkscape-font-specification:'Yauza TYGRA';letter-spacing:0px;word-spacing:0px;fill:#000000;fill-opacity:1;stroke:none"
       transform="matrix(0,-0.26458333,0.26458333,0,-458.22596,299.41777)"><flowRegion
         id="flowRegion842-6"><rect
           id="rect844-7"
           width="364.66507"
           height="60.609154"
           x="-48.487324"
           y="1288.1847" /></flowRegion><flowPara
         id="flowPara846-5"
         style="font-style:normal;font-variant:normal;font-weight:normal;font-stretch:normal;font-size:24px;font-family:sans-serif;-inkscape-font-specification:sans-serif"> </flowPara></flowRoot>    <rect
       style="opacity:0.903;vector-effect:none;fill:#cc4949;fill-opacity:1;fill-rule:evenodd;stroke:#000000;stroke-width:1;stroke-linecap:butt;stroke-linejoin:miter;stroke-miterlimit:4;stroke-dasharray:none;stroke-dashoffset:0;stroke-opacity:1;paint-order:fill markers stroke"
       id="rect1675"
       width="11.245609"
       height="11.245601"
       x="-74.402321"
       y="354.41525" />
    <flowRoot
       xml:space="preserve"
       id="flowRoot840-6"
       style="font-style:normal;font-variant:normal;font-weight:normal;font-stretch:normal;font-size:40px;line-height:1.25;font-family:'Yauza TYGRA';-inkscape-font-specification:'Yauza TYGRA';letter-spacing:0px;word-spacing:0px;fill:#000000;fill-opacity:1;stroke:none"
       transform="matrix(0.26458333,0,0,0.26458333,-44.569008,9.5799227)"><flowRegion
         id="flowRegion842-2"><rect
           id="rect844-9"
           width="364.66507"
           height="60.609154"
           x="-48.487324"
           y="1288.1847" /></flowRegion><flowPara
         id="flowPara846-1"
         style="font-style:normal;font-variant:normal;font-weight:normal;font-stretch:normal;font-size:24px;font-family:sans-serif;-inkscape-font-specification:sans-serif"> </flowPara></flowRoot>    <flowRoot
       xml:space="preserve"
       id="flowRoot840-6-2"
       style="font-style:normal;font-variant:normal;font-weight:normal;font-stretch:normal;font-size:40px;line-height:1.25;font-family:'Yauza TYGRA';-inkscape-font-specification:'Yauza TYGRA';letter-spacing:0px;word-spacing:0px;fill:#000000;fill-opacity:1;stroke:none"
       transform="matrix(0.26458333,0,0,0.26458333,90.402107,9.5799227)"><flowRegion
         id="flowRegion842-2-7"><rect
           id="rect844-9-0"
           width="364.66507"
           height="60.609154"
           x="-48.487324"
           y="1288.1847" /></flowRegion><flowPara
         id="flowPara846-1-9"
         style="font-style:normal;font-variant:normal;font-weight:normal;font-stretch:normal;font-size:24px;font-family:sans-serif;-inkscape-font-specification:sans-serif"> </flowPara></flowRoot>    <rect
       y="354.41525"
       x="60.392765"
       height="11.245601"
       width="11.245609"
       id="rect1675-3"
       style="opacity:0.903;vector-effect:none;fill:#4539bc;fill-opacity:1;fill-rule:evenodd;stroke:#000000;stroke-width:1;stroke-linecap:butt;stroke-linejoin:miter;stroke-miterlimit:4;stroke-dasharray:none;stroke-dashoffset:0;stroke-opacity:1;paint-order:fill markers stroke" />
  </g>
</svg>
