<?xml version="1.0" encoding="UTF-8"?>
<!DOCTYPE svg PUBLIC "-//W3C//DTD SVG 1.1//EN" "http://www.w3.org/Graphics/SVG/1.1/DTD/svg11.dtd">
<svg width="204mm" height="113mm" viewBox="0 0 20400 11300" version="1.1" xmlns="http://www.w3.org/2000/svg" xmlns:xlink="http://www.w3.org/1999/xlink" stroke-width="28.222" stroke-linejoin="round" xml:space="preserve">
 <path fill="rgb(255,255,255)" stroke="none" d="M 10219,11262 L 0,11262 0,0 20438,0 20438,11262 10219,11262 Z"/>
 <path fill="none" stroke="rgb(179,179,179)" stroke-linejoin="round" d="M 11591,9409 L 3152,9409 3152,1565 20030,1565 20030,9409 11591,9409 Z"/>
 <path fill="none" stroke="rgb(179,179,179)" stroke-linejoin="round" d="M 20030,9408 L 3152,9408"/>
 <path fill="none" stroke="rgb(179,179,179)" stroke-linejoin="round" d="M 20030,8100 L 3152,8100"/>
 <path fill="none" stroke="rgb(179,179,179)" stroke-linejoin="round" d="M 20030,6793 L 3152,6793"/>
 <path fill="none" stroke="rgb(179,179,179)" stroke-linejoin="round" d="M 20030,5486 L 3152,5486"/>
 <path fill="none" stroke="rgb(179,179,179)" stroke-linejoin="round" d="M 20030,4179 L 3152,4179"/>
 <path fill="none" stroke="rgb(179,179,179)" stroke-linejoin="round" d="M 20030,2871 L 3152,2871"/>
 <path fill="none" stroke="rgb(179,179,179)" stroke-linejoin="round" d="M 20030,1564 L 3152,1564"/>
 <path fill="none" stroke="rgb(179,179,179)" stroke-linejoin="round" d="M 3152,9558 L 3152,9408"/>
 <path fill="none" stroke="rgb(179,179,179)" stroke-linejoin="round" d="M 3152,9558 L 3152,9408"/>
 <path fill="none" stroke="rgb(179,179,179)" stroke-linejoin="round" d="M 4089,9558 L 4089,9408"/>
 <path fill="none" stroke="rgb(179,179,179)" stroke-linejoin="round" d="M 4089,9558 L 4089,9408"/>
 <path fill="none" stroke="rgb(179,179,179)" stroke-linejoin="round" d="M 5027,9558 L 5027,9408"/>
 <path fill="none" stroke="rgb(179,179,179)" stroke-linejoin="round" d="M 5027,9558 L 5027,9408"/>
 <path fill="none" stroke="rgb(179,179,179)" stroke-linejoin="round" d="M 5965,9558 L 5965,9408"/>
 <path fill="none" stroke="rgb(179,179,179)" stroke-linejoin="round" d="M 5965,9558 L 5965,9408"/>
 <path fill="none" stroke="rgb(179,179,179)" stroke-linejoin="round" d="M 6902,9558 L 6902,9408"/>
 <path fill="none" stroke="rgb(179,179,179)" stroke-linejoin="round" d="M 6902,9558 L 6902,9408"/>
 <path fill="none" stroke="rgb(179,179,179)" stroke-linejoin="round" d="M 7840,9558 L 7840,9408"/>
 <path fill="none" stroke="rgb(179,179,179)" stroke-linejoin="round" d="M 7840,9558 L 7840,9408"/>
 <path fill="none" stroke="rgb(179,179,179)" stroke-linejoin="round" d="M 8778,9558 L 8778,9408"/>
 <path fill="none" stroke="rgb(179,179,179)" stroke-linejoin="round" d="M 8778,9558 L 8778,9408"/>
 <path fill="none" stroke="rgb(179,179,179)" stroke-linejoin="round" d="M 9716,9558 L 9716,9408"/>
 <path fill="none" stroke="rgb(179,179,179)" stroke-linejoin="round" d="M 9716,9558 L 9716,9408"/>
 <path fill="none" stroke="rgb(179,179,179)" stroke-linejoin="round" d="M 10652,9558 L 10652,9408"/>
 <path fill="none" stroke="rgb(179,179,179)" stroke-linejoin="round" d="M 10652,9558 L 10652,9408"/>
 <path fill="none" stroke="rgb(179,179,179)" stroke-linejoin="round" d="M 11590,9558 L 11590,9408"/>
 <path fill="none" stroke="rgb(179,179,179)" stroke-linejoin="round" d="M 11590,9558 L 11590,9408"/>
 <path fill="none" stroke="rgb(179,179,179)" stroke-linejoin="round" d="M 12528,9558 L 12528,9408"/>
 <path fill="none" stroke="rgb(179,179,179)" stroke-linejoin="round" d="M 12528,9558 L 12528,9408"/>
 <path fill="none" stroke="rgb(179,179,179)" stroke-linejoin="round" d="M 13465,9558 L 13465,9408"/>
 <path fill="none" stroke="rgb(179,179,179)" stroke-linejoin="round" d="M 13465,9558 L 13465,9408"/>
 <path fill="none" stroke="rgb(179,179,179)" stroke-linejoin="round" d="M 14403,9558 L 14403,9408"/>
 <path fill="none" stroke="rgb(179,179,179)" stroke-linejoin="round" d="M 14403,9558 L 14403,9408"/>
 <path fill="none" stroke="rgb(179,179,179)" stroke-linejoin="round" d="M 15341,9558 L 15341,9408"/>
 <path fill="none" stroke="rgb(179,179,179)" stroke-linejoin="round" d="M 15341,9558 L 15341,9408"/>
 <path fill="none" stroke="rgb(179,179,179)" stroke-linejoin="round" d="M 16279,9558 L 16279,9408"/>
 <path fill="none" stroke="rgb(179,179,179)" stroke-linejoin="round" d="M 16279,9558 L 16279,9408"/>
 <path fill="none" stroke="rgb(179,179,179)" stroke-linejoin="round" d="M 17216,9558 L 17216,9408"/>
 <path fill="none" stroke="rgb(179,179,179)" stroke-linejoin="round" d="M 17216,9558 L 17216,9408"/>
 <path fill="none" stroke="rgb(179,179,179)" stroke-linejoin="round" d="M 18154,9558 L 18154,9408"/>
 <path fill="none" stroke="rgb(179,179,179)" stroke-linejoin="round" d="M 18154,9558 L 18154,9408"/>
 <path fill="none" stroke="rgb(179,179,179)" stroke-linejoin="round" d="M 19092,9558 L 19092,9408"/>
 <path fill="none" stroke="rgb(179,179,179)" stroke-linejoin="round" d="M 19092,9558 L 19092,9408"/>
 <path fill="none" stroke="rgb(179,179,179)" stroke-linejoin="round" d="M 20030,9558 L 20030,9408"/>
 <path fill="none" stroke="rgb(179,179,179)" stroke-linejoin="round" d="M 20030,9558 L 20030,9408"/>
 <path fill="none" stroke="rgb(179,179,179)" stroke-linejoin="round" d="M 3152,9408 L 20030,9408"/>
 <path fill="none" stroke="rgb(179,179,179)" stroke-linejoin="round" d="M 3002,9408 L 3152,9408"/>
 <path fill="none" stroke="rgb(179,179,179)" stroke-linejoin="round" d="M 3002,9408 L 3152,9408"/>
 <path fill="none" stroke="rgb(179,179,179)" stroke-linejoin="round" d="M 3002,8100 L 3152,8100"/>
 <path fill="none" stroke="rgb(179,179,179)" stroke-linejoin="round" d="M 3002,8100 L 3152,8100"/>
 <path fill="none" stroke="rgb(179,179,179)" stroke-linejoin="round" d="M 3002,6793 L 3152,6793"/>
 <path fill="none" stroke="rgb(179,179,179)" stroke-linejoin="round" d="M 3002,6793 L 3152,6793"/>
 <path fill="none" stroke="rgb(179,179,179)" stroke-linejoin="round" d="M 3002,5486 L 3152,5486"/>
 <path fill="none" stroke="rgb(179,179,179)" stroke-linejoin="round" d="M 3002,5486 L 3152,5486"/>
 <path fill="none" stroke="rgb(179,179,179)" stroke-linejoin="round" d="M 3002,4179 L 3152,4179"/>
 <path fill="none" stroke="rgb(179,179,179)" stroke-linejoin="round" d="M 3002,4179 L 3152,4179"/>
 <path fill="none" stroke="rgb(179,179,179)" stroke-linejoin="round" d="M 3002,2871 L 3152,2871"/>
 <path fill="none" stroke="rgb(179,179,179)" stroke-linejoin="round" d="M 3002,2871 L 3152,2871"/>
 <path fill="none" stroke="rgb(179,179,179)" stroke-linejoin="round" d="M 3002,1564 L 3152,1564"/>
 <path fill="none" stroke="rgb(179,179,179)" stroke-linejoin="round" d="M 3002,1564 L 3152,1564"/>
 <path fill="none" stroke="rgb(179,179,179)" stroke-linejoin="round" d="M 3152,9408 L 3152,1564"/>
 <path fill="rgb(0,69,134)" stroke="none" d="M 19326,9408 L 19795,9408 19795,7476 19326,7476 19326,9408 Z"/>
 <path fill="rgb(0,69,134)" stroke="none" d="M 18388,9408 L 18857,9408 18857,6806 18388,6806 18388,9408 Z"/>
 <path fill="rgb(0,69,134)" stroke="none" d="M 17451,9408 L 17920,9408 17920,5952 17451,5952 17451,9408 Z"/>
 <path fill="rgb(0,69,134)" stroke="none" d="M 16513,9408 L 16982,9408 16982,5408 16513,5408 16513,9408 Z"/>
 <path fill="rgb(0,69,134)" stroke="none" d="M 15575,9408 L 16044,9408 16044,5079 15575,5079 15575,9408 Z"/>
 <path fill="rgb(0,69,134)" stroke="none" d="M 14638,9408 L 15106,9408 15106,4697 14638,4697 14638,9408 Z"/>
 <path fill="rgb(0,69,134)" stroke="none" d="M 13700,9408 L 14169,9408 14169,4488 13700,4488 13700,9408 Z"/>
 <path fill="rgb(0,69,134)" stroke="none" d="M 12762,9408 L 13231,9408 13231,4209 12762,4209 12762,9408 Z"/>
 <path fill="rgb(0,69,134)" stroke="none" d="M 11824,9408 L 12293,9408 12293,3786 11824,3786 11824,9408 Z"/>
 <path fill="rgb(0,69,134)" stroke="none" d="M 10887,9408 L 11356,9408 11356,3259 10887,3259 10887,9408 Z"/>
 <path fill="rgb(0,69,134)" stroke="none" d="M 9950,9408 L 10418,9408 10418,2720 9950,2720 9950,9408 Z"/>
 <path fill="rgb(0,69,134)" stroke="none" d="M 9012,9408 L 9481,9408 9481,2281 9012,2281 9012,9408 Z"/>
 <path fill="rgb(0,69,134)" stroke="none" d="M 8075,9408 L 8543,9408 8543,2007 8075,2007 8075,9408 Z"/>
 <path fill="rgb(0,69,134)" stroke="none" d="M 7137,9408 L 7606,9408 7606,1988 7137,1988 7137,9408 Z"/>
 <path fill="rgb(0,69,134)" stroke="none" d="M 6199,9408 L 6668,9408 6668,2369 6199,2369 6199,9408 Z"/>
 <path fill="rgb(0,69,134)" stroke="none" d="M 5261,9408 L 5730,9408 5730,4548 5261,4548 5261,9408 Z"/>
 <path fill="rgb(0,69,134)" stroke="none" d="M 4324,9408 L 4793,9408 4793,8579 4324,8579 4324,9408 Z"/>
 <path fill="rgb(0,69,134)" stroke="none" d="M 3386,9408 L 3855,9408 3855,8541 3386,8541 3386,9408 Z"/>
 <text class="TextShape"><tspan class="TextParagraph" font-family="Liberation Sans, sans-serif" font-size="353px" font-weight="400"><tspan class="TextPosition" x="3527" y="9976"><tspan fill="rgb(0,0,0)" stroke="none">0</tspan></tspan></tspan></text>
 <text class="TextShape"><tspan class="TextParagraph" font-family="Liberation Sans, sans-serif" font-size="353px" font-weight="400"><tspan class="TextPosition" x="4465" y="9976"><tspan fill="rgb(0,0,0)" stroke="none">3</tspan></tspan></tspan></text>
 <text class="TextShape"><tspan class="TextParagraph" font-family="Liberation Sans, sans-serif" font-size="353px" font-weight="400"><tspan class="TextPosition" x="5403" y="9976"><tspan fill="rgb(0,0,0)" stroke="none">4</tspan></tspan></tspan></text>
 <text class="TextShape"><tspan class="TextParagraph" font-family="Liberation Sans, sans-serif" font-size="353px" font-weight="400"><tspan class="TextPosition" x="6341" y="9976"><tspan fill="rgb(0,0,0)" stroke="none">5</tspan></tspan></tspan></text>
 <text class="TextShape"><tspan class="TextParagraph" font-family="Liberation Sans, sans-serif" font-size="353px" font-weight="400"><tspan class="TextPosition" x="7278" y="9976"><tspan fill="rgb(0,0,0)" stroke="none">6</tspan></tspan></tspan></text>
 <text class="TextShape"><tspan class="TextParagraph" font-family="Liberation Sans, sans-serif" font-size="353px" font-weight="400"><tspan class="TextPosition" x="8216" y="9976"><tspan fill="rgb(0,0,0)" stroke="none">7</tspan></tspan></tspan></text>
 <text class="TextShape"><tspan class="TextParagraph" font-family="Liberation Sans, sans-serif" font-size="353px" font-weight="400"><tspan class="TextPosition" x="9154" y="9976"><tspan fill="rgb(0,0,0)" stroke="none">8</tspan></tspan></tspan></text>
 <text class="TextShape"><tspan class="TextParagraph" font-family="Liberation Sans, sans-serif" font-size="353px" font-weight="400"><tspan class="TextPosition" x="10091" y="9976"><tspan fill="rgb(0,0,0)" stroke="none">9</tspan></tspan></tspan></text>
 <text class="TextShape"><tspan class="TextParagraph" font-family="Liberation Sans, sans-serif" font-size="353px" font-weight="400"><tspan class="TextPosition" x="10937" y="9976"><tspan fill="rgb(0,0,0)" stroke="none">10</tspan></tspan></tspan></text>
 <text class="TextShape"><tspan class="TextParagraph" font-family="Liberation Sans, sans-serif" font-size="353px" font-weight="400"><tspan class="TextPosition" x="11875" y="9976"><tspan fill="rgb(0,0,0)" stroke="none">11</tspan></tspan></tspan></text>
 <text class="TextShape"><tspan class="TextParagraph" font-family="Liberation Sans, sans-serif" font-size="353px" font-weight="400"><tspan class="TextPosition" x="12813" y="9976"><tspan fill="rgb(0,0,0)" stroke="none">12</tspan></tspan></tspan></text>
 <text class="TextShape"><tspan class="TextParagraph" font-family="Liberation Sans, sans-serif" font-size="353px" font-weight="400"><tspan class="TextPosition" x="13750" y="9976"><tspan fill="rgb(0,0,0)" stroke="none">13</tspan></tspan></tspan></text>
 <text class="TextShape"><tspan class="TextParagraph" font-family="Liberation Sans, sans-serif" font-size="353px" font-weight="400"><tspan class="TextPosition" x="14688" y="9976"><tspan fill="rgb(0,0,0)" stroke="none">14</tspan></tspan></tspan></text>
 <text class="TextShape"><tspan class="TextParagraph" font-family="Liberation Sans, sans-serif" font-size="353px" font-weight="400"><tspan class="TextPosition" x="15626" y="9976"><tspan fill="rgb(0,0,0)" stroke="none">15</tspan></tspan></tspan></text>
 <text class="TextShape"><tspan class="TextParagraph" font-family="Liberation Sans, sans-serif" font-size="353px" font-weight="400"><tspan class="TextPosition" x="16563" y="9976"><tspan fill="rgb(0,0,0)" stroke="none">16</tspan></tspan></tspan></text>
 <text class="TextShape"><tspan class="TextParagraph" font-family="Liberation Sans, sans-serif" font-size="353px" font-weight="400"><tspan class="TextPosition" x="17501" y="9976"><tspan fill="rgb(0,0,0)" stroke="none">17</tspan></tspan></tspan></text>
 <text class="TextShape"><tspan class="TextParagraph" font-family="Liberation Sans, sans-serif" font-size="353px" font-weight="400"><tspan class="TextPosition" x="18439" y="9976"><tspan fill="rgb(0,0,0)" stroke="none">18</tspan></tspan></tspan></text>
 <text class="TextShape"><tspan class="TextParagraph" font-family="Liberation Sans, sans-serif" font-size="353px" font-weight="400"><tspan class="TextPosition" x="19377" y="9976"><tspan fill="rgb(0,0,0)" stroke="none">19</tspan></tspan></tspan></text>
 <text class="TextShape"><tspan class="TextParagraph" font-family="Liberation Sans, sans-serif" font-size="353px" font-weight="400"><tspan class="TextPosition" x="2532" y="9529"><tspan fill="rgb(0,0,0)" stroke="none">10</tspan></tspan></tspan></text>
 <text class="TextShape"><tspan class="TextParagraph" font-family="Liberation Sans, sans-serif" font-size="353px" font-weight="400"><tspan class="TextPosition" x="2346" y="8221"><tspan fill="rgb(0,0,0)" stroke="none">100</tspan></tspan></tspan></text>
 <text class="TextShape"><tspan class="TextParagraph" font-family="Liberation Sans, sans-serif" font-size="353px" font-weight="400"><tspan class="TextPosition" x="2161" y="6914"><tspan fill="rgb(0,0,0)" stroke="none">1000</tspan></tspan></tspan></text>
 <text class="TextShape"><tspan class="TextParagraph" font-family="Liberation Sans, sans-serif" font-size="353px" font-weight="400"><tspan class="TextPosition" x="1976" y="5606"><tspan fill="rgb(0,0,0)" stroke="none">10000</tspan></tspan></tspan></text>
 <text class="TextShape"><tspan class="TextParagraph" font-family="Liberation Sans, sans-serif" font-size="353px" font-weight="400"><tspan class="TextPosition" x="1791" y="4299"><tspan fill="rgb(0,0,0)" stroke="none">100000</tspan></tspan></tspan></text>
 <text class="TextShape"><tspan class="TextParagraph" font-family="Liberation Sans, sans-serif" font-size="353px" font-weight="400"><tspan class="TextPosition" x="1606" y="2991"><tspan fill="rgb(0,0,0)" stroke="none">1000000</tspan></tspan></tspan></text>
 <text class="TextShape"><tspan class="TextParagraph" font-family="Liberation Sans, sans-serif" font-size="353px" font-weight="400"><tspan class="TextPosition" x="1420" y="1684"><tspan fill="rgb(0,0,0)" stroke="none">10000000</tspan></tspan></tspan></text>
 <text class="TextShape"><tspan class="TextParagraph" font-family="Liberation Sans, sans-serif" font-size="459px" font-weight="400"><tspan class="TextPosition" x="7401" y="896"><tspan fill="rgb(0,0,0)" stroke="none">Number of A in barcodes (F)</tspan></tspan></tspan></text>
 <text class="TextShape"><tspan class="TextParagraph" font-family="Liberation Sans, sans-serif" font-size="318px" font-weight="400"><tspan class="TextPosition" x="8939" y="10668"><tspan fill="rgb(0,0,0)" stroke="none">Number of A in barcodes</tspan></tspan></tspan></text>
 <text class="TextShape" transform="rotate(-90 837 6504)"><tspan class="TextParagraph" font-family="Liberation Sans, sans-serif" font-size="318px" font-weight="400"><tspan class="TextPosition" x="837" y="6504"><tspan fill="rgb(0,0,0)" stroke="none">Total count</tspan></tspan></tspan></text>
</svg>