<?xml version="1.0" encoding="UTF-8"?>
<!DOCTYPE svg PUBLIC "-//W3C//DTD SVG 1.1//EN" "http://www.w3.org/Graphics/SVG/1.1/DTD/svg11.dtd">
<svg width="204mm" height="113mm" viewBox="0 0 20400 11300" version="1.1" xmlns="http://www.w3.org/2000/svg" xmlns:xlink="http://www.w3.org/1999/xlink" stroke-width="28.222" stroke-linejoin="round" xml:space="preserve">
 <path fill="rgb(255,255,255)" stroke="none" d="M 10219,11262 L 0,11262 0,0 20438,0 20438,11262 10219,11262 Z"/>
 <path fill="none" stroke="rgb(179,179,179)" stroke-linejoin="round" d="M 11591,9409 L 3152,9409 3152,1565 20030,1565 20030,9409 11591,9409 Z"/>
 <path fill="none" stroke="rgb(179,179,179)" stroke-linejoin="round" d="M 20030,9408 L 3152,9408"/>
 <path fill="none" stroke="rgb(179,179,179)" stroke-linejoin="round" d="M 20030,8100 L 3152,8100"/>
 <path fill="none" stroke="rgb(179,179,179)" stroke-linejoin="round" d="M 20030,6793 L 3152,6793"/>
 <path fill="none" stroke="rgb(179,179,179)" stroke-linejoin="round" d="M 20030,5486 L 3152,5486"/>
 <path fill="none" stroke="rgb(179,179,179)" stroke-linejoin="round" d="M 20030,4179 L 3152,4179"/>
 <path fill="none" stroke="rgb(179,179,179)" stroke-linejoin="round" d="M 20030,2871 L 3152,2871"/>
 <path fill="none" stroke="rgb(179,179,179)" stroke-linejoin="round" d="M 20030,1564 L 3152,1564"/>
 <path fill="none" stroke="rgb(179,179,179)" stroke-linejoin="round" d="M 3152,9558 L 3152,9408"/>
 <path fill="none" stroke="rgb(179,179,179)" stroke-linejoin="round" d="M 3152,9558 L 3152,9408"/>
 <path fill="none" stroke="rgb(179,179,179)" stroke-linejoin="round" d="M 4277,9558 L 4277,9408"/>
 <path fill="none" stroke="rgb(179,179,179)" stroke-linejoin="round" d="M 4277,9558 L 4277,9408"/>
 <path fill="none" stroke="rgb(179,179,179)" stroke-linejoin="round" d="M 5402,9558 L 5402,9408"/>
 <path fill="none" stroke="rgb(179,179,179)" stroke-linejoin="round" d="M 5402,9558 L 5402,9408"/>
 <path fill="none" stroke="rgb(179,179,179)" stroke-linejoin="round" d="M 6527,9558 L 6527,9408"/>
 <path fill="none" stroke="rgb(179,179,179)" stroke-linejoin="round" d="M 6527,9558 L 6527,9408"/>
 <path fill="none" stroke="rgb(179,179,179)" stroke-linejoin="round" d="M 7653,9558 L 7653,9408"/>
 <path fill="none" stroke="rgb(179,179,179)" stroke-linejoin="round" d="M 7653,9558 L 7653,9408"/>
 <path fill="none" stroke="rgb(179,179,179)" stroke-linejoin="round" d="M 8778,9558 L 8778,9408"/>
 <path fill="none" stroke="rgb(179,179,179)" stroke-linejoin="round" d="M 8778,9558 L 8778,9408"/>
 <path fill="none" stroke="rgb(179,179,179)" stroke-linejoin="round" d="M 9903,9558 L 9903,9408"/>
 <path fill="none" stroke="rgb(179,179,179)" stroke-linejoin="round" d="M 9903,9558 L 9903,9408"/>
 <path fill="none" stroke="rgb(179,179,179)" stroke-linejoin="round" d="M 11027,9558 L 11027,9408"/>
 <path fill="none" stroke="rgb(179,179,179)" stroke-linejoin="round" d="M 11027,9558 L 11027,9408"/>
 <path fill="none" stroke="rgb(179,179,179)" stroke-linejoin="round" d="M 12153,9558 L 12153,9408"/>
 <path fill="none" stroke="rgb(179,179,179)" stroke-linejoin="round" d="M 12153,9558 L 12153,9408"/>
 <path fill="none" stroke="rgb(179,179,179)" stroke-linejoin="round" d="M 13278,9558 L 13278,9408"/>
 <path fill="none" stroke="rgb(179,179,179)" stroke-linejoin="round" d="M 13278,9558 L 13278,9408"/>
 <path fill="none" stroke="rgb(179,179,179)" stroke-linejoin="round" d="M 14403,9558 L 14403,9408"/>
 <path fill="none" stroke="rgb(179,179,179)" stroke-linejoin="round" d="M 14403,9558 L 14403,9408"/>
 <path fill="none" stroke="rgb(179,179,179)" stroke-linejoin="round" d="M 15528,9558 L 15528,9408"/>
 <path fill="none" stroke="rgb(179,179,179)" stroke-linejoin="round" d="M 15528,9558 L 15528,9408"/>
 <path fill="none" stroke="rgb(179,179,179)" stroke-linejoin="round" d="M 16654,9558 L 16654,9408"/>
 <path fill="none" stroke="rgb(179,179,179)" stroke-linejoin="round" d="M 16654,9558 L 16654,9408"/>
 <path fill="none" stroke="rgb(179,179,179)" stroke-linejoin="round" d="M 17779,9558 L 17779,9408"/>
 <path fill="none" stroke="rgb(179,179,179)" stroke-linejoin="round" d="M 17779,9558 L 17779,9408"/>
 <path fill="none" stroke="rgb(179,179,179)" stroke-linejoin="round" d="M 18904,9558 L 18904,9408"/>
 <path fill="none" stroke="rgb(179,179,179)" stroke-linejoin="round" d="M 18904,9558 L 18904,9408"/>
 <path fill="none" stroke="rgb(179,179,179)" stroke-linejoin="round" d="M 20030,9558 L 20030,9408"/>
 <path fill="none" stroke="rgb(179,179,179)" stroke-linejoin="round" d="M 20030,9558 L 20030,9408"/>
 <path fill="none" stroke="rgb(179,179,179)" stroke-linejoin="round" d="M 3152,9408 L 20030,9408"/>
 <path fill="none" stroke="rgb(179,179,179)" stroke-linejoin="round" d="M 3002,9408 L 3152,9408"/>
 <path fill="none" stroke="rgb(179,179,179)" stroke-linejoin="round" d="M 3002,9408 L 3152,9408"/>
 <path fill="none" stroke="rgb(179,179,179)" stroke-linejoin="round" d="M 3002,8100 L 3152,8100"/>
 <path fill="none" stroke="rgb(179,179,179)" stroke-linejoin="round" d="M 3002,8100 L 3152,8100"/>
 <path fill="none" stroke="rgb(179,179,179)" stroke-linejoin="round" d="M 3002,6793 L 3152,6793"/>
 <path fill="none" stroke="rgb(179,179,179)" stroke-linejoin="round" d="M 3002,6793 L 3152,6793"/>
 <path fill="none" stroke="rgb(179,179,179)" stroke-linejoin="round" d="M 3002,5486 L 3152,5486"/>
 <path fill="none" stroke="rgb(179,179,179)" stroke-linejoin="round" d="M 3002,5486 L 3152,5486"/>
 <path fill="none" stroke="rgb(179,179,179)" stroke-linejoin="round" d="M 3002,4179 L 3152,4179"/>
 <path fill="none" stroke="rgb(179,179,179)" stroke-linejoin="round" d="M 3002,4179 L 3152,4179"/>
 <path fill="none" stroke="rgb(179,179,179)" stroke-linejoin="round" d="M 3002,2871 L 3152,2871"/>
 <path fill="none" stroke="rgb(179,179,179)" stroke-linejoin="round" d="M 3002,2871 L 3152,2871"/>
 <path fill="none" stroke="rgb(179,179,179)" stroke-linejoin="round" d="M 3002,1564 L 3152,1564"/>
 <path fill="none" stroke="rgb(179,179,179)" stroke-linejoin="round" d="M 3002,1564 L 3152,1564"/>
 <path fill="none" stroke="rgb(179,179,179)" stroke-linejoin="round" d="M 3152,9408 L 3152,1564"/>
 <path fill="rgb(0,169,51)" stroke="none" d="M 19186,9408 L 19748,9408 19748,8199 19186,8199 19186,9408 Z"/>
 <path fill="rgb(0,169,51)" stroke="none" d="M 18060,9408 L 18623,9408 18623,6149 18060,6149 18060,9408 Z"/>
 <path fill="rgb(0,169,51)" stroke="none" d="M 16935,9408 L 17498,9408 17498,5212 16935,5212 16935,9408 Z"/>
 <path fill="rgb(0,169,51)" stroke="none" d="M 15810,9408 L 16372,9408 16372,4333 15810,4333 15810,9408 Z"/>
 <path fill="rgb(0,169,51)" stroke="none" d="M 14684,9408 L 15247,9408 15247,3628 14684,3628 14684,9408 Z"/>
 <path fill="rgb(0,169,51)" stroke="none" d="M 13559,9408 L 14122,9408 14122,3031 13559,3031 13559,9408 Z"/>
 <path fill="rgb(0,169,51)" stroke="none" d="M 12434,9408 L 12997,9408 12997,2572 12434,2572 12434,9408 Z"/>
 <path fill="rgb(0,169,51)" stroke="none" d="M 11309,9408 L 11871,9408 11871,2266 11309,2266 11309,9408 Z"/>
 <path fill="rgb(0,169,51)" stroke="none" d="M 10184,9408 L 10746,9408 10746,2113 10184,2113 10184,9408 Z"/>
 <path fill="rgb(0,169,51)" stroke="none" d="M 9059,9408 L 9622,9408 9622,2124 9059,2124 9059,9408 Z"/>
 <path fill="rgb(0,169,51)" stroke="none" d="M 7934,9408 L 8497,9408 8497,2320 7934,2320 7934,9408 Z"/>
 <path fill="rgb(0,169,51)" stroke="none" d="M 6809,9408 L 7371,9408 7371,2669 6809,2669 6809,9408 Z"/>
 <path fill="rgb(0,169,51)" stroke="none" d="M 5683,9408 L 6246,9408 6246,3251 5683,3251 5683,9408 Z"/>
 <path fill="rgb(0,169,51)" stroke="none" d="M 4558,9408 L 5121,9408 5121,6246 4558,6246 4558,9408 Z"/>
 <path fill="rgb(0,169,51)" stroke="none" d="M 3433,9408 L 3995,9408 3995,9043 3433,9043 3433,9408 Z"/>
 <text class="TextShape"><tspan class="TextParagraph" font-family="Liberation Sans, sans-serif" font-size="353px" font-weight="400"><tspan class="TextPosition" x="3621" y="9976"><tspan fill="rgb(0,0,0)" stroke="none">0</tspan></tspan></tspan></text>
 <text class="TextShape"><tspan class="TextParagraph" font-family="Liberation Sans, sans-serif" font-size="353px" font-weight="400"><tspan class="TextPosition" x="4746" y="9976"><tspan fill="rgb(0,0,0)" stroke="none">4</tspan></tspan></tspan></text>
 <text class="TextShape"><tspan class="TextParagraph" font-family="Liberation Sans, sans-serif" font-size="353px" font-weight="400"><tspan class="TextPosition" x="5872" y="9976"><tspan fill="rgb(0,0,0)" stroke="none">5</tspan></tspan></tspan></text>
 <text class="TextShape"><tspan class="TextParagraph" font-family="Liberation Sans, sans-serif" font-size="353px" font-weight="400"><tspan class="TextPosition" x="6997" y="9976"><tspan fill="rgb(0,0,0)" stroke="none">6</tspan></tspan></tspan></text>
 <text class="TextShape"><tspan class="TextParagraph" font-family="Liberation Sans, sans-serif" font-size="353px" font-weight="400"><tspan class="TextPosition" x="8122" y="9976"><tspan fill="rgb(0,0,0)" stroke="none">7</tspan></tspan></tspan></text>
 <text class="TextShape"><tspan class="TextParagraph" font-family="Liberation Sans, sans-serif" font-size="353px" font-weight="400"><tspan class="TextPosition" x="9247" y="9976"><tspan fill="rgb(0,0,0)" stroke="none">8</tspan></tspan></tspan></text>
 <text class="TextShape"><tspan class="TextParagraph" font-family="Liberation Sans, sans-serif" font-size="353px" font-weight="400"><tspan class="TextPosition" x="10373" y="9976"><tspan fill="rgb(0,0,0)" stroke="none">9</tspan></tspan></tspan></text>
 <text class="TextShape"><tspan class="TextParagraph" font-family="Liberation Sans, sans-serif" font-size="353px" font-weight="400"><tspan class="TextPosition" x="11406" y="9976"><tspan fill="rgb(0,0,0)" stroke="none">10</tspan></tspan></tspan></text>
 <text class="TextShape"><tspan class="TextParagraph" font-family="Liberation Sans, sans-serif" font-size="353px" font-weight="400"><tspan class="TextPosition" x="12531" y="9976"><tspan fill="rgb(0,0,0)" stroke="none">11</tspan></tspan></tspan></text>
 <text class="TextShape"><tspan class="TextParagraph" font-family="Liberation Sans, sans-serif" font-size="353px" font-weight="400"><tspan class="TextPosition" x="13657" y="9976"><tspan fill="rgb(0,0,0)" stroke="none">12</tspan></tspan></tspan></text>
 <text class="TextShape"><tspan class="TextParagraph" font-family="Liberation Sans, sans-serif" font-size="353px" font-weight="400"><tspan class="TextPosition" x="14782" y="9976"><tspan fill="rgb(0,0,0)" stroke="none">13</tspan></tspan></tspan></text>
 <text class="TextShape"><tspan class="TextParagraph" font-family="Liberation Sans, sans-serif" font-size="353px" font-weight="400"><tspan class="TextPosition" x="15907" y="9976"><tspan fill="rgb(0,0,0)" stroke="none">14</tspan></tspan></tspan></text>
 <text class="TextShape"><tspan class="TextParagraph" font-family="Liberation Sans, sans-serif" font-size="353px" font-weight="400"><tspan class="TextPosition" x="17032" y="9976"><tspan fill="rgb(0,0,0)" stroke="none">15</tspan></tspan></tspan></text>
 <text class="TextShape"><tspan class="TextParagraph" font-family="Liberation Sans, sans-serif" font-size="353px" font-weight="400"><tspan class="TextPosition" x="18158" y="9976"><tspan fill="rgb(0,0,0)" stroke="none">16</tspan></tspan></tspan></text>
 <text class="TextShape"><tspan class="TextParagraph" font-family="Liberation Sans, sans-serif" font-size="353px" font-weight="400"><tspan class="TextPosition" x="19283" y="9976"><tspan fill="rgb(0,0,0)" stroke="none">17</tspan></tspan></tspan></text>
 <text class="TextShape"><tspan class="TextParagraph" font-family="Liberation Sans, sans-serif" font-size="353px" font-weight="400"><tspan class="TextPosition" x="2532" y="9529"><tspan fill="rgb(0,0,0)" stroke="none">10</tspan></tspan></tspan></text>
 <text class="TextShape"><tspan class="TextParagraph" font-family="Liberation Sans, sans-serif" font-size="353px" font-weight="400"><tspan class="TextPosition" x="2346" y="8221"><tspan fill="rgb(0,0,0)" stroke="none">100</tspan></tspan></tspan></text>
 <text class="TextShape"><tspan class="TextParagraph" font-family="Liberation Sans, sans-serif" font-size="353px" font-weight="400"><tspan class="TextPosition" x="2161" y="6914"><tspan fill="rgb(0,0,0)" stroke="none">1000</tspan></tspan></tspan></text>
 <text class="TextShape"><tspan class="TextParagraph" font-family="Liberation Sans, sans-serif" font-size="353px" font-weight="400"><tspan class="TextPosition" x="1976" y="5606"><tspan fill="rgb(0,0,0)" stroke="none">10000</tspan></tspan></tspan></text>
 <text class="TextShape"><tspan class="TextParagraph" font-family="Liberation Sans, sans-serif" font-size="353px" font-weight="400"><tspan class="TextPosition" x="1791" y="4299"><tspan fill="rgb(0,0,0)" stroke="none">100000</tspan></tspan></tspan></text>
 <text class="TextShape"><tspan class="TextParagraph" font-family="Liberation Sans, sans-serif" font-size="353px" font-weight="400"><tspan class="TextPosition" x="1606" y="2991"><tspan fill="rgb(0,0,0)" stroke="none">1000000</tspan></tspan></tspan></text>
 <text class="TextShape"><tspan class="TextParagraph" font-family="Liberation Sans, sans-serif" font-size="353px" font-weight="400"><tspan class="TextPosition" x="1420" y="1684"><tspan fill="rgb(0,0,0)" stroke="none">10000000</tspan></tspan></tspan></text>
 <text class="TextShape"><tspan class="TextParagraph" font-family="Liberation Sans, sans-serif" font-size="459px" font-weight="400"><tspan class="TextPosition" x="7348" y="896"><tspan fill="rgb(0,0,0)" stroke="none">Number of G in barcodes (R)</tspan></tspan></tspan></text>
 <text class="TextShape"><tspan class="TextParagraph" font-family="Liberation Sans, sans-serif" font-size="318px" font-weight="400"><tspan class="TextPosition" x="8926" y="10668"><tspan fill="rgb(0,0,0)" stroke="none">Number of G in barcodes</tspan></tspan></tspan></text>
 <text class="TextShape" transform="rotate(-90 837 6504)"><tspan class="TextParagraph" font-family="Liberation Sans, sans-serif" font-size="318px" font-weight="400"><tspan class="TextPosition" x="837" y="6504"><tspan fill="rgb(0,0,0)" stroke="none">Total count</tspan></tspan></tspan></text>
</svg>