<?xml version="1.0" encoding="UTF-8"?>
<!DOCTYPE svg PUBLIC "-//W3C//DTD SVG 1.1//EN" "http://www.w3.org/Graphics/SVG/1.1/DTD/svg11.dtd">
<svg width="204mm" height="113mm" viewBox="0 0 20400 11300" version="1.1" xmlns="http://www.w3.org/2000/svg" xmlns:xlink="http://www.w3.org/1999/xlink" stroke-width="28.222" stroke-linejoin="round" xml:space="preserve">
 <path fill="rgb(255,255,255)" stroke="none" d="M 10219,11262 L 0,11262 0,0 20438,0 20438,11262 10219,11262 Z"/>
 <path fill="none" stroke="rgb(179,179,179)" stroke-linejoin="round" d="M 11591,9409 L 3152,9409 3152,1565 20030,1565 20030,9409 11591,9409 Z"/>
 <path fill="none" stroke="rgb(179,179,179)" stroke-linejoin="round" d="M 20030,9408 L 3152,9408"/>
 <path fill="none" stroke="rgb(179,179,179)" stroke-linejoin="round" d="M 20030,8100 L 3152,8100"/>
 <path fill="none" stroke="rgb(179,179,179)" stroke-linejoin="round" d="M 20030,6793 L 3152,6793"/>
 <path fill="none" stroke="rgb(179,179,179)" stroke-linejoin="round" d="M 20030,5486 L 3152,5486"/>
 <path fill="none" stroke="rgb(179,179,179)" stroke-linejoin="round" d="M 20030,4179 L 3152,4179"/>
 <path fill="none" stroke="rgb(179,179,179)" stroke-linejoin="round" d="M 20030,2871 L 3152,2871"/>
 <path fill="none" stroke="rgb(179,179,179)" stroke-linejoin="round" d="M 20030,1564 L 3152,1564"/>
 <path fill="none" stroke="rgb(179,179,179)" stroke-linejoin="round" d="M 3152,9558 L 3152,9408"/>
 <path fill="none" stroke="rgb(179,179,179)" stroke-linejoin="round" d="M 3152,9558 L 3152,9408"/>
 <path fill="none" stroke="rgb(179,179,179)" stroke-linejoin="round" d="M 4206,9558 L 4206,9408"/>
 <path fill="none" stroke="rgb(179,179,179)" stroke-linejoin="round" d="M 4206,9558 L 4206,9408"/>
 <path fill="none" stroke="rgb(179,179,179)" stroke-linejoin="round" d="M 5261,9558 L 5261,9408"/>
 <path fill="none" stroke="rgb(179,179,179)" stroke-linejoin="round" d="M 5261,9558 L 5261,9408"/>
 <path fill="none" stroke="rgb(179,179,179)" stroke-linejoin="round" d="M 6316,9558 L 6316,9408"/>
 <path fill="none" stroke="rgb(179,179,179)" stroke-linejoin="round" d="M 6316,9558 L 6316,9408"/>
 <path fill="none" stroke="rgb(179,179,179)" stroke-linejoin="round" d="M 7371,9558 L 7371,9408"/>
 <path fill="none" stroke="rgb(179,179,179)" stroke-linejoin="round" d="M 7371,9558 L 7371,9408"/>
 <path fill="none" stroke="rgb(179,179,179)" stroke-linejoin="round" d="M 8426,9558 L 8426,9408"/>
 <path fill="none" stroke="rgb(179,179,179)" stroke-linejoin="round" d="M 8426,9558 L 8426,9408"/>
 <path fill="none" stroke="rgb(179,179,179)" stroke-linejoin="round" d="M 9481,9558 L 9481,9408"/>
 <path fill="none" stroke="rgb(179,179,179)" stroke-linejoin="round" d="M 9481,9558 L 9481,9408"/>
 <path fill="none" stroke="rgb(179,179,179)" stroke-linejoin="round" d="M 10535,9558 L 10535,9408"/>
 <path fill="none" stroke="rgb(179,179,179)" stroke-linejoin="round" d="M 10535,9558 L 10535,9408"/>
 <path fill="none" stroke="rgb(179,179,179)" stroke-linejoin="round" d="M 11590,9558 L 11590,9408"/>
 <path fill="none" stroke="rgb(179,179,179)" stroke-linejoin="round" d="M 11590,9558 L 11590,9408"/>
 <path fill="none" stroke="rgb(179,179,179)" stroke-linejoin="round" d="M 12645,9558 L 12645,9408"/>
 <path fill="none" stroke="rgb(179,179,179)" stroke-linejoin="round" d="M 12645,9558 L 12645,9408"/>
 <path fill="none" stroke="rgb(179,179,179)" stroke-linejoin="round" d="M 13700,9558 L 13700,9408"/>
 <path fill="none" stroke="rgb(179,179,179)" stroke-linejoin="round" d="M 13700,9558 L 13700,9408"/>
 <path fill="none" stroke="rgb(179,179,179)" stroke-linejoin="round" d="M 14755,9558 L 14755,9408"/>
 <path fill="none" stroke="rgb(179,179,179)" stroke-linejoin="round" d="M 14755,9558 L 14755,9408"/>
 <path fill="none" stroke="rgb(179,179,179)" stroke-linejoin="round" d="M 15810,9558 L 15810,9408"/>
 <path fill="none" stroke="rgb(179,179,179)" stroke-linejoin="round" d="M 15810,9558 L 15810,9408"/>
 <path fill="none" stroke="rgb(179,179,179)" stroke-linejoin="round" d="M 16865,9558 L 16865,9408"/>
 <path fill="none" stroke="rgb(179,179,179)" stroke-linejoin="round" d="M 16865,9558 L 16865,9408"/>
 <path fill="none" stroke="rgb(179,179,179)" stroke-linejoin="round" d="M 17920,9558 L 17920,9408"/>
 <path fill="none" stroke="rgb(179,179,179)" stroke-linejoin="round" d="M 17920,9558 L 17920,9408"/>
 <path fill="none" stroke="rgb(179,179,179)" stroke-linejoin="round" d="M 18975,9558 L 18975,9408"/>
 <path fill="none" stroke="rgb(179,179,179)" stroke-linejoin="round" d="M 18975,9558 L 18975,9408"/>
 <path fill="none" stroke="rgb(179,179,179)" stroke-linejoin="round" d="M 20030,9558 L 20030,9408"/>
 <path fill="none" stroke="rgb(179,179,179)" stroke-linejoin="round" d="M 20030,9558 L 20030,9408"/>
 <path fill="none" stroke="rgb(179,179,179)" stroke-linejoin="round" d="M 3152,9408 L 20030,9408"/>
 <path fill="none" stroke="rgb(179,179,179)" stroke-linejoin="round" d="M 3002,9408 L 3152,9408"/>
 <path fill="none" stroke="rgb(179,179,179)" stroke-linejoin="round" d="M 3002,9408 L 3152,9408"/>
 <path fill="none" stroke="rgb(179,179,179)" stroke-linejoin="round" d="M 3002,8100 L 3152,8100"/>
 <path fill="none" stroke="rgb(179,179,179)" stroke-linejoin="round" d="M 3002,8100 L 3152,8100"/>
 <path fill="none" stroke="rgb(179,179,179)" stroke-linejoin="round" d="M 3002,6793 L 3152,6793"/>
 <path fill="none" stroke="rgb(179,179,179)" stroke-linejoin="round" d="M 3002,6793 L 3152,6793"/>
 <path fill="none" stroke="rgb(179,179,179)" stroke-linejoin="round" d="M 3002,5486 L 3152,5486"/>
 <path fill="none" stroke="rgb(179,179,179)" stroke-linejoin="round" d="M 3002,5486 L 3152,5486"/>
 <path fill="none" stroke="rgb(179,179,179)" stroke-linejoin="round" d="M 3002,4179 L 3152,4179"/>
 <path fill="none" stroke="rgb(179,179,179)" stroke-linejoin="round" d="M 3002,4179 L 3152,4179"/>
 <path fill="none" stroke="rgb(179,179,179)" stroke-linejoin="round" d="M 3002,2871 L 3152,2871"/>
 <path fill="none" stroke="rgb(179,179,179)" stroke-linejoin="round" d="M 3002,2871 L 3152,2871"/>
 <path fill="none" stroke="rgb(179,179,179)" stroke-linejoin="round" d="M 3002,1564 L 3152,1564"/>
 <path fill="none" stroke="rgb(179,179,179)" stroke-linejoin="round" d="M 3002,1564 L 3152,1564"/>
 <path fill="none" stroke="rgb(179,179,179)" stroke-linejoin="round" d="M 3152,9408 L 3152,1564"/>
 <path fill="rgb(0,169,51)" stroke="none" d="M 19238,9408 L 19766,9408 19766,8529 19238,8529 19238,9408 Z"/>
 <path fill="rgb(0,169,51)" stroke="none" d="M 18183,9408 L 18711,9408 18711,6843 18183,6843 18183,9408 Z"/>
 <path fill="rgb(0,169,51)" stroke="none" d="M 17128,9408 L 17656,9408 17656,5695 17128,5695 17128,9408 Z"/>
 <path fill="rgb(0,169,51)" stroke="none" d="M 16073,9408 L 16601,9408 16601,4865 16073,4865 16073,9408 Z"/>
 <path fill="rgb(0,169,51)" stroke="none" d="M 15019,9408 L 15546,9408 15546,4044 15019,4044 15019,9408 Z"/>
 <path fill="rgb(0,169,51)" stroke="none" d="M 13964,9408 L 14491,9408 14491,3357 13964,3357 13964,9408 Z"/>
 <path fill="rgb(0,169,51)" stroke="none" d="M 12909,9408 L 13436,9408 13436,2829 12909,2829 12909,9408 Z"/>
 <path fill="rgb(0,169,51)" stroke="none" d="M 11854,9408 L 12381,9408 12381,2449 11854,2449 11854,9408 Z"/>
 <path fill="rgb(0,169,51)" stroke="none" d="M 10799,9408 L 11326,9408 11326,2215 10799,2215 10799,9408 Z"/>
 <path fill="rgb(0,169,51)" stroke="none" d="M 9745,9408 L 10271,9408 10271,2122 9745,2122 9745,9408 Z"/>
 <path fill="rgb(0,169,51)" stroke="none" d="M 8690,9408 L 9217,9408 9217,2210 8690,2210 8690,9408 Z"/>
 <path fill="rgb(0,169,51)" stroke="none" d="M 7635,9408 L 8162,9408 8162,2486 7635,2486 7635,9408 Z"/>
 <path fill="rgb(0,169,51)" stroke="none" d="M 6580,9408 L 7108,9408 7108,2996 6580,2996 6580,9408 Z"/>
 <path fill="rgb(0,169,51)" stroke="none" d="M 5525,9408 L 6053,9408 6053,3829 5525,3829 5525,9408 Z"/>
 <path fill="rgb(0,169,51)" stroke="none" d="M 4470,9408 L 4998,9408 4998,6303 4470,6303 4470,9408 Z"/>
 <path fill="rgb(0,169,51)" stroke="none" d="M 3415,9408 L 3943,9408 3943,8541 3415,8541 3415,9408 Z"/>
 <text class="TextShape"><tspan class="TextParagraph" font-family="Liberation Sans, sans-serif" font-size="353px" font-weight="400"><tspan class="TextPosition" x="3586" y="9976"><tspan fill="rgb(0,0,0)" stroke="none">0</tspan></tspan></tspan></text>
 <text class="TextShape"><tspan class="TextParagraph" font-family="Liberation Sans, sans-serif" font-size="353px" font-weight="400"><tspan class="TextPosition" x="4641" y="9976"><tspan fill="rgb(0,0,0)" stroke="none">3</tspan></tspan></tspan></text>
 <text class="TextShape"><tspan class="TextParagraph" font-family="Liberation Sans, sans-serif" font-size="353px" font-weight="400"><tspan class="TextPosition" x="5696" y="9976"><tspan fill="rgb(0,0,0)" stroke="none">4</tspan></tspan></tspan></text>
 <text class="TextShape"><tspan class="TextParagraph" font-family="Liberation Sans, sans-serif" font-size="353px" font-weight="400"><tspan class="TextPosition" x="6751" y="9976"><tspan fill="rgb(0,0,0)" stroke="none">5</tspan></tspan></tspan></text>
 <text class="TextShape"><tspan class="TextParagraph" font-family="Liberation Sans, sans-serif" font-size="353px" font-weight="400"><tspan class="TextPosition" x="7806" y="9976"><tspan fill="rgb(0,0,0)" stroke="none">6</tspan></tspan></tspan></text>
 <text class="TextShape"><tspan class="TextParagraph" font-family="Liberation Sans, sans-serif" font-size="353px" font-weight="400"><tspan class="TextPosition" x="8861" y="9976"><tspan fill="rgb(0,0,0)" stroke="none">7</tspan></tspan></tspan></text>
 <text class="TextShape"><tspan class="TextParagraph" font-family="Liberation Sans, sans-serif" font-size="353px" font-weight="400"><tspan class="TextPosition" x="9916" y="9976"><tspan fill="rgb(0,0,0)" stroke="none">8</tspan></tspan></tspan></text>
 <text class="TextShape"><tspan class="TextParagraph" font-family="Liberation Sans, sans-serif" font-size="353px" font-weight="400"><tspan class="TextPosition" x="10971" y="9976"><tspan fill="rgb(0,0,0)" stroke="none">9</tspan></tspan></tspan></text>
 <text class="TextShape"><tspan class="TextParagraph" font-family="Liberation Sans, sans-serif" font-size="353px" font-weight="400"><tspan class="TextPosition" x="11933" y="9976"><tspan fill="rgb(0,0,0)" stroke="none">10</tspan></tspan></tspan></text>
 <text class="TextShape"><tspan class="TextParagraph" font-family="Liberation Sans, sans-serif" font-size="353px" font-weight="400"><tspan class="TextPosition" x="12988" y="9976"><tspan fill="rgb(0,0,0)" stroke="none">11</tspan></tspan></tspan></text>
 <text class="TextShape"><tspan class="TextParagraph" font-family="Liberation Sans, sans-serif" font-size="353px" font-weight="400"><tspan class="TextPosition" x="14043" y="9976"><tspan fill="rgb(0,0,0)" stroke="none">12</tspan></tspan></tspan></text>
 <text class="TextShape"><tspan class="TextParagraph" font-family="Liberation Sans, sans-serif" font-size="353px" font-weight="400"><tspan class="TextPosition" x="15098" y="9976"><tspan fill="rgb(0,0,0)" stroke="none">13</tspan></tspan></tspan></text>
 <text class="TextShape"><tspan class="TextParagraph" font-family="Liberation Sans, sans-serif" font-size="353px" font-weight="400"><tspan class="TextPosition" x="16153" y="9976"><tspan fill="rgb(0,0,0)" stroke="none">14</tspan></tspan></tspan></text>
 <text class="TextShape"><tspan class="TextParagraph" font-family="Liberation Sans, sans-serif" font-size="353px" font-weight="400"><tspan class="TextPosition" x="17208" y="9976"><tspan fill="rgb(0,0,0)" stroke="none">15</tspan></tspan></tspan></text>
 <text class="TextShape"><tspan class="TextParagraph" font-family="Liberation Sans, sans-serif" font-size="353px" font-weight="400"><tspan class="TextPosition" x="18263" y="9976"><tspan fill="rgb(0,0,0)" stroke="none">16</tspan></tspan></tspan></text>
 <text class="TextShape"><tspan class="TextParagraph" font-family="Liberation Sans, sans-serif" font-size="353px" font-weight="400"><tspan class="TextPosition" x="19318" y="9976"><tspan fill="rgb(0,0,0)" stroke="none">17</tspan></tspan></tspan></text>
 <text class="TextShape"><tspan class="TextParagraph" font-family="Liberation Sans, sans-serif" font-size="353px" font-weight="400"><tspan class="TextPosition" x="2532" y="9529"><tspan fill="rgb(0,0,0)" stroke="none">10</tspan></tspan></tspan></text>
 <text class="TextShape"><tspan class="TextParagraph" font-family="Liberation Sans, sans-serif" font-size="353px" font-weight="400"><tspan class="TextPosition" x="2346" y="8221"><tspan fill="rgb(0,0,0)" stroke="none">100</tspan></tspan></tspan></text>
 <text class="TextShape"><tspan class="TextParagraph" font-family="Liberation Sans, sans-serif" font-size="353px" font-weight="400"><tspan class="TextPosition" x="2161" y="6914"><tspan fill="rgb(0,0,0)" stroke="none">1000</tspan></tspan></tspan></text>
 <text class="TextShape"><tspan class="TextParagraph" font-family="Liberation Sans, sans-serif" font-size="353px" font-weight="400"><tspan class="TextPosition" x="1976" y="5606"><tspan fill="rgb(0,0,0)" stroke="none">10000</tspan></tspan></tspan></text>
 <text class="TextShape"><tspan class="TextParagraph" font-family="Liberation Sans, sans-serif" font-size="353px" font-weight="400"><tspan class="TextPosition" x="1791" y="4299"><tspan fill="rgb(0,0,0)" stroke="none">100000</tspan></tspan></tspan></text>
 <text class="TextShape"><tspan class="TextParagraph" font-family="Liberation Sans, sans-serif" font-size="353px" font-weight="400"><tspan class="TextPosition" x="1606" y="2991"><tspan fill="rgb(0,0,0)" stroke="none">1000000</tspan></tspan></tspan></text>
 <text class="TextShape"><tspan class="TextParagraph" font-family="Liberation Sans, sans-serif" font-size="353px" font-weight="400"><tspan class="TextPosition" x="1420" y="1684"><tspan fill="rgb(0,0,0)" stroke="none">10000000</tspan></tspan></tspan></text>
 <text class="TextShape"><tspan class="TextParagraph" font-family="Liberation Sans, sans-serif" font-size="459px" font-weight="400"><tspan class="TextPosition" x="7374" y="896"><tspan fill="rgb(0,0,0)" stroke="none">Number of G in barcodes (F)</tspan></tspan></tspan></text>
 <text class="TextShape"><tspan class="TextParagraph" font-family="Liberation Sans, sans-serif" font-size="318px" font-weight="400"><tspan class="TextPosition" x="8926" y="10668"><tspan fill="rgb(0,0,0)" stroke="none">Number of G in barcodes</tspan></tspan></tspan></text>
 <text class="TextShape" transform="rotate(-90 837 6504)"><tspan class="TextParagraph" font-family="Liberation Sans, sans-serif" font-size="318px" font-weight="400"><tspan class="TextPosition" x="837" y="6504"><tspan fill="rgb(0,0,0)" stroke="none">Total count</tspan></tspan></tspan></text>
</svg>