<?xml version="1.0" encoding="UTF-8"?>
<!DOCTYPE svg PUBLIC "-//W3C//DTD SVG 1.1//EN" "http://www.w3.org/Graphics/SVG/1.1/DTD/svg11.dtd">
<svg width="204mm" height="113mm" viewBox="0 0 20400 11300" version="1.1" xmlns="http://www.w3.org/2000/svg" xmlns:xlink="http://www.w3.org/1999/xlink" stroke-width="28.222" stroke-linejoin="round" xml:space="preserve">
 <path fill="rgb(255,255,255)" stroke="none" d="M 10220,11262 L 0,11262 0,0 20439,0 20439,11262 10220,11262 Z"/>
 <path fill="none" stroke="rgb(179,179,179)" stroke-linejoin="round" d="M 11591,9409 L 3152,9409 3152,1565 20031,1565 20031,9409 11591,9409 Z"/>
 <path fill="none" stroke="rgb(179,179,179)" stroke-linejoin="round" d="M 20031,9408 L 3152,9408"/>
 <path fill="none" stroke="rgb(179,179,179)" stroke-linejoin="round" d="M 20031,8100 L 3152,8100"/>
 <path fill="none" stroke="rgb(179,179,179)" stroke-linejoin="round" d="M 20031,6793 L 3152,6793"/>
 <path fill="none" stroke="rgb(179,179,179)" stroke-linejoin="round" d="M 20031,5486 L 3152,5486"/>
 <path fill="none" stroke="rgb(179,179,179)" stroke-linejoin="round" d="M 20031,4179 L 3152,4179"/>
 <path fill="none" stroke="rgb(179,179,179)" stroke-linejoin="round" d="M 20031,2871 L 3152,2871"/>
 <path fill="none" stroke="rgb(179,179,179)" stroke-linejoin="round" d="M 20031,1564 L 3152,1564"/>
 <path fill="none" stroke="rgb(179,179,179)" stroke-linejoin="round" d="M 3152,9558 L 3152,9408"/>
 <path fill="none" stroke="rgb(179,179,179)" stroke-linejoin="round" d="M 3152,9558 L 3152,9408"/>
 <path fill="none" stroke="rgb(179,179,179)" stroke-linejoin="round" d="M 4089,9558 L 4089,9408"/>
 <path fill="none" stroke="rgb(179,179,179)" stroke-linejoin="round" d="M 4089,9558 L 4089,9408"/>
 <path fill="none" stroke="rgb(179,179,179)" stroke-linejoin="round" d="M 5027,9558 L 5027,9408"/>
 <path fill="none" stroke="rgb(179,179,179)" stroke-linejoin="round" d="M 5027,9558 L 5027,9408"/>
 <path fill="none" stroke="rgb(179,179,179)" stroke-linejoin="round" d="M 5965,9558 L 5965,9408"/>
 <path fill="none" stroke="rgb(179,179,179)" stroke-linejoin="round" d="M 5965,9558 L 5965,9408"/>
 <path fill="none" stroke="rgb(179,179,179)" stroke-linejoin="round" d="M 6903,9558 L 6903,9408"/>
 <path fill="none" stroke="rgb(179,179,179)" stroke-linejoin="round" d="M 6903,9558 L 6903,9408"/>
 <path fill="none" stroke="rgb(179,179,179)" stroke-linejoin="round" d="M 7840,9558 L 7840,9408"/>
 <path fill="none" stroke="rgb(179,179,179)" stroke-linejoin="round" d="M 7840,9558 L 7840,9408"/>
 <path fill="none" stroke="rgb(179,179,179)" stroke-linejoin="round" d="M 8778,9558 L 8778,9408"/>
 <path fill="none" stroke="rgb(179,179,179)" stroke-linejoin="round" d="M 8778,9558 L 8778,9408"/>
 <path fill="none" stroke="rgb(179,179,179)" stroke-linejoin="round" d="M 9716,9558 L 9716,9408"/>
 <path fill="none" stroke="rgb(179,179,179)" stroke-linejoin="round" d="M 9716,9558 L 9716,9408"/>
 <path fill="none" stroke="rgb(179,179,179)" stroke-linejoin="round" d="M 10653,9558 L 10653,9408"/>
 <path fill="none" stroke="rgb(179,179,179)" stroke-linejoin="round" d="M 10653,9558 L 10653,9408"/>
 <path fill="none" stroke="rgb(179,179,179)" stroke-linejoin="round" d="M 11591,9558 L 11591,9408"/>
 <path fill="none" stroke="rgb(179,179,179)" stroke-linejoin="round" d="M 11591,9558 L 11591,9408"/>
 <path fill="none" stroke="rgb(179,179,179)" stroke-linejoin="round" d="M 12528,9558 L 12528,9408"/>
 <path fill="none" stroke="rgb(179,179,179)" stroke-linejoin="round" d="M 12528,9558 L 12528,9408"/>
 <path fill="none" stroke="rgb(179,179,179)" stroke-linejoin="round" d="M 13466,9558 L 13466,9408"/>
 <path fill="none" stroke="rgb(179,179,179)" stroke-linejoin="round" d="M 13466,9558 L 13466,9408"/>
 <path fill="none" stroke="rgb(179,179,179)" stroke-linejoin="round" d="M 14404,9558 L 14404,9408"/>
 <path fill="none" stroke="rgb(179,179,179)" stroke-linejoin="round" d="M 14404,9558 L 14404,9408"/>
 <path fill="none" stroke="rgb(179,179,179)" stroke-linejoin="round" d="M 15342,9558 L 15342,9408"/>
 <path fill="none" stroke="rgb(179,179,179)" stroke-linejoin="round" d="M 15342,9558 L 15342,9408"/>
 <path fill="none" stroke="rgb(179,179,179)" stroke-linejoin="round" d="M 16279,9558 L 16279,9408"/>
 <path fill="none" stroke="rgb(179,179,179)" stroke-linejoin="round" d="M 16279,9558 L 16279,9408"/>
 <path fill="none" stroke="rgb(179,179,179)" stroke-linejoin="round" d="M 17217,9558 L 17217,9408"/>
 <path fill="none" stroke="rgb(179,179,179)" stroke-linejoin="round" d="M 17217,9558 L 17217,9408"/>
 <path fill="none" stroke="rgb(179,179,179)" stroke-linejoin="round" d="M 18155,9558 L 18155,9408"/>
 <path fill="none" stroke="rgb(179,179,179)" stroke-linejoin="round" d="M 18155,9558 L 18155,9408"/>
 <path fill="none" stroke="rgb(179,179,179)" stroke-linejoin="round" d="M 19093,9558 L 19093,9408"/>
 <path fill="none" stroke="rgb(179,179,179)" stroke-linejoin="round" d="M 19093,9558 L 19093,9408"/>
 <path fill="none" stroke="rgb(179,179,179)" stroke-linejoin="round" d="M 20031,9558 L 20031,9408"/>
 <path fill="none" stroke="rgb(179,179,179)" stroke-linejoin="round" d="M 20031,9558 L 20031,9408"/>
 <path fill="none" stroke="rgb(179,179,179)" stroke-linejoin="round" d="M 3152,9408 L 20031,9408"/>
 <path fill="none" stroke="rgb(179,179,179)" stroke-linejoin="round" d="M 3002,9408 L 3152,9408"/>
 <path fill="none" stroke="rgb(179,179,179)" stroke-linejoin="round" d="M 3002,9408 L 3152,9408"/>
 <path fill="none" stroke="rgb(179,179,179)" stroke-linejoin="round" d="M 3002,8100 L 3152,8100"/>
 <path fill="none" stroke="rgb(179,179,179)" stroke-linejoin="round" d="M 3002,8100 L 3152,8100"/>
 <path fill="none" stroke="rgb(179,179,179)" stroke-linejoin="round" d="M 3002,6793 L 3152,6793"/>
 <path fill="none" stroke="rgb(179,179,179)" stroke-linejoin="round" d="M 3002,6793 L 3152,6793"/>
 <path fill="none" stroke="rgb(179,179,179)" stroke-linejoin="round" d="M 3002,5486 L 3152,5486"/>
 <path fill="none" stroke="rgb(179,179,179)" stroke-linejoin="round" d="M 3002,5486 L 3152,5486"/>
 <path fill="none" stroke="rgb(179,179,179)" stroke-linejoin="round" d="M 3002,4179 L 3152,4179"/>
 <path fill="none" stroke="rgb(179,179,179)" stroke-linejoin="round" d="M 3002,4179 L 3152,4179"/>
 <path fill="none" stroke="rgb(179,179,179)" stroke-linejoin="round" d="M 3002,2871 L 3152,2871"/>
 <path fill="none" stroke="rgb(179,179,179)" stroke-linejoin="round" d="M 3002,2871 L 3152,2871"/>
 <path fill="none" stroke="rgb(179,179,179)" stroke-linejoin="round" d="M 3002,1564 L 3152,1564"/>
 <path fill="none" stroke="rgb(179,179,179)" stroke-linejoin="round" d="M 3002,1564 L 3152,1564"/>
 <path fill="none" stroke="rgb(179,179,179)" stroke-linejoin="round" d="M 3152,9408 L 3152,1564"/>
 <path fill="rgb(0,69,134)" stroke="none" d="M 19327,9408 L 19796,9408 19796,6127 19327,6127 19327,9408 Z"/>
 <path fill="rgb(0,69,134)" stroke="none" d="M 18389,9408 L 18858,9408 18858,5171 18389,5171 18389,9408 Z"/>
 <path fill="rgb(0,69,134)" stroke="none" d="M 17452,9408 L 17921,9408 17921,4578 17452,4578 17452,9408 Z"/>
 <path fill="rgb(0,69,134)" stroke="none" d="M 16514,9408 L 16983,9408 16983,4221 16514,4221 16514,9408 Z"/>
 <path fill="rgb(0,69,134)" stroke="none" d="M 15576,9408 L 16045,9408 16045,3969 15576,3969 15576,9408 Z"/>
 <path fill="rgb(0,69,134)" stroke="none" d="M 14638,9408 L 15107,9408 15107,3798 14638,3798 14638,9408 Z"/>
 <path fill="rgb(0,69,134)" stroke="none" d="M 13701,9408 L 14169,9408 14169,3696 13701,3696 13701,9408 Z"/>
 <path fill="rgb(0,69,134)" stroke="none" d="M 12763,9408 L 13232,9408 13232,3620 12763,3620 12763,9408 Z"/>
 <path fill="rgb(0,69,134)" stroke="none" d="M 11825,9408 L 12294,9408 12294,3492 11825,3492 11825,9408 Z"/>
 <path fill="rgb(0,69,134)" stroke="none" d="M 10887,9408 L 11356,9408 11356,3276 10887,3276 10887,9408 Z"/>
 <path fill="rgb(0,69,134)" stroke="none" d="M 9950,9408 L 10418,9408 10418,2874 9950,2874 9950,9408 Z"/>
 <path fill="rgb(0,69,134)" stroke="none" d="M 9013,9408 L 9482,9408 9482,2425 9013,2425 9013,9408 Z"/>
 <path fill="rgb(0,69,134)" stroke="none" d="M 8075,9408 L 8544,9408 8544,2074 8075,2074 8075,9408 Z"/>
 <path fill="rgb(0,69,134)" stroke="none" d="M 7137,9408 L 7606,9408 7606,1933 7137,1933 7137,9408 Z"/>
 <path fill="rgb(0,69,134)" stroke="none" d="M 6199,9408 L 6668,9408 6668,2181 6199,2181 6199,9408 Z"/>
 <path fill="rgb(0,69,134)" stroke="none" d="M 5262,9408 L 5730,9408 5730,4035 5262,4035 5262,9408 Z"/>
 <path fill="rgb(0,69,134)" stroke="none" d="M 4324,9408 L 4793,9408 4793,5815 4324,5815 4324,9408 Z"/>
 <path fill="rgb(0,69,134)" stroke="none" d="M 3386,9408 L 3855,9408 3855,9043 3386,9043 3386,9408 Z"/>
 <text class="TextShape"><tspan class="TextParagraph" font-family="Liberation Sans, sans-serif" font-size="353px" font-weight="400"><tspan class="TextPosition" x="3527" y="9976"><tspan fill="rgb(0,0,0)" stroke="none">0</tspan></tspan></tspan></text>
 <text class="TextShape"><tspan class="TextParagraph" font-family="Liberation Sans, sans-serif" font-size="353px" font-weight="400"><tspan class="TextPosition" x="4465" y="9976"><tspan fill="rgb(0,0,0)" stroke="none">2</tspan></tspan></tspan></text>
 <text class="TextShape"><tspan class="TextParagraph" font-family="Liberation Sans, sans-serif" font-size="353px" font-weight="400"><tspan class="TextPosition" x="5403" y="9976"><tspan fill="rgb(0,0,0)" stroke="none">3</tspan></tspan></tspan></text>
 <text class="TextShape"><tspan class="TextParagraph" font-family="Liberation Sans, sans-serif" font-size="353px" font-weight="400"><tspan class="TextPosition" x="6341" y="9976"><tspan fill="rgb(0,0,0)" stroke="none">4</tspan></tspan></tspan></text>
 <text class="TextShape"><tspan class="TextParagraph" font-family="Liberation Sans, sans-serif" font-size="353px" font-weight="400"><tspan class="TextPosition" x="7279" y="9976"><tspan fill="rgb(0,0,0)" stroke="none">5</tspan></tspan></tspan></text>
 <text class="TextShape"><tspan class="TextParagraph" font-family="Liberation Sans, sans-serif" font-size="353px" font-weight="400"><tspan class="TextPosition" x="8216" y="9976"><tspan fill="rgb(0,0,0)" stroke="none">6</tspan></tspan></tspan></text>
 <text class="TextShape"><tspan class="TextParagraph" font-family="Liberation Sans, sans-serif" font-size="353px" font-weight="400"><tspan class="TextPosition" x="9154" y="9976"><tspan fill="rgb(0,0,0)" stroke="none">7</tspan></tspan></tspan></text>
 <text class="TextShape"><tspan class="TextParagraph" font-family="Liberation Sans, sans-serif" font-size="353px" font-weight="400"><tspan class="TextPosition" x="10092" y="9976"><tspan fill="rgb(0,0,0)" stroke="none">8</tspan></tspan></tspan></text>
 <text class="TextShape"><tspan class="TextParagraph" font-family="Liberation Sans, sans-serif" font-size="353px" font-weight="400"><tspan class="TextPosition" x="11030" y="9976"><tspan fill="rgb(0,0,0)" stroke="none">9</tspan></tspan></tspan></text>
 <text class="TextShape"><tspan class="TextParagraph" font-family="Liberation Sans, sans-serif" font-size="353px" font-weight="400"><tspan class="TextPosition" x="11875" y="9976"><tspan fill="rgb(0,0,0)" stroke="none">10</tspan></tspan></tspan></text>
 <text class="TextShape"><tspan class="TextParagraph" font-family="Liberation Sans, sans-serif" font-size="353px" font-weight="400"><tspan class="TextPosition" x="12813" y="9976"><tspan fill="rgb(0,0,0)" stroke="none">11</tspan></tspan></tspan></text>
 <text class="TextShape"><tspan class="TextParagraph" font-family="Liberation Sans, sans-serif" font-size="353px" font-weight="400"><tspan class="TextPosition" x="13751" y="9976"><tspan fill="rgb(0,0,0)" stroke="none">12</tspan></tspan></tspan></text>
 <text class="TextShape"><tspan class="TextParagraph" font-family="Liberation Sans, sans-serif" font-size="353px" font-weight="400"><tspan class="TextPosition" x="14689" y="9976"><tspan fill="rgb(0,0,0)" stroke="none">13</tspan></tspan></tspan></text>
 <text class="TextShape"><tspan class="TextParagraph" font-family="Liberation Sans, sans-serif" font-size="353px" font-weight="400"><tspan class="TextPosition" x="15627" y="9976"><tspan fill="rgb(0,0,0)" stroke="none">14</tspan></tspan></tspan></text>
 <text class="TextShape"><tspan class="TextParagraph" font-family="Liberation Sans, sans-serif" font-size="353px" font-weight="400"><tspan class="TextPosition" x="16564" y="9976"><tspan fill="rgb(0,0,0)" stroke="none">15</tspan></tspan></tspan></text>
 <text class="TextShape"><tspan class="TextParagraph" font-family="Liberation Sans, sans-serif" font-size="353px" font-weight="400"><tspan class="TextPosition" x="17502" y="9976"><tspan fill="rgb(0,0,0)" stroke="none">16</tspan></tspan></tspan></text>
 <text class="TextShape"><tspan class="TextParagraph" font-family="Liberation Sans, sans-serif" font-size="353px" font-weight="400"><tspan class="TextPosition" x="18440" y="9976"><tspan fill="rgb(0,0,0)" stroke="none">17</tspan></tspan></tspan></text>
 <text class="TextShape"><tspan class="TextParagraph" font-family="Liberation Sans, sans-serif" font-size="353px" font-weight="400"><tspan class="TextPosition" x="19378" y="9976"><tspan fill="rgb(0,0,0)" stroke="none">18</tspan></tspan></tspan></text>
 <text class="TextShape"><tspan class="TextParagraph" font-family="Liberation Sans, sans-serif" font-size="353px" font-weight="400"><tspan class="TextPosition" x="2532" y="9529"><tspan fill="rgb(0,0,0)" stroke="none">10</tspan></tspan></tspan></text>
 <text class="TextShape"><tspan class="TextParagraph" font-family="Liberation Sans, sans-serif" font-size="353px" font-weight="400"><tspan class="TextPosition" x="2346" y="8221"><tspan fill="rgb(0,0,0)" stroke="none">100</tspan></tspan></tspan></text>
 <text class="TextShape"><tspan class="TextParagraph" font-family="Liberation Sans, sans-serif" font-size="353px" font-weight="400"><tspan class="TextPosition" x="2161" y="6914"><tspan fill="rgb(0,0,0)" stroke="none">1000</tspan></tspan></tspan></text>
 <text class="TextShape"><tspan class="TextParagraph" font-family="Liberation Sans, sans-serif" font-size="353px" font-weight="400"><tspan class="TextPosition" x="1976" y="5606"><tspan fill="rgb(0,0,0)" stroke="none">10000</tspan></tspan></tspan></text>
 <text class="TextShape"><tspan class="TextParagraph" font-family="Liberation Sans, sans-serif" font-size="353px" font-weight="400"><tspan class="TextPosition" x="1791" y="4299"><tspan fill="rgb(0,0,0)" stroke="none">100000</tspan></tspan></tspan></text>
 <text class="TextShape"><tspan class="TextParagraph" font-family="Liberation Sans, sans-serif" font-size="353px" font-weight="400"><tspan class="TextPosition" x="1606" y="2991"><tspan fill="rgb(0,0,0)" stroke="none">1000000</tspan></tspan></tspan></text>
 <text class="TextShape"><tspan class="TextParagraph" font-family="Liberation Sans, sans-serif" font-size="353px" font-weight="400"><tspan class="TextPosition" x="1420" y="1684"><tspan fill="rgb(0,0,0)" stroke="none">10000000</tspan></tspan></tspan></text>
 <text class="TextShape"><tspan class="TextParagraph" font-family="Liberation Sans, sans-serif" font-size="459px" font-weight="400"><tspan class="TextPosition" x="7375" y="896"><tspan fill="rgb(0,0,0)" stroke="none">Number of A in barcodes (R)</tspan></tspan></tspan></text>
 <text class="TextShape"><tspan class="TextParagraph" font-family="Liberation Sans, sans-serif" font-size="318px" font-weight="400"><tspan class="TextPosition" x="8939" y="10668"><tspan fill="rgb(0,0,0)" stroke="none">Number of A in barcodes</tspan></tspan></tspan></text>
 <text class="TextShape" transform="rotate(-90 837 6504)"><tspan class="TextParagraph" font-family="Liberation Sans, sans-serif" font-size="318px" font-weight="400"><tspan class="TextPosition" x="837" y="6504"><tspan fill="rgb(0,0,0)" stroke="none">Total count</tspan></tspan></tspan></text>
</svg>