<?xml version="1.0" encoding="UTF-8"?>
<!DOCTYPE svg PUBLIC "-//W3C//DTD SVG 1.1//EN" "http://www.w3.org/Graphics/SVG/1.1/DTD/svg11.dtd">
<svg width="242mm" height="171mm" viewBox="0 0 24200 17100" version="1.1" xmlns="http://www.w3.org/2000/svg" xmlns:xlink="http://www.w3.org/1999/xlink" stroke-width="28.222" stroke-linejoin="round" xml:space="preserve">
 <path fill="rgb(255,255,255)" stroke="none" d="M 12101,17052 L 0,17052 0,0 24202,0 24202,17052 12101,17052 Z"/>
 <path fill="none" stroke="rgb(179,179,179)" stroke-linejoin="round" d="M 13001,13842 L 2298,13842 2298,535 23705,535 23705,13842 13001,13842 Z"/>
 <path fill="none" stroke="rgb(179,179,179)" stroke-linejoin="round" d="M 23705,13841 L 2298,13841"/>
 <path fill="none" stroke="rgb(179,179,179)" stroke-linejoin="round" d="M 23705,12510 L 2298,12510"/>
 <path fill="none" stroke="rgb(179,179,179)" stroke-linejoin="round" d="M 23705,11179 L 2298,11179"/>
 <path fill="none" stroke="rgb(179,179,179)" stroke-linejoin="round" d="M 23705,9848 L 2298,9848"/>
 <path fill="none" stroke="rgb(179,179,179)" stroke-linejoin="round" d="M 23705,8518 L 2298,8518"/>
 <path fill="none" stroke="rgb(179,179,179)" stroke-linejoin="round" d="M 23705,7188 L 2298,7188"/>
 <path fill="none" stroke="rgb(179,179,179)" stroke-linejoin="round" d="M 23705,5857 L 2298,5857"/>
 <path fill="none" stroke="rgb(179,179,179)" stroke-linejoin="round" d="M 23705,4526 L 2298,4526"/>
 <path fill="none" stroke="rgb(179,179,179)" stroke-linejoin="round" d="M 23705,3195 L 2298,3195"/>
 <path fill="none" stroke="rgb(179,179,179)" stroke-linejoin="round" d="M 23705,1864 L 2298,1864"/>
 <path fill="none" stroke="rgb(179,179,179)" stroke-linejoin="round" d="M 23705,534 L 2298,534"/>
 <path fill="none" stroke="rgb(179,179,179)" stroke-linejoin="round" d="M 2298,13991 L 2298,13841"/>
 <path fill="none" stroke="rgb(179,179,179)" stroke-linejoin="round" d="M 4082,13991 L 4082,13841"/>
 <path fill="none" stroke="rgb(179,179,179)" stroke-linejoin="round" d="M 5866,13991 L 5866,13841"/>
 <path fill="none" stroke="rgb(179,179,179)" stroke-linejoin="round" d="M 7650,13991 L 7650,13841"/>
 <path fill="none" stroke="rgb(179,179,179)" stroke-linejoin="round" d="M 9434,13991 L 9434,13841"/>
 <path fill="none" stroke="rgb(179,179,179)" stroke-linejoin="round" d="M 11218,13991 L 11218,13841"/>
 <path fill="none" stroke="rgb(179,179,179)" stroke-linejoin="round" d="M 13001,13991 L 13001,13841"/>
 <path fill="none" stroke="rgb(179,179,179)" stroke-linejoin="round" d="M 14784,13991 L 14784,13841"/>
 <path fill="none" stroke="rgb(179,179,179)" stroke-linejoin="round" d="M 16569,13991 L 16569,13841"/>
 <path fill="none" stroke="rgb(179,179,179)" stroke-linejoin="round" d="M 18353,13991 L 18353,13841"/>
 <path fill="none" stroke="rgb(179,179,179)" stroke-linejoin="round" d="M 20137,13991 L 20137,13841"/>
 <path fill="none" stroke="rgb(179,179,179)" stroke-linejoin="round" d="M 21921,13991 L 21921,13841"/>
 <path fill="none" stroke="rgb(179,179,179)" stroke-linejoin="round" d="M 23705,13991 L 23705,13841"/>
 <path fill="none" stroke="rgb(179,179,179)" stroke-linejoin="round" d="M 2298,14389 L 2298,13841"/>
 <path fill="none" stroke="rgb(179,179,179)" stroke-linejoin="round" d="M 4082,14389 L 4082,13841"/>
 <path fill="none" stroke="rgb(179,179,179)" stroke-linejoin="round" d="M 5866,14389 L 5866,13841"/>
 <path fill="none" stroke="rgb(179,179,179)" stroke-linejoin="round" d="M 7650,14389 L 7650,13841"/>
 <path fill="none" stroke="rgb(179,179,179)" stroke-linejoin="round" d="M 9434,14389 L 9434,13841"/>
 <path fill="none" stroke="rgb(179,179,179)" stroke-linejoin="round" d="M 11218,14389 L 11218,13841"/>
 <path fill="none" stroke="rgb(179,179,179)" stroke-linejoin="round" d="M 13001,14389 L 13001,13841"/>
 <path fill="none" stroke="rgb(179,179,179)" stroke-linejoin="round" d="M 14784,14389 L 14784,13841"/>
 <path fill="none" stroke="rgb(179,179,179)" stroke-linejoin="round" d="M 16569,14389 L 16569,13841"/>
 <path fill="none" stroke="rgb(179,179,179)" stroke-linejoin="round" d="M 18353,14389 L 18353,13841"/>
 <path fill="none" stroke="rgb(179,179,179)" stroke-linejoin="round" d="M 20137,14389 L 20137,13841"/>
 <path fill="none" stroke="rgb(179,179,179)" stroke-linejoin="round" d="M 21921,14389 L 21921,13841"/>
 <path fill="none" stroke="rgb(179,179,179)" stroke-linejoin="round" d="M 23705,14389 L 23705,13841"/>
 <path fill="none" stroke="rgb(179,179,179)" stroke-linejoin="round" d="M 2298,13991 L 2298,13841"/>
 <path fill="none" stroke="rgb(179,179,179)" stroke-linejoin="round" d="M 2298,13991 L 2298,13841"/>
 <path fill="none" stroke="rgb(179,179,179)" stroke-linejoin="round" d="M 4082,13991 L 4082,13841"/>
 <path fill="none" stroke="rgb(179,179,179)" stroke-linejoin="round" d="M 4082,13991 L 4082,13841"/>
 <path fill="none" stroke="rgb(179,179,179)" stroke-linejoin="round" d="M 5866,13991 L 5866,13841"/>
 <path fill="none" stroke="rgb(179,179,179)" stroke-linejoin="round" d="M 5866,13991 L 5866,13841"/>
 <path fill="none" stroke="rgb(179,179,179)" stroke-linejoin="round" d="M 7650,13991 L 7650,13841"/>
 <path fill="none" stroke="rgb(179,179,179)" stroke-linejoin="round" d="M 7650,13991 L 7650,13841"/>
 <path fill="none" stroke="rgb(179,179,179)" stroke-linejoin="round" d="M 9434,13991 L 9434,13841"/>
 <path fill="none" stroke="rgb(179,179,179)" stroke-linejoin="round" d="M 9434,13991 L 9434,13841"/>
 <path fill="none" stroke="rgb(179,179,179)" stroke-linejoin="round" d="M 11218,13991 L 11218,13841"/>
 <path fill="none" stroke="rgb(179,179,179)" stroke-linejoin="round" d="M 11218,13991 L 11218,13841"/>
 <path fill="none" stroke="rgb(179,179,179)" stroke-linejoin="round" d="M 13001,13991 L 13001,13841"/>
 <path fill="none" stroke="rgb(179,179,179)" stroke-linejoin="round" d="M 13001,13991 L 13001,13841"/>
 <path fill="none" stroke="rgb(179,179,179)" stroke-linejoin="round" d="M 14784,13991 L 14784,13841"/>
 <path fill="none" stroke="rgb(179,179,179)" stroke-linejoin="round" d="M 14784,13991 L 14784,13841"/>
 <path fill="none" stroke="rgb(179,179,179)" stroke-linejoin="round" d="M 16569,13991 L 16569,13841"/>
 <path fill="none" stroke="rgb(179,179,179)" stroke-linejoin="round" d="M 16569,13991 L 16569,13841"/>
 <path fill="none" stroke="rgb(179,179,179)" stroke-linejoin="round" d="M 18353,13991 L 18353,13841"/>
 <path fill="none" stroke="rgb(179,179,179)" stroke-linejoin="round" d="M 18353,13991 L 18353,13841"/>
 <path fill="none" stroke="rgb(179,179,179)" stroke-linejoin="round" d="M 20137,13991 L 20137,13841"/>
 <path fill="none" stroke="rgb(179,179,179)" stroke-linejoin="round" d="M 20137,13991 L 20137,13841"/>
 <path fill="none" stroke="rgb(179,179,179)" stroke-linejoin="round" d="M 21921,13991 L 21921,13841"/>
 <path fill="none" stroke="rgb(179,179,179)" stroke-linejoin="round" d="M 21921,13991 L 21921,13841"/>
 <path fill="none" stroke="rgb(179,179,179)" stroke-linejoin="round" d="M 23705,13991 L 23705,13841"/>
 <path fill="none" stroke="rgb(179,179,179)" stroke-linejoin="round" d="M 23705,13991 L 23705,13841"/>
 <path fill="none" stroke="rgb(179,179,179)" stroke-linejoin="round" d="M 2298,13841 L 23705,13841"/>
 <path fill="none" stroke="rgb(179,179,179)" stroke-linejoin="round" d="M 2148,13841 L 2298,13841"/>
 <path fill="none" stroke="rgb(179,179,179)" stroke-linejoin="round" d="M 2148,13841 L 2298,13841"/>
 <path fill="none" stroke="rgb(179,179,179)" stroke-linejoin="round" d="M 2148,12510 L 2298,12510"/>
 <path fill="none" stroke="rgb(179,179,179)" stroke-linejoin="round" d="M 2148,12510 L 2298,12510"/>
 <path fill="none" stroke="rgb(179,179,179)" stroke-linejoin="round" d="M 2148,11179 L 2298,11179"/>
 <path fill="none" stroke="rgb(179,179,179)" stroke-linejoin="round" d="M 2148,11179 L 2298,11179"/>
 <path fill="none" stroke="rgb(179,179,179)" stroke-linejoin="round" d="M 2148,9848 L 2298,9848"/>
 <path fill="none" stroke="rgb(179,179,179)" stroke-linejoin="round" d="M 2148,9848 L 2298,9848"/>
 <path fill="none" stroke="rgb(179,179,179)" stroke-linejoin="round" d="M 2148,8518 L 2298,8518"/>
 <path fill="none" stroke="rgb(179,179,179)" stroke-linejoin="round" d="M 2148,8518 L 2298,8518"/>
 <path fill="none" stroke="rgb(179,179,179)" stroke-linejoin="round" d="M 2148,7188 L 2298,7188"/>
 <path fill="none" stroke="rgb(179,179,179)" stroke-linejoin="round" d="M 2148,7188 L 2298,7188"/>
 <path fill="none" stroke="rgb(179,179,179)" stroke-linejoin="round" d="M 2148,5857 L 2298,5857"/>
 <path fill="none" stroke="rgb(179,179,179)" stroke-linejoin="round" d="M 2148,5857 L 2298,5857"/>
 <path fill="none" stroke="rgb(179,179,179)" stroke-linejoin="round" d="M 2148,4526 L 2298,4526"/>
 <path fill="none" stroke="rgb(179,179,179)" stroke-linejoin="round" d="M 2148,4526 L 2298,4526"/>
 <path fill="none" stroke="rgb(179,179,179)" stroke-linejoin="round" d="M 2148,3195 L 2298,3195"/>
 <path fill="none" stroke="rgb(179,179,179)" stroke-linejoin="round" d="M 2148,3195 L 2298,3195"/>
 <path fill="none" stroke="rgb(179,179,179)" stroke-linejoin="round" d="M 2148,1864 L 2298,1864"/>
 <path fill="none" stroke="rgb(179,179,179)" stroke-linejoin="round" d="M 2148,1864 L 2298,1864"/>
 <path fill="none" stroke="rgb(179,179,179)" stroke-linejoin="round" d="M 2148,534 L 2298,534"/>
 <path fill="none" stroke="rgb(179,179,179)" stroke-linejoin="round" d="M 2148,534 L 2298,534"/>
 <path fill="none" stroke="rgb(179,179,179)" stroke-linejoin="round" d="M 2298,13841 L 2298,534"/>
 <path fill="rgb(0,69,134)" stroke="none" d="M 22144,13841 L 22590,13841 22590,7321 22144,7321 22144,13841 Z"/>
 <path fill="rgb(0,69,134)" stroke="none" d="M 20360,13841 L 20806,13841 20806,7454 20360,7454 20360,13841 Z"/>
 <path fill="rgb(0,69,134)" stroke="none" d="M 18576,13841 L 19022,13841 19022,8252 18576,8252 18576,13841 Z"/>
 <path fill="rgb(0,69,134)" stroke="none" d="M 16792,13841 L 17238,13841 17238,7054 16792,7054 16792,13841 Z"/>
 <path fill="rgb(0,69,134)" stroke="none" d="M 15008,13841 L 15454,13841 15454,8518 15008,8518 15008,13841 Z"/>
 <path fill="rgb(0,69,134)" stroke="none" d="M 13224,13841 L 13670,13841 13670,9316 13224,9316 13224,13841 Z"/>
 <path fill="rgb(0,69,134)" stroke="none" d="M 11441,13841 L 11887,13841 11887,9316 11441,9316 11441,13841 Z"/>
 <path fill="rgb(0,69,134)" stroke="none" d="M 9657,13841 L 10103,13841 10103,6522 9657,6522 9657,13841 Z"/>
 <path fill="rgb(0,69,134)" stroke="none" d="M 7873,13841 L 8319,13841 8319,6522 7873,6522 7873,13841 Z"/>
 <path fill="rgb(0,69,134)" stroke="none" d="M 6089,13841 L 6535,13841 6535,5457 6089,5457 6089,13841 Z"/>
 <path fill="rgb(0,69,134)" stroke="none" d="M 4305,13841 L 4751,13841 4751,8917 4305,8917 4305,13841 Z"/>
 <path fill="rgb(0,69,134)" stroke="none" d="M 2521,13841 L 2967,13841 2967,8917 2521,8917 2521,13841 Z"/>
 <path fill="rgb(255,66,14)" stroke="none" d="M 15454,13841 L 15900,13841 15900,7054 15454,7054 15454,13841 Z"/>
 <path fill="rgb(255,66,14)" stroke="none" d="M 13670,13841 L 14116,13841 14116,7321 13670,7321 13670,13841 Z"/>
 <path fill="rgb(255,66,14)" stroke="none" d="M 11887,13841 L 12332,13841 12332,7853 11887,7853 11887,13841 Z"/>
 <path fill="rgb(255,66,14)" stroke="none" d="M 10103,13841 L 10549,13841 10549,5591 10103,5591 10103,13841 Z"/>
 <path fill="rgb(255,66,14)" stroke="none" d="M 8319,13841 L 8765,13841 8765,5857 8319,5857 8319,13841 Z"/>
 <path fill="rgb(255,66,14)" stroke="none" d="M 6535,13841 L 6981,13841 6981,4925 6535,4925 6535,13841 Z"/>
 <path fill="rgb(255,66,14)" stroke="none" d="M 4751,13841 L 5197,13841 5197,7454 4751,7454 4751,13841 Z"/>
 <path fill="rgb(255,66,14)" stroke="none" d="M 2967,13841 L 3413,13841 3413,7454 2967,7454 2967,13841 Z"/>
 <path fill="rgb(255,211,32)" stroke="none" d="M 23036,13841 L 23482,13841 23482,1598 23036,1598 23036,13841 Z"/>
 <path fill="rgb(255,211,32)" stroke="none" d="M 21252,13841 L 21698,13841 21698,1465 21252,1465 21252,13841 Z"/>
 <path fill="rgb(255,211,32)" stroke="none" d="M 19468,13841 L 19914,13841 19914,1598 19468,1598 19468,13841 Z"/>
 <path fill="rgb(255,211,32)" stroke="none" d="M 17684,13841 L 18130,13841 18130,1465 17684,1465 17684,13841 Z"/>
 <path fill="rgb(255,211,32)" stroke="none" d="M 15900,13841 L 16346,13841 16346,3062 15900,3062 15900,13841 Z"/>
 <path fill="rgb(255,211,32)" stroke="none" d="M 14116,13841 L 14562,13841 14562,3328 14116,3328 14116,13841 Z"/>
 <path fill="rgb(255,211,32)" stroke="none" d="M 12332,13841 L 12778,13841 12778,3328 12332,3328 12332,13841 Z"/>
 <path fill="rgb(255,211,32)" stroke="none" d="M 10549,13841 L 10995,13841 10995,2530 10549,2530 10549,13841 Z"/>
 <path fill="rgb(255,211,32)" stroke="none" d="M 8765,13841 L 9211,13841 9211,2397 8765,2397 8765,13841 Z"/>
 <path fill="rgb(255,211,32)" stroke="none" d="M 6981,13841 L 7427,13841 7427,2264 6981,2264 6981,13841 Z"/>
 <path fill="rgb(255,211,32)" stroke="none" d="M 5197,13841 L 5643,13841 5643,3195 5197,3195 5197,13841 Z"/>
 <path fill="rgb(255,211,32)" stroke="none" d="M 3413,13841 L 3859,13841 3859,3328 3413,3328 3413,13841 Z"/>
 <text class="TextShape"><tspan class="TextParagraph" font-family="Liberation Sans, sans-serif" font-size="353px" font-weight="400"><tspan class="TextPosition" x="3097" y="14409"><tspan fill="rgb(0,0,0)" stroke="none">1</tspan></tspan></tspan></text>
 <text class="TextShape"><tspan class="TextParagraph" font-family="Liberation Sans, sans-serif" font-size="353px" font-weight="400"><tspan class="TextPosition" x="4881" y="14409"><tspan fill="rgb(0,0,0)" stroke="none">2</tspan></tspan></tspan></text>
 <text class="TextShape"><tspan class="TextParagraph" font-family="Liberation Sans, sans-serif" font-size="353px" font-weight="400"><tspan class="TextPosition" x="6665" y="14409"><tspan fill="rgb(0,0,0)" stroke="none">3</tspan></tspan></tspan></text>
 <text class="TextShape"><tspan class="TextParagraph" font-family="Liberation Sans, sans-serif" font-size="353px" font-weight="400"><tspan class="TextPosition" x="8449" y="14409"><tspan fill="rgb(0,0,0)" stroke="none">4</tspan></tspan></tspan></text>
 <text class="TextShape"><tspan class="TextParagraph" font-family="Liberation Sans, sans-serif" font-size="353px" font-weight="400"><tspan class="TextPosition" x="10233" y="14409"><tspan fill="rgb(0,0,0)" stroke="none">5</tspan></tspan></tspan></text>
 <text class="TextShape"><tspan class="TextParagraph" font-family="Liberation Sans, sans-serif" font-size="353px" font-weight="400"><tspan class="TextPosition" x="12017" y="14409"><tspan fill="rgb(0,0,0)" stroke="none">6</tspan></tspan></tspan></text>
 <text class="TextShape"><tspan class="TextParagraph" font-family="Liberation Sans, sans-serif" font-size="353px" font-weight="400"><tspan class="TextPosition" x="13801" y="14409"><tspan fill="rgb(0,0,0)" stroke="none">7</tspan></tspan></tspan></text>
 <text class="TextShape"><tspan class="TextParagraph" font-family="Liberation Sans, sans-serif" font-size="353px" font-weight="400"><tspan class="TextPosition" x="15585" y="14409"><tspan fill="rgb(0,0,0)" stroke="none">8</tspan></tspan></tspan></text>
 <text class="TextShape"><tspan class="TextParagraph" font-family="Liberation Sans, sans-serif" font-size="353px" font-weight="400"><tspan class="TextPosition" x="17277" y="14409"><tspan fill="rgb(0,0,0)" stroke="none">15</tspan></tspan></tspan></text>
 <text class="TextShape"><tspan class="TextParagraph" font-family="Liberation Sans, sans-serif" font-size="353px" font-weight="400"><tspan class="TextPosition" x="19061" y="14409"><tspan fill="rgb(0,0,0)" stroke="none">16</tspan></tspan></tspan></text>
 <text class="TextShape"><tspan class="TextParagraph" font-family="Liberation Sans, sans-serif" font-size="353px" font-weight="400"><tspan class="TextPosition" x="20845" y="14409"><tspan fill="rgb(0,0,0)" stroke="none">17</tspan></tspan></tspan></text>
 <text class="TextShape"><tspan class="TextParagraph" font-family="Liberation Sans, sans-serif" font-size="353px" font-weight="400"><tspan class="TextPosition" x="22629" y="14409"><tspan fill="rgb(0,0,0)" stroke="none">18</tspan></tspan></tspan></text>
 <text class="TextShape"><tspan class="TextParagraph" font-family="Liberation Sans, sans-serif" font-size="353px" font-weight="400"><tspan class="TextPosition" x="1863" y="13962"><tspan fill="rgb(0,0,0)" stroke="none">0</tspan></tspan></tspan></text>
 <text class="TextShape"><tspan class="TextParagraph" font-family="Liberation Sans, sans-serif" font-size="353px" font-weight="400"><tspan class="TextPosition" x="1678" y="12631"><tspan fill="rgb(0,0,0)" stroke="none">10</tspan></tspan></tspan></text>
 <text class="TextShape"><tspan class="TextParagraph" font-family="Liberation Sans, sans-serif" font-size="353px" font-weight="400"><tspan class="TextPosition" x="1678" y="11300"><tspan fill="rgb(0,0,0)" stroke="none">20</tspan></tspan></tspan></text>
 <text class="TextShape"><tspan class="TextParagraph" font-family="Liberation Sans, sans-serif" font-size="353px" font-weight="400"><tspan class="TextPosition" x="1678" y="9969"><tspan fill="rgb(0,0,0)" stroke="none">30</tspan></tspan></tspan></text>
 <text class="TextShape"><tspan class="TextParagraph" font-family="Liberation Sans, sans-serif" font-size="353px" font-weight="400"><tspan class="TextPosition" x="1678" y="8638"><tspan fill="rgb(0,0,0)" stroke="none">40</tspan></tspan></tspan></text>
 <text class="TextShape"><tspan class="TextParagraph" font-family="Liberation Sans, sans-serif" font-size="353px" font-weight="400"><tspan class="TextPosition" x="1678" y="7308"><tspan fill="rgb(0,0,0)" stroke="none">50</tspan></tspan></tspan></text>
 <text class="TextShape"><tspan class="TextParagraph" font-family="Liberation Sans, sans-serif" font-size="353px" font-weight="400"><tspan class="TextPosition" x="1678" y="5977"><tspan fill="rgb(0,0,0)" stroke="none">60</tspan></tspan></tspan></text>
 <text class="TextShape"><tspan class="TextParagraph" font-family="Liberation Sans, sans-serif" font-size="353px" font-weight="400"><tspan class="TextPosition" x="1678" y="4646"><tspan fill="rgb(0,0,0)" stroke="none">70</tspan></tspan></tspan></text>
 <text class="TextShape"><tspan class="TextParagraph" font-family="Liberation Sans, sans-serif" font-size="353px" font-weight="400"><tspan class="TextPosition" x="1678" y="3315"><tspan fill="rgb(0,0,0)" stroke="none">80</tspan></tspan></tspan></text>
 <text class="TextShape"><tspan class="TextParagraph" font-family="Liberation Sans, sans-serif" font-size="353px" font-weight="400"><tspan class="TextPosition" x="1678" y="1984"><tspan fill="rgb(0,0,0)" stroke="none">90</tspan></tspan></tspan></text>
 <text class="TextShape"><tspan class="TextParagraph" font-family="Liberation Sans, sans-serif" font-size="353px" font-weight="400"><tspan class="TextPosition" x="1492" y="654"><tspan fill="rgb(0,0,0)" stroke="none">100</tspan></tspan></tspan></text>
 <path fill="rgb(0,69,134)" stroke="none" d="M 4738,16452 L 4611,16452 4611,16198 4865,16198 4865,16452 4738,16452 Z"/>
 <path fill="rgb(255,66,14)" stroke="none" d="M 10536,16452 L 10409,16452 10409,16198 10663,16198 10663,16452 10536,16452 Z"/>
 <path fill="rgb(255,211,32)" stroke="none" d="M 16598,16452 L 16471,16452 16471,16198 16725,16198 16725,16452 16598,16452 Z"/>
 <text class="TextShape"><tspan class="TextParagraph" font-family="Liberation Sans, sans-serif" font-size="423px" font-weight="400"><tspan class="TextPosition" x="4965" y="16470"><tspan fill="rgb(0,0,0)" stroke="none">Hi-C pro (Bowtie2-based)</tspan></tspan></tspan></text>
 <text class="TextShape"><tspan class="TextParagraph" font-family="Liberation Sans, sans-serif" font-size="423px" font-weight="400"><tspan class="TextPosition" x="10763" y="16470"><tspan fill="rgb(0,0,0)" stroke="none">Bowtie2 after cutadapt split</tspan></tspan></tspan></text>
 <text class="TextShape"><tspan class="TextParagraph" font-family="Liberation Sans, sans-serif" font-size="423px" font-weight="400"><tspan class="TextPosition" x="16825" y="16470"><tspan fill="rgb(0,0,0)" stroke="none">BWA (no preprocessing)</tspan></tspan></tspan></text>
 <text class="TextShape"><tspan class="TextParagraph" font-family="Liberation Sans, sans-serif" font-size="423px" font-weight="400"><tspan class="TextPosition" x="11288" y="15328"><tspan fill="rgb(0,0,0)" stroke="none">Sample name</tspan></tspan></tspan></text>
 <text class="TextShape" transform="rotate(-90 800 9767)"><tspan class="TextParagraph" font-family="Liberation Sans, sans-serif" font-size="423px" font-weight="400"><tspan class="TextPosition" x="800" y="9767"><tspan fill="rgb(0,0,0)" stroke="none">Reported pairs, % of total</tspan></tspan></tspan></text>
</svg>