<?xml version="1.0" encoding="UTF-8" standalone="no"?>
<!-- Created with Inkscape (http://www.inkscape.org/) -->

<svg
   xmlns:dc="http://purl.org/dc/elements/1.1/"
   xmlns:cc="http://creativecommons.org/ns#"
   xmlns:rdf="http://www.w3.org/1999/02/22-rdf-syntax-ns#"
   xmlns:svg="http://www.w3.org/2000/svg"
   xmlns="http://www.w3.org/2000/svg"
   xmlns:xlink="http://www.w3.org/1999/xlink"
   xmlns:sodipodi="http://sodipodi.sourceforge.net/DTD/sodipodi-0.dtd"
   xmlns:inkscape="http://www.inkscape.org/namespaces/inkscape"
   width="210mm"
   height="297mm"
   viewBox="0 0 210 297"
   version="1.1"
   id="svg8"
   sodipodi:docname="drawing.svg"
   inkscape:version="0.92.4 (5da689c313, 2019-01-14)">
  <defs
     id="defs2">
    <linearGradient
       inkscape:collect="always"
       id="linearGradient1020">
      <stop
         style="stop-color:#3771c8;stop-opacity:1;"
         offset="0"
         id="stop1016" />
      <stop
         style="stop-color:#3771c8;stop-opacity:0.03559871"
         offset="1"
         id="stop1018" />
    </linearGradient>
    <linearGradient
       inkscape:collect="always"
       id="linearGradient1008">
      <stop
         style="stop-color:#c83771;stop-opacity:1;"
         offset="0"
         id="stop1004" />
      <stop
         style="stop-color:#c83771;stop-opacity:0.02588997"
         offset="1"
         id="stop1006" />
    </linearGradient>
    <linearGradient
       inkscape:collect="always"
       id="linearGradient996">
      <stop
         style="stop-color:#ffcc00;stop-opacity:1;"
         offset="0"
         id="stop992" />
      <stop
         style="stop-color:#ffcc00;stop-opacity:0.00647249"
         offset="1"
         id="stop994" />
    </linearGradient>
    <linearGradient
       inkscape:collect="always"
       id="linearGradient984">
      <stop
         style="stop-color:#ffcc00;stop-opacity:1;"
         offset="0"
         id="stop980" />
      <stop
         style="stop-color:#ffcc00;stop-opacity:0.06472493"
         offset="1"
         id="stop982" />
    </linearGradient>
    <linearGradient
       inkscape:collect="always"
       id="linearGradient972">
      <stop
         style="stop-color:#c83771;stop-opacity:1"
         offset="0"
         id="stop968" />
      <stop
         style="stop-color:#c83771;stop-opacity:0.0420712"
         offset="1"
         id="stop970" />
    </linearGradient>
    <linearGradient
       inkscape:collect="always"
       id="linearGradient960">
      <stop
         style="stop-color:#3771c8;stop-opacity:1"
         offset="0"
         id="stop956" />
      <stop
         style="stop-color:#3771c8;stop-opacity:0"
         offset="1"
         id="stop958" />
    </linearGradient>
    <linearGradient
       inkscape:collect="always"
       xlink:href="#linearGradient960"
       id="linearGradient962"
       x1="105.33732"
       y1="100.12657"
       x2="104.90328"
       y2="110.17859"
       gradientUnits="userSpaceOnUse" />
    <linearGradient
       inkscape:collect="always"
       xlink:href="#linearGradient972"
       id="linearGradient974"
       x1="106.47334"
       y1="153.68474"
       x2="73.5588"
       y2="154.00015"
       gradientUnits="userSpaceOnUse" />
    <linearGradient
       inkscape:collect="always"
       xlink:href="#linearGradient984"
       id="linearGradient986"
       x1="131.39413"
       y1="144.47472"
       x2="149.1575"
       y2="156.0927"
       gradientUnits="userSpaceOnUse" />
    <linearGradient
       inkscape:collect="always"
       xlink:href="#linearGradient996"
       id="linearGradient998"
       x1="169.44611"
       y1="186.4301"
       x2="160.22807"
       y2="186.75133"
       gradientUnits="userSpaceOnUse" />
    <linearGradient
       inkscape:collect="always"
       xlink:href="#linearGradient1008"
       id="linearGradient1010"
       x1="143.8806"
       y1="201.77231"
       x2="129.79118"
       y2="192.81877"
       gradientUnits="userSpaceOnUse" />
    <linearGradient
       inkscape:collect="always"
       xlink:href="#linearGradient1020"
       id="linearGradient1022"
       x1="93.773521"
       y1="148.09282"
       x2="93.308136"
       y2="136.20467"
       gradientUnits="userSpaceOnUse" />
  </defs>
  <sodipodi:namedview
     id="base"
     pagecolor="#ffffff"
     bordercolor="#666666"
     borderopacity="1.0"
     inkscape:pageopacity="0.0"
     inkscape:pageshadow="2"
     inkscape:zoom="0.98994949"
     inkscape:cx="241.6991"
     inkscape:cy="442.74265"
     inkscape:document-units="mm"
     inkscape:current-layer="layer1"
     showgrid="false"
     inkscape:window-width="1920"
     inkscape:window-height="1015"
     inkscape:window-x="0"
     inkscape:window-y="0"
     inkscape:window-maximized="1" />
  <metadata
     id="metadata5">
    <rdf:RDF>
      <cc:Work
         rdf:about="">
        <dc:format>image/svg+xml</dc:format>
        <dc:type
           rdf:resource="http://purl.org/dc/dcmitype/StillImage" />
      </cc:Work>
    </rdf:RDF>
  </metadata>
  <g
     inkscape:label="Layer 1"
     inkscape:groupmode="layer"
     id="layer1">
    <path
       inkscape:connector-curvature="0"
       style="opacity:1;vector-effect:none;fill:#3771c8;fill-opacity:0.50485439;fill-rule:evenodd;stroke:none;stroke-width:1;stroke-linecap:round;stroke-linejoin:round;stroke-miterlimit:4;stroke-dasharray:none;stroke-dashoffset:0;stroke-opacity:1;paint-order:fill markers stroke"
       d="M 126.62896,141.73243 C 131.78138,101.5023 148.1992,100.6347 166.11753,95.21191 150.27797,79.86275 131.87652,72.889638 112.44792,72.86015 96.306541,72.835651 80.604754,78.122119 67.673905,87.783271 56.922681,100.76665 50.459915,117.43026 50.459968,135.60412 c -2.9e-5,9.86651 1.908315,19.28629 5.3697,27.91561 l 1.09709,2.59416 c 7.585421,12.69809 43.975222,12.175 69.704272,-24.37164"
       id="path815-3-9-5-3"
       sodipodi:nodetypes="ccsccccc" />
    <path
       style="opacity:1;vector-effect:none;fill:#c83771;fill-opacity:0.50485438;fill-rule:evenodd;stroke:none;stroke-width:3.77952761;stroke-linecap:round;stroke-linejoin:round;stroke-miterlimit:4;stroke-dasharray:none;stroke-dashoffset:0;stroke-opacity:0.98058256;paint-order:fill markers stroke"
       d="M 478.59766,535.68164 C 327.09698,573.49465 180.6035,508.98952 211.00977,618.02734 l 4.14648,9.80469 C 259.34073,726.97296 358.73617,796.09135 474.28516,796.0918 534.62497,795.97236 593.3536,776.60865 641.93164,740.81641 556.26072,702.79232 496.04919,625.54789 478.60547,535.71875 Z"
       transform="scale(0.26458333)"
       id="path815-3-9-5"
       inkscape:connector-curvature="0"
       sodipodi:nodetypes="ccccccc" />
    <path
       style="opacity:1;vector-effect:none;fill:#e3dbdb;fill-opacity:1;fill-rule:evenodd;stroke:none;stroke-width:0.26458332;stroke-linecap:round;stroke-linejoin:round;stroke-miterlimit:4;stroke-dasharray:none;stroke-dashoffset:0;stroke-opacity:1;paint-order:fill markers stroke"
       d="m 172.29389,193.65276 c -12.91504,9.62249 -28.58368,14.83371 -44.68926,14.86318 -41.436957,-1.6e-4 -75.028116,-33.59155 -75.027994,-75.0285 0.0096,-17.48901 6.12844,-34.425234 17.299204,-47.881815 -19.056762,14.130588 -30.307573,36.441725 -30.339752,60.165825 -1.21e-4,41.43714 33.591352,75.02861 75.028512,75.02849 22.32347,-0.0102 43.48303,-9.96051 57.72929,-27.14718 z"
       id="path815-1-1"
       inkscape:connector-curvature="0"
       sodipodi:nodetypes="ccccccc" />
    <path
       style="fill:none;stroke:#c83771;stroke-width:4;stroke-linecap:round;stroke-linejoin:round;stroke-miterlimit:4;stroke-dasharray:none;stroke-opacity:1"
       d="m 106.47334,153.68474 c 7.78168,-1.68427 12.30242,-2.52291 15.6286,-0.63248 4.78313,2.71848 5.41894,7.02589 4.05597,9.83296 -7.60725,15.66735 -42.044074,-3.46963 -45.939064,13.5058 -1.466263,6.39037 5.307437,15.38446 11.786722,16.38729 14.887352,2.30419 24.604792,-20.22115 39.569312,-18.48746 3.27562,0.37949 6.81118,3.03867 6.80588,6.33619 -0.018,11.22849 -23.04708,7.43135 -21.92396,16.40581 0.63599,5.08205 4.69168,7.58453 9.67542,6.40382 8.00278,-1.89596 12.74104,-12.65217 20.96051,-12.93408 5.51722,-0.18923 6.07639,4.72654 5.13775,6.8045 -1.57714,3.49147 -3.98863,4.85343 -6.69436,4.88826"
       id="path1002"
       inkscape:connector-curvature="0"
       sodipodi:nodetypes="cssssscssssc" />
    <path
       style="fill:none;stroke:url(#linearGradient1010);stroke-width:4;stroke-linecap:round;stroke-linejoin:round;stroke-miterlimit:4;stroke-dasharray:none;stroke-opacity:1"
       d="m 145.53612,202.19535 c -8.20688,0.10567 -19.12069,-11.99812 -17.66923,-13.92033"
       id="path866" />
    <circle
       style="opacity:1;vector-effect:none;fill:none;fill-opacity:1;fill-rule:evenodd;stroke:#000000;stroke-width:0.26458332;stroke-linecap:round;stroke-linejoin:round;stroke-miterlimit:4;stroke-dasharray:none;stroke-dashoffset:0;stroke-opacity:0.16181229;paint-order:fill markers stroke"
       id="path815"
       cx="112.44791"
       cy="147.88838"
       r="75.028275" />
    <path
       style="fill:none;stroke:url(#linearGradient974);stroke-width:4;stroke-linecap:round;stroke-linejoin:round;stroke-miterlimit:4;stroke-dasharray:none;stroke-opacity:1"
       d="m 73.558801,154.00015 c 3.458194,1.3027 19.195893,2.85628 32.914539,-0.31541"
       id="path966"
       inkscape:connector-curvature="0"
       sodipodi:nodetypes="cc" />
    <path
       style="fill:none;stroke:url(#linearGradient962);stroke-width:4;stroke-linecap:round;stroke-linejoin:round;stroke-miterlimit:4;stroke-dasharray:none;stroke-opacity:1"
       d="m 104.90328,110.17859 c -0.0948,-1.57817 1.71916,-11.768721 -1.36135,-18.367489"
       id="path954"
       inkscape:connector-curvature="0"
       sodipodi:nodetypes="cc" />
    <path
       style="fill:none;stroke:#3771c8;stroke-width:4;stroke-linecap:round;stroke-linejoin:round;stroke-miterlimit:4;stroke-dasharray:none;stroke-opacity:1"
       d="m 103.54193,91.811101 c -2.12388,-4.306656 -9.118029,-10.514559 -16.821705,-7.943897 -7.155964,2.387895 -14.091202,5.557011 -15.252489,12.090756 -3.478928,19.57349 37.431464,-6.213028 49.162534,-1.622611 7.69858,3.012486 4.53702,13.025221 0.14869,16.515351 -14.89893,11.84944 -43.227322,-4.8456 -57.495371,7.7564 -4.295378,3.79382 -6.396983,9.01797 -2.529563,13.2472 13.192275,14.42645 41.103914,-17.74839 55.693274,-4.7365 3.39088,3.02424 6.41396,10.23563 -0.93544,16.1698 -7.34941,5.93416 -43.501478,-8.7755 -53.140784,7.56182 -1.409626,2.38912 -0.841672,7.97566 3.262156,11.87093 5.555781,5.27343 22.839623,0.3279 27.538935,-12.62302"
       id="path1014"
       inkscape:connector-curvature="0"
       sodipodi:nodetypes="cssssssscssc" />
    <path
       style="fill:none;stroke:url(#linearGradient1022);stroke-width:4;stroke-linecap:round;stroke-linejoin:round;stroke-miterlimit:4;stroke-dasharray:none;stroke-opacity:1"
       d="m 93.172167,150.09733 c 1.42184,-3.91847 1.691634,-8.5698 0.135972,-13.89266"
       id="path932" />
    <path
       style="opacity:1;vector-effect:none;fill:#ffd42a;fill-opacity:0.50588238;fill-rule:evenodd;stroke:none;stroke-width:0.99999994;stroke-linecap:round;stroke-linejoin:round;stroke-miterlimit:4;stroke-dasharray:none;stroke-dashoffset:0;stroke-opacity:0.16181228;paint-order:fill markers stroke"
       d="M 537.11498,355.81591 C 504.10473,377.788 485.32751,400.28935 476.96987,477.9269 464.96031,589.48864 539.71953,695.66628 642.35156,741.01953 685.11601,689.98526 705.97401,625.47956 708.57227,558.94727 711.11481,493.84181 671.9972,412.61286 653.48165,388.25148 516.71015,469.52882 550.37276,402.72131 537.11498,355.81591 Z"
       transform="scale(0.26458333)"
       id="path815-8"
       inkscape:connector-curvature="0"
       sodipodi:nodetypes="cscscc" />
    <path
       style="fill:none;stroke:url(#linearGradient986);stroke-width:4;stroke-linecap:round;stroke-linejoin:round;stroke-miterlimit:4;stroke-dasharray:none;stroke-opacity:1"
       d="m 149.1575,156.0927 c -9.80407,0.33307 -15.34708,-6.61131 -17.76336,-11.61799"
       id="path978"
       inkscape:connector-curvature="0"
       sodipodi:nodetypes="cc" />
    <path
       style="fill:none;stroke:#ffcc00;stroke-width:4;stroke-linecap:round;stroke-linejoin:round;stroke-miterlimit:4;stroke-dasharray:none;stroke-opacity:1"
       d="m 131.39414,144.47471 c -2.40926,-4.49724 -1.38827,-8.41785 4.64389,-7.2857 9.18804,1.72326 23.59439,7.44976 36.04717,3.25311 10.66163,-3.59302 12.85242,8.64803 6.5319,13.10849 -11.68378,8.24537 -36.60433,-14.03807 -40.82229,-0.37404 -1.25102,4.05266 0.12154,7.33577 1.80407,8.61945 9.92072,7.32068 29.36517,-1.00255 36.05648,0.46492 6.69131,1.46747 4.74987,10.03148 -1.24856,10.33738 -5.99843,0.3059 -20.92003,-4.22358 -22.95275,1.21138 -4.02039,10.74949 18.7238,4.76065 20.80116,7.32896 1.26813,1.80258 0.57864,3.37944 -1.20271,4.67722"
       id="path990"
       inkscape:connector-curvature="0"
       sodipodi:nodetypes="ccsssczzscc" />
    <path
       inkscape:connector-curvature="0"
       style="opacity:1;vector-effect:none;fill:#ac9393;fill-opacity:1;fill-rule:evenodd;stroke:#000000;stroke-width:0.26458332;stroke-linecap:round;stroke-linejoin:round;stroke-miterlimit:4;stroke-dasharray:none;stroke-dashoffset:0;stroke-opacity:0.11650486;paint-order:fill markers stroke"
       d="m 153.02407,91.282966 a 22.454899,22.454899 0 0 0 -10.9124,2.859993 22.454899,22.454899 0 0 0 -4.6625,13.652731 22.454899,22.454899 0 0 0 22.45484,22.45484 22.454899,22.454899 0 0 0 10.91241,-2.8596 22.454899,22.454899 0 0 0 4.66249,-13.65312 22.454899,22.454899 0 0 0 -22.45484,-22.454844 z"
       id="path832-4" />
    <path
       style="opacity:1;vector-effect:none;fill:#483737;fill-opacity:1;fill-rule:evenodd;stroke:none;stroke-width:0.26458332;stroke-linecap:round;stroke-linejoin:round;stroke-miterlimit:4;stroke-dasharray:none;stroke-dashoffset:0;stroke-opacity:1;paint-order:fill markers stroke"
       d="m 170.81642,127.39093 c -3.33487,1.86625 -7.09087,2.85051 -10.91241,2.8596 -12.40145,-3e-5 -22.45481,-10.05339 -22.45484,-22.45484 0.0101,-4.93988 1.6489,-9.738565 4.6625,-13.652731 m 0,0 c -7.11523,3.956221 -11.53182,11.453711 -11.54283,19.594851 3e-5,12.40161 10.05363,22.45503 22.45523,22.45484 6.97601,-0.0109 13.55075,-3.26334 17.79235,-8.80172"
       id="path832-1"
       inkscape:connector-curvature="0"
       sodipodi:nodetypes="cccccccc" />
    <path
       style="opacity:1;vector-effect:none;fill:#916f6f;fill-opacity:1;fill-rule:evenodd;stroke:none;stroke-width:0.99999994;stroke-linecap:round;stroke-linejoin:round;stroke-miterlimit:4;stroke-dasharray:none;stroke-dashoffset:0;stroke-opacity:1;paint-order:fill markers stroke"
       d="m 643.18945,739.91602 c -48.81276,36.36845 -108.0328,56.06441 -168.90429,56.17578 -156.61207,-6.1e-4 -283.57078,-126.9602 -283.57032,-283.57227 0.0361,-66.1002 23.16261,-130.11117 65.38282,-180.9707 C 184.0721,384.95582 141.54935,469.28137 141.42773,558.94727 141.42727,715.5601 268.38717,842.51999 425,842.51953 c 84.37217,-0.0387 164.34532,-37.64602 218.18945,-102.60351 z"
       transform="scale(0.26458333)"
       id="path815-1"
       inkscape:connector-curvature="0"
       sodipodi:nodetypes="ccccccc" />
    <path
       style="fill:none;stroke:url(#linearGradient998);stroke-width:4;stroke-linecap:round;stroke-linejoin:round;stroke-miterlimit:4;stroke-dasharray:none;stroke-opacity:1"
       d="m 171.0525,185.81588 c -3.24749,2.36593 -6.39969,1.47821 -10.82442,0.93544"
       id="path868" />
  </g>
</svg>
